<svg width="214" height="122" viewBox="0 0 214 122" fill="none" xmlns="http://www.w3.org/2000/svg">
<path d="M43.2339 6.23187V66H31.8495V20.9367L24.7343 25.6802L19.0421 17.1419L34.6956 6.23187H43.2339ZM86.3961 6.23187V14.7702L62.6786 66H50.8198L73.5887 17.1419H47.9737V6.23187H86.3961ZM115.35 46.5516H86.889V37.0646H115.35V46.5516ZM157.126 55.0899V66H117.281V57.936L139.101 35.1672C140.303 33.9656 141.409 32.7322 142.421 31.4673C143.244 30.3921 144.002 29.1904 144.698 27.8622C145.394 26.4708 145.742 25.111 145.742 23.7828C145.742 21.3795 145.014 19.5137 143.56 18.1855C142.168 16.8573 140.05 16.1932 137.203 16.1932C134.357 16.1932 132.144 16.9522 130.563 18.4701C128.981 19.988 128.191 22.0752 128.191 24.7315H116.806C116.806 22.0119 117.281 19.5137 118.229 17.2368C119.241 14.8967 120.633 12.8728 122.404 11.1651C124.175 9.45746 126.293 8.12928 128.76 7.18058C131.29 6.23188 134.104 5.75752 137.203 5.75752C140.429 5.75752 143.275 6.20025 145.742 7.0857C148.272 7.97116 150.422 9.20447 152.193 10.7856C153.964 12.3668 155.292 14.2326 156.177 16.383C157.126 18.5334 157.601 20.8419 157.601 23.3085C157.601 25.5854 157.031 27.8306 155.893 30.0443C154.754 32.1946 153.489 34.1553 152.098 35.9262C150.454 38.0133 148.651 39.974 146.69 41.8081L133.883 55.0899H157.126ZM172.294 36.1159C172.294 39.3415 172.674 42.156 173.433 44.5594C174.192 46.9627 175.172 48.9866 176.374 50.6311C177.639 52.2755 179.062 53.5088 180.643 54.331C182.287 55.1532 183.932 55.5643 185.576 55.5643C187.22 55.5643 188.833 55.1532 190.414 54.331C192.059 53.5088 193.482 52.2755 194.684 50.6311C195.949 48.9866 196.96 46.9627 197.719 44.5594C198.478 42.156 198.858 39.3415 198.858 36.1159C198.858 32.8904 198.478 30.0759 197.719 27.6725C196.96 25.2691 195.949 23.2452 194.684 21.6008C193.482 19.9564 192.059 18.7231 190.414 17.9009C188.833 17.0787 187.22 16.6676 185.576 16.6676C183.932 16.6676 182.287 17.0787 180.643 17.9009C179.062 18.7231 177.639 19.9564 176.374 21.6008C175.172 23.2452 174.192 25.2691 173.433 27.6725C172.674 30.0759 172.294 32.8904 172.294 36.1159ZM210.242 36.1159C210.242 40.8594 209.578 45.1286 208.25 48.9234C206.922 52.6549 205.119 55.8173 202.842 58.4104C200.629 61.0035 198.004 62.9958 194.968 64.3872C191.996 65.7786 188.865 66.4744 185.576 66.4744C182.224 66.4744 179.062 65.7786 176.089 64.3872C173.116 62.9958 170.492 61.0035 168.215 58.4104C166.001 55.8173 164.23 52.6549 162.902 48.9234C161.574 45.1286 160.91 40.8594 160.91 36.1159C160.91 31.3724 161.574 27.1349 162.902 23.4034C164.23 19.6086 166.001 16.4146 168.215 13.8215C170.492 11.2284 173.116 9.23609 176.089 7.84467C179.062 6.45324 182.224 5.75752 185.576 5.75752C188.865 5.75752 191.996 6.45324 194.968 7.84467C198.004 9.23609 200.629 11.2284 202.842 13.8215C205.119 16.4146 206.922 19.6086 208.25 23.4034C209.578 27.1349 210.242 31.3724 210.242 36.1159Z" fill="#06FDFE"/>
<path d="M122.898 90.44C122.898 89.816 122.794 89.24 122.586 88.712C122.378 88.184 122.09 87.728 121.722 87.344C121.37 86.96 120.954 86.664 120.474 86.456C119.994 86.232 119.482 86.12 118.938 86.12C118.394 86.12 117.882 86.232 117.402 86.456C116.922 86.664 116.498 86.96 116.13 87.344C115.778 87.728 115.498 88.184 115.29 88.712C115.082 89.24 114.978 89.816 114.978 90.44C114.978 91.064 115.082 91.64 115.29 92.168C115.498 92.696 115.778 93.152 116.13 93.536C116.498 93.92 116.922 94.224 117.402 94.448C117.882 94.656 118.394 94.76 118.938 94.76C119.482 94.76 119.994 94.656 120.474 94.448C120.954 94.224 121.37 93.92 121.722 93.536C122.09 93.152 122.378 92.696 122.586 92.168C122.794 91.64 122.898 91.064 122.898 90.44ZM126.378 90.44C126.378 91.528 126.178 92.536 125.778 93.464C125.394 94.392 124.866 95.208 124.194 95.912C123.522 96.6 122.73 97.144 121.818 97.544C120.922 97.928 119.962 98.12 118.938 98.12C117.914 98.12 116.946 97.928 116.034 97.544C115.138 97.144 114.354 96.6 113.682 95.912C113.01 95.208 112.474 94.392 112.074 93.464C111.69 92.536 111.498 91.528 111.498 90.44C111.498 89.368 111.69 88.368 112.074 87.44C112.474 86.496 113.01 85.68 113.682 84.992C114.354 84.288 115.138 83.744 116.034 83.36C116.946 82.96 117.914 82.76 118.938 82.76C119.962 82.76 120.922 82.96 121.818 83.36C122.73 83.744 123.522 84.288 124.194 84.992C124.866 85.68 125.394 86.496 125.778 87.44C126.178 88.368 126.378 89.368 126.378 90.44ZM135.251 94.76C136.211 94.76 136.963 94.536 137.507 94.088C138.067 93.624 138.435 93.088 138.611 92.48L142.211 92.72C142.035 93.44 141.747 94.128 141.347 94.784C140.947 95.44 140.451 96.016 139.859 96.512C139.267 96.992 138.579 97.384 137.795 97.688C137.027 97.976 136.179 98.12 135.251 98.12C134.227 98.12 133.259 97.928 132.347 97.544C131.451 97.144 130.667 96.6 129.995 95.912C129.323 95.208 128.787 94.392 128.387 93.464C128.003 92.536 127.811 91.528 127.811 90.44C127.811 89.368 128.003 88.368 128.387 87.44C128.787 86.496 129.323 85.68 129.995 84.992C130.667 84.288 131.451 83.744 132.347 83.36C133.259 82.96 134.227 82.76 135.251 82.76C136.147 82.76 136.971 82.912 137.723 83.216C138.491 83.504 139.163 83.896 139.739 84.392C140.331 84.872 140.827 85.44 141.227 86.096C141.627 86.752 141.915 87.44 142.091 88.16L138.491 88.4C138.395 88.096 138.259 87.808 138.083 87.536C137.907 87.264 137.683 87.024 137.411 86.816C137.139 86.608 136.819 86.44 136.451 86.312C136.099 86.184 135.699 86.12 135.251 86.12C134.707 86.12 134.195 86.232 133.715 86.456C133.235 86.664 132.811 86.96 132.443 87.344C132.091 87.728 131.811 88.184 131.603 88.712C131.395 89.24 131.291 89.816 131.291 90.44C131.291 91.064 131.395 91.64 131.603 92.168C131.811 92.696 132.091 93.152 132.443 93.536C132.811 93.92 133.235 94.224 133.715 94.448C134.195 94.656 134.707 94.76 135.251 94.76ZM150.74 98H147.26V86.24H142.94V82.88H155.06V86.24H150.74V98ZM166.961 90.44C166.961 89.816 166.857 89.24 166.649 88.712C166.441 88.184 166.153 87.728 165.785 87.344C165.433 86.96 165.017 86.664 164.537 86.456C164.057 86.232 163.545 86.12 163.001 86.12C162.457 86.12 161.945 86.232 161.465 86.456C160.985 86.664 160.561 86.96 160.193 87.344C159.841 87.728 159.561 88.184 159.353 88.712C159.145 89.24 159.041 89.816 159.041 90.44C159.041 91.064 159.145 91.64 159.353 92.168C159.561 92.696 159.841 93.152 160.193 93.536C160.561 93.92 160.985 94.224 161.465 94.448C161.945 94.656 162.457 94.76 163.001 94.76C163.545 94.76 164.057 94.656 164.537 94.448C165.017 94.224 165.433 93.92 165.785 93.536C166.153 93.152 166.441 92.696 166.649 92.168C166.857 91.64 166.961 91.064 166.961 90.44ZM170.441 90.44C170.441 91.528 170.241 92.536 169.841 93.464C169.457 94.392 168.929 95.208 168.257 95.912C167.585 96.6 166.793 97.144 165.881 97.544C164.985 97.928 164.025 98.12 163.001 98.12C161.977 98.12 161.009 97.928 160.097 97.544C159.201 97.144 158.417 96.6 157.745 95.912C157.073 95.208 156.537 94.392 156.137 93.464C155.753 92.536 155.561 91.528 155.561 90.44C155.561 89.368 155.753 88.368 156.137 87.44C156.537 86.496 157.073 85.68 157.745 84.992C158.417 84.288 159.201 83.744 160.097 83.36C161.009 82.96 161.977 82.76 163.001 82.76C164.025 82.76 164.985 82.96 165.881 83.36C166.793 83.744 167.585 84.288 168.257 84.992C168.929 85.68 169.457 86.496 169.841 87.44C170.241 88.368 170.441 89.368 170.441 90.44ZM181.953 89.96C182.401 90.168 182.801 90.44 183.153 90.776C183.457 91.064 183.729 91.432 183.969 91.88C184.225 92.328 184.353 92.888 184.353 93.56C184.353 94.168 184.233 94.744 183.993 95.288C183.753 95.816 183.409 96.28 182.961 96.68C182.529 97.08 182.009 97.4 181.401 97.64C180.809 97.88 180.153 98 179.433 98H172.593V82.88H179.073C179.761 82.88 180.393 82.992 180.969 83.216C181.545 83.44 182.033 83.744 182.433 84.128C182.849 84.512 183.169 84.96 183.393 85.472C183.633 85.968 183.753 86.504 183.753 87.08C183.753 87.592 183.657 88.032 183.465 88.4C183.273 88.768 183.065 89.064 182.841 89.288C182.569 89.56 182.273 89.784 181.953 89.96ZM176.073 88.88H178.713C179.193 88.88 179.593 88.728 179.913 88.424C180.233 88.104 180.393 87.736 180.393 87.32C180.393 86.904 180.233 86.544 179.913 86.24C179.593 85.92 179.193 85.76 178.713 85.76H176.073V88.88ZM179.073 95.12C179.617 95.12 180.073 94.944 180.441 94.592C180.809 94.224 180.993 93.8 180.993 93.32C180.993 92.84 180.809 92.424 180.441 92.072C180.073 91.704 179.617 91.52 179.073 91.52H176.073V95.12H179.073ZM186.515 82.88H197.315V86.24H189.995V88.64H196.715V92H189.995V94.64H197.555V98H186.515V82.88ZM206.065 82.88C206.849 82.88 207.561 83.008 208.201 83.264C208.857 83.52 209.417 83.864 209.881 84.296C210.345 84.728 210.705 85.24 210.961 85.832C211.217 86.408 211.345 87.024 211.345 87.68C211.345 88.528 211.193 89.24 210.889 89.816C210.601 90.392 210.273 90.864 209.905 91.232C209.553 91.584 209.225 91.84 208.921 92C208.617 92.16 208.465 92.24 208.465 92.24L211.825 98H207.985L205.225 92.96H203.425V98H199.945V82.88H206.065ZM206.065 89.6C206.673 89.6 207.145 89.44 207.481 89.12C207.817 88.8 207.985 88.4 207.985 87.92C207.985 87.44 207.817 87.04 207.481 86.72C207.145 86.4 206.673 86.24 206.065 86.24H203.425V89.6H206.065Z" fill="white"/>
<path d="M176.316 113.64V117H165.876V114.6L171.396 108.84C171.636 108.584 171.852 108.32 172.044 108.048C172.22 107.824 172.372 107.568 172.5 107.28C172.644 106.992 172.716 106.712 172.716 106.44C172.716 105.96 172.572 105.584 172.284 105.312C171.996 105.024 171.58 104.88 171.036 104.88C170.428 104.88 169.956 105.048 169.62 105.384C169.284 105.72 169.116 106.192 169.116 106.8L165.756 106.56C165.756 105.872 165.876 105.24 166.116 104.664C166.372 104.072 166.724 103.56 167.172 103.128C167.636 102.696 168.188 102.36 168.828 102.12C169.484 101.88 170.22 101.76 171.036 101.76C171.868 101.76 172.612 101.872 173.268 102.096C173.924 102.32 174.476 102.64 174.924 103.056C175.388 103.456 175.732 103.936 175.956 104.496C176.196 105.056 176.316 105.664 176.316 106.32C176.316 106.896 176.188 107.448 175.932 107.976C175.692 108.488 175.42 108.944 175.116 109.344C174.764 109.808 174.364 110.24 173.916 110.64L171.036 113.64H176.316ZM187.473 109.44C187.473 108.72 187.385 108.096 187.209 107.568C187.049 107.024 186.833 106.576 186.561 106.224C186.289 105.856 185.969 105.584 185.601 105.408C185.233 105.216 184.857 105.12 184.473 105.12C184.089 105.12 183.713 105.216 183.345 105.408C182.977 105.584 182.657 105.856 182.385 106.224C182.113 106.576 181.889 107.024 181.713 107.568C181.553 108.096 181.473 108.72 181.473 109.44C181.473 110.16 181.553 110.792 181.713 111.336C181.889 111.88 182.113 112.336 182.385 112.704C182.657 113.056 182.977 113.32 183.345 113.496C183.713 113.672 184.089 113.76 184.473 113.76C184.857 113.76 185.233 113.672 185.601 113.496C185.969 113.32 186.289 113.056 186.561 112.704C186.833 112.336 187.049 111.88 187.209 111.336C187.385 110.792 187.473 110.16 187.473 109.44ZM177.993 109.44C177.993 108.24 178.161 107.168 178.497 106.224C178.833 105.264 179.289 104.456 179.865 103.8C180.457 103.144 181.145 102.64 181.929 102.288C182.729 101.936 183.577 101.76 184.473 101.76C185.369 101.76 186.209 101.936 186.993 102.288C187.793 102.64 188.481 103.144 189.057 103.8C189.649 104.456 190.113 105.264 190.449 106.224C190.785 107.168 190.953 108.24 190.953 109.44C190.953 110.64 190.785 111.72 190.449 112.68C190.113 113.624 189.649 114.424 189.057 115.08C188.481 115.736 187.793 116.24 186.993 116.592C186.209 116.944 185.369 117.12 184.473 117.12C183.577 117.12 182.729 116.944 181.929 116.592C181.145 116.24 180.457 115.736 179.865 115.08C179.289 114.424 178.833 113.624 178.497 112.68C178.161 111.72 177.993 110.64 177.993 109.44ZM203.082 113.64V117H192.642V114.6L198.162 108.84C198.402 108.584 198.618 108.32 198.81 108.048C198.986 107.824 199.138 107.568 199.266 107.28C199.41 106.992 199.482 106.712 199.482 106.44C199.482 105.96 199.338 105.584 199.05 105.312C198.762 105.024 198.346 104.88 197.802 104.88C197.194 104.88 196.722 105.048 196.386 105.384C196.05 105.72 195.882 106.192 195.882 106.8L192.522 106.56C192.522 105.872 192.642 105.24 192.882 104.664C193.138 104.072 193.49 103.56 193.938 103.128C194.402 102.696 194.954 102.36 195.594 102.12C196.25 101.88 196.986 101.76 197.802 101.76C198.634 101.76 199.378 101.872 200.034 102.096C200.69 102.32 201.242 102.64 201.69 103.056C202.154 103.456 202.498 103.936 202.722 104.496C202.962 105.056 203.082 105.664 203.082 106.32C203.082 106.896 202.954 107.448 202.698 107.976C202.458 108.488 202.186 108.944 201.882 109.344C201.53 109.808 201.13 110.24 200.682 110.64L197.802 113.64H203.082ZM210.759 101.88V117H207.279V106.2L205.719 107.28L204.039 104.64L207.999 101.88H210.759Z" fill="#06FDFE"/>
</svg>
