<svg width="71" height="71" fill="none" xmlns="http://www.w3.org/2000/svg"><circle cx="35.5" cy="35.5" r="35.5" fill="url(#a)"/><path d="M41.161 39.04a7.39 7.39 0 00-3.553-.904h-3.06a7.426 7.426 0 00-7.43 7.43v2.292h17.92v-2.292a7.427 7.427 0 00-3.877-6.526zm8.425-2.94h-2.543a7.355 7.355 0 00-4.03 1.196 9.868 9.868 0 011.566 1.276 9.826 9.826 0 012.896 6.994v1.078h9.518v-3.136c0-4.085-3.323-7.408-7.407-7.408zm-24.636 0h-2.543C18.323 36.1 15 39.423 15 43.508v3.136h9.642v-1.078a9.826 9.826 0 012.897-6.994 9.88 9.88 0 011.503-1.235A7.358 7.358 0 0024.95 36.1zm23.38-11.14h-.039c-2.753.023-4.973 2.402-4.949 5.304.024 2.888 2.261 5.221 4.996 5.221h.04c1.35-.011 2.61-.58 3.547-1.601a5.383 5.383 0 001.402-3.703c-.024-2.888-2.261-5.221-4.996-5.221zm-24.65 0h-.04c-2.752.023-4.972 2.402-4.948 5.304.023 2.888 2.26 5.221 4.996 5.221h.04c1.35-.011 2.609-.58 3.546-1.601a5.382 5.382 0 001.402-3.703c-.023-2.888-2.26-5.221-4.996-5.221zm12.394-.818c-3.174 0-5.756 2.727-5.756 6.08 0 2.424 1.349 4.52 3.296 5.497a5.462 5.462 0 004.92 0c1.946-.976 3.295-3.073 3.295-5.496 0-3.354-2.581-6.081-5.755-6.081z" fill="#fff"/><defs><linearGradient id="a" x1="35.068" y1="70.961" x2="35.068" y2="2.081" gradientUnits="userSpaceOnUse"><stop offset=".081" stop-color="#962A2A"/><stop offset="1" stop-color="#D21515"/></linearGradient></defs></svg>