<svg width="71" height="71" fill="none" xmlns="http://www.w3.org/2000/svg"><circle cx="35.5" cy="35.5" r="35.5" fill="url(#a)"/><path d="M18.691 57h18.54v-5.004h-3.692a3.695 3.695 0 01-3.691-3.691v-2.461a3.695 3.695 0 013.691-3.692h3.691V37.23H18.691A3.696 3.696 0 0015 40.922v12.305C15 55.262 16.656 57 18.691 57z" fill="#fff"/><path d="M32.309 45.844v2.46c0 .68.551 1.231 1.23 1.231h6.152v-4.922H33.54c-.679 0-1.23.552-1.23 1.23zm14.765-8.614h2.461v2.461h-2.46v-2.46zm0 4.922h2.461v2.461h-2.46v-2.46zm0 4.922h2.461v2.461h-2.46v-2.46zm-4.922 0h2.461v2.461h-2.46v-2.46zM22.465 32.309h2.46v2.46h-2.46v-2.46zm0-4.922h2.46v2.46h-2.46v-2.46zm0-4.922h2.46v2.46h-2.46v-2.46zm4.922 0h2.46v2.46h-2.46v-2.46zm23.379-2.461h3.691V15H36c-2.035 0-3.691 1.738-3.691 3.773v12.305A3.696 3.696 0 0036 34.77h18.457v-4.922h-3.691a3.696 3.696 0 01-3.692-3.692v-2.46a3.696 3.696 0 013.692-3.692z" fill="#fff"/><path d="M49.535 23.695v2.461c0 .68.552 1.23 1.23 1.23H57v-4.921h-6.234c-.68 0-1.23.551-1.23 1.23z" fill="#fff"/><defs><linearGradient id="a" x1="35.068" y1="70.961" x2="35.068" y2="2.081" gradientUnits="userSpaceOnUse"><stop offset=".081" stop-color="#962A2A"/><stop offset="1" stop-color="#D21515"/></linearGradient></defs></svg>