<svg width="71" height="71" fill="none" xmlns="http://www.w3.org/2000/svg"><circle cx="35.5" cy="35.5" r="35.5" fill="url(#a)"/><path d="M49.351 54.54v-3.553H22.65v3.552H15V57h42v-2.46h-7.649zM38.828 44.227c-.91.21-1.856.32-2.828.32a12.55 12.55 0 01-2.828-.32v4.3h5.656v-4.3zm-8.808.705h-2.461a3.685 3.685 0 01-2.893 3.594h4.188a6.106 6.106 0 001.166-3.594zm14.439 0h-2.461c0 1.342.434 2.583 1.166 3.594h4.188a3.685 3.685 0 01-2.893-3.594zM31.44 37.545a4.459 4.459 0 004.453 4.453 4.459 4.459 0 004.454-4.453c0-1.676-2.447-5.227-4.454-7.69-2.007 2.463-4.454 6.014-4.454 7.69z" fill="#fff"/><path d="M28.979 37.545c0-1.584 1.004-3.771 3.068-6.687 1.442-2.036 3.847-4.771 3.847-4.771s2.404 2.735 3.846 4.771c2.064 2.916 3.068 5.103 3.068 6.687 0 .828-.147 1.623-.415 2.36a10.165 10.165 0 003.787-7.916c0-2.312-1.593-5.733-4.735-10.17C39.173 18.612 36 15 36 15s-3.173 3.611-5.445 6.82c-3.142 4.436-4.735 7.857-4.735 10.169 0 3.054 1.352 5.798 3.49 7.665a6.885 6.885 0 01-.331-2.11z" fill="#fff"/><defs><linearGradient id="a" x1="35.068" y1="70.961" x2="35.068" y2="2.081" gradientUnits="userSpaceOnUse"><stop offset=".081" stop-color="#962A2A"/><stop offset="1" stop-color="#D21515"/></linearGradient></defs></svg>