<svg width="71" height="71" fill="none" xmlns="http://www.w3.org/2000/svg"><circle cx="35.5" cy="35.5" r="35.5" fill="url(#a)"/><g clip-path="url(#b)" fill="#fff"><path d="M44.613 47.074H57v4.922H44.613v-4.922zm6.986-27.07H20.402l-5.314 13.078-.055 4.148h41.968v-3.69l-5.402-13.536zm-33.55 12.305l3.186-7.762 3.105 7.762h-6.292zm5.003-9.844h6.21l-3.105 7.76-3.105-7.76zm4.922 9.844l3.105-7.761 3.104 7.76h-6.209zm4.922-9.844h6.209L36 30.225l-3.105-7.76zm4.922 9.844l3.104-7.761 3.105 7.76h-6.209zm4.922-9.844h6.209l-3.104 7.76-3.105-7.76zm4.922 9.844l3.105-7.762 3.186 7.762h-6.291zM17.46 39.691h7.466v4.922H17.46v-4.922zM15 47.074h12.387v4.922H15v-4.922zm32.074-7.383h7.465v4.922h-7.465v-4.922z"/></g><defs><linearGradient id="a" x1="35.068" y1="70.961" x2="35.068" y2="2.081" gradientUnits="userSpaceOnUse"><stop offset=".081" stop-color="#962A2A"/><stop offset="1" stop-color="#D21515"/></linearGradient><clipPath id="b"><path fill="#fff" transform="translate(15 15)" d="M0 0h42v42H0z"/></clipPath></defs></svg>