<svg width="85" height="85" fill="none" xmlns="http://www.w3.org/2000/svg"><rect width="85" height="85" rx="4" fill="url(#paint0_radial_3473_41423)"/><path fill-rule="evenodd" clip-rule="evenodd" d="M42.619 13.002c16.568-.211 30.166 13.051 30.379 29.617.212 16.567-13.049 30.167-29.616 30.379h-.001a30.678 30.678 0 01-4.826-.328l.366-2.482c1.446.213 2.925.319 4.43.301 15.176-.195 27.329-12.654 27.134-27.838-.195-15.185-12.658-27.334-27.834-27.14h-.002c-3.708.044-7.228.83-10.432 2.2l-.989-2.306a29.819 29.819 0 0111.39-2.402zm-8.804 7.664a24.019 24.019 0 019.19-1.814 24.01 24.01 0 0114.09 4.534c6.089 4.384 10.053 11.539 10.053 19.61 0 13.332-10.805 24.143-24.143 24.143-1.327 0-2.625-.107-3.886-.312l.404-2.476a21.7 21.7 0 003.482.28 21.53 21.53 0 0012.013-3.64L39.821 42.338 54.32 24.551a21.5 21.5 0 00-11.315-3.19c-2.622 0-5.134.466-7.457 1.322l-.19 43.29-1.737-.735c-8.667-3.664-14.76-12.24-14.76-22.252 0-7.808 3.712-14.739 9.448-19.151l1.534 1.987c-5.148 3.96-8.47 10.17-8.47 17.164 0 8.285 4.656 15.476 11.49 19.114l.18-41.115.772-.32zm22.569 5.327L43.06 42.34l13.962 17.134c4.659-3.968 7.614-9.877 7.614-16.478 0-6.891-3.223-13.037-8.252-17.003zM13.003 43.38c-.126-9.703 4.378-18.374 11.444-23.945l1.557 1.969C19.522 26.515 15.4 34.46 15.515 43.349c.142 11.39 7.194 21.078 17.127 25.126l-.95 2.323c-10.835-4.416-18.535-14.984-18.69-27.417" fill="#fff"/><defs><radialGradient id="paint0_radial_3473_41423" cx="0" cy="0" r="1" gradientUnits="userSpaceOnUse" gradientTransform="matrix(33.0275 0 0 66.0549 46.705 120.159)"><stop stop-color="#FDB614"/><stop offset=".463" stop-color="#EA5424"/><stop offset="1" stop-color="#F47621"/></radialGradient></defs></svg>