<svg width="85" height="85" fill="none" xmlns="http://www.w3.org/2000/svg"><mask id="mask0" maskUnits="userSpaceOnUse" x="0" y="0" width="85" height="85"><rect width="85" height="85" rx="4" fill="#fff"/></mask><g mask="url(#mask0)"><rect width="85" height="85" rx="4" fill="#fff"/></g><path d="M78.585 34.798c.21.386.264.831.264 1.27V48.44c0 .296-.115.568-.204.85-.256.77-.822 1.222-1.524 1.592-.679.355-1.396.37-2.12.37-11.04.007-22.087.007-33.127.007-.113 0-.226-.007-.339 0-.347.03-.287-.188-.158-.332.196-.219.286-.498.445-.732.052-.075.173-.203.045-.286-.113-.068-.189.052-.272.143-.694.77-1.388 1.54-2.105 2.286-.996 1.027-2.045 2-3.116 2.95-1.155 1.02-2.34 2-3.57 2.929-1.184.898-2.444 1.682-3.727 2.444-.823.483-1.683.883-2.528 1.328-1.049.559-2.15.966-3.26 1.351-1.11.385-2.248.642-3.41.8-2.28.31-4.475.166-6.543-.966-1.547-.845-2.633-2.09-3.328-3.69-.739-1.713-.913-3.524-.807-5.372.045-.868.196-1.713.347-2.566.038-.219.008-.362-.256-.392-.755-.09-1.336-.483-1.872-1.004a1.535 1.535 0 01-.204-.248c-.408-.613-.505-1.394-.505-2.13V35.553c0-.169.096-.356.166-.51.641-1.35 1.735-1.97 3.207-1.97h4.414c1.343 0 2.694.008 4.037-.007.31 0 .34.098.212.347a9.354 9.354 0 00-.416.876c-.037.09-.226.203-.052.31.143.082.218-.061.294-.152.883-1.087 1.826-2.105 2.8-3.109 1.69-1.743 3.5-3.343 5.365-4.89.8-.663 1.509-1.373 1.667-2.58.25-1.94 1.607-2.664 2.988-2.943 1.276-.264 2.407.211 3.29 1.154.702.748 1.011 1.668.928 2.702-.098 1.237-.739 2.135-1.743 2.8-.415.279-.883.415-1.396.475-.815.098-1.577.03-2.309-.347-.158-.08-.238.083-.094.186.11.079.226.146.34.213.223.13.227.423-.006.534-.108.052-.22.098-.33.146-1.275.566-2.46 1.275-3.494 2.226l-1.916 1.758c-.06.06-.136.128-.084.226.038.083.129.068.204.068H48.93c.196 0 .287-.098.317-.287.113-.588.294-1.154.4-1.75.279-1.532.354-3.064.105-4.596-.203-1.252-.724-2.369-1.614-3.274-1.193-1.208-2.724-1.676-4.347-1.819a12.438 12.438 0 00-4.467.385c-.372.105-.402-.136-.036-.262.303-.104.601-.199.904-.274a16.203 16.203 0 013.818-.498c1.637-.023 3.079.453 4.407 1.313.792.513 1.396 1.23 1.864 2.052.777 1.374 1.116 2.875 1.17 4.445.044 1.411-.144 2.8-.416 4.188-.045.211-.09.392.25.392 2.542-.007 5.078-.007 7.62 0 .378 0 .325-.136.182-.362-.446-.702-.883-1.41-1.344-2.105-.43-.657-.437-.996-.007-1.653.294-.452.573-.905.86-1.358a512.216 512.216 0 002.702-4.309c.248-.407.588-.61 1.04-.61 2.529-.008 5.056.014 7.584-.016.581-.008.928.227 1.215.687 1.155 1.856 2.302 3.705 3.494 5.538.4.62.415 1.155 0 1.766-.468.687-.883 1.411-1.328 2.12-.151.242-.106.317.181.31.777-.015 1.562 0 2.34-.008.354 0 .693.098 1.01.227.79.29 1.37.793 1.75 1.49z" fill="#7E59F5"/><path d="M24.954 51.283a.004.004 0 01-.004-.004.004.004 0 00-.003-.004h-11.76c-.227 0-.317.053-.378.294-.188.732-.28 1.472-.4 2.211-.241 1.54-.113 3.041.445 4.483.476 1.23 1.32 2.165 2.581 2.656.589.226 1.207.324 1.841.354 1.245.06 2.468 0 3.69-.241.913-.181 1.796-.475 2.671-.762 1.26-.415 2.415-1.072 3.607-1.653 1.11-.543 2.113-1.26 3.162-1.894.823-.498 1.585-1.086 2.362-1.645.566-.407 1.11-.86 1.645-1.298.807-.656 1.54-1.41 2.301-2.127.098-.091.287-.174.242-.302-.068-.197-.264-.03-.4-.053-.06-.008-.128 0-.189 0-3.794-.015-7.603-.015-11.413-.015zm9.556-7.547c0-1.29-.015-2.588.007-3.878.008-.34-.113-.415-.43-.415-2.588.007-5.184.007-7.772 0-.302 0-.378.098-.378.385.008 2.595.008 5.199 0 7.794 0 .325.106.393.408.393 2.588-.008 5.184-.015 7.772 0 .31 0 .408-.09.408-.4-.023-1.298-.015-2.588-.015-3.879zm4.647-.015c0 1.306.007 2.611-.008 3.917-.008.309.098.377.385.37C41.609 48 43.684 48 45.759 48c.174 0 .31-.038.438-.166a44.34 44.34 0 011.335-1.328c.159-.151.212-.325.212-.536-.008-1.51-.008-3.01 0-4.52a.656.656 0 00-.212-.498 74.401 74.401 0 01-1.335-1.328.539.539 0 00-.43-.181c-2.09.007-4.173.007-6.263 0-.287 0-.363.09-.355.37.015 1.297.008 2.603.008 3.908zm18.247 4.286h1.773c.415 0 .422-.015.271-.392-.935-2.332-1.863-4.656-2.8-6.988-.15-.385-.233-.875-.512-1.101-.31-.242-.823-.053-1.245-.076-.038 0-.076.008-.113 0-.242-.038-.355.076-.438.294-.393 1.004-.8 2.008-1.2 3.004-.656 1.645-1.313 3.282-1.97 4.927-.105.264-.067.355.234.34.4-.015.808-.023 1.208 0 .302.022.438-.09.543-.378.634-1.675 1.29-3.35 1.94-5.018.045-.113.075-.271.218-.279.113-.007.181.113.227.22.445 1.154.898 2.316 1.35 3.47.09.227-.022.264-.203.264-.355 0-.702.015-1.057 0-.226-.007-.317.06-.31.295.016.377.016.754 0 1.131-.007.22.076.287.288.28.596 0 1.192.007 1.796.007zm-39.728-8.564c-1.305 0-2.618.007-3.924-.008-.294 0-.407.083-.385.385.023.31.023.626 0 .943-.03.332.113.4.408.392.905-.015 1.81 0 2.716-.007.234 0 .347.06.325.317-.023.286-.008.573-.008.868 0 1.773.008 3.539-.007 5.312 0 .271.068.392.354.362.287-.023.581-.008.868-.008.498 0 .498 0 .498-.482 0-1.985.008-3.97-.008-5.954 0-.362.114-.438.446-.43.867.022 1.735 0 2.603.015.28.007.415-.06.385-.37a5.637 5.637 0 010-.943c.023-.31-.083-.408-.4-.408-1.283.03-2.573.016-3.871.016zm51.797 1.484c.423-.636-.034-1.462-.797-1.492-.257-.008-.415.09-.559.294-.573.807-1.162 1.6-1.728 2.415-.173.249-.256.256-.437 0-.566-.83-1.17-1.63-1.743-2.453-.129-.188-.272-.256-.498-.256-.468.015-.929 0-1.396.007-.114 0-.265-.06-.325.038-.083.12.06.226.128.324.974 1.464 1.94 2.928 2.928 4.384.181.272.287.536.28.868-.023.876 0 1.759-.016 2.634 0 .241.076.332.325.324.354-.015.701-.015 1.056 0 .264.015.347-.083.347-.34-.007-.912 0-1.833-.007-2.746 0-.226.052-.415.173-.596.423-.619.838-1.253 1.253-1.879l1.016-1.526zm-4.276-11.113c0-.067-.053-.166-.113-.256-.566-.792-1.132-1.592-1.713-2.377-.227-.31-.483-.287-.68.053-.452.762-.89 1.54-1.343 2.309-.166.279-.15.536.008.807.43.725.845 1.449 1.268 2.173.249.423.468.438.762.046.543-.74 1.079-1.48 1.615-2.219.09-.15.196-.294.196-.536zm5.93.388a.812.812 0 00-.051-.651c-.423-.74-.845-1.479-1.275-2.21-.257-.439-.49-.454-.785-.039-.506.687-1.004 1.381-1.494 2.076-.287.4-.287.565.015.98.505.702 1.011 1.404 1.524 2.098.317.43.528.423.808-.045.4-.68.792-1.366 1.192-2.045a2.25 2.25 0 00.066-.164zm-4.881 4.11h1.622c.159 0 .31-.023.393-.174.09-.158.015-.287-.083-.415a292.69 292.69 0 01-1.736-2.362c-.158-.219-.264-.203-.415.008-.55.777-1.124 1.547-1.683 2.316-.09.129-.218.257-.113.438.098.166.257.174.43.174.528.007 1.057.007 1.585.015zm.001-8.769h-1.51c-.165 0-.331.007-.43.173-.098.181.016.31.106.445.543.755 1.094 1.494 1.63 2.256.158.227.264.25.43.008.536-.755 1.087-1.502 1.63-2.256.09-.128.219-.257.106-.438-.099-.158-.264-.18-.43-.18-.499-.008-1.012-.008-1.532-.008zM49.579 36.5c0-.346-.008-.701 0-1.048.008-.234-.06-.34-.317-.332a49.24 49.24 0 01-2.105 0c-.257-.008-.317.098-.317.332.007.702.007 1.403 0 2.105 0 .219.06.31.294.31a67.441 67.441 0 012.143 0c.242.007.302-.091.294-.31 0-.355.008-.71.008-1.056zm4.911-.004c0 .21-.189.325-.324.162-.385-.452-.77-.89-1.14-1.35-.165-.204-.37-.22-.573-.166-.234.052-.136.264-.136.415-.007.664.008 1.328-.007 1.992-.008.249.083.332.332.317.211-.015.241-.121.241-.295-.005-.343-.003-.69-.001-1.074 0-.169.205-.25.318-.125.392.445.785.883 1.162 1.335.174.204.377.189.581.136.212-.053.113-.249.113-.385a77.43 77.43 0 000-1.879c0-.188.106-.445-.264-.452-.362-.008-.286.233-.286.43a17.99 17.99 0 00-.017.939zm-17.422-.841c-.382-.521-.685.05-.283.556l.027.033c.143.181.135.317-.008.49-.052.066-.104.131-.154.198-.323.42-.015.99.29.557.377-.55.415-.55.8.008.293.435.606-.142.285-.558a14.637 14.637 0 00-.172-.22c-.136-.166-.136-.294 0-.46.234-.294.453-.604.679-.898.12-.15.12-.219-.106-.249-.452-.076-.603.272-.807.543-.28.378-.287.385-.55 0zm-5.246.465a.059.059 0 01.062-.039c.027.004.051.02.061.046.123.31.239.621.369.932.083.188.022.264-.166.241-.234-.03-.265.098-.272.294-.008.227.106.28.302.272.249-.008.505-.015.754 0 .257.015.302-.075.204-.31a83.565 83.565 0 01-.845-2.127c-.075-.197-.166-.302-.4-.31-.249 0-.324.129-.4.317-.271.687-.55 1.374-.822 2.06-.144.355-.098.393.286.37.204-.015.242-.15.295-.287.19-.491.38-.975.572-1.459zm38.755-3.012c-.076.164.008.286.114.14.55-.838 1.056-1.713 1.668-2.506.468-.611.49-1.056.015-1.69-.242-.323-.697-.071-.52.291l.097.2c.12.24.113.43 0 .671-.469.959-.92 1.923-1.374 2.894z" fill="#fff"/><path d="M61.657 33.195c.09.139.23.093.17-.06-.446-.952-.891-1.91-1.344-2.853-.12-.25-.12-.453 0-.71.415-.83.808-1.667 1.2-2.505.14-.313-.036-.439-.188-.131a.748.748 0 01-.054.094c-.596.882-1.17 1.78-1.758 2.663-.12.181-.128.317 0 .498.325.46.627.936.936 1.411.33.514.665 1.028 1.038 1.593zm4.483 1.888c-.668.002-.668.617 0 .622.682.005.682-.624 0-.622zm-.166-10.316c.72.015.455-.612-.266-.596-.688.016-.422.581.266.596zM43.042 36.484c0-.377-.007-.747 0-1.124.008-.211-.105-.249-.286-.249s-.28.045-.28.249c.008.747.008 1.494 0 2.249 0 .218.114.241.28.241.173 0 .286-.038.279-.249 0-.362.008-.74.008-1.117z" fill="#fff"/><path d="M27.664 43.721c0-.74.008-1.479-.007-2.218-.008-.25.06-.355.332-.355 1.494.008 2.988.008 4.482 0 .242 0 .332.075.332.324a424.319 424.319 0 000 4.513c0 .256-.098.324-.332.324a440.576 440.576 0 00-4.482 0c-.25 0-.332-.098-.325-.332.008-.754 0-1.509 0-2.256zm13.216.001c0-.755.007-1.51-.009-2.256 0-.227.068-.31.302-.31 1.245.008 2.49.008 3.736 0 .158 0 .271.06.4.166.543.46.8.996.724 1.736-.068.694-.023 1.403-.008 2.105 0 .189-.075.317-.188.468-.408.528-.898.74-1.585.694-.988-.06-1.985-.03-2.98-.007-.317.007-.408-.099-.4-.408.022-.732.007-1.464.007-2.188zm7.349-6.422c-.823 0-.823 0-.823-.823 0-.807 0-.807.815-.807.83 0 .83 0 .823.837-.008.792-.008.792-.815.792z" fill="#7E59F5"/></svg>