<svg width="85" height="85" fill="none" xmlns="http://www.w3.org/2000/svg"><rect width="85" height="85" rx="4" fill="#fff"/><path d="M69.905 23.648l-6.45 5.885L49.35 42.43l-5.119 4.716c-.725.644-1.693.644-2.418 0l-5.12-4.716-14.106 12.898 18.218 16.686c1.29 1.21 3.104 1.21 4.393 0L63.416 55.33l7.093-6.49c.927-.846 1.492-2.176 1.492-3.587V24.978c0-.967-.645-1.652-1.33-1.652-.242 0-.524.12-.766.322z" fill="url(#paint0_linear_3473_41595)"/><path d="M40.803 12.887L22.585 29.573l-7.094 6.49C14.564 36.908 14 38.239 14 39.65v20.273c0 1.33 1.25 2.137 2.136 1.33l.08-.08 6.329-5.804 14.107-12.898 5.119-4.716c.725-.645 1.693-.645 2.418 0l5.119 4.716 14.107-12.898-18.218-16.686A3.174 3.174 0 0042.98 12c-.806 0-1.491.282-2.177.887z" fill="url(#paint1_linear_3473_41595)"/><path d="M63.455 29.573L49.348 42.431 61.762 28l1.693 1.572z" fill="#2D348D"/><path d="M22.586 55.329L36.693 42.43 24.279 56.9l-1.693-1.572z" fill="#4BADE9"/><defs><linearGradient id="paint0_linear_3473_41595" x1="10.454" y1="9.703" x2="43.307" y2="80.747" gradientUnits="userSpaceOnUse"><stop stop-color="#00AEEF"/><stop offset="1" stop-color="#fff"/></linearGradient><linearGradient id="paint1_linear_3473_41595" x1="21.94" y1="17.764" x2="57.48" y2="51.142" gradientUnits="userSpaceOnUse"><stop stop-color="#00AEEF"/><stop offset="1" stop-color="#2E3192"/></linearGradient></defs></svg>