<svg width="85" height="85" fill="none" xmlns="http://www.w3.org/2000/svg"><mask id="mask0" maskUnits="userSpaceOnUse" x="0" y="0" width="85" height="85"><rect width="85" height="85" rx="4" fill="#F2F4F9"/></mask><g mask="url(#mask0)"><rect width="85" height="85" rx="4" fill="#fff"/><path d="M67 45.563v-6.126l-6.624-1.104a18.17 18.17 0 00-2.288-5.532l3.9-5.461-4.33-4.33-5.46 3.9a18.165 18.165 0 00-5.531-2.288L45.566 18H39.44l-1.107 6.622-.074.017v6.798l.068-.027v4.034a.133.133 0 01-.044.102l-.024.024-3.712 3.554a.145.145 0 01-.098.038H30.65V25.373l-3.312-2.363-4.33 4.33 3.897 5.458a18.39 18.39 0 00-2.285 5.535L18 39.44v6.126l6.62 1.101a18.198 18.198 0 002.29 5.532l-3.9 5.461 4.329 4.33 5.46-3.9a18.268 18.268 0 005.531 2.288l1.098 6.586.006.036h6.126l.006-.036 1.1-6.588a18.217 18.217 0 005.53-2.286l5.46 3.9 4.328-4.33-3.9-5.46a18.17 18.17 0 002.29-5.533L67 45.563zm-31.483 6.508l2.691-2.653a1.478 1.478 0 001.862-1.426c0-.815-.663-1.477-1.477-1.477a1.478 1.478 0 00-1.414 1.904l-2.763 2.742a11.815 11.815 0 01-3.765-8.66v-1.903h4.144a.719.719 0 00.492-.197l2.972-2.847 1.28-1.226c.14-.135.22-.32.22-.514v-4.84a11.869 11.869 0 014.706-.158v6.216a.14.14 0 01-.042.098l-4.41 4.488a1.479 1.479 0 00-1.784 1.444c0 .815.662 1.478 1.477 1.478a1.478 1.478 0 001.387-1.979l4.595-4.676a.707.707 0 00.203-.498V31.15a11.883 11.883 0 016.343 4.605l-8.73 8.734a.709.709 0 00-.209.504v9.328a11.795 11.795 0 01-7.778-2.25zm15.064-.907v-2.13c.469-.257.761-.747.761-1.29 0-.814-.662-1.477-1.477-1.477-.815 0-1.477.663-1.477 1.477 0 .546.293 1.033.761 1.29v3.276a11.776 11.776 0 01-4.419 1.829v-8.788c0-.039.015-.071.042-.098l8.226-8.24a11.807 11.807 0 011.349 5.492 11.797 11.797 0 01-3.766 8.659z" fill="url(#paint0_linear)"/></g><defs><linearGradient id="paint0_linear" x1="56.286" y1="60.605" x2="23.624" y2="17.716" gradientUnits="userSpaceOnUse"><stop stop-color="#007FEF"/><stop offset="1" stop-color="#00E3B6"/></linearGradient></defs></svg>