<svg width="85" height="85" fill="none" xmlns="http://www.w3.org/2000/svg"><rect width="85" height="85" rx="4" fill="#000"/><path d="M9.477 47.355c-.98-1.04-1.473-2.668-1.473-4.883 0-2.214.531-3.842 1.589-4.877 1.057-1.041 2.624-1.556 4.69-1.556.974 0 1.87.105 2.69.321v1.561a10.732 10.732 0 00-2.475-.31c-1.03 0-1.871.155-2.53.47-.653.31-1.146.82-1.473 1.523-.326.703-.487 1.645-.487 2.818 0 1.19.15 2.143.454 2.868.305.726.753 1.252 1.345 1.573.598.326 1.351.487 2.27.487.848 0 1.81-.172 2.902-.515v1.561a9.925 9.925 0 01-3.178.515c-1.9.006-3.345-.515-4.324-1.556z" fill="url(#paint0_linear_3473_41412)"/><path d="M28.777 43.076h-8.393c.033 1.052.216 1.893.548 2.53a2.96 2.96 0 001.467 1.378c.642.283 1.467.427 2.464.427.952 0 2.037-.166 3.261-.504v1.506a12.73 12.73 0 01-3.488.504c-2.087 0-3.643-.515-4.667-1.54-1.024-1.024-1.54-2.668-1.54-4.921 0-2.138.466-3.743 1.396-4.817.93-1.074 2.231-1.611 3.909-1.611 1.633 0 2.884.537 3.748 1.605.864 1.069 1.3 2.691 1.3 4.867v.576h-.005zm-7.502-4.668c-.564.692-.863 1.822-.89 3.405h6.532c-.033-1.589-.316-2.724-.853-3.41-.537-.687-1.323-1.03-2.358-1.03-1.058.006-1.866.349-2.43 1.035z" fill="url(#paint1_linear_3473_41412)"/><path d="M31.55 36.227h1.628l.133 1.412h.133a5.611 5.611 0 011.866-1.196 6.103 6.103 0 012.253-.415c1.312 0 2.342.349 3.084 1.052.742.703 1.118 1.827 1.118 3.371v8.244h-1.932v-8.16c0-1.02-.238-1.75-.709-2.198-.47-.443-1.151-.665-2.037-.665-.653 0-1.307.133-1.955.404a4.068 4.068 0 00-1.655 1.252v9.367h-1.932V36.227h.005z" fill="url(#paint2_linear_3473_41412)"/><path d="M44.777 48.413v-1.484a13.18 13.18 0 003.638.515c2.159 0 3.238-.698 3.238-2.093 0-.565-.155-1.002-.465-1.3-.31-.3-.825-.527-1.55-.676l-1.777-.344c-1.168-.238-2.015-.63-2.536-1.184-.526-.554-.786-1.29-.786-2.21 0-.714.188-1.34.57-1.882.377-.542.958-.969 1.733-1.268.775-.304 1.739-.454 2.88-.454 1.051 0 2.086.122 3.088.366v1.495a12.077 12.077 0 00-1.522-.3c-.482-.06-.991-.093-1.522-.093-1.185 0-2.044.188-2.58.57-.538.382-.803.886-.803 1.522 0 .515.15.925.448 1.24.3.316.803.543 1.512.693l1.777.343c1.19.238 2.054.63 2.59 1.173.538.543.804 1.285.804 2.22 0 1.152-.438 2.05-1.318 2.691-.88.642-2.137.964-3.781.964-1.33 0-2.542-.172-3.638-.504z" fill="url(#paint3_linear_3473_41412)"/><path d="M57.124 47.86c-.747-.698-1.118-1.811-1.118-3.345v-8.288h1.932v8.194c0 1.013.238 1.739.709 2.176.47.443 1.13.659 1.976.659.643 0 1.29-.139 1.938-.416a4.075 4.075 0 001.622-1.24v-9.373h1.932v12.474h-1.627l-.144-1.368h-.122a5.412 5.412 0 01-1.844 1.18 6.02 6.02 0 01-2.192.398c-1.296-.005-2.314-.354-3.062-1.052z" fill="url(#paint4_linear_3473_41412)"/><path d="M69.26 48.413v-1.484c1.201.343 2.413.515 3.637.515 2.16 0 3.239-.698 3.239-2.093 0-.565-.155-1.002-.465-1.3-.31-.3-.825-.527-1.55-.676l-1.778-.344c-1.168-.238-2.015-.63-2.535-1.184-.526-.554-.787-1.29-.787-2.21 0-.714.189-1.34.57-1.882.377-.542.959-.969 1.734-1.268.775-.304 1.738-.454 2.879-.454 1.052 0 2.087.122 3.089.366v1.495a12.077 12.077 0 00-1.523-.3c-.481-.06-.99-.093-1.522-.093-1.185 0-2.043.188-2.58.57-.537.382-.803.886-.803 1.522 0 .515.15.925.449 1.24.299.316.802.543 1.511.693l1.777.343c1.19.238 2.054.63 2.591 1.173.537.543.803 1.285.803 2.22 0 1.152-.437 2.05-1.318 2.691-.88.642-2.137.964-3.781.964-1.334 0-2.547-.172-3.637-.504z" fill="url(#paint5_linear_3473_41412)"/><path opacity=".51" d="M9.477 47.355c-.98-1.04-1.473-2.668-1.473-4.883 0-2.214.531-3.842 1.589-4.877 1.057-1.041 2.624-1.556 4.69-1.556.974 0 1.87.105 2.69.321v1.561a10.732 10.732 0 00-2.475-.31c-1.03 0-1.871.155-2.53.47-.653.31-1.146.82-1.473 1.523-.326.703-.487 1.645-.487 2.818 0 1.19.15 2.143.454 2.868.305.726.753 1.252 1.345 1.573.598.326 1.351.487 2.27.487.848 0 1.81-.172 2.902-.515v1.561a9.925 9.925 0 01-3.178.515c-1.9.006-3.345-.515-4.324-1.556z" fill="url(#paint6_linear_3473_41412)"/><path opacity=".51" d="M28.777 43.076h-8.393c.033 1.052.216 1.893.548 2.53a2.96 2.96 0 001.467 1.378c.642.283 1.467.427 2.464.427.952 0 2.037-.166 3.261-.504v1.506a12.73 12.73 0 01-3.488.504c-2.087 0-3.643-.515-4.667-1.54-1.024-1.024-1.54-2.668-1.54-4.921 0-2.138.466-3.743 1.396-4.817.93-1.074 2.231-1.611 3.909-1.611 1.633 0 2.884.537 3.748 1.605.864 1.069 1.3 2.691 1.3 4.867v.576h-.005zm-7.502-4.668c-.564.692-.863 1.822-.89 3.405h6.532c-.033-1.589-.316-2.724-.853-3.41-.537-.687-1.323-1.03-2.358-1.03-1.058.006-1.866.349-2.43 1.035z" fill="url(#paint7_linear_3473_41412)"/><path opacity=".51" d="M31.55 36.227h1.628l.133 1.412h.133a5.611 5.611 0 011.866-1.196 6.103 6.103 0 012.253-.415c1.312 0 2.342.349 3.084 1.052.742.703 1.118 1.827 1.118 3.371v8.244h-1.932v-8.16c0-1.02-.238-1.75-.709-2.198-.47-.443-1.151-.665-2.037-.665-.653 0-1.307.133-1.955.404a4.068 4.068 0 00-1.655 1.252v9.367h-1.932V36.227h.005z" fill="url(#paint8_linear_3473_41412)"/><path opacity=".51" d="M44.777 48.413v-1.484a13.18 13.18 0 003.638.515c2.159 0 3.238-.698 3.238-2.093 0-.565-.155-1.002-.465-1.3-.31-.3-.825-.527-1.55-.676l-1.777-.344c-1.168-.238-2.015-.63-2.536-1.184-.526-.554-.786-1.29-.786-2.21 0-.714.188-1.34.57-1.882.377-.542.958-.969 1.733-1.268.775-.304 1.739-.454 2.88-.454 1.051 0 2.086.122 3.088.366v1.495a12.077 12.077 0 00-1.522-.3c-.482-.06-.991-.093-1.522-.093-1.185 0-2.044.188-2.58.57-.538.382-.803.886-.803 1.522 0 .515.15.925.448 1.24.3.316.803.543 1.512.693l1.777.343c1.19.238 2.054.63 2.59 1.173.538.543.804 1.285.804 2.22 0 1.152-.438 2.05-1.318 2.691-.88.642-2.137.964-3.781.964-1.33 0-2.542-.172-3.638-.504z" fill="url(#paint9_linear_3473_41412)"/><path opacity=".51" d="M57.124 47.86c-.747-.698-1.118-1.811-1.118-3.345v-8.288h1.932v8.194c0 1.013.238 1.739.709 2.176.47.443 1.13.659 1.976.659.643 0 1.29-.139 1.938-.416a4.075 4.075 0 001.622-1.24v-9.373h1.932v12.474h-1.627l-.144-1.368h-.122a5.412 5.412 0 01-1.844 1.18 6.02 6.02 0 01-2.192.398c-1.296-.005-2.314-.354-3.062-1.052z" fill="url(#paint10_linear_3473_41412)"/><path opacity=".51" d="M69.26 48.413v-1.484c1.201.343 2.413.515 3.637.515 2.16 0 3.239-.698 3.239-2.093 0-.565-.155-1.002-.465-1.3-.31-.3-.825-.527-1.55-.676l-1.778-.344c-1.168-.238-2.015-.63-2.535-1.184-.526-.554-.787-1.29-.787-2.21 0-.714.189-1.34.57-1.882.377-.542.959-.969 1.734-1.268.775-.304 1.738-.454 2.879-.454 1.052 0 2.087.122 3.089.366v1.495a12.077 12.077 0 00-1.523-.3c-.481-.06-.99-.093-1.522-.093-1.185 0-2.043.188-2.58.57-.537.382-.803.886-.803 1.522 0 .515.15.925.449 1.24.299.316.802.543 1.511.693l1.777.343c1.19.238 2.054.63 2.591 1.173.537.543.803 1.285.803 2.22 0 1.152-.437 2.05-1.318 2.691-.88.642-2.137.964-3.781.964-1.334 0-2.547-.172-3.637-.504z" fill="url(#paint11_linear_3473_41412)"/><path opacity=".7" d="M9.477 47.355c-.98-1.04-1.473-2.668-1.473-4.883 0-2.214.531-3.842 1.589-4.877 1.057-1.041 2.624-1.556 4.69-1.556.974 0 1.87.105 2.69.321v1.561a10.732 10.732 0 00-2.475-.31c-1.03 0-1.871.155-2.53.47-.653.31-1.146.82-1.473 1.523-.326.703-.487 1.645-.487 2.818 0 1.19.15 2.143.454 2.868.305.726.753 1.252 1.345 1.573.598.326 1.351.487 2.27.487.848 0 1.81-.172 2.902-.515v1.561a9.925 9.925 0 01-3.178.515c-1.9.006-3.345-.515-4.324-1.556z" fill="url(#paint12_linear_3473_41412)"/><path opacity=".7" d="M28.777 43.076h-8.393c.033 1.052.216 1.893.548 2.53a2.96 2.96 0 001.467 1.378c.642.283 1.467.427 2.464.427.952 0 2.037-.166 3.261-.504v1.506a12.73 12.73 0 01-3.488.504c-2.087 0-3.643-.515-4.667-1.54-1.024-1.024-1.54-2.668-1.54-4.921 0-2.138.466-3.743 1.396-4.817.93-1.074 2.231-1.611 3.909-1.611 1.633 0 2.884.537 3.748 1.605.864 1.069 1.3 2.691 1.3 4.867v.576h-.005zm-7.502-4.668c-.564.692-.863 1.822-.89 3.405h6.532c-.033-1.589-.316-2.724-.853-3.41-.537-.687-1.323-1.03-2.358-1.03-1.058.006-1.866.349-2.43 1.035z" fill="url(#paint13_linear_3473_41412)"/><path opacity=".7" d="M31.55 36.227h1.628l.133 1.412h.133a5.611 5.611 0 011.866-1.196 6.103 6.103 0 012.253-.415c1.312 0 2.342.349 3.084 1.052.742.703 1.118 1.827 1.118 3.371v8.244h-1.932v-8.16c0-1.02-.238-1.75-.709-2.198-.47-.443-1.151-.665-2.037-.665-.653 0-1.307.133-1.955.404a4.068 4.068 0 00-1.655 1.252v9.367h-1.932V36.227h.005z" fill="url(#paint14_linear_3473_41412)"/><path opacity=".7" d="M44.777 48.413v-1.484a13.18 13.18 0 003.638.515c2.159 0 3.238-.698 3.238-2.093 0-.565-.155-1.002-.465-1.3-.31-.3-.825-.527-1.55-.676l-1.777-.344c-1.168-.238-2.015-.63-2.536-1.184-.526-.554-.786-1.29-.786-2.21 0-.714.188-1.34.57-1.882.377-.542.958-.969 1.733-1.268.775-.304 1.739-.454 2.88-.454 1.051 0 2.086.122 3.088.366v1.495a12.077 12.077 0 00-1.522-.3c-.482-.06-.991-.093-1.522-.093-1.185 0-2.044.188-2.58.57-.538.382-.803.886-.803 1.522 0 .515.15.925.448 1.24.3.316.803.543 1.512.693l1.777.343c1.19.238 2.054.63 2.59 1.173.538.543.804 1.285.804 2.22 0 1.152-.438 2.05-1.318 2.691-.88.642-2.137.964-3.781.964-1.33 0-2.542-.172-3.638-.504z" fill="url(#paint15_linear_3473_41412)"/><path opacity=".7" d="M57.124 47.86c-.747-.698-1.118-1.811-1.118-3.345v-8.288h1.932v8.194c0 1.013.238 1.739.709 2.176.47.443 1.13.659 1.976.659.643 0 1.29-.139 1.938-.416a4.075 4.075 0 001.622-1.24v-9.373h1.932v12.474h-1.627l-.144-1.368h-.122a5.412 5.412 0 01-1.844 1.18 6.02 6.02 0 01-2.192.398c-1.296-.005-2.314-.354-3.062-1.052z" fill="url(#paint16_linear_3473_41412)"/><path opacity=".7" d="M69.26 48.413v-1.484c1.201.343 2.413.515 3.637.515 2.16 0 3.239-.698 3.239-2.093 0-.565-.155-1.002-.465-1.3-.31-.3-.825-.527-1.55-.676l-1.778-.344c-1.168-.238-2.015-.63-2.535-1.184-.526-.554-.787-1.29-.787-2.21 0-.714.189-1.34.57-1.882.377-.542.959-.969 1.734-1.268.775-.304 1.738-.454 2.879-.454 1.052 0 2.087.122 3.089.366v1.495a12.077 12.077 0 00-1.523-.3c-.481-.06-.99-.093-1.522-.093-1.185 0-2.043.188-2.58.57-.537.382-.803.886-.803 1.522 0 .515.15.925.449 1.24.299.316.802.543 1.511.693l1.777.343c1.19.238 2.054.63 2.591 1.173.537.543.803 1.285.803 2.22 0 1.152-.437 2.05-1.318 2.691-.88.642-2.137.964-3.781.964-1.334 0-2.547-.172-3.637-.504z" fill="url(#paint17_linear_3473_41412)"/><path opacity=".49" d="M13.801 48.856c-.786 0-1.578-.089-2.33-.333a4.794 4.794 0 01-1.75-.996 4.438 4.438 0 01-1.063-1.506c-.294-.659-.46-1.373-.548-2.093a11.777 11.777 0 01-.017-2.757c.083-.72.244-1.434.537-2.098a4.673 4.673 0 011.063-1.517 5.053 5.053 0 011.689-1.013c.72-.266 1.49-.393 2.253-.438.903-.05 1.816-.005 2.702.16.21.04.415.084.62.14v-.04 1.484a10.884 10.884 0 00-2.359-.304c-.697-.006-1.406.05-2.076.255-.581.177-1.113.476-1.517.935-.404.454-.653 1.019-.797 1.606-.166.658-.216 1.34-.221 2.015 0 .675.033 1.356.171 2.02.122.599.327 1.191.687 1.69a2.93 2.93 0 001.423 1.062c.647.238 1.356.3 2.037.277a9.549 9.549 0 002.087-.337c.189-.05.377-.106.565-.167v-.038 1.483c-1.019.338-2.087.51-3.156.51v.077a9.984 9.984 0 003.156-.51v-1.6c-1.323.416-2.763.682-4.141.388-.582-.127-1.146-.365-1.584-.775-.443-.415-.742-.963-.924-1.539-.2-.62-.277-1.273-.31-1.915-.039-.77-.006-1.556.15-2.315.121-.575.326-1.14.675-1.622a3.084 3.084 0 011.4-1.057c.604-.233 1.257-.327 1.905-.355a10.133 10.133 0 012.829.3v-1.601a10.674 10.674 0 00-2.746-.315c-.814.005-1.639.094-2.425.32a5.438 5.438 0 00-1.833.92 4.469 4.469 0 00-1.195 1.473c-.327.642-.52 1.345-.626 2.06a12.085 12.085 0 00-.1 2.407c.039.781.15 1.567.393 2.315.2.614.493 1.207.914 1.705.432.515.99.913 1.6 1.185.697.31 1.461.465 2.22.515.21.016.42.022.637.022.005 0 .005-.083.005-.083zm10.835 0c-1.047 0-2.11-.122-3.084-.52-.786-.316-1.495-.826-1.993-1.518-.532-.736-.814-1.622-.964-2.513a11.315 11.315 0 01-.143-1.733c-.006-.62.033-1.246.127-1.86.144-.925.42-1.844.952-2.62a4.494 4.494 0 012.126-1.66 5.68 5.68 0 011.484-.321 6.537 6.537 0 011.61.055c.942.155 1.822.565 2.481 1.257.604.637.98 1.445 1.202 2.286.26.98.32 1.994.32 3.001v.305H20.49c-.033 0-.083-.011-.11 0h-.018v.077c.04 1.268.294 2.68 1.335 3.527.493.399 1.102.609 1.722.725a8.09 8.09 0 002.131.094c.864-.066 1.716-.243 2.553-.47v-.039 1.428c-.886.25-1.8.416-2.719.477-.25.016-.498.022-.747.022v.077c.902 0 1.805-.11 2.685-.304.26-.061.526-.122.78-.2v-1.544c-1.433.393-2.94.63-4.418.42-.62-.088-1.245-.26-1.771-.608-.526-.35-.908-.864-1.146-1.446-.288-.708-.382-1.478-.404-2.236v.077h8.264c.034 0 .084.011.111 0h.017v-.038c0-.848-.006-1.69-.139-2.53-.144-.925-.415-1.855-.94-2.63a4.161 4.161 0 00-2.199-1.634 5.599 5.599 0 00-1.544-.249 6.571 6.571 0 00-1.645.15c-.952.221-1.821.714-2.463 1.456-.604.697-.958 1.572-1.152 2.464-.238 1.068-.277 2.192-.205 3.283.067.996.255 2.004.703 2.9.388.77.975 1.401 1.722 1.833.875.504 1.882.725 2.879.803.288.022.57.033.858.033a.336.336 0 00.006-.077z" fill="#fff"/><path opacity=".49" d="M23.705 37.318c-.858 0-1.705.254-2.308.891-.52.548-.759 1.296-.892 2.02a10 10 0 00-.144 1.568v.072h6.478c.022 0 .066.01.088 0h.012v-.072c-.017-.875-.095-1.772-.404-2.602a3.274 3.274 0 00-.477-.875 2.487 2.487 0 00-.924-.72c-.449-.205-.942-.282-1.429-.282v.077c.83 0 1.661.244 2.237.87.498.536.725 1.267.853 1.976.094.537.132 1.08.144 1.628v-.072H20.46c-.028 0-.06-.006-.089 0h-.01v.072c.016-.886.105-1.805.437-2.63a3.06 3.06 0 01.51-.858c.26-.305.586-.543.951-.703.454-.2.947-.277 1.44-.277.005-.006.005-.083.005-.083zm16.151 11.361v-7.89c0-.221 0-.443-.01-.664-.045-.687-.228-1.429-.77-1.9-.604-.52-1.456-.641-2.231-.603-.908.05-1.85.344-2.586.886a4.323 4.323 0 00-.482.415l-.215.233c-.04.044-.1.089-.1.155v9.323h-1.894V36.238v.039h1.523c.011 0 .06-.006.072 0 .01.005.005.06.005.072l.017.2c.017.188.033.376.055.558.017.161.028.322.045.482 0 .017-.006.083.01.094a.509.509 0 00.161.006c.022-.006.039-.039.056-.056a.59.59 0 01.088-.077c.061-.055.128-.11.194-.166a5.247 5.247 0 011.29-.797 6.068 6.068 0 012.07-.499c1.208-.077 2.509.15 3.433.98.842.759 1.113 1.932 1.157 3.023.017.354.006.709.006 1.063v7.474h-1.894v.078h1.894v-8.238c0-.98-.122-2.027-.659-2.868-.614-.97-1.733-1.44-2.84-1.562-1.4-.15-2.851.161-4.025.953a5.574 5.574 0 00-.587.454.718.718 0 00-.094.088c-.022.022-.056.067-.083.078-.022.01-.072 0-.094 0-.011 0-.061.005-.067 0-.01-.011-.005-.083-.01-.1a887.28 887.28 0 01-.1-1.052l-.017-.194c0-.01 0-.066-.006-.072-.01-.005-.06 0-.072 0h-1.522v12.513h1.893v-9.396.04c.283-.36.62-.67 1.008-.92a4.587 4.587 0 011.39-.587 4.925 4.925 0 011.555-.15c.432.029.864.123 1.252.322.326.172.603.42.791.736.205.343.305.737.355 1.13.038.315.038.625.038.94v7.852c0 .044 0 .044 0 0zm8.56.177c-.963 0-1.932-.089-2.878-.305-.25-.055-.493-.122-.737-.194v-1.399.038a13.12 13.12 0 003.743.51 6.032 6.032 0 001.412-.16c.348-.09.697-.217.99-.433.25-.182.45-.42.57-.703.128-.293.161-.603.156-.919-.006-.465-.122-.94-.46-1.273-.32-.316-.77-.482-1.19-.604-.238-.066-.482-.11-.72-.16-.304-.061-.609-.116-.913-.177-.709-.139-1.418-.283-2.076-.598-.382-.183-.748-.421-1.03-.742a2.792 2.792 0 01-.637-1.262c-.243-1.08.006-2.27.803-3.068.73-.725 1.76-1.068 2.757-1.218 1.207-.182 2.464-.127 3.665.072.305.05.61.111.914.189v-.04 1.418a11.828 11.828 0 00-3.267-.382c-.465.011-.935.05-1.39.16-.343.084-.686.211-.974.422a1.858 1.858 0 00-.72.99c-.105.36-.1.787-.01 1.146.099.394.331.726.664.953.37.249.814.382 1.245.465.421.083.836.16 1.257.243.604.117 1.202.233 1.777.454.742.288 1.418.737 1.783 1.456.205.405.305.859.327 1.313.028.481-.039.969-.205 1.422-.282.765-.875 1.351-1.589 1.728-.77.404-1.65.57-2.508.631a8.67 8.67 0 01-.758.028v.077c.935 0 1.893-.1 2.773-.432.742-.282 1.423-.753 1.844-1.44.426-.697.526-1.55.432-2.352a3.066 3.066 0 00-.404-1.235 2.725 2.725 0 00-.792-.82c-.648-.442-1.434-.675-2.198-.819-.476-.094-.952-.182-1.423-.276-.598-.117-1.235-.244-1.71-.648-.676-.576-.737-1.672-.228-2.37.482-.653 1.307-.885 2.082-.974a10.306 10.306 0 011.6-.039 12.02 12.02 0 011.6.188c.271.05.537.111.803.183v-1.534a12.9 12.9 0 00-3.77-.343c-1.047.061-2.121.277-3.012.853a3.157 3.157 0 00-1.02 1.04 3.248 3.248 0 00-.43 1.534c-.017.47.021.947.17 1.395a2.7 2.7 0 00.731 1.146c.654.604 1.573.892 2.425 1.058.52.1 1.036.2 1.556.304.305.061.61.128.908.239.399.143.809.36 1.047.725.254.393.315.908.243 1.367a1.75 1.75 0 01-.365.836c-.482.582-1.285.781-2.004.864a9.5 9.5 0 01-1.683.017 12.652 12.652 0 01-1.877-.26c-.31-.067-.615-.139-.914-.228v1.517c.897.272 1.827.421 2.757.477.288.016.57.022.858.022v-.072zm11.771-.011c-.853 0-1.722-.155-2.464-.598a3.213 3.213 0 01-.836-.709 3.363 3.363 0 01-.52-.908c-.26-.675-.344-1.412-.344-2.132v-8.254.038h1.894v-.038 7.906c0 .194 0 .393.005.587.033.686.194 1.445.72 1.926.598.548 1.445.692 2.225.648.914-.05 1.85-.365 2.58-.919a3.75 3.75 0 00.471-.42c.072-.078.144-.156.21-.233.04-.045.067-.067.067-.122v-9.368.039h1.893v-.039 12.396h-1.533c-.017 0-.05.006-.061-.005-.006-.006-.006-.039-.006-.05-.005-.033-.005-.06-.01-.094-.04-.388-.084-.78-.122-1.168 0-.011 0-.04-.006-.05-.011-.011-.055-.006-.072-.006-.017 0-.05-.005-.067 0-.022.006-.044.04-.066.056-.072.066-.144.133-.221.199a5.47 5.47 0 01-.991.67 5.79 5.79 0 01-2.425.642c-.1.006-.21.006-.322.006v.077c.853 0 1.711-.166 2.492-.52a5.153 5.153 0 001.024-.615c.155-.122.31-.249.454-.382.017-.016.039-.05.061-.055.017-.006.05 0 .067 0 .016 0 .066-.006.072.005.005.006.005.04.005.05.005.028.005.061.011.089.011.094.022.188.028.282.022.222.044.443.072.664.005.073.016.15.022.222 0 .022 0 .044.016.055.012.006.04 0 .05 0h1.335c.055 0 .116.006.171 0h.022V36.205h-1.893v9.368c-.598.77-1.456 1.267-2.397 1.511a4.592 4.592 0 01-1.556.138c-.426-.038-.858-.144-1.23-.36a1.93 1.93 0 01-.747-.758 3.072 3.072 0 01-.326-1.168c-.028-.282-.028-.565-.028-.847V36.21h-1.893v8.243c0 .56.033 1.119.16 1.661.166.714.493 1.384 1.058 1.866.63.542 1.434.82 2.253.908.227.028.46.033.686.039.012-.006.017-.083.012-.083zm12.704.011c-.963 0-1.932-.089-2.879-.305a10.75 10.75 0 01-.736-.194v-1.399.038c1.212.344 2.48.527 3.742.51a6.032 6.032 0 001.412-.16c.349-.09.698-.217.991-.433.25-.182.449-.42.57-.703.128-.293.161-.603.156-.919-.006-.465-.122-.94-.46-1.273-.321-.316-.77-.482-1.19-.604-.238-.066-.482-.11-.72-.16-.305-.061-.61-.116-.914-.177-.708-.139-1.417-.283-2.076-.598-.382-.183-.747-.421-1.03-.742a2.79 2.79 0 01-.636-1.262c-.244-1.08.005-2.27.803-3.068.73-.725 1.76-1.068 2.757-1.218 1.207-.182 2.463-.127 3.665.072.304.05.609.111.913.189v-.04 1.418a11.828 11.828 0 00-3.266-.382 6.57 6.57 0 00-1.39.16c-.343.084-.686.211-.974.422a1.858 1.858 0 00-.72.99c-.105.36-.1.787-.011 1.146.1.394.332.726.664.953.371.249.814.382 1.246.465.42.083.836.16 1.257.243.603.117 1.201.233 1.777.454.742.288 1.417.737 1.783 1.456.205.405.304.859.326 1.313.028.481-.038.969-.204 1.422-.283.765-.875 1.351-1.59 1.728-.769.404-1.65.57-2.507.631a8.543 8.543 0 01-.759.028v.077c.936 0 1.893-.1 2.774-.432.742-.282 1.423-.753 1.843-1.44.427-.697.526-1.55.432-2.352a3.066 3.066 0 00-.404-1.235 2.725 2.725 0 00-.792-.82c-.647-.442-1.433-.675-2.198-.819-.476-.094-.952-.182-1.422-.276-.598-.117-1.235-.244-1.711-.648-.676-.576-.736-1.672-.227-2.37.481-.653 1.306-.885 2.082-.974a10.303 10.303 0 011.6-.039 12.02 12.02 0 011.6.188c.27.05.537.111.802.183v-1.534a12.9 12.9 0 00-3.77-.343c-1.046.061-2.12.277-3.012.853a3.155 3.155 0 00-1.018 1.04 3.247 3.247 0 00-.432 1.534c-.017.47.022.947.171 1.395a2.7 2.7 0 00.731 1.146c.654.604 1.573.892 2.425 1.058.52.1 1.035.2 1.556.304.304.061.609.128.908.239.398.143.808.36 1.046.725.255.393.316.908.244 1.367a1.75 1.75 0 01-.366.836c-.481.582-1.284.781-2.004.864a9.5 9.5 0 01-1.683.017 12.652 12.652 0 01-1.877-.26c-.31-.067-.614-.139-.913-.228v1.517c.897.272 1.827.421 2.757.477.288.016.57.022.858.022v-.072z" fill="#fff"/><path fill-rule="evenodd" clip-rule="evenodd" d="M14.282 36.289c-2.026 0-3.52.505-4.514 1.484-.99.97-1.514 2.519-1.514 4.7 0 2.184.487 3.736 1.405 4.711.918.976 2.287 1.483 4.14 1.477h.002a9.682 9.682 0 002.928-.446v-1.043c-.977.283-1.859.428-2.652.428-.946 0-1.744-.165-2.39-.518-.65-.353-1.133-.927-1.455-1.695-.323-.768-.474-1.757-.474-2.965 0-1.192.163-2.174.51-2.923.35-.752.883-1.306 1.592-1.643.704-.337 1.586-.495 2.638-.495.714 0 1.456.085 2.225.248v-1.054a10.49 10.49 0 00-2.44-.266zm-4.864 1.127c1.12-1.102 2.76-1.627 4.864-1.627.992 0 1.911.107 2.755.33l.186.241v1.561l-.308.243a10.49 10.49 0 00-2.417-.303c-1.007 0-1.808.152-2.422.446-.598.284-1.05.748-1.354 1.403-.305.657-.464 1.557-.464 2.712 0 1.173.148 2.089.435 2.772.286.682.7 1.16 1.234 1.449.55.3 1.259.457 2.15.457.815 0 1.752-.165 2.826-.504l.326.239v1.561l-.171.237c-1.05.352-2.134.528-3.257.528-1.944.006-3.465-.528-4.506-1.634-1.043-1.107-1.541-2.81-1.541-5.055 0-2.248.54-3.955 1.664-5.056zM13.8 49.161v-.25.25zm9.934-12.883c-1.62 0-2.846.515-3.72 1.525-.875 1.01-1.334 2.546-1.334 4.653 0 2.222.509 3.788 1.466 4.745.96.96 2.44 1.466 4.49 1.466a12.41 12.41 0 003.238-.444v-.99c-1.112.285-2.115.428-3.011.428-1.018 0-1.88-.147-2.564-.448a3.21 3.21 0 01-1.588-1.492c-.356-.681-.543-1.564-.577-2.637l.25-.258h8.149V42.5c0-2.15-.433-3.705-1.246-4.71-.807-.998-1.98-1.512-3.553-1.512zm-4.098 1.197c.986-1.139 2.362-1.697 4.098-1.697 1.693 0 3.022.56 3.942 1.698.915 1.132 1.357 2.822 1.357 5.024v.576l-.25.25h-8.138c.053.907.226 1.623.509 2.164a2.71 2.71 0 001.346 1.265c.6.264 1.388.406 2.363.406.924 0 1.986-.162 3.195-.495l.316.24v1.507l-.182.24a12.99 12.99 0 01-3.556.514c-2.124 0-3.756-.525-4.844-1.613-1.091-1.091-1.612-2.815-1.612-5.098 0-2.168.47-3.843 1.456-4.98zm4.069-.352c1.097 0 1.963.367 2.556 1.126.589.752.873 1.955.906 3.56l-.25.254h-6.533l-.25-.254c.028-1.602.33-2.8.948-3.559.62-.755 1.507-1.121 2.623-1.127zm.002.5c-.999.006-1.73.326-2.238.944-.483.592-.774 1.57-.828 2.996h6.018c-.056-1.435-.332-2.42-.791-3.006-.48-.614-1.187-.934-2.161-.934zm13.856-1.345c-.768 0-1.49.133-2.162.398a5.36 5.36 0 00-1.783 1.142l-.174.07h-.133l-.249-.226-.111-1.185h-1.156v11.968h1.432v-9.117l.055-.157a4.317 4.317 0 011.755-1.326 5.273 5.273 0 012.05-.423c.925 0 1.677.232 2.209.732v.002c.542.516.787 1.328.787 2.378v7.911h1.432v-7.994c0-1.51-.368-2.553-1.04-3.19-.683-.647-1.644-.983-2.912-.983zm-2.345-.068a6.352 6.352 0 012.345-.432c1.357 0 2.455.361 3.256 1.12.812.77 1.196 1.974 1.196 3.553v8.244l-.25.25h-1.932l-.25-.25v-8.16c0-.987-.231-1.636-.63-2.017-.41-.385-1.02-.596-1.866-.596-.619 0-1.24.126-1.858.385h-.002a3.8 3.8 0 00-1.5 1.11v9.278l-.25.25h-1.932l-.25-.25V36.227l.25-.25h1.633l.25.227.096 1.024a5.883 5.883 0 011.694-1.018zm14.503.073c-1.12 0-2.05.148-2.787.437h-.002c-.74.286-1.276.686-1.617 1.178l-.001.001c-.35.497-.525 1.071-.525 1.739 0 .869.245 1.539.718 2.036v.001c.47.5 1.258.878 2.403 1.111l1.779.344c.743.153 1.313.393 1.673.74.373.36.541.872.541 1.481 0 .774-.306 1.38-.924 1.78-.599.387-1.466.563-2.564.563-1.14 0-2.269-.146-3.388-.438v.97c1.023.29 2.152.44 3.388.44 1.616 0 2.813-.316 3.634-.915.81-.591 1.215-1.41 1.215-2.488 0-.887-.25-1.56-.73-2.045-.488-.492-1.295-.87-2.462-1.104l-1.781-.344c-.727-.153-1.29-.394-1.641-.765-.35-.37-.517-.845-.517-1.412 0-.72.307-1.299.908-1.726.601-.428 1.525-.616 2.725-.616a11.921 11.921 0 012.795.323v-.977a12.847 12.847 0 00-2.84-.314zm-2.97-.029c.814-.319 1.81-.47 2.97-.47 1.071 0 2.127.123 3.149.372l.19.243v1.495l-.313.242a11.824 11.824 0 00-1.49-.293c-.471-.06-.97-.093-1.491-.093-1.17 0-1.963.188-2.436.525-.474.337-.697.766-.697 1.318 0 .463.132.807.38 1.068.246.26.69.474 1.38.62l1.776.343c1.213.242 2.133.65 2.72 1.243.593.6.875 1.41.875 2.396 0 1.225-.471 2.2-1.42 2.892-.94.686-2.257 1.012-3.93 1.012-1.35 0-2.587-.175-3.71-.515l-.177-.24V46.93l.319-.24c1.18.337 2.369.505 3.569.505 1.06 0 1.813-.173 2.293-.483.462-.298.695-.739.695-1.36 0-.52-.141-.883-.388-1.12-.26-.252-.72-.465-1.426-.611l-1.778-.344c-1.191-.242-2.096-.65-2.667-1.258-.58-.61-.855-1.412-.855-2.38 0-.761.201-1.438.615-2.026.412-.593 1.038-1.045 1.847-1.358zm9.005-.027l.25-.25h1.932l.25.25v8.194c0 .982.232 1.624.629 1.993h.001c.41.387 1 .592 1.805.592.606 0 1.22-.13 1.84-.395a3.824 3.824 0 001.47-1.099v-9.285l.25-.25h1.932l.25.25v12.474l-.25.25h-1.627l-.249-.224-.103-.977a5.643 5.643 0 01-1.668.996 6.27 6.27 0 01-2.282.415h-.001c-1.34-.006-2.426-.368-3.231-1.12-.82-.763-1.198-1.958-1.198-3.526v-8.288zm.5.25v8.038c0 1.5.363 2.53 1.039 3.161.69.644 1.641.98 2.891.985a5.77 5.77 0 002.102-.382 5.163 5.163 0 001.76-1.125l.174-.07h.122l.248.223.12 1.144h1.153V36.477h-1.432V45.6l-.053.155a4.326 4.326 0 01-1.72 1.315 5.156 5.156 0 01-2.037.436c-.888 0-1.616-.227-2.147-.727-.544-.505-.788-1.314-.788-2.358v-7.944h-1.432zm17.948-.194c-1.121 0-2.051.148-2.788.437h-.001c-.74.286-1.276.686-1.618 1.178v.001c-.35.497-.525 1.071-.525 1.739 0 .869.244 1.539.717 2.036v.001c.47.5 1.259.878 2.403 1.111l1.779.344c.744.153 1.313.393 1.673.74.374.36.542.872.542 1.481 0 .774-.306 1.38-.924 1.78-.6.387-1.466.563-2.565.563-1.14 0-2.268-.146-3.387-.438v.97c1.018.29 2.146.44 3.387.44 1.617 0 2.813-.316 3.634-.915.811-.591 1.215-1.41 1.215-2.488 0-.887-.25-1.56-.73-2.045-.488-.492-1.295-.87-2.462-1.104l-1.78-.344c-.727-.153-1.29-.394-1.642-.765-.35-.37-.517-.845-.517-1.412 0-.72.308-1.299.908-1.726.602-.428 1.525-.616 2.725-.616a11.924 11.924 0 012.795.323v-.977a12.847 12.847 0 00-2.84-.314zm-2.97-.029c.813-.319 1.81-.47 2.97-.47 1.07 0 2.126.123 3.148.372l.19.243v1.495l-.312.242a11.824 11.824 0 00-1.491-.293c-.471-.06-.97-.093-1.491-.093-1.17 0-1.963.188-2.435.525-.474.337-.698.766-.698 1.318 0 .463.133.807.38 1.068.247.26.69.474 1.38.62l1.776.343c1.214.242 2.133.65 2.72 1.243.594.6.875 1.41.875 2.396 0 1.225-.47 2.2-1.42 2.892-.94.686-2.257 1.012-3.929 1.012-1.356 0-2.593-.175-3.71-.515l-.177-.24V46.93l.318-.24c1.18.337 2.37.505 3.569.505 1.06 0 1.813-.173 2.293-.483.462-.298.696-.739.696-1.36 0-.52-.142-.883-.389-1.12-.26-.252-.72-.465-1.425-.611l-1.779-.344c-1.19-.242-2.096-.65-2.667-1.258-.579-.61-.855-1.412-.855-2.38 0-.761.202-1.438.616-2.026.411-.593 1.038-1.045 1.847-1.358z" fill="#C3C3C3"/><path opacity=".58" d="M9.477 47.35c-.487-.52-.825-1.157-1.052-1.827-.282-.842-.387-1.739-.415-2.625-.028-.996.033-2.01.288-2.973.188-.708.498-1.395.958-1.97a4.736 4.736 0 011.722-1.302c.77-.348 1.61-.52 2.447-.587a11.291 11.291 0 013.023.167c.122.022.238.05.36.077.038.011.155.022.171.05.006.017 0 .055 0 .072v1.384c0 .017.006.055 0 .072v.011c-.005 0-.072-.022-.077-.022-.04-.011-.078-.017-.122-.028l-.41-.083c-.26-.05-.52-.088-.786-.116-.958-.11-1.965-.105-2.907.15-.393.105-.77.26-1.107.487a3.043 3.043 0 00-.853.891c-.454.72-.62 1.578-.68 2.414-.067.891-.04 1.81.132 2.69.16.803.476 1.612 1.091 2.182.637.587 1.517.814 2.364.87.963.06 1.921-.095 2.846-.355.127-.033.26-.072.387-.11a.57.57 0 01.117-.04v.023c.01.066 0 .155 0 .221v1.251c0 .011.005.05 0 .061-.006.011-.056.022-.072.028-.067.022-.133.044-.2.06-.121.04-.249.073-.37.106-.255.066-.51.122-.765.172a9.443 9.443 0 01-3.006.072c-.797-.111-1.578-.355-2.259-.792a4.391 4.391 0 01-.825-.681v.005c.61.648 1.401 1.08 2.254 1.313 1.052.287 2.187.31 3.266.182a9.699 9.699 0 001.982-.448v-1.573c-1.329.421-2.774.692-4.152.393-.582-.127-1.14-.365-1.578-.77-.443-.409-.736-.957-.92-1.527-.198-.615-.276-1.268-.31-1.91-.038-.797-.01-1.611.15-2.392.122-.576.327-1.14.681-1.622a3.07 3.07 0 011.396-1.041c.609-.233 1.267-.321 1.915-.343.748-.028 1.495.039 2.231.177.194.039.388.077.582.127v-1.572a10.321 10.321 0 00-2.137-.31 10.701 10.701 0 00-2.104.1c-1.113.171-2.204.575-3.04 1.35-.786.726-1.245 1.722-1.472 2.758a9.988 9.988 0 00-.216 1.904c-.017.62.01 1.246.088 1.86.139 1.091.454 2.204 1.146 3.079.072.094.155.188.238.27v-.01zm19.299-4.274h-8.265c-.034 0-.083-.011-.111 0h-.017v.005c.028.803.133 1.628.47 2.364a3.08 3.08 0 001.573 1.556c.759.327 1.606.415 2.425.415.858 0 1.71-.127 2.547-.32a8.42 8.42 0 00.36-.09c.055-.016.11-.027.171-.044.034-.005.061-.016.095-.022a.46.46 0 01.105-.033c.01.005 0 .11 0 .122v1.29c0 .022.005.05 0 .077v.017c-.011.016-.083.022-.106.028-.238.066-.481.127-.725.177-.935.204-1.888.31-2.845.293-.809-.011-1.623-.1-2.398-.338a5.06 5.06 0 01-1.793-.935 4.399 4.399 0 01-1.136-1.467c-.315-.654-.498-1.362-.597-2.077a12.013 12.013 0 01-.045-2.89c.078-.758.227-1.511.52-2.22a4.92 4.92 0 011.097-1.644 4.466 4.466 0 011.832-1.063c.77-.233 1.595-.288 2.392-.221.731.066 1.462.26 2.093.642a4.216 4.216 0 011.406 1.423c.355.586.582 1.245.725 1.915.178.82.233 1.661.233 2.497-.006.183-.006.365-.006.543 0 .005 0 .005 0 0 0-.925-.01-1.855-.177-2.774-.177-.98-.52-1.96-1.168-2.73a3.99 3.99 0 00-1.18-.968 4.714 4.714 0 00-1.533-.504 6.786 6.786 0 00-1.805-.028c-.548.066-1.09.2-1.594.432a4.552 4.552 0 00-2.12 2.06c-.515 1.002-.704 2.142-.759 3.255-.055 1.14.011 2.314.327 3.416.265.913.73 1.766 1.461 2.386.797.675 1.81 1.024 2.83 1.185 1.328.205 2.696.127 4.008-.139.354-.072.703-.154 1.052-.254v-1.517c-1.041.288-2.115.498-3.2.504-.964.005-2.016-.094-2.863-.598a2.963 2.963 0 01-.985-.958 4.005 4.005 0 01-.504-1.235 6.408 6.408 0 01-.127-.725 10.674 10.674 0 01-.045-.437 2.42 2.42 0 01-.01-.205c0-.033-.006-.067-.006-.105 0-.006-.006-.067 0-.072.005-.006.033 0 .038 0h8.355c.005.016.005.01.005.01z" fill="#494949"/><path opacity=".58" d="M21.274 38.408c-.554.681-.747 1.606-.836 2.459-.033.315-.05.625-.055.94v.006h6.439c.022 0 .066.011.088 0h.011v-.005c-.016-.659-.066-1.323-.221-1.966-.116-.481-.288-.968-.582-1.373a2.563 2.563 0 00-1.323-.946c-.598-.189-1.273-.2-1.888-.078-.648.133-1.218.454-1.633.963v.006c.266-.321.598-.581.974-.753.41-.188.864-.266 1.313-.282.46-.011.924.038 1.356.194.388.143.736.37 1.013.68.52.57.742 1.351.858 2.099.04.243.067.492.089.742.011.138.017.276.022.415.006.066.006.138.006.205 0 .01.01.094 0 .1-.012.005-.045 0-.056 0h-6.394c-.017 0-.061.01-.078 0-.017-.012.006.01-.01-.023-.012-.022 0-.1.005-.127 0-.033 0-.067.005-.1.006-.072.006-.138.011-.21.05-.858.177-1.766.604-2.53.077-.144.171-.277.271-.404.011-.006.011-.012.011-.012zm10.278-2.181h1.595c.005 0 .033-.005.039 0a.21.21 0 01.005.061l.017.15.083.913.016.177c0 .028 0 .072.011.1v.017c.006.005.072 0 .078 0 .05 0 .05 0 .088-.034.05-.05.106-.094.155-.144.421-.37.897-.68 1.412-.908a6.245 6.245 0 013.405-.465c.908.128 1.816.51 2.42 1.224.598.709.82 1.66.88 2.563.022.332.017.67.017 1.002v7.718c0 .022.005.061 0 .078-.006.016-.006.01-.034.01h-1.622c-.083 0-.166-.005-.249 0-.028 0-.022.006-.028-.01-.005-.023 0-.061 0-.084v-8.061c0-.825-.144-1.755-.83-2.308-.365-.294-.82-.449-1.279-.515a4.8 4.8 0 00-1.755.089c-.56.132-1.113.348-1.589.675-.216.15-.42.321-.604.504-.094.1-.188.199-.27.304-.012.017-.023.028-.029.044-.01.05 0 .117 0 .167v9.151c0 .006.006.04 0 .045-.005.005-.094 0-.11 0h-1.777c-.006 0-.04.005-.045 0-.005-.006 0-.083 0-.1V36.227c0-.005 0-.005 0 0v11.964c0 .16-.016.327 0 .488v.027h1.932v-9.268c0-.027-.01-.072 0-.105.006-.017.04-.044.05-.06a2.811 2.811 0 01.277-.304c.144-.15.305-.284.47-.406.35-.26.743-.448 1.152-.592.847-.299 1.816-.404 2.691-.166.338.094.664.25.93.476.244.205.421.47.537.764.2.493.244 1.03.244 1.556v8.1h1.932v-8.233c0-.974-.127-2.01-.664-2.846-.615-.958-1.717-1.44-2.818-1.566-1.401-.155-2.857.143-4.036.924a4.435 4.435 0 00-.416.305c-.06.05-.121.1-.177.15-.066.054-.122.12-.194.176-.033.028-.072.017-.116.017-.016 0-.028.005-.033-.006-.017-.022-.011-.094-.011-.116l-.1-1.063-.016-.177c0-.011 0-.044-.006-.05-.011-.011-.078 0-.094 0h-1.534v.011zm13.226 12.186v-1.395c0-.011-.006-.078 0-.084.005-.005.072.023.077.023.04.01.078.022.117.033.088.022.182.05.276.072a13.139 13.139 0 001.55.288 12.3 12.3 0 002.021.094c.493-.022.991-.083 1.456-.244.35-.122.687-.304.936-.581.227-.255.366-.57.415-.908.061-.404.028-.847-.138-1.224-.354-.786-1.312-1.007-2.082-1.157-.564-.11-1.135-.21-1.694-.332-1.008-.221-2.087-.62-2.68-1.522-.304-.465-.448-1.014-.481-1.567-.039-.67.083-1.346.42-1.932.57-.98 1.64-1.5 2.708-1.739a8.744 8.744 0 011.86-.2 12.83 12.83 0 013.111.327c.04.012.078.017.117.028.005 0 .05.006.05.011.005.006 0 .022 0 .028v1.335c0 .032.01.082 0 .115-.006.023.016.023-.028.006-.083-.028-.177-.044-.266-.066a11.667 11.667 0 00-2.525-.316c-.608-.011-1.228.011-1.82.155-.45.105-.876.282-1.219.598-.37.343-.57.814-.576 1.318-.005.481.133.968.493 1.312.377.365.92.531 1.417.636.216.045.438.084.66.128.691.133 1.4.243 2.075.46.488.154.97.365 1.379.675.393.299.698.697.88 1.157.233.592.277 1.268.189 1.893-.072.51-.255.997-.56 1.412-.603.82-1.566 1.273-2.54 1.484a9 9 0 01-1.806.188c-.675.011-1.35-.028-2.02-.122a12.618 12.618 0 01-1.772-.387s0-.006 0 0c1.118.343 2.28.493 3.449.51 1.04.01 2.115-.078 3.084-.477.82-.338 1.556-.925 1.921-1.75.188-.42.271-.885.282-1.345a3.832 3.832 0 00-.188-1.323 2.666 2.666 0 00-.742-1.113c-.327-.293-.72-.504-1.124-.664-.642-.26-1.323-.382-1.998-.515-.294-.056-.593-.116-.886-.172a7.09 7.09 0 01-.836-.205c-.41-.144-.809-.354-1.058-.725-.293-.443-.36-1.04-.221-1.55.122-.443.426-.814.808-1.058.349-.221.753-.343 1.157-.415.554-.1 1.124-.116 1.689-.1a11.676 11.676 0 012.702.388v-1.506a12.867 12.867 0 00-3.737-.349c-1.047.056-2.132.266-3.034.83A3.21 3.21 0 0045.01 37.9a3.193 3.193 0 00-.46 1.495c-.054.919.178 1.877.859 2.536.659.63 1.595.93 2.47 1.107l1.544.299c.299.06.598.122.886.227.398.138.814.343 1.057.703.282.41.338.963.266 1.445a1.69 1.69 0 01-.36.836c-.476.581-1.279.78-1.993.858-.565.061-1.14.05-1.71.017a12.463 12.463 0 01-1.872-.26c-.31-.067-.615-.144-.914-.227v1.301c-.005.05-.005.11-.005.177zm12.346-.559c-.653-.615-.952-1.495-1.057-2.364-.056-.432-.056-.864-.056-1.296v-7.911c0-.012-.005-.05 0-.056.006-.005.083 0 .1 0h1.783c.01 0 .044-.005.055 0 .011.006 0 .116 0 .139v8.011c0 .675.078 1.417.493 1.976.598.814 1.716.975 2.652.88 1.124-.116 2.225-.614 2.967-1.472.022-.028.045-.05.067-.078a.45.45 0 00.066-.077v-.016c.006-.023 0-.05 0-.073v-9.29c.006-.005.044 0 .056 0h1.782c.011 0 .094-.005.1 0 .005.006 0 .033 0 .039v12.258c0 .044.017.121 0 .166-.006.016.005.01-.022.01h-1.534c-.044 0-.072.017-.077-.027-.028-.26-.056-.52-.083-.786-.017-.139-.028-.277-.045-.41-.005-.039-.005-.077-.01-.116-.006-.033-.006-.022-.05-.022-.023 0-.056-.006-.072 0-.023.005-.061.055-.078.072-.028.027-.06.055-.088.077-.106.094-.21.177-.316.266a5.49 5.49 0 01-.703.46c-1.025.559-2.22.775-3.378.68-.946-.088-1.86-.393-2.552-1.04v.005c.67.62 1.54.93 2.442 1.019 1.085.105 2.209-.061 3.2-.532a5.32 5.32 0 001.295-.863c.05-.045.094-.089.139-.128.028-.022.05-.016.083-.016.039 0 .044-.011.055.016.011.028.006.072.011.1l.017.16c.028.283.06.565.088.848.006.05.012.1.017.155 0 .016 0 .066.011.077.011.017.078.006.105.006h1.528v-11.97c0-.16.017-.327 0-.487v-.028h-1.932v9.274c0 .027.011.077 0 .105-.01.033-.06.077-.083.105-.066.078-.138.155-.21.232-.144.15-.3.283-.465.41a4.47 4.47 0 01-1.146.61c-.836.304-1.805.425-2.675.176a2.4 2.4 0 01-.935-.503 1.964 1.964 0 01-.515-.787c-.177-.476-.216-.985-.216-1.494v-8.122h-1.932v8.216c0 .426.022.852.088 1.273.106.653.322 1.301.737 1.822.088.11.188.221.293.32 0 .006.006.006 0 0zm12.136.559v-1.395c0-.011-.005-.078 0-.084.006-.005.072.023.078.023l.116.033c.089.022.183.05.277.072a13.139 13.139 0 001.55.288c.67.083 1.345.122 2.02.094.494-.022.992-.083 1.457-.244.349-.122.686-.304.936-.581.227-.255.365-.57.415-.908.06-.404.028-.847-.139-1.224-.354-.786-1.312-1.007-2.081-1.157-.565-.11-1.135-.21-1.694-.332-1.008-.221-2.088-.62-2.68-1.522-.305-.465-.448-1.014-.482-1.567-.038-.67.083-1.346.421-1.932.57-.98 1.639-1.5 2.707-1.739a8.745 8.745 0 011.86-.2 12.822 12.822 0 013.111.327c.04.012.079.017.117.028.006 0 .05.006.05.011.006.006 0 .022 0 .028v1.335c0 .032.011.082 0 .115-.005.023.017.023-.028.006-.083-.028-.177-.044-.265-.066a11.666 11.666 0 00-2.525-.316c-.609-.011-1.229.011-1.821.155-.449.105-.875.282-1.218.598-.371.343-.57.814-.576 1.318-.006.481.133.968.493 1.312.376.365.919.531 1.417.636.216.045.437.084.659.128.692.133 1.4.243 2.076.46.487.154.969.365 1.379.675.392.299.697.697.88 1.157.232.592.277 1.268.188 1.893-.072.51-.255.997-.56 1.412-.603.82-1.566 1.273-2.54 1.484a8.999 8.999 0 01-1.805.188 13.012 13.012 0 01-2.021-.122 12.618 12.618 0 01-1.772-.387c-.005 0 0-.006 0 0 1.119.343 2.281.493 3.45.51 1.04.01 2.114-.078 3.083-.477.82-.338 1.556-.925 1.921-1.75.189-.42.272-.885.283-1.345a3.832 3.832 0 00-.189-1.323 2.666 2.666 0 00-.741-1.113c-.327-.293-.72-.504-1.124-.664-.642-.26-1.323-.382-1.999-.515-.293-.056-.592-.116-.886-.172a7.09 7.09 0 01-.836-.205c-.41-.144-.808-.354-1.057-.725-.294-.443-.36-1.04-.222-1.55.122-.443.427-.814.809-1.058.348-.221.753-.343 1.157-.415.553-.1 1.124-.116 1.688-.1a11.675 11.675 0 012.702.388v-1.506a12.867 12.867 0 00-3.737-.349c-1.046.056-2.132.266-3.034.83a3.217 3.217 0 00-1.035 1.025 3.192 3.192 0 00-.46 1.495c-.055.919.177 1.877.858 2.536.66.63 1.595.93 2.47 1.107l1.544.299c.3.06.598.122.886.227.399.138.814.343 1.058.703.282.41.337.963.265 1.445a1.69 1.69 0 01-.36.836c-.476.581-1.278.78-1.993.858-.564.061-1.14.05-1.71.017a12.463 12.463 0 01-1.872-.26 16.23 16.23 0 01-.913-.227v1.301c-.006.05-.006.11-.006.177z" fill="#494949"/><defs><linearGradient id="paint0_linear_3473_41412" x1="42.995" y1="48.916" x2="42.995" y2="36.031" gradientUnits="userSpaceOnUse"><stop stop-color="#888"/><stop offset=".618" stop-color="#676767"/><stop offset=".629" stop-color="#7A7A7A"/><stop offset=".983" stop-color="#6E6E6E"/></linearGradient><linearGradient id="paint1_linear_3473_41412" x1="42.996" y1="48.916" x2="42.996" y2="36.031" gradientUnits="userSpaceOnUse"><stop stop-color="#888"/><stop offset=".618" stop-color="#676767"/><stop offset=".629" stop-color="#7A7A7A"/><stop offset=".983" stop-color="#6E6E6E"/></linearGradient><linearGradient id="paint2_linear_3473_41412" x1="42.995" y1="48.916" x2="42.995" y2="36.031" gradientUnits="userSpaceOnUse"><stop stop-color="#888"/><stop offset=".618" stop-color="#676767"/><stop offset=".629" stop-color="#7A7A7A"/><stop offset=".983" stop-color="#6E6E6E"/></linearGradient><linearGradient id="paint3_linear_3473_41412" x1="42.996" y1="48.916" x2="42.996" y2="36.031" gradientUnits="userSpaceOnUse"><stop stop-color="#888"/><stop offset=".618" stop-color="#676767"/><stop offset=".629" stop-color="#7A7A7A"/><stop offset=".983" stop-color="#6E6E6E"/></linearGradient><linearGradient id="paint4_linear_3473_41412" x1="42.996" y1="48.916" x2="42.996" y2="36.031" gradientUnits="userSpaceOnUse"><stop stop-color="#888"/><stop offset=".618" stop-color="#676767"/><stop offset=".629" stop-color="#7A7A7A"/><stop offset=".983" stop-color="#6E6E6E"/></linearGradient><linearGradient id="paint5_linear_3473_41412" x1="42.996" y1="48.916" x2="42.996" y2="36.031" gradientUnits="userSpaceOnUse"><stop stop-color="#888"/><stop offset=".618" stop-color="#676767"/><stop offset=".629" stop-color="#7A7A7A"/><stop offset=".983" stop-color="#6E6E6E"/></linearGradient><linearGradient id="paint6_linear_3473_41412" x1="42.995" y1="48.916" x2="42.995" y2="36.031" gradientUnits="userSpaceOnUse"><stop stop-color="#5E5E5E"/><stop offset=".5" stop-color="#1E1E1E"/><stop offset=".541" stop-color="#2B2B2B"/><stop offset=".635" stop-color="#414141"/><stop offset=".736" stop-color="#515151"/><stop offset=".849" stop-color="#5B5B5B"/><stop offset="1" stop-color="#5E5E5E"/></linearGradient><linearGradient id="paint7_linear_3473_41412" x1="42.996" y1="48.916" x2="42.996" y2="36.031" gradientUnits="userSpaceOnUse"><stop stop-color="#5E5E5E"/><stop offset=".5" stop-color="#1E1E1E"/><stop offset=".541" stop-color="#2B2B2B"/><stop offset=".635" stop-color="#414141"/><stop offset=".736" stop-color="#515151"/><stop offset=".849" stop-color="#5B5B5B"/><stop offset="1" stop-color="#5E5E5E"/></linearGradient><linearGradient id="paint8_linear_3473_41412" x1="42.995" y1="48.916" x2="42.995" y2="36.031" gradientUnits="userSpaceOnUse"><stop stop-color="#5E5E5E"/><stop offset=".5" stop-color="#1E1E1E"/><stop offset=".541" stop-color="#2B2B2B"/><stop offset=".635" stop-color="#414141"/><stop offset=".736" stop-color="#515151"/><stop offset=".849" stop-color="#5B5B5B"/><stop offset="1" stop-color="#5E5E5E"/></linearGradient><linearGradient id="paint9_linear_3473_41412" x1="42.996" y1="48.916" x2="42.996" y2="36.031" gradientUnits="userSpaceOnUse"><stop stop-color="#5E5E5E"/><stop offset=".5" stop-color="#1E1E1E"/><stop offset=".541" stop-color="#2B2B2B"/><stop offset=".635" stop-color="#414141"/><stop offset=".736" stop-color="#515151"/><stop offset=".849" stop-color="#5B5B5B"/><stop offset="1" stop-color="#5E5E5E"/></linearGradient><linearGradient id="paint10_linear_3473_41412" x1="42.996" y1="48.916" x2="42.996" y2="36.031" gradientUnits="userSpaceOnUse"><stop stop-color="#5E5E5E"/><stop offset=".5" stop-color="#1E1E1E"/><stop offset=".541" stop-color="#2B2B2B"/><stop offset=".635" stop-color="#414141"/><stop offset=".736" stop-color="#515151"/><stop offset=".849" stop-color="#5B5B5B"/><stop offset="1" stop-color="#5E5E5E"/></linearGradient><linearGradient id="paint11_linear_3473_41412" x1="42.996" y1="48.916" x2="42.996" y2="36.031" gradientUnits="userSpaceOnUse"><stop stop-color="#5E5E5E"/><stop offset=".5" stop-color="#1E1E1E"/><stop offset=".541" stop-color="#2B2B2B"/><stop offset=".635" stop-color="#414141"/><stop offset=".736" stop-color="#515151"/><stop offset=".849" stop-color="#5B5B5B"/><stop offset="1" stop-color="#5E5E5E"/></linearGradient><linearGradient id="paint12_linear_3473_41412" x1="42.995" y1="36.031" x2="42.995" y2="48.916" gradientUnits="userSpaceOnUse"><stop stop-color="#fff" stop-opacity=".77"/><stop offset=".203" stop-color="#fff" stop-opacity=".65"/><stop offset=".345" stop-color="#fff" stop-opacity=".65"/><stop offset=".346" stop-color="#fff" stop-opacity=".65"/><stop offset=".511" stop-color="#fff" stop-opacity="0"/><stop offset=".525" stop-color="#E1E1E1" stop-opacity=".01"/><stop offset=".546" stop-color="#B8B8B8" stop-opacity=".012"/><stop offset=".571" stop-color="#929292" stop-opacity=".02"/><stop offset=".597" stop-color="#727272" stop-opacity=".028"/><stop offset=".627" stop-color="#565656" stop-opacity=".038"/><stop offset=".66" stop-color="#404040" stop-opacity=".049"/><stop offset=".699" stop-color="#2F2F2F" stop-opacity=".061"/><stop offset=".747" stop-color="#242424" stop-opacity=".077"/><stop offset=".814" stop-color="#1D1D1D" stop-opacity=".099"/><stop offset="1" stop-color="#1B1B1B" stop-opacity=".16"/></linearGradient><linearGradient id="paint13_linear_3473_41412" x1="42.996" y1="36.031" x2="42.996" y2="48.916" gradientUnits="userSpaceOnUse"><stop stop-color="#fff" stop-opacity=".77"/><stop offset=".203" stop-color="#fff" stop-opacity=".65"/><stop offset=".345" stop-color="#fff" stop-opacity=".65"/><stop offset=".346" stop-color="#fff" stop-opacity=".65"/><stop offset=".511" stop-color="#fff" stop-opacity="0"/><stop offset=".525" stop-color="#E1E1E1" stop-opacity=".01"/><stop offset=".546" stop-color="#B8B8B8" stop-opacity=".012"/><stop offset=".571" stop-color="#929292" stop-opacity=".02"/><stop offset=".597" stop-color="#727272" stop-opacity=".028"/><stop offset=".627" stop-color="#565656" stop-opacity=".038"/><stop offset=".66" stop-color="#404040" stop-opacity=".049"/><stop offset=".699" stop-color="#2F2F2F" stop-opacity=".061"/><stop offset=".747" stop-color="#242424" stop-opacity=".077"/><stop offset=".814" stop-color="#1D1D1D" stop-opacity=".099"/><stop offset="1" stop-color="#1B1B1B" stop-opacity=".16"/></linearGradient><linearGradient id="paint14_linear_3473_41412" x1="42.995" y1="36.031" x2="42.995" y2="48.916" gradientUnits="userSpaceOnUse"><stop stop-color="#fff" stop-opacity=".77"/><stop offset=".203" stop-color="#fff" stop-opacity=".65"/><stop offset=".345" stop-color="#fff" stop-opacity=".65"/><stop offset=".346" stop-color="#fff" stop-opacity=".65"/><stop offset=".511" stop-color="#fff" stop-opacity="0"/><stop offset=".525" stop-color="#E1E1E1" stop-opacity=".01"/><stop offset=".546" stop-color="#B8B8B8" stop-opacity=".012"/><stop offset=".571" stop-color="#929292" stop-opacity=".02"/><stop offset=".597" stop-color="#727272" stop-opacity=".028"/><stop offset=".627" stop-color="#565656" stop-opacity=".038"/><stop offset=".66" stop-color="#404040" stop-opacity=".049"/><stop offset=".699" stop-color="#2F2F2F" stop-opacity=".061"/><stop offset=".747" stop-color="#242424" stop-opacity=".077"/><stop offset=".814" stop-color="#1D1D1D" stop-opacity=".099"/><stop offset="1" stop-color="#1B1B1B" stop-opacity=".16"/></linearGradient><linearGradient id="paint15_linear_3473_41412" x1="42.996" y1="36.031" x2="42.996" y2="48.916" gradientUnits="userSpaceOnUse"><stop stop-color="#fff" stop-opacity=".77"/><stop offset=".203" stop-color="#fff" stop-opacity=".65"/><stop offset=".345" stop-color="#fff" stop-opacity=".65"/><stop offset=".346" stop-color="#fff" stop-opacity=".65"/><stop offset=".511" stop-color="#fff" stop-opacity="0"/><stop offset=".525" stop-color="#E1E1E1" stop-opacity=".01"/><stop offset=".546" stop-color="#B8B8B8" stop-opacity=".012"/><stop offset=".571" stop-color="#929292" stop-opacity=".02"/><stop offset=".597" stop-color="#727272" stop-opacity=".028"/><stop offset=".627" stop-color="#565656" stop-opacity=".038"/><stop offset=".66" stop-color="#404040" stop-opacity=".049"/><stop offset=".699" stop-color="#2F2F2F" stop-opacity=".061"/><stop offset=".747" stop-color="#242424" stop-opacity=".077"/><stop offset=".814" stop-color="#1D1D1D" stop-opacity=".099"/><stop offset="1" stop-color="#1B1B1B" stop-opacity=".16"/></linearGradient><linearGradient id="paint16_linear_3473_41412" x1="42.996" y1="36.031" x2="42.996" y2="48.916" gradientUnits="userSpaceOnUse"><stop stop-color="#fff" stop-opacity=".77"/><stop offset=".203" stop-color="#fff" stop-opacity=".65"/><stop offset=".345" stop-color="#fff" stop-opacity=".65"/><stop offset=".346" stop-color="#fff" stop-opacity=".65"/><stop offset=".511" stop-color="#fff" stop-opacity="0"/><stop offset=".525" stop-color="#E1E1E1" stop-opacity=".01"/><stop offset=".546" stop-color="#B8B8B8" stop-opacity=".012"/><stop offset=".571" stop-color="#929292" stop-opacity=".02"/><stop offset=".597" stop-color="#727272" stop-opacity=".028"/><stop offset=".627" stop-color="#565656" stop-opacity=".038"/><stop offset=".66" stop-color="#404040" stop-opacity=".049"/><stop offset=".699" stop-color="#2F2F2F" stop-opacity=".061"/><stop offset=".747" stop-color="#242424" stop-opacity=".077"/><stop offset=".814" stop-color="#1D1D1D" stop-opacity=".099"/><stop offset="1" stop-color="#1B1B1B" stop-opacity=".16"/></linearGradient><linearGradient id="paint17_linear_3473_41412" x1="42.996" y1="36.031" x2="42.996" y2="48.916" gradientUnits="userSpaceOnUse"><stop stop-color="#fff" stop-opacity=".77"/><stop offset=".203" stop-color="#fff" stop-opacity=".65"/><stop offset=".345" stop-color="#fff" stop-opacity=".65"/><stop offset=".346" stop-color="#fff" stop-opacity=".65"/><stop offset=".511" stop-color="#fff" stop-opacity="0"/><stop offset=".525" stop-color="#E1E1E1" stop-opacity=".01"/><stop offset=".546" stop-color="#B8B8B8" stop-opacity=".012"/><stop offset=".571" stop-color="#929292" stop-opacity=".02"/><stop offset=".597" stop-color="#727272" stop-opacity=".028"/><stop offset=".627" stop-color="#565656" stop-opacity=".038"/><stop offset=".66" stop-color="#404040" stop-opacity=".049"/><stop offset=".699" stop-color="#2F2F2F" stop-opacity=".061"/><stop offset=".747" stop-color="#242424" stop-opacity=".077"/><stop offset=".814" stop-color="#1D1D1D" stop-opacity=".099"/><stop offset="1" stop-color="#1B1B1B" stop-opacity=".16"/></linearGradient></defs></svg>