<svg width="85" height="85" fill="none" xmlns="http://www.w3.org/2000/svg"><mask id="mask0" maskUnits="userSpaceOnUse" x="0" y="0" width="85" height="85"><rect width="85" height="85" rx="4" fill="#F2F4F9"/></mask><g mask="url(#mask0)"><rect width="85" height="85" rx="4" fill="#fff"/><path d="M16.055 24.185c-.913-.525-2.055.13-2.055 1.178v8.496c0 .971.52 1.869 1.366 2.355l22.128 12.73a9.177 9.177 0 009.146 0l22.127-12.73a2.718 2.718 0 001.367-2.355v-8.496c0-1.049-1.143-1.703-2.055-1.178L45.268 37.307a6.424 6.424 0 01-6.402 0L16.055 24.185zm.003 16.335c-.912-.528-2.058.127-2.058 1.176v8.178c0 .968.518 1.863 1.36 2.35l14.837 8.59c.912.528 2.058-.127 2.058-1.176V51.46c0-.968-.518-1.864-1.36-2.351L16.058 40.52zm52.018 0c.912-.528 2.058.127 2.058 1.176v8.178c0 .968-.518 1.863-1.36 2.35l-14.837 8.59c-.913.528-2.058-.127-2.058-1.176V51.46c0-.968.518-1.864 1.36-2.351l14.837-8.588z" fill="#6DDAC0"/></g></svg>