<svg width="41" height="41" viewBox="0 0 41 41" fill="none" xmlns="http://www.w3.org/2000/svg">
<path d="M21.56 0.0864923C10.185 -1.20851 3.39501 12.3365 11.2963 20.7452L12.3813 18.9952C12.9248 13.4849 15.1694 8.28013 18.8038 4.10274C18.968 3.91653 19.17 3.76739 19.3962 3.66524C19.6225 3.56309 19.868 3.51026 20.1163 3.51026C20.3645 3.51026 20.61 3.56309 20.8363 3.66524C21.0626 3.76739 21.2645 3.91653 21.4288 4.10274C25.072 8.29169 27.3172 13.5131 27.8513 19.039C29.1025 21.0165 28.875 20.789 29.085 20.5965C30.6263 18.9403 31.6787 16.8896 32.1258 14.6718C32.5728 12.454 32.397 10.1558 31.6177 8.03181C30.8385 5.90786 29.4862 4.04119 27.7109 2.63877C25.9357 1.23634 23.8067 0.352935 21.56 0.0864923Z" fill="#DC2C2C"/>
<path d="M14 29.7578H26.25V31.5078H14V29.7578Z" fill="url(#paint0_linear)"/>
<path d="M12.25 28.0077V22.5039L8.75 28.0077H12.25Z" fill="url(#paint1_linear)"/>
<path d="M20.125 21.0078C21.0915 21.0078 21.875 20.2243 21.875 19.2578C21.875 18.2913 21.0915 17.5078 20.125 17.5078C19.1585 17.5078 18.375 18.2913 18.375 19.2578C18.375 20.2243 19.1585 21.0078 20.125 21.0078Z" fill="url(#paint2_linear)"/>
<path d="M20.1252 5.25757C16.615 9.26977 14.4971 14.3099 14.0877 19.6251C13.9739 19.7388 14.0002 22.1626 14.0002 28.0076H26.2502C26.2502 20.5526 26.9764 13.1326 20.1252 5.25757ZM20.1252 22.7576C19.4329 22.7576 18.7563 22.5523 18.1807 22.1677C17.6051 21.7831 17.1565 21.2365 16.8916 20.597C16.6267 19.9574 16.5574 19.2537 16.6924 18.5748C16.8275 17.8958 17.1608 17.2722 17.6503 16.7827C18.1398 16.2932 18.7634 15.9599 19.4424 15.8248C20.1213 15.6898 20.825 15.7591 21.4646 16.024C22.1041 16.2889 22.6507 16.7375 23.0353 17.3131C23.4199 17.8886 23.6252 18.5653 23.6252 19.2576C23.6252 20.1858 23.2564 21.0761 22.6001 21.7324C21.9437 22.3888 21.0534 22.7576 20.1252 22.7576Z" fill="url(#paint3_linear)"/>
<path d="M28 28.0077H31.5L28 22.5127V28.0077Z" fill="url(#paint4_linear)"/>
<path d="M17.0975 33.2578C16.7891 33.7895 16.6261 34.3931 16.625 35.0078C16.625 36.9416 20.125 40.2578 20.125 40.2578C20.125 40.2578 23.625 36.9416 23.625 35.0078C23.6239 34.3931 23.4609 33.7895 23.1525 33.2578H17.0975Z" fill="url(#paint5_linear)"/>
<path d="M39.375 10.5076H35.875C35.6429 10.5076 35.4204 10.5998 35.2563 10.7639C35.0922 10.9279 35 11.1505 35 11.3826C35 11.6146 35.0922 11.8372 35.2563 12.0013C35.4204 12.1654 35.6429 12.2576 35.875 12.2576H39.375C39.6071 12.2576 39.8296 12.1654 39.9937 12.0013C40.1578 11.8372 40.25 11.6146 40.25 11.3826C40.25 11.1505 40.1578 10.9279 39.9937 10.7639C39.8296 10.5998 39.6071 10.5076 39.375 10.5076Z" fill="#DC2C2C"/>
<path d="M34.309 4.27773L37.389 2.63273C37.4907 2.57815 37.5807 2.50408 37.6537 2.41473C37.7268 2.32539 37.7815 2.22253 37.8149 2.11203C37.8482 2.00153 37.8594 1.88555 37.8479 1.77071C37.8364 1.65587 37.8024 1.54442 37.7478 1.44273C37.6932 1.34104 37.6191 1.25109 37.5298 1.17803C37.4404 1.10496 37.3376 1.05021 37.2271 1.0169C37.0039 0.949621 36.7632 0.973751 36.5578 1.08398L33.4778 2.74648C33.2968 2.8679 33.1677 3.05245 33.1157 3.26403C33.0636 3.47562 33.0924 3.69902 33.1963 3.89051C33.3003 4.08201 33.472 4.22783 33.6777 4.29945C33.8835 4.37106 34.1086 4.36332 34.309 4.27773Z" fill="#DC2C2C"/>
<path d="M37.8177 19.1965L34.6502 17.7002C34.4512 17.6431 34.2384 17.6584 34.0496 17.7433C33.8609 17.8283 33.7083 17.9774 33.6191 18.1642C33.5299 18.351 33.5098 18.5634 33.5624 18.7636C33.615 18.9638 33.7369 19.1389 33.9064 19.2577L37.0652 20.754C37.265 20.8153 37.4803 20.8031 37.6719 20.7195C37.8635 20.6359 38.0188 20.4864 38.1098 20.2982C38.2007 20.1099 38.2213 19.8953 38.1677 19.6932C38.1141 19.4912 37.9899 19.3149 37.8177 19.1965Z" fill="#DC2C2C"/>
<path d="M4.375 10.5076H0.875C0.642936 10.5076 0.420376 10.5998 0.256282 10.7639C0.0921872 10.9279 0 11.1505 0 11.3826C0 11.6146 0.0921872 11.8372 0.256282 12.0013C0.420376 12.1654 0.642936 12.2576 0.875 12.2576H4.375C4.60706 12.2576 4.82962 12.1654 4.99372 12.0013C5.15781 11.8372 5.25 11.6146 5.25 11.3826C5.25 11.1505 5.15781 10.9279 4.99372 10.7639C4.82962 10.5998 4.60706 10.5076 4.375 10.5076Z" fill="#DC2C2C"/>
<path d="M6.77239 2.73766L3.69239 1.07516C3.59012 1.02058 3.47811 0.986678 3.36274 0.975388C3.24737 0.964098 3.1309 0.975642 3.02 1.00936C2.79601 1.07746 2.60825 1.23175 2.49801 1.43829C2.38778 1.64482 2.36412 1.88669 2.43221 2.11068C2.50031 2.33467 2.6546 2.52243 2.86114 2.63266L5.94114 4.27766C6.14535 4.38789 6.38499 4.41248 6.60734 4.34602C6.82969 4.27956 7.01653 4.1275 7.12676 3.92328C7.23699 3.71907 7.26158 3.47943 7.19512 3.25708C7.12867 3.03473 6.9766 2.84789 6.77239 2.73766Z" fill="#DC2C2C"/>
<path d="M5.60009 17.7002L2.43259 19.1965C2.22258 19.2963 2.0608 19.4754 1.98286 19.6945C1.90491 19.9135 1.91718 20.1546 2.01697 20.3646C2.11676 20.5746 2.29589 20.7364 2.51495 20.8144C2.73402 20.8923 2.97508 20.88 3.18509 20.7802L6.34384 19.2577C6.51335 19.1389 6.63524 18.9638 6.68784 18.7636C6.74045 18.5634 6.72036 18.351 6.63116 18.1642C6.54195 17.9774 6.38941 17.8283 6.20063 17.7433C6.01185 17.6584 5.79906 17.6431 5.60009 17.7002Z" fill="#DC2C2C"/>
<defs>
<linearGradient id="paint0_linear" x1="20.125" y1="29.7578" x2="20.125" y2="31.5078" gradientUnits="userSpaceOnUse">
<stop stop-color="#727272"/>
<stop offset="1" stop-color="white"/>
</linearGradient>
<linearGradient id="paint1_linear" x1="10.5" y1="22.5039" x2="10.5" y2="28.0077" gradientUnits="userSpaceOnUse">
<stop stop-color="#727272"/>
<stop offset="1" stop-color="white"/>
</linearGradient>
<linearGradient id="paint2_linear" x1="20.125" y1="17.5078" x2="20.125" y2="21.0078" gradientUnits="userSpaceOnUse">
<stop stop-color="#727272"/>
<stop offset="1" stop-color="white"/>
</linearGradient>
<linearGradient id="paint3_linear" x1="20.135" y1="5.25757" x2="20.135" y2="28.0076" gradientUnits="userSpaceOnUse">
<stop stop-color="#727272"/>
<stop offset="1" stop-color="white"/>
</linearGradient>
<linearGradient id="paint4_linear" x1="29.75" y1="22.5127" x2="29.75" y2="28.0077" gradientUnits="userSpaceOnUse">
<stop stop-color="#727272"/>
<stop offset="1" stop-color="white"/>
</linearGradient>
<linearGradient id="paint5_linear" x1="20.125" y1="33.2578" x2="20.125" y2="40.2578" gradientUnits="userSpaceOnUse">
<stop stop-color="#727272"/>
<stop offset="1" stop-color="white"/>
</linearGradient>
</defs>
</svg>
