<svg width="48" height="48" viewBox="0 0 48 48" fill="none" xmlns="http://www.w3.org/2000/svg">
<path d="M38.8929 5H33.5744C32.1025 5 32.1005 7.22656 33.5744 7.22656H38.8929C39.93 7.22656 40.7737 8.07028 40.7737 9.10734V14.4258C40.7737 15.8977 43.0003 15.8998 43.0003 14.4258V9.10734C43.0003 6.84255 41.1577 5 38.8929 5V5Z" fill="#DC2C2C"/>
<path d="M38.8929 5H33.5744C32.1025 5 32.1005 7.22656 33.5744 7.22656H38.8929C39.93 7.22656 40.7737 8.07028 40.7737 9.10734V14.4258C40.7737 15.8977 43.0003 15.8998 43.0003 14.4258V9.10734C43.0003 6.84255 41.1577 5 38.8929 5V5Z" fill="url(#paint0_linear)"/>
<path d="M7.22657 14.4258V9.10734C7.22657 8.07028 8.07029 7.22656 9.10736 7.22656H14.4258C15.8977 7.22656 15.8998 5 14.4258 5H9.10736C6.84256 5 5 6.84255 5 9.10734V14.4258C5 15.8977 7.22657 15.8998 7.22657 14.4258Z" fill="#DC2C2C"/>
<path d="M14.4258 40.7734H9.10736C8.07029 40.7734 7.22657 39.9297 7.22657 38.8926V33.5742C7.22657 32.1023 5 32.1002 5 33.5742V38.8926C5 41.1574 6.84256 43 9.10736 43H14.4258C15.8977 43 15.8998 40.7734 14.4258 40.7734Z" fill="url(#paint1_linear)"/>
<path d="M40.7737 33.5742V38.8926C40.7737 39.9297 39.93 40.7734 38.8929 40.7734H33.5744C32.1025 40.7734 32.1005 43 33.5744 43H38.8929C41.1577 43 43.0003 41.1574 43.0003 38.8926V33.5742C43.0003 32.1023 40.7737 32.1002 40.7737 33.5742Z" fill="#DC2C2C"/>
<path d="M38.1758 37.0625V25.1875C38.1758 24.573 37.6771 24.0742 37.0626 24.0742H25.1875C24.573 24.0742 24.0742 24.573 24.0742 25.1875V37.0625C24.0742 37.677 24.573 38.1758 25.1875 38.1758H37.0626C37.6771 38.1758 38.1758 37.677 38.1758 37.0625ZM32.3125 32.2383H29.9375C28.4647 32.2383 28.4643 30.0117 29.9375 30.0117H32.3125C33.7853 30.0117 33.7858 32.2383 32.3125 32.2383Z" fill="url(#paint2_linear)"/>
<path d="M28.1563 21.5508H36.4688C37.0833 21.5508 37.5821 21.052 37.5821 20.4375V12.125C37.5821 11.5105 37.0833 11.0117 36.4688 11.0117H28.1563C27.5417 11.0117 27.043 11.5105 27.043 12.125V20.4375C27.043 21.052 27.5417 21.5508 28.1563 21.5508Z" fill="#DC2C2C"/>
<path d="M21.6251 9.82422H10.9375C10.323 9.82422 9.82422 10.323 9.82422 10.9375V21.625C9.82422 22.2395 10.323 22.7383 10.9375 22.7383H21.6251C22.2396 22.7383 22.7383 22.2395 22.7383 21.625V10.9375C22.7383 10.323 22.2396 9.82422 21.6251 9.82422ZM15.168 16.875V15.6875C15.168 14.2147 17.3946 14.2143 17.3946 15.6875V16.875C17.3946 18.3478 15.168 18.3482 15.168 16.875Z" fill="url(#paint3_linear)"/>
<path d="M20.4375 35.9492H12.0508V26.375C12.0508 24.9031 9.82422 24.901 9.82422 26.375V37.0625C9.82422 37.6773 10.3227 38.1758 10.9375 38.1758H20.4375C21.9095 38.1758 21.9115 35.9492 20.4375 35.9492Z" fill="#DC2C2C"/>
<path d="M16.8008 32.3125V26.375C16.8008 24.9031 14.5742 24.901 14.5742 26.375V32.3125C14.5742 33.7844 16.8008 33.7865 16.8008 32.3125Z" fill="#DC2C2C"/>
<path d="M19.3242 26.375V32.3125C19.3242 33.7844 21.5508 33.7865 21.5508 32.3125V26.375C21.5508 24.9031 19.3242 24.901 19.3242 26.375Z" fill="#DC2C2C"/>
<defs>
<linearGradient id="paint0_linear" x1="37.735" y1="5" x2="37.735" y2="15.5305" gradientUnits="userSpaceOnUse">
<stop stop-color="#727272"/>
<stop offset="1" stop-color="white"/>
</linearGradient>
<linearGradient id="paint1_linear" x1="10.2653" y1="32.4695" x2="10.2653" y2="43" gradientUnits="userSpaceOnUse">
<stop stop-color="#727272"/>
<stop offset="1" stop-color="white"/>
</linearGradient>
<linearGradient id="paint2_linear" x1="31.125" y1="24.0742" x2="31.125" y2="38.1758" gradientUnits="userSpaceOnUse">
<stop stop-color="#727272"/>
<stop offset="1" stop-color="white"/>
</linearGradient>
<linearGradient id="paint3_linear" x1="16.2813" y1="9.82422" x2="16.2813" y2="22.7383" gradientUnits="userSpaceOnUse">
<stop stop-color="#727272"/>
<stop offset="1" stop-color="white"/>
</linearGradient>
</defs>
</svg>
