<svg width="42" height="42" viewBox="0 0 42 42" fill="none" xmlns="http://www.w3.org/2000/svg">
<path d="M11.3732 21.6334L11.4576 21.5068L16.3976 13.7801C16.4821 13.6534 16.651 13.6956 16.6932 13.8223C17.5376 15.6801 18.2132 17.9601 17.9176 19.3957C17.791 19.9868 17.3687 20.789 16.9465 21.5068C16.9043 21.6334 16.8198 21.7179 16.7776 21.8023C16.7354 21.8445 16.6932 21.8868 16.651 21.8868H11.5843C11.3732 21.8868 11.2887 21.7601 11.3732 21.6334Z" fill="url(#paint0_linear)"/>
<path d="M21 2C10.4867 2 2 10.4867 2 21C2 31.5133 10.4867 40 21 40C31.5133 40 40 31.5133 40 21C40 10.4867 31.5133 2 21 2ZM34.2578 26.6578C33.6244 26.9533 33.1178 27.2489 32.9911 27.4178C32.7378 27.7556 32.4844 28.1778 32.2311 28.6C31.0489 30.5 29.4444 33.0756 26.2356 33.0756H16.3133C11.5 33.0756 7.57333 29.1489 7.57333 24.2933V24.1667C7.57333 23.1956 8.12222 22.3089 8.96667 21.8867C8.92444 21.3378 9.05111 20.7889 9.38889 20.2822L14.4133 12.4289C14.6244 12.0911 14.92 11.7956 15.2578 11.6267C15.1733 11.0778 15.2578 10.4867 15.5533 9.98C16.0178 9.22 16.82 8.75556 17.7067 8.75556H18.0444L18.6356 8.92444C19.2267 7.91111 20.3667 7.19333 21.6333 7.19333C22.5622 7.19333 23.4489 7.57333 24.0822 8.24889C24.7156 8.92444 25.0956 9.76889 25.0956 10.6978V11.2467C25.3067 11.4156 25.5178 11.6267 25.7711 11.8378C25.8556 11.9222 25.94 12.0067 26.0244 12.0911C26.4889 12.5556 26.9111 12.9356 27.2489 13.3156C27.3756 13.4422 27.5022 13.6111 27.5867 13.7378L27.6711 13.8644C27.7556 13.9911 27.84 14.0756 27.9244 14.2022L28.0089 14.2867C28.1356 14.4556 28.3044 14.6667 28.3889 14.8356L28.4311 14.8778C28.4733 14.9622 28.5156 15.0044 28.5578 15.0889C28.7689 15.3844 28.9378 15.7222 29.0644 15.9333L29.1067 16.0178C29.1911 16.1444 29.2333 16.3133 29.3178 16.4822C29.4867 16.9044 29.6556 17.3267 29.74 17.7489C29.7822 17.9178 29.8244 18.0444 29.8244 18.2133C29.8667 18.3822 29.8667 18.5511 29.8667 18.6778C29.9089 19.2267 29.8667 19.8178 29.7822 20.3667C29.74 20.5778 29.6978 20.7889 29.6133 21.0422V21.0844C29.5711 21.2111 29.5289 21.3378 29.4444 21.5067L32.5267 20.62C32.7378 20.5356 32.9911 20.5356 33.2444 20.5356C34.6378 20.5356 35.82 21.6756 35.82 23.1111V24.3356C35.7778 25.3067 35.1867 26.2356 34.2578 26.6578Z" fill="#DC2C2C"/>
<path d="M33.4133 23.0687V24.2932C33.4133 24.3776 33.3711 24.4199 33.3289 24.4621C32.9489 24.631 31.64 25.2221 31.0911 25.9821C29.6978 27.9243 28.6422 30.6687 26.2778 30.6687H16.3133C12.8089 30.6687 9.97998 27.7976 9.97998 24.2932V24.1665C9.97998 24.0821 10.0644 23.9976 10.1489 23.9976H15.68C15.8066 23.9976 15.8489 24.0821 15.8489 24.2087C15.8066 24.5887 15.8911 24.9265 16.06 25.2643C16.3978 25.9399 17.0733 26.3621 17.7911 26.3621H20.5355V24.2087H17.8333C17.7066 24.2087 17.6222 24.0399 17.7066 23.9554C17.7489 23.9132 17.7489 23.871 17.7911 23.8287C18.0444 23.4487 18.4244 22.8999 18.7622 22.2665C19.0155 21.8443 19.2689 21.3799 19.4378 20.9154C19.48 20.831 19.5222 20.7465 19.5222 20.6621C19.5644 20.4932 19.6489 20.3665 19.6489 20.2399C19.6911 20.1132 19.7333 19.9865 19.7333 19.9021C19.8178 19.5221 19.86 19.0999 19.86 18.6776C19.86 18.5087 19.86 18.3399 19.8178 18.171C19.8178 18.0021 19.7755 17.791 19.7755 17.6221C19.7755 17.4532 19.7333 17.2843 19.6911 17.1154C19.6489 16.8621 19.6066 16.6087 19.5222 16.3554L19.48 16.271C19.4378 16.1021 19.3955 15.9332 19.3533 15.7643C19.1844 15.2154 19.0155 14.7087 18.8466 14.2443C18.7622 14.0332 18.72 13.8643 18.6355 13.6954C18.5089 13.3999 18.3822 13.1465 18.2978 12.9354C18.2555 12.8087 18.2133 12.7243 18.1289 12.6399C18.0866 12.5132 18.0022 12.4287 17.96 12.3021C17.9178 12.2176 17.8755 12.1332 17.8333 12.0487L17.6222 11.331C17.58 11.2465 17.6644 11.1621 17.7489 11.1621L19.8178 11.711L20.1133 11.7954L20.4089 11.8799L20.5355 11.9221V10.6976C20.5355 10.1065 21 9.59985 21.5911 9.59985C21.8866 9.59985 22.14 9.72652 22.3511 9.93763C22.5622 10.1487 22.6466 10.4021 22.6466 10.6976V12.5554L22.8578 12.5976C22.8578 12.5976 22.9 12.5976 22.9 12.6399C22.9422 12.6821 23.0266 12.7243 23.1533 12.8087C23.2378 12.851 23.3222 12.9354 23.4066 13.0199C23.6178 13.1887 23.8289 13.3999 24.1244 13.611C24.2089 13.6532 24.2511 13.7376 24.3355 13.7799C24.6733 14.0754 25.0533 14.4554 25.4333 14.8776C25.5178 15.0043 25.6444 15.131 25.7289 15.2154C25.8133 15.3421 25.94 15.4687 26.0244 15.5954C26.1511 15.7643 26.2778 15.9332 26.4044 16.1021C26.4466 16.1865 26.5311 16.271 26.5733 16.3554C26.7422 16.5665 26.8689 16.8199 26.9955 17.031C27.0378 17.1576 27.1222 17.2421 27.1644 17.3687C27.2911 17.6643 27.4178 18.0021 27.5022 18.2976C27.5444 18.3821 27.5444 18.4243 27.5444 18.5087C27.5866 18.5932 27.5866 18.7199 27.5866 18.8043C27.6289 19.1421 27.5866 19.4376 27.5444 19.7754C27.5022 19.9021 27.46 20.0287 27.4178 20.1976C27.3755 20.3243 27.3333 20.451 27.2489 20.6199C27.1222 20.8732 26.9955 21.1687 26.8266 21.4221C26.7844 21.5065 26.7 21.6332 26.6578 21.7176C26.5733 21.8021 26.5311 21.9287 26.4466 22.0132C26.3622 22.1399 26.2778 22.2665 26.1933 22.351C26.1089 22.4776 26.0244 22.5621 25.94 22.6887C25.8133 22.8576 25.6866 22.9843 25.56 23.111C25.4755 23.1954 25.3911 23.2799 25.3066 23.3643C25.2222 23.4487 25.1378 23.5332 25.0533 23.6176C24.9266 23.7443 24.8 23.871 24.7155 23.9132L24.5044 24.1243C24.4622 24.1665 24.42 24.1665 24.3778 24.1665H22.6889V26.3199H24.8C25.2644 26.3199 25.7289 26.151 26.0666 25.8554C26.1933 25.7287 26.7422 25.2643 27.3755 24.5887C27.4178 24.5465 27.4178 24.5465 27.46 24.5465L33.2444 22.8576C33.2866 22.8999 33.4133 22.9421 33.4133 23.0687Z" fill="url(#paint1_linear)"/>
<defs>
<linearGradient id="paint0_linear" x1="14.6645" y1="13.7036" x2="14.6645" y2="21.8868" gradientUnits="userSpaceOnUse">
<stop stop-color="#727272"/>
<stop offset="1" stop-color="white"/>
</linearGradient>
<linearGradient id="paint1_linear" x1="21.6966" y1="9.59985" x2="21.6966" y2="30.6687" gradientUnits="userSpaceOnUse">
<stop stop-color="#727272"/>
<stop offset="1" stop-color="white"/>
</linearGradient>
</defs>
</svg>
