<svg width="32" height="32" viewBox="0 0 32 32" fill="none" xmlns="http://www.w3.org/2000/svg">
<circle cx="16" cy="16" r="15.5" stroke="#C4C4C4"/>
<path d="M12.3258 25.0001H9.25C8.65346 24.9995 8.08155 24.7622 7.65973 24.3404C7.23792 23.9186 7.00066 23.3467 7 22.7501V10.0001C7.00142 9.53633 7.14637 9.08436 7.41495 8.70624C7.68352 8.32813 8.06255 8.04242 8.5 7.88835V10.0001C8.50066 10.5967 8.73792 11.1686 9.15973 11.5904C9.58155 12.0122 10.1535 12.2495 10.75 12.2501H16.75C17.3465 12.2495 17.9185 12.0122 18.3403 11.5904C18.7621 11.1686 18.9993 10.5967 19 10.0001V7.88835C19.4374 8.04242 19.8165 8.32813 20.0851 8.70624C20.3536 9.08436 20.4986 9.53633 20.5 10.0001V13.0001H16C15.0058 13.0013 14.0527 13.3968 13.3496 14.0998C12.6466 14.8028 12.2512 15.7559 12.25 16.7501V24.2501C12.25 24.502 12.2754 24.7533 12.3258 25.0001ZM16.75 7.00012H15.9356C15.8156 6.51105 15.5351 6.07635 15.1388 5.76557C14.7426 5.45479 14.2536 5.28589 13.75 5.28589C13.2464 5.28589 12.7574 5.45479 12.3612 5.76557C11.9649 6.07635 11.6844 6.51105 11.5644 7.00012H10.75C10.5511 7.00012 10.3603 7.07914 10.2197 7.21979C10.079 7.36044 10 7.55121 10 7.75012V10.0001C10 10.199 10.079 10.3898 10.2197 10.5305C10.3603 10.6711 10.5511 10.7501 10.75 10.7501H16.75C16.9489 10.7501 17.1397 10.6711 17.2803 10.5305C17.421 10.3898 17.5 10.199 17.5 10.0001V7.75012C17.5 7.55121 17.421 7.36044 17.2803 7.21979C17.1397 7.07914 16.9489 7.00012 16.75 7.00012ZM24.25 16.7501V24.2501C24.2493 24.8467 24.0121 25.4186 23.5903 25.8404C23.1685 26.2622 22.5965 26.4995 22 26.5001H16C15.4035 26.4995 14.8315 26.2622 14.4097 25.8404C13.9879 25.4186 13.7507 24.8467 13.75 24.2501V16.7501C13.7507 16.1536 13.9879 15.5817 14.4097 15.1599C14.8315 14.738 15.4035 14.5008 16 14.5001H22C22.5965 14.5008 23.1685 14.738 23.5903 15.1599C24.0121 15.5817 24.2493 16.1536 24.25 16.7501ZM21.25 22.0001H16.75C16.5511 22.0001 16.3603 22.0791 16.2197 22.2198C16.079 22.3604 16 22.5512 16 22.7501C16 22.949 16.079 23.1398 16.2197 23.2805C16.3603 23.4211 16.5511 23.5001 16.75 23.5001H21.25C21.4489 23.5001 21.6397 23.4211 21.7803 23.2805C21.921 23.1398 22 22.949 22 22.7501C22 22.5512 21.921 22.3604 21.7803 22.2198C21.6397 22.0791 21.4489 22.0001 21.25 22.0001ZM21.25 19.7501H16.75C16.5511 19.7501 16.3603 19.8291 16.2197 19.9698C16.079 20.1104 16 20.3012 16 20.5001C16 20.699 16.079 20.8898 16.2197 21.0305C16.3603 21.1711 16.5511 21.2501 16.75 21.2501H21.25C21.4489 21.2501 21.6397 21.1711 21.7803 21.0305C21.921 20.8898 22 20.699 22 20.5001C22 20.3012 21.921 20.1104 21.7803 19.9698C21.6397 19.8291 21.4489 19.7501 21.25 19.7501ZM21.25 17.5001H16.75C16.5511 17.5001 16.3603 17.5791 16.2197 17.7198C16.079 17.8604 16 18.0512 16 18.2501C16 18.449 16.079 18.6398 16.2197 18.7805C16.3603 18.9211 16.5511 19.0001 16.75 19.0001H21.25C21.4489 19.0001 21.6397 18.9211 21.7803 18.7805C21.921 18.6398 22 18.449 22 18.2501C22 18.0512 21.921 17.8604 21.7803 17.7198C21.6397 17.5791 21.4489 17.5001 21.25 17.5001Z" fill="#C4C4C4"/>
</svg>
