<svg width="42" height="42" viewBox="0 0 42 42" fill="none" xmlns="http://www.w3.org/2000/svg">
<path d="M25.0645 33.1937C24.6912 33.1937 24.3871 32.8902 24.3871 32.5162V29.1292C23.9528 29.31 23.4983 29.4509 23.0322 29.5613V32.5162C23.0322 33.6367 23.944 34.5485 25.0645 34.5485H25.7765C25.7575 34.3243 25.7419 34.1001 25.7419 33.8711C25.7419 33.6421 25.7575 33.4179 25.7765 33.1937H25.0645Z" fill="#DC2C2C"/>
<path d="M33.1934 16.2234V16.9354C33.1934 17.3086 32.8893 17.6128 32.516 17.6128H29.1289C29.3098 18.047 29.4507 18.5015 29.5611 18.9676H32.516C33.6365 18.9676 34.5483 18.0558 34.5483 16.9354V16.2234C34.324 16.2424 34.0998 16.2579 33.8708 16.2579C33.6419 16.2579 33.4176 16.2424 33.1934 16.2234Z" fill="#DC2C2C"/>
<path d="M16.2263 8.8065H16.9356C17.3089 8.8065 17.613 9.11066 17.613 9.48392V12.871C18.0472 12.6901 18.5018 12.5492 18.9679 12.4388V9.48392C18.9679 8.36347 18.056 7.45166 16.9356 7.45166H16.2236C16.2426 7.67589 16.2582 7.90011 16.2582 8.12908C16.2582 8.35601 16.2453 8.5816 16.2263 8.8065Z" fill="#DC2C2C"/>
<path d="M7.45166 25.0645V25.7765C7.67589 25.7575 7.90011 25.7419 8.12908 25.7419C8.35805 25.7419 8.58227 25.7575 8.8065 25.7765V25.0645C8.8065 24.6906 9.11066 24.3871 9.48392 24.3871H12.871C12.6901 23.9528 12.5492 23.4983 12.4388 23.0322H9.48392C8.36347 23.0322 7.45166 23.944 7.45166 25.0645Z" fill="#DC2C2C"/>
<path d="M21.0003 13.5483C20.272 13.5483 19.4964 14.5828 18.9619 16.258H23.0386C22.5041 14.5828 21.7285 13.5483 21.0003 13.5483Z" fill="#DC2C2C"/>
<path d="M23.384 17.6128H18.6163C18.451 18.4318 18.3399 19.3422 18.3047 20.3225H23.6956C23.6604 19.3422 23.5493 18.4318 23.384 17.6128Z" fill="#DC2C2C"/>
<path d="M13.583 21.6775C13.6711 22.6462 13.9468 23.56 14.3715 24.3872H17.2282C17.0758 23.5492 16.9816 22.6387 16.9511 21.6775H13.583Z" fill="#DC2C2C"/>
<path d="M18.4841 13.9949C17.2146 14.4521 16.1009 15.2373 15.2568 16.2581H17.5425C17.7911 15.3809 18.1095 14.6174 18.4841 13.9949Z" fill="#DC2C2C"/>
<path d="M27.6291 17.6128H24.7725C24.9249 18.4508 25.019 19.3612 25.0495 20.3225H28.417C28.3296 19.3538 28.0532 18.4399 27.6291 17.6128Z" fill="#DC2C2C"/>
<path d="M21.0003 28.4516C21.7285 28.4516 22.5041 27.4172 23.0386 25.7419H18.9619C19.4964 27.4172 20.272 28.4516 21.0003 28.4516Z" fill="#DC2C2C"/>
<path d="M24.7725 24.3872H27.6291C28.0532 23.56 28.3296 22.6462 28.4177 21.6775H25.0502C25.019 22.6387 24.9249 23.5492 24.7725 24.3872Z" fill="#DC2C2C"/>
<path d="M24.4582 16.2581H26.7438C25.8998 15.2373 24.7854 14.4521 23.5166 13.9949C23.8905 14.6174 24.2089 15.3809 24.4582 16.2581Z" fill="#DC2C2C"/>
<path d="M23.6956 21.6775H18.3047C18.3399 22.6577 18.4517 23.5682 18.6163 24.3872H23.384C23.5493 23.5682 23.6604 22.6577 23.6956 21.6775Z" fill="#DC2C2C"/>
<path d="M14.3705 17.6128C13.9465 18.4399 13.6701 19.3538 13.582 20.3225H16.9495C16.9806 19.3612 17.0741 18.4508 17.2266 17.6128H14.3705Z" fill="#DC2C2C"/>
<path d="M17.5415 25.7419H15.2559C16.0999 26.7628 17.2143 27.5479 18.4831 28.0052C18.1092 27.3827 17.7908 26.6192 17.5415 25.7419Z" fill="#DC2C2C"/>
<path d="M23.5161 28.0052C24.7856 27.5479 25.8993 26.7628 26.7433 25.7419H24.4577C24.2091 26.6192 23.8907 27.3827 23.5161 28.0052Z" fill="#DC2C2C"/>
<path d="M8.12917 27.0969C4.39388 27.0969 1.35498 30.1358 1.35498 33.8711C1.35498 37.6064 4.39388 40.6453 8.12917 40.6453C11.8645 40.6453 14.9034 37.6064 14.9034 33.8711C14.9034 30.1358 11.8645 27.0969 8.12917 27.0969ZM4.74208 37.2582V30.484L11.5163 33.8711L4.74208 37.2582Z" fill="url(#paint0_linear)"/>
<path d="M33.8709 27.0969C30.1356 27.0969 27.0967 30.1358 27.0967 33.8711C27.0967 37.6064 30.1356 40.6453 33.8709 40.6453C37.6062 40.6453 40.6451 37.6064 40.6451 33.8711C40.6451 30.1358 37.6062 27.0969 33.8709 27.0969ZM37.8189 35.1094L35.7866 37.1417C35.2752 37.6538 34.5944 37.9356 33.8709 37.9356C33.1474 37.9356 32.4666 37.6538 31.9551 37.1417L29.9229 35.1094C29.4107 34.598 29.1289 33.9172 29.1289 33.1937C29.1289 32.4702 29.4107 31.7894 29.9229 31.278C30.4343 30.7658 31.1151 30.484 31.8386 30.484C32.5621 30.484 33.2429 30.7658 33.755 31.278L33.8709 31.3945L33.9874 31.278C34.4988 30.7658 35.1796 30.484 35.9031 30.484C36.6266 30.484 37.3074 30.7658 37.8195 31.278C38.331 31.7894 38.6128 32.4702 38.6128 33.1937C38.6128 33.9172 38.331 34.598 37.8189 35.1094Z" fill="url(#paint1_linear)"/>
<path d="M33.8709 14.9034C37.6062 14.9034 40.6451 11.8645 40.6451 8.12917C40.6451 4.39388 37.6062 1.35498 33.8709 1.35498C30.1356 1.35498 27.0967 4.39388 27.0967 8.12917C27.0967 11.8645 30.1356 14.9034 33.8709 14.9034ZM29.8064 6.23579C29.8064 5.82121 29.971 5.42424 30.2643 5.13092L30.9715 4.42369C31.2012 4.19404 31.5135 4.06466 31.8386 4.06466C32.1638 4.06466 32.4761 4.19404 32.7057 4.42369L33.6013 5.31924C33.774 5.49198 33.8709 5.72569 33.8709 5.96956V6.03663C33.8709 6.38482 33.6744 6.70321 33.3628 6.85901C33.0512 7.01482 32.8547 7.33321 32.8547 7.6814V7.74846C32.8547 7.99233 32.9516 8.22604 33.1237 8.39811L33.6013 8.87569C33.7733 9.04775 34.0077 9.14462 34.2509 9.14462H34.318C34.6662 9.14462 34.9846 8.94817 35.1404 8.63656C35.2962 8.32495 35.6146 8.1285 35.9627 8.1285H36.0298C36.2737 8.1285 36.5074 8.22537 36.6795 8.39743L37.575 9.29298C37.8053 9.5233 37.934 9.83492 37.934 10.1601C37.934 10.4852 37.8046 10.7975 37.575 11.0272L36.8678 11.7344C36.5758 12.0291 36.1782 12.1937 35.7643 12.1937C35.5217 12.1937 35.2826 12.1375 35.0652 12.0284L34.5043 11.7479C32.4551 10.723 30.8354 9.00508 29.9324 6.89966C29.849 6.70524 29.8064 6.49592 29.8064 6.28388V6.23579Z" fill="url(#paint2_linear)"/>
<path d="M5.73314 10.0503C4.72379 9.30992 4.06466 8.11901 4.06466 6.77433C4.06466 4.53275 5.88759 2.70982 8.12917 2.70982C10.3708 2.70982 12.1937 4.53275 12.1937 6.77433C12.1937 8.11901 11.5346 9.30992 10.5252 10.0503C11.6551 10.6106 12.5717 11.5542 13.0886 12.7282C14.211 11.519 14.9034 9.90537 14.9034 8.12917C14.9034 4.39388 11.8645 1.35498 8.12917 1.35498C4.39388 1.35498 1.35498 4.39388 1.35498 8.12917C1.35498 9.90537 2.0473 11.519 3.16979 12.7282C3.68666 11.5549 4.60321 10.6106 5.73314 10.0503Z" fill="url(#paint3_linear)"/>
<path d="M4.26562 13.686C5.36237 14.4515 6.69282 14.9033 8.12895 14.9033C9.56508 14.9033 10.8955 14.4515 11.9923 13.686C11.7471 12.9083 11.2878 12.2336 10.6727 11.7397C10.2994 12.7897 9.30563 13.5485 8.12895 13.5485C6.95227 13.5485 5.9585 12.7897 5.58524 11.7397C4.97014 12.2336 4.51085 12.9083 4.26562 13.686Z" fill="url(#paint4_linear)"/>
<path d="M8.12911 9.48381C9.62562 9.48381 10.8388 8.27064 10.8388 6.77413C10.8388 5.27762 9.62562 4.06445 8.12911 4.06445C6.6326 4.06445 5.41943 5.27762 5.41943 6.77413C5.41943 8.27064 6.6326 9.48381 8.12911 9.48381Z" fill="url(#paint5_linear)"/>
<path d="M6.80518 11.0665C6.9244 11.7243 7.47243 12.1937 8.12885 12.1937C8.79747 12.1937 9.35092 11.706 9.46066 11.0685C9.03998 10.9222 8.59221 10.8389 8.12885 10.8389C7.66821 10.8389 7.22314 10.9215 6.80518 11.0665Z" fill="url(#paint6_linear)"/>
<path d="M21.6776 36.6769V29.772C21.4534 29.7896 21.2292 29.8065 21.0002 29.8065C20.7719 29.8065 20.547 29.7896 20.3228 29.7726V36.6769C19.1569 36.9797 18.2905 38.0311 18.2905 39.2904C18.2905 40.7848 19.5058 42.0001 21.0002 42.0001C22.4946 42.0001 23.7099 40.7848 23.7099 39.2904C23.7099 38.0311 22.8435 36.9797 21.6776 36.6769Z" fill="#DC2C2C"/>
<path d="M39.2904 18.2903C38.0317 18.2903 36.9804 19.1567 36.6769 20.3225H29.772C29.7896 20.5468 29.8065 20.771 29.8065 21C29.8065 21.2283 29.7896 21.4532 29.7726 21.6774H36.6769C36.9797 22.8432 38.0317 23.7096 39.2904 23.7096C40.7848 23.7096 42.0001 22.4943 42.0001 21C42.0001 19.5056 40.7848 18.2903 39.2904 18.2903Z" fill="#DC2C2C"/>
<path d="M20.3228 5.32316V12.2281C20.547 12.2105 20.7712 12.1935 21.0002 12.1935C21.2285 12.1935 21.4534 12.2105 21.6776 12.2274V5.32316C22.8435 5.02035 23.7099 3.96832 23.7099 2.70968C23.7099 1.21529 22.4946 0 21.0002 0C19.5058 0 18.2905 1.21529 18.2905 2.70968C18.2905 3.96832 19.1569 5.01968 20.3228 5.32316Z" fill="#DC2C2C"/>
<path d="M5.32316 21.6774H12.2281C12.2105 21.4532 12.1935 21.2289 12.1935 21C12.1935 20.7717 12.2105 20.5468 12.2274 20.3225H5.32316C5.02035 19.1567 3.96832 18.2903 2.70968 18.2903C1.21529 18.2903 0 19.5056 0 21C0 22.4943 1.21529 23.7096 2.70968 23.7096C3.96832 23.7096 5.02035 22.8432 5.32316 21.6774Z" fill="#DC2C2C"/>
<defs>
<linearGradient id="paint0_linear" x1="8.12917" y1="27.0969" x2="8.12917" y2="40.6453" gradientUnits="userSpaceOnUse">
<stop stop-color="#727272"/>
<stop offset="1" stop-color="white"/>
</linearGradient>
<linearGradient id="paint1_linear" x1="33.8709" y1="27.0969" x2="33.8709" y2="40.6453" gradientUnits="userSpaceOnUse">
<stop stop-color="#727272"/>
<stop offset="1" stop-color="white"/>
</linearGradient>
<linearGradient id="paint2_linear" x1="33.8709" y1="1.35498" x2="33.8709" y2="14.9034" gradientUnits="userSpaceOnUse">
<stop stop-color="#727272"/>
<stop offset="1" stop-color="white"/>
</linearGradient>
<linearGradient id="paint3_linear" x1="8.12917" y1="1.35498" x2="8.12917" y2="12.7282" gradientUnits="userSpaceOnUse">
<stop stop-color="#727272"/>
<stop offset="1" stop-color="white"/>
</linearGradient>
<linearGradient id="paint4_linear" x1="8.12895" y1="11.7397" x2="8.12895" y2="14.9033" gradientUnits="userSpaceOnUse">
<stop stop-color="#727272"/>
<stop offset="1" stop-color="white"/>
</linearGradient>
<linearGradient id="paint5_linear" x1="8.12911" y1="4.06445" x2="8.12911" y2="9.48381" gradientUnits="userSpaceOnUse">
<stop stop-color="#727272"/>
<stop offset="1" stop-color="white"/>
</linearGradient>
<linearGradient id="paint6_linear" x1="8.13292" y1="10.8389" x2="8.13292" y2="12.1937" gradientUnits="userSpaceOnUse">
<stop stop-color="#727272"/>
<stop offset="1" stop-color="white"/>
</linearGradient>
</defs>
</svg>
