<svg width="42" height="42" viewBox="0 0 42 42" fill="none" xmlns="http://www.w3.org/2000/svg">
<path d="M39.7774 15.8049L37.7845 13.1477L36.6764 20.9044C36.5749 21.615 36.2394 22.286 35.7316 22.7936L22.0868 36.4386C20.8966 37.6289 19.3123 38.2845 17.6259 38.2845C17.1219 38.2845 16.6274 38.2246 16.1494 38.1108C16.8753 39.2456 18.1457 40.0002 19.5899 40.0002H35.918C38.1688 40.0002 40 38.169 40 35.9181V16.4729C40 16.232 39.9219 15.9976 39.7774 15.8049Z" fill="url(#paint0_linear)"/>
<path d="M24.9727 20.4954C25.5875 20.4954 26.0859 19.9969 26.0859 19.3821C26.0859 18.7672 25.5875 18.2688 24.9727 18.2688C24.3578 18.2688 23.8594 18.7672 23.8594 19.3821C23.8594 19.9969 24.3578 20.4954 24.9727 20.4954Z" fill="#DC2C2C"/>
<path d="M12.3774 20.4954C12.9923 20.4954 13.4907 19.9969 13.4907 19.3821C13.4907 18.7672 12.9923 18.2688 12.3774 18.2688C11.7626 18.2688 11.2642 18.7672 11.2642 19.3821C11.2642 19.9969 11.7626 20.4954 12.3774 20.4954Z" fill="#DC2C2C"/>
<path d="M20.5123 34.864L34.1572 21.219C34.3276 21.0487 34.4381 20.8277 34.4721 20.5893L36.0466 9.56831C36.0961 9.22141 35.9795 8.87139 35.7317 8.62365L33.3701 6.26201L30.2213 9.41089L31.0085 10.1981C31.4433 10.6328 31.4433 11.3378 31.0085 11.7725C30.7911 11.9899 30.5062 12.0986 30.2213 12.0986C29.9365 12.0986 29.6515 11.9899 29.4342 11.7725L26.2853 8.62365C25.8505 8.18895 25.8505 7.48402 26.2853 7.04925C26.72 6.61455 27.4249 6.61455 27.8597 7.04925L28.6469 7.83649L31.7957 4.68761L29.4341 2.32597C29.1864 2.07816 28.8363 1.96193 28.4894 2.01106L17.4684 3.58554C17.2299 3.6196 17.009 3.73012 16.8387 3.90045L3.19371 17.5454C1.6021 19.1369 1.6021 21.7267 3.19371 23.3183L14.7394 34.864C15.5352 35.6598 16.5805 36.0576 17.6258 36.0576C18.6711 36.0576 19.7165 35.6598 20.5123 34.864ZM24.9731 16.0424C26.8147 16.0424 28.3129 17.5407 28.3129 19.3822C28.3129 21.2238 26.8147 22.7221 24.9731 22.7221C23.1315 22.7221 21.6333 21.2238 21.6333 19.3822C21.6333 17.5407 23.1315 16.0424 24.9731 16.0424ZM12.3778 22.7221C10.5362 22.7221 9.03791 21.2238 9.03791 19.3822C9.03791 17.5407 10.5362 16.0424 12.3778 16.0424C14.2193 16.0424 15.7176 17.5407 15.7176 19.3822C15.7176 21.2238 14.2194 22.7221 12.3778 22.7221ZM16.0516 28.3679C15.9349 28.3679 15.8162 28.3494 15.6994 28.3105C15.1161 28.1161 14.8009 27.4857 14.9953 26.9023L20.2433 11.1581C20.4378 10.5748 21.0682 10.2596 21.6515 10.454C22.2348 10.6484 22.55 11.2788 22.3556 11.8622L17.1076 27.6064C16.9521 28.0728 16.5177 28.3679 16.0516 28.3679Z" fill="#DC2C2C"/>
<path d="M35.7314 3.90042C36.1662 3.46573 36.1662 2.7608 35.7314 2.32602C35.2967 1.89133 34.5918 1.89133 34.157 2.32602L31.7954 4.68766L33.3698 6.26206L35.7314 3.90042Z" fill="#DC2C2C"/>
<defs>
<linearGradient id="paint0_linear" x1="28.0747" y1="13.1477" x2="28.0747" y2="40.0002" gradientUnits="userSpaceOnUse">
<stop stop-color="#727272"/>
<stop offset="1" stop-color="white"/>
</linearGradient>
</defs>
</svg>
