<svg width="42" height="42" viewBox="0 0 42 42" fill="none" xmlns="http://www.w3.org/2000/svg">
<g clip-path="url(#clip0)">
<path d="M18.8761 11.2478H17.001V12.7479H19.9365C19.9967 12.5782 20.0153 12.3966 19.9906 12.2183C19.966 12.0399 19.8989 11.8701 19.795 11.7231C19.6911 11.5761 19.5534 11.4562 19.3935 11.3735C19.2336 11.2908 19.0561 11.2477 18.8761 11.2478Z" fill="url(#paint0_linear)"/>
<path d="M18.8761 7.49756H17.001V9.74772H18.8761C19.1745 9.74772 19.4607 9.62919 19.6717 9.41819C19.8827 9.2072 20.0012 8.92103 20.0012 8.62264C20.0012 8.32425 19.8827 8.03808 19.6717 7.82709C19.4607 7.61609 19.1745 7.49756 18.8761 7.49756Z" fill="url(#paint1_linear)"/>
<path d="M4.0589 12.7455C4.0934 12.7471 5.96282 12.7479 5.96282 12.7479C5.67949 11.2612 5.67949 9.73429 5.96282 8.24756H4.25016C3.6536 8.24825 3.08166 8.48555 2.65983 8.90738C2.23799 9.32922 2.00069 9.90116 2 10.4977C2 10.5128 2.00666 10.7287 2.00666 10.7287C2.10979 11.8309 2.98951 12.6967 4.0589 12.7455Z" fill="url(#paint2_linear)"/>
<path d="M24.9066 12.7478C25.2596 11.6244 25.3432 10.4337 25.1506 9.27205C24.9579 8.11037 24.4945 7.01038 23.7977 6.06109C23.101 5.1118 22.1905 4.33989 21.1401 3.80783C20.0896 3.27578 18.9286 2.99854 17.751 2.99854C16.5735 2.99854 15.4125 3.27578 14.362 3.80783C13.3115 4.33989 12.4011 5.1118 11.7044 6.06109C11.0076 7.01038 10.5442 8.11037 10.3515 9.27205C10.1589 10.4337 10.2425 11.6244 10.5955 12.7478H15.5011V7.49741H14.751C14.5521 7.49741 14.3613 7.41839 14.2206 7.27773C14.08 7.13707 14.001 6.94629 14.001 6.74736C14.001 6.54843 14.08 6.35765 14.2206 6.21699C14.3613 6.07633 14.5521 5.9973 14.751 5.9973H15.8011V5.54727C15.8011 5.34834 15.8801 5.15757 16.0208 5.0169C16.1614 4.87624 16.3522 4.79722 16.5511 4.79722C16.7501 4.79722 16.9409 4.87624 17.0815 5.0169C17.2222 5.15757 17.3012 5.34834 17.3012 5.54727V5.9973H18.2013V5.54727C18.2013 5.44877 18.2207 5.35124 18.2584 5.26024C18.2961 5.16924 18.3513 5.08655 18.421 5.0169C18.4906 4.94725 18.5733 4.892 18.6643 4.85431C18.7553 4.81662 18.8528 4.79722 18.9513 4.79722C19.0498 4.79722 19.1474 4.81662 19.2384 4.85431C19.3294 4.892 19.412 4.94725 19.4817 5.0169C19.5513 5.08655 19.6066 5.16924 19.6443 5.26024C19.682 5.35124 19.7014 5.44877 19.7014 5.54727V6.13091C20.129 6.27213 20.513 6.52107 20.8165 6.85375C21.1199 7.18643 21.3326 7.59164 21.4341 8.03037C21.5355 8.4691 21.5223 8.92655 21.3956 9.35868C21.269 9.79081 21.0332 10.1831 20.7111 10.4976C21.0068 10.7858 21.2302 11.14 21.3628 11.5311C21.4955 11.9222 21.5337 12.3391 21.4743 12.7478H24.9066Z" fill="url(#paint3_linear)"/>
<path d="M39.5027 20.2484C39.5022 19.8507 39.344 19.4694 39.0628 19.1882C38.7815 18.907 38.4003 18.7488 38.0026 18.7483H36.5024V21.7485H38.0026C38.4003 21.748 38.7815 21.5898 39.0628 21.3086C39.344 21.0274 39.5022 20.6461 39.5027 20.2484Z" fill="#DC2C2C"/>
<path d="M9.03557 12.7479C8.69202 11.4177 8.65749 10.0266 8.93463 8.68099C9.21178 7.33543 9.79324 6.07116 10.6345 4.98504C11.4757 3.89892 12.5544 3.01976 13.7879 2.41493C15.0214 1.81009 16.377 1.49563 17.7508 1.49563C19.1246 1.49563 20.4802 1.81009 21.7137 2.41493C22.9472 3.01976 24.0259 3.89892 24.8671 4.98504C25.7084 6.07116 26.2898 7.33543 26.567 8.68099C26.8441 10.0266 26.8096 11.4177 26.466 12.7479H28.0105C28.3463 11.2144 28.334 9.6251 27.9746 8.09698C27.6151 6.56886 26.9176 5.14076 25.9335 3.91775C24.9493 2.69475 23.7034 1.70794 22.2876 1.02994C20.8717 0.351946 19.3218 0 17.752 0C16.1822 0 14.6323 0.351946 13.2165 1.02994C11.8006 1.70794 10.5548 2.69475 9.57057 3.91775C8.58639 5.14076 7.88893 6.56886 7.52948 8.09698C7.17004 9.6251 7.15776 11.2144 7.49355 12.7479H9.03557Z" fill="url(#paint4_linear)"/>
<path d="M18.5011 29.249C19.3296 29.249 20.0012 28.5774 20.0012 27.7489C20.0012 26.9204 19.3296 26.2488 18.5011 26.2488C17.6726 26.2488 17.001 26.9204 17.001 27.7489C17.001 28.5774 17.6726 29.249 18.5011 29.249Z" fill="url(#paint5_linear)"/>
<path d="M18.5011 21.7485C19.3296 21.7485 20.0012 21.0769 20.0012 20.2484C20.0012 19.4199 19.3296 18.7483 18.5011 18.7483C17.6726 18.7483 17.001 19.4199 17.001 20.2484C17.001 21.0769 17.6726 21.7485 18.5011 21.7485Z" fill="url(#paint6_linear)"/>
<path d="M29.7517 8.24756H29.5393C29.8286 9.76716 29.8223 11.3283 29.5205 12.8455C30.6167 13.0174 31.667 13.4084 32.6088 13.9951C33.5506 14.5817 34.3645 15.3521 35.0021 16.2602V13.4979C35.0005 12.1059 34.4469 10.7714 33.4626 9.78709C32.4783 8.80279 31.1437 8.24912 29.7517 8.24756Z" fill="url(#paint7_linear)"/>
<path d="M38.0028 23.2486H29.7522C28.7576 23.2486 27.8037 23.6437 27.1004 24.347C26.3971 25.0504 26.002 26.0043 26.002 26.9989C26.002 27.9935 26.3971 28.9474 27.1004 29.6507C27.8037 30.354 28.7576 30.7492 29.7522 30.7492H36.5965V30.7468C37.3752 30.7217 38.1136 30.395 38.6559 29.8356C39.1982 29.2762 39.5019 28.528 39.5029 27.7489V22.8455C39.0473 23.11 38.5297 23.2491 38.0028 23.2486ZM29.7522 28.6592C29.4238 28.6592 29.1028 28.5619 28.8298 28.3794C28.5568 28.197 28.3439 27.9377 28.2183 27.6343C28.0926 27.3309 28.0597 26.997 28.1238 26.675C28.1879 26.3529 28.346 26.0571 28.5782 25.8248C28.8104 25.5926 29.1062 25.4345 29.4283 25.3705C29.7504 25.3064 30.0842 25.3393 30.3876 25.4649C30.691 25.5906 30.9503 25.8034 31.1328 26.0765C31.3152 26.3495 31.4126 26.6705 31.4126 26.9989C31.4121 27.4391 31.237 27.8611 30.9257 28.1724C30.6145 28.4836 30.1924 28.6587 29.7522 28.6592Z" fill="#DC2C2C"/>
<path d="M28.2519 14.248C28.2519 14.248 4.04728 14.2467 3.99018 14.2441C3.26983 14.2104 2.57633 13.9605 2 13.5271V23.9987H8.7505V20.2484C8.7505 20.0495 8.82952 19.8587 8.97018 19.7181C9.11084 19.5774 9.30162 19.4984 9.50055 19.4984H15.596C15.7785 18.7913 16.2127 18.1751 16.8171 17.7653C17.4214 17.3555 18.1545 17.1801 18.879 17.2721C19.6034 17.3641 20.2694 17.7172 20.7521 18.2651C21.2348 18.813 21.5011 19.5182 21.5011 20.2484C21.5011 20.9787 21.2348 21.6838 20.7521 22.2318C20.2694 22.7797 19.6034 23.1327 18.879 23.2247C18.1545 23.3168 17.4214 23.1414 16.8171 22.7316C16.2127 22.3217 15.7785 21.7055 15.596 20.9985H10.2506V24.7488C10.2506 24.9477 10.1716 25.1385 10.0309 25.2791C9.89026 25.4198 9.69948 25.4988 9.50055 25.4988H2V26.9989H15.596C15.7785 26.2919 16.2127 25.6757 16.8171 25.2659C17.4214 24.856 18.1545 24.6807 18.879 24.7727C19.6034 24.8647 20.2694 25.2177 20.7521 25.7657C21.2348 26.3136 21.5011 27.0188 21.5011 27.749C21.5011 28.4792 21.2348 29.1844 20.7521 29.7323C20.2694 30.2802 19.6034 30.6333 18.879 30.7253C18.1545 30.8173 17.4214 30.642 16.8171 30.2321C16.2127 29.8223 15.7785 29.2061 15.596 28.499H2V29.9992H9.50055C9.69948 29.9992 9.89026 30.0782 10.0309 30.2188C10.1716 30.3595 10.2506 30.5503 10.2506 30.7492V33.7494H15.596C15.7785 33.0424 16.2127 32.4262 16.8171 32.0163C17.4214 31.6065 18.1545 31.4312 18.879 31.5232C19.6034 31.6152 20.2694 31.9682 20.7521 32.5162C21.2348 33.0641 21.5011 33.7692 21.5011 34.4995C21.5011 35.2297 21.2348 35.9349 20.7521 36.4828C20.2694 37.0307 19.6034 37.3838 18.879 37.4758C18.1545 37.5678 17.4214 37.3925 16.8171 36.9826C16.2127 36.5728 15.7785 35.9566 15.596 35.2495H9.50055C9.30162 35.2495 9.11084 35.1705 8.97018 35.0299C8.82952 34.8892 8.7505 34.6984 8.7505 34.4995V31.4993H2V35.2495C2.00201 37.0393 2.71387 38.7551 3.97939 40.0206C5.24492 41.2862 6.96077 41.998 8.7505 42H28.2519C30.0417 41.998 31.7575 41.2862 33.023 40.0206C34.2886 38.7551 35.0004 37.0393 35.0024 35.2495V32.2493H29.752C28.3595 32.2493 27.0241 31.6962 26.0395 30.7115C25.0548 29.7269 24.5017 28.3914 24.5017 26.9989C24.5017 25.6064 25.0548 24.271 26.0395 23.2863C27.0241 22.3017 28.3595 21.7485 29.752 21.7485H35.0024V20.9985C35.0004 19.2088 34.2886 17.4929 33.023 16.2274C31.7575 14.9619 30.0417 14.25 28.2519 14.248Z" fill="#DC2C2C"/>
<path d="M18.5011 35.9995C19.3296 35.9995 20.0012 35.3279 20.0012 34.4994C20.0012 33.6709 19.3296 32.9993 18.5011 32.9993C17.6726 32.9993 17.001 33.6709 17.001 34.4994C17.001 35.3279 17.6726 35.9995 18.5011 35.9995Z" fill="url(#paint8_linear)"/>
</g>
<defs>
<linearGradient id="paint0_linear" x1="18.5011" y1="11.2478" x2="18.5011" y2="12.7479" gradientUnits="userSpaceOnUse">
<stop stop-color="#727272"/>
<stop offset="1" stop-color="white"/>
</linearGradient>
<linearGradient id="paint1_linear" x1="18.5011" y1="7.49756" x2="18.5011" y2="9.74772" gradientUnits="userSpaceOnUse">
<stop stop-color="#727272"/>
<stop offset="1" stop-color="white"/>
</linearGradient>
<linearGradient id="paint2_linear" x1="3.98141" y1="8.24756" x2="3.98141" y2="12.7479" gradientUnits="userSpaceOnUse">
<stop stop-color="#727272"/>
<stop offset="1" stop-color="white"/>
</linearGradient>
<linearGradient id="paint3_linear" x1="17.751" y1="2.99854" x2="17.751" y2="12.7478" gradientUnits="userSpaceOnUse">
<stop stop-color="#727272"/>
<stop offset="1" stop-color="white"/>
</linearGradient>
<linearGradient id="paint4_linear" x1="17.752" y1="0" x2="17.752" y2="12.7479" gradientUnits="userSpaceOnUse">
<stop stop-color="#727272"/>
<stop offset="1" stop-color="white"/>
</linearGradient>
<linearGradient id="paint5_linear" x1="18.5011" y1="26.2488" x2="18.5011" y2="29.249" gradientUnits="userSpaceOnUse">
<stop stop-color="#727272"/>
<stop offset="1" stop-color="white"/>
</linearGradient>
<linearGradient id="paint6_linear" x1="18.5011" y1="18.7483" x2="18.5011" y2="21.7485" gradientUnits="userSpaceOnUse">
<stop stop-color="#727272"/>
<stop offset="1" stop-color="white"/>
</linearGradient>
<linearGradient id="paint7_linear" x1="32.2613" y1="8.24756" x2="32.2613" y2="16.2602" gradientUnits="userSpaceOnUse">
<stop stop-color="#727272"/>
<stop offset="1" stop-color="white"/>
</linearGradient>
<linearGradient id="paint8_linear" x1="18.5011" y1="32.9993" x2="18.5011" y2="35.9995" gradientUnits="userSpaceOnUse">
<stop stop-color="#727272"/>
<stop offset="1" stop-color="white"/>
</linearGradient>
<clipPath id="clip0">
<rect width="42" height="42" fill="white"/>
</clipPath>
</defs>
</svg>
