<svg width="264" height="15" viewBox="0 0 264 15" fill="none" xmlns="http://www.w3.org/2000/svg">
<path d="M1.5 6.58228C0.947715 6.58228 0.5 7.02999 0.5 7.58228C0.5 8.13456 0.947715 8.58228 1.5 8.58228V6.58228ZM263.707 8.28938C264.098 7.89886 264.098 7.26569 263.707 6.87517L257.343 0.511208C256.953 0.120683 256.319 0.120683 255.929 0.511208C255.538 0.901732 255.538 1.5349 255.929 1.92542L261.586 7.58228L255.929 13.2391C255.538 13.6297 255.538 14.2628 255.929 14.6533C256.319 15.0439 256.953 15.0439 257.343 14.6533L263.707 8.28938ZM1.5 8.58228H263V6.58228H1.5V8.58228Z" fill="#DC2C2C"/>
</svg>
