<svg width="20" height="20" viewBox="0 0 20 20" fill="none" xmlns="http://www.w3.org/2000/svg">
<path fill-rule="evenodd" clip-rule="evenodd" d="M7.4493 4.00357H7.4376L7.4388 4L7.4493 4.00357ZM7.4892 4.01724L7.4493 4.00357H7.4748L7.4892 4.01724ZM7.4961 4.02379L7.4892 4.01724L7.5083 4.02377L7.4961 4.02379ZM7.4961 4.02379L7.7252 4.24124C5.1554 4.95425 3.912 6.06774 3.912 6.06774C5.5682 5.27392 7.0607 4.87701 8.5533 4.71658C9.63182 4.55615 10.7103 4.64052 11.6215 4.71658H11.8694C12.4521 4.71658 13.6917 4.95425 15.3529 5.59003C15.9318 5.83125 16.2641 5.98931 16.2641 5.98931C16.2641 5.98931 15.0219 4.79858 12.2847 4.16281L12.4521 4.00238C12.4521 4.00238 14.5248 3.92632 16.7624 5.51159C16.7624 5.51159 19 9.24778 19 13.8539C19 13.8539 17.7603 15.9216 14.3599 16C14.3599 16 13.864 15.3666 13.362 14.8093C15.2711 14.2531 16.0149 13.1408 16.0149 13.1408C16.0149 13.1408 15.8488 13.2193 15.5996 13.3785H15.5252C15.4902 13.3785 15.4728 13.3943 15.4543 13.411C15.4532 13.4121 15.452 13.4131 15.4508 13.4142V13.4213C15.431 13.4403 15.4136 13.4569 15.3765 13.4569C15.3404 13.4712 15.3044 13.4854 15.2684 13.4996C14.8958 13.6466 14.5288 13.7914 14.2235 13.9323C13.6459 14.1723 12.9033 14.4112 11.9921 14.5692C10.8393 14.7297 9.51777 14.8069 8.0128 14.5692L7.9647 14.5589C7.2369 14.402 6.5092 14.2451 5.7814 13.9335C5.6484 13.868 5.5069 13.8027 5.3581 13.7339C4.9661 13.5527 4.5231 13.3479 4.0496 13.0577C4.0496 13.0577 4.7934 14.17 6.7831 14.7261C6.374 15.2799 5.7975 15.9144 5.7975 15.9144C3.0102 15.8561 1.6196 14.4572 1.1672 14.0022C1.0675 13.9019 1.0134 13.8475 1 13.8634C1 9.26442 3.25 5.52109 3.25 5.52109C5.2536 4.09502 7.1299 4.02521 7.4961 4.02379ZM12.8611 9.24775C11.9934 9.24775 11.2917 9.96077 11.2917 10.8342C11.2917 11.7136 11.9983 12.4266 12.8661 12.4266C13.7339 12.4266 14.4405 11.7136 14.4405 10.8414C14.4405 9.96196 13.7339 9.25132 12.8661 9.25132L12.8611 9.24775ZM7.2293 9.24775C6.3578 9.24775 5.6549 9.96077 5.6549 10.8342C5.6549 11.7136 6.3616 12.4266 7.2293 12.4266C8.0971 12.4266 8.8037 11.7136 8.8037 10.8414C8.8012 9.96196 8.0934 9.25132 7.2293 9.25132V9.24775Z" fill="white"/>
</svg>
