<svg width="80" height="16" viewBox="0 0 80 16" fill="none" xmlns="http://www.w3.org/2000/svg">
<path d="M41.0638 7.75534C40.4051 7.75534 39.9304 7.97379 39.449 8.19634V13.2321C39.9101 13.2766 40.1744 13.2766 40.6119 13.2766C42.1927 13.2766 42.4094 12.5443 42.4094 11.5219V9.1168C42.4094 8.36176 42.1617 7.75534 41.0638 7.75534ZM30.5651 7.48052C29.4683 7.48052 29.218 8.08955 29.218 8.84383V9.26765H31.9108V8.84383C31.9108 8.08955 31.6605 7.48052 30.5651 7.48052ZM10.2273 12.7221C10.2273 13.3188 10.5056 13.6287 11.1199 13.6287C11.7789 13.6287 12.1691 13.4114 12.6502 13.1881V11.9935H11.2093C10.527 11.9935 10.2273 12.122 10.2273 12.7221ZM51.2763 7.75534C50.1776 7.75534 49.797 8.36176 49.797 9.1168V11.8722C49.797 12.6291 50.1776 13.2374 51.2763 13.2374C52.372 13.2374 52.7555 12.6291 52.7555 11.8722V9.1168C52.7552 8.36176 52.3716 7.75534 51.2763 7.75534ZM4.84321 15.8117H1.61367V7.90508H0V5.18068H1.61403V3.5444C1.61403 1.3215 2.52479 0 5.11345 0H7.2687V2.72514H5.92158C4.91373 2.72514 4.84727 3.10602 4.84727 3.81662L4.84321 5.18031H7.28346L6.99809 7.90471H4.84321V15.8117ZM15.8805 15.8322H13.1888L13.0725 15.1436C11.8435 15.8322 10.7467 15.9438 10.0231 15.9438C8.04913 15.9438 6.99846 14.61 6.99846 12.7654C6.99846 10.5891 8.22449 9.81246 10.4178 9.81246H12.6502V9.34196C12.6502 8.23107 12.5243 7.90508 10.8353 7.90508H8.07387L8.34373 5.18068H11.3621C15.0679 5.18068 15.8805 6.36477 15.8805 9.36399V15.8322ZM25.0334 8.10486C23.3585 7.81434 22.8774 7.75049 22.0715 7.75049C20.624 7.75049 20.1865 8.07349 20.1865 9.31694V11.6691C20.1865 12.9125 20.624 13.237 22.0715 13.237C22.8774 13.237 23.3585 13.172 25.0334 12.8804V15.5379C23.5663 15.8707 22.6105 15.958 21.8028 15.958C18.3355 15.958 16.9573 14.1138 16.9573 11.4495V9.54099C16.9573 6.87447 18.3355 5.02684 21.8028 5.02684C22.6105 5.02684 23.5663 5.11459 25.0334 5.44879V8.10486ZM35.14 11.4495H29.2177V11.6691C29.2177 12.9125 29.6555 13.237 31.1027 13.237C32.4036 13.237 33.1977 13.172 34.8697 12.8804V15.5379C33.2572 15.8707 32.4169 15.958 30.835 15.958C27.3673 15.958 25.9885 14.1138 25.9885 11.4495V9.26728C25.9885 6.93608 27.0115 5.02684 30.5648 5.02684C34.1181 5.02684 35.14 6.91405 35.14 9.26728V11.4495ZM45.6382 11.4999C45.6382 14.0749 44.9106 15.9532 40.5026 15.9532C38.9107 15.9532 37.9771 15.8117 36.2202 15.5383V0.818514L39.4486 0.27371V5.42265C40.1464 5.16052 41.0494 5.02721 41.8711 5.02721C45.1 5.02721 45.6378 6.49135 45.6378 8.84421V11.4999H45.6382ZM55.9873 11.5559C55.9873 13.7773 55.0806 15.9319 51.287 15.9319C47.4915 15.9319 46.5678 13.7773 46.5678 11.5559V9.41104C46.5678 7.18851 47.4915 5.03356 51.287 5.03356C55.0806 5.03356 55.9873 7.18851 55.9873 9.41104V11.5559ZM66.3294 11.5559C66.3294 13.7773 65.4216 15.9319 61.6287 15.9319C57.8332 15.9319 56.9095 13.7773 56.9095 11.5559V9.41104C56.9095 7.18851 57.8332 5.03356 61.6287 5.03356C65.4216 5.03356 66.3294 7.18851 66.3294 9.41104V11.5559ZM76.9428 15.8117H73.4434L70.4837 10.8143V15.8117H67.2542V0.81814L70.4837 0.273336V9.9256L73.4434 5.18068H76.9428L73.7118 10.3588L76.9428 15.8117ZM61.6176 7.75534C60.5208 7.75534 60.1402 8.36176 60.1402 9.1168V11.8722C60.1402 12.6291 60.5208 13.2374 61.6176 13.2374C62.713 13.2374 63.1006 12.6291 63.1006 11.8722V9.1168C63.1006 8.36176 62.713 7.75534 61.6176 7.75534ZM78.7861 13.9468C79.3299 13.9468 79.763 14.3953 79.763 14.9554C79.763 15.5241 79.3295 15.9677 78.7821 15.9677C78.2372 15.9677 77.7952 15.5241 77.7952 14.9554C77.7952 14.3953 78.2372 13.9468 78.7821 13.9468H78.7861ZM78.7821 14.1037C78.3438 14.1037 77.9854 14.4849 77.9854 14.9554C77.9854 15.4345 78.3442 15.8109 78.7861 15.8109C79.2284 15.8154 79.5817 15.4345 79.5817 14.9599C79.5817 14.4853 79.2284 14.1037 78.7861 14.1037H78.7821ZM78.5964 15.5424H78.4192V14.417C78.5122 14.4039 78.6008 14.3908 78.7337 14.3908C78.902 14.3908 79.012 14.4267 79.0796 14.4756C79.145 14.5253 79.18 14.6011 79.18 14.7082C79.18 14.8568 79.0833 14.9461 78.9641 14.9823V14.9909C79.0611 15.0092 79.1272 15.0981 79.1497 15.2635C79.1756 15.4386 79.2025 15.5055 79.2199 15.5421H79.0342C79.008 15.5055 78.981 15.4028 78.9589 15.2545C78.933 15.1115 78.8614 15.0577 78.7197 15.0577H78.5967V15.5424H78.5964ZM78.5964 14.9196H78.7248C78.8703 14.9196 78.994 14.8654 78.994 14.7262C78.994 14.6276 78.9238 14.5294 78.7248 14.5294C78.6669 14.5294 78.6266 14.5338 78.5964 14.538V14.9196Z" fill="#4478FF"/>
</svg>
