<svg width="41" height="41" fill="none" xmlns="http://www.w3.org/2000/svg"><g clip-path="url(#a)"><path d="M39.691 30.427H26.833c-.4 0-.774.2-.996.534l-1.242 1.862h-8.301l-1.242-1.863a1.198 1.198 0 00-.996-.533H1.198c-.662 0-1.198.536-1.198 1.198v1.996a3.993 3.993 0 003.993 3.993h32.903a3.993 3.993 0 003.993-3.992v-1.997c0-.662-.537-1.198-1.198-1.198z" fill="url(#b)"/><path d="M28.43 18.847a1.198 1.198 0 010-2.396h.314a8.344 8.344 0 00-1.586-3.82l-.219.218a1.195 1.195 0 01-1.694 0 1.198 1.198 0 010-1.694l.22-.219a8.343 8.343 0 00-3.822-1.586v.313a1.198 1.198 0 01-2.396 0V9.35a8.344 8.344 0 00-3.821 1.586l.219.22a1.198 1.198 0 01-1.694 1.693l-.22-.219a8.344 8.344 0 00-1.585 3.821h.313a1.198 1.198 0 110 2.396h-.313a8.305 8.305 0 001.165 3.195h1.265a6.007 6.007 0 014.67-4.672v-2.915a1.198 1.198 0 012.397 0v2.916a6.007 6.007 0 014.67 4.67h1.266a8.305 8.305 0 001.165-3.194h-.313z" fill="url(#c)"/><path d="M20.444 19.646a3.6 3.6 0 00-3.388 2.396h6.777a3.6 3.6 0 00-3.389-2.396z" fill="#DC2C2C"/><path d="M17.046 29.632l.53.795h5.736l.53-.796a3.586 3.586 0 012.991-1.6h12.379V6.868a3.598 3.598 0 00-3.594-3.594H5.27a3.598 3.598 0 00-3.594 3.594v21.163h12.378c1.205 0 2.323.599 2.99 1.6zm-5.347-5.692a10.7 10.7 0 01-2.036-6.29c0-5.945 4.836-10.782 10.781-10.782s10.781 4.836 10.781 10.781c0 2.267-.704 4.442-2.036 6.29a1.198 1.198 0 01-.972.498H12.671c-.385 0-.747-.185-.972-.497z" fill="#DC2C2C"/></g><defs><linearGradient id="b" x1="20.444" y1="30.427" x2="20.444" y2="37.614" gradientUnits="userSpaceOnUse"><stop stop-color="#FFA4A4"/><stop offset="1" stop-color="#F1F1F1"/></linearGradient><linearGradient id="c" x1="20.445" y1="9.35" x2="20.445" y2="22.042" gradientUnits="userSpaceOnUse"><stop stop-color="#FFA4A4"/><stop offset="1" stop-color="#F1F1F1"/></linearGradient><clipPath id="a"><path fill="#fff" d="M0 0h40.889v40.889H0z"/></clipPath></defs></svg>