<svg width="80" height="80" fill="none" xmlns="http://www.w3.org/2000/svg"><path d="M21.666 35h-3.333v3.333h3.333a1.667 1.667 0 000-3.333z" fill="url(#a)"/><path d="M20 25a15 15 0 100 29.998A15 15 0 0020 25zm3.333 23.033a1.675 1.675 0 01-2.739 1.435A1.672 1.672 0 0120 48.333h-1.667a1.667 1.667 0 11-3.333 0A1.667 1.667 0 0115 45V35a1.667 1.667 0 010-3.333 1.666 1.666 0 113.333 0H20a1.673 1.673 0 113.333.3A5 5 0 0125.367 40a5 5 0 01-2.034 8.033z" fill="url(#b)"/><path d="M21.666 41.667h-3.333V45h3.333a1.667 1.667 0 100-3.333z" fill="url(#c)"/><path d="M75 40a15 15 0 10-30 0 15 15 0 0030 0zm-16.667 8.034a5 5 0 01-3.333-4.7 1.666 1.666 0 113.333 0A1.667 1.667 0 1060 41.667a5 5 0 01-1.667-9.7 1.667 1.667 0 013.334 0 5 5 0 013.333 4.7 1.667 1.667 0 01-3.333 0A1.667 1.667 0 1060 38.334a5 5 0 011.667 9.7 1.667 1.667 0 01-3.334 0z" fill="url(#d)"/><path d="M47.217 26.867a15 15 0 00-14.434 0 18.333 18.333 0 010 26.266 15 15 0 0014.434 0 18.334 18.334 0 010-26.266z" fill="url(#e)"/><path d="M7.867 20H15v2.367a17.28 17.28 0 013.333-.617v-3.417a1.667 1.667 0 00-1.666-1.666h-8.8a3.333 3.333 0 100 3.333z" fill="url(#f)"/><path d="M20 7.867c0 5.15-.35 6.35.916 6.95l5.75 2.883v5.217c1.166.438 2.283.997 3.334 1.666v-7.916c0-1.367-.65-1.35-6.667-4.367V7.867a3.333 3.333 0 10-3.333 0z" fill="url(#g)"/><path d="M38.334 14.534v7.216a15.925 15.925 0 013.333 0v-7.216a3.333 3.333 0 10-3.333 0z" fill="url(#h)"/><path d="M61.667 21.75a17.28 17.28 0 013.333.617V20h7.134a3.333 3.333 0 100-3.333h-8.8a1.667 1.667 0 00-1.667 1.666v3.417z" fill="url(#i)"/><path d="M53.333 17.7c6.034-3.016 6.667-3 6.667-4.366V7.867a3.333 3.333 0 10-3.333 0V12.3C50.633 15.317 50 15.3 50 16.667v7.966a17.983 17.983 0 013.333-1.666V17.7z" fill="url(#j)"/><path d="M41.667 65.467v-7.133a15.912 15.912 0 01-3.333 0v7.233a3.333 3.333 0 103.333 0v-.1z" fill="url(#k)"/><path d="M18.333 58.334A17.288 17.288 0 0115 57.717V60H7.867a3.334 3.334 0 100 3.334h8.8a1.667 1.667 0 001.666-1.667v-3.334z" fill="url(#l)"/><path d="M26.666 62.3C20.633 65.317 20 65.3 20 66.667v5.466a3.333 3.333 0 103.333 0V67.7c6.033-3.017 6.667-3 6.667-4.367v-7.966a17.981 17.981 0 01-3.334 1.666V62.3z" fill="url(#m)"/><path d="M72.134 60H65v-2.367a17.276 17.276 0 01-3.333.7v3.334a1.667 1.667 0 001.667 1.666h8.8a3.333 3.333 0 100-3.333z" fill="url(#n)"/><path d="M60 72.133c0-5.15.35-6.35-.917-6.95l-5.75-2.883v-5.217A17.983 17.983 0 0150 55.417v7.916c0 1.367.65 1.35 6.667 4.367v4.433a3.333 3.333 0 103.333 0z" fill="url(#o)"/><defs><linearGradient id="h" x1="40" y1="8.313" x2="40" y2="21.75" gradientUnits="userSpaceOnUse"><stop stop-color="#FF4C4C"/><stop offset="1" stop-color="red" stop-opacity="0"/></linearGradient><linearGradient id="a" x1="20.833" y1="35" x2="20.833" y2="38.333" gradientUnits="userSpaceOnUse"><stop stop-color="#393E46"/><stop offset="1" stop-color="#fff"/></linearGradient><linearGradient id="c" x1="20.833" y1="41.667" x2="20.833" y2="45" gradientUnits="userSpaceOnUse"><stop stop-color="#393E46"/><stop offset="1" stop-color="#fff"/></linearGradient><linearGradient id="d" x1="60" y1="25" x2="60" y2="55" gradientUnits="userSpaceOnUse"><stop stop-color="#393E46"/><stop offset="1" stop-color="#fff"/></linearGradient><linearGradient id="e" x1="40" y1="25.017" x2="40" y2="54.983" gradientUnits="userSpaceOnUse"><stop stop-color="#FF4C4C"/><stop offset="1" stop-color="red" stop-opacity="0"/></linearGradient><linearGradient id="f" x1="9.99" y1="15" x2="9.99" y2="22.367" gradientUnits="userSpaceOnUse"><stop stop-color="#FF4C4C"/><stop offset="1" stop-color="red" stop-opacity="0"/></linearGradient><linearGradient id="g" x1="24.166" y1="1.647" x2="24.166" y2="24.584" gradientUnits="userSpaceOnUse"><stop stop-color="#FF4C4C"/><stop offset="1" stop-color="red" stop-opacity="0"/></linearGradient><linearGradient id="b" x1="20" y1="25" x2="20" y2="55" gradientUnits="userSpaceOnUse"><stop stop-color="#393E46"/><stop offset="1" stop-color="#fff"/></linearGradient><linearGradient id="i" x1="70.01" y1="15" x2="70.01" y2="22.367" gradientUnits="userSpaceOnUse"><stop stop-color="#FF4C4C"/><stop offset="1" stop-color="red" stop-opacity="0"/></linearGradient><linearGradient id="j" x1="55.833" y1="1.647" x2="55.833" y2="24.634" gradientUnits="userSpaceOnUse"><stop stop-color="#FF4C4C"/><stop offset="1" stop-color="red" stop-opacity="0"/></linearGradient><linearGradient id="k" x1="40" y1="58.334" x2="40" y2="71.787" gradientUnits="userSpaceOnUse"><stop stop-color="#FF4C4C"/><stop offset="1" stop-color="red" stop-opacity="0"/></linearGradient><linearGradient id="l" x1="9.99" y1="57.717" x2="9.99" y2="65" gradientUnits="userSpaceOnUse"><stop stop-color="#FF4C4C"/><stop offset="1" stop-color="red" stop-opacity="0"/></linearGradient><linearGradient id="m" x1="24.166" y1="55.367" x2="24.166" y2="78.353" gradientUnits="userSpaceOnUse"><stop stop-color="#FF4C4C"/><stop offset="1" stop-color="red" stop-opacity="0"/></linearGradient><linearGradient id="n" x1="70.01" y1="57.633" x2="70.01" y2="65" gradientUnits="userSpaceOnUse"><stop stop-color="#FF4C4C"/><stop offset="1" stop-color="red" stop-opacity="0"/></linearGradient><linearGradient id="o" x1="55.833" y1="55.417" x2="55.833" y2="78.353" gradientUnits="userSpaceOnUse"><stop stop-color="#FF4C4C"/><stop offset="1" stop-color="red" stop-opacity="0"/></linearGradient></defs></svg>