<svg width="19" height="16" viewBox="0 0 19 16" fill="none" xmlns="http://www.w3.org/2000/svg">
<path fill-rule="evenodd" clip-rule="evenodd" d="M9.22558 4.25625L9.26677 4.9483L8.58034 4.86356C6.08175 4.53872 3.89891 3.4371 2.04555 1.58693L1.13947 0.668915L0.906084 1.34684C0.411856 2.85804 0.727613 4.45398 1.75725 5.52735C2.3064 6.12054 2.18284 6.20528 1.23557 5.85219C0.906084 5.7392 0.617785 5.65446 0.590328 5.69683C0.494228 5.7957 0.823713 7.08092 1.08456 7.58937C1.4415 8.29553 2.16911 8.98758 2.96537 9.39716L3.63806 9.72199L2.84181 9.73612C2.07301 9.73612 2.04555 9.75024 2.12792 10.0468C2.4025 10.9649 3.48705 11.9394 4.69516 12.3631L5.54633 12.6597L4.80499 13.1116C3.70671 13.7613 2.41622 14.1285 1.12574 14.1567C0.507956 14.1709 0 14.2273 0 14.2697C0 14.411 1.67488 15.2019 2.64961 15.5126C5.57379 16.4306 9.04711 16.0351 11.6555 14.4674C13.5089 13.3517 15.3622 11.1343 16.2271 8.98758C16.6939 7.84359 17.1607 5.75333 17.1607 4.75057C17.1607 4.10089 17.2019 4.01615 17.9707 3.23937C18.4237 2.78742 18.8493 2.2931 18.9317 2.15187C19.069 1.88352 19.0552 1.88352 18.3551 2.12362C17.1881 2.54732 17.0234 2.49083 17.6 1.85528C18.0256 1.40333 18.5335 0.584174 18.5335 0.344077C18.5335 0.301707 18.3276 0.372324 18.0942 0.499434C17.8471 0.640668 17.298 0.852518 16.8861 0.979629L16.1448 1.21973L15.4721 0.753655C15.1014 0.499434 14.5797 0.216967 14.3051 0.132227C13.605 -0.0655006 12.5342 -0.0372539 11.9026 0.18872C10.1866 0.824272 9.10203 2.46258 9.22558 4.25625Z" fill="white"/>
</svg>
