<svg xmlns="http://www.w3.org/2000/svg" width="73" height="57" fill="none"><path fill="#fff" d="M70.79 28.5h-5.94V11.23c1.52 3.05 3.7 5.7 6.4 7.79l1.45-1.88A20.06 20.06 0 0164.85 1.2V0h-7.12v1.19a20.21 20.21 0 01-20.2 20.18h-2.37A20.21 20.21 0 0114.98 1.2V0H7.85v1.19A20.06 20.06 0 010 17.14l1.45 1.88a22.61 22.61 0 006.4-7.79V28.5H1.91c-.65 0-1.18.53-1.18 1.19v5.93c0 .66.53 1.2 1.18 1.2h5.94v13.05H6.66c-.65 0-1.18.54-1.18 1.2v4.74c0 .66.53 1.19 1.18 1.19h9.5c.66 0 1.2-.53 1.2-1.19v-4.75c0-.65-.54-1.19-1.2-1.19h-1.18V36.81h42.75v13.06h-1.2c-.65 0-1.18.54-1.18 1.2v4.74c0 .66.53 1.19 1.19 1.19h9.5c.65 0 1.19-.53 1.19-1.19v-4.75c0-.65-.54-1.19-1.2-1.19h-1.18V36.81h5.94c.65 0 1.19-.53 1.19-1.19V29.7c0-.66-.54-1.19-1.2-1.19zM60.1 2.37h2.38V28.5H60.1V2.37zm-45.12 8.85a22.57 22.57 0 0020.18 12.53h2.38a22.57 22.57 0 0020.19-12.53V28.5H14.98V11.22zm-4.75-8.85h2.37V28.5h-2.37V2.37zm4.75 52.26H7.85v-2.38h7.13v2.38zm-4.75-4.76V36.81h2.37v13.06h-2.37zm54.62 4.76h-7.12v-2.38h7.12v2.38zm-4.75-4.76V36.81h2.38v13.06H60.1zm9.5-15.43H3.1v-3.56h66.5v3.56z"/></svg>