<svg width="42" height="42" fill="none" xmlns="http://www.w3.org/2000/svg"><path d="M33.6 0H8.4a4.906 4.906 0 00-4.9 4.9V7a1.4 1.4 0 001.4 1.4h7v25.2h-7A1.4 1.4 0 003.5 35v2.1A4.906 4.906 0 008.4 42h25.2a4.906 4.906 0 004.9-4.9V4.9A4.906 4.906 0 0033.6 0zM4.9 7V4.9a3.5 3.5 0 017 0V7h-7zm3.5 33.6a3.5 3.5 0 01-3.5-3.5V35h7v2.1a3.5 3.5 0 01-3.5 3.5zm28.7-3.5a3.504 3.504 0 01-3.5 3.5H11.823a4.884 4.884 0 001.477-3.5V4.9c0-1.318-.533-2.58-1.477-3.5H33.6a3.504 3.504 0 013.5 3.5v32.2z" fill="#fff"/><path d="M17.5 18.2a2.8 2.8 0 100 5.6 2.8 2.8 0 000-5.6zm0 4.2a1.4 1.4 0 110-2.8 1.4 1.4 0 010 2.8zm18.2-2.1H23.1v1.4h12.6v-1.4zM17.5 8.4a2.8 2.8 0 100 5.6 2.8 2.8 0 000-5.6zm0 4.2a1.4 1.4 0 110-2.8 1.4 1.4 0 010 2.8zm18.2-2.1H23.1v1.4h12.6v-1.4zM17.5 28a2.8 2.8 0 100 5.6 2.8 2.8 0 000-5.6zm0 4.2a1.4 1.4 0 110-2.8 1.4 1.4 0 010 2.8zm18.2-2.1H23.1v1.4h12.6v-1.4z" fill="#fff"/></svg>