<svg width="60" height="60" viewBox="0 0 60 60" fill="none" xmlns="http://www.w3.org/2000/svg">
<path d="M11 42H9V54C9 54.2652 9.10536 54.5196 9.29289 54.7071C9.48043 54.8946 9.73478 55 10 55H14V53H11V42Z" fill="#DC2C2C"/>
<path d="M9 38H11V40H9V38Z" fill="#DC2C2C"/>
<path d="M49 53H46V55H50C50.2652 55 50.5196 54.8946 50.7071 54.7071C50.8946 54.5196 51 54.2652 51 54V42H49V53Z" fill="#DC2C2C"/>
<path d="M49 38H51V40H49V38Z" fill="#DC2C2C"/>
<path d="M47 10H49V12H47V10Z" fill="white"/>
<path d="M51 10H53V12H51V10Z" fill="white"/>
<path d="M53 0H41C40.7348 0 40.4804 0.105357 40.2929 0.292893C40.1054 0.48043 40 0.734784 40 1V5C40.0024 6.12457 40.2764 7.23192 40.7987 8.22782C41.321 9.22373 42.0762 10.0787 43 10.72V14C43.0016 15.1275 43.2751 16.238 43.7974 17.2372C44.3196 18.2365 45.0752 19.095 46 19.74V22.5L42.4 25.2C42.2472 25.3171 42.1305 25.4749 42.0632 25.6553C41.996 25.8357 41.981 26.0315 42.02 26.22L44.02 35.22C44.0726 35.4409 44.1977 35.6378 44.3753 35.7792C44.553 35.9206 44.7729 35.9983 45 36H55C55.2271 35.9983 55.447 35.9206 55.6247 35.7792C55.8023 35.6378 55.9274 35.4409 55.98 35.22L57.98 26.22C58.019 26.0315 58.004 25.8357 57.9368 25.6553C57.8695 25.4749 57.7528 25.3171 57.6 25.2L54 22.5V19.74C54.9248 19.095 55.6804 18.2365 56.2026 17.2372C56.7249 16.238 56.9984 15.1275 57 14V12C57.7949 11.9976 58.5566 11.6808 59.1187 11.1187C59.6808 10.5566 59.9976 9.79492 60 9V7C59.9979 5.14413 59.2597 3.36489 57.9474 2.05259C56.6351 0.740295 54.8559 0.00211736 53 0ZM55.88 26.41L54.2 34H45.8L44.12 26.41L47.6 23.8C47.7234 23.7061 47.8236 23.5852 47.893 23.4465C47.9623 23.3078 47.9989 23.1551 48 23V20.71C49.3053 21.0966 50.6947 21.0966 52 20.71V23C52.0011 23.1551 52.0377 23.3078 52.107 23.4465C52.1764 23.5852 52.2766 23.7061 52.4 23.8L55.88 26.41ZM55 14C55 15.3261 54.4732 16.5979 53.5355 17.5355C52.5979 18.4732 51.3261 19 50 19C48.6739 19 47.4021 18.4732 46.4645 17.5355C45.5268 16.5979 45 15.3261 45 14V8.62L48.12 7.06L55 8.78V14ZM58 9C58 9.26522 57.8946 9.51957 57.7071 9.70711C57.5196 9.89464 57.2652 10 57 10V8C56.9998 7.77667 56.9249 7.55982 56.7872 7.38403C56.6494 7.20823 56.4568 7.0836 56.24 7.03L48.24 5.03C48.008 4.97134 47.7625 4.9998 47.55 5.11L43.55 7.11C43.3859 7.19151 43.2477 7.31691 43.1506 7.47225C43.0535 7.6276 43.0014 7.80681 43 7.99C42.3516 7.12797 42.0006 6.07868 42 5V2H53C54.3261 2 55.5979 2.52678 56.5355 3.46447C57.4732 4.40215 58 5.67392 58 7V9Z" fill="white"/>
<path d="M13 0H7C5.14413 0.00211736 3.36489 0.740295 2.05259 2.05259C0.740295 3.36489 0.00211736 5.14413 0 7V8C0.00197429 8.26511 0.105804 8.51932 0.29 8.71L3 11.41V14C3.00157 15.1275 3.27509 16.238 3.79735 17.2372C4.31961 18.2365 5.07519 19.095 6 19.74V22.5L2.4 25.2C2.24718 25.3171 2.13046 25.4749 2.06325 25.6553C1.99604 25.8357 1.98105 26.0315 2.02 26.22L4.02 35.22C4.07257 35.4409 4.19768 35.6378 4.37534 35.7792C4.553 35.9206 4.77294 35.9983 5 36H15C15.2271 35.9983 15.447 35.9206 15.6247 35.7792C15.8023 35.6378 15.9274 35.4409 15.98 35.22L17.98 26.22C18.019 26.0315 18.004 25.8357 17.9368 25.6553C17.8695 25.4749 17.7528 25.3171 17.6 25.2L14 22.5V19.74C14.9248 19.095 15.6804 18.2365 16.2027 17.2372C16.7249 16.238 16.9984 15.1275 17 14V11.41L19.71 8.71C19.8942 8.51932 19.998 8.26511 20 8V7C19.9979 5.14413 19.2597 3.36489 17.9474 2.05259C16.6351 0.740295 14.8559 0.00211736 13 0ZM15.88 26.41L14.2 34H5.8L4.12 26.41L7.6 23.8C7.7234 23.7061 7.82363 23.5852 7.89297 23.4465C7.96232 23.3078 7.99893 23.1551 8 23V20.71C9.3053 21.0966 10.6947 21.0966 12 20.71V23C12.0011 23.1551 12.0377 23.3078 12.107 23.4465C12.1764 23.5852 12.2766 23.7061 12.4 23.8L15.88 26.41ZM15 14C15 15.3261 14.4732 16.5979 13.5355 17.5355C12.5979 18.4732 11.3261 19 10 19C8.67392 19 7.40215 18.4732 6.46447 17.5355C5.52678 16.5979 5 15.3261 5 14V8.62L8.12 7.06L15 8.78V14ZM18 7.59L17 8.59V8C16.9998 7.77667 16.9249 7.55982 16.7872 7.38403C16.6494 7.20823 16.4568 7.0836 16.24 7.03L8.24 5.03C8.00796 4.97134 7.76246 4.9998 7.55 5.11L3.55 7.11C3.38338 7.19095 3.24321 7.3176 3.14583 7.47517C3.04845 7.63275 2.99787 7.81477 3 8V8.59L2 7.59V7C2 5.67392 2.52678 4.40215 3.46447 3.46447C4.40215 2.52678 5.67392 2 7 2H13C14.3261 2 15.5979 2.52678 16.5355 3.46447C17.4732 4.40215 18 5.67392 18 7V7.59Z" fill="white"/>
<path d="M7 10H9V12H7V10Z" fill="white"/>
<path d="M11 10H13V12H11V10Z" fill="white"/>
<path d="M31 37H33V39H31V37Z" fill="white"/>
<path d="M27 37H29V39H27V37Z" fill="white"/>
<path d="M43.41 52.09L41 51.02V35C40.9963 32.6142 40.0469 30.3272 38.3599 28.6401C36.6729 26.9531 34.3858 26.0037 32 26H28C25.6136 26.0016 23.3253 26.9503 21.6378 28.6378C19.9503 30.3253 19.0016 32.6135 19 35V51.02L16.59 52.09C16.4136 52.1675 16.2637 52.295 16.1588 52.4567C16.054 52.6184 15.9988 52.8073 16 53V59C16 59.2652 16.1054 59.5196 16.2929 59.7071C16.4804 59.8946 16.7348 60 17 60H43C43.2652 60 43.5196 59.8946 43.7071 59.7071C43.8947 59.5196 44 59.2652 44 59V53C44.0013 52.8073 43.9461 52.6184 43.8412 52.4567C43.7364 52.295 43.5865 52.1675 43.41 52.09ZM21 35C20.9955 33.916 21.2492 32.8465 21.74 31.88C22.3161 30.7124 23.2081 29.7299 24.3147 29.044C25.4213 28.3581 26.6981 27.9964 28 28H32C33.8559 28.0021 35.6351 28.7403 36.9474 30.0526C38.2597 31.3649 38.9979 33.1441 39 35V50.13L34.41 48.09C34.1833 47.9857 33.9246 47.9749 33.69 48.06L33.37 46.13C34.4684 45.5267 35.3847 44.6396 36.0232 43.5613C36.6617 42.4831 36.9991 41.2531 37 40V34C36.9992 33.8353 36.9576 33.6733 36.8791 33.5285C36.8006 33.3838 36.6876 33.2606 36.55 33.17L33.55 31.17C33.4386 31.0939 33.3129 31.0414 33.1805 31.0156C33.0481 30.9898 32.9118 30.9913 32.78 31.02L23.78 33.02C23.5591 33.0726 23.3622 33.1977 23.2208 33.3753C23.0794 33.553 23.0017 33.7729 23 34V40C23.001 41.2531 23.3383 42.4831 23.9769 43.5613C24.6154 44.6396 25.5317 45.5267 26.63 46.13L26.31 48.06C26.0754 47.9749 25.8167 47.9857 25.59 48.09L21 50.13V35ZM30 45C28.6739 45 27.4022 44.4732 26.4645 43.5355C25.5268 42.5979 25 41.3261 25 40V34.8L32.8 33.07L35 34.54V40C35 41.3261 34.4732 42.5979 33.5356 43.5355C32.5979 44.4732 31.3261 45 30 45ZM31.93 49.66L30 51.59L28.07 49.66L28.54 46.84C29.5017 47.0533 30.4984 47.0533 31.46 46.84L31.93 49.66ZM42 58H18V53.65L25.78 50.19L29.29 53.71C29.4788 53.8974 29.734 54.0025 30 54.0025C30.266 54.0025 30.5212 53.8974 30.71 53.71L34.22 50.19L42 53.65V58Z" fill="white"/>
<path d="M19 13H21V15H19V13Z" fill="#DC2C2C"/>
<path d="M39 13H41V15H39V13Z" fill="#DC2C2C"/>
<path d="M23 13H37V15H23V13Z" fill="#DC2C2C"/>
</svg>
