<svg width="42" height="42" fill="none" xmlns="http://www.w3.org/2000/svg"><g clip-path="url(#a)"><path d="M17.225 7.545l-2.493 2.493v2.299h9.584v-2.3l-2.493-2.492h-4.598z" fill="#DC2C2C"/><path d="M12.337 9.542a1.2 1.2 0 01.35-.848L15.882 5.5a1.2 1.2 0 01.847-.35h5.59a1.2 1.2 0 01.848.35l3.194 3.194c.224.226.35.53.35.848v2.795h4.792V2.674A2.399 2.399 0 0029.107.278H9.941a2.399 2.399 0 00-2.396 2.396v9.663h4.792V9.542z" fill="url(#b)"/><path d="M39.888 21.92H25.513c-.377 0-.732.178-.958.48l-3.594 4.791a1.198 1.198 0 000 1.438l3.594 4.791c.226.302.581.48.958.48h14.375c.662 0 1.198-.537 1.198-1.198v-9.584c0-.661-.536-1.198-1.198-1.198zm-10.78 7.188a1.198 1.198 0 110-2.396 1.198 1.198 0 010 2.396z" fill="url(#c)"/><path d="M22.639 34.858l-3.594-4.792a3.613 3.613 0 010-4.312l3.594-4.792a3.612 3.612 0 012.875-1.438H38.69V17.13a2.396 2.396 0 00-2.396-2.396H2.753A2.396 2.396 0 00.357 17.13v21.64a2.396 2.396 0 002.396 2.396h33.542a2.396 2.396 0 002.396-2.396v-2.476H25.514a3.61 3.61 0 01-2.875-1.437z" fill="#DC2C2C"/></g><defs><linearGradient id="b" x1="19.524" y1=".278" x2="19.524" y2="12.337" gradientUnits="userSpaceOnUse"><stop stop-color="#FFA4A4"/><stop offset="1" stop-color="#F1F1F1"/></linearGradient><linearGradient id="c" x1="30.904" y1="21.92" x2="30.904" y2="33.899" gradientUnits="userSpaceOnUse"><stop stop-color="#FFA4A4"/><stop offset="1" stop-color="#F1F1F1"/></linearGradient><clipPath id="a"><path fill="#fff" transform="translate(.277 .278)" d="M0 0h40.889v40.889H0z"/></clipPath></defs></svg>