<svg width="42" height="42" fill="none" xmlns="http://www.w3.org/2000/svg"><g clip-path="url(#a)" fill="#fff"><path d="M25.86 7.888a2.071 2.071 0 00.187-2.996l2.535-3.804A.7.7 0 0028 0H14a.7.7 0 00-.582 1.089l2.535 3.803a2.071 2.071 0 00.188 2.996A14.01 14.01 0 007 21v17.5a3.504 3.504 0 003.5 3.5h21a3.504 3.504 0 003.5-3.5V21a14.01 14.01 0 00-9.14-13.112zM15.307 1.4h11.384l-1.866 2.8H21.7V2.1h-1.4v2.1h-3.126l-1.866-2.8zM25.2 6.3a.7.7 0 01-.7.7h-7a.7.7 0 010-1.4h7a.7.7 0 01.7.7zm8.4 32.2a2.1 2.1 0 01-2.1 2.1h-2.8v-2.1h-1.4v2.1H14.7v-2.1h-1.4v2.1h-2.8a2.1 2.1 0 01-2.1-2.1V21c0-6.959 5.641-12.6 12.6-12.6S33.6 14.041 33.6 21v17.5z"/><path d="M21 11.9a5.606 5.606 0 015.6 5.6H28a7.01 7.01 0 00-6.3-6.964V9.1h-1.4v1.436A7 7 0 0021 24.5a5.6 5.6 0 11-5.6 5.6H14a7.01 7.01 0 006.3 6.964V38.5h1.4v-1.436A7 7 0 0021 23.1a5.6 5.6 0 110-11.2z"/></g><defs><clipPath id="a"><path fill="#fff" d="M0 0h42v42H0z"/></clipPath></defs></svg>