<svg width="42" height="42" viewBox="0 0 42 42" fill="none" xmlns="http://www.w3.org/2000/svg">
<g clip-path="url(#clip0)">
<path d="M20.9999 11.9009C18.6804 11.9009 16.8 13.7812 16.8 16.1008C16.8 18.4203 18.6804 20.3006 20.9999 20.3006C23.3195 20.3006 25.1998 18.4203 25.1998 16.1008C25.1975 13.7822 23.3185 11.9032 20.9999 11.9009ZM20.9999 18.9007C19.4536 18.9007 18.2 17.6471 18.2 16.1008C18.2 14.5544 19.4536 13.3008 20.9999 13.3008C22.5463 13.3008 23.7998 14.5544 23.7998 16.1008C23.7998 17.6471 22.5463 18.9007 20.9999 18.9007Z" fill="white"/>
<path d="M31.4178 21.5844C31.4675 20.9229 31.4997 20.2587 31.4997 19.6007C31.4997 14.2584 29.9226 9.24098 27.2676 6.09107C27.2339 5.9831 27.1746 5.88484 27.0947 5.80478L21.4949 0.204941C21.2215 -0.0683136 20.7784 -0.0683136 20.5051 0.204941L14.9053 5.80478C14.8254 5.88484 14.766 5.9831 14.7324 6.09107C12.0773 9.24098 10.5003 14.2584 10.5003 19.6007C10.5003 20.2566 10.5325 20.9187 10.5815 21.5774C6.34276 23.0314 3.49717 27.0191 3.50049 31.5003C3.50049 31.8869 3.81391 32.2003 4.20047 32.2003H14.0527C14.8008 33.2824 15.7303 34.2271 16.8001 34.9925V35.7002C16.8001 36.0868 17.1135 36.4002 17.5001 36.4002H18.2176C18.3506 39.2862 19.299 42 21 42C22.7009 42 23.6494 39.2862 23.7824 36.4002H24.4999C24.8864 36.4002 25.1999 36.0868 25.1999 35.7002V34.9925C26.2697 34.2271 27.1992 33.2824 27.9473 32.2003H37.7995C38.1861 32.2003 38.4995 31.8869 38.4995 31.5003C38.4862 27.0259 35.6458 23.0489 31.4178 21.5844ZM21 1.691L24.2101 4.9011H17.7899L21 1.691ZM4.92705 30.8003C5.09049 28.635 6.02628 26.6002 7.56387 25.0668C8.46195 24.1714 9.53624 23.4723 10.7187 23.0138C10.7334 23.123 10.7523 23.2294 10.7677 23.3379C10.7866 23.4695 10.8062 23.5997 10.8265 23.7299C10.8748 24.0371 10.9294 24.3416 10.9882 24.6398C11.0106 24.7525 11.0309 24.8659 11.054 24.9772C11.1401 25.3846 11.2325 25.7878 11.3375 26.1826C11.3375 26.1945 11.3445 26.2057 11.3473 26.2176C11.4481 26.5963 11.5573 26.9673 11.6777 27.3333C11.7148 27.4481 11.7547 27.5608 11.7938 27.6749C11.8844 27.94 11.9789 28.2009 12.0773 28.4575C12.1242 28.5786 12.1711 28.699 12.2173 28.818C12.3265 29.0854 12.4406 29.3465 12.5596 29.6034C12.5995 29.6909 12.6373 29.7805 12.6793 29.8666C12.8319 30.1851 12.9901 30.4966 13.1574 30.7968L4.92705 30.8003ZM21 40.6001C20.6248 40.6001 19.7498 39.1301 19.6182 36.4002H22.3817C22.2501 39.1301 21.3752 40.6001 21 40.6001ZM23.7999 35.0002H18.2001V32.2003H23.7999V35.0002ZM27.0121 31.1125C26.4992 31.8913 25.8903 32.6024 25.1999 33.2293V31.5003C25.1999 31.1138 24.8864 30.8003 24.4999 30.8003H17.5001C17.1135 30.8003 16.8001 31.1138 16.8001 31.5003V33.2293C16.1095 32.6018 15.5007 31.89 14.9879 31.1104C14.7895 30.8146 14.5996 30.5054 14.4181 30.183C13.0642 27.6532 12.2465 24.8714 12.0157 22.0114C11.9394 21.2106 11.9002 20.4001 11.9002 19.6007C11.9002 14.4446 13.4325 9.64697 15.9993 6.76725C16.0526 6.70775 16.0952 6.63959 16.1253 6.56566L16.3899 6.30106H25.61L25.8746 6.56566C25.9047 6.63959 25.9473 6.70775 26.0006 6.76725C28.5675 9.64697 30.0997 14.4446 30.0997 19.6007C30.0997 20.4001 30.0605 21.2106 29.9842 22.0128C29.7447 25.2419 28.7247 28.3646 27.0121 31.1125ZM28.8398 30.8003C29.007 30.5001 29.1652 30.1886 29.3185 29.8701C29.3591 29.7847 29.3969 29.6951 29.4368 29.6083C29.5558 29.3507 29.6706 29.0889 29.7798 28.8208C29.8281 28.7025 29.875 28.5821 29.9198 28.4617C30.0188 28.206 30.1121 27.9458 30.1998 27.6812C30.239 27.5657 30.2796 27.4516 30.3174 27.3347C30.4322 26.9792 30.5393 26.6175 30.6387 26.2498C30.645 26.2267 30.652 26.205 30.6583 26.1798C30.7612 25.7892 30.8529 25.3909 30.9383 24.9898C30.9642 24.8666 30.9859 24.742 31.0083 24.6174C31.0643 24.3304 31.1157 24.0411 31.1623 23.7495C31.1847 23.606 31.2064 23.4632 31.2267 23.319C31.2414 23.2168 31.2596 23.1167 31.2729 23.0145C34.5393 24.2826 36.7926 27.3075 37.0722 30.8003H28.8398Z" fill="white"/>
</g>
<defs>
<clipPath id="clip0">
<rect width="42" height="42" fill="white"/>
</clipPath>
</defs>
</svg>
