<svg width="24" height="24" viewBox="0 0 24 24" fill="none" xmlns="http://www.w3.org/2000/svg">
<path d="M4.892 15.9536C7.25918 18.7833 10.1087 21.0112 13.3611 22.5877C14.5994 23.1745 16.2554 23.8707 18.1005 23.9901C18.2148 23.995 18.3242 24 18.4386 24C19.6769 24 20.6715 23.5723 21.4821 22.6921C21.4871 22.6871 21.4971 22.6772 21.502 22.6672C21.7905 22.3191 22.1187 22.0058 22.4618 21.6726C22.6956 21.4488 22.9343 21.2151 23.163 20.9764C24.2223 19.8724 24.2223 18.47 23.1531 17.4007L20.1643 14.4119C19.657 13.8848 19.0503 13.6063 18.4138 13.6063C17.7772 13.6063 17.1655 13.8848 16.6433 14.407L14.863 16.1873C14.6989 16.0928 14.5298 16.0083 14.3707 15.9287C14.1717 15.8293 13.9877 15.7348 13.8236 15.6303C12.2024 14.6009 10.7304 13.2582 9.323 11.5325C8.61185 10.6324 8.13444 9.8765 7.80124 9.10568C8.26871 8.68297 8.70634 8.24037 9.12905 7.80771C9.27824 7.65354 9.43241 7.49938 9.58657 7.34521C10.1237 6.80812 10.4121 6.18649 10.4121 5.55491C10.4121 4.92333 10.1286 4.3017 9.58657 3.76461L8.1046 2.28264C7.93054 2.10858 7.76643 1.93949 7.59735 1.76544C7.26912 1.42727 6.92598 1.07915 6.58781 0.765852C6.07559 0.263572 5.47385 0 4.8373 0C4.20572 0 3.599 0.263572 3.06689 0.770825L1.20696 2.63075C0.530624 3.30709 0.147698 4.12764 0.0681294 5.0775C-0.0263588 6.26606 0.192456 7.52922 0.759385 9.05595C1.62967 11.4182 2.94256 13.6113 4.892 15.9536ZM1.28156 5.18193C1.34123 4.52051 1.59486 3.9685 2.07227 3.49109L3.92225 1.64111C4.21069 1.36262 4.52897 1.2184 4.8373 1.2184C5.14065 1.2184 5.44898 1.36262 5.73245 1.65106C6.06564 1.95939 6.37895 2.28264 6.71711 2.62578C6.8862 2.79983 7.06026 2.97389 7.23431 3.15292L8.71629 4.63489C9.02462 4.94322 9.18375 5.25653 9.18375 5.56486C9.18375 5.87319 9.02462 6.18649 8.71629 6.49482C8.56212 6.64898 8.40796 6.80812 8.25379 6.96229C7.7913 7.42976 7.35864 7.87236 6.88123 8.29507C6.87128 8.30501 6.86631 8.30999 6.85636 8.31993C6.4436 8.7327 6.50825 9.12557 6.60771 9.42395C6.61268 9.43887 6.61765 9.44882 6.62263 9.46374C7.00555 10.3838 7.53767 11.259 8.36817 12.3034C9.86009 14.1434 11.4316 15.5707 13.1622 16.6697C13.376 16.809 13.6048 16.9184 13.8186 17.0278C14.0176 17.1272 14.2016 17.2217 14.3657 17.3261C14.3856 17.3361 14.4005 17.346 14.4204 17.356C14.5845 17.4405 14.7436 17.4803 14.9028 17.4803C15.3006 17.4803 15.5592 17.2267 15.6438 17.1421L17.5037 15.2822C17.7921 14.9938 18.1054 14.8396 18.4138 14.8396C18.7917 14.8396 19.1 15.0734 19.294 15.2822L22.2927 18.276C22.8895 18.8728 22.8845 19.5193 22.2778 20.1509C22.069 20.3746 21.8501 20.5885 21.6164 20.8123C21.2683 21.1504 20.9053 21.4986 20.577 21.8914C20.0051 22.5081 19.3238 22.7965 18.4436 22.7965C18.3591 22.7965 18.2695 22.7915 18.185 22.7866C16.5538 22.6821 15.037 22.0456 13.8982 21.5035C10.805 20.0066 8.08968 17.8831 5.83688 15.1877C3.98193 12.9548 2.73369 10.8761 1.90816 8.64816C1.39594 7.28056 1.20199 6.18152 1.28156 5.18193Z" fill="white"/>
</svg>
