<svg width="64" height="64" viewBox="0 0 64 64" fill="none" xmlns="http://www.w3.org/2000/svg">
<path d="M62.9333 6.39996H59.7333C56.4133 6.39996 53.1066 5.86663 49.9466 4.8133C46.8 3.75996 43.8266 2.19996 41.1733 0.213296C40.8 -0.0667041 40.2667 -0.0667041 39.8933 0.213296C34.5333 4.2133 28.0266 6.38663 21.3333 6.39996H18.1333C17.5467 6.39996 17.0667 6.87996 17.0667 7.46663V15.7866C17.0667 17.7066 17.2267 19.6133 17.5333 21.5066L19.64 21.16C19.3467 19.3866 19.2 17.5866 19.2 15.7866V8.5333H21.3333C28.2133 8.51996 34.92 6.3733 40.5333 2.38663C43.2133 4.2933 46.16 5.78663 49.2666 6.83996C52.64 7.95996 56.1733 8.5333 59.7333 8.5333H61.8666V15.7866C61.8266 28.5333 54.5066 40.12 43.0133 45.64L40.0666 47.04L40.9866 48.96L43.9333 47.56C56.16 41.6933 63.96 29.3466 64 15.7866V7.46663C64 6.87996 63.52 6.39996 62.9333 6.39996Z" fill="#DC2C2C"/>
<path d="M42.1066 43.7199C52.8532 38.5599 59.6932 27.7066 59.7332 15.7866V11.7066C59.7332 11.1332 59.2799 10.6532 58.6933 10.6399C52.4533 10.4532 46.3866 8.61325 41.0933 5.31991C40.7466 5.10658 40.3066 5.10658 39.9732 5.31991C34.6799 8.61325 28.6133 10.4532 22.3733 10.6399C21.7999 10.6532 21.3333 11.1332 21.3333 11.7066V15.7866C21.3333 17.7199 21.5199 19.6399 21.8799 21.5332L23.9733 21.1332C23.6266 19.3732 23.4666 17.5866 23.4666 15.7866V12.7332C29.4933 12.3866 35.3466 10.5732 40.5333 7.47991C45.7199 10.5866 51.5732 12.3866 57.5999 12.7332V15.7866C57.5599 26.8799 51.1866 36.9866 41.1866 41.7866L40.0799 42.3066L40.9866 44.2399L42.1066 43.7199Z" fill="#DC2C2C"/>
<path d="M0 60.6667C0 62.5067 1.49333 64.0001 3.33333 64.0001H39.3333C41.1733 64.0001 42.6667 62.5067 42.6667 60.6667C42.6667 59.7867 42.32 58.9334 41.6933 58.3067L38.4 55.0267V45.0001C38.4 38.1067 33.8 32.0534 27.16 30.2001L29.76 25.0134C30.0267 24.4801 29.8133 23.8401 29.28 23.5867C29.1333 23.5067 28.96 23.4667 28.8 23.4801H13.8667C13.28 23.4801 12.8 23.9601 12.8 24.5467C12.8 24.7067 12.84 24.8801 12.9067 25.0267L15.5067 30.2134C8.86667 32.0401 4.26667 38.0934 4.26667 44.9867V55.0134L0.973333 58.3201C0.346667 58.9334 0 59.7867 0 60.6667ZM27.08 25.6001L24.9467 29.8667H17.7333L15.6 25.6001H27.08ZM2.48 59.8267L6.08 56.2267C6.28 56.0267 6.38667 55.7601 6.38667 55.4667V44.9867C6.38667 38.6267 10.9067 33.1734 17.1467 32.0001H25.48C31.72 33.1734 36.2533 38.6401 36.24 44.9867V55.4667C36.24 55.7467 36.3467 56.0267 36.5467 56.2267L40.1467 59.8267C40.6133 60.2934 40.6133 61.0534 40.1467 61.5201C39.92 61.7467 39.6133 61.8667 39.3067 61.8667H3.33333C2.66667 61.8667 2.13333 61.3334 2.13333 60.6667C2.13333 60.3601 2.25333 60.0534 2.48 59.8267Z" fill="white"/>
<path d="M19.7333 48H22.9333C23.8133 48 24.5333 48.72 24.5333 49.6C24.5333 50.48 23.8133 51.2 22.9333 51.2H17.0667V53.3334H20.2667V55.4667H22.4V53.3334H22.9333C25 53.3334 26.6667 51.6667 26.6667 49.6C26.6667 47.5334 25 45.8667 22.9333 45.8667H19.7333C18.8533 45.8667 18.1333 45.1467 18.1333 44.2667C18.1333 43.3867 18.8533 42.6667 19.7333 42.6667H25.6V40.5334H22.4V38.4H20.2667V40.5334H19.7333C17.6667 40.5334 16 42.2 16 44.2667C16 46.3334 17.6667 48 19.7333 48Z" fill="white"/>
<path d="M41.5999 10.6666H39.4666V12.8H41.5999V10.6666Z" fill="#DC2C2C"/>
<path d="M55.4666 14.9333H53.3333V17.0667H55.4666V14.9333Z" fill="#DC2C2C"/>
<path d="M27.7334 14.9333H25.6001V17.0667H27.7334V14.9333Z" fill="#DC2C2C"/>
<path d="M51.2 27.7334H49.0667V29.8667H51.2V27.7334Z" fill="#DC2C2C"/>
<path d="M41.5999 37.3334H39.4666V39.4667H41.5999V37.3334Z" fill="#DC2C2C"/>
<path d="M32 27.7334H29.8667V29.8667H32V27.7334Z" fill="#DC2C2C"/>
</svg>
