<svg width="42" height="42" fill="none" xmlns="http://www.w3.org/2000/svg"><g clip-path="url(#a)"><path d="M.283 6.618a1.21 1.21 0 00-.006.112v32.292a1.2 1.2 0 001.201 1.201h4.567V6.618H.283z" fill="#DC2C2C"/><path d="M39.966 1.222H18.314l9.984 3.328.003.005a1.2 1.2 0 01.76 1.116v28.784h10.905a1.2 1.2 0 001.2-1.201V2.422a1.2 1.2 0 00-1.2-1.2z" fill="url(#b)"/><path d="M7.944 6.667V40.27h17.012a1.2 1.2 0 001.2-1.2V6.667H7.945z" fill="#DC2C2C"/><path d="M14.966 2.612v1.604h5.025l-5.025-1.604z" fill="url(#c)"/></g><defs><linearGradient id="b" x1="29.741" y1="1.222" x2="29.741" y2="34.455" gradientUnits="userSpaceOnUse"><stop stop-color="#FFA4A4"/><stop offset="1" stop-color="#F1F1F1"/></linearGradient><linearGradient id="c" x1="17.478" y1="2.612" x2="17.478" y2="4.216" gradientUnits="userSpaceOnUse"><stop stop-color="#FFA4A4"/><stop offset="1" stop-color="#F1F1F1"/></linearGradient><clipPath id="a"><path fill="#fff" transform="translate(.277 .278)" d="M0 0h40.889v40.889H0z"/></clipPath></defs></svg>