<svg width="42" height="42" viewBox="0 0 42 42" fill="none" xmlns="http://www.w3.org/2000/svg">
<path d="M38.7188 1.3125H3.28125C2.75958 1.31406 2.25973 1.52198 1.89085 1.89085C1.52198 2.25973 1.31406 2.75958 1.3125 3.28125V27.5625C1.31406 28.0842 1.52198 28.584 1.89085 28.9529C2.25973 29.3218 2.75958 29.5297 3.28125 29.5312H10.1128C10.1379 29.6167 10.1285 29.7086 10.0866 29.7872L8.43281 32.5369C8.20679 32.9143 8.11371 33.3566 8.16843 33.7932C8.22314 34.2297 8.4225 34.6353 8.73469 34.9453L10.9922 37.2028C11.3022 37.515 11.7078 37.7144 12.1444 37.7691C12.5809 37.8238 13.0232 37.7307 13.4006 37.5047L16.1503 35.8509C16.2029 35.8237 16.261 35.8089 16.3202 35.8077C16.3794 35.8066 16.438 35.8191 16.4916 35.8444C16.5449 35.8649 16.5928 35.8975 16.6315 35.9397C16.6703 35.9818 16.6987 36.0323 16.7147 36.0872L17.4891 39.1978C17.5958 39.6234 17.8417 40.0012 18.1877 40.2711C18.5337 40.541 18.9599 40.6875 19.3988 40.6875H22.6012C23.0401 40.6875 23.4663 40.541 23.8123 40.2711C24.1583 40.0012 24.4042 39.6234 24.5109 39.1978L25.2853 36.0872C25.3027 36.0302 25.333 35.9779 25.374 35.9347C25.415 35.8914 25.4655 35.8582 25.5216 35.8378C25.5737 35.8153 25.6303 35.8048 25.6871 35.807C25.7439 35.8093 25.7995 35.8243 25.8497 35.8509L28.5994 37.5047C28.9773 37.7292 29.4192 37.8215 29.8554 37.7668C30.2915 37.7121 30.697 37.5137 31.0078 37.2028L33.2653 34.9453C33.5775 34.6353 33.7769 34.2297 33.8316 33.7932C33.8863 33.3566 33.7932 32.9143 33.5672 32.5369L31.9134 29.7872C31.8747 29.7077 31.8654 29.617 31.8872 29.5312H38.7188C39.2404 29.5297 39.7403 29.3218 40.1091 28.9529C40.478 28.584 40.6859 28.0842 40.6875 27.5625V3.28125C40.6859 2.75958 40.478 2.25973 40.1091 1.89085C39.7403 1.52198 39.2404 1.31406 38.7188 1.3125ZM35.4375 26.5387C35.4374 26.6853 35.3882 26.8276 35.2978 26.943C35.2074 27.0583 35.081 27.1401 34.9388 27.1753L31.8281 27.9497C31.5723 28.0178 31.3359 28.1446 31.1377 28.32C30.9395 28.4954 30.7849 28.7147 30.6862 28.9603C30.5858 29.2017 30.543 29.4633 30.5612 29.7241C30.5795 29.985 30.6582 30.238 30.7912 30.4631L32.4384 33.2128C32.5152 33.3377 32.5473 33.4849 32.5294 33.6304C32.5115 33.7758 32.4447 33.9109 32.34 34.0134L30.0759 36.2775C29.9734 36.3822 29.8383 36.449 29.6929 36.4669C29.5474 36.4848 29.4002 36.4527 29.2753 36.3759L26.5256 34.7287C26.2981 34.5974 26.0435 34.52 25.7813 34.5027C25.5192 34.4853 25.2566 34.5284 25.0137 34.6286C24.7708 34.7287 24.5542 34.8834 24.3806 35.0805C24.207 35.2777 24.0809 35.5121 24.0122 35.7656L23.2378 38.8763C23.2026 39.0185 23.1208 39.1449 23.0055 39.2353C22.8901 39.3257 22.7478 39.3749 22.6012 39.375H19.3988C19.2522 39.3749 19.1099 39.3257 18.9945 39.2353C18.8792 39.1449 18.7974 39.0185 18.7622 38.8763L17.9878 35.7656C17.9197 35.5098 17.7929 35.2734 17.6175 35.0752C17.4421 34.877 17.2228 34.7224 16.9772 34.6237C16.7689 34.5381 16.5461 34.4936 16.3209 34.4925C16.0224 34.4916 15.7293 34.5733 15.4744 34.7287L12.7247 36.3759C12.5998 36.4527 12.4526 36.4848 12.3071 36.4669C12.1617 36.449 12.0266 36.3822 11.9241 36.2775L9.66 34.0134C9.55525 33.9109 9.48846 33.7758 9.47057 33.6304C9.45269 33.4849 9.48477 33.3377 9.56156 33.2128L11.2087 30.4631C11.3401 30.2356 11.4175 29.981 11.4348 29.7188C11.4522 29.4567 11.4091 29.1941 11.3089 28.9512C11.2088 28.7083 11.0541 28.4917 10.857 28.3181C10.6598 28.1445 10.4254 28.0184 10.1719 27.9497L7.06125 27.1753C6.91897 27.1401 6.79256 27.0583 6.70217 26.943C6.61178 26.8276 6.56261 26.6853 6.5625 26.5387V23.3363C6.56261 23.1897 6.61178 23.0474 6.70217 22.932C6.79256 22.8167 6.91897 22.7349 7.06125 22.6997L10.1719 21.9253C10.4277 21.8572 10.6641 21.7304 10.8623 21.555C11.0605 21.3796 11.2151 21.1603 11.3138 20.9147C11.4142 20.6733 11.457 20.4117 11.4388 20.1509C11.4205 19.89 11.3418 19.637 11.2087 19.4119L9.56156 16.6622C9.48477 16.5373 9.45269 16.3901 9.47057 16.2446C9.48846 16.0992 9.55525 15.9641 9.66 15.8616L11.9241 13.5975C12.0266 13.4928 12.1617 13.426 12.3071 13.4081C12.4526 13.3902 12.5998 13.4223 12.7247 13.4991L15.4744 15.1462C15.7019 15.2776 15.9565 15.355 16.2187 15.3723C16.4808 15.3897 16.7434 15.3466 16.9863 15.2464C17.2292 15.1463 17.4458 14.9916 17.6194 14.7945C17.793 14.5973 17.9191 14.3629 17.9878 14.1094L18.7622 10.9987C18.7974 10.8565 18.8792 10.7301 18.9945 10.6397C19.1099 10.5493 19.2522 10.5001 19.3988 10.5H22.6012C22.7478 10.5001 22.8901 10.5493 23.0055 10.6397C23.1208 10.7301 23.2026 10.8565 23.2378 10.9987L24.0122 14.1094C24.0803 14.3652 24.2071 14.6016 24.3825 14.7998C24.5579 14.998 24.7772 15.1526 25.0228 15.2513C25.2642 15.3517 25.5258 15.3945 25.7866 15.3763C26.0475 15.358 26.3005 15.2793 26.5256 15.1462L29.2753 13.4991C29.4007 13.424 29.5475 13.3929 29.6925 13.4107C29.8376 13.4286 29.9725 13.4943 30.0759 13.5975L32.34 15.8616C32.4447 15.9641 32.5115 16.0992 32.5294 16.2446C32.5473 16.3901 32.5152 16.5373 32.4384 16.6622L30.7912 19.4119C30.6599 19.6394 30.5825 19.894 30.5652 20.1562C30.5478 20.4183 30.5909 20.6809 30.6911 20.9238C30.7912 21.1667 30.9459 21.3833 31.143 21.5569C31.3402 21.7305 31.5746 21.8566 31.8281 21.9253L34.9388 22.6997C35.081 22.7349 35.2074 22.8167 35.2978 22.932C35.3882 23.0474 35.4374 23.1897 35.4375 23.3363V26.5387ZM39.375 27.5625C39.375 27.7365 39.3059 27.9035 39.1828 28.0265C39.0597 28.1496 38.8928 28.2188 38.7188 28.2188H35.7984C36.0884 28.0445 36.3284 27.7983 36.4952 27.5039C36.6619 27.2095 36.7497 26.8771 36.75 26.5387V23.3363C36.75 22.8974 36.6035 22.4712 36.3336 22.1252C36.0637 21.7792 35.6859 21.5333 35.2603 21.4266L32.1497 20.6522C32.0575 20.6272 31.9779 20.5687 31.9266 20.4881C31.92 20.4684 31.9069 20.4356 31.9003 20.4159C31.8778 20.3638 31.8673 20.3072 31.8695 20.2504C31.8718 20.1936 31.8868 20.138 31.9134 20.0878L33.5672 17.3381C33.7932 16.9607 33.8863 16.5184 33.8316 16.0819C33.7769 15.6453 33.5775 15.2397 33.2653 14.9297L31.0078 12.6722C30.6978 12.36 30.2922 12.1606 29.8556 12.1059C29.4191 12.0512 28.9768 12.1443 28.5994 12.3703L25.8497 14.0241C25.7971 14.0513 25.739 14.0661 25.6798 14.0673C25.6206 14.0684 25.562 14.0559 25.5084 14.0306C25.4551 14.0101 25.4072 13.9775 25.3685 13.9353C25.3298 13.8932 25.3013 13.8427 25.2853 13.7878L24.5109 10.6772C24.4042 10.2516 24.1583 9.87383 23.8123 9.60394C23.4663 9.33405 23.0401 9.18747 22.6012 9.1875H19.3988C18.9599 9.18747 18.5337 9.33405 18.1877 9.60394C17.8417 9.87383 17.5958 10.2516 17.4891 10.6772L16.7147 13.7878C16.6973 13.8448 16.667 13.8971 16.626 13.9403C16.585 13.9836 16.5345 14.0168 16.4784 14.0372C16.4263 14.0597 16.3697 14.0702 16.3129 14.068C16.2561 14.0657 16.2005 14.0507 16.1503 14.0241L13.4006 12.3703C13.0227 12.1458 12.5808 12.0535 12.1446 12.1082C11.7085 12.1629 11.303 12.3613 10.9922 12.6722L8.73469 14.9297C8.4225 15.2397 8.22314 15.6453 8.16843 16.0819C8.11371 16.5184 8.20679 16.9607 8.43281 17.3381L10.0866 20.0878C10.1138 20.1404 10.1286 20.1985 10.1298 20.2577C10.1309 20.3169 10.1184 20.3755 10.0931 20.4291C10.0726 20.4824 10.04 20.5303 9.99784 20.569C9.95572 20.6077 9.90523 20.6362 9.85031 20.6522L6.73969 21.4266C6.31407 21.5333 5.93633 21.7792 5.66644 22.1252C5.39655 22.4712 5.24997 22.8974 5.25 23.3363V26.5387C5.25033 26.8771 5.33812 27.2095 5.50485 27.5039C5.67158 27.7983 5.91158 28.0445 6.20156 28.2188H3.28125C3.1072 28.2188 2.94028 28.1496 2.81721 28.0265C2.69414 27.9035 2.625 27.7365 2.625 27.5625V7.875H39.375V27.5625ZM39.375 6.5625H2.625V3.28125C2.625 3.1072 2.69414 2.94028 2.81721 2.81721C2.94028 2.69414 3.1072 2.625 3.28125 2.625H38.7188C38.8928 2.625 39.0597 2.69414 39.1828 2.81721C39.3059 2.94028 39.375 3.1072 39.375 3.28125V6.5625Z" fill="white"/>
<path d="M3.9375 3.9375H5.25V5.25H3.9375V3.9375Z" fill="white"/>
<path d="M6.5625 3.9375H7.875V5.25H6.5625V3.9375Z" fill="white"/>
<path d="M9.1875 3.9375H10.5V5.25H9.1875V3.9375Z" fill="white"/>
<path d="M21 17.0625C19.4425 17.0625 17.9199 17.5244 16.6249 18.3897C15.3298 19.255 14.3205 20.4849 13.7245 21.9239C13.1284 23.3628 12.9725 24.9462 13.2763 26.4738C13.5802 28.0014 14.3302 29.4046 15.4315 30.506C16.5329 31.6073 17.9361 32.3573 19.4637 32.6612C20.9913 32.965 22.5747 32.8091 24.0136 32.213C25.4526 31.617 26.6825 30.6076 27.5478 29.3126C28.4131 28.0176 28.875 26.495 28.875 24.9375C28.8727 22.8496 28.0423 20.8479 26.566 19.3715C25.0896 17.8952 23.0879 17.0648 21 17.0625ZM21 31.5C19.7021 31.5 18.4333 31.1151 17.3541 30.394C16.2749 29.6729 15.4337 28.648 14.937 27.4489C14.4403 26.2497 14.3104 24.9302 14.5636 23.6572C14.8168 22.3842 15.4418 21.2149 16.3596 20.2971C17.2774 19.3793 18.4467 18.7543 19.7197 18.5011C20.9927 18.2479 22.3122 18.3778 23.5114 18.8745C24.7105 19.3712 25.7354 20.2124 26.4565 21.2916C27.1776 22.3708 27.5625 23.6396 27.5625 24.9375C27.5606 26.6774 26.8686 28.3455 25.6383 29.5758C24.408 30.8061 22.7399 31.4981 21 31.5Z" fill="white"/>
<path d="M20.3438 24.2812H21.6562V25.5938H20.3438V24.2812Z" fill="white"/>
<path d="M22.9688 24.2812H24.2812V25.5938H22.9688V24.2812Z" fill="white"/>
<path d="M17.7188 24.2812H19.0312V25.5938H17.7188V24.2812Z" fill="white"/>
</svg>
