<svg width="54" height="54" fill="none" xmlns="http://www.w3.org/2000/svg"><path d="M47.6 41.344l4.465-4.466a.844.844 0 00-.596-1.44h-8.457a37.315 37.315 0 005.082-18.563v-5.063a.844.844 0 00-.528-.782 13.345 13.345 0 01-7.535-8.716.843.843 0 00-.815-.627H14.784a.844.844 0 00-.815.627 13.345 13.345 0 01-7.535 8.716.845.845 0 00-.528.783v5.062a37.315 37.315 0 005.082 18.563H2.531a.843.843 0 00-.596 1.44L6.4 41.344 1.935 45.81a.844.844 0 00.596 1.44h17.883a46.355 46.355 0 006.139 4.934.843.843 0 00.894 0 46.362 46.362 0 006.14-4.934h17.882a.843.843 0 00.596-1.44L47.6 41.344zm-39.41.596a.844.844 0 000-1.193l-3.622-3.622h7.425a50.726 50.726 0 006.694 8.438H4.568L8.19 41.94zM27 50.456C24.053 48.44 7.594 36.298 7.594 16.875v-4.509a15.173 15.173 0 007.822-8.991h23.168a15.174 15.174 0 007.822 8.991v4.509c0 19.4-16.46 31.556-19.406 33.581zm8.31-4.894a50.726 50.726 0 006.694-8.437h7.425l-3.623 3.622a.844.844 0 000 1.193l3.626 3.623H35.31z" fill="#601313"/><path d="M38.813 35.438V21.093a2.531 2.531 0 00-2.532-2.532h-1.687V10.97a4.224 4.224 0 00-4.219-4.219h-6.75a4.224 4.224 0 00-4.219 4.219v7.594H17.72a2.531 2.531 0 00-2.532 2.53v14.345a2.531 2.531 0 002.532 2.53h18.56a2.531 2.531 0 002.532-2.53zm-17.72-24.47a2.531 2.531 0 012.532-2.53h6.75a2.531 2.531 0 012.531 2.53v7.595H31.22v-5.907a2.531 2.531 0 00-2.532-2.531h-3.375a2.531 2.531 0 00-2.53 2.531v5.906h-1.688V10.97zm8.438 7.595H24.47v-5.907a.844.844 0 01.843-.844h3.375a.844.844 0 01.844.844v5.906zM16.875 35.438V21.093a.844.844 0 01.844-.844H36.28a.844.844 0 01.844.844v14.343a.844.844 0 01-.844.844H17.72a.844.844 0 01-.844-.843z" fill="#fff"/><path d="M27 22.781a3.368 3.368 0 00-.844 6.63v4.339h1.688v-4.339a3.368 3.368 0 00-.844-6.63zm0 5.063a1.687 1.687 0 110-3.375 1.687 1.687 0 010 3.375z" fill="#fff"/></svg>