<svg width="54" height="54" viewBox="0 0 54 54" fill="none" xmlns="http://www.w3.org/2000/svg">
<path d="M47.5994 41.3438L52.0653 36.8778C52.1833 36.7598 52.2636 36.6095 52.2962 36.4458C52.3287 36.2822 52.312 36.1125 52.2482 35.9584C52.1843 35.8042 52.0762 35.6725 51.9375 35.5798C51.7988 35.487 51.6357 35.4375 51.4688 35.4375H43.0119C46.2998 29.8008 48.0521 23.4004 48.0938 16.875V11.8125C48.0938 11.6444 48.0436 11.4802 47.9497 11.3408C47.8557 11.2015 47.7223 11.0934 47.5665 11.0303C45.739 10.2327 44.1135 9.03563 42.8094 7.52717C41.5054 6.01871 40.556 4.23719 40.0309 2.31356C39.983 2.13401 39.8771 1.97532 39.7297 1.86211C39.5824 1.74891 39.4017 1.68753 39.2159 1.6875H14.7843C14.5984 1.68753 14.4178 1.74891 14.2704 1.86211C14.123 1.97532 14.0171 2.13401 13.9692 2.31356C13.4442 4.23719 12.4947 6.01871 11.1907 7.52717C9.88666 9.03563 8.26115 10.2327 6.43366 11.0303C6.27786 11.0934 6.14442 11.2015 6.05047 11.3408C5.95652 11.4802 5.90632 11.6444 5.90631 11.8125V16.875C5.94806 23.4004 7.70031 29.8008 10.9882 35.4375H2.53131C2.36446 35.4375 2.20137 35.487 2.06265 35.5798C1.92393 35.6725 1.81581 35.8042 1.75196 35.9584C1.68811 36.1125 1.67141 36.2822 1.70395 36.4458C1.73649 36.6095 1.81682 36.7598 1.93478 36.8778L6.40075 41.3438L1.93478 45.8097C1.81682 45.9277 1.73649 46.078 1.70395 46.2417C1.67141 46.4053 1.68811 46.575 1.75196 46.7291C1.81581 46.8833 1.92393 47.015 2.06265 47.1077C2.20137 47.2005 2.36446 47.25 2.53131 47.25H20.4138C22.3165 49.0659 24.3702 50.7166 26.5529 52.1842C26.687 52.2681 26.8419 52.3125 27.0001 52.3125C27.1582 52.3125 27.3132 52.2681 27.4473 52.1842C29.6299 50.7166 31.6837 49.0659 33.5864 47.25H51.4688C51.6357 47.25 51.7988 47.2005 51.9375 47.1077C52.0762 47.015 52.1843 46.8833 52.2482 46.7291C52.312 46.575 52.3287 46.4053 52.2962 46.2417C52.2636 46.078 52.1833 45.9277 52.0653 45.8097L47.5994 41.3438ZM8.19035 41.9403C8.34852 41.7821 8.43738 41.5675 8.43738 41.3438C8.43738 41.12 8.34852 40.9054 8.19035 40.7472L4.56813 37.125H11.9931C13.9186 40.1671 16.1623 42.9955 18.6866 45.5625H4.56813L8.19035 41.9403ZM27.0001 50.4562C24.0528 48.4388 7.59381 36.2981 7.59381 16.875V12.366C9.43702 11.4729 11.0803 10.2159 12.4247 8.67064C13.7691 7.12543 14.7867 5.32403 15.4162 3.375H38.5839C39.2134 5.32403 40.2311 7.12543 41.5754 8.67064C42.9198 10.2159 44.5631 11.4729 46.4063 12.366V16.875C46.4063 36.2745 29.9464 48.4312 27.0001 50.4562ZM35.3102 45.5625C37.8344 42.9955 40.0782 40.1671 42.0036 37.125H49.4286L45.8064 40.7472C45.6482 40.9054 45.5594 41.12 45.5594 41.3438C45.5594 41.5675 45.6482 41.7821 45.8064 41.9403L49.432 45.5625H35.3102Z" fill="#601313"/>
<path d="M38.8125 35.4375V21.0938C38.8125 20.4224 38.5458 19.7786 38.0711 19.3039C37.5964 18.8292 36.9526 18.5625 36.2812 18.5625H34.5938V10.9688C34.5924 9.85028 34.1475 8.778 33.3566 7.98712C32.5657 7.19624 31.4935 6.75134 30.375 6.75H23.625C22.5065 6.75134 21.4343 7.19624 20.6434 7.98712C19.8525 8.778 19.4076 9.85028 19.4062 10.9688V18.5625H17.7188C17.0474 18.5625 16.4036 18.8292 15.9289 19.3039C15.4542 19.7786 15.1875 20.4224 15.1875 21.0938V35.4375C15.1875 36.1088 15.4542 36.7527 15.9289 37.2274C16.4036 37.7021 17.0474 37.9688 17.7188 37.9688H36.2812C36.9526 37.9688 37.5964 37.7021 38.0711 37.2274C38.5458 36.7527 38.8125 36.1088 38.8125 35.4375ZM21.0938 10.9688C21.0938 10.2974 21.3604 9.65359 21.8351 9.17889C22.3098 8.70418 22.9537 8.4375 23.625 8.4375H30.375C31.0463 8.4375 31.6902 8.70418 32.1649 9.17889C32.6396 9.65359 32.9062 10.2974 32.9062 10.9688V18.5625H31.2188V12.6562C31.2188 11.9849 30.9521 11.3411 30.4774 10.8664C30.0027 10.3917 29.3588 10.125 28.6875 10.125H25.3125C24.6412 10.125 23.9973 10.3917 23.5226 10.8664C23.0479 11.3411 22.7812 11.9849 22.7812 12.6562V18.5625H21.0938V10.9688ZM29.5312 18.5625H24.4688V12.6562C24.4688 12.4325 24.5576 12.2179 24.7159 12.0596C24.8741 11.9014 25.0887 11.8125 25.3125 11.8125H28.6875C28.9113 11.8125 29.1259 11.9014 29.2841 12.0596C29.4424 12.2179 29.5312 12.4325 29.5312 12.6562V18.5625ZM16.875 35.4375V21.0938C16.875 20.87 16.9639 20.6554 17.1221 20.4971C17.2804 20.3389 17.495 20.25 17.7188 20.25H36.2812C36.505 20.25 36.7196 20.3389 36.8779 20.4971C37.0361 20.6554 37.125 20.87 37.125 21.0938V35.4375C37.125 35.6613 37.0361 35.8759 36.8779 36.0341C36.7196 36.1924 36.505 36.2812 36.2812 36.2812H17.7188C17.495 36.2812 17.2804 36.1924 17.1221 36.0341C16.9639 35.8759 16.875 35.6613 16.875 35.4375Z" fill="white"/>
<path d="M26.9999 22.7813C26.1795 22.7802 25.3869 23.0787 24.771 23.6205C24.155 24.1624 23.758 24.9105 23.6544 25.7243C23.5508 26.5381 23.7478 27.3618 24.2085 28.0406C24.6691 28.7195 25.3616 29.2069 26.1561 29.4114V33.75H27.8437V29.4114C28.6382 29.2069 29.3307 28.7195 29.7913 28.0406C30.252 27.3618 30.449 26.5381 30.3454 25.7243C30.2418 24.9105 29.8448 24.1624 29.2288 23.6205C28.6129 23.0787 27.8203 22.7802 26.9999 22.7813ZM26.9999 27.8437C26.6661 27.8437 26.3399 27.7448 26.0624 27.5594C25.7849 27.3739 25.5686 27.1104 25.4409 26.802C25.3131 26.4937 25.2797 26.1544 25.3448 25.827C25.4099 25.4997 25.5707 25.199 25.8067 24.963C26.0427 24.727 26.3433 24.5663 26.6707 24.5012C26.998 24.4361 27.3373 24.4695 27.6457 24.5972C27.954 24.7249 28.2176 24.9412 28.403 25.2187C28.5884 25.4962 28.6874 25.8225 28.6874 26.1562C28.6874 26.6038 28.5096 27.033 28.1931 27.3495C27.8767 27.666 27.4475 27.8437 26.9999 27.8437Z" fill="white"/>
</svg>
