<svg width="42" height="42" viewBox="0 0 42 42" fill="none" xmlns="http://www.w3.org/2000/svg">
<path d="M33.6 0H8.4C5.69511 0.0030625 3.50306 2.19511 3.5 4.9V7C3.5 7.77324 4.12676 8.4 4.9 8.4H11.9V33.6H4.9C4.12676 33.6 3.5 34.2268 3.5 35V37.1C3.50306 39.8049 5.69511 41.9969 8.4 42H33.6C36.3049 41.9969 38.4969 39.8049 38.5 37.1V4.9C38.4969 2.19511 36.3049 0.0030625 33.6 0ZM4.9 7V4.9C4.9 2.96704 6.46704 1.4 8.4 1.4C10.333 1.4 11.9 2.96704 11.9 4.9V7H4.9ZM8.4 40.6C6.46704 40.6 4.9 39.033 4.9 37.1V35H11.9V37.1C11.9 39.033 10.333 40.6 8.4 40.6ZM37.1 37.1C37.0977 39.032 35.532 40.5977 33.6 40.6H11.823C12.7675 39.6805 13.3002 38.4182 13.3 37.1V4.9C13.3002 3.58181 12.7675 2.31954 11.823 1.4H33.6C35.532 1.40227 37.0977 2.968 37.1 4.9V37.1Z" fill="white"/>
<path d="M17.5 18.2C15.9536 18.2 14.7 19.4536 14.7 21C14.7 22.5463 15.9536 23.8 17.5 23.8C19.0463 23.8 20.3 22.5463 20.3 21C20.3 19.4536 19.0463 18.2 17.5 18.2ZM17.5 22.4C16.7267 22.4 16.1 21.7732 16.1 21C16.1 20.2267 16.7267 19.6 17.5 19.6C18.2732 19.6 18.9 20.2267 18.9 21C18.9 21.7732 18.2732 22.4 17.5 22.4Z" fill="white"/>
<path d="M35.7001 20.3H23.1001V21.7H35.7001V20.3Z" fill="white"/>
<path d="M17.5 8.40002C15.9536 8.40002 14.7 9.65364 14.7 11.2C14.7 12.7464 15.9536 14 17.5 14C19.0463 14 20.3 12.7464 20.3 11.2C20.3 9.65364 19.0463 8.40002 17.5 8.40002ZM17.5 12.6C16.7267 12.6 16.1 11.9733 16.1 11.2C16.1 10.4268 16.7267 9.80002 17.5 9.80002C18.2732 9.80002 18.9 10.4268 18.9 11.2C18.9 11.9733 18.2732 12.6 17.5 12.6Z" fill="white"/>
<path d="M35.7001 10.5H23.1001V11.9H35.7001V10.5Z" fill="white"/>
<path d="M17.5 28C15.9536 28 14.7 29.2536 14.7 30.8C14.7 32.3464 15.9536 33.6 17.5 33.6C19.0463 33.6 20.3 32.3464 20.3 30.8C20.3 29.2536 19.0463 28 17.5 28ZM17.5 32.2C16.7267 32.2 16.1 31.5732 16.1 30.8C16.1 30.0268 16.7267 29.4 17.5 29.4C18.2732 29.4 18.9 30.0268 18.9 30.8C18.9 31.5732 18.2732 32.2 17.5 32.2Z" fill="white"/>
<path d="M35.7001 30.1H23.1001V31.5H35.7001V30.1Z" fill="white"/>
</svg>
