<svg width="80" height="80" fill="none" xmlns="http://www.w3.org/2000/svg"><g clip-path="url(#a)"><path d="M26.25 35.625a1.875 1.875 0 00-1.875 1.875v1.258a6.563 6.563 0 00.313 13.117h3.125a2.813 2.813 0 010 5.625h-4.688a1.251 1.251 0 01-1.25-1.25 1.875 1.875 0 10-3.75 0 5.006 5.006 0 005 5h1.25v1.25a1.875 1.875 0 103.75 0v-1.258a6.563 6.563 0 00-.313-13.117h-3.125a2.813 2.813 0 110-5.625h4.688a1.252 1.252 0 011.25 1.25 1.875 1.875 0 103.75 0 5.006 5.006 0 00-5-5h-1.25V37.5a1.875 1.875 0 00-1.875-1.875z" fill="url(#b)"/><path d="M35.363 65.662c.29-.024.585-.037.887-.037h10c.101 0 .2-.005.301-.007a25.573 25.573 0 002.39-27.515l-9.257-4.978h-6.819a18.122 18.122 0 012.498 32.537z" fill="url(#c)"/><path d="M30.631 67.589a18.125 18.125 0 01-10.746-34.56 11.686 11.686 0 01-6.497-2.96 11.5 11.5 0 01-1.3-1.414A25.62 25.62 0 00.625 50c0 14.13 11.495 25.625 25.625 25.625.242 0 .482-.004.722-.01.304-2.547 1.123-5.46 3.115-7.515.175-.18.357-.35.544-.511z" fill="url(#d)"/><path d="M20.157 15a3472.1 3472.1 0 014.366 3.125H43.82c.366 0 .73.054 1.08.16L18.469.545a.937.937 0 00-1.345.328C15.821 3.241 13.073 9.94 20.157 15z" fill="url(#e)"/><path d="M46.614 20.162c-.24-.107-.5-.162-.762-.162H12.218a.94.94 0 00-.938.996c.424 6.836 5.204 10.254 10.127 10.254h18.277c.31 0 .616.077.889.224l17.19 9.245a1.875 1.875 0 01.987 1.652V55a12.5 12.5 0 01-12.5 12.5h-10c-7.308 0-7.64 8.72-7.551 11.593a.936.936 0 00.937.906H61.25L80 73.75V35L46.614 20.162z" fill="url(#f)"/></g><defs><linearGradient id="b" x1="26.25" y1="35.625" x2="26.25" y2="64.375" gradientUnits="userSpaceOnUse"><stop stop-color="#393E46"/><stop offset="1" stop-color="#fff"/></linearGradient><linearGradient id="c" x1="42.37" y1="33.125" x2="42.37" y2="65.662" gradientUnits="userSpaceOnUse"><stop stop-color="#393E46"/><stop offset="1" stop-color="#fff"/></linearGradient><linearGradient id="d" x1="15.628" y1="28.655" x2="15.628" y2="75.625" gradientUnits="userSpaceOnUse"><stop stop-color="#393E46"/><stop offset="1" stop-color="#fff"/></linearGradient><linearGradient id="e" x1="30.198" y1=".386" x2="30.198" y2="18.285" gradientUnits="userSpaceOnUse"><stop stop-color="#FF4C4C"/><stop offset="1" stop-color="red" stop-opacity="0"/></linearGradient><linearGradient id="f" x1="45.639" y1="20" x2="45.639" y2="80" gradientUnits="userSpaceOnUse"><stop stop-color="#FF4C4C"/><stop offset="1" stop-color="red" stop-opacity="0"/></linearGradient><clipPath id="a"><path fill="#fff" d="M0 0h80v80H0z"/></clipPath></defs></svg>