<svg width="55" height="54" viewBox="0 0 55 54" fill="none" xmlns="http://www.w3.org/2000/svg">
<g clip-path="url(#clip0)">
<path d="M35.4136 39.839H33.9311L30.9883 37.6263V36.4425C34.2077 35.0375 36.2987 31.8513 36.2987 28.3331V22.7794C37.9581 21.6288 38.9538 19.7369 38.9538 17.7124V12.402C38.9538 11.9152 38.5556 11.5169 38.0688 11.5169H22.1376C18.7191 11.5169 15.9422 14.2938 15.9422 17.7124V20.3676C15.9422 21.9828 17.0374 23.3768 18.5974 23.7861V28.3331C18.5974 31.8513 20.6883 35.0264 23.9078 36.4425V37.6263L20.9649 39.839H19.4824C15.0903 39.85 11.5279 43.4124 11.5168 47.8046V51.3448C11.5168 52.8052 12.7117 54 14.172 54H40.724C42.1843 54 43.3792 52.8052 43.3792 51.3448V47.8046C43.3792 43.4124 39.8168 39.85 35.4136 39.839ZM18.5974 21.2526V21.8943C18.0553 21.5845 17.7123 20.9982 17.7123 20.3676V17.7124C17.7123 15.2674 19.6926 13.287 22.1376 13.287H37.1837V17.7124C37.1837 18.7966 36.7744 19.8476 36.0553 20.6552C35.9446 20.5335 35.8119 20.445 35.6459 20.4118L25.9102 17.7566C25.7221 17.7013 25.5119 17.7124 25.3349 17.7898L19.1395 20.445C18.8076 20.5778 18.5974 20.8986 18.5974 21.2526ZM20.3675 28.3331V21.839L25.7443 19.5378L34.5285 21.9275V28.3331C34.5285 32.2385 31.3534 35.4136 27.448 35.4136C23.5427 35.4136 20.3675 32.2495 20.3675 28.3331ZM25.3239 38.7769C25.5451 38.6109 25.6779 38.3454 25.6779 38.0688V37.0068C26.8506 37.2391 28.0454 37.2391 29.2181 37.0068V38.0688C29.2181 38.3454 29.3509 38.6109 29.5722 38.7769L32.3048 40.8236L27.4591 45.6693L22.6023 40.8236L25.3239 38.7769ZM41.609 51.3448C41.609 51.8316 41.2108 52.2299 40.724 52.2299H14.172C13.6853 52.2299 13.287 51.8316 13.287 51.3448V47.8046C13.287 44.386 16.0639 41.6091 19.4824 41.6091H20.8875L26.8174 47.5501C27.1604 47.8931 27.7246 47.8931 28.0786 47.5501L34.0085 41.6091H35.4136C38.8321 41.6091 41.609 44.386 41.609 47.8046V51.3448Z" fill="#601313"/>
<path d="M26.563 6.96988V10.6318H28.3331V6.96988C30.2249 6.4831 31.3645 4.54702 30.8777 2.65519C30.3909 0.763366 28.4548 -0.376155 26.563 0.110631C24.6711 0.597416 23.5316 2.53349 24.0184 4.42532C24.3392 5.67547 25.3128 6.64904 26.563 6.96988ZM27.448 1.78119C28.4216 1.78119 29.2182 2.57775 29.2182 3.55132C29.2182 4.52489 28.4216 5.32145 27.448 5.32145C26.4745 5.32145 25.6779 4.52489 25.6779 3.55132C25.6779 2.57775 26.4745 1.78119 27.448 1.78119Z" fill="white"/>
<path d="M3.55138 23.9078C1.59317 23.9078 0.011121 25.4788 5.76724e-05 27.437C-0.0110056 29.3952 1.57105 30.9884 3.52925 30.9884C5.1445 30.9994 6.5606 29.9042 6.96994 28.3332H10.6319V26.563H6.96994C6.5606 25.0031 5.16662 23.9189 3.55138 23.9078ZM3.55138 29.2182C2.57781 29.2182 1.78125 28.4217 1.78125 27.4481C1.78125 26.4745 2.57781 25.678 3.55138 25.678C4.52495 25.678 5.32151 26.4745 5.32151 27.4481C5.32151 28.4327 4.53601 29.2182 3.55138 29.2182Z" fill="white"/>
<path d="M51.3447 23.9078C49.7405 23.9189 48.3355 25.0031 47.9261 26.563H44.2642V28.3332H47.9261C48.4129 30.225 50.349 31.3534 52.2408 30.8666C54.1326 30.3799 55.2611 28.4438 54.7743 26.552C54.365 24.992 52.9599 23.9078 51.3447 23.9078ZM51.3447 29.2182C50.3711 29.2182 49.5745 28.4217 49.5745 27.4481C49.5745 26.4745 50.3711 25.678 51.3447 25.678C52.3182 25.678 53.1148 26.4745 53.1148 27.4481C53.1148 28.4327 52.3293 29.2182 51.3447 29.2182Z" fill="white"/>
<path d="M37.7258 8.87277L38.4118 7.24646L39.8832 7.866L39.1972 9.49231L37.7258 8.87277Z" fill="white"/>
<path d="M31.8513 6.37252L32.5372 4.74622L34.0087 5.36576L33.3227 6.99207L31.8513 6.37252Z" fill="white"/>
<path d="M34.783 7.58946L35.4689 5.95209L36.9514 6.57163L36.2654 8.20901L34.783 7.58946Z" fill="white"/>
<path d="M47.8708 33.3227L48.4904 31.8513L50.1167 32.5372L49.4972 34.0086L47.8708 33.3227Z" fill="white"/>
<path d="M46.665 36.2876L47.2846 34.8162L48.9109 35.5021L48.2913 36.9736L46.665 36.2876Z" fill="white"/>
<path d="M45.437 39.2084L46.0566 37.7259L47.6939 38.4118L47.0744 39.8943L45.437 39.2084Z" fill="white"/>
<path d="M4.73511 22.37L5.35465 20.8875L6.99202 21.5734L6.37248 23.0559L4.73511 22.37Z" fill="white"/>
<path d="M5.97412 19.4272L6.59367 17.9557L8.21997 18.6417L7.60043 20.1131L5.97412 19.4272Z" fill="white"/>
<path d="M7.21338 16.4622L7.83292 14.9908L9.45923 15.6767L8.83968 17.1481L7.21338 16.4622Z" fill="white"/>
<path d="M5.98535 35.4689L7.61166 34.783L8.2312 36.2544L6.6049 36.9514L5.98535 35.4689Z" fill="white"/>
<path d="M4.73511 32.5372L6.37248 31.8513L6.99202 33.3337L5.35465 34.0197L4.73511 32.5372Z" fill="white"/>
<path d="M7.20215 38.4229L8.82845 37.737L9.448 39.2084L7.82169 39.8943L7.20215 38.4229Z" fill="white"/>
<path d="M45.448 15.6989L47.0854 15.0129L47.7049 16.4954L46.0675 17.1813L45.448 15.6989Z" fill="white"/>
<path d="M46.6541 18.6196L48.2804 17.9337L48.8999 19.4051L47.2736 20.091L46.6541 18.6196Z" fill="white"/>
<path d="M47.8821 21.5956L49.5084 20.9097L50.1279 22.3811L48.5016 23.067L47.8821 21.5956Z" fill="white"/>
<path d="M20.8875 5.34354L22.3589 4.724L23.0448 6.3503L21.5734 6.98091L20.8875 5.34354Z" fill="white"/>
<path d="M14.9907 7.83286L16.4621 7.21332L17.1481 8.83962L15.6766 9.45917L14.9907 7.83286Z" fill="white"/>
<path d="M17.9336 6.59373L19.405 5.97418L20.0909 7.60049L18.6195 8.22003L17.9336 6.59373Z" fill="white"/>
<path d="M13.5525 14.8027L14.8027 13.5526L13.6742 12.4241C13.995 11.882 14.1721 11.2625 14.1721 10.6319C14.1721 8.67366 12.59 7.09161 10.6318 7.09161C8.6736 7.09161 7.09155 8.67366 7.09155 10.6319C7.09155 12.5901 8.6736 14.1721 10.6318 14.1721C11.2624 14.1721 11.882 13.9951 12.4241 13.6743L13.5525 14.8027ZM8.86168 10.6319C8.86168 9.6583 9.65824 8.86174 10.6318 8.86174C11.6054 8.86174 12.4019 9.6583 12.4019 10.6319C12.4019 11.6054 11.6054 12.402 10.6318 12.402C9.65824 12.402 8.86168 11.6165 8.86168 10.6319Z" fill="white"/>
<path d="M41.3546 14.8027L42.4831 13.6743C43.0252 13.9951 43.6448 14.1721 44.2754 14.1721C46.2336 14.1721 47.8156 12.5901 47.8156 10.6319C47.8156 8.67366 46.2336 7.09161 44.2754 7.09161C42.3172 7.09161 40.7351 8.67366 40.7351 10.6319C40.7351 11.2625 40.9121 11.882 41.233 12.4241L40.1045 13.5526L41.3546 14.8027ZM44.2643 8.86174C45.2379 8.86174 46.0344 9.6583 46.0344 10.6319C46.0344 11.6054 45.2379 12.402 44.2643 12.402C43.2907 12.402 42.4942 11.6054 42.4942 10.6319C42.4942 9.6583 43.2907 8.86174 44.2643 8.86174Z" fill="white"/>
<path d="M15.0571 48.6896H16.8273V50.4598H15.0571V48.6896Z" fill="#601313"/>
<path d="M18.5974 48.6896H36.2987V50.4598H18.5974V48.6896Z" fill="#601313"/>
<path d="M38.0688 48.6896H39.839V50.4598H38.0688V48.6896Z" fill="#601313"/>
<path d="M30.1033 23.9078H31.8734V25.678H30.1033V23.9078Z" fill="#601313"/>
<path d="M23.0227 23.9078H24.7928V25.678H23.0227V23.9078Z" fill="#601313"/>
<path d="M30.579 31.7738L31.619 30.7339L30.3688 29.4837L29.3289 30.5237C28.2779 31.5304 26.6294 31.5304 25.5784 30.5237L24.5385 29.4837L23.2883 30.7339L24.3283 31.7738C26.0542 33.4997 28.8532 33.4997 30.579 31.7738Z" fill="#601313"/>
</g>
<defs>
<clipPath id="clip0">
<rect width="54.8851" height="54" fill="white"/>
</clipPath>
</defs>
</svg>
