<svg xmlns="http://www.w3.org/2000/svg" width="70" height="69" fill="none"><path fill="#fff" d="M21.68 4.34h43.35V6.5H21.68V4.34zM4.34 4.34H6.5V6.5H4.34V4.34zM8.67 4.34h2.17V6.5H8.67V4.34zM13 4.34h2.17V6.5h-2.16V4.34zM25.87 37.2l-2.46-2.45 1.53-1.53.93.92 2.3-2.3 1.53 1.54-3.83 3.83zM25.87 54.6l-2.46-2.46 1.53-1.53.93.92 2.3-2.3 1.53 1.53-3.83 3.84zM36.85 30.35h13v2.17h-13v-2.17zM36.85 35.77h8.67v2.17h-8.67v-2.17zM36.85 47.7h13v2.16h-13v-2.17zM36.85 53.11h8.67v2.17h-8.67V53.1z"/><path fill="#fff" d="M0 0v58.53h15.17v7.66L19.94 69l3.69-2.17L27.3 69 31 66.83 34.68 69l3.69-2.17L42.05 69l3.69-2.17L49.43 69l4.76-2.8v-7.67h15.18V0H0zm52.03 64.95l-2.6 1.54-3.69-2.17-3.69 2.17-3.68-2.17-3.69 2.17L31 64.32l-3.69 2.17-3.68-2.17-3.69 2.17-2.6-1.53V17.34h26.02v8.67h8.67v38.94zm-6.5-41.1v-4.98l4.96 4.98h-4.97zM67.2 56.36h-13V24.48l-9.31-9.3H15.17v41.18h-13V10.84H67.2v45.52zm0-47.69H2.17v-6.5H67.2v6.5z"/><path fill="#fff" d="M26.55 27.1a7.05 7.05 0 100 14.09 7.05 7.05 0 000-14.1zm0 11.92a4.88 4.88 0 110-9.76 4.88 4.88 0 010 9.76zM26.55 44.44a7.05 7.05 0 100 14.09 7.05 7.05 0 000-14.1zm0 11.92a4.88 4.88 0 110-9.75 4.88 4.88 0 010 9.75z"/></svg>