<svg width="42" height="42" fill="none" xmlns="http://www.w3.org/2000/svg"><path d="M38.719 1.313H3.28A1.975 1.975 0 001.312 3.28v24.282a1.975 1.975 0 001.97 1.968h6.83a.34.34 0 01-.025.256l-1.654 2.75a1.969 1.969 0 00.302 2.408l2.257 2.258a1.969 1.969 0 002.409.302l2.75-1.654a.387.387 0 01.34-.007.37.37 0 01.224.243l.774 3.11a1.968 1.968 0 001.91 1.49H22.6a1.969 1.969 0 001.91-1.49l.774-3.11a.385.385 0 01.237-.25.38.38 0 01.328.014l2.75 1.654a1.977 1.977 0 002.408-.302l2.257-2.258a1.969 1.969 0 00.302-2.408l-1.654-2.75a.374.374 0 01-.026-.256h6.832a1.974 1.974 0 001.968-1.968V3.28a1.975 1.975 0 00-1.968-1.969zm-3.282 25.226a.656.656 0 01-.498.636l-3.11.775a1.703 1.703 0 00-1.143 1.01 1.684 1.684 0 00.105 1.503l1.647 2.75a.646.646 0 01-.098.8l-2.264 2.265a.647.647 0 01-.8.098l-2.75-1.647a1.715 1.715 0 00-2.514 1.037l-.774 3.11a.657.657 0 01-.637.499H19.4a.656.656 0 01-.637-.499l-.774-3.11a1.703 1.703 0 00-1.01-1.142 1.749 1.749 0 00-.657-.132c-.299 0-.592.081-.847.237l-2.75 1.647a.646.646 0 01-.8-.098L9.66 34.013a.646.646 0 01-.098-.8l1.647-2.75a1.714 1.714 0 00-1.037-2.513l-3.11-.775a.657.657 0 01-.5-.636v-3.203a.656.656 0 01.5-.636l3.11-.775a1.703 1.703 0 001.142-1.01 1.684 1.684 0 00-.105-1.503l-1.647-2.75a.647.647 0 01.098-.8l2.264-2.264a.647.647 0 01.8-.099l2.75 1.647a1.714 1.714 0 002.514-1.037l.774-3.11a.657.657 0 01.637-.499H22.6a.656.656 0 01.637.499l.774 3.11a1.703 1.703 0 001.01 1.142 1.684 1.684 0 001.504-.105l2.75-1.647a.656.656 0 01.8.098l2.264 2.265a.647.647 0 01.098.8l-1.647 2.75a1.715 1.715 0 001.037 2.513l3.11.775a.657.657 0 01.5.636v3.203zm3.938 1.023a.656.656 0 01-.656.657h-2.92a1.963 1.963 0 00.951-1.68v-3.203a1.969 1.969 0 00-1.49-1.91l-3.11-.774a.383.383 0 01-.223-.164l-.027-.072a.38.38 0 01.013-.328l1.654-2.75a1.969 1.969 0 00-.302-2.408l-2.257-2.258a1.969 1.969 0 00-2.409-.302l-2.75 1.654a.387.387 0 01-.34.007.37.37 0 01-.224-.243l-.774-3.11a1.968 1.968 0 00-1.91-1.49H19.4a1.969 1.969 0 00-1.91 1.49l-.774 3.11a.385.385 0 01-.237.25.38.38 0 01-.328-.014L13.4 12.37a1.977 1.977 0 00-2.408.302L8.735 14.93a1.969 1.969 0 00-.302 2.408l1.654 2.75a.387.387 0 01.006.341.37.37 0 01-.243.223l-3.11.775a1.968 1.968 0 00-1.49 1.91v3.202a1.962 1.962 0 00.952 1.68h-2.92a.656.656 0 01-.657-.657V7.875h36.75v19.688zm0-21H2.625v-3.28a.656.656 0 01.656-.657H38.72a.656.656 0 01.656.656v3.281z" fill="#fff"/><path d="M3.938 3.938H5.25V5.25H3.937V3.937zm2.625 0h1.312V5.25H6.562V3.937zm2.625 0H10.5V5.25H9.187V3.937zM21 17.063a7.875 7.875 0 107.875 7.875A7.884 7.884 0 0021 17.063zM21 31.5a6.562 6.562 0 116.563-6.563A6.57 6.57 0 0121 31.5z" fill="#fff"/><path d="M20.344 24.281h1.312v1.313h-1.312V24.28zm2.625 0h1.312v1.313H22.97V24.28zm-5.25 0h1.312v1.313H17.72V24.28z" fill="#fff"/></svg>