<svg width="42" height="42" fill="none" xmlns="http://www.w3.org/2000/svg"><g clip-path="url(#a)" fill="#fff"><path d="M40.8 10.174a3.45 3.45 0 00-3.445-3.445c-.976 0-1.857.408-2.485 1.061L21.425.028a.82.82 0 00-.82 0L7.16 7.79a3.434 3.434 0 00-2.484-1.06 3.45 3.45 0 00-3.446 3.445 3.45 3.45 0 002.625 3.346v15.52a.82.82 0 00.41.71l13.442 7.76a3.45 3.45 0 003.308 4.408 3.45 3.45 0 003.307-4.407l13.443-7.761a.82.82 0 00.41-.71V13.52a3.45 3.45 0 002.625-3.346zm-37.929 0c0-.995.81-1.805 1.805-1.805.995 0 1.804.81 1.804 1.805 0 .995-.81 1.805-1.804 1.805-.995 0-1.805-.81-1.805-1.805zm18.143 30.104c-.995 0-1.805-.81-1.805-1.805 0-.995.81-1.805 1.805-1.805.995 0 1.805.81 1.805 1.805 0 .995-.81 1.805-1.805 1.805zM23.5 36.09a3.435 3.435 0 00-4.97 0L5.495 28.565V13.52a3.45 3.45 0 002.487-4.31l13.032-7.524L34.048 9.21a3.45 3.45 0 002.487 4.31v15.046L23.5 36.09zm13.855-24.112c-.995 0-1.805-.81-1.805-1.805 0-.995.81-1.805 1.805-1.805.995 0 1.805.81 1.805 1.805 0 .995-.81 1.805-1.805 1.805z"/><path d="M32.253 12.643l-10.828-6.25a.82.82 0 00-.82 0l-10.828 6.25a.821.821 0 00-.41.71v12.504a.82.82 0 00.41.71l10.828 6.252a.82.82 0 00.82 0l10.828-6.252a.82.82 0 00.41-.71V13.354a.821.821 0 00-.41-.71zM21.015 8.05l9.188 5.304-9.188 5.304-9.187-5.304 9.187-5.304zm.82 22.638v-3.7a.82.82 0 10-1.64 0v3.7l-9.187-5.305V14.775l9.597 5.54a.82.82 0 00.82 0l9.598-5.54v10.608l-9.188 5.305z"/><path d="M21.014 22.477a.828.828 0 00-.58.24.826.826 0 00-.24.58c0 .216.087.427.24.58.153.152.364.24.58.24a.826.826 0 00.58-.24.826.826 0 00.24-.58.826.826 0 00-.24-.58.826.826 0 00-.58-.24z"/></g><defs><clipPath id="a"><path fill="#fff" d="M0 0h42v42H0z"/></clipPath></defs></svg>