<svg width="41" height="41" fill="none" xmlns="http://www.w3.org/2000/svg"><g clip-path="url(#a)"><path d="M9.833 11.53L5.14 6.836A20.299 20.299 0 000 19.244h6.631a13.804 13.804 0 013.202-7.714zM6.631 21.645H0a20.299 20.299 0 005.14 12.408l4.693-4.694a13.804 13.804 0 01-3.202-7.715zM19.244 6.631V0A20.298 20.298 0 006.836 5.14l4.694 4.693a13.804 13.804 0 017.714-3.202zM6.836 35.75a20.3 20.3 0 0012.408 5.14v-6.632a13.804 13.804 0 01-7.714-3.202L6.836 35.75z" fill="#DC2C2C"/><path d="M31.909 20.444c0-6.321-5.143-11.464-11.465-11.464-6.321 0-11.465 5.143-11.465 11.464 0 6.322 5.144 11.465 11.465 11.465 6.322 0 11.465-5.143 11.465-11.465zm-11.465-1.2a3.535 3.535 0 013.531 3.532 3.537 3.537 0 01-2.33 3.32v1.607a1.2 1.2 0 01-2.4 0v-1.397h-1.132a1.2 1.2 0 010-2.4h2.331a1.132 1.132 0 00.001-2.262 3.535 3.535 0 01-3.532-3.53 3.54 3.54 0 012.331-3.322v-1.607a1.2 1.2 0 012.4 0v1.398h1.131a1.2 1.2 0 010 2.4h-2.33c-.624 0-1.132.507-1.132 1.13 0 .624.508 1.131 1.131 1.131z" fill="url(#b)"/><path d="M21.645 34.258v6.631a20.3 20.3 0 0012.408-5.14l-4.694-4.693a13.805 13.805 0 01-7.715 3.202zM34.053 5.14A20.299 20.299 0 0021.645 0v6.631a13.804 13.804 0 017.714 3.202l4.694-4.694zm-2.997 24.219l4.694 4.694a20.3 20.3 0 005.14-12.408h-6.632a13.804 13.804 0 01-3.202 7.714zm3.202-10.115h6.631A20.3 20.3 0 0035.75 6.836l-4.694 4.694a13.804 13.804 0 013.202 7.714z" fill="#DC2C2C"/></g><defs><linearGradient id="b" x1="20.444" y1="8.98" x2="20.444" y2="31.909" gradientUnits="userSpaceOnUse"><stop stop-color="#FFA4A4"/><stop offset="1" stop-color="#F1F1F1"/></linearGradient><clipPath id="a"><path fill="#fff" d="M0 0h40.889v40.889H0z"/></clipPath></defs></svg>