<svg width="54" height="54" viewBox="0 0 54 54" fill="none" xmlns="http://www.w3.org/2000/svg">
<g clip-path="url(#clip0)">
<path d="M19.7999 19.8C25.2674 19.8 29.6999 15.3675 29.6999 9.9C29.6999 4.4325 25.2674 0 19.7999 0C14.3324 0 9.8999 4.4325 9.8999 9.9C9.91115 15.3675 14.3324 19.7888 19.7999 19.8ZM19.7999 1.8C24.2774 1.8 27.8999 5.4225 27.8999 9.9C27.8999 14.3775 24.2774 18 19.7999 18C15.3224 18 11.6999 14.3775 11.6999 9.9C11.6999 5.43375 15.3337 1.8 19.7999 1.8Z" fill="#601313"/>
<path d="M18.9001 16.2H20.7001V14.4C21.6901 14.4 22.5001 13.59 22.5001 12.6V10.8C22.5001 9.80998 21.6901 8.99998 20.7001 8.99998H18.9001V7.19998H22.5001V5.39998H20.7001V3.59998H18.9001V5.39998C17.9101 5.39998 17.1001 6.20998 17.1001 7.19998V8.99998C17.1001 9.98998 17.9101 10.8 18.9001 10.8H20.7001V12.6H17.1001V14.4H18.9001V16.2Z" fill="#601313"/>
<path d="M54.0001 1.8H52.2001V0H50.4001V1.8H48.6001V3.6H50.4001V5.4H52.2001V3.6H54.0001V1.8Z" fill="#601313"/>
<path d="M50.4 9.90002H48.6V11.7H46.8V13.5H48.6V15.3H50.4V13.5H52.2V11.7H50.4V9.90002Z" fill="#601313"/>
<path d="M36.9001 6.30002H38.7001V4.50002H40.5001V2.70002H38.7001V0.900024H36.9001V2.70002H35.1001V4.50002H36.9001V6.30002Z" fill="#601313"/>
<path d="M44.8989 18.2812C46.0464 17.3587 46.2376 15.6712 45.3039 14.5237C45.0676 14.2312 44.7751 13.9837 44.4376 13.815L46.7551 6.57C46.8676 6.24375 46.7776 5.88375 46.5189 5.6475C46.2714 5.41125 45.9114 5.3325 45.5851 5.445L38.5989 8.06625L32.5239 7.2C32.2201 7.155 31.9164 7.2675 31.7251 7.4925C31.5226 7.7175 31.4551 8.0325 31.5226 8.325L32.9851 13.7925C31.6576 14.445 31.1176 16.0425 31.7701 17.37C31.9389 17.7187 32.1864 18.0337 32.4901 18.27C28.8676 21.7237 26.0889 27.72 26.0889 32.3887V32.9962L28.0914 34.0875L27.8889 32.4C27.8889 27.9 30.9039 21.8025 34.5151 18.9H42.8626C46.4739 21.8025 49.4889 27.9 49.4889 32.4V36C49.4889 39.8362 46.5414 43.2 43.1889 43.2H34.1889C32.6251 43.1662 31.1401 42.5025 30.0714 41.3662L27.7989 41.4C29.2051 43.5825 31.5901 44.9325 34.1889 45H43.1889C47.5764 45 51.2889 40.8825 51.2889 36V32.4C51.3001 27.7312 48.5214 21.735 44.8989 18.2812ZM38.5764 9.88875C38.7226 9.91125 38.8801 9.9 39.0151 9.84375L44.4826 7.79625L42.6489 13.5H34.7851L33.6264 9.18L38.5764 9.88875ZM43.2001 17.1H34.2001C33.7051 17.1 33.3001 16.695 33.3001 16.2C33.3001 15.705 33.7051 15.3 34.2001 15.3H43.2001C43.6951 15.3 44.1001 15.705 44.1001 16.2C44.1001 16.695 43.6951 17.1 43.2001 17.1Z" fill="white"/>
<path d="M45 46.8H27.315L20.565 41.4H26.7862L30.3075 41.3213C31.5225 41.04 32.4 39.96 32.4113 38.7V36.9C32.4113 36.5625 32.2312 36.2588 31.9387 36.1125L27.9 33.9525L26.1 32.9963L18.4275 28.9125C18.18 28.7775 17.8875 28.7663 17.64 28.89L10.8112 31.9275V31.5C10.8112 31.005 10.4062 30.6 9.91125 30.6H6.3C5.805 30.6 5.4 31.005 5.4 31.5V32.0513L1.1925 30.645C0.9225 30.555 0.61875 30.6 0.3825 30.7688C0.135 30.9375 0 31.2075 0 31.5V47.7C0 47.9925 0.135 48.2625 0.3825 48.4313C0.52875 48.5438 0.72 48.6 0.9 48.6C1.00125 48.6 1.09125 48.5775 1.1925 48.555L5.4 47.1488V47.7C5.4 48.195 5.805 48.6 6.3 48.6H9.9C10.3725 48.6 10.755 48.2288 10.7887 47.7675L18.3375 53.8088C18.495 53.9325 18.6975 54.0113 18.9 54.0113H45C46.9912 54.0113 48.6 52.4025 48.6 50.4113C48.6 48.4088 46.9912 46.8 45 46.8ZM5.4 45.2475L1.8 46.44V32.7488L5.4 33.9413V45.2475ZM9 46.8H7.2V32.4H9V46.8ZM45 52.2H19.215L10.8 45.4725V33.885L17.9662 30.7013L30.6 37.44V38.7C30.6 39.195 30.195 39.6 29.7 39.6H18C17.6175 39.6 17.28 39.8475 17.1562 40.2075C17.0212 40.5675 17.145 40.9725 17.4487 41.2088L26.4487 48.4088C26.6063 48.5325 26.8088 48.6113 27.0112 48.6113H45.0112C46.0013 48.6113 46.8112 49.4213 46.8112 50.4113C46.8112 51.4013 45.99 52.2 45 52.2Z" fill="#601313"/>
<path d="M39.6 29.7H37.8C36.3038 29.7 35.1 28.4963 35.1 27C35.1 25.5038 36.3038 24.3 37.8 24.3H43.2V22.5H39.6V20.7H37.8V22.5C35.3138 22.5 33.3 24.5138 33.3 27C33.3 29.4863 35.3138 31.5 37.8 31.5H39.6C41.0963 31.5 42.3 32.7038 42.3 34.2C42.3 35.6963 41.0963 36.9 39.6 36.9H34.2V38.7H37.8V40.5H39.6V38.7C42.0863 38.7 44.1 36.6863 44.1 34.2C44.1 31.7138 42.0863 29.7 39.6 29.7Z" fill="white"/>
</g>
<defs>
<clipPath id="clip0">
<rect width="54" height="54" fill="white"/>
</clipPath>
</defs>
</svg>
