<svg xmlns="http://www.w3.org/2000/svg" width="71" height="70" fill="none"><path fill="#fff" d="M70.1 8.58c-.04-.04-8.34-7.96-8.34-7.96-.32-.3-.64-.62-1.26-.62H27.07c-.97 0-1.77.8-1.77 1.77v5.44L13.52 9.23a1.75 1.75 0 00-1.41 2.01l.6 3.49A609.06 609.06 0 001.14 18.7 1.75 1.75 0 00.1 20.93l7.55 21a1.04 1.04 0 101.95-.7L2.16 20.53c3.58-1.28 7.28-2.53 10.9-3.75l3.56 20.75 4.1 23.89a1.75 1.75 0 002 1.41l11.1-1.9 8.66-1.48-13.03 4.68-10.28 3.7-7.98-22.2a1.04 1.04 0 10-1.95.7l8.1 22.51a1.75 1.75 0 002.22 1.05l10.59-3.81 24.03-8.64 4.6-.79h10.14c.97 0 1.77-.8 1.77-1.77V9.74c0-.62-.34-.93-.58-1.16zm-2.74.24h-5.31c-.24 0-.83 0-.97-.14-.04-.03-.08-.14-.08-.35V2.75l6.36 6.07zm1.26 45.77H27.37V34.41a1.04 1.04 0 00-2.07 0V54.9c0 .98.8 1.77 1.77 1.77h19.45L33.46 58.9 22.7 60.75l-4.04-23.56L14.2 11.2l11.1-1.9v20.3a1.04 1.04 0 102.07 0V2.07h31.55l.01 6.26c0 .76.23 1.37.69 1.82.7.7 1.69.74 2.3.74.05 0 .1 0 .15 0h6.55v43.7z"/><path fill="#fff" d="M32.37 16.08c0 .57.46 1.03 1.03 1.03H63a1.04 1.04 0 000-2.07H33.4c-.57 0-1.03.47-1.03 1.04zM63 22.4H33.4a1.04 1.04 0 000 2.07H63a1.04 1.04 0 000-2.07zM63 29.76H33.4a1.04 1.04 0 100 2.07H63a1.04 1.04 0 000-2.07zM63 37.11H33.4a1.04 1.04 0 100 2.07H63a1.04 1.04 0 000-2.07zM63 44.47H33.4a1.04 1.04 0 100 2.07H63a1.04 1.04 0 000-2.07z"/></svg>