<svg width="42" height="42" viewBox="0 0 42 42" fill="none" xmlns="http://www.w3.org/2000/svg">
<g clip-path="url(#clip0)">
<path d="M40.8001 10.1739C40.8001 8.27401 39.2546 6.72855 37.3548 6.72855C36.3794 6.72855 35.4978 7.13678 34.8704 7.79047L21.4253 0.0279201C21.1715 -0.118519 20.8591 -0.118519 20.6053 0.0279201L7.15981 7.79047C6.53239 7.13678 5.6512 6.72855 4.67579 6.72855C2.77593 6.72855 1.23047 8.27401 1.23047 10.1739C1.23047 11.7908 2.35039 13.1504 3.85548 13.5195V29.0392C3.85548 29.3321 4.01185 29.6028 4.26563 29.7496L17.7066 37.5099C17.6175 37.8156 17.5688 38.1386 17.5688 38.4728C17.5688 40.3724 19.1143 41.9181 21.0142 41.9181C22.9137 41.9181 24.4592 40.3724 24.4592 38.4728C24.4592 38.1389 24.4108 37.8166 24.3217 37.5109L37.7649 29.7496C38.0187 29.6032 38.1751 29.3321 38.1751 29.0392V13.5195C39.6802 13.1504 40.8001 11.7908 40.8001 10.1739ZM2.8711 10.1739C2.8711 9.1786 3.68052 8.36918 4.67579 8.36918C5.67074 8.36918 6.48016 9.1786 6.48016 10.1739C6.48016 11.1688 5.67074 11.9786 4.67579 11.9786C3.68052 11.9786 2.8711 11.1688 2.8711 10.1739ZM21.0142 40.2775C20.0189 40.2775 19.2095 39.4681 19.2095 38.4728C19.2095 37.4779 20.0189 36.6681 21.0142 36.6681C22.0091 36.6681 22.8188 37.4779 22.8188 38.4728C22.8188 39.4681 22.0091 40.2775 21.0142 40.2775ZM23.5001 36.091C22.8724 35.4364 21.9905 35.0275 21.0142 35.0275C20.0384 35.0275 19.1566 35.436 18.5292 36.0901L5.49611 28.5656V13.5195C7.00087 13.1504 8.12079 11.7908 8.12079 10.1739C8.12079 9.83933 8.07209 9.51602 7.98269 9.20968L21.0151 1.68553L34.0479 9.20968C33.9585 9.51602 33.9098 9.83901 33.9098 10.1739C33.9098 11.7908 35.0297 13.1504 36.5345 13.5195V28.5656L23.5001 36.091ZM37.3548 11.9786C36.3598 11.9786 35.5501 11.1688 35.5501 10.1739C35.5501 9.1786 36.3598 8.36918 37.3548 8.36918C38.35 8.36918 39.1595 9.1786 39.1595 10.1739C39.1595 11.1688 38.35 11.9786 37.3548 11.9786Z" fill="white"/>
<path d="M32.2534 12.6434L21.4253 6.39206C21.1715 6.24562 20.8591 6.24562 20.6053 6.39206L9.7771 12.6434C9.52332 12.7902 9.36694 13.061 9.36694 13.3538V25.8569C9.36694 26.1498 9.52332 26.4209 9.7771 26.5673L20.6053 32.819C20.7322 32.8921 20.8735 32.9289 21.0151 32.9289C21.1571 32.9289 21.2984 32.8921 21.4253 32.819L32.2534 26.5673C32.5072 26.4209 32.6636 26.1498 32.6636 25.8569V13.3538C32.6636 13.061 32.5072 12.7902 32.2534 12.6434ZM21.0151 8.04967L30.2026 13.3538L21.0151 18.6583L11.8279 13.3538L21.0151 8.04967ZM21.8354 30.6878V26.9884C21.8354 26.5353 21.4682 26.1681 21.0151 26.1681C20.5623 26.1681 20.1951 26.5353 20.1951 26.9884V30.6878L11.0076 25.3833V14.7746L20.6053 20.3159C20.7322 20.389 20.8735 20.4258 21.0151 20.4258C21.1571 20.4258 21.2984 20.389 21.4253 20.3159L31.023 14.7746V25.3833L21.8354 30.6878Z" fill="white"/>
<path d="M21.0144 22.4767C20.7978 22.4767 20.5869 22.5642 20.4334 22.717C20.2809 22.8695 20.1931 23.081 20.1931 23.297C20.1931 23.5127 20.2809 23.7241 20.4334 23.8767C20.5869 24.0295 20.7978 24.1173 21.0144 24.1173C21.23 24.1173 21.4418 24.0295 21.5944 23.8767C21.7469 23.7241 21.8347 23.5127 21.8347 23.297C21.8347 23.081 21.7469 22.8695 21.5944 22.717C21.4418 22.5642 21.23 22.4767 21.0144 22.4767Z" fill="white"/>
</g>
<defs>
<clipPath id="clip0">
<rect width="42" height="42" fill="white"/>
</clipPath>
</defs>
</svg>
