<svg width="18" height="14" viewBox="0 0 18 14" fill="none" xmlns="http://www.w3.org/2000/svg">
<path d="M2.13445 2.85597C2.15682 2.63949 2.07256 2.42553 1.90756 2.27983L0.226891 0.296296V0H5.44538L9.47899 8.66667L13.0252 0H18V0.296296L16.563 1.64609C16.4391 1.7386 16.3777 1.89066 16.4034 2.04115V11.9588C16.3777 12.1093 16.4391 12.2614 16.563 12.3539L17.9664 13.7037V14H10.9076V13.7037L12.3613 12.321C12.5042 12.1811 12.5042 12.1399 12.5042 11.9259V3.90946L8.46218 13.9671H7.91597L3.21008 3.90946V10.6502C3.17085 10.9336 3.26692 11.2189 3.47059 11.4239L5.36134 13.6708V13.9671H0V13.6708L1.89076 11.4239C2.09294 11.2186 2.18341 10.9314 2.13445 10.6502V2.85597Z" fill="white"/>
</svg>
