<svg width="55" height="54" fill="none" xmlns="http://www.w3.org/2000/svg"><g clip-path="url(#a)"><path d="M35.414 39.839H33.93l-2.943-2.213v-1.183a8.855 8.855 0 005.31-8.11V22.78a6.168 6.168 0 002.656-5.067v-5.31a.888.888 0 00-.885-.885h-15.93a6.2 6.2 0 00-6.196 6.195v2.656a3.537 3.537 0 002.655 3.418v4.547a8.867 8.867 0 005.31 8.11v1.183l-2.942 2.213h-1.483a7.989 7.989 0 00-7.965 7.966v3.54A2.663 2.663 0 0014.172 54h26.552a2.663 2.663 0 002.655-2.655v-3.54c0-4.393-3.562-7.955-7.965-7.966zM18.597 21.253v.641a1.766 1.766 0 01-.885-1.526v-2.656a4.424 4.424 0 014.426-4.425h15.046v4.425a4.44 4.44 0 01-1.129 2.943.744.744 0 00-.41-.243l-9.735-2.655a.856.856 0 00-.575.033l-6.195 2.655a.865.865 0 00-.543.808zm1.77 7.08V21.84l5.377-2.301 8.785 2.39v6.405a7.08 7.08 0 11-14.161 0zm4.957 10.444a.891.891 0 00.354-.708v-1.062a9.08 9.08 0 003.54 0v1.062a.89.89 0 00.354.708l2.733 2.047-4.846 4.845-4.857-4.845 2.722-2.047zm16.285 12.568a.888.888 0 01-.885.885H14.172a.888.888 0 01-.885-.885v-3.54a6.2 6.2 0 016.195-6.196h1.405l5.93 5.941a.902.902 0 001.262 0l5.93-5.94h1.405a6.2 6.2 0 016.195 6.195v3.54z" fill="#601313"/><path d="M26.563 6.97v3.662h1.77V6.97a3.546 3.546 0 002.545-4.315A3.546 3.546 0 0026.563.111a3.545 3.545 0 00-2.545 4.314 3.53 3.53 0 002.545 2.545zm.885-5.189c.974 0 1.77.797 1.77 1.77 0 .974-.796 1.77-1.77 1.77s-1.77-.796-1.77-1.77c0-.973.796-1.77 1.77-1.77zM3.551 23.908a3.544 3.544 0 00-3.55 3.529 3.53 3.53 0 003.528 3.551 3.538 3.538 0 003.44-2.655h3.663v-1.77H6.97a3.55 3.55 0 00-3.419-2.655zm0 5.31c-.973 0-1.77-.796-1.77-1.77s.797-1.77 1.77-1.77c.974 0 1.77.796 1.77 1.77a1.76 1.76 0 01-1.77 1.77zm47.794-5.31a3.56 3.56 0 00-3.419 2.655h-3.662v1.77h3.662c.487 1.892 2.423 3.02 4.315 2.534 1.892-.487 3.02-2.423 2.533-4.315a3.54 3.54 0 00-3.43-2.644zm0 5.31c-.974 0-1.77-.796-1.77-1.77s.796-1.77 1.77-1.77c.973 0 1.77.796 1.77 1.77 0 .985-.786 1.77-1.77 1.77zM37.726 8.873l.686-1.627 1.471.62-.686 1.626-1.471-.62zm-5.875-2.5l.686-1.627 1.472.62-.686 1.626-1.472-.62zm2.932 1.217l.686-1.638 1.482.62-.686 1.637-1.482-.62zM47.87 33.323l.62-1.472 1.627.686-.62 1.472-1.626-.686zm-1.205 2.965l.62-1.472 1.626.686-.62 1.472-1.626-.686zm-1.228 2.92l.62-1.482 1.637.686-.62 1.482-1.637-.686zM4.735 22.37l.62-1.483 1.637.686-.62 1.483-1.637-.686zm1.239-2.943l.62-1.471 1.626.686-.62 1.471-1.626-.686zm1.239-2.965l.62-1.471 1.626.686-.62 1.471-1.626-.686zM5.985 35.469l1.627-.686.62 1.471-1.627.697-.62-1.482zm-1.25-2.932l1.637-.686.62 1.483-1.637.686-.62-1.483zm2.467 5.886l1.626-.686.62 1.471-1.626.686-.62-1.471zm38.246-22.724l1.637-.686.62 1.482-1.637.686-.62-1.482zm1.206 2.921l1.626-.686.62 1.471-1.626.686-.62-1.471zm1.228 2.976l1.626-.686.62 1.471-1.626.686-.62-1.471zM20.887 5.344l1.472-.62.686 1.626-1.472.63-.686-1.636zM14.99 7.833l1.472-.62.686 1.627-1.471.62-.686-1.627zm2.944-1.239l1.471-.62.686 1.626-1.472.62-.685-1.626zm-4.381 8.209l1.25-1.25-1.129-1.129a3.527 3.527 0 00.498-1.792 3.537 3.537 0 00-3.54-3.54 3.536 3.536 0 00-3.54 3.54 3.536 3.536 0 003.54 3.54c.63 0 1.25-.177 1.792-.498l1.129 1.129zm-4.691-4.171c0-.974.796-1.77 1.77-1.77.973 0 1.77.796 1.77 1.77 0 .973-.797 1.77-1.77 1.77-.974 0-1.77-.785-1.77-1.77zm32.493 4.171l1.128-1.129a3.527 3.527 0 001.792.498 3.536 3.536 0 003.54-3.54 3.536 3.536 0 00-3.54-3.54 3.537 3.537 0 00-3.54 3.54c0 .63.177 1.25.498 1.792l-1.128 1.129 1.25 1.25zm2.91-5.941c.973 0 1.77.796 1.77 1.77 0 .973-.797 1.77-1.77 1.77-.974 0-1.77-.797-1.77-1.77 0-.974.796-1.77 1.77-1.77z" fill="#fff"/><path d="M15.057 48.69h1.77v1.77h-1.77v-1.77zm3.54 0H36.3v1.77H18.597v-1.77zm19.472 0h1.77v1.77h-1.77v-1.77zm-7.966-24.782h1.77v1.77h-1.77v-1.77zm-7.08 0h1.77v1.77h-1.77v-1.77zm7.556 7.866l1.04-1.04-1.25-1.25-1.04 1.04a2.706 2.706 0 01-3.75 0l-1.04-1.04-1.25 1.25 1.04 1.04a4.42 4.42 0 006.25 0z" fill="#601313"/></g><defs><clipPath id="a"><path fill="#fff" d="M0 0h54.885v54H0z"/></clipPath></defs></svg>