<svg width="54" height="54" fill="none" xmlns="http://www.w3.org/2000/svg"><g clip-path="url(#clip0)"><path d="M19.8 19.8c5.467 0 9.9-4.433 9.9-9.9 0-5.468-4.433-9.9-9.9-9.9-5.468 0-9.9 4.433-9.9 9.9a9.915 9.915 0 009.9 9.9zm0-18c4.477 0 8.1 3.623 8.1 8.1 0 4.477-3.623 8.1-8.1 8.1a8.095 8.095 0 01-8.1-8.1c0-4.466 3.634-8.1 8.1-8.1z" fill="#601313"/><path d="M18.9 16.2h1.8v-1.8c.99 0 1.8-.81 1.8-1.8v-1.8c0-.99-.81-1.8-1.8-1.8h-1.8V7.2h3.6V5.4h-1.8V3.6h-1.8v1.8c-.99 0-1.8.81-1.8 1.8V9c0 .99.81 1.8 1.8 1.8h1.8v1.8h-3.6v1.8h1.8v1.8zM54 1.8h-1.8V0h-1.8v1.8h-1.8v1.8h1.8v1.8h1.8V3.6H54V1.8zm-3.6 8.1h-1.8v1.8h-1.8v1.8h1.8v1.8h1.8v-1.8h1.8v-1.8h-1.8V9.9zM36.9 6.3h1.8V4.5h1.8V2.7h-1.8V.9h-1.8v1.8h-1.8v1.8h1.8v1.8z" fill="#601313"/><path d="M44.899 18.281a2.667 2.667 0 00.405-3.757 2.641 2.641 0 00-.866-.709l2.317-7.245a.863.863 0 00-.236-.923.918.918 0 00-.934-.202L38.6 8.066 32.524 7.2a.88.88 0 00-.799.292.931.931 0 00-.202.833l1.462 5.468a2.667 2.667 0 00-1.215 3.577c.169.349.416.664.72.9-3.622 3.454-6.401 9.45-6.401 14.119v.607l2.002 1.091-.202-1.687c0-4.5 3.015-10.598 6.626-13.5h8.348c3.61 2.902 6.626 9 6.626 13.5V36c0 3.836-2.948 7.2-6.3 7.2h-9a5.83 5.83 0 01-4.118-1.834L27.8 41.4a7.84 7.84 0 006.39 3.6h9c4.387 0 8.1-4.117 8.1-9v-3.6c.011-4.669-2.768-10.665-6.39-14.119zM38.576 9.89a.83.83 0 00.44-.045l5.467-2.048-1.834 5.704h-7.864l-1.159-4.32 4.95.709zM43.2 17.1h-9a.903.903 0 01-.9-.9c0-.495.405-.9.9-.9h9c.495 0 .9.405.9.9s-.405.9-.9.9z" fill="#fff"/><path d="M45 46.8H27.315l-6.75-5.4h6.221l3.521-.079a2.718 2.718 0 002.104-2.621v-1.8a.87.87 0 00-.472-.788l-4.039-2.16-1.8-.956-7.673-4.084a.848.848 0 00-.787-.022l-6.829 3.037V31.5c0-.495-.405-.9-.9-.9H6.3c-.495 0-.9.405-.9.9v.551l-4.208-1.406a.907.907 0 00-.81.124A.872.872 0 000 31.5v16.2a.87.87 0 00.383.731.863.863 0 00.517.169c.101 0 .191-.023.292-.045L5.4 47.149v.551c0 .495.405.9.9.9h3.6a.896.896 0 00.889-.833l7.548 6.042a.93.93 0 00.563.202H45c1.991 0 3.6-1.608 3.6-3.6A3.599 3.599 0 0045 46.8zM5.4 45.248L1.8 46.44V32.749l3.6 1.192v11.306zM9 46.8H7.2V32.4H9v14.4zm36 5.4H19.215L10.8 45.472V33.885l7.166-3.184L30.6 37.44v1.26c0 .495-.405.9-.9.9H18a.896.896 0 00-.844.608.881.881 0 00.293 1l9 7.2a.93.93 0 00.562.203h18c.99 0 1.8.81 1.8 1.8S45.99 52.2 45 52.2z" fill="#601313"/><path d="M39.6 29.7h-1.8a2.694 2.694 0 01-2.7-2.7c0-1.496 1.204-2.7 2.7-2.7h5.4v-1.8h-3.6v-1.8h-1.8v1.8a4.499 4.499 0 00-4.5 4.5 4.5 4.5 0 004.5 4.5h1.8c1.496 0 2.7 1.204 2.7 2.7 0 1.496-1.204 2.7-2.7 2.7h-5.4v1.8h3.6v1.8h1.8v-1.8c2.486 0 4.5-2.014 4.5-4.5s-2.014-4.5-4.5-4.5z" fill="#fff"/></g><defs><clipPath id="clip0"><path fill="#fff" d="M0 0h54v54H0z"/></clipPath></defs></svg>