<svg width="42" height="42" viewBox="0 0 42 42" fill="none" xmlns="http://www.w3.org/2000/svg">
<g clip-path="url(#clip0)">
<path d="M25.8594 7.8876C26.736 7.1526 26.8508 5.84614 26.1158 4.96956C26.0935 4.94296 26.0705 4.91698 26.047 4.8916L28.5824 1.0885C28.7969 0.766937 28.7102 0.332238 28.3886 0.117688C28.2735 0.04095 28.1383 1.83163e-08 28 1.83163e-08H14C13.6134 -8.74817e-05 13.2999 0.313337 13.2999 0.699912C13.2999 0.83825 13.3409 0.973437 13.4176 1.0885L15.953 4.8916C15.175 5.7302 15.224 7.04077 16.0626 7.81883C16.088 7.84245 16.1141 7.86537 16.1406 7.8876C10.6548 9.92119 7.01024 15.1494 7 21V38.5C7.00228 40.432 8.568 41.9977 10.5 42H31.5C33.432 41.9977 34.9977 40.432 35 38.5V21C34.9898 15.1494 31.3452 9.92119 25.8594 7.8876ZM15.3083 1.4H26.6917L24.8255 4.2H21.7V2.1H20.3V4.2H17.1745L15.3083 1.4ZM25.2 6.3C25.2 6.68657 24.8866 7 24.5 7H17.5C17.1134 7 16.8 6.68657 16.8 6.3C16.8 5.91342 17.1134 5.6 17.5 5.6H24.5C24.8866 5.6 25.2 5.91342 25.2 6.3ZM33.6 38.5C33.6 39.6598 32.6598 40.6 31.5 40.6H28.7V38.5H27.3V40.6H14.7V38.5H13.3V40.6H10.5C9.34019 40.6 8.4 39.6598 8.4 38.5V21C8.4 14.0412 14.0412 8.4 21 8.4C27.9588 8.4 33.6 14.0412 33.6 21V38.5Z" fill="white"/>
<path d="M21 11.9C24.0914 11.9035 26.5965 14.4086 26.6 17.5H28C27.9955 13.9069 25.2746 10.8992 21.7 10.5357V9.09998H20.3V10.5357C16.4538 10.9256 13.6518 14.3598 14.0417 18.206C14.4039 21.778 17.4097 24.4969 21 24.5C24.0928 24.5 26.6 27.0072 26.6 30.1C26.6 33.1928 24.0928 35.7 21 35.7C17.9072 35.7 15.4 33.1928 15.4 30.1H14C14.0046 33.6931 16.7254 36.7008 20.3 37.0643V38.5H21.7V37.0643C25.5462 36.6744 28.3482 33.2403 27.9583 29.3939C27.5962 25.8219 24.5903 23.103 21 23.1C17.9072 23.1 15.4 20.5928 15.4 17.5C15.4 14.4072 17.9072 11.9 21 11.9Z" fill="white"/>
</g>
<defs>
<clipPath id="clip0">
<rect width="42" height="42" fill="white"/>
</clipPath>
</defs>
</svg>
