<svg width="42" height="42" viewBox="0 0 42 42" fill="none" xmlns="http://www.w3.org/2000/svg">
<path d="M32.1562 5.25H33.4688V3.9375H34.7812V2.625H33.4688V1.3125H32.1562V2.625H30.8438V3.9375H32.1562V5.25Z" fill="white"/>
<path d="M37.4062 7.21875V5.90625H36.0938V7.21875H34.7812V8.53125H36.0938V9.84375H37.4062V8.53125H38.7188V7.21875H37.4062Z" fill="white"/>
<path d="M8.53125 5.25H9.84375V3.9375H11.1562V2.625H9.84375V1.3125H8.53125V2.625H7.21875V3.9375H8.53125V5.25Z" fill="white"/>
<path d="M4.59375 9.84375H5.90625V8.53125H7.21875V7.21875H5.90625V5.90625H4.59375V7.21875H3.28125V8.53125H4.59375V9.84375Z" fill="white"/>
<path d="M33.4688 19.0306H32.1562V20.3431H30.8438V21.6556H32.1562V22.9681H33.4688V21.6556H34.7812V20.3431H33.4688V19.0306Z" fill="white"/>
<path d="M37.4062 14.4369H36.0938V15.7494H34.7812V17.0619H36.0938V18.3744H37.4062V17.0619H38.7188V15.7494H37.4062V14.4369Z" fill="white"/>
<path d="M9.84375 22.9681V21.6556H11.1562V20.3431H9.84375V19.0306H8.53125V20.3431H7.21875V21.6556H8.53125V22.9681H9.84375Z" fill="white"/>
<path d="M7.21875 17.0619V15.7494H5.90625V14.4369H4.59375V15.7494H3.28125V17.0619H4.59375V18.3744H5.90625V17.0619H7.21875Z" fill="white"/>
<path d="M22.9688 13.125H24.2812V14.4375H22.9688V13.125Z" fill="white"/>
<path d="M17.7188 13.125H19.0312V14.4375H17.7188V13.125Z" fill="white"/>
<path d="M23.3206 18.9512L24.0891 18.1827L23.1611 17.2548L22.3927 18.0232C22.2098 18.2062 21.9927 18.3513 21.7538 18.4503C21.5149 18.5493 21.2587 18.6003 21.0001 18.6003C20.7415 18.6003 20.4853 18.5493 20.2464 18.4503C20.0075 18.3513 19.7904 18.2062 19.6075 18.0232L18.8391 17.2548L17.9111 18.1827L18.6796 18.9512C18.9843 19.256 19.3461 19.4977 19.7442 19.6627C20.1424 19.8276 20.5691 19.9125 21.0001 19.9125C21.4311 19.9125 21.8578 19.8276 22.256 19.6627C22.6541 19.4977 23.0159 19.256 23.3206 18.9512Z" fill="white"/>
<path d="M26.9062 24.9375H25.8103L23.625 23.2969V22.4175C24.7941 21.9061 25.789 21.0653 26.4883 19.9978C27.1875 18.9303 27.5608 17.6823 27.5625 16.4062V12.285C28.168 11.8634 28.663 11.3022 29.0057 10.6488C29.3484 9.99538 29.5287 9.26905 29.5312 8.53125V4.59375C29.5312 4.4197 29.4621 4.25278 29.339 4.12971C29.216 4.00664 29.049 3.9375 28.875 3.9375H17.0625C15.8446 3.93889 14.677 4.42332 13.8158 5.28451C12.9546 6.14571 12.4701 7.31334 12.4688 8.53125V10.5C12.4706 11.0805 12.6649 11.644 13.0211 12.1023C13.3773 12.5607 13.8754 12.888 14.4375 13.0331V16.4062C14.4392 17.6823 14.8125 18.9303 15.5117 19.9978C16.211 21.0653 17.2059 21.9061 18.375 22.4175V23.2969L16.1897 24.9375H15.0938C13.5281 24.9399 12.0272 25.563 10.9201 26.6701C9.81297 27.7772 9.18993 29.2781 9.1875 30.8438V38.7188C9.18906 39.2404 9.39698 39.7403 9.76585 40.1091C10.1347 40.478 10.6346 40.6859 11.1562 40.6875H30.8438C31.3654 40.6859 31.8653 40.478 32.2341 40.1091C32.603 39.7403 32.8109 39.2404 32.8125 38.7188V30.8438C32.8101 29.2781 32.187 27.7772 31.0799 26.6701C29.9728 25.563 28.4719 24.9399 26.9062 24.9375ZM14.4375 11.1562V11.6287C14.2386 11.5148 14.0732 11.3505 13.958 11.1524C13.8428 10.9542 13.7818 10.7292 13.7812 10.5V8.53125C13.7812 7.66101 14.127 6.82641 14.7423 6.21106C15.3577 5.5957 16.1923 5.25 17.0625 5.25H28.2188V8.53125C28.2172 9.33627 27.918 10.1123 27.3787 10.71C27.3 10.6185 27.1943 10.5542 27.0769 10.5263L19.8581 8.5575C19.7172 8.51678 19.5665 8.52605 19.4316 8.58375L14.8378 10.5525C14.7192 10.6027 14.618 10.6868 14.5468 10.7941C14.4756 10.9015 14.4376 11.0274 14.4375 11.1562ZM15.75 16.4062V11.5894L19.7334 9.88313L26.25 11.655V16.4062C26.25 17.7986 25.6969 19.134 24.7123 20.1186C23.7277 21.1031 22.3924 21.6562 21 21.6562C19.6076 21.6562 18.2723 21.1031 17.2877 20.1186C16.3031 19.134 15.75 17.7986 15.75 16.4062ZM19.425 24.15C19.506 24.0884 19.5718 24.009 19.6173 23.918C19.6628 23.827 19.6868 23.7268 19.6875 23.625V22.8375C20.5538 23.0125 21.4462 23.0125 22.3125 22.8375V23.625C22.3132 23.7268 22.3372 23.827 22.3827 23.918C22.4282 24.009 22.494 24.0884 22.575 24.15L24.5962 25.6659L21 29.2622L17.4038 25.6659L19.425 24.15ZM31.5 38.7188C31.5 38.8928 31.4309 39.0597 31.3078 39.1828C31.1847 39.3059 31.0178 39.375 30.8438 39.375H11.1562C10.9822 39.375 10.8153 39.3059 10.6922 39.1828C10.5691 39.0597 10.5 38.8928 10.5 38.7188V30.8438C10.5014 29.6258 10.9858 28.4582 11.847 27.597C12.7082 26.7358 13.8758 26.2514 15.0938 26.25H16.1372L20.5341 30.6534C20.658 30.7764 20.8254 30.8454 21 30.8454C21.1746 30.8454 21.342 30.7764 21.4659 30.6534L25.8628 26.25H26.9062C28.1242 26.2514 29.2918 26.7358 30.153 27.597C31.0142 28.4582 31.4986 29.6258 31.5 30.8438V38.7188Z" fill="white"/>
<path d="M11.8125 36.75H13.125V38.0625H11.8125V36.75Z" fill="white"/>
<path d="M14.4375 36.75H27.5625V38.0625H14.4375V36.75Z" fill="white"/>
<path d="M28.875 36.75H30.1875V38.0625H28.875V36.75Z" fill="white"/>
</svg>
