<svg width="64" height="64" fill="none" xmlns="http://www.w3.org/2000/svg"><path d="M62.933 6.4h-3.2c-3.32 0-6.626-.533-9.786-1.587a31.183 31.183 0 01-8.774-4.6 1.08 1.08 0 00-1.28 0A31.138 31.138 0 0121.333 6.4h-3.2a1.07 1.07 0 00-1.066 1.067v8.32c0 1.92.16 3.826.466 5.72l2.107-.347a32.956 32.956 0 01-.44-5.373V8.533h2.133a33.267 33.267 0 0019.2-6.146 33.758 33.758 0 008.734 4.453 33.216 33.216 0 0010.466 1.693h2.134v7.254A33.224 33.224 0 0143.013 45.64l-2.946 1.4.92 1.92 2.946-1.4A35.366 35.366 0 0064 15.787v-8.32A1.07 1.07 0 0062.933 6.4z" fill="#DC2C2C"/><path d="M42.107 43.72a31.094 31.094 0 0017.626-27.933v-4.08c0-.574-.453-1.054-1.04-1.067a35.307 35.307 0 01-17.6-5.32 1.06 1.06 0 00-1.12 0 35.306 35.306 0 01-17.6 5.32 1.073 1.073 0 00-1.04 1.067v4.08c0 1.933.187 3.853.547 5.746l2.093-.4a27.62 27.62 0 01-.506-5.346v-3.054A37.544 37.544 0 0040.533 7.48 37.382 37.382 0 0057.6 12.733v3.054a28.957 28.957 0 01-16.413 26l-1.107.52.907 1.933 1.12-.52z" fill="#DC2C2C"/><path d="M0 60.667A3.335 3.335 0 003.333 64h36a3.335 3.335 0 003.334-3.333 3.34 3.34 0 00-.974-2.36l-3.293-3.28V45c0-6.893-4.6-12.947-11.24-14.8l2.6-5.187a1.05 1.05 0 00-.48-1.426.874.874 0 00-.48-.107H13.867a1.07 1.07 0 00-1.067 1.067c0 .16.04.333.107.48l2.6 5.186c-6.64 1.827-11.24 7.88-11.24 14.774v10.026L.973 58.32A3.287 3.287 0 000 60.667zM27.08 25.6l-2.133 4.267h-7.214L15.6 25.6h11.48zM2.48 59.827l3.6-3.6c.2-.2.307-.467.307-.76v-10.48c0-6.36 4.52-11.814 10.76-12.987h8.333c6.24 1.173 10.773 6.64 10.76 12.987v10.48c0 .28.107.56.307.76l3.6 3.6a1.192 1.192 0 01-.84 2.04H3.333a1.195 1.195 0 01-.853-2.04z" fill="#fff"/><path d="M19.733 48h3.2c.88 0 1.6.72 1.6 1.6 0 .88-.72 1.6-1.6 1.6h-5.866v2.133h3.2v2.134H22.4v-2.134h.533a3.727 3.727 0 003.734-3.733 3.727 3.727 0 00-3.734-3.733h-3.2c-.88 0-1.6-.72-1.6-1.6 0-.88.72-1.6 1.6-1.6H25.6v-2.134h-3.2V38.4h-2.133v2.133h-.534A3.727 3.727 0 0016 44.267 3.727 3.727 0 0019.733 48z" fill="#fff"/><path d="M41.6 10.667h-2.133V12.8H41.6v-2.133zm13.867 4.266h-2.134v2.134h2.134v-2.134zm-27.734 0H25.6v2.134h2.133v-2.134zm23.467 12.8h-2.133v2.134H51.2v-2.134zm-9.6 9.6h-2.133v2.134H41.6v-2.134zm-9.6-9.6h-2.133v2.134H32v-2.134z" fill="#DC2C2C"/></svg>