<svg xmlns="http://www.w3.org/2000/svg" width="81" height="81" fill="none"><path fill="#fff" d="M39.2 47.03v2.62h-3.93v18.29h3.92v2.6h2.62v-2.6a5.23 5.23 0 003.45-9.15 5.21 5.21 0 00-3.45-9.14v-2.62h-2.62zm2.6 18.3H37.9V60.1h3.92a2.62 2.62 0 010 5.22zm2.62-10.46a2.62 2.62 0 01-2.61 2.61h-3.92v-5.22h3.92a2.62 2.62 0 012.6 2.61zm15.68-41.8c-2.78 0-5.42.55-7.84 1.53v-4.15h-2.61v5.44c-.92.53-1.8 1.13-2.62 1.79V7.84h-2.61v12.35a20.9 20.9 0 00-2.61 3.68V0h-2.62v23.87a20.9 20.9 0 00-2.6-3.68V7.84h-2.62v9.84c-.82-.66-1.7-1.26-2.62-1.79v-5.44h-2.6v4.15A20.93 20.93 0 000 33.96c-.01 4.54 1.45 8.72 3.9 12.15V64h2.62v-14.9c.82.77 1.68 1.5 2.62 2.13v18h2.6v-16.5c.85.4 1.72.77 2.62 1.07v21.96h2.61V54.5c.98.19 1.99.29 3 .33A20.93 20.93 0 0040.5 79.7a20.93 20.93 0 0020.52-24.87c1.02-.04 2.02-.14 3-.33v21.28h2.6V53.81c.91-.3 1.78-.66 2.62-1.07v16.5h2.61v-18c.94-.64 1.8-1.36 2.62-2.13V64h2.61v-17.9A20.77 20.77 0 0081 33.97c0-11.53-9.38-20.9-20.9-20.9zm-39.2 2.6c9.2 0 16.81 6.84 18.08 15.68H27.93l-1.71 3.43-4.05-9.45-4.9 12.24-3.8-15.18-5.13 10.27H2.68A18.3 18.3 0 0120.9 15.68zM2.68 35.28h7.27l2.7-5.4 4.05 16.17 5.55-13.89L26.04 41l3.5-7.02h9.65c0 1.35-.15 2.7-.45 4-8.46.72-15.5 6.48-18.08 14.28A18.3 18.3 0 012.68 35.27zM40.5 77.08A18.31 18.31 0 0122.21 58.8c0-10.09 8.2-18.29 18.29-18.29s18.29 8.2 18.29 18.29-8.2 18.3-18.29 18.3zm19.84-24.83a20.93 20.93 0 00-18.08-14.27 18.31 18.31 0 0117.84-22.3c10.08 0 18.29 8.2 18.29 18.29 0 10-8.08 18.14-18.05 18.28zm-4.16 6.54c0 3.66-1.3 7.22-3.64 10.03l-2-1.67a13.08 13.08 0 00-18.4-18.4l-1.67-2a15.7 15.7 0 0125.7 12.04zm-7.32 10.04l1.67 2a15.7 15.7 0 01-25.7-12.04c0-3.66 1.28-7.22 3.63-10.03l2 1.67a13.08 13.08 0 0018.4 18.4zm1.83-34.86l9.4 14.11 9.42-14.11-9.41-14.12-9.41 14.12zm8.1.8l-4.5-1.5 4.5-6.74v8.24zm0 2.75v3.89l-3.33-5 3.33 1.11zm2.61 0l3.34-1.1-3.34 4.99v-3.89zm0-2.75v-8.25l4.5 6.75-4.5 1.5zM3.92 66.63h2.61v2.61H3.92v-2.61zm5.23 5.22h2.6v2.62h-2.6v-2.62zm5.22 6.54h2.61V81h-2.6v-2.61zm62.71-9.15h-2.61v-2.61h2.61v2.61zm-5.23 5.23h-2.6v-2.62h2.6v2.62zm-5.22 3.92V81h-2.61v-2.61h2.6zM33.97 5.23V2.6h2.61v2.62h-2.61zm10.45 0V2.6h2.61v2.62h-2.61z"/></svg>