<svg width="59" height="59" fill="none" xmlns="http://www.w3.org/2000/svg"><path d="M44.305 29.113a19.199 19.199 0 01-6.95 6.904L29.5 40.563l-7.854-4.544a19.358 19.358 0 01-9.662-16.76V10.14a24.23 24.23 0 008.62-1.586 18.34 18.34 0 001.521-.645v3.051a19.386 19.386 0 009.661 16.76 15.63 15.63 0 0012.52 1.392z" fill="url(#a)"/><path d="M10.14 50.703h38.72v5.531H10.14v-5.53zm6.454-12.906h25.812v12.906H16.594V37.797z" fill="#2E2626"/><path d="M29.5 7.651a27.887 27.887 0 01-13.828 5.93v5.676a15.717 15.717 0 007.82 13.562L29.5 36.3l6.009-3.482a15.717 15.717 0 007.82-13.558v-5.677A27.896 27.896 0 0129.5 7.65zm4.148 14.808l.98 5.709-5.128-2.692-5.128 2.696.98-5.71-4.149-4.044 5.733-.83 2.564-5.197 2.564 5.195 5.733.83-4.149 4.043z" fill="url(#b)"/><path d="M29.5 12.39l-.42 3.662a3.687 3.687 0 005.036 3.842l3.68-1.476-4.148 4.044.98 5.71-5.128-2.696-5.128 2.696.98-5.71-4.149-4.044 5.733-.83 2.564-5.197z" fill="url(#c)"/><path d="M22.125 41.484h14.75v3.688h-14.75v-3.688z" fill="url(#d)"/><path d="M48.86 49.781h-5.532V37.797a.921.921 0 00-.922-.922h-4.701l.108-.063a20.34 20.34 0 0010.124-17.551v-9.12a.922.922 0 00-.921-.922 23.306 23.306 0 01-15.497-5.892l-1.407-1.25a.922.922 0 00-1.225 0l-1.406 1.25a23.306 23.306 0 01-15.497 5.892.922.922 0 00-.921.921v9.12a20.342 20.342 0 0010.119 17.552l.113.063h-4.701a.922.922 0 00-.922.922V49.78H10.14a.922.922 0 00-.922.922v5.531a.922.922 0 00.922.922h38.718a.921.921 0 00.922-.922v-5.531a.922.922 0 00-.922-.922zM22.105 35.215a18.494 18.494 0 01-9.2-15.954v-8.216a25.137 25.137 0 0015.8-6.344L29.5 4l.795.705a25.137 25.137 0 0015.799 6.34v8.217a18.491 18.491 0 01-9.2 15.954l-2.865 1.66h-3.68l5.623-3.254a16.64 16.64 0 008.278-14.36v-5.677a.922.922 0 00-.8-.914 26.97 26.97 0 01-13.367-5.734.922.922 0 00-1.156 0 26.962 26.962 0 01-13.372 5.734.922.922 0 00-.8.914v5.677a16.643 16.643 0 008.274 14.36l5.624 3.254H24.97l-2.864-1.66zm7.394.022l-5.547-3.212a14.793 14.793 0 01-7.36-12.764v-4.88A28.818 28.818 0 0029.5 8.826a28.826 28.826 0 0012.906 5.555v4.88a14.792 14.792 0 01-7.36 12.765l-5.546 3.21zm-11.984 3.482h23.968V49.78H17.516V38.72zm30.422 16.593H11.062v-3.687h36.876v3.687z" fill="#DC2C2C"/><path d="M34.639 22.784l3.803-3.701a.922.922 0 00-.51-1.572l-5.255-.763-2.347-4.764a.96.96 0 00-1.66 0l-2.349 4.761-5.254.763a.92.92 0 00-.51 1.575l3.802 3.706-.897 5.232a.922.922 0 001.337.966l4.701-2.47 4.702 2.47a.909.909 0 00.817.022.924.924 0 00.52-.992l-.9-5.233zm-1.636-.982a.922.922 0 00-.264.816l.663 3.872-3.473-1.83a.921.921 0 00-.858 0l-3.474 1.826.664-3.871a.923.923 0 00-.266-.816l-2.81-2.74 3.883-.565a.921.921 0 00.695-.503l1.737-3.518 1.738 3.521a.917.917 0 00.694.503l3.884.566-2.813 2.74zm3.872 18.761h-14.75a.922.922 0 00-.922.921v3.688a.922.922 0 00.922.922h14.75a.922.922 0 00.922-.922v-3.688a.922.922 0 00-.922-.922zm-.922 3.687H23.047v-1.844h12.906v1.844zM52.547 5.07h-.922v-.922a.922.922 0 10-1.844 0v.922h-.922a.922.922 0 000 1.844h.922v.922a.922.922 0 001.844 0v-.922h.922a.922.922 0 100-1.844zm3.687 2.305a.922.922 0 100-1.844.922.922 0 000 1.844zm-10.14-3.687a.922.922 0 100-1.844.922.922 0 000 1.843zm4.609 30.882h-.922v-.922a.922.922 0 10-1.843 0v.922h-.922a.921.921 0 100 1.844h.922v.922a.922.922 0 101.843 0v-.922h.922a.922.922 0 000-1.844zm4.61 2.305a.922.922 0 100-1.844.922.922 0 000 1.844zm-2.766-6.453a.922.922 0 100-1.844.922.922 0 000 1.844zM10.14 37.336v-.922h.922a.922.922 0 000-1.844h-.921v-.922a.922.922 0 10-1.844 0v.922h-.922a.922.922 0 100 1.844h.922v.922a.922.922 0 101.844 0zm-2.765 5.07h-.922v-.922a.922.922 0 10-1.844 0v.922h-.921a.922.922 0 000 1.844h.921v.922a.922.922 0 101.844 0v-.922h.922a.922.922 0 100-1.844zM2.766 11.984h.921v.922a.922.922 0 001.844 0v-.922h.922a.922.922 0 000-1.843h-.922v-.922a.922.922 0 00-1.843 0v.922h-.922a.922.922 0 000 1.843zm7.374-6.453h.922v.922a.922.922 0 101.844 0v-.922h.922a.922.922 0 000-1.843h-.922v-.922a.922.922 0 10-1.844 0v.921h-.921a.922.922 0 000 1.844zM2.766 36.875a.922.922 0 100-1.844.922.922 0 000 1.844zm2.765-6.453a.922.922 0 100-1.844.922.922 0 000 1.844zM4.61 5.531a.922.922 0 100-1.844.922.922 0 000 1.844z" fill="#DC2C2C"/><defs><linearGradient id="a" x1="28.145" y1="7.91" x2="28.145" y2="40.562" gradientUnits="userSpaceOnUse"><stop stop-color="#DBDBDB"/><stop offset="1" stop-color="#A8A8A8"/></linearGradient><linearGradient id="b" x1="29.5" y1="7.651" x2="29.5" y2="36.301" gradientUnits="userSpaceOnUse"><stop/><stop offset="1" stop-color="#5D5D5D"/></linearGradient><linearGradient id="c" x1="29.5" y1="12.391" x2="29.5" y2="28.172" gradientUnits="userSpaceOnUse"><stop stop-color="#DBDBDB"/><stop offset="1" stop-color="#A8A8A8"/></linearGradient><linearGradient id="d" x1="29.5" y1="41.484" x2="29.5" y2="45.172" gradientUnits="userSpaceOnUse"><stop stop-color="#DBDBDB"/><stop offset="1" stop-color="#A8A8A8"/></linearGradient></defs></svg>