<svg width="20" height="20" viewBox="0 0 20 20" fill="none" xmlns="http://www.w3.org/2000/svg">
<path fill-rule="evenodd" clip-rule="evenodd" d="M5.63813 11.2524L1.44264 9.67186C1.01642 9.51084 1.01309 8.9036 1.43764 8.73818L18.6553 2.03428C19.0204 1.89195 19.3971 2.21453 19.3171 2.60141L16.2274 17.6023C16.1546 17.9568 15.7434 18.1173 15.4528 17.904L11.2351 14.8134C10.9789 14.626 10.6299 14.6359 10.3849 14.8376L8.04596 16.7615C7.77478 16.9858 7.36579 16.861 7.26187 16.523L5.63813 11.2524ZM15.1992 5.31474L6.99993 10.4112C6.68541 10.6074 6.53759 10.9905 6.63929 11.3488L7.52562 14.4927C7.58841 14.7153 7.90905 14.6927 7.93961 14.4625L8.17022 12.7386C8.21357 12.4138 8.36694 12.1148 8.60478 11.8912L15.3715 5.5428C15.4982 5.4241 15.3465 5.22296 15.1992 5.31474Z" fill="white"/>
</svg>
