<svg width="71" height="71" fill="none" xmlns="http://www.w3.org/2000/svg"><circle cx="35.5" cy="35.5" r="35.5" fill="url(#a)"/><path d="M38.68 27.32c-.354 0-.71.323-.71 1.404 0 1.082.356 1.405.71 1.405.356 0 .711-.323.711-1.405 0-1.081-.355-1.404-.71-1.404zm-7.57-3.922c0-1.082-.355-1.405-.71-1.405s-.71.323-.71 1.405c0 1.081.355 1.404.71 1.404s.71-.323.71-1.404z" fill="#fff"/><path d="M27.555 35H41.32l4.001-4.501a5.94 5.94 0 012.182-1.546c.02-.29.03-.584.03-.88C47.532 20.864 41.669 15 34.46 15c-7.209 0-13.073 5.864-13.073 13.073 0 2.846.914 5.482 2.465 7.63A10.016 10.016 0 0127.555 35zM27.4 23.397c0-2.002 1.291-3.148 3.002-3.148 1.711 0 3.003 1.146 3.003 3.148 0 2.017-1.292 3.147-3.003 3.147-1.71 0-3.002-1.13-3.002-3.147zm1.92 8.313l7.717-11.3h2.727l-7.715 11.3H29.32zm9.363.161c-1.71 0-3.002-1.13-3.002-3.148 0-2.001 1.291-3.147 3.002-3.147 1.711 0 3.002 1.146 3.002 3.147 0 2.018-1.29 3.148-3.002 3.148z" fill="#fff"/><path d="M51.99 31.772a3.468 3.468 0 00-2.227-.807c-.961 0-1.917.396-2.603 1.168l-4.282 4.817c.49.715.777 1.577.777 2.505 0 2.463-2.019 4.467-4.5 4.467h-6.542V41.46h6.541c1.125 0 2.04-.9 2.04-2.006 0-1.035-.801-1.89-1.826-1.995H27.555a7.563 7.563 0 00-7.563 7.563v4.621h12.842v-1.721h10.462l9.167-11.282a3.48 3.48 0 00-.473-4.87zM34.065 52.105H18.762V57h15.303v-4.895z" fill="#fff"/><defs><linearGradient id="a" x1="35.068" y1="70.961" x2="35.068" y2="2.081" gradientUnits="userSpaceOnUse"><stop offset=".081" stop-color="#962A2A"/><stop offset="1" stop-color="#D21515"/></linearGradient></defs></svg>