<svg width="128" height="128" fill="none" xmlns="http://www.w3.org/2000/svg"><path d="M63.999 126.745c34.653 0 62.745-28.092 62.745-62.745S98.652 1.255 63.999 1.255 1.254 29.347 1.254 64s28.092 62.745 62.745 62.745z" fill="#424B55"/><path fill-rule="evenodd" clip-rule="evenodd" d="M64 2.51C30.04 2.51 2.51 30.04 2.51 64S30.04 125.49 64 125.49 125.49 97.96 125.49 64 97.96 2.51 64 2.51zM0 64C0 28.654 28.654 0 64 0c35.346 0 64 28.654 64 64 0 35.346-28.654 64-64 64-35.346 0-64-28.654-64-64z" fill="#000"/><path d="M37.94 40.87a.483.483 0 00-.214.351c-.676.961-1.264 1.938-1.46 3.15-.304 1.882-.036 3.706.518 5.482.516 1.65 1.443 3.067 2.877 4.1.044.245.251.343.43.458a6.842 6.842 0 002.596.958c1.302.227 2.624.547 3.87-.266.245-.136.518-.213.798-.226.959-.09 1.757-.541 2.54-1.05.878-.575 1.757-1.157 2.635-1.732.388-.251.777-.458.718-1.06-.03-.31.251-.1.407-.062.538 1.207 1.035 2.44 2.027 3.376.107.274.346.433.556.612a12.116 12.116 0 004.836 2.526c2.078.551 4.183.82 6.352.627 1.931-.169 3.825-.474 5.632-1.165 1.183-.453 2.384-.92 3.345-1.799 2.153-1.957 3.47-4.35 3.784-7.265.045-.423.126-.843.202-1.33.403.87.251 1.69.175 2.52a8.626 8.626 0 01-1.255 3.858c-.195.311-.447.601-.502.988-.066.04-.155.078-.042.158.009.006.07-.06.106-.093l2.591-.762c.184 0 .369-.014.55-.044.955-.233.943-.237.812-1.24-.338-2.565-1.13-5.005-1.99-7.429a6.694 6.694 0 00-.996-1.882c-.064.299.038.502.063.715.1.837.563 1.573.663 2.408l-.408-.01c-.271-.897-.553-1.788-1.312-2.42-.055-3.046.974-5.728 2.8-8.116a16.272 16.272 0 015.727-4.674c.337-.168.753-.251 1.046-.77-1.465-.052-2.814-.096-4.168-.015-2.452.092-4.884.422-7.327.628-1.958.163-3.844.642-5.719 1.213-1.688.515-3.406.933-5.121 1.348-.6.146-1.217.218-1.807.42-.973.332-1.204.638-1.255 1.757-.023.151-.03.304-.023.456.154.977.384 1.11 1.354.865.265-.067.42-.155.512-.436.163-.493.393-.965.595-1.445.57-.71 1.115-1.457 2.259-1.61-.292.548-.788.769-.985 1.22-.527.443-.744 1.047-.863 1.696-.053.283.042.472.364.522.368.042.732.12 1.085.236.427.16.614.096.84-.35.588-1.161 1.415-2.102 2.803-2.337l.08.088c-.3.266-.6.53-.897.797-.587.53-.832 1.216-.911 1.981-.028.269.016.495.25.655l1.61 1.106c.56-1.13 1.255-2.02 2.57-2.11a5.15 5.15 0 01-.635.674c-.988.992-1.146 2.145-.478 3.366.186.322.353.654.502.995 1.56 3.807 1.792 7.46-.822 11.018-2.706 3.686-8.878 3.932-11.5.35a14.968 14.968 0 01-1.38-4.674c-.294-2.494.012-4.87 1.223-7.094.399-.733.403-.73-.275-1.332a13.726 13.726 0 01-1.175-2.45c-.081-.426.043-.894-.214-1.343a6.117 6.117 0 00-1.92 2.285c-.113.235-.126.567-.502.59-.117-.463.11-.854.294-1.239.3-.65.71-1.242 1.213-1.75.502-.496.49-.516-.026-1.004a9.134 9.134 0 00-1.891-1.344c-1.231-.687-2.56-1.09-3.91-1.46a9.097 9.097 0 00-3.783-.196c-.558.085-.858-.064-1.176-.468-.68-.863-1.13-1.85-1.597-2.828-.732-1.546-1.913-2.646-3.34-3.521-.278-.4-.725-.569-1.129-.791-2.44-1.358-4.99-2.475-7.596-3.472-.855-.327-1.717-.628-2.792-1.028 1.454 3.343 3.035 6.372 4.61 9.405 0 .112.027.205.149.239l-.02-.025c0 .168.028.315.203.39l-.015-.018c-.014.17.02.317.195.39l-.013.014c.125.642.471 1.198.717 1.792 1.137 2.741 1.776 5.568 1.52 8.556a.596.596 0 00-.16.397z" fill="#040303"/><path fill-rule="evenodd" clip-rule="evenodd" d="M27.262 16.422l4.148 1.545c.435.162.857.315 1.265.463.542.198 1.058.385 1.542.57h.002c2.655 1.017 5.291 2.17 7.83 3.582l.017.008c.086.044.476.246.666.361.234.143.522.344.794.636 1.526.984 2.903 2.287 3.784 4.147l.08.167c.39.817.7 1.463 1.09 2.024a10.98 10.98 0 014.174.292l.005.001.005.002c1.358.37 2.873.821 4.314 1.622.805.432 1.554.962 2.228 1.578l.297-.214 1.04 1.815c.344.603.402 1.18.419 1.523.004.08.008.25.01.327.222.576.488 1.135.797 1.67.1.09.203.19.295.289.169.182.5.57.62 1.16a2.35 2.35 0 01-.148 1.371c-.087.213-.21.437-.289.582l-.02.039c-.988 1.814-1.266 3.78-1.009 5.968.17 1.356.55 2.677 1.127 3.915.882 1.102 2.372 1.71 4.04 1.654 1.73-.058 3.37-.828 4.327-2.133 2.093-2.849 2.006-5.745.606-9.17a7.99 7.99 0 00-.398-.788l-.011-.019-.011-.019a5.467 5.467 0 01-.418-.97l-2.06-1.415-.002-.002a2.51 2.51 0 01-.489-.439 2.685 2.685 0 01-1.227-.168 3.62 3.62 0 00-.682-.145l-.039-.004-.04-.006a2.59 2.59 0 01-.594-.167c-.22.101-.413.154-.534.185a4.887 4.887 0 01-.98.161 2.52 2.52 0 01-1.468-.367 2.484 2.484 0 01-.976-1.204 4.601 4.601 0 01-.251-.989l-.015-.095-.005-.097a4.112 4.112 0 01.026-.73c.03-.584.122-1.392.63-2.099.554-.769 1.358-1.082 1.894-1.264a9.01 9.01 0 011.131-.294l.304-.06c.2-.04.36-.072.535-.114 1.723-.417 3.389-.823 5.016-1.32 1.922-.584 3.956-1.108 6.111-1.288m-13.689 6.909v-.001zm11.253 3.074c-.24.251-.286.419-.297.498-.012.083-.013.265.16.588.217.377.412.765.585 1.163l.008.018.008.019c1.714 4.18 2.085 8.583-1.046 12.846a8.537 8.537 0 01-1.628 1.675c.09-.032.178-.064.266-.098m-11.888.14a7.687 7.687 0 01-1.286-1.369l-.101-.138-.075-.154a16.848 16.848 0 01-1.554-5.262v-.006l-.001-.006c-.309-2.62-.034-5.23 1.181-7.714a15.99 15.99 0 01-.437-.775c-.119.14-.268.284-.457.412a2.308 2.308 0 01-1.167.392l-1.557.093-.381-1.512c-.295-1.17.256-2.202.393-2.459a1.98 1.98 0 00.023-.044c.206-.443.45-.865.732-1.262a7.259 7.259 0 00-.62-.372l-.015-.008-.015-.008c-1.015-.566-2.15-.922-3.484-1.287a7.215 7.215 0 00-2.996-.154l-.008.002h-.008c-.485.074-1.076.08-1.684-.175-.598-.25-.992-.66-1.251-.99-.766-.972-1.285-2.063-1.702-2.94l-.114-.24-.002-.003-.002-.004c-.53-1.12-1.403-1.974-2.623-2.722l-.335-.206-.175-.252a3.306 3.306 0 00-.19-.104l-.053-.027a14.33 14.33 0 01-.298-.156l-.004-.003-.005-.002c-1.865-1.039-3.811-1.937-5.819-2.754a252.707 252.707 0 002.622 5.135l.36.45 1.797.758-.662.662.257.32 3.639 4.246-3.347-1.445c.744 2.334 1.125 4.79.902 7.387l-.055.646-.348.375-.029.253-.277.395c-.64.908-1.016 1.594-1.141 2.367-.245 1.51-.041 3.027.456 4.622.41 1.315 1.12 2.37 2.18 3.133l.618.445.023.124a4.96 4.96 0 001.566.513l.02.003.022.003.326.058c.56.1.943.168 1.327.172.377.004.628-.063.865-.218l.058-.037.06-.034A3.71 3.71 0 0147.21 53c.46-.05.922-.272 1.658-.75.436-.285.872-.572 1.31-.861h.001c.407-.269.815-.538 1.225-.806a1.94 1.94 0 01.577-1.057c.74-.705 1.625-.53 1.795-.493.188.04.358.106.434.137l.788.191.377.845.078.175c.546 1.228.893 2.005 1.521 2.597l.31.292.064.165.004.003.108.09.002.002.002.002c.902.772 1.929 1.38 3.034 1.8zm-6.201-6.125zm-2.568 1.164l.004-.002-.004.002zm-10.75 2.376l-.004-.003a.02.02 0 00.004.003zm-1.432-11.069a1.283 1.283 0 01-.067.079l.065-.07a1.397 1.397 0 01-.569.757l-1.034-1.572 1.882.03a1.286 1.286 0 01-.25.74l.024-.212c-.01.085-.026.167-.05.248zm-3.293-1.759c.138-2.467-.408-4.86-1.411-7.278v-.001l-.001-.001a6.952 6.952 0 00-.18-.396 18.858 18.858 0 01-.2-.425c-.1-.22-.213-.489-.31-.795a2.171 2.171 0 01-.217-.436 2.213 2.213 0 01-.178-.371 2.055 2.055 0 01-.19-.457l-.012-.024c-1.526-2.937-3.086-5.941-4.526-9.252l-1.766-4.06m9.985 12.705v.01-.01zm-.994 10.791l-.024.058.024-.058zm-.024.058a2.377 2.377 0 00-.215.41c-.666.972-1.36 2.165-1.606 3.684-.365 2.256-.032 4.385.578 6.343v.001l.001.001c.575 1.84 1.602 3.505 3.191 4.775.13.188.273.34.409.458.138.121.268.208.344.258l.093.058.003.002.04.025.014.01.014.008a8.726 8.726 0 003.287 1.218c.088.015.183.033.285.052 1.11.21 3.013.57 4.797-.523h.022l.043-.005c1.449-.134 2.578-.817 3.392-1.347l.002-.001.002-.001c.442-.29.884-.58 1.323-.87l.796-.523a8.18 8.18 0 001.114 1.478c.15.24.316.422.453.555a4.465 4.465 0 00.35.305l.055.046a13.998 13.998 0 005.58 2.915c2.234.592 4.562.898 6.996.682 2.01-.177 4.1-.503 6.139-1.283l.07-.027c1.128-.432 2.632-1.007 3.87-2.139.227-.205.445-.416.656-.631a1.899 1.899 0 001.41-.217l2.023-.594c.186-.01.372-.03.557-.061l.072-.012.071-.017.041-.01c.196-.048.476-.116.717-.206.268-.1.813-.338 1.191-.927.365-.569.367-1.147.359-1.403a7.543 7.543 0 00-.07-.71l-.008-.059c-.365-2.77-1.214-5.365-2.079-7.8a8.575 8.575 0 00-1.27-2.398l-.4-.53c.345-1.644 1.093-3.17 2.196-4.613a14.389 14.389 0 015.062-4.13l.007-.004.007-.004a1.03 1.03 0 01.065-.028l.108-.047c.106-.046.282-.124.472-.235a3.205 3.205 0 001.198-1.218l1.52-2.694-3.092-.112c-1.447-.052-2.876-.1-4.326-.014-1.662.063-3.37.237-5.006.403-.819.083-1.62.165-2.387.23m1.7 18.156l-.111-.37c-.292-.963-.45-1.297-.715-1.518l-.661-.551-.016-.861c-.064-3.53 1.142-6.619 3.186-9.293l.003-.003.002-.003c.64-.83 1.349-1.6 2.117-2.303-.848.07-1.695.156-2.562.245-.85.086-1.719.175-2.628.252h-.002c-1.434.12-2.852.43-4.317.842l.991 1.036-.531.472c.102-.014.206-.024.313-.032l4.224-.29-2.615 3.33a7.03 7.03 0 01-.814.873m4.136 8.174c-.054.326-.113.689-.15 1.027-.26 2.416-1.334 4.398-3.178 6.075l-.002.002-.001.001c-.657.6-1.518.958-2.749 1.43m-17.26-4.303zm.007-13.062l.003-.007-.003.007z" fill="#000"/><path d="M29.538 76.407l-.026-.035a.587.587 0 00.235.434c.054.355.301.606.49.879a28.937 28.937 0 006.15 6.56c3.915 3.03 8.246 5.286 12.788 7.18.053.17.208.222.344.287 2.032.966 4.148 1.631 6.4 1.812 1.748.14 3.461-.059 5.18-.361 1.987-.35 3.984-.68 5.876-1.38 2.703-1.005 5.359-2.134 8.041-3.182a1.674 1.674 0 00.957-.939c.535-1.153 1.108-2.288 1.66-3.433.176-.364.349-.73.281-1.154a3.96 3.96 0 00.295-.576c.719-2.274 1.456-4.543 2.133-6.83 1.255-4.204 1.895-8.523 2.34-12.874.126-1.262.342-2.522.274-3.8.251-1.096.07-2.208.126-3.31.015-.32-.16-.44-.457-.428-1.077.045-2.157.073-3.137.628-1.322.397-2.483 1.123-3.677 1.787-3.107 1.728-6.417 2.619-10 2.403a18.588 18.588 0 01-6.475-1.61c-2.615-1.165-4.748-2.908-5.734-5.76-.046-.132-.083-.291-.29-.37-.8.913-1.881 1.525-2.839 2.362.098.063.204.114.315.15 1.02.147 1.979.523 2.968.788.335.089.794.132.627.699-.275 0-.6.098-.813-.018-.742-.404-1.556-.404-2.342-.454-1.578-.1-3.153-.034-4.643.644-.888.406-1.296 1.098-1.335 2.05a4.962 4.962 0 00.774 2.824c.787 1.297 1.624 2.56 2.717 3.629.03.325-.09.534-.415.324a11.711 11.711 0 01-1.334-1.012c-1.38-1.204-2.52-2.567-2.943-4.417-.226-.984-.099-1.944.168-2.916-.795-.212-1.556-.209-2.258-.468-2.67-.992-4.735-2.678-6.038-5.245-.167-.328-.25-.704-.544-.963-.238-.94-.476-1.883-.718-2.831-.279.125-.298.33-.36.493a31.251 31.251 0 00-1.723 6.728c-.148 1.065-.377 2.134-.288 3.215-.149 1.184.066 2.32.433 3.439a1.79 1.79 0 01-.92-.885c-.545-1.22-1.423-1.004-2.363-.667a12.7 12.7 0 00-1.296.508 3.82 3.82 0 00-1.79 1.703c-.725 1.445-1.062 3.005-.789 4.602.58 3.401 1.987 6.492 3.765 9.422l-.026-.028c.042.162.08.31.236.396z" fill="#040303"/><path fill-rule="evenodd" clip-rule="evenodd" d="M35.93 44.844l.554 2.17c.207.812.412 1.619.614 2.42.14.201.236.389.304.533.053.112.1.227.13.298l.012.028c.035.083.049.114.057.13 1.064 2.096 2.733 3.485 5.013 4.331.156.058.355.1.727.157l.13.02c.325.048.777.116 1.233.238l.312.083c.245-.178.51-.33.788-.458h.002l.002-.002a9.274 9.274 0 012.532-.729l.896-.783c.428-.374.894-.722 1.283-1.012l.297-.223c.471-.357.815-.645 1.084-.951l.86-.98 1.22.46a2.28 2.28 0 011.142.939 2.461 2.461 0 01.25.546l.01.032.002.005c.762 2.196 2.403 3.617 4.72 4.649l.004.002.005.002a16.706 16.706 0 005.817 1.447c3.175.19 6.13-.591 8.968-2.17l.518-.292c.944-.537 2.085-1.186 3.34-1.592 1.302-.67 2.674-.722 3.606-.758l.185-.008M51.11 57.74c-1.468-.093-2.672-.008-3.741.478a.682.682 0 00-.153.09.12.12 0 00-.027.028c-.001.003-.046.071-.056.29a3.08 3.08 0 00.48 1.742l.012.018.01.018c.77 1.27 1.508 2.363 2.424 3.26l.497.486.062.692c.018.2.021.461-.035.747-.052.267-.19.72-.585 1.115a2.043 2.043 0 01-1.628.588 2.339 2.339 0 01-1.067-.38l-.001-.001-.002-.001a13.602 13.602 0 01-1.546-1.172c-1.51-1.319-2.987-3.006-3.538-5.414a6.652 6.652 0 01-.156-1.82 5.827 5.827 0 01-.752-.219h-.002c-2.733-1.015-4.986-2.705-6.535-5.217-.13.627-.24 1.26-.33 1.895-.039.283-.078.54-.114.777-.123.812-.213 1.397-.161 2.023l.016.196-.025.194c-.1.804.034 1.642.354 2.615l1.295 3.936-3.817-1.615a3.673 3.673 0 01-1.761-1.567l-.154.054-.021.008-.022.007c-.375.124-.743.268-1.103.432-.384.178-.7.477-.899.85-.58 1.165-.8 2.312-.609 3.426v.001c.527 3.089 1.813 5.953 3.519 8.763l-.03.023.362.507.223.166.028.185 2.596 3.635a27.05 27.05 0 003.425 3.18c3.741 2.895 7.91 5.074 12.359 6.93l.81.337.059.19c1.732.778 3.481 1.286 5.3 1.432 1.515.121 3.046-.047 4.703-.34M31.092 75.46a1.314 1.314 0 00-.081-.158 1.496 1.496 0 00-.137-.191l-1 .75 1.241-.328a1.287 1.287 0 00-.242-.236l.219.163zm-3.544 1.27c-1.773-2.97-3.226-6.197-3.84-9.797-.355-2.074.099-4.04.963-5.762l.006-.014.008-.013a5.702 5.702 0 012.67-2.542l.004-.001.002-.002c.478-.218.967-.41 1.465-.575.327-.117.905-.324 1.565-.36-.027-.98.125-1.953.243-2.707.03-.186.056-.358.078-.514v-.002a33.191 33.191 0 011.82-7.113 3.329 3.329 0 01.21-.51 2.401 2.401 0 011.144-1.054l2.043-.92M27.55 76.731c.051.153.139.364.284.584l-.284-.584zm.284.584a2.476 2.476 0 00.234.422c.094.234.206.424.3.57.084.126.167.237.219.307l.026.035.078.104a30.82 30.82 0 006.542 6.977l.002.002.002.002c3.964 3.068 8.306 5.352 12.793 7.251.078.07.156.129.23.179a2.664 2.664 0 00.422.233l.014.007.009.004.004.002h.003v.001h.002c2.187 1.041 4.526 1.786 7.057 1.99M36.13 48.444c0-.002 0 0-.002.003l.001-.004zm14.98 9.295l.172.011c.841.054 1.12.071 1.39.218.33.18.645.245.874.27.224.024.42.016.541.007.11-.008.244-.023.275-.026l.041-.004h.884c1 .807 2.117 1.448 3.281 1.966a20.468 20.468 0 007.127 1.771h.005c3.989.24 7.651-.759 11.027-2.636.223-.124.435-.244.639-.359.993-.56 1.777-1.003 2.666-1.271l.201-.06.183-.104c.233-.132.482-.213.794-.267l.002.11c.006.51-.014.882-.089 1.208l-.059.257.014.263c.043.798-.044 1.543-.15 2.452a76.78 76.78 0 00-.117 1.06c-.44 4.302-1.065 8.486-2.27 12.525l-.002.003a271.419 271.419 0 01-1.623 5.221l-.472 1.488c-.037.082-.08.161-.127.238l-.37.596.085.537a3.42 3.42 0 01-.093.197c-.183.38-.375.77-.569 1.168-.369.752-.748 1.527-1.103 2.29l-.002.005c-1.07.419-2.107.838-3.132 1.252a173.354 173.354 0 01-4.81 1.89c-1.627.603-3.358.907-5.29 1.247l-.26.046m21.933-34.171zm1.5-3.213c.668.58.781 1.353.758 1.849v.005c-.016.317-.01.6 0 .951.005.175.01.367.012.588.007.526-.004 1.159-.128 1.83.03 1.068-.097 2.153-.204 3.062-.032.275-.063.534-.087.771v.006c-.45 4.398-1.105 8.851-2.409 13.22a276.494 276.494 0 01-1.652 5.313l-.49 1.546-.025.075-.03.073c-.047.116-.098.23-.153.342-.063.667-.32 1.19-.441 1.436l-.027.055c-.205.425-.406.836-.605 1.241-.35.715-.692 1.412-1.027 2.132a3.555 3.555 0 01-2.001 1.937c-1 .39-2.025.804-3.062 1.223a187.71 187.71 0 01-5.003 1.967h-.002c-1.959.725-4.002 1.084-5.85 1.407l-.354.062c-1.778.314-3.673.544-5.656.384m28.437-41.475c-.606-.526-1.303-.564-1.66-.549l1.66.55z" fill="#000"/><path d="M108.708 33.408l.029.011a.986.986 0 00-.387-.577l.019.011a1.687 1.687 0 00-.102-.257 31.837 31.837 0 00-8.564-9.227 21.944 21.944 0 00-4.393-2.427c-5.834-2.45-11.951-3.475-18.257-3.53-2.022-.015-4.027.173-6.035.377-.487-.141-.985-.035-1.478-.067-.164-.01-.305-.07-.342-.251a.315.315 0 01.156-.317c.243-.16.502-.3.885-.525-1.24-.056-2.32-.12-3.401-.149-2.92-.075-5.83.105-8.732.377-2.311.222-4.628.434-6.902.961-.095-.015-.187-.021-.208.108l.035-.035c-.907.04-1.757.324-2.613.599-2.675.867-5.37 1.7-7.728 3.309-.191.125-.474.184-.502.548l1.873.944c1.004.763 2.154 1.343 3.002 2.313.109.125.193.138.361 0 .554-.463 1.246-.683 1.906-.948a33.416 33.416 0 016.626-1.873c.315-.056.664-.06.869-.453a.753.753 0 00-.565-.1c-1.206.126-2.413.268-3.573.628-1.838.57-3.695 1.098-5.422 1.979-.202.103-.502.356-.65.068-.148-.289.234-.377.421-.491 3.027-1.882 6.288-3.098 9.85-3.456.404-.04.808-.085 1.13-.377 1.94-1.798 4.426-2.296 6.875-2.877.175-.041.377-.098.467.2-.23.273-.594.284-.903.377-1.25.38-2.458.886-3.605 1.513a5.364 5.364 0 00-1.648 1.348c-1.23 1.518-1.169 2.636.25 3.991a9.25 9.25 0 001.092.869c.82.57 1.72 1.003 2.628 1.406a5216 5216 0 016.808 3.047c.258.117.502.251.797.158.616-.208 1.28-.258 1.867-.562l3.423-.812c.062 0 .124-.005.185-.014 3.284-.636 6.578-1.143 9.945-1.05 1.699.048 3.398.112 5.097.17.55.078 1.105.135 1.65.24 1.012.199 1.235.704.761 1.657-.569.326-1.195.514-1.797.759-4.141 1.68-7.305 4.409-9.216 8.512-.294.627-.287 1.088.114 1.69 1.642 2.466 2.982 5.083 3.815 7.946.714 2.451.768 4.963.82 7.48.061 2.84-.29 5.647-.792 8.43-.524 2.901-.859 5.837-1.69 8.679-1.178 4.026-2.404 8.031-4.028 11.904-.553 1.32-1.313 2.539-1.813 3.881a42.738 42.738 0 01-3.1 6.462c-2.57 4.453-5.397 8.721-9.103 12.338-.125.119-.317.207-.26.51 2.438-.077 4.873-.233 7.294-.605.561.061 1.102-.111 1.647-.184 1.254-.166 2.526-.164 3.744-.54a23.67 23.67 0 004.66-.955c1.123-.101 2.165-.51 3.234-.822a.67.67 0 00.434-.325c.433-.835 1.121-1.481 1.655-2.244 1.832-2.623 2.964-5.59 4.169-8.508 1.138-2.761 1.763-5.681 2.399-8.594a99.975 99.975 0 002.157-15.371c.24-4.035.167-8.07.126-12.106 0-.418.109-.872-.169-1.261.04-.502-.085-.982-.141-1.471a.32.32 0 01.24-.353.314.314 0 01.313.156c.327.45.556.962.673 1.506.272 1.081.315 2.2.502 3.294-.072.335-.173.672.125.962l.02.358c-.126.334-.055.676-.046 1.016.031 1.242.213 2.474.163 3.721-.09 2.295-.178 4.59-.306 6.886-.162 2.886-.565 5.751-1.067 8.59-.86 4.861-1.92 9.679-3.655 14.328-.95 2.542-2.008 5.02-3.438 7.326-.118.191-.298.377-.234.753.769-.363 1.53-.512 2.186-.933a21.93 21.93 0 004.266-1.836c.986-.441 1.956-.909 2.84-1.536a4.412 4.412 0 001.913-1.4c1.088-1.316 1.744-2.863 2.358-4.407 1.921-4.831 2.948-9.914 3.928-14.995.528-2.74.681-5.534.968-8.307.279.112.319.345.323.609.036 2.635 0 5.27-.3 7.905-.266 2.376-.762 4.714-1.222 7.056-.67 3.408-1.42 6.801-2.942 9.963-.022.048 0 .126 0 .182-.085 0-.167.012-.074.126.027-.04.052-.08.077-.12.927-.441 1.536-1.254 2.241-1.947.11-.067.208-.143.198-.292v.021c.524-.272.914-.694 1.289-1.13a22.355 22.355 0 002.834-3.127.24.24 0 00.175-.237v.01c.273-.125.389-.391.555-.61 2.196-2.901 3.322-6.29 4.412-9.694.051-.212.081-.428.091-.645.401-3.36.878-6.711 1.162-10.086.369-4.427.74-8.854.317-13.301-.423-4.448-1.149-8.851-2.982-13.006a58.647 58.647 0 00-4.675-8.66.364.364 0 00-.196-.297l.017-.043-.037-.03a.211.211 0 00-.168-.215z" fill="#040303"/><path fill-rule="evenodd" clip-rule="evenodd" d="M57.927 14.983c2.938-.276 5.932-.462 8.956-.384h.002c.755.02 1.524.058 2.32.096l1.114.053 6.329.282-.873.515c.428-.012.858-.018 1.29-.014 6.5.055 12.865 1.113 18.965 3.673a23.82 23.82 0 014.762 2.632l.003.003.004.002a33.749 33.749 0 019.071 9.772l.043.071.037.075.019.04c.145.172.269.36.37.562l.025.034.824.632-.185.462a60.378 60.378 0 014.485 8.408c1.952 4.429 2.702 9.067 3.132 13.584.437 4.6.058 9.156-.306 13.518l-.01.118v.001c-.207 2.47-.519 4.944-.825 7.374-.115.912-.229 1.818-.336 2.715-.018.31-.064.619-.136.921l-.017.07-.021.068c-1.081 3.371-2.287 7.062-4.704 10.255l-.001.001-.01.015-.043.064-.006.008a4.364 4.364 0 01-.185.261 3.029 3.029 0 01-.345.385c-.096.13-.206.247-.328.35a24.196 24.196 0 01-2.794 3.058c-.291.335-.694.776-1.232 1.156a2.29 2.29 0 01-.399.383c-.107.11-.219.228-.347.363l-.012.013c-.168.178-.366.387-.578.592-.186.18-.396.371-.634.557v.847h-.873l-.945 1.396-.941-1.157c-.234.36-.49.713-.772 1.055a6.29 6.29 0 01-2.48 1.885c-.96.653-1.968 1.137-2.89 1.551-1.38.77-2.832 1.4-4.336 1.881a7.684 7.684 0 01-1.179.527l-.26.095c-.288.105-.498.18-.722.286l-2.243 1.057-.2-1.174a2.958 2.958 0 00-.175.293l-.011.022-.013.023a2.555 2.555 0 01-1.59 1.23c-.167.05-.354.109-.556.174-.775.246-1.776.564-2.788.684a25.488 25.488 0 01-4.672.956c-.715.203-1.409.3-2.026.366-.311.034-.573.057-.818.079-.347.031-.658.059-1.02.108a3.91 3.91 0 00-.317.053c-.095.019-.215.043-.447.081-.276.044-.64.091-1.053.075-2.457.366-4.907.519-7.313.594l-1.606.051-.302-1.579a2.345 2.345 0 01.012-.957 2.22 2.22 0 01.397-.855c.152-.201.309-.337.375-.394l.05-.042c3.504-3.431 6.218-7.512 8.747-11.894l.003-.006.004-.007a40.851 40.851 0 002.962-6.17c.29-.777.646-1.498.968-2.135l.109-.215c.29-.574.544-1.077.762-1.597 1.58-3.767 2.78-7.683 3.956-11.704.57-1.943.883-3.881 1.218-5.948.133-.823.27-1.665.427-2.537M80.664 86.37a27.754 27.754 0 01-.875 1.84l-.107.212c-.321.637-.593 1.194-.803 1.758l-.002.006-.003.007a44.624 44.624 0 01-3.233 6.74c-1.947 3.372-4.076 6.707-6.653 9.761.897-.084 1.787-.19 2.671-.327l.245-.037.247.027c.032.003.114.005.323-.028.086-.014.169-.03.277-.05l.088-.017c.14-.026.316-.058.504-.083h.001c.414-.055.893-.099 1.316-.138.229-.021.441-.041.617-.06.584-.062 1.066-.14 1.504-.276l.18-.055.186-.019a21.719 21.719 0 004.289-.879l.193-.06.2-.018c.636-.057 1.183-.23 1.924-.463.163-.051.336-.106.52-.162.242-.381.498-.709.72-.982l.258-.315c.209-.253.37-.449.526-.672 1.524-2.182 2.527-4.627 3.62-7.293l.352-.855c1.047-2.542 1.639-5.25 2.272-8.148l.029-.133a98.102 98.102 0 002.116-15.08c.214-3.596.174-7.196.134-10.874l-.012-1.099v-.02c0-.09.003-.175.006-.244l.009-.158-.23-.322.053-.682a1.68 1.68 0 00-.024-.34 13.645 13.645 0 00-.022-.144c-.026-.173-.069-.45-.088-.614a2.203 2.203 0 011.652-2.406l.106-.026.108-.014a2.197 2.197 0 012.116.967 5.87 5.87 0 01.945 2.132c.162.648.25 1.283.319 1.84l.05.417c.05.415.093.778.156 1.149l.06.356-.006.032.057.055.078 1.488-.088.236.006.1c.005.074.015.203.018.338v.001c.011.439.043.868.078 1.346l.03.429c.045.631.084 1.337.055 2.069v.005c-.09 2.29-.18 4.599-.308 6.91-.168 2.988-.583 5.933-1.093 8.813-.867 4.904-1.95 9.852-3.745 14.658v.001a58.1 58.1 0 01-1.58 3.852c.57-.254 1.13-.535 1.674-.842l.076-.042.079-.036c.966-.431 1.793-.838 2.517-1.352l.2-.142.229-.086c.431-.162.81-.439 1.096-.801l.014-.017.014-.018c.878-1.063 1.443-2.354 2.059-3.903 1.847-4.645 2.846-9.562 3.829-14.656.37-1.918.543-3.827.726-5.842.068-.751.137-1.517.219-2.303l.257-2.481 2.316.928a2.334 2.334 0 011.292 1.25c.201.466.209.907.212 1.079.037 2.664.001 5.392-.312 8.145-.241 2.148-.662 4.267-1.065 6.294l-.181.912m0 0a90.129 90.129 0 01-.725 3.414c.347-.395.678-.805.993-1.227l.386-.516.15-.041.001-.002.018-.028.073-.108c.03-.043.067-.096.111-.153 1.959-2.589 3.002-5.648 4.093-9.05a1.54 1.54 0 00.029-.235l.003-.07.008-.07c.116-.97.237-1.927.356-2.877.302-2.401.599-4.757.8-7.143.371-4.456.723-8.714.319-12.966-.416-4.377-1.119-8.544-2.83-12.425l-.002-.003-.001-.004a56.802 56.802 0 00-4.446-8.258l-1.086-.554.488-1.22-.337.206a29.958 29.958 0 00-8.055-8.68 20.061 20.061 0 00-4.012-2.216l-.006-.003-.007-.003c-5.566-2.337-11.434-3.33-17.544-3.382m30.501 13.807l.438.176.25-.382-.688.206zm.485 2.056l.1-.257-.114-.068-.177.23c.061.036.125.067.191.095zm-.772-.787l.006.004.472-.721-.722.168c.018.15.057.296.115.434a.868.868 0 00.107.098l-.016-.237c.006.086.019.17.038.254zm-.28-.335l.01-.208-.078.018c.015.066.038.13.068.19zm-.165-.714l-.24.072a.287.287 0 00.015.04l.225-.112zm2.552 54.997a1.125 1.125 0 00-.285.217l.414-.115-.004-.007-.125-.095zm.124.092l-.122-.093a1.06 1.06 0 01.064-.032l.058.125zm.005.011a1.646 1.646 0 00-1.157 1.563l1.866-.024-.709-1.539zm-3.434-16.811c0-.032-.002-.029 0 0zm-2.581 26.963h.01-.01zm-3.927-36.349v.003-.003zm-5.233-4.223c0-.001 0-.001 0 0zm-43.297-42.07c2.248-.502 4.516-.719 6.649-.923l.262-.026h.004" fill="#000"/><path d="M62.25 35.49c.126-.464.26-.929.443-1.579-.932.452-1.696.827-2.466 1.194-.27.125-.337.347-.31.612.026.251.066.49.101.734a2.598 2.598 0 00.393 1.455c.269.017.432-.14.614-.24.428-.233 1.015-.39 1.222-.753.207-.364.019-.94.004-1.423z" fill="#040303"/><path fill-rule="evenodd" clip-rule="evenodd" d="M65.633 30.393l-1.126 4.026a287.198 287.198 0 01-.349 1.238l.004.024c.013.1.033.252.046.392.026.284.091 1.042-.323 1.77-.402.706-1.057 1.045-1.32 1.178-.14.07-.287.135-.386.18l-.04.018a4.052 4.052 0 00-.195.09l-.046.03-.002.001c-.049.03-.157.1-.288.166a2.51 2.51 0 01-1.318.278l-.963-.063-.511-.819a4.481 4.481 0 01-.68-2.318v-.008a12.835 12.835 0 01-.09-.668 2.565 2.565 0 01.2-1.321 2.39 2.39 0 011.179-1.185c.543-.258 1.08-.52 1.684-.814l.763-.37 3.761-1.825z" fill="#000"/><path d="M41.88 101.819c.396-.07.793-.125 1.186-.211 1.866-.39 3.555-1.255 5.287-1.998 1.59-.686 3.168-1.408 4.877-1.766.818-.174.822-.176.923-.993.023-.215.03-.432.022-.648-.022-.807-.024-.805-.844-1.019-.449-.118-.908-.208-1.341-.367-.433-.16-.684-.074-.897.341a4.267 4.267 0 01-1.357 1.557c-.064-.352.126-.654.224-.965.47-1.506.48-1.506-1.081-1.856a.239.239 0 00-.09.017c-.472-.221-.958-.418-1.415-.668-.456-.25-.572-.05-.676.365a15.31 15.31 0 01-1.606 3.93c-.487.851-.899 1.766-1.71 2.385a.592.592 0 01.066-.535c.878-1.645 1.13-3.478 1.547-5.253.418-1.774.367-1.79-1.275-2.703-.107-.059-.222-.104-.334-.155l-4.579-2.77a23.579 23.579 0 01-.82 3.418c-.431 1.353-.887 2.695-1.672 3.89-.4-.376-.198-.811-.085-1.207a31.881 31.881 0 001.144-6.39c.03-.401.118-.828-.319-1.085-.502-.297-.92-.736-1.497-.915-.45-.57-1.093-.907-1.645-1.354-.552-.447-1.068-.99-1.623-1.537-.168.409-.119.72-.119 1.019 0 2.09-.316 4.14-.745 6.174a20.813 20.813 0 01-3.15 7.493c-.54-.126-.605-.432-.369-.894 1.715-3.355 2.35-6.966 2.462-10.689.057-1.865-.143-3.714-.419-5.558a1.282 1.282 0 00-.198-.612c-.628-.81-1.066-1.745-1.746-2.51l-1.974-3.64c-.473-1.533-1.312-2.893-1.94-4.413-.224.265-.147.486-.154.687-.053 1.364-.072 2.73-.15 4.093-.174 3.033-.33 6.069-.584 9.097-.162 1.944-.334 3.89-.732 5.81-.334 1.606-.647 3.231-1.453 4.691-.817 1.482-1.958 2.555-3.727 2.772-.087.011-.251-.029-.239.196 1.186.517 2.385 1.021 3.617 1.427.765.336 1.554.615 2.36.837 3.725 1.076 7.519 1.828 11.349 2.415 2.37.364 4.734.573 7.117.148.133.042.269.068.383-.051z" fill="#040303"/><path fill-rule="evenodd" clip-rule="evenodd" d="M24.655 66.125l1.178 2.854c.222.535.466 1.037.737 1.593l.248.51c.33.687.682 1.453.955 2.288l1.794 3.306c.378.453.68.92.923 1.305l.112.176c.241.382.426.674.639.95l.053.068.047.074c.173.272.303.568.386.877l1.887 1.86.393.391c.414.414.739.738 1.092 1.023.14.114.244.188.384.286.107.075.233.164.411.295.23.17.505.386.778.66.31.151.563.32.75.452.15.106.248.179.324.235.109.08.171.126.269.184.389.23.675.523.877.845l5.369 3.248.064.028c.072.032.184.084.307.152l.003.001.002.001.075.042c.353.196.727.404 1.027.61.261.18.604.448.88.849.769-.155 1.435.18 1.66.303.25.137.47.235.752.361l.208.094.053.011.063.014c.332.075.718.161 1.032.27.206.07.596.217.957.535a2.794 2.794 0 011.298.174c.206.076.38.118.64.181.143.035.312.076.527.132l.04.01c.165.043.402.105.607.18.233.085.679.274 1.045.715.378.454.477.94.514 1.21.031.225.038.475.042.638v.026a6.33 6.33 0 01-.03.907l-.002.017-.002.017a6.293 6.293 0 01-.107.67c-.06.26-.196.71-.577 1.119a2.433 2.433 0 01-1.06.651 6.542 6.542 0 01-.62.154l-.038.008h-.003c-1.362.287-2.637.839-4.122 1.482l-.395.171-.002.001-.002.001c-.3.129-.614.269-.94.415-1.384.618-2.993 1.337-4.696 1.694-.309.067-.661.125-.946.172a2.152 2.152 0 01-1.022.158c-2.573.403-5.067.162-7.398-.196m12.788-5.385c.235-.103.477-.21.728-.317l.394-.17-.12-.66a2.75 2.75 0 01.006-1 17.199 17.199 0 01-1.008 2.147zm2.285-2.295l-.005-.003a.165.165 0 01.005.002zm-7.352 2.547c.537-1.027.767-2.096 1.055-3.428a69.102 69.102 0 01.38-1.696 46.987 46.987 0 00-.419-.235l-.014-.007a1.11 1.11 0 00-.03-.014l-.073-.033a7.125 7.125 0 01-.115-.05l-.096-.045-2.419-1.463c-.094.341-.194.681-.303 1.018m-4.26-4.704l-.001.004v-.004zm-.044.541a13.075 13.075 0 01-.063-.046l-.165-.12a2.247 2.247 0 00-.196-.127.374.374 0 00-.054-.026l-.556-.173-.36-.457a1.409 1.409 0 00-.195-.194 39.081 39.081 0 01-.619 3.712 22.694 22.694 0 01-3.403 8.119c1.586.316 3.186.592 4.798.84 2.31.354 4.429.524 6.503.155l.31-.055a2.473 2.473 0 01.338-1.512m-15.842-.3c-.229-.847.1-1.577.258-1.887 1.548-3.028 2.15-6.339 2.257-9.89.051-1.689-.127-3.4-.394-5.187-.262-.361-.493-.728-.686-1.033l-.099-.157c-.27-.426-.48-.737-.71-.996l-.144-.162-.931-1.717c-.125 2.193-.26 4.403-.444 6.609m.733-13.613v.005-.005zm-3.757.239l-.002-.03v-.004a3.032 3.032 0 01.004-.416c.04-.467.21-.969.6-1.427l1.996-2.354m-2.598 4.23c-.02.52-.035 1.02-.05 1.509a87.49 87.49 0 01-.096 2.505m4.063 23.781c-.81-.203-1.617-.42-2.42-.652l-.011-.003-.013-.004a15.295 15.295 0 01-2.102-.745l-.016-.007a8.64 8.64 0 001.257-1.755c.912-1.654 1.285-3.46 1.591-4.944.02-.092.038-.183.056-.273v-.001c.425-2.047.604-4.101.765-6.035m4.504 14.244c-.003.006-.003.006 0 0zm5.893-9.64a30.003 30.003 0 01-1.056 5.754v.002l-.034.11-.001.004c-.016.05-.038.123-.06.2a3.43 3.43 0 00-.123.682c-.048.68.15 1.466.82 2.098l1.633 1.54 1.233-1.876c.943-1.437 1.463-3.007 1.892-4.351m3.869 1.077zm-.317-.702v-.004.004zM21.912 74.37l-.08 1.41.08-1.41zm-.08 1.41c-.146 2.566-.29 5.103-.502 7.637l.501-7.637zm-.502 7.637zm0 0c-.162 1.954-.327 3.791-.698 5.584l.698-5.583zm-.698 5.584zm0 0v.001zm0 .001l-.019.087c-.34 1.639-.61 2.934-1.24 4.076v.001c-.62 1.125-1.302 1.67-2.248 1.805a2.134 2.134 0 00-.665.138 1.997 1.997 0 00-1.044.921 2.109 2.109 0 00-.24 1.118l.065 1.157 1.063.463c1.167.51 2.405 1.032 3.695 1.461.82.355 1.662.652 2.523.889 3.822 1.104 7.696 1.87 11.573 2.465" fill="#000"/><path d="M52.886 31.026c.17.07.337.143.51.206 1.843.668 3.6 1.495 5.152 2.718.537.423.663.407 1.13-.1.161-.176.28-.527.543-.413.426.186.706-.068 1.022-.209a21.75 21.75 0 013.765-1.325c.311-.074.668-.094.915-.343-.093-.196-.251-.228-.387-.29-2.723-1.254-5.534-2.328-8.157-3.809-.362-.543-.857-.602-1.462-.473a18.47 18.47 0 00-4.38 1.498c-1.004.502-2.04.976-3.08 1.765 1.638-.008 3.018.466 4.429.775z" fill="#040303"/><path fill-rule="evenodd" clip-rule="evenodd" d="M58.612 25.992c1.628.894 3.285 1.616 5.028 2.376.864.376 1.75.762 2.663 1.183.005.002.022.008.06.025.062.025.192.08.338.166.345.202.694.524.925 1.01l.565 1.194-.928.938c-.438.442-.93.63-1.254.723a4.879 4.879 0 01-.39.092l-.076.015-.088.018a19.858 19.858 0 00-3.424 1.207l-.01.005-.008.003-.021.01-.045.024-.06.032c-.087.046-.266.14-.483.216-.174.062-.366.11-.571.136-.09.087-.19.179-.3.264a2.338 2.338 0 01-1.218.494 2.324 2.324 0 01-1.307-.274 4.194 4.194 0 01-.623-.42l-.001-.001c-1.333-1.051-2.885-1.795-4.627-2.426M60.95 31.3a23.623 23.623 0 00-.557.25 2.078 2.078 0 00-1.452.349c-1.556-1.078-3.231-1.832-4.892-2.434.66-.237 1.335-.432 2.02-.584l.388.22c1.447.816 2.984 1.53 4.493 2.2zm-4.535-2.488h-.003.003zm1.804 3.855l-.003.003.003-.003zm6.704.386zm-6.31-7.061a2.912 2.912 0 00-1.377-.836c-.657-.18-1.27-.102-1.702-.01-1.67.345-3.29.9-4.822 1.65l-.007.003-.007.004-.354.175c-.88.434-1.957.965-3.022 1.773l-4.493 3.408 5.64-.026c.99-.005 1.786.192 2.787.44.328.082.678.168 1.064.255.124.051.294.122.438.174" fill="#000"/><path d="M67.279 93.903c-.298-.063-.55.09-.803.19-2.995 1.165-6.112 1.568-9.303 1.546-1.147-.01-1.004-.27-1.299 1.029a1.04 1.04 0 00-.012.185c-.024.02-.066.035-.07.06-.462 2.224-1.454 4.191-2.805 6.004-.666.892-1.342 1.786-1.804 2.817-.22.493-.394.988-.33 1.525.078.655.33 1.2 1.08 1.32a3.244 3.244 0 001.868.136 10.994 10.994 0 004.35-1.162 24.146 24.146 0 005.436-3.704 3.407 3.407 0 001.113-1.862c.591-2.635 1.339-5.218 2.526-7.655.069-.14.126-.285.04-.44.067.025.1.007.093-.054a.107.107 0 00-.053 0c-.121.019.052-.03-.027.065z" fill="#040303"/><path fill-rule="evenodd" clip-rule="evenodd" d="M67.468 91.957c.119.008.237.027.353.057l1.275.325.133 1.308c.011.109.027.4-.065.74a2.514 2.514 0 01-.243.76l-.007.013c-1.095 2.248-1.803 4.67-2.379 7.234a5.29 5.29 0 01-1.706 2.867 26.008 26.008 0 01-5.838 3.974 12.847 12.847 0 01-4.946 1.35 5.126 5.126 0 01-2.617-.187 2.991 2.991 0 01-1.82-1.184c-.431-.603-.57-1.264-.626-1.732M64.51 92.784l-1.345-2.45 4.303 1.623m-3.28 4.817c-2.129.514-4.284.727-6.437.746l.004.235-.28.221c-.578 2.263-1.635 4.259-2.982 6.066-.694.931-1.233 1.655-1.594 2.461v.001a3.42 3.42 0 00-.145.364c.207.053.424.056.634.01l.152-.035.156-.008a9.075 9.075 0 003.603-.963l.006-.002.005-.003a22.27 22.27 0 005.012-3.414l.019-.017.019-.016c.252-.217.427-.51.498-.834l.001-.006.002-.005c.358-1.597.78-3.208 1.328-4.8zm-6.343-.29c.002-.008.002-.007 0 .002v-.003zm-1.397 1.01h-.008.008zm9.083-3.985v-.001l.001-.003.002-.003c.009-.018.006-.014-.003.007zm-1.021-.725c-2.331.72-4.772.99-7.325.972l7.325-.972zm-7.326.972a5.347 5.347 0 01-.331-.011l.33.011zm-.331-.011a9.3 9.3 0 00-.261-.013l.26.013zm-.261-.013l-.019-.001h.019zm-.019-.001c-.144-.007-.805-.04-1.413.364l1.413-.364zm-1.413.364c-.672.446-.87 1.13-.926 1.325l.926-1.325zm-.926 1.325l-.004.012.004-.012zm-.004.012c-.052.178-.106.423-.154.64l.154-.64zm-.154.64l-.027.12.027-.12zm-.027.12c-.04.1-.077.21-.102.332v.003l-.001.003c-.395 1.903-1.248 3.621-2.471 5.262m0 0l-.096.128.096-.128zm-.096.128c-.62.831-1.382 1.851-1.916 3.045l1.916-3.045zm-1.916 3.045c-.245.546-.61 1.441-.482 2.516l.482-2.516z" fill="#000"/><path d="M26.605 58.284c1.032-.567 2.05-1.164 3.106-1.688.502-.25.726-.56.785-1.12.316-3.012 1.103-5.915 2.199-8.74.937-2.42 2.195-4.666 3.632-6.812a3.091 3.091 0 00.508-2.284c-.126-.871-.105-1.78-.594-2.752-.886 1.429-1.783 2.699-2.498 4.064-1.69 3.228-3.145 6.556-3.932 10.14-.054.25 0 .582-.389.664-.152-.478-.036-.934.08-1.38 1.32-5.11 3.01-10.061 6.073-14.44.035-.051.069-.102.108-.151a.609.609 0 00.09-.687c-.413-.969-.753-1.966-1.324-2.863-.197-.677-.538-1.277-.886-1.918-.102.072-.2.15-.29.237a33.538 33.538 0 00-3.764 5.866c-2.215 4.329-3.051 9.035-3.63 13.785-.439 3.602-.681 7.23-1.004 10.847-.016.187-.173.417.103.607l1.627-1.375z" fill="#040303"/><path fill-rule="evenodd" clip-rule="evenodd" d="M34.214 25.568l1.004 1.852.09.165c.273.5.622 1.14.866 1.862.468.79.82 1.658 1.1 2.354.076.187.147.362.214.52.189.405.266.854.222 1.299l.212.421c.555 1.102.67 2.294.736 2.972.013.135.024.25.037.34a4.974 4.974 0 01-.813 3.63c-1.379 2.06-2.56 4.179-3.432 6.433-1.05 2.704-1.787 5.443-2.082 8.256-.052.494-.196 1.048-.561 1.565-.362.513-.83.83-1.255 1.043l-.003.001-.003.002c-.706.35-1.374.724-2.088 1.123-.253.142-.513.288-.781.436l-2.584 2.185-1.185-.82a2.195 2.195 0 01-.97-1.975c.013-.197.052-.37.071-.45.088-.987.17-1.985.253-2.99.214-2.587.432-5.217.748-7.815m-.984 10.739zm4.006-2.825a48.008 48.008 0 011.62-.87c.127-1.116.313-2.214.552-3.297l-1.062.223-.515-1.622a3.301 3.301 0 01-.067-.246 245.092 245.092 0 00-.528 5.812zm.88-6.823zm.035-2.182c.567-4.133 1.407-8.033 3.237-11.61l.003-.005.002-.005a31.656 31.656 0 012.004-3.426c.172.348.323.72.5 1.155l.09.223c-2.888 4.254-4.565 8.956-5.836 13.668zm-1.28 12.788zm7.547-34.106l-1.728 1.205 1.728-1.205zm-1.728 1.205a4.326 4.326 0 00-.514.42l.514-.42zm-.514.42l-.09.087.09-.087zm-.09.087l-.08.098.08-.098zm-.08.098a35.43 35.43 0 00-3.972 6.19l3.973-6.19zm-3.972 6.19c-2.372 4.638-3.236 9.619-3.82 14.409l3.82-14.41z" fill="#000"/><path d="M60.387 47.15c.017 1.686.328 3.22 1.081 4.654a4.23 4.23 0 002.038 1.971c2.26 1.01 5.887.858 7.915-2.04 2.11-3.01 2.058-6.168.597-9.363-.955-2.09-2.698-3.288-4.973-3.64-.9-.14-1.812-.088-2.606.436a8.076 8.076 0 00-2.635 2.72c-.942 1.657-1.35 3.45-1.417 5.263z" fill="#040303"/><path fill-rule="evenodd" clip-rule="evenodd" d="M63.417 37.587c1.336-.875 2.783-.891 3.917-.715 2.832.438 5.15 1.99 6.396 4.717 1.679 3.672 1.802 7.56-.767 11.226v.001c-2.692 3.844-7.399 3.941-10.225 2.677l-.006-.002-.005-.003a6.112 6.112 0 01-2.935-2.828c-.913-1.747-1.268-3.583-1.288-5.49v-.045l.002-.045c.076-2.05.541-4.15 1.66-6.121l.008-.013.008-.013a9.958 9.958 0 013.235-3.346zm3.338 3.005c-.661-.103-1.031-.017-1.279.147l-.015.01-.015.01a6.192 6.192 0 00-2.014 2.073c-.75 1.326-1.099 2.79-1.163 4.344.02 1.437.287 2.65.866 3.752l.01.02.01.02c.239.482.636.867 1.126 1.091 1.691.754 4.235.545 5.598-1.402v-.001c1.652-2.357 1.67-4.783.427-7.502-.664-1.455-1.831-2.296-3.548-2.561h-.003z" fill="#000"/><path d="M73.745 91.343a.646.646 0 00-.251-.032c-1.103.323-2.187.71-3.245 1.16-.343.14-.519.427-.707.714-.669 1.02-1.163 2.134-1.631 3.244-.706 1.687-.77 1.186.627 2.28.639.501.66.479 1.106-.18 1.482-2.193 2.69-4.545 4.033-6.82a.416.416 0 00.068-.366z" fill="#040303"/><path fill-rule="evenodd" clip-rule="evenodd" d="M73.37 89.432a2.53 2.53 0 01.98.128l-.603 1.783 1.81-.52a2.298 2.298 0 01-.288 1.896c-.392.665-.788 1.367-1.194 2.085-.893 1.582-1.832 3.245-2.87 4.779v.002l-.021.03c-.09.133-.232.343-.381.517-.148.171-.574.643-1.305.774-.748.134-1.318-.173-1.534-.3a5.452 5.452 0 01-.585-.417c-.212-.166-.345-.26-.483-.359-.08-.057-.163-.116-.264-.19l-.022-.017c-.153-.11-.733-.53-.966-1.263-.251-.793.034-1.492.117-1.696l.01-.023a12.971 12.971 0 01.189-.438c.066-.148.137-.31.217-.5V95.7l.002-.003c.47-1.115 1.02-2.37 1.791-3.545l.031-.049c.155-.246.625-.995 1.52-1.37a31.698 31.698 0 013.445-1.23l.198-.058.206-.014z" fill="#000"/><path d="M55.516 25.762c-.26-.46-.502-.793-.644-1.163-.15-.39-.377-.398-.723-.337a30.397 30.397 0 00-7.455 2.296c-.568.262-.556.28-.294.804.207.417.408.837.612 1.255.27.556.279.568.8.265 1.666-.975 3.388-1.825 5.23-2.424.792-.258 1.606-.454 2.474-.696z" fill="#040303"/><path fill-rule="evenodd" clip-rule="evenodd" d="M55.227 22.492c.812.295 1.213.94 1.402 1.432v.001c.013.034.044.101.14.263l.084.14c.085.14.204.336.3.507l1.184 2.093-2.315.647c-.326.09-.621.17-.898.244-.538.143-1.007.268-1.498.429h-.003c-1.673.544-3.268 1.326-4.861 2.258h-.001l-.001.002a2.817 2.817 0 00-.02.011c-.105.061-.305.178-.507.263a2.132 2.132 0 01-1.526.07 2.159 2.159 0 01-1.123-.915 5.005 5.005 0 01-.253-.472l-.011-.024-.241-.495a85.9 85.9 0 00-.376-.77 4.73 4.73 0 01-.216-.478 2.153 2.153 0 01-.032-1.448 2.16 2.16 0 01.917-1.125 4.53 4.53 0 01.514-.268l.017-.008.005-.003.005-.002a32.285 32.285 0 017.911-2.436c.005 0 .01-.002.014-.003.184-.033.768-.138 1.389.087z" fill="#000"/><path d="M62.32 37.882c-.24.053-.484.095-.722.16-.313.084-.78.028-.84.42-.055.365.407.502.64.732.231.231.43.164.635-.053.171-.18.366-.336.553-.502.158-.137.406-.234.296-.502-.1-.248-.329-.25-.561-.255z" fill="#040303"/><path fill-rule="evenodd" clip-rule="evenodd" d="M62.139 35.995l.224.005h.011c.077 0 .471.001.861.128a2.233 2.233 0 011.393 1.301c.139.342.222.782.12 1.265-.099.475-.338.81-.52 1.01a2.66 2.66 0 01-.387.345l-.004.003-.04.03c-.096.085-.163.142-.214.186-.082.07-.124.107-.182.167-.194.206-.663.655-1.403.763-.835.122-1.477-.251-1.861-.606l-.002-.001-.012-.009a5.151 5.151 0 01-.318-.227 2.53 2.53 0 01-.631-.716 2.233 2.233 0 01-.275-1.458c.076-.507.316-.981.717-1.34.36-.322.743-.456.964-.518.204-.057.401-.085.481-.096l.015-.002.068-.01c.215-.057.472-.11.642-.144l.134-.028.219-.048zm-1.971 4.619l-.004-.004.004.004zm2.395-1.631a1.44 1.44 0 00.058-.24v-.001l.008-.056-.042-.047.042.046a1.522 1.522 0 00-.016-.438v-.002a1.55 1.55 0 00-.179-.489 1.438 1.438 0 00-.113-.166 1.533 1.533 0 00-.754-.13l-.03.003a1.75 1.75 0 00-.081.01l-.009.001h-.002a1.55 1.55 0 00-.247.059 1.645 1.645 0 00-.151.972c.02.129.053.241.09.332l.002.008.003.007a1.484 1.484 0 00.387.542c.182.163.37.255.516.306l-.446-1.659.454 1.662.005.001a1.556 1.556 0 00.23-.225l.002-.096-.255-.243.255.24.032-1.498.241 1.1zm-.969-1.955l-.002.002a.22.22 0 01.002-.002z" fill="#000"/><path d="M97.882 60.45c-.193-1.1-.236-2.221-.51-3.308a3.998 3.998 0 00-.674-1.518.298.298 0 00-.556.198c.056.49.181.975.143 1.477-.181.126-.179.318-.173.502.05 2.37-.166 4.72-.35 7.08-.171 2.174-.64 4.297-.89 6.454-.176 1.506-.564 2.99-.797 4.49a68.097 68.097 0 01-2.413 10.048c-1.042 3.298-2.303 6.513-3.64 9.698-.686 1.631-1.38 3.276-2.25 4.824-1.184 2.112-2.072 4.392-3.554 6.337a23.875 23.875 0 01-4.68.958c.055-.342.196-.664.409-.937 1.227-1.744 2.104-3.678 3.05-5.575.556-1.116 1.151-2.212 1.632-3.366a127.98 127.98 0 002.712-6.96c1.143-3.23 2.279-6.462 3.068-9.798a104.39 104.39 0 001.561-8.133c.321-2.084.627-4.172.84-6.266.183-1.822.107-3.669.194-5.505.125-2.367.083-4.74-.126-7.1-.057-.627-.18-1.227-.262-1.842-.024-.186-.088-.448-.42-.418-.226.467.099.901.112 1.355.035 1.16-.126 2.31-.252 3.441-.23 2-.449 4.006-.666 6.007-.27 2.51-.856 4.951-1.255 7.43-.342 2.119-.902 4.187-1.548 6.237-.832 2.645-1.662 5.289-2.687 7.865-.92 2.314-1.89 4.61-2.886 6.89a133.822 133.822 0 01-2.608 5.593c-.733 1.478-1.606 2.886-2.34 4.367-1.052 2.133-2.157 4.219-3.563 6.139-.291.397-.448.811-.377 1.303-2.429.377-4.875.531-7.322.607-.059-.303.14-.392.261-.511 3.722-3.632 6.558-7.917 9.14-12.39a43.073 43.073 0 003.113-6.487c.502-1.349 1.265-2.573 1.82-3.897 1.631-3.89 2.862-7.906 4.044-11.953.835-2.855 1.171-5.803 1.697-8.715.502-2.801.857-5.614.797-8.465-.053-2.527-.108-5.05-.825-7.51-.837-2.877-2.182-5.504-3.831-7.979-.402-.605-.41-1.064-.114-1.698 1.92-4.121 5.097-6.86 9.253-8.547.607-.251 1.235-.434 1.805-.762.016.312.226.502.43.7a46.278 46.278 0 013.445 3.805 43.203 43.203 0 014.715 7.054c1.425 2.636 2.613 5.379 3.429 8.27.515 1.823.97 3.658 1.139 5.558.057.648.185 1.29.174 1.946 0 .229.057.502.306.502.314.009.251-.303.251-.502-.031-1.336.009-2.669-.147-4.015a33.231 33.231 0 00-.719-4.216c-.83-3.334-2.007-6.535-3.703-9.547-1.476-2.615-3.137-5.099-5.145-7.313-1.922-2.122-3.983-4.113-6.307-5.83-3.914-2.88-8.138-5.045-12.917-6.067-.431-.092-.878-.117-1.334-.174.022.303.216.28.348.326 2.522.912 4.99 1.931 7.331 3.263a40.705 40.705 0 016.283 4.335c-1.706-.059-3.412-.125-5.119-.17-3.388-.095-6.688.415-9.986 1.054a1.498 1.498 0 01-.184.015c-.126-.274-.36-.387-.628-.512-2.365-1.11-4.907-1.787-7.242-2.964-1.331-.67-2.75-1.174-3.807-2.307-.424-.454-.475-.915-.279-1.452.251-.701.764-1.203 1.338-1.644.462-.354.938-.689 1.428-1.046a.659.659 0 00-.659-.088c-1.395.517-2.828.962-4.026 1.899a1.634 1.634 0 00-.617 1.016c-.226 1.283.3 2.553 1.437 3.206 2.211 1.272 4.433 2.51 6.814 3.466.944.377 1.936.673 2.8 1.24-.589.305-1.254.355-1.874.565-.292.098-.54-.043-.8-.16a2020.853 2020.853 0 00-6.836-3.059c-.912-.408-1.815-.838-2.635-1.412a9.21 9.21 0 01-1.097-.872c-1.424-1.364-1.485-2.483-.251-4.007a5.412 5.412 0 011.655-1.355 19.157 19.157 0 013.62-1.518c.31-.095.677-.106.907-.377-.09-.3-.293-.243-.469-.202-2.46.584-4.955 1.084-6.901 2.886-.318.294-.725.34-1.13.377-3.576.358-6.85 1.584-9.889 3.47-.188.116-.574.207-.425.492.15.284.45.035.654-.068 1.734-.885 3.598-1.415 5.445-1.987 1.164-.361 2.377-.502 3.588-.627a.753.753 0 01.566.098c-.205.395-.555.4-.879.455a33.62 33.62 0 00-6.65 1.883c-.663.266-1.359.486-1.914.952-.17.14-.252.126-.363 0-.852-.975-2.008-1.557-3.012-2.323.034-.331.308-.439.54-.59a68.462 68.462 0 017.932-4.519c.188-.09.443-.07.542-.316l-.035.035.21-.108c2.28-.53 4.606-.742 6.927-.965 2.913-.28 5.837-.46 8.768-.384 1.085.028 2.17.093 3.414.149-.385.227-.644.366-.887.528a.311.311 0 00-.157.317c.035.179.178.238.343.251.494.032.995-.075 1.484.068a.125.125 0 010 .102c-.243.103-.685 0-.677.354.007.354.431.25.686.31.03.007.061.008.093.013 3.104.516 6.19 1.122 9.267 1.786 4.372.943 8.166 3.004 11.565 5.857a58.472 58.472 0 013.717 3.424c3.952 3.947 7.083 8.446 9.176 13.651.924 2.297 1.723 4.62 1.927 7.1.399 4.878.753 9.762 1.129 14.644.013.17-.04.39.3.467.253-.411.415-.872.473-1.352.09-.585.177-1.17.265-1.757.337-.06.429-.31.489-.602.207-.941.326-1.9.355-2.864.051-2.773.068-5.548-.184-8.316-.126-1.33-.196-2.67-.414-3.984-.391-2.35-1.24-4.576-2.215-6.724-1.381-3.048-3.355-5.745-5.396-8.387-2.042-2.641-4.518-4.798-7.096-6.875-1.582-1.279-3.369-2.22-5.145-3.198a20.53 20.53 0 00-5.384-2.064c-.485-.11-.985-.336-1.506-.105l-5.823-1.032a1.094 1.094 0 01.907-.081c.94.266 1.912.184 2.864.306 2.524.325 5.028.715 7.49 1.358 2.56.666 5.083 1.416 7.472 2.592 1.466.723 2.74 1.713 4.071 2.624a39.805 39.805 0 014.828 3.946c1.176 1.11 2.291 2.284 3.439 3.422.235.232.418.57.836.513l-.019-.011c-.022.295-.03.58.388.58l-.027-.012.168.215.037.029-.017.044.197.298a58.818 58.818 0 014.694 8.697c1.84 4.172 2.565 8.576 2.991 13.058.425 4.483.051 8.91-.319 13.356-.282 3.388-.763 6.753-1.167 10.127-.01.218-.04.435-.09.648-1.096 3.417-2.227 6.82-4.431 9.733-.167.22-.284.49-.558.613-.08-.515.136-.983.26-1.46.545-2.068 1.156-4.124 1.406-6.259.238-2.03.563-4.05.813-6.08.27-2.192.405-4.392.494-6.585.162-4.016-.149-8.032-.174-12.047 0-.108.084-.285-.187-.328v.47c.012 2.928.029 5.855-.191 8.778.001.155-.011.311-.036.465-.251 1.063-.15 2.161-.315 3.238-.207 1.346-.239 2.72-.443 4.067-.306 2.02-.688 4.03-1.053 6.042a61.831 61.831 0 01-2.059 8.21c-.447 1.36-.901 2.715-1.506 4.016-.116.25-.377.557-.024.845-.377.44-.768.865-1.293 1.139a1.444 1.444 0 01.066-.737 43.217 43.217 0 002.046-8.698c.221-1.757.541-3.502.502-5.28-.015-.754.251-1.476.156-2.232a48.663 48.663 0 01-.365-5.489c-.007-.805-.116-1.611-.197-2.414a.745.745 0 00-.452-.648c-.126.69-.067 1.298-.053 1.904-.288 2.785-.442 5.59-.972 8.341-.984 5.104-2.008 10.207-3.944 15.06-.615 1.549-1.274 3.103-2.367 4.424a4.412 4.412 0 01-1.923 1.405c-.027-.766.502-1.327.753-1.989a57.071 57.071 0 002.334-7.764 76.508 76.508 0 001.438-8.9c.083-.808.067-1.62.185-2.414.251-1.728.191-3.472.315-5.206.093-1.297-.034-2.607-.108-3.913-.117-2.078-.167-4.159-.417-6.228-.148-1.231-.21-2.477-.435-3.693-.104-.566.054-1.234-.478-1.73 0 .39-.045.753.007 1.112.285 1.904.524 3.811.525 5.741 0 2.31.02 4.62-.014 6.929-.016 1.117-.148 2.232-.216 3.348-.091 1.544-.339 3.08-.518 4.618a77.016 77.016 0 01-.863 5.428 72.356 72.356 0 01-1.618 6.7c-.868 2.932-1.949 5.787-3.457 8.457a2.262 2.262 0 00-.299 1.056 21.889 21.889 0 01-4.283 1.843c.134-.251.26-.502.405-.734a25.267 25.267 0 001.987-4.02c1.482-3.83 2.606-7.78 3.599-11.763.42-1.688.6-3.418.832-5.145.22-1.631.452-3.27.453-4.907 0-3.796.266-7.598-.147-11.39-.13-1.201-.264-2.404-.401-3.606a.341.341 0 00-.304-.305c-.008-.119-.014-.24-.02-.359.243-.352.286-.684-.122-.961z" fill="#D8B660"/><path d="M35.413 50.259c.29.26.377.639.546.967 1.31 2.578 3.382 4.267 6.063 5.271.705.262 1.468.257 2.267.472-.27.976-.396 1.94-.169 2.928.43 1.852 1.571 3.225 2.955 4.43.422.37.87.71 1.34 1.016.326.212.445 0 .416-.326.394-.344.287-.716.04-1.075-.635-.916-.909-1.953-1.072-3.035-.163-1.082.49-2.336 1.461-2.871 1.27-.702 2.688-.913 4.053-1.303.402-.115.865-.065 1.177-.425.169-.571-.293-.614-.627-.703-.992-.265-1.956-.644-2.98-.79a1.456 1.456 0 01-.317-.151c.964-.841 2.047-1.455 2.852-2.372.207.078.25.238.29.376.986 2.864 3.13 4.615 5.767 5.79a18.625 18.625 0 006.502 1.617c3.597.217 6.92-.678 10.039-2.413 1.198-.667 2.364-1.395 3.69-1.794.251.152.54.107.816.12 1.142.05 1.905.574 2.28 1.694.145.433.082.927.387 1.308.068 1.284-.146 2.55-.275 3.817-.447 4.37-1.096 8.706-2.35 12.925-.682 2.295-1.42 4.573-2.144 6.857-.082.2-.18.394-.295.579-.308-.066-.53.106-.771.25-2.686 1.646-5.406 3.24-8.214 4.656-3.792 1.915-7.709 3.478-12.047 3.75-2.153.135-4.277.277-6.411-.176-.443-.093-.931-.403-1.424-.102-4.562-1.902-8.91-4.166-12.842-7.209a29.014 29.014 0 01-6.173-6.586c-.19-.278-.439-.53-.493-.887-.006-.184-.01-.369-.236-.435l.025.035c.023-.187.007-.353-.223-.4l.028.03a.878.878 0 00-.028-.551c-.615-1.307-.901-2.71-1.172-4.11-.377-1.952-.646-3.89-.092-5.898.44-1.589 1.373-2.608 2.875-3.167.408-.152.83-.267 1.241-.41.297-.101.611-.197.576-.614-.369-1.124-.584-2.266-.435-3.453.21-.079.232-.262.258-.45.138-.983.436-1.918.77-2.851a26.292 26.292 0 012.076-4.331zm7.028 29.687c-.265.075-.277.293-.31.516-.194 1.338.265 2.443 1.173 3.402 2.127 2.244 4.808 3.505 7.732 4.307.293.08.682.376 1.03.031l.525.126c.093.207.207.33.409.101.792.094 1.583.216 2.378.271.512.037 1.048.044 1.597-.366l-1.166-.319c-.314-.573-.943-.676-1.46-.86-1.92-.685-3.737-1.528-5.357-2.79a17.495 17.495 0 01-2.41-2.34c-.376-.435-.61-1.021-.813-1.573-.319-.866.074-1.372 1.004-1.417.33-.016.693.115.981-.167.209-.088.556.126.628-.234.057-.292-.207-.43-.42-.546a4.52 4.52 0 00-1.77-.532c-1.953-.19-3.425.365-3.748 2.39h-.003zm6.133.377c.051.175.05.25.089.29 1.927 1.758 4 3.287 6.466 4.205a17.408 17.408 0 008.66.922c4.33-.627 7.706-2.684 9.674-6.776a28.445 28.445 0 002.422-7.733c.271-1.631.418-3.28.279-4.94-.095-1.149-.213-2.296-.311-3.445-.057-.674.047-.762.704-.674a1.228 1.228 0 01.862.502c.358.471.654.988.878 1.536.076.19.09.436.478.494.547-.842.457-1.757.09-2.616-.41-.962-1.146-1.499-2.276-1.466a6.17 6.17 0 00-2.609.651c-1.088.544-2.157 1.13-3.223 1.71-.223.125-.551.205-.494.595.423.204.827-.222 1.255-.042-.094.327-.361.51-.573.728a17.847 17.847 0 01-6.629 4.28 27.28 27.28 0 01-8.975 1.638 33.522 33.522 0 01-9.253-1.147c-2.36-.628-4.518-1.632-6.215-3.445a1.32 1.32 0 00-.143-.125.182.182 0 00-.25 0 .195.195 0 00-.056.25c.222.413.52.78.879 1.082 1.403 1.265 2.951 2.302 4.724 2.977.384.129.726.356.994.659a24.008 24.008 0 015.228 10.434c.057.251.185.522.008.783-.96-.25-1.65-1.065-2.68-1.33l-.003.003zm33.66-18.855c-.048-.4-.176-.717-.193-1.067-.06-1.2-.879-2.19-2.087-2.579-1.209-.389-2.518-.07-3.253.79-.125.14-.285.276-.19.484a.446.446 0 00.464.25c.6-.06 1.155.24 1.757.2.395-.025.717.162 1.015.407.641.528.94 1.226.989 2.035.022.377.013.74.154 1.101.104.272.168.562.528.546.3-.014.377-.26.473-.502.226-.555.1-1.173.343-1.665zM74.73 82.44a.56.56 0 00-.552-.602.576.576 0 00-.614.554c-.035.316.112.53.444.581a.617.617 0 00.722-.533z" fill="#F9B191"/><path d="M71.128 33.815c-1.393.234-2.223 1.18-2.814 2.347-.226.447-.416.512-.844.35a5.454 5.454 0 00-1.089-.237c-.323-.05-.42-.24-.367-.524.126-.651.34-1.255.868-1.703 1.756-.377 3.536-.658 5.27-1.138a25.26 25.26 0 012.826-.556c1.164-.182 2.338-.264 3.498-.49 1.306-.252 2.635-.424 3.949-.628-.064.104-.14.201-.227.288-1.674 1.328-3.06 2.869-3.953 4.852-.922 2.052-.967 4.067-.034 6.104.166.362.335.753.836.768.763.633 1.045 1.53 1.317 2.43-.029.276.034.556-.061.832-.284.822-.543 1.652-.83 2.473-.898 2.593-2.626 4.476-4.983 5.812a23.12 23.12 0 01-1.924.958 16.276 16.276 0 01-5.302 1.326c-2.346.195-4.643-.198-6.894-.86a6.023 6.023 0 01-2.68-1.617c-.811-.837-1.411-1.81-1.934-2.842-.182-.36-.309-.787-.753-.958-.175.306-.072.536.007.773.251.737.45 1.49.815 2.184.094.18.277.376-.017.554-.996-.938-1.495-2.176-2.036-3.388 1.453-2.378 2.448-4.92 2.832-7.78-.144.1-.215.125-.237.17a2.92 2.92 0 00-.175.43c-.705 2.22-1.86 4.2-3.192 6.093-1.619 2.3-3.781 3.847-6.447 4.694-.947.3-1.917.602-2.922.488-1.08-.126-2.151-.33-3.121-.879-.242-.136-.494-.273-.793-.224-1.44-1.037-2.372-2.46-2.886-4.116-.558-1.785-.826-3.61-.521-5.506.197-1.217.787-2.198 1.465-3.163.032.026.063.051.096.075-.217.712-.444 1.42-.646 2.133-.279.983-.584 1.967-.479 3.012.174 1.71.885 3.21 1.86 4.598.229.326.456.678.911.732l.094.078a2.345 2.345 0 00-.084-.088c0-.333-.214-.579-.357-.85a9.877 9.877 0 01-.867-2.16c-.207-.808-.502-1.612-.413-2.463.07-.616.181-1.227.334-1.828.588-2.35 1.108-4.727 2.583-6.738.251.674.531 1.34.98 1.908.348.443.4.84.1 1.351a10.275 10.275 0 00-.976 2.426c-.814 2.892-.855 5.702.796 8.38.808 1.31 1.924 2.008 3.44 2.06 2.206.068 4.07-.771 5.672-2.247 3.137-2.892 4.58-7.84 2.259-11.83a2.729 2.729 0 01-.304-1.073c-.142-1.202 0-2.359.571-3.44-.94-.358-1.8-.742-2.73-.91.093-.431.348-.634.519-.892.072-.106.137-.22.011-.327-.125-.107-.228-.043-.337.024a2.373 2.373 0 00-.7.743c-.126.178-.213.416-.454.441-.827.09-1.603.402-2.395.581-.31-.697.309-1.193.287-1.87-.682.435-.81 1.089-1.014 1.702-.078.235 0 .532-.2.706-.602.52-1.225 1.015-1.857 1.533-.357-.703-.298-1.345-.159-1.998.143-.674.41-1.306.644-1.949l.017-.057v.07c-.635.069-.799.615-1.019 1.063-.453.92-.608 1.919-.298 2.899.29.918-.214 1.431-.763 2.051-.483-.416-.673-.943-.896-1.443-.636-1.425-.452-2.88.025-4.437-.527.194-.66.517-.812.81-.533 1.028-.627 2.133-.516 3.262a3.413 3.413 0 00-.777.773c-.635.788-1.091 1.694-1.68 2.51a1.39 1.39 0 01-.095-.077c.257-3-.384-5.839-1.525-8.59-.251-.598-.592-1.157-.722-1.8.425-.06.353.557.855.568-.983-2.976-2.25-5.772-3.703-8.731 1.437.33 2.635.608 3.774 1.076 1.578.652 3.242 1.093 4.729 1.958.264.154.517.203.776 0 1.433.878 2.619 1.983 3.353 3.536.465.982.92 1.973 1.603 2.84.32.407.62.555 1.181.47a9.104 9.104 0 013.799.198c1.355.37 2.69.775 3.926 1.464a9.243 9.243 0 011.9 1.35c.519.495.529.516.025 1.013a6.17 6.17 0 00-1.218 1.757c-.184.387-.413.778-.296 1.244-.057.174-.126.347-.167.527-.036.155-.025.312.167.37a.27.27 0 00.312-.132c.053-.076.093-.16.145-.237.568-.858 1.26-1.586 2.188-2.066.31.858.704 1.684 1.176 2.464-.242.057-.33.276-.456.448-2.384 3.31-2.19 8.425-.069 11.757.229.359.397.878.958.95 2.635 3.596 8.83 3.35 11.545-.351 2.624-3.574 2.392-7.241.825-11.064a10.116 10.116 0 00-.502-1.004c-.672-1.226-.512-2.384.479-3.379a5.19 5.19 0 00.637-.676c-1.322.09-2.016.98-2.58 2.118-.552-.377-1.084-.744-1.615-1.11-.233-.161-.278-.389-.25-.658.08-.77.324-1.459.915-1.99.298-.268.6-.533.9-.8.094-.024.277.008.219-.14-.04-.09-.214-.056-.302.059z" fill="#FD5D1D"/><path d="M56.757 42.311a.86.86 0 00-.16.196c-.034.08-.031.178.082.21a.395.395 0 00.061-.148c.011-.087 0-.177.008-.265.076-.063.236-.102.065-.234l-.056.241zm3.37 11.987a.251.251 0 00-.184-.192c-.322-.53-.897-.86-1.129-1.473-.463-1.255-1.07-2.448-1.325-3.775a6.457 6.457 0 00-.355-1.056.335.335 0 00-.367-.227.376.376 0 00-.332.286 1.57 1.57 0 00-.062.458 7.163 7.163 0 001.299 4.118c.538.775 1.255 1.45 2.259 1.682a.25.25 0 00.19.182c.046.075.098.145.156.21.088.078.219.159.293.018.074-.14-.057-.2-.18-.218-.086-.013-.175-.009-.263-.013z" fill="#FD5D1D"/><path d="M41.547 102.031c-2.392.427-4.768.217-7.146-.148-3.847-.59-7.655-1.344-11.395-2.426a17.243 17.243 0 01-2.37-.84c1.038-.382 1.818-1.112 2.385-2.016.764-1.22 1.183-2.602 1.497-4.004.271-1.21.387-2.454.639-3.66a31.7 31.7 0 00.634-5.63c.072-2.676.354-5.346.233-8.032-.018-.376 0-.753 0-1.123l1.983 3.66a.848.848 0 00-.09.545c.263 1.782.595 3.55.794 5.345.21 1.904.18 3.804.068 5.695a39.65 39.65 0 01-.472 4.162c-.3 1.787-.591 3.558-1.368 5.212-.088.187-.24.376.061.704.264-.591.762-.906 1.255-1.221.018-.011.013-.06.02-.09a20.908 20.908 0 003.161-7.53c.43-2.045.753-4.1.753-6.198 0-.3-.049-.614.126-1.024.556.55 1.059 1.084 1.631 1.544.572.459 1.201.788 1.654 1.36-.108.97.126 1.92.16 2.886a27.845 27.845 0 01-.664 6.847c-.344 1.57-.787 3.07-1.663 4.425a.152.152 0 00-.004.131.15.15 0 00.098.087c1.298-.814 2.608-3.003 2.832-4.733.788-1.206 1.246-2.554 1.68-3.912.359-1.122.634-2.27.823-3.432l4.598 2.78c0 1.516.026 3.025-.161 4.541a20.36 20.36 0 01-1.048 4.496c-.213.554-.73.964-.704 1.599z" fill="#D8B660"/><path d="M72.125 108.423c-.077-.492.08-.906.376-1.303 1.406-1.92 2.51-4.016 3.564-6.139.733-1.48 1.606-2.887 2.34-4.367a126.933 126.933 0 002.607-5.594 197.62 197.62 0 002.886-6.889c1.026-2.576 1.855-5.22 2.687-7.865.646-2.05 1.206-4.118 1.549-6.236.4-2.48.985-4.925 1.254-7.43.218-2.002.436-4.008.667-6.008.125-1.13.29-2.281.25-3.44-.012-.455-.337-.89-.11-1.356.332-.03.396.232.42.418.081.615.204 1.22.262 1.842.208 2.36.25 4.733.125 7.1-.086 1.836-.011 3.683-.193 5.506-.21 2.093-.52 4.18-.84 6.265a104.692 104.692 0 01-1.562 8.133c-.79 3.336-1.925 6.568-3.068 9.797a131.174 131.174 0 01-2.712 6.961c-.484 1.154-1.08 2.25-1.631 3.366-.947 1.897-1.824 3.831-3.051 5.575a2.064 2.064 0 00-.41.937c-1.223.376-2.509.376-3.758.543-.545.068-1.088.241-1.652.184z" fill="#E5CF95"/><path d="M34.47 30.098c.567.898.919 1.902 1.329 2.876a.61.61 0 01-.09.689c-.04.049-.073.102-.11.153-3.069 4.392-4.768 9.368-6.097 14.498-.117.45-.232.91-.08 1.388.387-.08.336-.42.39-.667.79-3.597 2.251-6.94 3.948-10.18.718-1.371 1.62-2.647 2.51-4.082.49.977.465 1.883.594 2.761a3.1 3.1 0 01-.51 2.294c-1.442 2.154-2.705 4.41-3.647 6.84-1.1 2.837-1.89 5.747-2.206 8.775-.06.562-.285.878-.79 1.13-1.059.525-2.081 1.129-3.12 1.695.244-1.736.159-3.481.19-5.224a1.15 1.15 0 01.018-.186c.25-1.343.295-2.71.483-4.064.197-1.418.456-2.816.768-4.206.45-2.008 1.175-3.937 1.828-5.884 1.05-3.124 2.455-6.061 4.592-8.606z" fill="#D8B660"/><path d="M82.219 106.733c1.482-1.949 2.369-4.225 3.554-6.341.867-1.547 1.563-3.186 2.25-4.824 1.337-3.185 2.599-6.4 3.639-9.698a68.11 68.11 0 002.413-10.048c.233-1.505.627-2.98.797-4.49.25-2.157.719-4.28.89-6.454.184-2.359.401-4.71.35-7.08 0-.186-.008-.376.173-.502.279.39.166.846.17 1.265.035 4.053.107 8.106-.134 12.158a100.008 100.008 0 01-2.166 15.435c-.637 2.926-1.266 5.86-2.408 8.63-1.21 2.931-2.346 5.909-4.186 8.543-.536.767-1.227 1.416-1.662 2.259a.664.664 0 01-.436.325c-1.07.31-2.119.72-3.244.822z" fill="#90793F"/><path d="M60.52 47.086c.067-1.82.47-3.621 1.426-5.286a8.09 8.09 0 012.636-2.732c.798-.527 1.714-.579 2.617-.438 2.284.356 4.034 1.56 4.994 3.658 1.467 3.207 1.52 6.373-.6 9.403-2.037 2.91-5.684 3.063-7.948 2.048a4.253 4.253 0 01-2.046-1.98c-.75-1.438-1.063-2.98-1.08-4.673zm10.903-.228c.074-1.486-.125-2.67-.676-3.782-.627-1.249-1.734-1.674-3.048-1.196a3.22 3.22 0 00-1.281.903 6.643 6.643 0 00-1.7 3.566c-.228 1.52-.362 3.03.216 4.51.657 1.68 2.233 2.258 3.789 1.351a4.88 4.88 0 002.241-2.767c.302-.918.525-1.856.46-2.585z" fill="#fff"/><path d="M26.023 74.157c0 .377-.018.753 0 1.123.126 2.68-.16 5.351-.233 8.032a31.7 31.7 0 01-.634 5.63c-.25 1.206-.367 2.45-.639 3.66-.313 1.401-.732 2.783-1.497 4.004-.563.904-1.342 1.631-2.384 2.017-1.241-.407-2.44-.914-3.64-1.433-.013-.226.154-.186.24-.196 1.777-.219 2.922-1.296 3.744-2.784.808-1.465 1.123-3.098 1.458-4.71.4-1.923.572-3.883.736-5.835.25-3.04.411-6.088.586-9.135.079-1.368.096-2.74.15-4.109.008-.203-.07-.424.156-.69.635 1.521 1.483 2.888 1.957 4.426z" fill="#E5CF95"/><path d="M49.262 91.549c.493-.301.981.008 1.424.101 2.133.453 4.258.312 6.411.176 4.334-.272 8.25-1.835 12.047-3.75 2.808-1.416 5.522-3.011 8.214-4.655.242-.15.463-.322.771-.251.068.425-.106.794-.282 1.158-.554 1.15-1.13 2.29-1.668 3.448a1.682 1.682 0 01-.96.943c-2.694 1.058-5.36 2.192-8.075 3.195-1.899.701-3.904 1.034-5.898 1.38-1.726.304-3.445.502-5.2.363-2.268-.183-4.392-.848-6.432-1.82-.145-.066-.297-.119-.352-.288z" fill="#A57661"/><path d="M89.542 28.207a40.7 40.7 0 00-6.283-4.336c-2.342-1.333-4.809-2.352-7.331-3.263-.126-.046-.327-.023-.348-.326.456.058.902.083 1.334.174 4.776 1.022 9.003 3.188 12.912 6.076 2.324 1.717 4.384 3.707 6.307 5.83 2.008 2.215 3.67 4.698 5.145 7.313 1.702 3.012 2.872 6.213 3.703 9.547.33 1.389.57 2.797.719 4.216.156 1.341.116 2.674.147 4.015 0 .2.067.512-.251.502-.251-.006-.31-.277-.306-.502.011-.656-.117-1.299-.175-1.946-.168-1.9-.627-3.735-1.138-5.558-.817-2.886-2.008-5.636-3.429-8.27a43.217 43.217 0 00-4.715-7.054 46.26 46.26 0 00-3.446-3.806c-.203-.195-.413-.387-.43-.699.478-.957.252-1.465-.763-1.663-.544-.115-1.094-.171-1.652-.25z" fill="#E5CF95"/><path d="M98.026 61.775a.342.342 0 01.304.305c.136 1.202.27 2.404.402 3.607.408 3.79.157 7.6.147 11.39 0 1.63-.234 3.273-.453 4.906-.233 1.723-.413 3.453-.832 5.145-.993 3.978-2.117 7.928-3.6 11.758a25.26 25.26 0 01-1.986 4.016c-.145.238-.271.488-.405.734-.66.423-1.422.574-2.195.938-.064-.377.117-.564.236-.753 1.432-2.321 2.497-4.804 3.45-7.357 1.744-4.674 2.808-9.512 3.671-14.393.502-2.85.909-5.721 1.072-8.625.126-2.304.217-4.61.307-6.915.05-1.255-.133-2.49-.164-3.736-.009-.341-.079-.685.046-1.02z" fill="#90793F"/><path d="M34.47 30.097c-2.133 2.545-3.543 5.483-4.592 8.605-.654 1.948-1.38 3.874-1.828 5.885a51.421 51.421 0 00-.768 4.206c-.189 1.353-.234 2.72-.483 4.063a1.171 1.171 0 00-.018.186c-.031 1.743.054 3.489-.19 5.224l-1.63 1.38c-.28-.191-.126-.421-.105-.61.322-3.631.566-7.278 1.004-10.89.581-4.77 1.42-9.495 3.64-13.843a33.663 33.663 0 013.776-5.89c.09-.087.188-.166.29-.238.363.641.706 1.244.904 1.922z" fill="#E5CF95"/><path d="M53.906 108.904a3.279 3.279 0 01-1.875-.135 6.14 6.14 0 01.71-1.085c1.032-1.39 2.09-2.76 3-4.24.91-1.479 1.8-3.033 2.816-4.481.354-.502.87-1.004.813-1.733 1.482-.343 2.826-1.047 4.172-1.68a.469.469 0 01.064.514c-.673 1.977-1.254 3.981-2.102 5.898-1.414 3.22-3.657 5.534-7.062 6.623-.2.066-.446.066-.536.319z" fill="#F9B191"/><path d="M95.885 101.79c.011-.371.114-.733.298-1.055 1.506-2.67 2.59-5.522 3.458-8.458a72.501 72.501 0 001.617-6.699c.352-1.794.634-3.601.846-5.42.18-1.538.427-3.073.518-4.618.068-1.115.2-2.231.216-3.348.034-2.309.014-4.62.014-6.928 0-1.93-.24-3.838-.525-5.741-.052-.354-.007-.723-.007-1.112.532.502.376 1.163.478 1.729.225 1.216.287 2.462.435 3.693.251 2.07.3 4.15.417 6.228.074 1.307.201 2.617.108 3.913-.125 1.734-.059 3.479-.315 5.207-.118.794-.102 1.606-.184 2.413a76.722 76.722 0 01-1.439 8.9 57.13 57.13 0 01-2.334 7.765c-.25.661-.779 1.222-.753 1.989-.886.63-1.853 1.1-2.848 1.542z" fill="#E5CF95"/><path d="M53.906 108.904c.09-.251.335-.251.536-.317 3.405-1.09 5.647-3.404 7.063-6.624.843-1.919 1.428-3.923 2.102-5.898a.467.467 0 00-.064-.514c-1.347.633-2.69 1.337-4.173 1.68-.588 0-1.176.024-1.757.008-.55-.014-1.12.06-1.631-.244a1.162 1.162 0 01.012-.186c.3-1.305.154-1.043 1.304-1.034 3.205.023 6.335-.376 9.342-1.552.25-.1.502-.251.805-.19l-.012-.013c.083.157.029.3-.04.443-1.191 2.448-1.943 5.043-2.537 7.687a3.426 3.426 0 01-1.118 1.871 24.25 24.25 0 01-5.458 3.717 10.988 10.988 0 01-4.374 1.166z" fill="#A57661"/><path d="M71.193 17.703a.127.127 0 000-.102c2.016-.202 4.03-.391 6.06-.376 6.329.054 12.466 1.083 18.33 3.542a22.085 22.085 0 014.41 2.437 31.978 31.978 0 018.6 9.265c.041.083.076.17.102.259-.418.056-.601-.281-.836-.514-1.148-1.138-2.259-2.311-3.44-3.422a39.721 39.721 0 00-4.826-3.945c-1.33-.911-2.605-1.901-4.07-2.624-2.385-1.176-4.914-1.926-7.472-2.593-2.463-.642-4.967-1.032-7.491-1.357-.953-.126-1.924-.04-2.864-.307a1.095 1.095 0 00-.907.082c-1.862-.164-3.725-.33-5.596-.345z" fill="#E5CF95"/><path d="M55.8 54.313c.293-.175.11-.376.016-.554-.365-.694-.567-1.447-.815-2.184-.079-.237-.181-.467-.007-.773.445.17.572.597.753.958.523 1.031 1.123 2.007 1.934 2.842a6.023 6.023 0 002.679 1.617c2.259.663 4.548 1.056 6.894.861a16.278 16.278 0 005.307-1.326 22.349 22.349 0 001.924-.957c2.357-1.337 4.085-3.226 4.986-5.814.286-.821.546-1.65.83-2.473.095-.276.032-.556.06-.832l.41.01c.388.184.455.57.556.92.502 1.763.808 3.55.543 5.396-.056.398-.125.792-.197 1.189l-2.601.764-.067-.067c.06-.386.311-.677.502-.99a8.659 8.659 0 001.268-3.874c.077-.834.23-1.656-.176-2.53-.075.49-.157.91-.203 1.334-.318 2.928-1.645 5.331-3.796 7.3-.965.879-2.171 1.352-3.361 1.806-1.813.694-3.716 1.004-5.655 1.17-2.177.192-4.291-.08-6.378-.633a12.182 12.182 0 01-4.856-2.536c-.203-.188-.444-.349-.55-.624z" fill="#A93E14"/><path d="M57.5 27.317c2.636 1.487 5.455 2.56 8.19 3.825.132.061.294.094.387.288-.251.251-.606.273-.919.347-1.297.327-2.56.773-3.776 1.331-.316.14-.597.395-1.026.209-.263-.115-.377.238-.546.414-.47.51-.596.527-1.137.1-1.557-1.227-3.322-2.058-5.173-2.728-.172-.063-.341-.138-.512-.207 0-.24.142-.404.298-.562.92-.94 1.923-1.764 3.1-2.371.38-.196.824-.294 1.115-.646z" fill="#F9B191"/><path d="M49.825 96.856a4.285 4.285 0 001.361-1.564c.215-.416.47-.502.901-.344.443.146.893.269 1.348.37.822.214.824.213.846 1.023.008.217.001.434-.022.65-.101.821-.105.824-.927.997-1.715.361-3.3 1.085-4.894 1.775-1.738.753-3.435 1.613-5.308 2.008-.394.083-.795.142-1.193.211.149-.428.551-.639.821-.965.251-.297.628-.502.688-.934.814-.627 1.228-1.544 1.717-2.398a15.46 15.46 0 001.61-3.944c.105-.416.224-.617.68-.367.455.25.946.449 1.42.67 0 .424.162.813.068 1.276-.286 1.403-.689 2.744-1.5 3.943-.013.021.052.096.118.217.938-.532 1.69-1.209 2.069-2.249.159-.083.348-.148.204-.389l-.007.014z" fill="#D8B660"/><path d="M70.808 29.918c-.864-.567-1.857-.862-2.8-1.24-2.385-.95-4.603-2.195-6.815-3.466-1.137-.654-1.662-1.924-1.436-3.206.07-.404.29-.767.617-1.017 1.197-.936 2.635-1.38 4.026-1.898a.659.659 0 01.658.088c-.489.357-.966.692-1.428 1.046-.573.44-1.083.943-1.337 1.644-.196.537-.146.998.278 1.452 1.058 1.13 2.476 1.631 3.808 2.307 2.34 1.177 4.881 1.854 7.248 2.965.267.125.502.238.627.512l-3.446.813z" fill="#E5CF95"/><path d="M32.751 61.35c.035.418-.28.513-.576.615-.411.143-.833.257-1.241.409-1.506.56-2.434 1.578-2.875 3.167-.555 1.997-.286 3.94.092 5.898.27 1.4.557 2.804 1.172 4.11a.871.871 0 01.027.55c-1.793-2.94-3.203-6.045-3.787-9.461-.273-1.603.065-3.17.793-4.62a3.824 3.824 0 011.797-1.71c.424-.194.859-.364 1.302-.51.943-.338 1.824-.556 2.371.67.19.397.52.71.925.882z" fill="#F9CAB6"/><path d="M107.528 93.474c-.349-.289-.092-.601.024-.846.607-1.301 1.061-2.656 1.505-4.016a61.675 61.675 0 002.06-8.21c.365-2.007.746-4.021 1.053-6.041.204-1.348.236-2.721.443-4.068.165-1.076.057-2.174.315-3.237.024-.154.037-.31.036-.466.22-2.923.203-5.849.191-8.777v-.47c.271.042.187.22.187.327.025 4.016.336 8.032.174 12.047-.089 2.199-.224 4.392-.494 6.586-.251 2.03-.575 4.05-.813 6.08-.251 2.133-.861 4.19-1.406 6.26-.125.475-.34.943-.26 1.459v-.01a.23.23 0 00-.129.088.23.23 0 00-.046.15 22.372 22.372 0 01-2.84 3.144z" fill="#E5CF95"/><path d="M79.048 43.246c-.502-.012-.67-.405-.836-.768-.932-2.036-.888-4.052.034-6.104.892-1.982 2.279-3.523 3.953-4.851a1.58 1.58 0 00.227-.289c.404-.274.794-.568 1.211-.828.319-.198.733-.348.838-.79 1.36-.082 2.715-.038 4.184.015-.292.523-.71.603-1.049.773a16.338 16.338 0 00-5.75 4.693c-1.833 2.398-2.867 5.09-2.812 8.15z" fill="#A93E14"/><path d="M84.476 29.616c-.106.443-.52.592-.839.79-.416.26-.806.554-1.21.829-1.318.205-2.643.376-3.95.627-1.16.227-2.334.309-3.497.49a25.61 25.61 0 00-2.823.558c-1.736.48-3.513.767-5.27 1.138.198-.453.696-.675.99-1.225-1.144.153-1.691.902-2.259 1.617-.376-.046-.711.077-1.06.177-.462.125-.895.366-1.388.385.053-1.123.285-1.43 1.255-1.763.593-.204 1.212-.276 1.814-.423 1.723-.417 3.449-.837 5.145-1.353 1.883-.574 3.778-1.054 5.743-1.219 2.445-.205 4.886-.535 7.349-.628z" fill="#F99067"/><path d="M55.97 96.994c.51.304 1.08.23 1.631.243.587.017 1.175 0 1.757-.007.056.728-.46 1.228-.813 1.733-1.016 1.448-1.895 2.979-2.816 4.481-.921 1.502-1.957 2.846-2.99 4.24a6.144 6.144 0 00-.708 1.085c-.753-.126-1.004-.669-1.086-1.327-.064-.538.11-1.035.331-1.531.465-1.035 1.143-1.932 1.811-2.827 1.36-1.822 2.353-3.799 2.817-6.031.005-.023.047-.039.066-.06z" fill="#F9CAB6"/><path d="M107.938 71.019c-.013-.607-.067-1.214.053-1.904a.738.738 0 01.452.647c.081.803.191 1.61.197 2.415.018 1.835.14 3.667.365 5.489.092.753-.171 1.48-.156 2.231.037 1.778-.283 3.524-.502 5.28a43.15 43.15 0 01-2.046 8.698c-.086.236-.108.49-.066.737v-.023c-.138.05-.164.175-.199.294-.708.702-1.319 1.506-2.249 1.956 0-.061-.026-.133 0-.181 1.527-3.175 2.279-6.584 2.953-10.006.462-2.35.96-4.698 1.227-7.084.295-2.635.338-5.284.301-7.933-.008-.269-.049-.504-.33-.616z" fill="#90793F"/><path d="M54.49 56.307c-.312.36-.775.31-1.177.426-1.365.39-2.783.601-4.053 1.303-.972.535-1.632 1.776-1.461 2.87.17 1.095.437 2.12 1.072 3.036.25.36.354.73-.04 1.074-1.097-1.072-1.937-2.34-2.727-3.639a4.97 4.97 0 01-.777-2.835c.038-.957.447-1.651 1.339-2.059 1.49-.68 3.07-.746 4.657-.646.788.05 1.606.05 2.35.455.214.112.539.014.817.015z" fill="#F9CAB6"/><path d="M28.276 98.168c-.006.032 0 .08-.018.09-.502.316-.997.628-1.255 1.222-.302-.322-.15-.517-.062-.704.777-1.654 1.068-3.425 1.368-5.212.23-1.378.388-2.767.472-4.162.112-1.892.143-3.791-.068-5.695-.198-1.795-.53-3.563-.793-5.345a.848.848 0 01.09-.544c.682.773 1.129 1.711 1.756 2.525.118.184.186.396.198.614.279 1.851.478 3.709.422 5.58-.112 3.74-.753 7.365-2.472 10.734-.245.463-.182.772.362.897zm45.653-6.707a.42.42 0 01-.068.368c-1.349 2.284-2.562 4.643-4.05 6.847-.449.662-.47.685-1.111.181-1.4-1.097-1.334-.594-.628-2.288.468-1.12.965-2.235 1.632-3.263.19-.287.366-.576.71-.718 1.064-.45 2.154-.84 3.263-1.164a.65.65 0 01.252.037z" fill="#90793F"/><path d="M42.322 24.863c-.259.201-.512.152-.776 0-1.487-.864-3.15-1.306-4.728-1.957-1.13-.468-2.338-.747-3.775-1.077 1.453 2.958 2.72 5.755 3.703 8.732-.502-.012-.43-.628-.854-.569l.014-.014c.053-.19.022-.338-.196-.391l.015.017c.041-.188.006-.336-.205-.392l.02.025a.217.217 0 00-.149-.239c-1.581-3.045-3.169-6.087-4.63-9.444 1.081.398 1.947.704 2.805 1.033 2.616 1.003 5.177 2.122 7.627 3.486.401.22.845.389 1.129.79z" fill="#F99067"/><path d="M55.627 25.61c-.87.244-1.686.44-2.483.7-1.846.6-3.575 1.454-5.252 2.427-.522.307-.53.293-.803-.264-.205-.42-.405-.844-.615-1.262-.262-.525-.273-.544.296-.808a30.576 30.576 0 017.486-2.304c.345-.061.576-.052.726.338.15.39.386.711.645 1.173z" fill="#D8B660"/><path d="M39.707 53.917c.299-.05.55.088.793.224.97.55 2.042.753 3.121.879 1.004.114 1.975-.187 2.923-.488 2.665-.847 4.827-2.393 6.446-4.694 1.332-1.893 2.487-3.874 3.193-6.092.046-.148.105-.292.174-.43.023-.047.093-.071.237-.171-.384 2.858-1.38 5.396-2.832 7.78-.152-.038-.438-.25-.408.064.06.604-.331.81-.72 1.064-.886.576-1.766 1.161-2.652 1.738-.783.512-1.587.965-2.55 1.056a1.8 1.8 0 00-.8.225c-1.255.817-2.58.495-3.89.268a6.893 6.893 0 01-2.608-.962c-.175-.116-.383-.215-.427-.461z" fill="#A93E14"/><path d="M36.35 95.963c-.225 1.73-1.535 3.919-2.833 4.733a.151.151 0 01-.059-.033.15.15 0 01-.052-.12.16.16 0 01.017-.065c.879-1.356 1.319-2.855 1.663-4.425.503-2.246.726-4.546.664-6.847-.03-.96-.268-1.91-.16-2.886.578.18.997.62 1.506.917.44.259.352.687.32 1.09a32.032 32.032 0 01-1.15 6.418c-.116.403-.318.841.084 1.218z" fill="#90793F"/><path d="M57.502 27.317c-.291.352-.734.45-1.115.646-1.177.607-2.18 1.432-3.1 2.37-.156.159-.298.323-.298.563-1.412-.31-2.802-.779-4.446-.779 1.043-.79 2.082-1.27 3.09-1.771a18.575 18.575 0 014.4-1.506c.608-.13 1.105-.07 1.469.477z" fill="#A57661"/><path d="M60.855 52.813c-.561-.07-.73-.591-.958-.95-2.12-3.332-2.32-8.447.07-11.758.125-.171.213-.39.455-.447.68.604.675.602.276 1.337-1.217 2.235-1.525 4.62-1.229 7.123.202 1.63.67 3.216 1.386 4.695z" fill="#A93E14"/><path d="M51.127 17.713c-.1.251-.354.226-.542.316a68.394 68.394 0 00-7.931 4.518c-.234.152-.502.26-.541.591l-1.883-.948c.037-.366.32-.419.511-.55 2.37-1.616 5.074-2.453 7.762-3.323.854-.279 1.713-.563 2.624-.604z" fill="#E5CF95"/><path d="M43.444 100.081c-.06.435-.442.636-.688.934-.27.326-.672.537-.82.965-.116.125-.251.094-.388.051-.026-.64.493-1.045.692-1.595.52-1.454.874-2.962 1.053-4.496.187-1.516.163-3.026.161-4.54.112.051.227.096.335.156 1.649.916 1.706.93 1.281 2.713-.424 1.784-.677 3.623-1.554 5.271a.594.594 0 00-.072.541z" fill="#90793F"/><path d="M35.415 50.259a26.289 26.289 0 00-2.073 4.337c-.335.933-.628 1.868-.77 2.85-.027.189-.049.377-.26.451-.093-1.093.141-2.16.29-3.229a31.393 31.393 0 011.731-6.756c.062-.163.08-.368.361-.494l.72 2.84z" fill="#A57661"/><path d="M81.675 53.185c.066-.396.14-.79.197-1.188.264-1.841-.04-3.627-.544-5.396-.1-.35-.168-.737-.556-.92-.099-.84-.564-1.579-.665-2.42-.026-.213-.125-.418-.064-.717.433.57.772 1.205 1.004 1.882.859 2.433 1.66 4.885 1.998 7.46.133 1.003.144 1.01-.813 1.245-.184.034-.37.052-.557.054z" fill="#FD5D1D"/><path d="M49.63 97.226c-.377 1.04-1.13 1.717-2.069 2.249-.066-.126-.132-.196-.118-.217.81-1.199 1.214-2.54 1.5-3.943.094-.463-.062-.852-.068-1.276.03 0 .063-.023.09-.017 1.568.354 1.558.352 1.085 1.864-.098.314-.288.616-.224.97l.008-.019c-.22.05-.188.232-.205.389z" fill="#90793F"/><path d="M83.187 58.98c-.305-.376-.242-.878-.387-1.309-.377-1.119-1.137-1.643-2.28-1.694-.275-.012-.559.033-.815-.119.979-.557 2.063-.585 3.145-.627.299-.013.473.108.458.429-.05 1.11.13 2.226-.12 3.32z" fill="#A57661"/><path d="M65.912 103.799c.207-1.24.507-2.463.897-3.658.126-.391.332-.359.628-.17 1.021.655 1.04.706.352 1.699-.39.563-.785 1.129-1.194 1.672-.14.187-.251.438-.683.457z" fill="#526B8F"/><path d="M62.388 35.377c.015.486.201 1.068 0 1.428-.2.36-.798.523-1.227.753-.183.1-.348.258-.616.24a2.61 2.61 0 01-.395-1.46c.774-.245 1.442-.754 2.238-.961z" fill="#FD5D1D"/><path d="M62.392 35.377c-.797.207-1.465.716-2.243.966-.034-.25-.075-.49-.1-.736-.028-.268.04-.486.31-.615.773-.368 1.54-.746 2.476-1.2-.184.654-.313 1.12-.443 1.585z" fill="#F99067"/><path d="M63.157 35.002c.493-.02.926-.251 1.388-.386.348-.099.688-.222 1.06-.177-.202.484-.433.957-.598 1.451-.092.282-.25.37-.514.438-.972.251-1.206.113-1.359-.868a2.25 2.25 0 01.023-.458z" fill="#FD5D1D"/><path d="M59.24 37.199c-.927.48-1.62 1.207-2.188 2.066-.051.076-.091.16-.144.237a.27.27 0 01-.313.131c-.192-.057-.203-.214-.166-.37.042-.18.11-.352.166-.527.377-.024.39-.356.502-.592a6.134 6.134 0 011.928-2.295c.26.452.134.92.216 1.35z" fill="#F99067"/><path d="M62.461 37.78c.232 0 .463.006.562.251.11.276-.139.377-.297.51-.187.164-.384.32-.553.503-.208.217-.42.278-.64.054-.221-.225-.698-.37-.642-.737.06-.393.53-.335.844-.42.238-.066.483-.108.726-.161z" fill="#A93E14"/><path d="M97.881 60.45c.406.277.363.608.126.966-.297-.291-.195-.63-.126-.966z" fill="#90793F"/><path d="M109.066 33.299c-.418 0-.41-.285-.388-.58.196.14.334.346.388.58z" fill="#E5CF95"/><path d="M29.516 76.424c.226.066.23.25.236.435a.588.588 0 01-.236-.435z" fill="#F9CAB6"/><path d="M35.522 29.209c.211.056.251.204.205.393-.176-.076-.212-.224-.205-.393z" fill="#FD5D1D"/><path d="M35.71 29.584c.218.053.25.201.196.392-.176-.075-.21-.221-.196-.392zm2.27 11.2a.602.602 0 01.159-.401c.031.026.062.052.095.076a.596.596 0 01-.184.377l-.07-.052z" fill="#FD5D1D"/><path d="M37.764 41.132a.478.478 0 01.215-.35l.07.053a.601.601 0 01-.19.376c-.033-.028-.064-.05-.095-.079z" fill="#FD5D1D"/><path d="M29.318 76.065c.23.046.251.212.224.399-.156-.088-.194-.241-.224-.4z" fill="#F9CAB6"/><path d="M51.303 17.64l-.211.109c.021-.13.108-.124.21-.109z" fill="#E5CF95"/><path d="M35.387 28.996a.219.219 0 01.15.24c-.119-.035-.15-.122-.15-.24z" fill="#FD5D1D"/><path d="M79.074 53.95c-.038.033-.098.1-.107.094-.115-.081-.024-.118.042-.16.021.022.049.043.065.066z" fill="#A93E14"/><path d="M109.426 33.873c-.066-.099-.126-.199-.197-.298a.363.363 0 01.197.298zm-.22-.366l-.169-.216a.212.212 0 01.169.216z" fill="#E5CF95"/><path d="M71.191 17.703c1.871.015 3.734.18 5.596.348l5.823 1.031c.132.216.376.202.576.264a27.06 27.06 0 018.805 4.631c.908.712 1.739 1.525 2.667 2.204a26.708 26.708 0 016.301 6.455 76.56 76.56 0 014.603 7.48c.689 1.297 1.034 2.738 1.591 4.09 1.279 3.104 1.717 6.367 1.847 9.678.097 2.429.037 4.864.052 7.298 0 .34-.06.685.059 1.02-.088.585-.175 1.17-.265 1.757-.058.48-.22.94-.473 1.351-.34-.076-.287-.296-.3-.467-.376-4.881-.729-9.765-1.129-14.644-.204-2.479-1.004-4.803-1.927-7.1-2.092-5.2-5.223-9.705-9.174-13.651a58.529 58.529 0 00-3.717-3.425c-3.4-2.852-7.193-4.914-11.566-5.857a197.12 197.12 0 00-9.267-1.785.383.383 0 01-.093-.014c-.25-.064-.679.049-.686-.31-.008-.359.434-.251.677-.354z" fill="#040303"/><path d="M109.112 62.202c-.125-.335-.057-.68-.059-1.02-.015-2.434.046-4.87-.051-7.298-.126-3.31-.569-6.573-1.847-9.679-.557-1.351-.903-2.792-1.592-4.09a76.369 76.369 0 00-4.602-7.479 26.712 26.712 0 00-6.301-6.455c-.929-.679-1.757-1.492-2.667-2.204a27.06 27.06 0 00-8.806-4.631c-.197-.062-.444-.048-.576-.264.519-.23 1.02 0 1.506.105a20.535 20.535 0 015.385 2.065c1.777.977 3.564 1.919 5.145 3.197 2.571 2.077 5.054 4.24 7.095 6.876 2.042 2.635 4.016 5.338 5.396 8.386.975 2.149 1.825 4.375 2.215 6.724.219 1.315.291 2.654.414 3.984.251 2.769.235 5.543.185 8.317a15.507 15.507 0 01-.355 2.863c-.055.293-.147.543-.485.603z" fill="#90793F"/><path d="M48.576 80.32c1.031.265 1.72 1.08 2.689 1.337.177-.261.049-.533-.008-.784A24.008 24.008 0 0046.03 70.44a2.31 2.31 0 00-.994-.659c-1.774-.675-3.322-1.712-4.725-2.977a3.712 3.712 0 01-.879-1.081.195.195 0 01.056-.251.182.182 0 01.25 0c.051.038.1.08.144.125 1.699 1.82 3.854 2.821 6.214 3.445a33.518 33.518 0 009.245 1.14 27.276 27.276 0 008.977-1.643 17.847 17.847 0 006.629-4.28c.212-.218.48-.401.573-.729-.429-.179-.833.251-1.255.043-.057-.39.272-.474.494-.596a92.914 92.914 0 013.224-1.71 6.17 6.17 0 012.61-.654c1.13-.033 1.866.502 2.275 1.465.368.864.458 1.775-.09 2.617-.388-.058-.402-.305-.477-.495a6.803 6.803 0 00-.879-1.535 1.226 1.226 0 00-.862-.502c-.656-.088-.76 0-.704.673.098 1.15.216 2.297.311 3.446.14 1.66-.007 3.305-.278 4.94a28.443 28.443 0 01-2.422 7.732c-1.97 4.096-5.345 6.15-9.676 6.777a17.407 17.407 0 01-8.658-.922c-2.466-.918-4.54-2.454-6.467-4.204-.04-.028-.039-.108-.09-.284zM74.01 64.767a2.36 2.36 0 00-.386-1.38c-.31.082-.422.322-.576.509-2.603 3.143-5.884 5.25-9.802 6.379-2.07.586-4.192.965-6.336 1.129a25.21 25.21 0 01-7.064-.377c-.487-.097-.98-.305-1.632-.192l1.17 1.447c.16.268.314.54.48.802 1.704 2.684 2.822 5.615 3.655 8.665-.187 1.427.834 1.752 1.862 2.078.268.085.534.177.807.239 1.947.448 3.943.64 5.94.572a13.064 13.064 0 005.233-1.255c1.933-.932 3.503-2.241 4.542-4.158a21.745 21.745 0 002.59-8.534c.194-1.988.03-3.994-.483-5.924z" fill="#040303"/><path d="M52.593 88.324l-.525-.126c-.32-.26-.72-.344-1.094-.478a16.814 16.814 0 01-4.957-2.778c-1.631-1.336-3.096-2.824-3.574-5 .324-2.025 1.796-2.58 3.749-2.394.62.053 1.222.234 1.77.532.212.117.477.25.42.546-.072.356-.42.147-.628.234-.279-.111-.57-.065-.878-.188-.728-.293-1.534-.25-2.29 0-.786.251-1.095.892-.854 1.697a4.961 4.961 0 001.013 1.77 13.898 13.898 0 002.51 2.356c2.573 1.845 5.472 2.897 8.55 3.514l1.165.318c-.55.41-1.085.403-1.597.367-.795-.055-1.587-.177-2.378-.271a.3.3 0 00-.402-.1z" fill="#040303"/><path d="M55.812 88.011c-3.077-.62-5.975-1.672-8.55-3.513a13.894 13.894 0 01-2.51-2.356 4.958 4.958 0 01-1.012-1.77c-.24-.805.068-1.441.853-1.697.753-.251 1.563-.289 2.29 0 .306.125.598.076.88.188-.29.282-.652.15-.982.167-.928.045-1.32.55-1.004 1.417.203.552.435 1.138.813 1.572.726.856 1.533 1.64 2.41 2.34 1.62 1.263 3.437 2.106 5.357 2.79.512.192 1.14.289 1.455.862zm26.422-26.543c-.244.491-.117 1.11-.347 1.668-.099.243-.173.489-.473.502-.36.017-.424-.273-.528-.545-.14-.36-.126-.728-.154-1.101-.05-.81-.348-1.506-.99-2.035-.297-.245-.62-.432-1.014-.407-.598.039-1.154-.261-1.757-.2a.445.445 0 01-.465-.25c-.094-.209.07-.344.191-.485.736-.86 2.046-1.178 3.253-.79 1.207.39 2.028 1.381 2.087 2.58.021.346.15.662.197 1.063z" fill="#F9CAB6"/><path d="M42.444 79.946c.478 2.176 1.939 3.664 3.574 5a16.815 16.815 0 004.957 2.778c.376.134.774.217 1.094.478-.348.348-.737.049-1.03-.031-2.924-.802-5.605-2.063-7.732-4.307-.908-.959-1.368-2.065-1.173-3.402.031-.224.045-.44.31-.516z" fill="#A57661"/><path d="M74.73 82.44a.615.615 0 01-.722.533c-.333-.05-.48-.265-.444-.581a.574.574 0 01.613-.554.559.559 0 01.552.602z" fill="#040303"/><path d="M52.592 88.324a.3.3 0 01.409.101c-.202.229-.316.106-.41-.101z" fill="#A57661"/><path d="M40.692 37.173c-.113-1.13-.018-2.236.516-3.263.151-.292.285-.615.812-.81-.477 1.558-.662 3.012-.026 4.438.224.502.413 1.027.897 1.443.55-.62 1.052-1.13.763-2.052-.31-.98-.155-1.979.298-2.898.22-.448.384-.994 1.02-1.063l-.013-.013c-.235.643-.502 1.275-.644 1.949-.14.652-.198 1.295.16 1.998.627-.519 1.254-1.014 1.855-1.534.201-.173.126-.47.201-.705.205-.614.331-1.267 1.014-1.703.021.678-.597 1.173-.287 1.871.791-.18 1.568-.492 2.395-.58.241-.026.331-.264.453-.443.177-.295.416-.549.7-.742.11-.067.225-.126.338-.024.113.101.06.22-.011.327-.171.258-.426.46-.519.892.93.167 1.79.551 2.73.91-.575 1.08-.713 2.238-.571 3.44.026.375.13.74.304 1.073 2.317 3.99.878 8.937-2.26 11.83-1.6 1.476-3.465 2.315-5.671 2.247-1.516-.046-2.636-.753-3.44-2.06-1.652-2.678-1.61-5.488-.796-8.38.219-.847.545-1.663.97-2.427.299-.512.251-.909-.101-1.352-.448-.568-.727-1.233-.98-1.907a.542.542 0 00-.107-.462zm1.435 10.29c.06 1.316.236 2.566.826 3.745.502.991 1.303 1.388 2.346 1.394 1.631.009 3.055-.561 4.295-1.594 1.346-1.12 2.367-2.495 2.933-4.156.87-2.559.627-4.99-1.054-7.178-1.682-2.189-4.805-2.216-6.468-.064-1.788 2.31-2.683 4.972-2.878 7.85v.003zm10.474-11.888c-.661-.232-1.245-.28-1.826-.33-.204-.017-.39.06-.37.305.078.943.213 1.863 1.23 2.415.153-.856.482-1.67.966-2.392v.002zm-3.283-.116c-.312-.066-.595.095-.888.168a7.237 7.237 0 00-.693.26c-.33.119-.329.307-.142.562.23.31 1.327.616 1.696.394.369-.222.067-.62.117-.935a.564.564 0 00-.09-.45zm-2.915 1.27c-.14.02-.18.143-.186.264a.4.4 0 00.241.063.15.15 0 00.146-.19c-.03-.091-.074-.167-.205-.137h.004zm-.348.431c-.017-.02-.033-.055-.054-.057-.02-.003-.043.028-.066.044.019.02.035.055.055.056.02.001.045-.028.065-.043z" fill="#040303"/><path d="M40.692 37.173a.542.542 0 01.105.459c-1.476 2.008-1.995 4.392-2.584 6.738a13.914 13.914 0 00-.334 1.828c-.094.85.206 1.655.413 2.462.203.753.494 1.48.867 2.164.144.27.358.517.358.85l-.01.01c-.456-.055-.683-.406-.911-.732-.975-1.388-1.687-2.887-1.86-4.598-.105-1.043.2-2.027.478-3.012.202-.715.43-1.423.647-2.133a.603.603 0 00.19-.377.596.596 0 00.183-.376c.59-.817 1.046-1.723 1.68-2.51.216-.298.478-.56.778-.773zm19.239 16.946c-.995-.232-1.717-.908-2.259-1.682a7.163 7.163 0 01-1.295-4.123 1.57 1.57 0 01.062-.459.376.376 0 01.332-.286.335.335 0 01.367.227c.148.342.267.695.355 1.057.25 1.327.862 2.524 1.325 3.775.227.612.802.944 1.13 1.473l-.017.018zm.196.178c.088 0 .177 0 .265.014.125.017.25.08.179.218-.072.138-.204.06-.292-.019a1.385 1.385 0 01-.156-.21l.004-.003z" fill="#F99067"/><path d="M56.748 42.304c0 .088 0 .178-.008.265a.395.395 0 01-.061.148c-.113-.032-.116-.126-.082-.21a.859.859 0 01.16-.195l-.01-.008z" fill="#A93E14"/><path d="M71.127 33.815c.088-.115.261-.15.299-.053.059.148-.126.117-.219.14l-.08-.087z" fill="#040303"/><path d="M56.757 42.313l.057-.243c.171.133.011.172-.066.235l.009.008z" fill="#A93E14"/><path d="M44.972 32.965v-.07s-.02.057-.019.058l.019.012z" fill="#040303"/><path d="M59.945 54.106a.253.253 0 01.184.193.252.252 0 01-.191-.183l.007-.01zM39.516 51.67c.028.03.057.058.084.089l-.094-.078.01-.01z" fill="#F99067"/><path d="M71.424 46.858c.065.729-.157 1.666-.46 2.585a4.88 4.88 0 01-2.24 2.767c-1.557.905-3.138.329-3.79-1.351-.578-1.48-.443-2.99-.216-4.51a6.644 6.644 0 011.7-3.566 3.22 3.22 0 011.281-.903c1.314-.478 2.424-.053 3.049 1.196.555 1.111.75 2.296.676 3.782zm-2.578-1.73a4.254 4.254 0 00-.16-.78c-.21-.567-.797-.735-1.293-.404-.662.443-.937 1.778-.502 2.446.407.627 1.194.639 1.623.023.238-.346.288-.746.332-1.286zm.716 3.89c.011-.433-.206-.716-.554-.718-.404 0-.793.483-.799 1.004 0 .383.25.695.588.718.405.016.75-.436.765-1.01v.006z" fill="#040303"/><path d="M74.013 64.767c.513 1.932.677 3.94.483 5.93a21.745 21.745 0 01-2.59 8.533c-1.04 1.917-2.609 3.226-4.543 4.158a13.063 13.063 0 01-5.233 1.255 22.982 22.982 0 01-5.94-.572c-.273-.061-.539-.154-.806-.238-1.028-.323-2.054-.648-1.862-2.07-.834-3.05-1.952-5.98-3.655-8.665-.167-.262-.32-.534-.48-.802a1.66 1.66 0 01.738.05c1.487.336 3.006.513 4.531.53 1.723.034 3.427-.178 5.109-.454 5.607-.93 10.49-3.262 14.248-7.655z" fill="#fff"/><path d="M74.01 64.767c-3.759 4.392-8.642 6.725-14.249 7.646-1.681.276-3.388.488-5.108.454a21.656 21.656 0 01-4.532-.53 1.652 1.652 0 00-.738-.05l-1.164-1.452c.648-.112 1.142.095 1.631.193 2.325.456 4.703.583 7.064.376a32.27 32.27 0 006.33-1.13c3.916-1.129 7.198-3.233 9.8-6.38.155-.188.267-.427.577-.51.27.41.406.893.389 1.383z" fill="#8D9DB5"/><path d="M42.127 47.46c.194-2.878 1.09-5.54 2.877-7.853 1.663-2.152 4.8-2.107 6.468.064 1.668 2.171 1.924 4.62 1.054 7.178-.566 1.662-1.587 3.036-2.932 4.157-1.24 1.032-2.668 1.602-4.296 1.593-1.043 0-1.848-.403-2.345-1.394-.59-1.178-.766-2.428-.826-3.745zm2.062.484c-.04.357.04.946.22 1.512.447 1.395 1.685 1.872 2.966 1.158.331-.175.63-.404.886-.679a9.23 9.23 0 002.384-5.362c.126-1.338-.565-2.322-1.621-3.06-.518-.362-1.093-.395-1.692-.161-.886.345-1.506.975-1.959 1.784-.795 1.413-1.104 2.962-1.184 4.808z" fill="#fff"/><path d="M52.6 35.573a6.304 6.304 0 00-.966 2.384c-1.017-.552-1.152-1.472-1.23-2.415-.02-.244.165-.322.37-.304.581.055 1.165.102 1.826.335zm-3.284-.115a.562.562 0 01.09.45c-.05.315.252.711-.117.935-.37.223-1.466-.085-1.696-.395-.187-.25-.188-.443.142-.562.227-.098.458-.185.693-.26.29-.072.572-.238.888-.168z" fill="#FD5D1D"/><path d="M46.399 36.728c.125-.03.175.047.2.139a.15.15 0 01-.145.189.401.401 0 01-.241-.063c.006-.122.046-.243.186-.265zm-.344.432c-.022.016-.046.046-.066.043-.02-.002-.036-.036-.055-.056.022-.015.046-.046.067-.044.02 0 .037.042.054.057z" fill="#A93E14"/><path d="M68.844 45.128c-.044.54-.094.94-.335 1.285-.429.616-1.216.603-1.622-.023-.433-.668-.158-2.008.502-2.446.502-.331 1.083-.163 1.292.404.079.254.133.515.163.78zm.716 3.885c-.015.573-.36 1.025-.764 1.004-.337-.023-.593-.335-.589-.718.006-.516.395-1.004.8-1.004.347.003.564.285.553.718z" fill="#fff"/><path d="M44.188 47.944c.08-1.846.389-3.389 1.18-4.808.45-.81 1.072-1.44 1.958-1.785.599-.233 1.173-.2 1.692.161 1.056.74 1.75 1.723 1.62 3.06a9.231 9.231 0 01-2.383 5.363 3.34 3.34 0 01-.886.679c-1.282.714-2.519.237-2.966-1.158-.175-.566-.254-1.155-.215-1.513zm1.67-2.893c-.02.355.032.59.28.733.293.17.547.043.753-.156a2.635 2.635 0 00.858-1.89c.009-.297-.077-.568-.377-.681-.34-.126-.613.028-.809.294a4.304 4.304 0 00-.705 1.7zm1.389 3.456c.37 0 .817-.526.833-.991.012-.322-.125-.549-.472-.568-.37-.02-.887.525-.904.931a.573.573 0 00.543.622v.006z" fill="#040303"/><path d="M45.859 45.051c.11-.611.35-1.191.705-1.7.196-.266.47-.42.81-.294.302.113.387.384.376.68a2.633 2.633 0 01-.858 1.891c-.209.199-.462.325-.753.156-.247-.15-.299-.384-.28-.733zM47.25 48.5a.572.572 0 01-.544-.627c.017-.406.535-.951.905-.93.346.018.483.25.472.566-.02.466-.463.99-.834.992z" fill="#fff"/></svg>