<svg width="93" height="107" fill="none" xmlns="http://www.w3.org/2000/svg"><path d="M88.7 43.308a44.025 44.025 0 00-.358-.87 45.877 45.877 0 00-9.772-14.525L54.072 3.317a11.248 11.248 0 00-15.952 0c-3.31 3.324-4.133 8.2-2.467 12.294a11.285 11.285 0 002.467 3.722l24.498 24.596a23.342 23.342 0 014.47 6.296c.03.064.063.127.093.192.107.225.208.453.308.681.065.148.13.294.19.442.062.149.119.299.177.448.09.232.18.465.263.7l.068.203a23.718 23.718 0 01.348 14.138L85.549 84.11a46.227 46.227 0 006.44-22.797 46.44 46.44 0 00-3.288-18.006zM68.438 53.67zm.246.868zm.216.888zm.183.908zm.149.93zm.114.958c.013.141.028.281.04.423-.012-.142-.027-.282-.04-.423zm.076 1.009c.007.114.016.227.02.341-.004-.114-.013-.227-.02-.341z" fill="url(#b)"/><path d="M85.108 84.854c.152-.245.295-.495.443-.743L68.536 67.029a23.32 23.32 0 01-5.917 10.075 23.189 23.189 0 01-10.035 5.94l.926.93h27.232c1.548 0 3.023.314 4.366.88z" fill="url(#c)"/><path d="M80.742 83.974H53.51l-.926-.93a23.45 23.45 0 01-14.08-.349c-.068-.023-.136-.045-.204-.07a22.77 22.77 0 01-.695-.263c-.15-.058-.3-.116-.448-.177-.148-.062-.294-.127-.44-.192-.227-.1-.454-.201-.68-.308l-.19-.095a23.25 23.25 0 01-6.272-4.487 23.352 23.352 0 01-4.47-6.297c-.03-.064-.063-.127-.093-.191a24.31 24.31 0 01-.308-.683c-.064-.146-.13-.292-.19-.44-.062-.15-.12-.3-.177-.45-.091-.232-.18-.464-.262-.699l-.07-.204a23.43 23.43 0 01-1.273-7.624c0-2.669.452-5.232 1.274-7.624.023-.068.045-.137.069-.204.083-.235.172-.467.262-.698.058-.15.116-.301.177-.45.062-.148.126-.295.19-.44.1-.23.2-.457.308-.683.03-.065.063-.128.094-.192.119-.245.244-.487.372-.728 3.936-7.395 11.7-12.44 20.619-12.44 8.918 0 16.683 5.044 20.619 12.439a23.313 23.313 0 00-4.097-5.567L38.12 19.332a11.295 11.295 0 01-2.467-3.721c-8.21 1.924-15.578 6.066-21.446 11.758A46.3 46.3 0 003.67 42.87l-.179.439a46.555 46.555 0 00.179 34.854l.18.43C8.5 89.502 17.223 98.26 28.09 102.929c.143.062.288.122.433.183l.433.178c16.557 6.66 36.224 3.271 49.613-10.171a46.066 46.066 0 006.538-8.265 11.21 11.21 0 00-4.366-.88z" fill="url(#e)"/><path d="M81.852 106.569c.109-.011.216-.025.323-.039.073-.009.147-.017.22-.028.118-.018.234-.039.35-.06.064-.011.128-.021.19-.034.12-.023.236-.05.353-.077l.185-.043c.114-.028.226-.06.338-.091.065-.019.131-.036.197-.057.104-.031.207-.065.31-.1.074-.025.148-.049.22-.075.093-.033.184-.069.276-.104.083-.032.166-.064.248-.098.08-.033.158-.068.236-.104.093-.041.185-.081.277-.125.067-.032.133-.066.2-.099.1-.05.2-.1.298-.154.058-.031.115-.064.171-.096.105-.058.208-.117.311-.179.052-.031.102-.064.152-.096.105-.066.21-.132.313-.201l.148-.104c.1-.07.2-.14.3-.213l.164-.129c.089-.069.179-.138.266-.21.072-.059.14-.121.21-.181.07-.06.14-.118.207-.18.13-.117.255-.237.378-.36l.026-.025.022-.023c.124-.125.244-.252.362-.383.063-.07.122-.141.184-.213.058-.068.119-.135.175-.205.074-.09.143-.181.213-.272l.125-.161c.074-.1.144-.202.214-.304.034-.048.069-.096.101-.145.07-.105.137-.211.203-.317.03-.05.063-.099.093-.15.063-.104.122-.21.181-.316.032-.057.064-.112.094-.168a14.4 14.4 0 00.154-.303c.033-.066.066-.131.098-.198.043-.093.084-.186.125-.28.035-.078.07-.156.102-.236.034-.083.066-.166.098-.25.036-.09.071-.183.104-.275.026-.073.05-.147.074-.22.035-.104.07-.208.101-.313.02-.065.037-.132.056-.197.032-.113.063-.226.091-.34l.043-.184c.027-.119.054-.237.077-.357.012-.061.022-.124.033-.186.022-.118.043-.237.06-.357.01-.07.018-.142.027-.213.014-.11.029-.22.04-.332.01-.096.015-.192.022-.288.006-.087.014-.175.018-.263.01-.182.014-.364.014-.546v-.016a11.392 11.392 0 00-.042-.952 11.25 11.25 0 00-.082-.721c-.009-.06-.02-.119-.03-.178a11.379 11.379 0 00-.11-.578c-.016-.067-.029-.133-.044-.2a11.293 11.293 0 00-.183-.674c-.019-.063-.04-.125-.06-.187a11.047 11.047 0 00-.2-.572l-.051-.135a11.49 11.49 0 00-.295-.675l-.058-.118a11.64 11.64 0 00-.319-.604l-.04-.073a11.15 11.15 0 00-.405-.65l-.05-.073c-.127-.185-.26-.368-.4-.547l-.079-.103a11.456 11.456 0 00-.485-.574l-.046-.049a11.548 11.548 0 00-.325-.343l-3.168-3.18-17.014-17.082-1.483-1.489a11.249 11.249 0 00-15.951 0c-4.406 4.423-4.406 11.593 0 16.016l1.482 1.488.926.93 16.09 16.155a45.801 45.801 0 01-23.945 6.463v.026c.148.002.295.006.442.006h34.643c.187 0 .374-.005.561-.014.083-.004.165-.012.248-.018.102-.006.202-.012.302-.022z" fill="url(#f)"/><defs><linearGradient id="a" x1="68.315" y1="107.746" x2="68.315" y2="52.885" gradientUnits="userSpaceOnUse"><stop stop-color="#22338E"/><stop offset="1" stop-color="#AD2686"/></linearGradient><linearGradient id="b" x1="96.054" y1="78.587" x2="62.102" y2="31.19" gradientUnits="userSpaceOnUse"><stop stop-color="#662D91"/><stop offset="1" stop-color="#AD2686"/></linearGradient><linearGradient id="c" x1="69.067" y1="107.748" x2="69.067" y2="52.885" gradientUnits="userSpaceOnUse"><stop stop-color="#22338E"/><stop offset="1" stop-color="#AD2686"/></linearGradient><linearGradient id="d" x1="66.717" y1="49.859" x2="67.09" y2="49.859" gradientUnits="userSpaceOnUse"><stop stop-color="#AA2687"/><stop offset="1" stop-color="#AD2686"/></linearGradient><linearGradient id="e" x1=".195" y1="61.106" x2="85.108" y2="61.106" gradientUnits="userSpaceOnUse"><stop stop-color="#AA2687"/><stop offset="1" stop-color="#AD2686"/></linearGradient><linearGradient id="f" x1="80.399" y1="110.628" x2="44.248" y2="73.505" gradientUnits="userSpaceOnUse"><stop stop-color="#473B8E"/><stop offset="1" stop-color="#AD2686"/></linearGradient></defs></svg>