<svg width="109" height="131" fill="none" xmlns="http://www.w3.org/2000/svg"><path d="M71.475 50.392H58.952v7.814h12.523v-7.814z" fill="#DDB99F"/><path d="M71.473 29.253H59.15v21.74h12.323v-21.74zM59.15 46.485H35.607v11.52H59.15v-11.52z" fill="#BFA08C"/><path d="M59.052 3.807H23.688v47.386h35.364V3.807z" fill="#DDB99F"/><path d="M39.515 0H18.276v10.62h41.376V0H39.515z" fill="#313131"/><path d="M71.473 9.918H59.15v25.146h12.323V9.918z" fill="#313131"/><path d="M36.11 76.34H.545v77.24s106.694-.601 107.295 0c.602.601 0-77.24 0-77.24H36.11z" fill="#fff"/><path d="M83.196 76.239H23.788v76.94h59.408v-76.94z" fill="#E2E2E2"/><path d="M39.116 51.294H23.688v6.612h15.428v-6.612z" fill="#BFA08C"/><path d="M59.85 69.827H47.329V81.55h12.523V69.827z" fill="#DDB99F"/><path d="M47.532 58.106l-11.621-.3-.1 12.121v6.412h35.665V58.006H59.053v11.721H47.532V58.106z" fill="#DDB99F"/><path d="M59.951 58.006H47.328v11.721h12.623V58.006z" fill="#DDB99F"/><path d="M23.686 94.272H11.664V165.2h12.022V94.27zm71.231 0H83.195V165.2h11.722V94.27z" fill="#E2E2E2"/><path d="M59.752 84.354H47.23v48.488h12.523V84.354z" fill="#424242"/><path d="M59.752 81.448H47.23V92.77h12.523V81.45z" fill="#1E1E1E"/><path d="M41.82 85.556h-7.714v9.517h7.715v-9.517zm33.962 0h-9.117v9.718h9.117v-9.718z" fill="#fff"/><path d="M94.817 76.44H71.574v13.724h23.243V76.44zM36.21 85.656H20.481v72.332h15.73V85.656z" fill="#fff"/><path d="M87.103 86.257H71.274v71.731h15.83v-71.73zm-50.892 21.239H11.967v138.853H36.21V107.496z" fill="#fff"/><path d="M95.319 107.496H71.476v138.853h23.843V107.496zM35.91 76.34H11.365v13.624H35.91V76.339z" fill="#fff"/><path d="M20.479 103.789h-8.716v142.56h8.716v-142.56zm75.042-9.617h-8.515v152.377h8.515V94.172z" fill="#E2E2E2"/><path d="M32.303 21.139h-5.31v18.734h5.31V21.139z" fill="#BFA08C"/><path d="M42.424 19.135h-9.718v7.413h9.718v-7.413z" fill="#1E1E1E"/><path d="M39.219 23.042h-3.907v3.506h3.907v-3.506zm3.207-3.907H39.22v3.807h3.206v-3.807z" fill="#1E1E1E"/><path d="M41.42 21.239h-7.213v2.705h7.213v-2.705z" fill="#fff"/><path d="M40.82 22.742h-6.11v2.304h6.111v-2.304z" fill="#fff"/><path d="M40.82 20.538h-6.11v2.304h6.111v-2.304zm-.802 3.506h-4.609v1.903h4.609v-1.903z" fill="#fff"/><path d="M40.018 19.636h-4.609v1.903h4.609v-1.903z" fill="#fff"/><path d="M41.723 18.133h-8.215v1.403h8.215v-1.403zm0 8.015h-8.215v1.402h8.215v-1.402z" fill="#1E1E1E"/><path d="M40.922 26.95H34.51v1.402h6.412v-1.403zm0-9.618H34.51v1.402h6.412v-1.402zm3.504 2.705h-2.304v5.51h2.304v-5.51z" fill="#1E1E1E"/><path d="M25.995 19.135H23.69v7.413h2.305v-7.413z" fill="#313131"/><path d="M25.895 19.135H23.69v3.807h2.204v-3.807zm-.605-1.002h-1.602v1.002h1.602v-1.002zm.003 7.814H23.69v1.002h1.603v-1.002z" fill="#1E1E1E"/><path d="M25.49 20.938h-1.802v2.705h1.803v-2.705z" fill="#fff"/><path d="M24.89 22.541h-1.203v2.304h1.203v-2.304zm0-2.805h-1.203v2.304h1.203v-2.304z" fill="#fff"/><path d="M24.188 23.944h-.5v1.903h.5v-1.903zm0-5.31h-.5v1.904h.5v-1.904z" fill="#fff"/><path d="M33.207 20.938h-7.914v1.904h7.914v-1.904z" fill="#1E1E1E"/><path d="M78.586 246.349V94.072H62.857v17.231h-3.306v8.916h-11.42v-8.916h-3.808V94.072H31v152.277h47.587z" fill="#fff"/><path d="M83.695 97.778H66.564v4.508h17.13v-4.508zm-28.853 22.341h-1.703v126.23h1.703v-126.23z" fill="#E2E2E2"/></svg>