<svg width="102" height="131" fill="none" xmlns="http://www.w3.org/2000/svg"><path d="M67.103 76.44H55.382v7.313h11.721v-7.314z" fill="#DDB99F"/><path d="M67.203 56.603H55.682V77.04h11.52V56.603zm-11.72 16.23h-21.94v10.82h21.94v-10.82z" fill="#BFA08C"/><path d="M55.686 38.971h-33.26v38.27h33.26V38.97z" fill="#DDB99F"/><path d="M36.748 29.153H16.611v9.918h39.071v-9.918H36.748z" fill="#313131"/><path d="M67.205 32.86H55.584v24.244h11.621V32.86z" fill="#313131"/><path d="M33.944 100.884H.583v72.532s100.283-.601 100.884 0c.601.601 0-72.532 0-72.532H33.944z" fill="#B94F49"/><path d="M78.124 100.884H22.322v72.232h55.802v-72.232z" fill="#B94F49"/><path d="M40.054 61.913h-22.24v6.01h22.24v-6.01zm-6.614 6.011H20.117v5.109h13.325v-5.11zm.003 9.416h-11.12v6.212h11.12v-6.211zm4.409-9.416h-4.408v9.517h4.408v-9.517z" fill="#313131"/><path d="M31.642 77.34H24.93v9.618h6.712v-9.617z" fill="#313131"/><path d="M56.284 94.673H44.463v10.919h11.821v-10.92z" fill="#B94F49"/><path d="M31.04 50.191h-6.412v17.633h6.412V50.19z" fill="#BFA08C"/><path d="M36.347 40.774H21.119v4.508h15.228v-4.508zm-.5 5.009h-4.308v4.308h4.308v-4.308zm-11.521 0h-2.004v4.308h2.004v-4.308z" fill="#313131"/><path d="M65.903 13.925H20.92V32.96h44.982V13.925z" fill="#B94F49"/><path d="M21.621 23.743H5.893v9.217H21.62v-9.217zm56.303 0h-15.83v9.217h15.83v-9.217z" fill="#B94F49"/><path d="M35.547 13.825H20.922v14.627h14.627V13.825z" fill="#FFBC00"/><path d="M63.897 8.115h-38.67v6.01h38.67v-6.01zM44.664 83.653l-10.92-.2v17.431h33.461V83.653H55.584v11.02h-10.82l-.1-11.02z" fill="#B94F49"/><path d="M56.284 83.653H44.463v11.02h11.821v-11.02z" fill="#DDB99F"/><path d="M59.19 0H30.235v11.02H59.19V0z" fill="#B94F49"/><path d="M22.221 117.715h-11.02v79.745h11.02v-79.745zm67.124 0h-11.02v79.745h11.02v-79.745z" fill="#A5312F"/><path d="M89.243 130.538H11.201v10.92h78.042v-10.92z" fill="#D39807"/><path d="M78.328 130.538H22.426v10.92h55.902v-10.92z" fill="#FFBC00"/></svg>