<svg width="102" height="131" fill="none" xmlns="http://www.w3.org/2000/svg"><path d="M56.584 88.561H44.763v11.02h11.821v-11.02z" fill="#DDB99F"/><path d="M67.403 81.348H55.682v7.314h11.721v-7.314z" fill="#DDB99F"/><path d="M67.405 61.512H55.884V81.95h11.52V61.512z" fill="#BFA08C"/><path d="M55.885 77.742h-22.14v10.82h22.14v-10.82z" fill="#BFA08C"/><path d="M55.883 37.669h-33.26v44.58h33.26V37.67z" fill="#DDB99F"/><path d="M43.061 34.062h-22.14v6.111h43.078v-6.111H43.061z" fill="#604925"/><path d="M67.404 37.769h-11.62v24.244h11.62V37.77z" fill="#604925"/><path d="M33.944 106.294H.583v72.532s100.283-.601 100.884 0c.601.601 0-72.532 0-72.532H33.944z" fill="#6E94B6"/><path d="M78.424 105.592H22.622v72.432h55.802v-72.432z" fill="#6E94B6"/><path d="M37.05 82.25H22.523v6.211H37.05V82.25z" fill="#BFA08C"/><path d="M56.584 99.582H44.763v11.621h11.821V99.582z" fill="#6E94B6"/><path d="M32.342 56.303H25.83v17.532h6.512V56.303z" fill="#BFA08C"/><path d="M40.357 46.385H21.322v3.806h19.035v-3.806z" fill="#604925"/><path d="M67.506 27.45H8.999v10.419h58.507V27.45z" fill="#D39807"/><path d="M63.4 6.211H19.92v7.514H63.4V6.211z" fill="#FFBC00"/><path d="M44.963 88.561l-11.02-.2v17.432h33.461V88.561h-11.62v11.02h-10.82v-11.02z" fill="#DDB99F"/><path d="M44.963 91.667l-11.02-.1v14.226h33.461V91.667h-11.62v9.016h-10.82v-9.016z" fill="#6E94B6"/><path d="M67.003 11.721H15.21v11.02h51.794v-11.02z" fill="#FFBC00"/><path d="M69.205 21.84H11.801v8.515h57.404V21.84z" fill="#FFBC00"/><path d="M56.989 113.306H44.666v61.312h12.323v-61.312z" fill="#6E94B6"/><path d="M39.755 70.428H22.523v3.407h17.232v-3.407zM34.243 82.15h-11.62v6.211h11.62V82.15z" fill="#604925"/><path d="M70.21 29.454H3.787v6.612H70.21v-6.612z" fill="#FFBC00"/><path d="M68.606 30.255H3.788v5.91h64.818v-5.91z" fill="#D39807"/><path d="M41.359 114.609h-7.214v8.916h7.214v-8.916zm27.049.401h-8.616v9.116h8.616v-9.116z" fill="#FF8F29"/><path d="M89.246 105.592h-21.84v9.518h21.84v-9.518zm-55.1 9.017H19.419v67.924h14.727v-67.924zm47.785.501H67.106v67.423H81.93V115.11z" fill="#FF8F29"/><path d="M34.146 127.833H11.404v54.7h22.742v-54.7zm55.5 0h-22.44v54.7h22.44v-54.7z" fill="#FF8F29"/><path d="M68.907 182.432v-59.909h-11.52v5.11h-2.405v7.012h-8.516v-7.012h-2.705v-5.11h-9.818v59.909h34.964z" fill="#FF8F29"/><path d="M44.663 105.592h-10.72v4.809h10.72v-4.809zm22.742 0h-11.02v4.809h11.02v-4.809z" fill="#6E94B6"/><path d="M33.843 105.592H10.8v9.418h23.042v-9.418z" fill="#FF8F29"/><path d="M19.419 122.623h-8.015v59.809h8.015v-59.809zm70.426 0h-7.914v59.809h7.914v-59.809z" fill="#D17D2A"/><path d="M11.705 25.947h-5.21v3.507h5.21v-3.507zM57.786 0h-32.56v11.621h32.56V0z" fill="#FFBC00"/><path d="M40.157 51.895h-4.308v4.307h4.308v-4.307zm-15.431 0h-2.104v4.307h2.104v-4.307z" fill="#3F2E17"/><path d="M56.484 108.598H44.763v10.619h11.721v-10.619z" fill="#6E94B6"/><path d="M65.303 26.348H19.019v3.907h46.284v-3.907zm-2.207-4.208H21.82v4.208h41.276V22.14z" fill="#D39807"/><path d="M60.993 12.924H25.328v9.417h35.665v-9.418zm-3.706-5.41h-27.65v5.31h27.65v-5.31z" fill="#D39807"/></svg>