<svg width="42" height="42" fill="none" xmlns="http://www.w3.org/2000/svg"><g clip-path="url(#a)"><path d="M18 9h1.668a1.45 1.45 0 011.357.863 1.65 1.65 0 001.475.637v-6h-15V27h9v-1.669a1.45 1.45 0 01.863-1.355A1.65 1.65 0 0018 22.5a1.65 1.65 0 00-.637-1.476 1.45 1.45 0 01-.863-1.355V17.83a1.45 1.45 0 01.863-1.355A1.65 1.65 0 0018 15a1.65 1.65 0 00-.637-1.476 1.45 1.45 0 01-.863-1.355V10.5A1.5 1.5 0 0118 9z" fill="url(#b)"/><path d="M3.004 29.833L3 31.5h1.665A3.051 3.051 0 017.5 30a3.048 3.048 0 012.834 1.495l1.831.005A3.051 3.051 0 0115 30a3.215 3.215 0 012.663 1.2c.23-.357.347-.775.337-1.2a1.65 1.65 0 00-.637-1.476c-.014-.006-.024-.017-.039-.024H7.5A1.5 1.5 0 016 27V4.5A1.5 1.5 0 017.5 3h15A1.5 1.5 0 0124 4.5v5.325A1.45 1.45 0 0125.332 9H27V7.335A3.046 3.046 0 0125.5 4.5a3.045 3.045 0 011.496-2.833L27 0h-1.665A3.051 3.051 0 0122.5 1.5 3.048 3.048 0 0119.666.004L17.835 0A3.051 3.051 0 0115 1.5 3.048 3.048 0 0112.166.004L10.335 0A3.051 3.051 0 017.5 1.5 3.048 3.048 0 014.667.004L3 0v1.665A3.046 3.046 0 014.5 4.5a3.045 3.045 0 01-1.496 2.833L3 9.165A3.046 3.046 0 014.5 12a3.045 3.045 0 01-1.496 2.833L3 16.665A3.046 3.046 0 014.5 19.5a3.045 3.045 0 01-1.496 2.833L3 24.165A3.046 3.046 0 014.5 27a3.045 3.045 0 01-1.496 2.833zm29.571-12.394l-.499-1.71c-.27.273-.61.466-.983.558a2.22 2.22 0 01-1.389-.163c-.14.474-.425.894-.815 1.2a1.875 1.875 0 01-1.95.088 2.3 2.3 0 01-.733 1.436 1.743 1.743 0 01-1.677.32c-.049.41-.217.796-.484 1.11-.255.29-.583.508-.95.63l1.24 1.307a39.575 39.575 0 018.24-4.776z" fill="#FF8F8F"/><path d="M42 12.168V10.5h-1.666A3.049 3.049 0 0137.5 12a3.051 3.051 0 01-2.833-1.5h-1.833A3.049 3.049 0 0130 12a3.051 3.051 0 01-2.833-1.5h-1.833A3.049 3.049 0 0122.5 12a3.052 3.052 0 01-2.833-1.5H18v1.666A3.049 3.049 0 0119.5 15a3.047 3.047 0 01-1.5 2.832v1.834a3.049 3.049 0 011.5 2.834 3.047 3.047 0 01-1.5 2.832v1.834A3.049 3.049 0 0119.5 30a3.047 3.047 0 01-1.5 2.832v1.834a3.049 3.049 0 011.5 2.834 3.047 3.047 0 01-1.5 2.832V42h1.666a3.05 3.05 0 012.834-1.5 3.051 3.051 0 012.833 1.5h1.833A3.049 3.049 0 0130 40.5a3.051 3.051 0 012.833 1.5h1.833a3.049 3.049 0 012.834-1.5 3.048 3.048 0 012.832 1.5H42v-1.666a3.049 3.049 0 01-1.5-2.834 3.048 3.048 0 011.5-2.832v-1.834A3.049 3.049 0 0140.5 30a3.048 3.048 0 011.5-2.832v-1.834a3.049 3.049 0 01-1.5-2.834 3.048 3.048 0 011.5-2.832v-1.834A3.049 3.049 0 0140.5 15a3.048 3.048 0 011.5-2.832zm-3.66 15.995a7.045 7.045 0 01-1.405 2.537c-.322.373-.51.843-.534 1.335a1.885 1.885 0 01-.643 1.387c-.23.174-.74.563-2.979-.123v.546c.946.75 2.336 2.133 2.533 3.84.112.476-.087.97-.497 1.237a1.05 1.05 0 01-.543.15c-.735 0-1.671-.66-2.95-1.565a11.69 11.69 0 00-2.372-1.454 6.176 6.176 0 00-2.384-.009c-.767.1-1.275.166-1.655-.192a.887.887 0 01-.275-.71c.07-.516.482-.917.998-.976.365-.092.5-.127.55-.708.055-.645.064-1.275.055-1.817a2.11 2.11 0 01-.616.098 1.667 1.667 0 01-.624-.118 2.28 2.28 0 01-1.242-1.771 2.106 2.106 0 01-1.47-1.476 2.18 2.18 0 01.544-1.741 2.369 2.369 0 01-.525-1.529c.054-.726.363-1.41.874-1.929l-1.922-2.025a.935.935 0 01.704-1.58 1.2 1.2 0 00.94-.275c.157-.274.196-.6.109-.904a.936.936 0 011.483-.916c.2.15.563.375.744.225.229-.349.313-.773.235-1.183a.932.932 0 01.478-.895.943.943 0 011.026.075c.275.255.63.408 1.004.431a1.41 1.41 0 00.39-.99.934.934 0 011.545-.64c.222.222.526.34.838.329a1.35 1.35 0 00.675-.777.937.937 0 011.753.126l.863 2.957c1.393.053 3.363.66 3.662 2.775a2.17 2.17 0 01-.584 1.95 2.274 2.274 0 01-.533.383c-.067 1.232.032 3.431 1.391 4.664a1.2 1.2 0 01.355 1.258h.004z" fill="url(#c)"/><path d="M34.31 22.654a2.34 2.34 0 01-.287.585 2.784 2.784 0 01-1.755 1.077 1.95 1.95 0 01-.407 1.407c-.549.559-1.32.84-2.1.765-.192 0-.402-.016-.616-.035.101.372.308.706.596.963.205.16.556.336 1.24 0a.75.75 0 01.663 1.345l-.016.007v1.165a.75.75 0 01-1.5 0v-.842a2.408 2.408 0 01-1.313-.494 3.65 3.65 0 01-1.25-2.422c-.097-.023-.18-.038-.282-.064a.75.75 0 11.369-1.453c.287.075.557.134.805.18 1.785.348 2.195-.012 2.26-.087a.458.458 0 00.07-.308c-.083 0-.164 0-.25-.007a.751.751 0 01.075-1.5c1.11.058 1.881-.138 2.175-.552a1.82 1.82 0 00.01-1.46.75.75 0 011.38-.59c.102.264.178.538.224.817a2.564 2.564 0 001.674-.361c.059-.058.215-.212.15-.675-.212-1.5-2.136-1.506-2.584-1.483a37.228 37.228 0 00-8.946 5.174c-.454.32-.771.799-.888 1.341 0 .112-.01.45.543.9a.75.75 0 01-.006 1.166c-.295.24-.624.68-.586.863.014.07.202.292.89.49.31.09.529.368.542.69.018.381.183.9.359.968.159.06.727-.091 1.76-1.105a.75.75 0 111.05 1.07 8.776 8.776 0 01-.655.587c.055.936.046 1.875-.029 2.809a2.923 2.923 0 01-.193.856 5.615 5.615 0 011.881.17c1.014.42 1.963.981 2.82 1.667.44.312 1.023.723 1.477.997a5.783 5.783 0 00-2-2.396.963.963 0 01-.385-.776v-1.528a.975.975 0 011.298-.922 7.595 7.595 0 002.282.538c.018-.075.04-.237.056-.36a3.68 3.68 0 01.9-2.126 5.571 5.571 0 001.037-1.81c-1.518-1.485-1.782-3.75-1.764-5.25a6.457 6.457 0 01-.774.009zM3.45 41.25a2.413 2.413 0 001.906-.998c.341-.38.478-.502.792-.502.314 0 .45.122.792.502a2.413 2.413 0 001.904.998 2.418 2.418 0 001.909-.998c.342-.38.479-.502.794-.502.315 0 .45.122.795.502.444.614 1.15.983 1.908.998a.75.75 0 000-1.5c-.315 0-.45-.122-.794-.502a2.325 2.325 0 00-3.817 0c-.342.38-.48.503-.795.503-.316 0-.45-.122-.791-.502a2.416 2.416 0 00-1.908-.999 2.413 2.413 0 00-1.906.998c-.339.38-.478.502-.789.502-.311 0-.45-.122-.791-.502A2.413 2.413 0 00.75 38.25a.75.75 0 000 1.5c.313 0 .45.122.791.502a2.413 2.413 0 001.909.998zM.75 36c.313 0 .45.122.791.502a2.413 2.413 0 001.909.998 2.413 2.413 0 001.906-.998c.341-.38.478-.502.792-.502.314 0 .45.122.792.502a2.413 2.413 0 001.904.998 2.418 2.418 0 001.909-.998c.342-.38.479-.502.794-.502.315 0 .45.122.795.502.444.614 1.15.983 1.908.998a.75.75 0 000-1.5c-.315 0-.45-.122-.794-.502a2.325 2.325 0 00-3.817 0c-.342.38-.48.503-.795.503-.316 0-.45-.122-.791-.502a2.416 2.416 0 00-1.908-.999 2.413 2.413 0 00-1.906.998c-.339.38-.478.502-.789.502-.311 0-.45-.122-.791-.502A2.413 2.413 0 00.75 34.5a.75.75 0 000 1.5z" fill="#FF8F8F"/></g><defs><linearGradient id="b" x1="15" y1="4.5" x2="15" y2="27" gradientUnits="userSpaceOnUse"><stop stop-color="#FFA4A4"/><stop offset="1" stop-color="#F1F1F1"/></linearGradient><linearGradient id="c" x1="30" y1="10.5" x2="30" y2="42" gradientUnits="userSpaceOnUse"><stop stop-color="#FFA4A4"/><stop offset="1" stop-color="#F1F1F1"/></linearGradient><clipPath id="a"><path fill="#fff" d="M0 0h42v42H0z"/></clipPath></defs></svg>