<svg width="61" height="60" fill="none" xmlns="http://www.w3.org/2000/svg"><path d="M30.5 13.56L18.654 25.213l-6.893-6.78L30.5 0l18.745 18.439-6.893 6.78L30.5 13.56zM13.786 29.999l-6.893-6.78L0 30l6.893 6.78L13.786 30zM30.5 46.44L18.654 34.787l-6.903 6.77.01.01L30.5 60l18.745-18.438.003-.004-6.896-6.776L30.5 46.439zm23.608-9.658L61 30.002l-6.893-6.78-6.893 6.78 6.894 6.78z" fill="#F0B90A"/><path d="M37.494 29.996h.003l-6.994-6.88-6.989 6.894 6.989 6.873 6.994-6.88.004-.003-.007-.004z" fill="#F0B90A"/></svg>