<svg width="41" height="60" fill="none" xmlns="http://www.w3.org/2000/svg"><path d="M20.53 1L7.758 19.084 1 47.944 20.53 59.48l19.637-11.534-6.638-28.86L20.53 1zm12.482 18.18l-3.355 10.572-8.863-15.34V2.157L33.012 19.18zm-12.47-4.225l8.91 15.423-5.435 17.097h-6.903L11.74 30.258l8.803-15.303zm-.24-12.787v12.22L11.546 29.62l-3.26-10.438L20.302 2.168zM7.986 20.048l3.21 10.186-9.259 16.085 6.049-26.271zm3.475 10.908l5.16 16.507H1.901l9.56-16.507zM2.106 47.945h14.66l3.367 10.752L2.106 47.945zm15.285 0h6.458l-3.32 10.487-3.138-10.487zm3.56 10.752l3.415-10.752 14.755.012-18.17 10.74zm3.571-11.234l5.255-16.52 2.622 4.528 6.939 11.992H24.522zm8.286-12.245l-2.802-4.84 3.247-10.33L39.338 46.5l-6.53-11.282z" fill="#5D728B" stroke="#fff" stroke-width=".664"/></svg>