<svg width="48" height="63" fill="none" xmlns="http://www.w3.org/2000/svg"><path d="M3.837 48.203c-.818 0-1.48-.668-1.48-1.496V37.03c0-.828.662-1.497 1.48-1.497.82 0 1.48.669 1.48 1.497v9.678c0 .828-.66 1.496-1.48 1.496zm5.635 1.055c-.819 0-1.48-.67-1.48-1.497V34.103c0-.828.661-1.496 1.48-1.496s1.48.668 1.48 1.496v13.658c.032.828-.661 1.496-1.48 1.496zm11.308-1.78c-.818 0-1.48-.668-1.48-1.496v-9.997c0-.828.662-1.496 1.48-1.496.82 0 1.48.668 1.48 1.496v9.997c0 .828-.66 1.496-1.48 1.496zm5.636-4.015c-.82 0-1.48-.669-1.48-1.497v-2.26c0-.828.66-1.497 1.48-1.497.818 0 1.48.67 1.48 1.497v2.26c0 .796-.662 1.497-1.48 1.497zM15.142 62.884c-.819 0-1.48-.669-1.48-1.497V34.103c0-.828.661-1.496 1.48-1.496s1.48.668 1.48 1.496v27.284c0 .828-.661 1.497-1.48 1.497zm16.91-5.794c-.819 0-1.48-.67-1.48-1.497v-13.88c0-.829.662-1.497 1.48-1.497.819 0 1.48.668 1.48 1.496v13.881c.032.828-.661 1.496-1.48 1.496zm5.668-1.526c-.819 0-1.48-.669-1.48-1.497V42.51c0-.827.661-1.496 1.48-1.496s1.48.669 1.48 1.496v11.557c0 .828-.661 1.497-1.48 1.497zm5.637-8.186c-.819 0-1.48-.668-1.48-1.496v-4.84c0-.827.661-1.496 1.48-1.496s1.48.669 1.48 1.497v4.839c0 .828-.661 1.496-1.48 1.496z" fill="#65C7C7"/><path d="M35.831 37.924c-5.92 0-8.911-2.07-11.777-4.075-2.645-1.847-5.133-3.566-10.17-3.566-5.04 0-7.527 1.72-10.172 3.566-.504.35-1.008.7-1.543 1.05-.661.414-1.543.223-1.952-.414-.41-.668-.22-1.56.41-1.974.503-.318.975-.636 1.48-.986 2.865-2.006 5.856-4.076 11.776-4.076s8.912 2.07 11.777 4.076c2.645 1.846 5.133 3.565 10.171 3.565 4.66 0 7.054-1.4 9.699-3.215a1.41 1.41 0 011.983.382c.441.668.284 1.56-.377 2.006-2.866 1.91-5.857 3.66-11.305 3.66z" fill="#65C7C7"/><path d="M13.851 23.47c10.99 0 10.99 7.64 21.948 7.64 5.164 0 7.904-1.687 10.486-3.47l.095-.063a23.41 23.41 0 00.283-3.662C46.694 11.085 36.397.706 23.739.706 11.049.706.783 11.085.783 23.916c0 1.496.158 2.96.41 4.393 3.148-2.133 6.644-4.84 12.658-4.84z" fill="#F1B71C"/></svg>