<svg width="54" height="43" fill="none" xmlns="http://www.w3.org/2000/svg"><path d="M8.702 32.758c.224-.226.67-.452 1.34-.452h43.065c.893 0 1.116.904.67 1.582l-8.48 8.584c-.223.226-.669.452-1.338.452H.893c-.893 0-1.116-.904-.67-1.581l8.48-8.585z" fill="url(#a)"/><path d="M8.702.452C8.926.226 9.372 0 10.042 0h43.065c.893 0 1.116.904.67 1.581l-8.48 8.585c-.223.226-.669.452-1.338.452H.893c-.893 0-1.116-.904-.67-1.582L8.703.452z" fill="url(#b)"/><path d="M45.074 16.493c-.223-.226-.669-.452-1.338-.452H.892c-.893 0-1.116.904-.67 1.582l8.48 8.584c.223.226.669.452 1.338.452h43.066c.893 0 1.116-.903.67-1.581l-8.703-8.585z" fill="url(#c)"/><defs><linearGradient id="a" x1="48.885" y1="-5.144" x2="18.501" y2="52.341" gradientUnits="userSpaceOnUse"><stop stop-color="#00FFA3"/><stop offset="1" stop-color="#DC1FFF"/></linearGradient><linearGradient id="b" x1="35.854" y1="-12.033" x2="5.47" y2="45.452" gradientUnits="userSpaceOnUse"><stop stop-color="#00FFA3"/><stop offset="1" stop-color="#DC1FFF"/></linearGradient><linearGradient id="c" x1="42.328" y1="-8.609" x2="11.944" y2="48.876" gradientUnits="userSpaceOnUse"><stop stop-color="#00FFA3"/><stop offset="1" stop-color="#DC1FFF"/></linearGradient></defs></svg>