<?xml version="1.0" standalone="no"?>
<!DOCTYPE svg PUBLIC "-//W3C//DTD SVG 20010904//EN"
 "http://www.w3.org/TR/2001/REC-SVG-20010904/DTD/svg10.dtd">
<svg version="1.0" xmlns="http://www.w3.org/2000/svg"
 width="180.000000pt" height="180.000000pt" viewBox="0 0 180.000000 180.000000"
 preserveAspectRatio="xMidYMid meet">
<metadata>
Created by potrace 1.14, written by Peter Selinger 2001-2017
</metadata>
<g transform="translate(0.000000,180.000000) scale(0.100000,-0.100000)"
fill="#000000" stroke="none">
<path d="M0 900 l0 -900 900 0 900 0 0 900 0 900 -900 0 -900 0 0 -900z m1120
700 c0 -16 -4 -30 -10 -30 -5 0 -10 -18 -10 -40 0 -29 -4 -40 -15 -40 -11 0
-15 -11 -15 -40 0 -29 -4 -40 -15 -40 -11 0 -15 -12 -15 -45 0 -33 -4 -45 -15
-45 -10 0 -15 -10 -15 -30 0 -16 -4 -30 -9 -30 -5 0 -11 -18 -15 -40 -3 -22
-11 -40 -16 -40 -6 0 -10 -18 -10 -40 l0 -40 222 -2 c166 -2 222 -6 226 -15 2
-7 -3 -13 -12 -13 -9 0 -16 -7 -16 -15 0 -8 -7 -15 -15 -15 -8 0 -15 -7 -15
-15 0 -8 -7 -15 -15 -15 -8 0 -15 -7 -15 -15 0 -8 -4 -15 -10 -15 -5 0 -12
-11 -16 -25 -3 -14 -12 -25 -20 -25 -8 0 -14 -7 -14 -15 0 -8 -5 -15 -11 -15
-11 0 -39 -24 -39 -34 0 -3 -18 -23 -40 -45 -22 -21 -40 -44 -40 -50 0 -6 -7
-11 -15 -11 -8 0 -15 -7 -15 -15 0 -8 -7 -15 -15 -15 -8 0 -15 -7 -15 -15 0
-8 -7 -15 -15 -15 -9 0 -15 -9 -15 -25 0 -16 -6 -25 -15 -25 -8 0 -15 -7 -15
-15 0 -8 -7 -15 -15 -15 -8 0 -15 -5 -15 -11 0 -6 -36 -46 -80 -89 -44 -43
-80 -83 -80 -89 0 -6 -7 -11 -15 -11 -8 0 -15 -6 -15 -14 0 -8 -14 -28 -30
-44 -16 -17 -30 -35 -30 -41 0 -6 -7 -11 -15 -11 -8 0 -15 -5 -15 -11 0 -14
-85 -99 -99 -99 -6 0 -11 11 -11 25 0 16 6 25 15 25 10 0 15 10 15 30 0 17 4
30 10 30 5 0 13 18 16 40 4 22 10 40 14 40 5 0 11 13 15 30 4 16 11 30 16 30
5 0 9 13 9 29 0 16 7 36 15 45 8 8 15 26 15 40 0 16 6 26 15 26 9 0 15 10 15
26 0 14 7 32 15 40 8 9 15 29 15 45 0 16 4 29 9 29 5 0 12 13 16 30 4 16 11
30 16 30 5 0 9 14 9 30 l0 30 -220 0 -220 0 0 25 c0 14 5 25 10 25 6 0 10 7
10 15 0 8 7 15 15 15 8 0 15 7 15 15 0 8 5 15 11 15 14 0 69 55 69 69 0 6 7
11 15 11 8 0 15 7 15 15 0 8 7 15 15 15 8 0 15 7 15 15 0 8 7 15 15 15 8 0 15
7 15 15 0 8 5 15 11 15 6 0 17 6 25 14 8 8 14 19 14 25 0 6 7 11 15 11 8 0 15
7 15 15 0 8 7 15 15 15 8 0 15 7 15 15 0 8 7 15 15 15 8 0 15 7 15 15 0 8 5
15 11 15 14 0 39 25 39 39 0 6 7 11 15 11 8 0 15 7 15 15 0 8 7 15 15 15 8 0
15 7 15 15 0 8 7 15 15 15 9 0 15 9 15 25 0 16 6 25 15 25 8 0 15 7 15 15 0 8
7 15 15 15 8 0 15 7 15 15 0 8 5 15 11 15 14 0 99 85 99 99 0 6 7 11 15 11 8
0 15 7 15 15 0 8 5 15 10 15 6 0 10 -13 10 -30z"/>
</g>
</svg>
