<svg xmlns="http://www.w3.org/2000/svg" width="220pt" height="23pt" viewBox="0 0 220 23"><g id="surface1" fill-rule="evenodd"><path d="M34.5 22.691h5.586v-6.937h2.941l3.535 6.937h5.872l-4.266-8.03.39-.231a4.24 4.24 0 00.86-.684 9.606 9.606 0 001.035-1.215c.387-.57.684-1.195.883-1.863.25-.797.371-1.629.367-2.469.043-2.027-.723-3.98-2.121-5.39-1.41-1.454-3.203-2.18-5.375-2.18H34.5zm11.617-14.5A2.174 2.174 0 0145.5 9.77a2.136 2.136 0 01-1.594.628h-3.82V6h3.82c.59-.023 1.164.2 1.594.625.406.406.633.977.617 1.566zM59.34 14.97a3.455 3.455 0 01.84-2.348 2.497 2.497 0 011.953-.96c.758 0 1.472.355 1.953.96.559.64.86 1.48.84 2.348a3.445 3.445 0 01-.84 2.344 2.49 2.49 0 01-1.953.964 2.49 2.49 0 01-1.953-.965 3.445 3.445 0 01-.84-2.343zm10.726 0c0-2.145-.777-4.02-2.332-5.625-3.097-3.207-8.109-3.207-11.207 0-1.558 1.605-2.34 3.48-2.34 5.625 0 2.144.782 4.015 2.34 5.62 3.098 3.212 8.11 3.212 11.207 0 1.555-1.605 2.336-3.476 2.336-5.62zm2.055 0c0 2.144.781 4.015 2.34 5.62 1.473 1.567 3.496 2.438 5.602 2.411a7.28 7.28 0 002.222-.348 7.965 7.965 0 001.738-.754c.442-.27.856-.585 1.235-.937.265-.23.512-.48.734-.754.106-.148.188-.262.242-.344l-2.93-3.308-.3.398a3.32 3.32 0 01-1.055.883 3.094 3.094 0 01-1.586.441 2.903 2.903 0 01-2.207-.949 3.336 3.336 0 01-.883-2.36 3.352 3.352 0 01.883-2.363 2.913 2.913 0 012.207-.945 2.96 2.96 0 011.614.492c.363.207.699.47.992.778.12.148.23.304.336.468l2.93-3.308-.231-.324a4.332 4.332 0 00-.762-.797c-.387-.332-.793-.64-1.219-.918a7.109 7.109 0 00-1.75-.785c-2.773-.844-5.77-.047-7.812 2.078-1.563 1.605-2.34 3.48-2.34 5.625zm26.461-1.094l5.285-6.629h-5.73l-4.262 5.367V.63h-4.996v22.06h4.996v-3.937l1.32-1.57 3.387 5.507h5.441zM107.832 0l-3.23 7.723 3.085 1.89 4.266-7.09zm11.313 7.246h-4.997v15.445h4.997V14.97c0-.922.222-1.653.664-2.184a2.092 2.092 0 011.691-.8c.566-.016 1.11.23 1.48.675.383.453.575 1.067.575 1.848v8.183h4.996v-9.136c0-1.97-.492-3.567-1.48-4.785-.926-1.192-2.333-1.868-3.805-1.832a4.49 4.49 0 00-2.25.617c-.72.41-1.18.734-1.387.976a9.27 9.27 0 00-.484.606zM134.277 0l-3.226 7.723 3.086 1.89 4.261-7.09zm16.903 22.691c2.191 0 3.988-.648 5.39-1.937 1.403-1.293 2.106-2.8 2.106-4.524a5.237 5.237 0 00-.399-2.046 5.15 5.15 0 00-.882-1.477 5.815 5.815 0 00-1.118-.96 8.204 8.204 0 00-.882-.54 8.43 8.43 0 00-.399-.176l.274-.156c.246-.14.468-.313.667-.516a7.93 7.93 0 00.77-.851c.293-.395.516-.84.66-1.317.184-.558.278-1.14.274-1.73 0-1.57-.649-2.934-1.938-4.094C154.41 1.211 152.707.63 150.59.63h-9.262v22.06zm-4.266-4.722v-4.414h3.82a2.13 2.13 0 011.594.629 2.323 2.323 0 010 3.156 2.13 2.13 0 01-1.594.629zm3.09-12.602a1.886 1.886 0 011.39.516c.352.36.54.86.52 1.37a1.853 1.853 0 01-.52 1.368 1.87 1.87 0 01-1.39.516h-3.09v-3.77zM166.617.63h-4.996v22.06h4.996zm8.082 14.34a3.455 3.455 0 01.84-2.348c.48-.61 1.195-.96 1.953-.96s1.473.35 1.953.96c.559.64.86 1.48.84 2.348a3.445 3.445 0 01-.84 2.344 2.49 2.49 0 01-1.953.964 2.49 2.49 0 01-1.953-.965 3.445 3.445 0 01-.84-2.343zm10.727 0c0-2.145-.778-4.02-2.332-5.625-3.098-3.207-8.11-3.207-11.207 0-1.559 1.605-2.34 3.48-2.34 5.625 0 2.144.781 4.015 2.34 5.62 3.097 3.212 8.11 3.212 11.207 0 1.554-1.605 2.332-3.476 2.332-5.62zm2.054 0c0 2.144.782 4.02 2.34 5.62 1.47 1.567 3.496 2.438 5.598 2.411.758 0 1.508-.117 2.227-.348a7.884 7.884 0 001.738-.754 7.99 7.99 0 001.234-.937c.266-.23.512-.48.735-.754.105-.148.183-.262.242-.344l-2.93-3.308-.3.398a3.362 3.362 0 01-1.055.883 3.094 3.094 0 01-1.586.441 2.903 2.903 0 01-2.207-.949 3.336 3.336 0 01-.883-2.36 3.352 3.352 0 01.883-2.363 2.913 2.913 0 012.207-.945c.57.004 1.129.172 1.613.492.363.207.7.47.992.778.117.148.23.304.336.468l2.93-3.308-.23-.324a4.332 4.332 0 00-.762-.797c-.387-.332-.793-.64-1.22-.918a7.108 7.108 0 00-1.75-.785c-2.773-.844-5.769-.047-7.812 2.078-1.562 1.605-2.34 3.48-2.34 5.625zm26.461-1.094l5.286-6.629h-5.73l-4.263 5.367V.63h-5v22.06h5v-3.937l1.32-1.57 3.387 5.507h5.442zm0 0" fill="#fff"/><path d="M0 0h21.23v22.117H0zm0 0" fill="red"/><path d="M13.504 1.77l-9.078 9.8h5.66l-3.453 8.778L16.809 8.504h-5.664zm0 0" fill="#fff"/></g></svg>