<svg width="112" height="147" viewBox="0 0 112 147" fill="none" xmlns="http://www.w3.org/2000/svg">
<path d="M100.709 131.765H11.2891V146.753H100.709V131.765Z" fill="#4D4D5D"/>
<path d="M100.709 131.765H11.2891V146.753H100.709V131.765Z" fill="url(#paint0_linear)" fill-opacity="0.4"/>
<path d="M18.1622 124.271H0L3.76333 131.765L0 139.259H10.0628L10.1446 131.106L18.1622 124.271Z" fill="#4D4D5D"/>
<path d="M18.1622 124.271H0L3.76333 131.765L0 139.259H10.0628L10.1446 131.106L18.1622 124.271Z" fill="url(#paint1_linear)" fill-opacity="0.4"/>
<path d="M93.9199 124.271H112L108.237 131.765L112 139.259H101.937V131.106L93.9199 124.271Z" fill="#4D4D5D"/>
<path d="M93.9199 124.271H112L108.237 131.765L112 139.259H101.937V131.106L93.9199 124.271Z" fill="url(#paint2_linear)" fill-opacity="0.4"/>
<path d="M20.3716 136.624C20.8625 136.871 21.2715 137.282 21.517 137.694C21.7624 138.188 21.926 138.765 21.926 139.259C21.926 139.835 21.7624 140.329 21.517 140.824C21.2715 141.318 20.8625 141.647 20.3716 141.894C19.8807 142.141 19.3081 142.306 18.7354 142.306H16.1992V136.129H18.7354C19.3081 136.212 19.8807 136.294 20.3716 136.624ZM19.7989 141.071C20.1262 140.906 20.3716 140.659 20.5352 140.329C20.8625 139.671 20.8625 138.847 20.5352 138.188C20.3716 137.859 20.1262 137.612 19.7989 137.447C19.4717 137.282 19.1444 137.2 18.7354 137.2H17.3446V141.318H18.7354C19.0626 141.318 19.4717 141.235 19.7989 141.071Z" fill="white"/>
<path d="M22.9062 136.212H27.4059V137.2H24.1334V138.765H27.0786V139.753H24.1334V141.318H27.5695V142.306H22.9062V136.212Z" fill="white"/>
<path d="M31.6603 137.365C31.4148 137.283 31.0876 137.2 30.7603 137.2C30.5149 137.2 30.2695 137.283 30.1058 137.365C29.9422 137.447 29.8604 137.612 29.8604 137.777C29.8604 137.941 29.9422 138.106 30.024 138.188C30.1058 138.271 30.2695 138.435 30.4331 138.435C30.6785 138.518 30.924 138.6 31.1694 138.682C31.4966 138.765 31.8239 138.93 32.1511 139.012C32.3966 139.177 32.642 139.341 32.8056 139.588C32.9692 139.835 33.1329 140.165 33.0511 140.577C33.0511 140.906 32.9692 141.318 32.7238 141.565C32.4784 141.812 32.2329 142.059 31.9057 142.224C31.4966 142.388 31.0876 142.471 30.6785 142.471C30.1876 142.471 29.6968 142.388 29.2877 142.224C28.8787 142.059 28.4696 141.812 28.0605 141.483L28.5514 140.494C28.8787 140.741 29.2059 140.988 29.615 141.153C29.9422 141.318 30.3513 141.4 30.6785 141.4C30.924 141.4 31.2512 141.318 31.4148 141.235C31.7421 141.071 31.7421 140.659 31.5784 140.33L31.4966 140.247C31.333 140.165 31.2512 140 31.0876 140C30.924 139.918 30.6785 139.835 30.3513 139.753C30.024 139.671 29.6968 139.506 29.3695 139.424C29.1241 139.341 28.8787 139.094 28.715 138.93C28.5514 138.683 28.3878 138.353 28.4696 138.024C28.4696 137.694 28.5514 137.365 28.715 137.118C28.9605 136.871 29.2059 136.624 29.5332 136.459C29.9422 136.294 30.3513 136.212 30.7603 136.212C31.1694 136.212 31.5784 136.294 31.9057 136.377C32.2329 136.459 32.642 136.624 32.9692 136.871L32.4784 137.859C32.3147 137.612 31.9875 137.447 31.6603 137.365Z" fill="white"/>
<path d="M34.2793 136.212H35.4247V142.388H34.2793V136.212Z" fill="white"/>
<path d="M41.0695 139.259H42.0513V141.647C41.724 141.894 41.3149 142.059 40.9059 142.224C40.4968 142.388 40.0878 142.471 39.5969 142.471C39.0242 142.471 38.4515 142.306 37.9607 142.059C37.4698 141.812 37.0607 141.4 36.8153 140.906C36.4881 140.412 36.4062 139.835 36.4062 139.259C36.4062 138.682 36.5699 138.106 36.8153 137.694C37.1426 137.2 37.5516 136.788 38.0425 136.541C38.5334 136.294 39.106 136.129 39.6787 136.129C40.0878 136.129 40.5786 136.212 40.9877 136.376C41.3968 136.541 41.8058 136.706 42.0513 137.035L41.3968 137.941C41.1513 137.694 40.9059 137.529 40.5786 137.447C40.2514 137.365 40.006 137.282 39.6787 137.282C39.2697 137.282 38.9424 137.365 38.6152 137.529C37.6334 138.106 37.3062 139.424 37.8789 140.412C38.2879 141.071 38.9424 141.482 39.6787 141.482C39.9241 141.482 40.0878 141.482 40.3332 141.4C40.5786 141.318 40.8241 141.235 40.9877 141.071L41.0695 139.259Z" fill="white"/>
<path d="M47.7776 136.212H48.923V142.388H47.8594L44.6688 138.106V142.388H43.5234V136.212H44.6688L47.8594 140.494L47.7776 136.212Z" fill="white"/>
<path d="M54.2416 142.388L53.1781 140.576H51.5418V142.388H50.3965V136.212H52.9326C53.5871 136.129 54.2416 136.376 54.8143 136.706C55.2234 137.118 55.4688 137.694 55.4688 138.271C55.4688 138.682 55.387 139.094 55.1416 139.506C54.8961 139.835 54.5689 140.082 54.2416 140.247L55.6324 142.306L54.2416 142.388ZM51.5418 139.506H52.9326C53.3417 139.506 53.6689 139.424 53.9962 139.176C54.2416 138.929 54.3234 138.682 54.3234 138.353C54.3234 138.024 54.2416 137.694 53.9962 137.529C53.6689 137.365 53.3417 137.2 53.0145 137.282H51.5418V139.506Z" fill="url(#paint3_linear)"/>
<path d="M58.1675 140.988C58.4947 141.235 58.9038 141.4 59.231 141.4C59.6401 141.4 60.0491 141.235 60.2946 140.988C60.54 140.659 60.7036 140.247 60.7036 139.835V136.212H61.849V139.835C61.849 140.33 61.7672 140.824 61.5217 141.235C61.2763 141.647 60.9491 141.977 60.6218 142.141C60.2128 142.388 59.7219 142.471 59.231 142.471C58.7402 142.471 58.2493 142.388 57.7584 142.141C57.3494 141.977 57.0221 141.647 56.8585 141.235C56.6131 140.824 56.5312 140.33 56.5312 139.835V136.212H57.6766V139.835C57.7584 140.247 57.922 140.659 58.1675 140.988Z" fill="url(#paint4_linear)"/>
<path d="M66.2677 137.365C66.0222 137.283 65.695 137.2 65.3678 137.2C65.1223 137.2 64.8769 137.283 64.7133 137.365C64.5496 137.447 64.4678 137.612 64.4678 137.777C64.4678 137.941 64.5496 138.106 64.6314 138.188C64.7133 138.271 64.8769 138.435 65.0405 138.435C65.2859 138.518 65.5314 138.6 65.7768 138.682C66.1041 138.765 66.4313 138.93 66.7585 139.012C67.004 139.177 67.2494 139.341 67.413 139.588C67.5767 139.835 67.7403 140.165 67.6585 140.577C67.6585 140.906 67.5767 141.318 67.3312 141.565C67.0858 141.812 66.8404 142.059 66.5131 142.224C66.1041 142.388 65.695 142.471 65.2859 142.471C64.7951 142.471 64.3042 142.388 63.8951 142.224C63.4861 142.059 63.077 141.812 62.668 141.483L63.1588 140.494C63.4861 140.741 63.8133 140.988 64.2224 141.153C64.5496 141.318 64.9587 141.4 65.2859 141.4C65.5314 141.4 65.8586 141.318 66.0222 141.235C66.3495 141.071 66.3495 140.659 66.1859 140.33L66.1041 140.247C65.9404 140.165 65.8586 140 65.695 140C65.5314 139.918 65.2859 139.835 64.9587 139.753C64.6314 139.671 64.3042 139.506 63.977 139.424C63.7315 139.341 63.4861 139.094 63.3225 138.93C63.1588 138.683 62.9952 138.353 63.077 138.024C63.077 137.694 63.1588 137.365 63.3225 137.118C63.5679 136.871 63.8133 136.624 64.1406 136.459C64.5496 136.294 64.9587 136.212 65.3678 136.212C65.7768 136.212 66.1859 136.294 66.5131 136.377C66.8404 136.459 67.2494 136.624 67.5767 136.871L67.0858 137.859C66.9222 137.612 66.5949 137.447 66.2677 137.365Z" fill="url(#paint5_linear)"/>
<path d="M68.8848 136.212H70.0301V138.847H73.0572V136.212H74.2025V142.388H73.0572V139.918H70.0301V142.388H68.8848V136.212Z" fill="url(#paint6_linear)"/>
<path d="M76.4114 141.318C76.4932 141.4 76.5751 141.565 76.5751 141.812C76.5751 141.976 76.4932 142.141 76.4114 142.306C76.3296 142.388 76.166 142.47 76.0024 142.47C75.8387 142.47 75.6751 142.388 75.5933 142.306C75.5115 142.141 75.4297 141.976 75.4297 141.812C75.4297 141.647 75.5115 141.482 75.5933 141.318C75.6751 141.235 75.8387 141.153 76.0024 141.153C76.166 141.153 76.3296 141.235 76.4114 141.318Z" fill="white"/>
<path d="M79.6839 138.6C79.3566 138.6 79.0294 138.765 78.784 139.012C78.5385 139.259 78.4567 139.671 78.4567 140C78.4567 140.412 78.5385 140.741 78.784 140.988C79.0294 141.235 79.3566 141.4 79.6839 141.4C80.1748 141.4 80.6656 141.235 80.9111 140.824L81.6474 141.4C81.4019 141.729 81.1565 141.977 80.8293 142.141C80.4202 142.306 80.0111 142.388 79.6021 142.388C79.193 142.388 78.784 142.306 78.3749 142.059C78.0477 141.894 77.7204 141.565 77.5568 141.235C77.1477 140.494 77.1477 139.506 77.5568 138.765C77.7204 138.435 78.0477 138.106 78.3749 137.941C78.784 137.777 79.193 137.612 79.6021 137.612C80.0111 137.612 80.4202 137.694 80.7474 137.859C81.0747 138.024 81.3201 138.188 81.5656 138.518L80.9111 139.177C80.6656 138.847 80.1748 138.6 79.6839 138.6Z" fill="white"/>
<path d="M85.8198 137.941C86.147 138.106 86.4742 138.435 86.7197 138.765C86.9651 139.177 87.0469 139.588 87.0469 140C87.0469 140.412 86.9651 140.906 86.7197 141.235C86.4742 141.565 86.2288 141.894 85.8198 142.059C85.4107 142.224 85.0016 142.388 84.5108 142.388C84.0199 142.388 83.6108 142.306 83.2018 142.059C82.8745 141.894 82.5473 141.565 82.3019 141.235C82.0564 140.824 81.9746 140.412 81.9746 140C81.9746 139.588 82.0564 139.094 82.3019 138.765C82.5473 138.435 82.7927 138.106 83.2018 137.941C83.6108 137.694 84.0199 137.612 84.5108 137.612C85.0016 137.612 85.4107 137.694 85.8198 137.941ZM83.6108 139.012C83.12 139.588 83.12 140.494 83.6108 141.071C83.8563 141.318 84.1835 141.482 84.5926 141.482C84.9198 141.482 85.3289 141.318 85.5743 141.071C86.0652 140.494 86.0652 139.588 85.5743 139.012C85.3289 138.765 85.0016 138.6 84.5926 138.6C84.1835 138.6 83.8563 138.682 83.6108 139.012Z" fill="white"/>
<path d="M95.3926 138.106C95.7198 138.435 95.8834 138.929 95.8834 139.423V142.388H94.7381V139.753C94.7381 139.423 94.6563 139.176 94.4926 138.929C94.329 138.765 94.0018 138.6 93.7563 138.6C93.4291 138.6 93.1018 138.765 92.8564 139.012C92.611 139.259 92.5292 139.588 92.5292 140V142.306H91.3838V139.753C91.3838 139.423 91.302 139.176 91.1384 138.929C90.9747 138.765 90.6475 138.6 90.4021 138.6C90.0748 138.6 89.7476 138.765 89.5021 139.012C89.2567 139.259 89.1749 139.67 89.2567 140V142.306H88.1113V137.612H89.2567V138.518C89.8294 137.612 91.0565 137.365 91.9565 137.859C92.2019 138.023 92.4473 138.353 92.5292 138.682C92.7746 137.941 93.5109 137.529 94.2472 137.529C94.6563 137.529 95.0653 137.776 95.3926 138.106Z" fill="white"/>
<path d="M56.0408 56.8235C56.0408 56.8235 55.959 56.7411 55.8772 56.7411L55.2227 56.247L55.1409 56.1647L35.5061 42.0823C35.4243 42.0823 35.3425 41.9999 35.3425 41.9176L35.0152 41.6705C34.9334 41.6705 34.8516 41.5882 34.8516 41.5058L34.6062 41.3411L29.043 37.3882L40.1693 39.0352C40.5784 39.0352 40.9056 39.1176 41.3147 39.2823C41.4783 39.2823 41.6419 39.3647 41.8056 39.447C42.1328 39.5294 42.5419 39.6941 42.8691 39.8588C43.1146 40.0235 43.4418 40.1058 43.6872 40.2705C43.8509 40.3529 44.0145 40.5176 44.1781 40.5999C44.3417 40.6823 44.4235 40.7647 44.5872 40.847C44.8326 41.0117 44.9962 41.1764 45.1598 41.3411C45.6507 41.7529 46.0598 42.247 46.387 42.8235L55.1409 55.3411L55.2227 55.4235L56.0408 56.8235Z" fill="#774EFB"/>
<path d="M56.041 56.8237L56.8591 55.6707L56.9409 55.5884L65.7766 42.9884C67.2492 40.8472 69.5399 39.4472 72.0761 39.1178L75.2667 38.6236L83.4479 37.4707L56.9409 56.1648L56.041 56.8237Z" fill="#774EFB"/>
<path d="M56.0406 76.1764L55.2224 74.9411H55.1406L28.9609 37.4705L34.5241 41.4235L35.5059 42.0823L55.1406 56.1646L55.2224 56.247L55.8769 56.7411C55.9587 56.7411 55.9587 56.8235 56.0406 56.8235L56.9405 56.1646L83.3656 37.3882L56.9405 74.8588L56.8587 74.9411L56.0406 76.1764Z" fill="url(#paint7_linear)"/>
<path d="M56.0408 50.4824L55.1408 49.2471V49.1648L48.6777 40.0236L55.1408 41.3412V41.4236L56.0408 41.5883L56.8589 41.3412H56.9407L63.1584 39.8589L56.9407 49.2471L56.8589 49.3295L56.0408 50.4824Z" fill="url(#paint8_linear)"/>
<path opacity="0.2" d="M56.041 56.8237L83.2843 37.4707L75.1849 38.6236L56.041 56.8237Z" fill="white"/>
<path opacity="0.2" d="M56.0406 76.1766L55.2224 74.9413H55.1406L28.9609 37.4707L40.0873 39.1178C40.4964 39.1178 40.8236 39.2001 41.2327 39.3648C41.3963 39.3648 41.5599 39.4472 41.7235 39.5295C42.0508 39.6119 42.4598 39.7766 42.7871 39.9413C43.0325 40.106 43.3598 40.1884 43.6052 40.3531C43.7688 40.4354 43.9325 40.6001 44.0961 40.6825C44.2597 40.7648 44.3415 40.8472 44.5051 40.9295C44.7506 41.0942 44.9142 41.2589 45.0778 41.4236C45.5687 41.8354 45.9777 42.3295 46.305 42.8236L55.0588 55.4236L55.1406 55.506L55.9587 56.6589L56.0406 76.1766Z" fill="white"/>
<path d="M28.8789 37.4707C28.8789 37.4707 52.3588 53.4472 55.9585 56.8237C46.632 50.8119 37.6327 44.3884 28.8789 37.4707Z" fill="#50E2B6"/>
<path opacity="0.2" d="M56.0408 50.4823L55.1408 49.247V49.1646L48.6777 40.0234L55.1408 41.3411V41.4234L56.0408 41.5881V50.4823Z" fill="white"/>
<path d="M56.041 76.1765L55.6319 73.7883C55.3865 72.8824 55.3047 71.8941 55.3047 70.9059V61.8471C55.3047 60.8589 55.3865 59.8706 55.6319 58.8824L56.041 56.7412L56.6955 58.9647C56.9409 59.953 57.0227 60.9412 57.0227 61.9294V70.9883C57.0227 71.9765 56.9409 72.8824 56.6955 73.8706L56.041 76.1765Z" fill="url(#paint9_linear)"/>
<path d="M60.2957 10.9529C60.2957 18.2 47.5331 22.1529 47.5331 30.0588C47.4513 31.8706 47.8603 33.7647 48.6784 35.4118C48.6784 35.4118 43.8516 30.7176 43.8516 25.6941C43.8516 20.6706 48.5148 13.1765 48.5148 13.1765C48.5148 16.5529 49.9056 17.4588 51.2146 17.6235H51.6237C53.0963 17.6235 53.9962 16.4706 53.9962 14.8235C53.9962 13.1765 52.1963 11.4471 52.1963 8.23529C52.1963 5.02353 56.1233 0 56.1233 0C58.7413 3.04706 60.2139 6.91765 60.2957 10.9529Z" fill="url(#paint10_linear)"/>
<path d="M56.6962 37.7178C52.851 37.7178 49.7422 34.506 49.7422 30.6354C49.7422 30.5531 49.7422 30.5531 49.7422 30.4707C49.7422 21.8236 61.6049 21.1648 61.6049 9.4707C61.9321 9.88247 65.1228 14.4119 65.1228 19.0236C65.1228 24.9531 59.6414 26.3531 59.6414 29.2354C59.6414 30.306 60.2959 31.1295 61.7685 31.1295C61.9321 31.1295 62.0957 31.1295 62.2593 31.0472C65.45 29.7295 67.4953 26.6825 67.6589 23.2236C67.7407 23.3884 69.377 37.7178 56.6962 37.7178Z" fill="url(#paint11_linear)"/>
<path d="M61.9314 31.3766C62.095 31.3766 62.2587 31.3766 62.4223 31.2942C60.786 31.9531 54.5684 33.1884 54.5684 28.906C54.5684 23.5531 63.7313 22.4825 63.7313 17.8707C63.6494 15.0707 62.995 12.2707 61.686 9.71777C62.0132 10.1295 65.2039 14.6589 65.2039 19.2707C65.2039 25.2001 59.7225 26.6001 59.7225 29.4825C59.8043 30.5531 60.377 31.3766 61.9314 31.3766Z" fill="url(#paint12_linear)"/>
<path d="M62.0957 31.2943L62.3411 31.2119C62.2593 31.2943 62.1775 31.2943 62.0957 31.2943Z" fill="url(#paint13_linear)"/>
<path d="M55.141 28.8235C55.141 23.4705 64.3039 22.4 64.3039 17.7882C64.3039 16.1411 64.0585 14.4941 63.5676 12.9294C62.995 11.7764 62.3405 10.7058 61.686 9.63525C62.995 12.1882 63.6494 14.9882 63.7313 17.7882C63.7313 22.4 54.5684 23.4705 54.5684 28.8235C54.5684 31.3764 56.7773 31.9529 58.8226 31.8705C56.9409 31.8705 55.141 31.1294 55.141 28.8235Z" fill="url(#paint14_linear)"/>
<path d="M56.8598 14C56.8598 18.2 51.5421 17.7882 51.2148 17.7059H51.6239C53.0965 17.7059 53.9964 16.5529 53.9964 14.9059C53.9964 13.2588 52.1966 11.5294 52.1966 8.31765C52.1966 5.10588 56.1235 0 56.1235 0C54.8964 2.05882 54.1601 4.44706 54.0782 6.91765C54.0782 10.5412 56.8598 10.7882 56.8598 14Z" fill="url(#paint15_linear)"/>
<path d="M54.0778 6.91765C54.1596 4.44706 54.8959 2.14118 56.1231 0C55.4686 0.823529 54.8959 1.64706 54.3233 2.55294C53.8324 3.95294 53.5052 5.43529 53.5052 6.83529C53.5052 10.4588 56.3686 10.7059 56.3686 13.9176C56.3686 17.0471 53.4233 17.6235 51.7871 17.6235C53.2597 17.7059 56.8594 17.3765 56.8594 13.9176C56.8594 10.7882 54.0778 10.5412 54.0778 6.91765Z" fill="url(#paint16_linear)"/>
<path d="M56.0406 88.6941L52.3591 91.3294L53.7499 86.9647L50.0684 84.4117H54.4862L56.0406 79.8823L57.5132 84.4117H61.931L58.2495 86.9647L59.6403 91.3294L56.0406 88.6941Z" fill="url(#paint17_radial)"/>
<path d="M56.0408 80.6235L57.268 84.3294L57.3498 84.6588H61.1949L58.3315 86.7176L58.0861 86.8823L58.1679 87.2117L59.3133 90.7529L56.368 88.6117L56.1226 88.447L55.8772 88.6117L52.932 90.7529L54.0773 87.2117L54.1591 86.8823L53.9137 86.7176L51.0503 84.6588H54.8954L54.9772 84.3294L56.0408 80.6235ZM56.0408 79.1411L54.4046 84.1646H49.4141L53.5046 87.047L51.9502 91.9882L56.0408 88.9411L60.1314 91.9882L58.577 87.047L62.6675 84.1646H57.677L56.0408 79.1411Z" fill="#29ABE2"/>
<path d="M75.0211 88.6941L71.3395 91.3294L72.7303 86.9647L69.0488 84.4117H73.5485L75.0211 79.8823L76.4937 84.4117H80.9115L77.3118 86.9647L78.7026 91.3294L75.0211 88.6941Z" fill="url(#paint18_radial)"/>
<path d="M75.0213 80.6235L76.2484 84.3294L76.3303 84.6588H80.1754L77.312 86.7176L77.0666 86.8823L77.1484 87.2117L78.2937 90.7529L75.3485 88.6117L75.1031 88.447L74.8576 88.6117L71.9124 90.7529L73.0578 87.2117L73.1396 86.8823L72.8942 86.7176L70.0308 84.6588H73.8759L73.9577 84.3294L75.0213 80.6235ZM75.0213 79.1411L73.385 84.1646H68.3945L72.4851 87.047L70.9307 91.9882L75.0213 88.9411L79.1118 91.9882L77.5574 87.047L81.648 84.1646H76.6575L75.0213 79.1411Z" fill="#29ABE2"/>
<path d="M36.9783 88.6941L33.3786 91.3294L34.7694 86.9647L31.0879 84.4117H35.5057L36.9783 79.8823L38.5327 84.4117H42.9506L39.269 86.9647L40.6598 91.3294L36.9783 88.6941Z" fill="url(#paint19_radial)"/>
<path d="M36.9783 80.6235L38.2055 84.3294L38.2873 84.6588H42.1324L39.1872 86.7176L38.9418 86.8823L39.0236 87.2117L40.1689 90.7529L37.2237 88.6117L36.9783 88.447L36.7329 88.6117L33.7876 90.7529L34.933 87.2117L35.0148 86.8823L34.7694 86.7176L31.906 84.6588H35.7511L35.8329 84.3294L36.9783 80.6235ZM36.9783 79.1411L35.3421 84.1646H30.3516L34.4421 87.047L32.8877 91.9882L36.9783 88.9411L41.0689 91.9882L39.5145 87.047L43.605 84.1646H38.6145L36.9783 79.1411Z" fill="#29ABE2"/>
<path d="M17.9979 88.6941L14.3163 91.3294L15.7071 86.9647L12.1074 84.4117H16.5252L17.9979 79.8823L19.4705 84.4117H23.8883L20.2886 86.9647L21.6794 91.3294L17.9979 88.6941Z" fill="url(#paint20_radial)"/>
<path d="M17.9978 80.6235L19.225 84.3294L19.3068 84.6588H23.152L20.2886 86.7176L20.0431 86.8823L20.1249 87.2117L21.2703 90.7529L18.3251 88.6117L18.0796 88.447L17.8342 88.6117L14.889 90.7529L16.0344 87.2117L16.1162 86.8823L15.8707 86.7176L13.0073 84.6588H16.8525L16.9343 84.3294L17.9978 80.6235ZM17.9978 79.1411L16.3616 84.1646H11.3711L15.4617 87.047L13.9073 91.9882L17.9978 88.9411L22.0884 91.9882L20.534 87.047L24.6246 84.1646H19.6341L17.9978 79.1411Z" fill="#29ABE2"/>
<path d="M94.0018 88.6941L90.3202 91.3294L91.711 86.9647L88.1113 84.4117H92.5292L94.0018 79.8823L95.4744 84.4117H99.8922L96.2925 86.9647L97.6833 91.3294L94.0018 88.6941Z" fill="url(#paint21_radial)"/>
<path d="M94.0017 80.6235L95.2289 84.3294L95.3107 84.6588H99.1559L96.2924 86.7176L96.047 86.8823L96.1288 87.2117L97.2742 90.7529L94.329 88.6117L94.0835 88.447L93.8381 88.6117L90.8929 90.7529L92.0383 87.2117L92.1201 86.8823L91.8746 86.7176L89.0112 84.6588H92.8564L92.9382 84.3294L94.0017 80.6235ZM94.0017 79.1411L92.3655 84.1646H87.375L91.4656 87.047L89.9112 91.9882L94.0017 88.9411L98.0923 91.9882L96.5379 87.047L100.628 84.1646H95.638L94.0017 79.1411Z" fill="#29ABE2"/>
<g opacity="0.3">
<path d="M6.9541 107.059H3.68164V99.4001H6.62686C7.11773 99.4001 7.60859 99.4825 7.93584 99.5649C8.3449 99.7296 8.59033 99.8943 8.75396 100.059C9.0812 100.471 9.24483 100.883 9.24483 101.377C9.24483 101.953 9.0812 102.447 8.67214 102.694C8.50852 102.777 8.42671 102.859 8.42671 102.859C8.42671 102.859 8.26309 102.941 8.18127 103.024C8.67214 103.106 8.99939 103.353 9.32664 103.683C9.57207 104.012 9.73569 104.424 9.73569 104.918C9.73569 105.412 9.57207 105.906 9.16301 106.318C8.75396 106.812 8.01765 107.059 6.9541 107.059ZM4.90881 102.612H6.54504C7.44497 102.612 7.93584 102.283 7.93584 101.624C7.93584 101.294 7.85403 100.965 7.60859 100.8C7.36316 100.635 7.03591 100.553 6.54504 100.553H4.90881V102.612ZM4.90881 105.906H6.9541C7.44497 105.906 7.77222 105.824 8.01765 105.659C8.26309 105.494 8.42671 105.247 8.42671 104.835C8.42671 104.177 7.85403 103.847 6.79048 103.847H4.90881V105.906Z" fill="white"/>
<path d="M16.6886 99.4001V100.635H12.598V102.694H16.2796V103.847H12.598V105.906H16.7704V107.141H11.2891V99.4825H16.6886V99.4001Z" fill="white"/>
<path d="M20.7794 100.389C20.3704 100.389 20.1249 100.471 19.8795 100.636C19.6341 100.8 19.5522 101.047 19.5522 101.294C19.5522 101.624 19.6341 101.871 19.8795 102.036C20.1249 102.2 20.6158 102.365 21.4339 102.53C22.252 102.694 22.8247 103.024 23.2338 103.353C23.6428 103.683 23.8064 104.177 23.8064 104.836C23.8064 105.494 23.561 106.071 23.0701 106.483C22.5793 106.894 21.9248 107.141 21.1067 107.141C19.8795 107.141 18.8978 106.73 17.916 105.906L18.7341 104.918C19.4704 105.577 20.2886 105.906 21.1067 105.906C21.5157 105.906 21.843 105.824 22.0884 105.659C22.3338 105.494 22.4157 105.247 22.4157 104.918C22.4157 104.589 22.3338 104.424 22.0884 104.259C21.843 104.094 21.4339 103.93 20.943 103.847C20.3704 103.683 19.9613 103.6 19.6341 103.436C19.3068 103.271 19.0614 103.189 18.8978 103.024C18.4069 102.694 18.2433 102.118 18.2433 101.459C18.2433 100.8 18.4887 100.224 18.9796 99.8121C19.4704 99.4003 20.1249 99.2356 20.8612 99.2356C21.3521 99.2356 21.843 99.318 22.3338 99.4827C22.8247 99.6474 23.2338 99.8944 23.561 100.141L22.9065 101.13C22.6611 100.965 22.4157 100.718 22.0066 100.636C21.5975 100.553 21.1067 100.389 20.7794 100.389Z" fill="white"/>
<path d="M28.2247 100.636V107.141H26.9157V100.636H24.625V99.4827H30.5154V100.636H28.2247Z" fill="white"/>
<path d="M38.2058 107.059H34.8516V99.4001H37.7968C38.2877 99.4001 38.7785 99.4825 39.1058 99.5649C39.5148 99.7296 39.7603 99.8943 39.9239 100.059C40.2511 100.471 40.4148 100.883 40.4148 101.377C40.4148 101.953 40.2511 102.447 39.8421 102.694C39.6784 102.777 39.5966 102.859 39.5966 102.859C39.5966 102.859 39.433 102.941 39.3512 103.024C39.8421 103.106 40.1693 103.353 40.4966 103.683C40.742 104.012 40.9056 104.424 40.9056 104.918C40.9056 105.412 40.742 105.906 40.3329 106.318C40.0057 106.812 39.2694 107.059 38.2058 107.059ZM36.1605 102.612H37.7968C38.6967 102.612 39.1876 102.283 39.1876 101.624C39.1876 101.294 39.1058 100.965 38.8603 100.8C38.6149 100.635 38.2877 100.553 37.7968 100.553H36.1605V102.612ZM36.1605 105.906H38.2058C38.6967 105.906 39.024 105.824 39.2694 105.659C39.5148 105.494 39.6784 105.247 39.6784 104.835C39.6784 104.177 39.1058 103.847 38.0422 103.847H36.1605V105.906Z" fill="white"/>
<path d="M42.623 107.059V99.4001H43.932V105.824H47.3681V107.059H42.623Z" fill="white"/>
<path d="M54.8956 105.989C54.1593 106.73 53.1776 107.141 52.0322 107.141C50.8868 107.141 49.9869 106.73 49.1688 105.989C48.3507 105.247 48.0234 104.259 48.0234 103.189C48.0234 102.118 48.4325 101.13 49.1688 100.389C49.9051 99.6474 50.8868 99.2356 52.0322 99.2356C53.1776 99.2356 54.0775 99.6474 54.8956 100.389C55.6319 101.13 56.041 102.118 56.041 103.189C56.041 104.259 55.7137 105.247 54.8956 105.989ZM53.9957 101.212C53.5048 100.636 52.8503 100.389 52.114 100.389C51.3777 100.389 50.7232 100.636 50.2324 101.212C49.7415 101.789 49.4142 102.447 49.4142 103.189C49.4142 103.93 49.6597 104.589 50.2324 105.165C50.7232 105.741 51.3777 105.989 52.114 105.989C52.8503 105.989 53.5048 105.741 53.9957 105.165C54.4865 104.589 54.8138 103.93 54.8138 103.189C54.732 102.447 54.4865 101.789 53.9957 101.212Z" fill="white"/>
<path d="M61.1943 105.906C61.6034 105.906 62.0124 105.824 62.3397 105.659C62.6669 105.494 62.9942 105.247 63.3214 104.918L64.1395 105.741C63.3214 106.647 62.3397 107.059 61.1943 107.059C60.049 107.059 59.0672 106.647 58.3309 105.906C57.5946 105.165 57.1855 104.177 57.1855 103.106C57.1855 101.953 57.5946 101.047 58.3309 100.224C59.0672 99.4826 60.049 99.0708 61.2761 99.0708C62.4215 99.0708 63.4032 99.4826 64.2213 100.388L63.4032 101.294C63.076 100.965 62.6669 100.718 62.3397 100.553C62.0124 100.388 61.6034 100.306 61.1943 100.306C60.458 100.306 59.8035 100.553 59.2308 101.047C58.74 101.541 58.4127 102.2 58.4127 102.941C58.4127 103.683 58.6582 104.341 59.2308 104.918C59.8035 105.659 60.458 105.906 61.1943 105.906Z" fill="white"/>
<path d="M65.6953 99.4001H67.0043V103.106L70.5222 99.4001H72.1584L69.1314 102.777L72.2402 107.059H70.6858L68.1497 103.683L67.0043 104.918V107.059H65.6953V99.4001Z" fill="white"/>
<path d="M76.9033 105.906C77.3124 105.906 77.7214 105.824 78.0487 105.659C78.3759 105.494 78.7031 105.247 79.0304 104.918L79.8485 105.741C79.0304 106.647 78.0487 107.059 76.9033 107.059C75.7579 107.059 74.7762 106.647 74.0399 105.906C73.3036 105.165 72.8945 104.177 72.8945 103.106C72.8945 101.953 73.3036 101.047 74.0399 100.224C74.7762 99.4826 75.7579 99.0708 76.9851 99.0708C78.2123 99.0708 79.1122 99.4826 79.9303 100.388L79.1122 101.294C78.785 100.965 78.3759 100.718 78.0487 100.553C77.7214 100.388 77.3124 100.306 76.9033 100.306C76.167 100.306 75.5125 100.553 74.9398 101.047C74.449 101.541 74.1217 102.2 74.1217 102.941C74.1217 103.683 74.3671 104.341 74.9398 104.918C75.5125 105.659 76.167 105.906 76.9033 105.906Z" fill="white"/>
<path d="M81.4023 107.059V99.4001H82.7113V102.694H86.4747V99.4001H87.7836V107.059H86.4747V103.93H82.7113V107.059H81.4023Z" fill="white"/>
<path d="M90.9748 105.33L90.2385 107.059H88.8477L92.2019 99.4001H93.5927L96.947 107.059H95.5562L94.8199 105.33H90.9748ZM94.2472 104.177L92.8564 101.047L91.4656 104.177H94.2472Z" fill="white"/>
<path d="M97.9277 99.4001H99.2367V107.059H97.9277V99.4001Z" fill="white"/>
<path d="M107.092 99.4001H108.401V107.059H107.01L102.674 101.459V107.059H101.365V99.4001H102.674L107.092 105.165V99.4001Z" fill="white"/>
</g>
<g opacity="0.3">
<path d="M19.2266 110.765C19.9629 111.424 20.2901 112.33 20.2901 113.565C20.2901 114.8 19.9629 115.706 19.2266 116.365C18.4903 117.024 17.4267 117.435 15.9541 117.435H13.418V109.777H16.0359C17.4267 109.777 18.4903 110.106 19.2266 110.765ZM18.9812 113.647C18.9812 111.918 17.9994 111.012 15.9541 111.012H14.727V116.282H16.1177C17.0177 116.282 17.754 116.035 18.2448 115.624C18.7357 115.13 18.9812 114.471 18.9812 113.647Z" fill="white"/>
<path d="M27.3253 109.777V111.012H23.2348V113.071H26.9163V114.224H23.2348V116.282H27.4072V117.518H21.9258V109.859H27.3253V109.777Z" fill="white"/>
<path d="M32.5621 117.435H31.0895L28.0625 109.777H29.5351L31.9076 115.541L34.2802 109.777H35.7528L32.5621 117.435Z" fill="white"/>
<path d="M42.0519 109.777V111.012H37.9613V113.071H41.6428V114.224H37.9613V116.282H42.1337V117.518H36.6523V109.859H42.0519V109.777Z" fill="white"/>
<path d="M43.8516 117.435V109.777H45.1605V116.2H48.5966V117.435H43.8516Z" fill="white"/>
<path d="M56.2061 116.365C55.4698 117.106 54.4881 117.518 53.3427 117.518C52.1974 117.518 51.2975 117.106 50.4793 116.365C49.6612 115.624 49.334 114.635 49.334 113.565C49.334 112.494 49.743 111.506 50.4793 110.765C51.2156 110.024 52.1974 109.612 53.3427 109.612C54.4881 109.612 55.388 110.024 56.2061 110.765C56.9425 111.506 57.3515 112.494 57.3515 113.565C57.3515 114.635 56.9425 115.624 56.2061 116.365ZM55.2244 111.588C54.7335 111.012 54.079 110.765 53.3427 110.765C52.6064 110.765 51.952 111.012 51.4611 111.588C50.9702 112.165 50.643 112.824 50.643 113.565C50.643 114.306 50.8884 114.965 51.4611 115.541C51.952 116.118 52.6064 116.365 53.3427 116.365C54.079 116.365 54.7335 116.118 55.2244 115.541C55.7153 114.965 56.0425 114.306 56.0425 113.565C56.0425 112.824 55.7971 112.165 55.2244 111.588Z" fill="white"/>
<path d="M64.1405 110.435C64.6313 110.847 64.9586 111.588 64.9586 112.494C64.9586 113.4 64.7131 114.141 64.1405 114.553C63.5678 114.965 62.7497 115.212 61.6861 115.212H60.2953V117.435H58.9863V109.777H61.6043C62.7497 109.777 63.5678 110.024 64.1405 110.435ZM63.1587 113.647C63.4041 113.4 63.5678 112.988 63.5678 112.412C63.5678 111.918 63.4042 111.506 63.0769 111.259C62.7497 111.012 62.2588 110.93 61.5225 110.93H60.2135V113.977H61.6861C62.4224 114.059 62.9133 113.894 63.1587 113.647Z" fill="white"/>
<path d="M67.6586 117.435H66.3496V109.777H68.3949L70.6856 114.553L72.9763 109.777H74.9398V117.435H73.6308V111.424L71.0129 116.777H70.3584L67.7404 111.424V117.435H67.6586Z" fill="white"/>
<path d="M82.466 109.777V111.012H78.3754V113.071H82.0569V114.224H78.3754V116.282H82.5478V117.518H77.0664V109.859H82.466V109.777Z" fill="white"/>
<path d="M89.9944 109.777H91.3034V117.435H89.9126L85.5766 111.835V117.435H84.2676V109.777H85.5766L89.9944 115.541V109.777Z" fill="white"/>
<path d="M96.211 111.012V117.518H94.9021V111.012H92.6113V109.859H98.5018V111.012H96.211Z" fill="white"/>
</g>
<g opacity="0.3">
<path d="M25.8525 126.659C26.2616 126.659 26.6706 126.577 26.9979 126.412C27.3251 126.247 27.6524 126 27.9796 125.671L28.7977 126.494C27.9796 127.4 26.9979 127.812 25.8525 127.812C24.7072 127.812 23.7254 127.4 22.9891 126.659C22.2528 125.918 21.8438 124.93 21.8438 123.859C21.8438 122.706 22.2528 121.8 22.9891 120.977C23.7254 120.235 24.7072 119.824 25.9343 119.824C27.0797 119.824 28.0614 120.236 28.8795 121.141L28.0614 122.047C27.7342 121.718 27.3251 121.471 26.9979 121.306C26.6706 121.141 26.2616 121.059 25.8525 121.059C25.1162 121.059 24.4617 121.306 23.889 121.8C23.3982 122.294 23.0709 122.953 23.0709 123.694C23.0709 124.435 23.3164 125.094 23.889 125.671C24.5435 126.412 25.1162 126.659 25.8525 126.659Z" fill="white"/>
<path d="M36.5694 126.741C35.8331 127.483 34.8514 127.894 33.706 127.894C32.5607 127.894 31.6607 127.483 30.8426 126.741C30.0245 126 29.6973 125.012 29.6973 123.941C29.6973 122.871 30.1063 121.883 30.8426 121.141C31.5789 120.4 32.5607 119.989 33.706 119.989C34.8514 119.989 35.7513 120.4 36.5694 121.141C37.3057 121.883 37.7148 122.871 37.7148 123.941C37.7148 125.012 37.3876 126 36.5694 126.741ZM35.6695 121.965C35.1786 121.389 34.5241 121.141 33.7878 121.141C33.0515 121.141 32.397 121.389 31.9062 121.965C31.4153 122.541 31.0881 123.2 31.0881 123.941C31.0881 124.683 31.3335 125.341 31.9062 125.918C32.397 126.494 33.0515 126.741 33.7878 126.741C34.5241 126.741 35.1786 126.494 35.6695 125.918C36.1604 125.341 36.4876 124.683 36.4876 123.941C36.4058 123.2 36.1604 122.541 35.6695 121.965Z" fill="white"/>
<path d="M40.6605 127.812H39.3516V120.153H41.3969L43.6876 124.93L45.9783 120.153H47.9418V127.812H46.6328V121.882L43.933 127.235H43.1967L40.5787 121.882V127.812H40.6605Z" fill="white"/>
<path d="M55.2225 120.812C55.7134 121.224 56.0406 121.965 56.0406 122.871C56.0406 123.777 55.7952 124.518 55.2225 124.93C54.6498 125.341 53.8317 125.588 52.7681 125.588H51.3773V127.812H50.0684V120.153H52.6863C53.8317 120.153 54.7316 120.4 55.2225 120.812ZM54.3226 124.024C54.568 123.777 54.7316 123.365 54.7316 122.788C54.7316 122.294 54.568 121.882 54.2408 121.635C53.9135 121.388 53.4226 121.306 52.6863 121.306H51.3773V124.353H52.85C53.5863 124.435 54.0771 124.271 54.3226 124.024Z" fill="white"/>
<path d="M58.1681 126.082L57.4318 127.812H56.041L59.3953 120.153H60.7861L64.1404 127.812H62.7496L62.0133 126.082H58.1681ZM61.5224 124.93L60.1316 121.8L58.7408 124.93H61.5224Z" fill="white"/>
<path d="M70.9299 120.153H72.2389V127.812H70.8481L66.5121 122.212V127.812H65.2031V120.153H66.5121L70.9299 125.918V120.153Z" fill="white"/>
<path d="M74.2852 120.153H75.5941V127.812H74.2852V120.153Z" fill="white"/>
<path d="M83.0384 120.153V121.388H78.9479V123.447H82.6294V124.6H78.9479V126.659H83.1203V127.894H77.7207V120.235H83.0384V120.153Z" fill="white"/>
<path d="M87.129 121.141C86.72 121.141 86.4745 121.224 86.2291 121.389C85.9837 121.553 85.9019 121.8 85.9019 122.047C85.9019 122.377 85.9837 122.624 86.2291 122.789C86.4745 122.953 86.9654 123.118 87.7835 123.283C88.6016 123.447 89.1743 123.777 89.5834 124.106C89.9924 124.436 90.1561 124.93 90.1561 125.589C90.1561 126.247 89.9106 126.824 89.4198 127.236C88.9289 127.647 88.2744 127.894 87.4563 127.894C86.2291 127.894 85.2474 127.483 84.2656 126.659L85.0837 125.671C85.82 126.33 86.6382 126.659 87.4563 126.659C87.8653 126.659 88.1926 126.577 88.438 126.412C88.6834 126.247 88.7653 126 88.7653 125.671C88.7653 125.341 88.6834 125.177 88.438 125.012C88.1926 124.847 87.7835 124.683 87.2926 124.6C86.72 124.436 86.3109 124.353 85.9837 124.189C85.6564 124.106 85.411 123.941 85.2474 123.777C84.8383 123.447 84.5929 122.871 84.5929 122.212C84.5929 121.553 84.8383 120.977 85.3292 120.565C85.82 120.153 86.4745 119.989 87.2108 119.989C87.7017 119.989 88.1926 120.071 88.6834 120.236C89.1743 120.4 89.5834 120.647 89.9106 120.894L89.1743 121.883C88.9289 121.718 88.6834 121.471 88.2744 121.389C87.8653 121.306 87.5381 121.141 87.129 121.141Z" fill="white"/>
</g>
<defs>
<linearGradient id="paint0_linear" x1="55.9991" y1="131.765" x2="55.9991" y2="146.753" gradientUnits="userSpaceOnUse">
<stop stop-color="white"/>
<stop offset="1" stop-color="white" stop-opacity="0"/>
</linearGradient>
<linearGradient id="paint1_linear" x1="9.08108" y1="124.271" x2="9.08108" y2="139.259" gradientUnits="userSpaceOnUse">
<stop stop-color="white"/>
<stop offset="1" stop-color="white" stop-opacity="0"/>
</linearGradient>
<linearGradient id="paint2_linear" x1="102.96" y1="124.271" x2="102.96" y2="139.259" gradientUnits="userSpaceOnUse">
<stop stop-color="white"/>
<stop offset="1" stop-color="white" stop-opacity="0"/>
</linearGradient>
<linearGradient id="paint3_linear" x1="17.3773" y1="139.292" x2="78.3597" y2="139.292" gradientUnits="userSpaceOnUse">
<stop stop-color="#784CFB"/>
<stop offset="1" stop-color="#2AF4FF"/>
</linearGradient>
<linearGradient id="paint4_linear" x1="17.3763" y1="139.341" x2="78.3585" y2="139.341" gradientUnits="userSpaceOnUse">
<stop stop-color="#784CFB"/>
<stop offset="1" stop-color="#2AF4FF"/>
</linearGradient>
<linearGradient id="paint5_linear" x1="17.3771" y1="139.341" x2="78.3594" y2="139.341" gradientUnits="userSpaceOnUse">
<stop stop-color="#784CFB"/>
<stop offset="1" stop-color="#2AF4FF"/>
</linearGradient>
<linearGradient id="paint6_linear" x1="17.3762" y1="139.3" x2="78.3585" y2="139.3" gradientUnits="userSpaceOnUse">
<stop stop-color="#784CFB"/>
<stop offset="1" stop-color="#2AF4FF"/>
</linearGradient>
<linearGradient id="paint7_linear" x1="56.1633" y1="76.3164" x2="56.1633" y2="55.8023" gradientUnits="userSpaceOnUse">
<stop stop-color="#784CFB"/>
<stop offset="1" stop-color="#2AF4FF"/>
</linearGradient>
<linearGradient id="paint8_linear" x1="55.9181" y1="50.8612" x2="55.9181" y2="40.5424" gradientUnits="userSpaceOnUse">
<stop stop-color="#784CFB"/>
<stop offset="1" stop-color="#2AF4FF"/>
</linearGradient>
<linearGradient id="paint9_linear" x1="56.1637" y1="72.7341" x2="56.1637" y2="60.093" gradientUnits="userSpaceOnUse">
<stop stop-color="#784CFB"/>
<stop offset="1" stop-color="#2AF4FF"/>
</linearGradient>
<linearGradient id="paint10_linear" x1="52.0736" y1="37.1741" x2="52.0736" y2="-6.72" gradientUnits="userSpaceOnUse">
<stop stop-color="#784CFB"/>
<stop offset="1" stop-color="#2AF4FF"/>
</linearGradient>
<linearGradient id="paint11_linear" x1="58.7559" y1="40.9213" x2="58.7559" y2="0.181291" gradientUnits="userSpaceOnUse">
<stop stop-color="#784CFB"/>
<stop offset="1" stop-color="#2AF4FF"/>
</linearGradient>
<linearGradient id="paint12_linear" x1="59.8861" y1="16.1742" x2="59.8861" y2="36.7048" gradientUnits="userSpaceOnUse">
<stop stop-color="#784CFB"/>
<stop offset="1" stop-color="#2AF4FF"/>
</linearGradient>
<linearGradient id="paint13_linear" x1="62.2184" y1="31.319" x2="62.2184" y2="31.2613" gradientUnits="userSpaceOnUse">
<stop stop-color="#784CFB"/>
<stop offset="1" stop-color="#2AF4FF"/>
</linearGradient>
<linearGradient id="paint14_linear" x1="59.4361" y1="34.0858" x2="59.4361" y2="15.0541" gradientUnits="userSpaceOnUse">
<stop stop-color="#784CFB"/>
<stop offset="1" stop-color="#2AF4FF"/>
</linearGradient>
<linearGradient id="paint15_linear" x1="54.0373" y1="8.80353" x2="54.0373" y2="16.3882" gradientUnits="userSpaceOnUse">
<stop stop-color="#784CFB"/>
<stop offset="1" stop-color="#2AF4FF"/>
</linearGradient>
<linearGradient id="paint16_linear" x1="54.3233" y1="22.3835" x2="54.3233" y2="7.25529" gradientUnits="userSpaceOnUse">
<stop stop-color="#784CFB"/>
<stop offset="1" stop-color="#2AF4FF"/>
</linearGradient>
<radialGradient id="paint17_radial" cx="0" cy="0" r="1" gradientUnits="userSpaceOnUse" gradientTransform="translate(55.9997 85.6347) scale(5.81173 5.85019)">
<stop stop-color="#9AF3FF"/>
<stop offset="1" stop-color="#4CACFD"/>
</radialGradient>
<radialGradient id="paint18_radial" cx="0" cy="0" r="1" gradientUnits="userSpaceOnUse" gradientTransform="translate(75.0047 85.6347) scale(5.81149 5.84995)">
<stop stop-color="#9AF3FF"/>
<stop offset="1" stop-color="#4CACFD"/>
</radialGradient>
<radialGradient id="paint19_radial" cx="0" cy="0" r="1" gradientUnits="userSpaceOnUse" gradientTransform="translate(37.0192 85.6347) scale(5.80338 5.84179)">
<stop stop-color="#9AF3FF"/>
<stop offset="1" stop-color="#4CACFD"/>
</radialGradient>
<radialGradient id="paint20_radial" cx="0" cy="0" r="1" gradientUnits="userSpaceOnUse" gradientTransform="translate(18.0101 85.6347) scale(5.80551 5.84393)">
<stop stop-color="#9AF3FF"/>
<stop offset="1" stop-color="#4CACFD"/>
</radialGradient>
<radialGradient id="paint21_radial" cx="0" cy="0" r="1" gradientUnits="userSpaceOnUse" gradientTransform="translate(94.0018 85.6347) scale(5.80314 5.84155)">
<stop stop-color="#9AF3FF"/>
<stop offset="1" stop-color="#4CACFD"/>
</radialGradient>
</defs>
</svg>
