<svg width="85" height="85" viewBox="0 0 85 85" fill="none" xmlns="http://www.w3.org/2000/svg">
<mask id="mask0" mask-type="alpha" maskUnits="userSpaceOnUse" x="0" y="0" width="85" height="85">
<rect width="85" height="85" rx="4" fill="#F2F4F9"/>
</mask>
<g mask="url(#mask0)">
<rect width="85" height="85" rx="4" fill="white"/>
<path d="M67 45.5631V39.4369L60.3764 38.3329C59.9288 36.3992 59.168 34.5313 58.0879 32.8006L61.9875 27.3399L57.6583 23.0101L52.1983 26.9102C50.4678 25.83 48.6 25.0691 46.6666 24.6215L45.5657 18H39.4403L38.3334 24.6215C38.3095 24.6274 38.2826 24.6334 38.2588 24.6394V31.4369C38.2826 31.4279 38.3035 31.419 38.3274 31.41V35.4444C38.3274 35.4832 38.3125 35.519 38.2827 35.5458L38.2588 35.5697L34.5472 39.1236C34.5203 39.1475 34.4875 39.1624 34.4487 39.1624H31.1309H30.6505V25.3734L27.3387 23.0101L23.0095 27.3399L26.9061 32.7976C25.829 34.5313 25.0712 36.4022 24.6207 38.3329L18 39.4399V45.566L24.6207 46.6671C25.0682 48.5978 25.829 50.4687 26.9091 52.1994L23.0095 57.6601L27.3387 61.9899L32.7988 58.0898C34.5322 59.17 36.397 59.928 38.3304 60.3785L39.4284 66.9642L39.4343 67H45.5597L45.5657 66.9642L46.6666 60.3756C48.597 59.928 50.4678 59.167 52.1953 58.0898L57.6553 61.9899L61.9845 57.6601L58.0849 52.1994C59.165 50.4687 59.9258 48.6008 60.3734 46.6671L67 45.5631ZM35.5168 52.0711L38.2081 49.4184C38.3334 49.4512 38.4617 49.4691 38.5929 49.4691C39.4075 49.4691 40.0698 48.8067 40.0698 47.992C40.0698 47.1774 39.4075 46.515 38.5929 46.515C37.7784 46.515 37.1161 47.1774 37.1161 47.992C37.1161 48.1382 37.1369 48.2815 37.1787 48.4187L34.4159 51.161C32.1006 48.9976 30.6505 45.9211 30.6505 42.5015V40.5977H30.8057H34.7948C34.9798 40.5977 35.1528 40.5261 35.2871 40.4008L38.2588 37.5541L39.5388 36.3276C39.679 36.1933 39.7595 36.0083 39.7595 35.8144V30.9744C40.6397 30.7655 41.5587 30.6521 42.5015 30.6521C43.1698 30.6521 43.8262 30.7118 44.4647 30.8162V37.0319C44.4647 37.0677 44.4498 37.1035 44.4229 37.1303L40.0132 41.6182C39.9117 41.5973 39.8103 41.5854 39.7058 41.5854C38.8913 41.5854 38.2289 42.2479 38.2289 43.0625C38.2289 43.8771 38.8913 44.5396 39.7058 44.5396C40.5204 44.5396 41.1827 43.8771 41.1827 43.0625C41.1827 42.8924 41.1529 42.7193 41.0932 42.5612L45.688 37.8853C45.8193 37.751 45.8909 37.5749 45.8909 37.3869V31.1504C48.4926 31.9262 50.7184 33.5764 52.2341 35.7547L43.504 44.4888C43.3697 44.6231 43.2951 44.8021 43.2951 44.9931V54.3211C43.0296 54.339 42.7641 54.3509 42.4955 54.3509C39.8908 54.3509 37.4771 53.5034 35.5168 52.0711ZM50.5811 51.164V49.0334C51.0496 48.7768 51.342 48.2874 51.342 47.7444C51.342 46.9297 50.6796 46.2673 49.8651 46.2673C49.0505 46.2673 48.3882 46.9297 48.3882 47.7444C48.3882 48.2904 48.6806 48.7768 49.149 49.0334V52.3098C47.8392 53.1991 46.3444 53.8317 44.7303 54.139V45.3512C44.7303 45.3124 44.7452 45.2796 44.772 45.2527L52.9979 37.0139C53.8571 38.6551 54.3465 40.5231 54.3465 42.5045C54.3494 45.9211 52.8994 49.0006 50.5811 51.164Z" fill="url(#paint0_linear)"/>
</g>
<defs>
<linearGradient id="paint0_linear" x1="56.2863" y1="60.605" x2="23.624" y2="17.7163" gradientUnits="userSpaceOnUse">
<stop stop-color="#007FEF"/>
<stop offset="1" stop-color="#00E3B6"/>
</linearGradient>
</defs>
</svg>
