<svg width="105" height="137" viewBox="0 0 105 137" fill="none" xmlns="http://www.w3.org/2000/svg">
<path d="M52.2487 136.705L0 116.63V0H104.497V116.63L52.2487 136.705ZM2.73553 114.75L52.2487 133.774L101.762 114.75V2.73214H2.73553V114.75Z" fill="#8D0200"/>
<path d="M8.18164 103.974V110.427V110.531L52.2237 127.454L96.2658 110.531V110.427V103.974L52.2237 120.897L8.18164 103.974Z" fill="url(#paint0_radial)"/>
<path d="M8.18164 94.8213V101.275V101.378L52.2237 118.301L96.2658 101.378V101.275V94.8213L52.2237 111.744L8.18164 94.8213Z" fill="url(#paint1_radial)"/>
<path d="M8.18164 85.6692V92.1225V92.2263L52.2237 109.149L96.2658 92.2263V92.1225V85.6692L52.2237 102.592L8.18164 85.6692Z" fill="url(#paint2_radial)"/>
<path d="M49.9229 12.8685C49.9229 12.8685 45.3026 13.4696 45.2506 13.6281C45.1986 13.7865 48.5852 16.9831 48.5852 16.9831C48.5852 16.9831 47.729 21.5595 47.863 21.6551C47.9971 21.7507 52.0894 19.5268 52.0894 19.5268C52.0894 19.5268 56.1927 21.7535 56.3131 21.6551C56.4334 21.5567 55.5936 16.9831 55.5936 16.9831C55.5936 16.9831 58.9802 13.7865 58.9283 13.6281C58.8763 13.4696 54.256 12.8685 54.256 12.8685C54.256 12.8685 52.2536 8.6665 52.0894 8.6665C51.9253 8.6665 49.9229 12.8685 49.9229 12.8685Z" fill="#930601"/>
<path d="M46.4134 41.5833V43.6624H43.4727V52.4053H40.8383V43.6624H37.9277V41.5833H46.4134Z" fill="white"/>
<path d="M55.4451 42.127C56.2693 42.593 56.9504 43.2751 57.4147 44.0996C57.8897 44.9774 58.1385 45.9596 58.1385 46.9574C58.1385 47.9552 57.8897 48.9374 57.4147 49.8152C56.947 50.642 56.2635 51.3266 55.4369 51.796C54.5903 52.2619 53.6393 52.5063 52.6727 52.5063C51.706 52.5063 50.7551 52.2619 49.9084 51.796C49.0825 51.3259 48.3991 50.6415 47.9306 49.8152C47.4532 48.9381 47.2031 47.9557 47.2031 46.9574C47.2031 45.9591 47.4532 44.9767 47.9306 44.0996C48.3994 43.2757 49.0829 42.594 49.9084 42.127C50.7576 41.6596 51.7113 41.4146 52.6809 41.4146C53.6504 41.4146 54.6042 41.6596 55.4533 42.127H55.4451ZM50.6197 44.6815C50.1145 45.228 49.8619 45.9848 49.8619 46.9519C49.8177 47.7756 50.0886 48.5852 50.6197 49.2169C51.1616 49.7561 51.8954 50.0589 52.6604 50.0589C53.4253 50.0589 54.1591 49.7561 54.7011 49.2169C55.1954 48.565 55.463 47.7697 55.463 46.9519C55.463 46.1342 55.1954 45.3389 54.7011 44.687C54.1557 44.1458 53.4182 43.842 52.6494 43.842C51.8806 43.842 51.1431 44.1458 50.5978 44.687L50.6197 44.6815Z" fill="white"/>
<path d="M62.221 48.6049V52.3998H59.6113V41.5833H63.8569C65.1335 41.5833 66.1137 41.902 66.7976 42.5395C67.1381 42.8736 67.4041 43.2759 67.5781 43.7199C67.752 44.1639 67.8301 44.6397 67.807 45.1159C67.8185 45.7445 67.6627 46.3649 67.3556 46.9137C67.0431 47.4517 66.5762 47.8838 66.0152 48.1541C65.3415 48.4724 64.6019 48.6268 63.8569 48.6049H62.221ZM65.1316 45.1159C65.1316 44.1688 64.6055 43.6952 63.5532 43.6952H62.221V46.5093H63.5532C64.6073 46.5093 65.1335 46.0448 65.1316 45.1159Z" fill="white"/>
<path d="M29.7705 62.4019C30.0151 62.706 30.1457 63.0857 30.1398 63.4757C30.1539 63.7384 30.1075 64.0009 30.0041 64.2429C29.9007 64.4849 29.7431 64.7001 29.5435 64.8718C29.0521 65.2361 28.4472 65.4142 27.8365 65.3745H24.5977V58.4185H27.7599C28.344 58.3825 28.9229 58.5463 29.4013 58.8829C29.5959 59.0406 29.7503 59.2422 29.8516 59.4712C29.9529 59.7002 29.9983 59.9499 29.9839 60.1998C29.998 60.5772 29.8789 60.9476 29.6475 61.2462C29.4277 61.524 29.1184 61.7171 28.7721 61.7927C29.1649 61.8758 29.5172 62.0908 29.7705 62.4019ZM26.28 61.2626H27.3742C27.9596 61.2626 28.2523 61.014 28.2523 60.514C28.2523 60.014 27.9514 59.7681 27.3551 59.7681H26.2609L26.28 61.2626ZM28.4165 63.238C28.4219 63.1283 28.4026 63.0188 28.36 62.9176C28.3174 62.8164 28.2526 62.7261 28.1703 62.6533C27.9704 62.5021 27.7229 62.4274 27.4727 62.4429H26.28V64.0057H27.4809C28.1119 64.0057 28.4274 63.7498 28.4274 63.238H28.4165Z" fill="white"/>
<path d="M32.7124 58.0962V65.3746H31.0273V58.0962H32.7124Z" fill="white"/>
<path d="M37.9052 60.1563C38.3306 60.3781 38.6829 60.7177 38.9201 61.1344C39.1626 61.5953 39.2893 62.1082 39.2893 62.6288C39.2893 63.1495 39.1626 63.6624 38.9201 64.1233C38.6831 64.5408 38.3308 64.8813 37.9052 65.1042C37.4492 65.3271 36.9481 65.443 36.4403 65.443C35.9326 65.443 35.4315 65.3271 34.9755 65.1042C34.5473 64.883 34.1927 64.5422 33.9551 64.1233C33.7126 63.6624 33.5859 63.1495 33.5859 62.6288C33.5859 62.1082 33.7126 61.5953 33.9551 61.1344C34.1929 60.7163 34.5475 60.3764 34.9755 60.1563C35.4315 59.9333 35.9326 59.8174 36.4403 59.8174C36.9481 59.8174 37.4492 59.9333 37.9052 60.1563ZM35.6293 61.6207C35.3935 61.9017 35.2758 62.263 35.301 62.6288C35.2752 62.9931 35.393 63.3529 35.6293 63.6315C35.7343 63.7431 35.8616 63.8315 36.003 63.8908C36.1443 63.9501 36.2966 63.979 36.4499 63.9758C36.6035 63.9812 36.7564 63.9532 36.8981 63.8937C37.0398 63.8343 37.1669 63.7448 37.2706 63.6315C37.5059 63.3525 37.6227 62.9927 37.5961 62.6288C37.6224 62.2634 37.5057 61.902 37.2706 61.6207C37.1677 61.5061 37.0408 61.4154 36.8991 61.355C36.7573 61.2946 36.604 61.2659 36.4499 61.271C36.2962 61.2684 36.1437 61.2982 36.0023 61.3585C35.8609 61.4187 35.7338 61.5081 35.6293 61.6207Z" fill="white"/>
<path d="M44.4301 60.4026C44.9179 60.8099 45.24 61.3812 45.3355 62.0091H43.5519C43.5105 61.7946 43.3954 61.6014 43.2264 61.4627C43.0495 61.3272 42.8309 61.2577 42.6082 61.266C42.4676 61.2632 42.3282 61.2934 42.2014 61.3541C42.0745 61.4148 41.9637 61.5044 41.8778 61.6157C41.6917 61.9226 41.5933 62.2746 41.5933 62.6334C41.5933 62.9922 41.6917 63.3442 41.8778 63.6511C41.964 63.762 42.0749 63.8514 42.2017 63.9121C42.3284 63.9728 42.4676 64.0032 42.6082 64.0008C42.8309 64.0091 43.0495 63.9396 43.2264 63.8041C43.395 63.6651 43.5101 63.472 43.5519 63.2577H45.3355C45.2406 63.8865 44.9185 64.459 44.4301 64.8669C43.9232 65.2658 43.2914 65.4729 42.6465 65.4516C42.1478 65.4602 41.655 65.3437 41.2131 65.1128C40.7993 64.8864 40.4593 64.5459 40.2337 64.132C40.0016 63.665 39.8809 63.1507 39.8809 62.6293C39.8809 62.1079 40.0016 61.5936 40.2337 61.1266C40.4579 60.7128 40.7996 60.3744 41.2158 60.154C41.6582 59.9219 42.1523 59.8053 42.652 59.8152C43.2954 59.7959 43.925 60.0039 44.4301 60.4026Z" fill="white"/>
<path d="M49.5389 65.3746L47.8976 63.0414V65.3746H46.207V58.0962H47.8921V62.0878L49.5334 59.8857H51.514L49.2982 62.6179L51.5632 65.35L49.5389 65.3746Z" fill="white"/>
<path d="M56.4457 60.4026C56.9335 60.8099 57.2556 61.3812 57.3511 62.0091H55.5676C55.526 61.7953 55.412 61.6024 55.2448 61.4627C55.0667 61.3274 54.8473 61.2579 54.6238 61.266C54.4832 61.2632 54.3438 61.2934 54.217 61.3541C54.0902 61.4148 53.9793 61.5044 53.8934 61.6157C53.7073 61.9226 53.6089 62.2746 53.6089 62.6334C53.6089 62.9922 53.7073 63.3442 53.8934 63.6511C53.9796 63.762 54.0905 63.8514 54.2173 63.9121C54.344 63.9728 54.4832 64.0032 54.6238 64.0008C54.8473 64.0089 55.0667 63.9393 55.2448 63.8041C55.4117 63.6641 55.5256 63.4713 55.5676 63.2577H57.3511C57.2562 63.8865 56.9341 64.459 56.4457 64.8669C55.9388 65.2658 55.3071 65.4729 54.6621 65.4516C54.1634 65.4602 53.6706 65.3437 53.2287 65.1128C52.8149 64.8864 52.4749 64.5459 52.2494 64.132C52.0173 63.665 51.8965 63.1507 51.8965 62.6293C51.8965 62.1079 52.0173 61.5936 52.2494 61.1266C52.4735 60.7128 52.8152 60.3744 53.2314 60.154C53.6739 59.9219 54.1679 59.8053 54.6676 59.8152C55.311 59.7959 55.9406 60.0039 56.4457 60.4026Z" fill="white"/>
<path d="M63.2158 60.4568C63.6064 60.9456 63.8013 61.5619 63.7629 62.1862V65.3746H62.0751V62.3829C62.0939 62.0693 61.9899 61.7607 61.7851 61.5223C61.6856 61.4194 61.5654 61.3387 61.4325 61.2854C61.2995 61.2322 61.1568 61.2077 61.0137 61.2136C60.8614 61.2045 60.709 61.2289 60.5672 61.285C60.4254 61.3412 60.2977 61.4278 60.193 61.5387C59.9771 61.7962 59.8693 62.1271 59.8921 62.4621V65.3746H58.207V58.0962H59.8921V60.8884C60.0445 60.5661 60.2892 60.2961 60.5952 60.1125C60.9274 59.9215 61.3063 59.8269 61.6894 59.8393C61.9738 59.8223 62.2584 59.8689 62.5224 59.9758C62.7865 60.0826 63.0234 60.2469 63.2158 60.4568Z" fill="white"/>
<path d="M68.0531 60.1074C68.3499 60.2924 68.5835 60.563 68.7233 60.8833V59.8915H70.3975V65.3804H68.7233V64.3859C68.5843 64.7067 68.3504 64.9774 68.0531 65.1618C67.7227 65.3572 67.3425 65.4521 66.9589 65.435C66.529 65.4408 66.1065 65.3232 65.7416 65.0963C65.3728 64.8556 65.0797 64.5155 64.8963 64.1154C64.689 63.6415 64.582 63.1299 64.582 62.6127C64.582 62.0956 64.689 61.584 64.8963 61.1101C65.0807 60.7128 65.3737 60.3757 65.7416 60.1374C66.106 59.9093 66.5289 59.7916 66.9589 59.7986C67.3461 59.7922 67.7266 59.8996 68.0531 60.1074ZM66.6388 61.651C66.4258 61.9348 66.3106 62.2799 66.3106 62.6346C66.3106 62.9893 66.4258 63.3344 66.6388 63.6182C66.7534 63.7327 66.8895 63.8235 67.0392 63.8855C67.1889 63.9474 67.3494 63.9793 67.5115 63.9793C67.6736 63.9793 67.834 63.9474 67.9838 63.8855C68.1335 63.8235 68.2695 63.7327 68.3841 63.6182C68.6038 63.3404 68.7233 62.9968 68.7233 62.6428C68.7233 62.2888 68.6038 61.9452 68.3841 61.6674C68.1517 61.4382 67.8382 61.3096 67.5115 61.3096C67.1848 61.3096 66.8713 61.4382 66.6388 61.6674V61.651Z" fill="white"/>
<path d="M71.6802 57.7054C71.8882 57.5426 72.1449 57.4541 72.4092 57.4541C72.6735 57.4541 72.9302 57.5426 73.1382 57.7054C73.2276 57.7852 73.2984 57.8835 73.3457 57.9935C73.3929 58.1034 73.4155 58.2224 73.4118 58.342C73.4135 58.4594 73.39 58.5757 73.3428 58.6832C73.2956 58.7907 73.2258 58.8867 73.1382 58.965C72.9302 59.1278 72.6735 59.2163 72.4092 59.2163C72.1449 59.2163 71.8882 59.1278 71.6802 58.965C71.5926 58.8867 71.5229 58.7907 71.4757 58.6832C71.4285 58.5757 71.4049 58.4594 71.4066 58.342C71.4029 58.2224 71.4255 58.1034 71.4728 57.9935C71.52 57.8835 71.5908 57.7852 71.6802 57.7054ZM73.2449 59.8912V65.38H71.5626V59.8857L73.2449 59.8912Z" fill="white"/>
<path d="M79.3908 60.4567C79.7825 60.945 79.9777 61.5617 79.9379 62.1861V65.3745H78.2528V62.3828C78.2717 62.0693 78.1677 61.7606 77.9629 61.5222C77.8631 61.419 77.7424 61.338 77.609 61.2848C77.4755 61.2316 77.3323 61.2073 77.1887 61.2135C77.0365 61.205 76.8842 61.2296 76.7425 61.2858C76.6008 61.3419 76.473 61.4282 76.368 61.5386C76.1541 61.797 76.0474 62.1275 76.0698 62.4621V65.3745H74.3848V59.8857H76.0698V60.8884C76.2214 60.5654 76.4663 60.2952 76.7729 60.1124C77.105 59.9213 77.484 59.8267 77.8671 59.8392C78.1512 59.8213 78.4357 59.8675 78.6995 59.9744C78.9632 60.0813 79.1995 60.2461 79.3908 60.4567Z" fill="white"/>
<path d="M28.9187 69.978C29.5062 70.4543 29.9055 71.1232 30.0457 71.8659H28.2622C28.1429 71.5578 27.9319 71.2936 27.6576 71.1091C27.369 70.922 27.0304 70.8268 26.6865 70.8358C26.4594 70.829 26.2337 70.8748 26.0273 70.9696C25.8208 71.0644 25.6392 71.2056 25.4965 71.3823C25.2008 71.8058 25.0422 72.3098 25.0422 72.8262C25.0422 73.3426 25.2008 73.8466 25.4965 74.2701C25.6399 74.446 25.8217 74.5867 26.0279 74.6814C26.2342 74.7761 26.4595 74.8224 26.6865 74.8166C27.0304 74.8257 27.369 74.7304 27.6576 74.5434C27.9347 74.3535 28.146 74.0824 28.2622 73.7674H30.0457C29.9029 74.5083 29.504 75.1756 28.9187 75.6526C28.2927 76.1329 27.5191 76.3811 26.7302 76.3548C26.107 76.369 25.4915 76.2142 24.9494 75.9067C24.4394 75.6136 24.0267 75.1776 23.7622 74.6526C23.4868 74.0787 23.3438 73.4504 23.3438 72.8139C23.3438 72.1775 23.4868 71.5491 23.7622 70.9752C24.0267 70.4502 24.4394 70.0142 24.9494 69.7211C25.492 69.4148 26.1071 69.26 26.7302 69.2731C27.5195 69.2473 28.2932 69.4965 28.9187 69.978Z" fill="white"/>
<path d="M35.0244 71.0847C35.4497 71.3066 35.8021 71.6462 36.0393 72.0628C36.2818 72.5238 36.4084 73.0366 36.4084 73.5573C36.4084 74.078 36.2818 74.5909 36.0393 75.0518C35.8022 75.4693 35.4499 75.8098 35.0244 76.0326C34.5683 76.2556 34.0673 76.3715 33.5595 76.3715C33.0517 76.3715 32.5507 76.2556 32.0946 76.0326C31.6664 75.8115 31.3119 75.4707 31.0743 75.0518C30.8318 74.5909 30.7051 74.078 30.7051 73.5573C30.7051 73.0366 30.8318 72.5238 31.0743 72.0628C31.312 71.6447 31.6666 71.3049 32.0946 71.0847C32.5507 70.8618 33.0517 70.7458 33.5595 70.7458C34.0673 70.7458 34.5683 70.8618 35.0244 71.0847ZM32.7484 72.5492C32.5126 72.8302 32.3949 73.1915 32.4201 73.5573C32.3944 73.9215 32.5122 74.2814 32.7484 74.56C32.8534 74.6716 32.9807 74.76 33.1221 74.8193C33.2635 74.8786 33.4158 74.9075 33.5691 74.9043C33.7227 74.9096 33.8756 74.8817 34.0173 74.8222C34.159 74.7628 34.286 74.6733 34.3897 74.56C34.625 74.281 34.7418 73.9212 34.7153 73.5573C34.7415 73.1919 34.6248 72.8305 34.3897 72.5492C34.2868 72.4346 34.16 72.3439 34.0182 72.2835C33.8764 72.2231 33.7231 72.1944 33.5691 72.1994C33.4154 72.1969 33.2628 72.2267 33.1214 72.287C32.98 72.3472 32.8529 72.4366 32.7484 72.5492Z" fill="white"/>
<path d="M46.0002 71.3799C46.4112 71.8614 46.6191 72.4834 46.5801 73.1149V76.3033H44.906V73.3116C44.9167 73.1637 44.898 73.0151 44.8511 72.8745C44.8041 72.7338 44.7298 72.6038 44.6324 72.4919C44.5322 72.3935 44.4126 72.3169 44.2812 72.2671C44.1499 72.2172 44.0096 72.1952 43.8692 72.2023C43.7226 72.1949 43.5762 72.2186 43.4395 72.2718C43.3027 72.3251 43.1788 72.4066 43.0759 72.511C42.8699 72.7531 42.7659 73.0655 42.7859 73.3826V76.2951H41.1008V73.3116C41.1117 73.1637 41.0931 73.0151 41.0461 72.8744C40.9992 72.7337 40.9248 72.6037 40.8273 72.4919C40.7286 72.3929 40.6101 72.316 40.4795 72.2661C40.3489 72.2161 40.2092 72.1944 40.0695 72.2023C39.9228 72.1949 39.7761 72.2183 39.639 72.271C39.5019 72.3237 39.3774 72.4046 39.2735 72.5083C39.1692 72.6275 39.0894 72.7661 39.0387 72.9161C38.988 73.0661 38.9674 73.2246 38.9781 73.3826V76.2951H37.293V70.8144H38.9781V71.7488C39.1182 71.4424 39.3506 71.1874 39.6428 71.0193C39.9604 70.8341 40.3228 70.7396 40.6905 70.7461C41.0812 70.7391 41.4663 70.8393 41.8039 71.0357C42.1263 71.2323 42.3803 71.5232 42.5315 71.869C42.7157 71.5319 42.9855 71.2492 43.3139 71.0493C43.7368 70.8032 44.2286 70.7012 44.7147 70.7589C45.2008 70.8166 45.6549 71.0307 46.0084 71.369L46.0002 71.3799Z" fill="white"/>
<path d="M52.3465 71.0851C52.7152 71.3232 53.0091 71.6603 53.1945 72.0577C53.4 72.5321 53.5061 73.0435 53.5061 73.5604C53.5061 74.0773 53.4 74.5887 53.1945 75.0631C53.0101 75.4634 52.7161 75.8034 52.3465 76.0439C51.9824 76.2705 51.5609 76.3881 51.1319 76.3827C50.7484 76.3998 50.3681 76.3049 50.0377 76.1095C49.7401 75.9277 49.5082 75.6559 49.3757 75.3336V78.9427H47.6934V70.8146H49.3757V71.8064C49.5106 71.487 49.7421 71.2176 50.0377 71.0359C50.3681 70.8406 50.7484 70.7456 51.1319 70.7627C51.5594 70.7512 51.9812 70.8631 52.3465 71.0851ZM49.7177 72.5796C49.498 72.8574 49.3785 73.201 49.3785 73.5549C49.3785 73.9089 49.498 74.2525 49.7177 74.5303C49.8284 74.6502 49.9636 74.7449 50.1142 74.808C50.2647 74.8712 50.4271 74.9013 50.5903 74.8964C50.7524 74.9034 50.914 74.8753 51.0642 74.814C51.2143 74.7527 51.3494 74.6596 51.4602 74.5412C51.6733 74.2575 51.7885 73.9124 51.7885 73.5577C51.7885 73.203 51.6733 72.8579 51.4602 72.5741C51.2282 72.345 50.9152 72.2166 50.5889 72.2166C50.2627 72.2166 49.9496 72.345 49.7177 72.5741V72.5796Z" fill="white"/>
<path d="M57.5535 71.0359C57.8502 71.221 58.0839 71.4915 58.2237 71.8119V70.8201H59.8869V76.309H58.2127V75.3145C58.0737 75.6353 57.8399 75.906 57.5425 76.0904C57.2118 76.285 56.8318 76.3799 56.4483 76.3636C56.0185 76.3694 55.5959 76.2518 55.231 76.0248C54.8739 75.7828 54.5915 75.4459 54.4158 75.0522C54.2085 74.5783 54.1016 74.0667 54.1016 73.5495C54.1016 73.0323 54.2085 72.5208 54.4158 72.0468C54.5994 71.649 54.8926 71.3116 55.2611 71.0742C55.6255 70.8461 56.0484 70.7284 56.4784 70.7354C56.8582 70.7309 57.2313 70.8352 57.5535 71.0359ZM56.1392 72.5796C55.9261 72.8634 55.8109 73.2085 55.8109 73.5632C55.8109 73.9179 55.9261 74.263 56.1392 74.5467C56.2535 74.6612 56.3893 74.7519 56.5389 74.8139C56.6884 74.8758 56.8486 74.9077 57.0105 74.9077C57.1723 74.9077 57.3326 74.8758 57.4821 74.8139C57.6316 74.7519 57.7674 74.6612 57.8817 74.5467C58.1033 74.2698 58.2239 73.9258 58.2239 73.5714C58.2239 73.2169 58.1033 72.8729 57.8817 72.596C57.6498 72.3669 57.3367 72.2384 57.0105 72.2384C56.6843 72.2384 56.3712 72.3669 56.1392 72.596V72.5796Z" fill="white"/>
<path d="M66.0467 71.3852C66.4372 71.8741 66.6322 72.4904 66.5938 73.1147V76.3031H64.9196V73.3114C64.9374 72.9975 64.8325 72.6889 64.6269 72.4508C64.5274 72.3479 64.4072 72.2671 64.2743 72.2139C64.1413 72.1607 63.9986 72.1362 63.8555 72.142C63.7032 72.1329 63.5508 72.1573 63.409 72.2135C63.2672 72.2697 63.1395 72.3563 63.0348 72.4672C62.8189 72.7246 62.7111 73.0556 62.7339 73.3906V76.3031H61.0488V70.8142H62.7339V71.8169C62.8869 71.4918 63.1336 71.2197 63.4424 71.0355C63.7746 70.8445 64.1536 70.7499 64.5366 70.7623C64.8188 70.7485 65.1004 70.7972 65.3615 70.9049C65.6226 71.0126 65.8565 71.1766 66.0467 71.3852Z" fill="white"/>
<path d="M67.8325 68.6342C68.0406 68.4713 68.2973 68.3828 68.5616 68.3828C68.8259 68.3828 69.0826 68.4713 69.2906 68.6342C69.3799 68.7139 69.4507 68.8122 69.498 68.9222C69.5453 69.0321 69.5678 69.1511 69.5641 69.2708C69.5658 69.3881 69.5423 69.5044 69.4951 69.6119C69.4479 69.7194 69.3782 69.8155 69.2906 69.8937C69.0826 70.0565 68.8259 70.145 68.5616 70.145C68.2973 70.145 68.0406 70.0565 67.8325 69.8937C67.745 69.8155 67.6752 69.7194 67.628 69.6119C67.5808 69.5044 67.5573 69.3881 67.559 69.2708C67.5553 69.1511 67.5779 69.0321 67.6251 68.9222C67.6724 68.8122 67.7432 68.7139 67.8325 68.6342ZM69.4 70.8199V76.3087H67.7149V70.8144L69.4 70.8199Z" fill="white"/>
<path d="M75.7286 73.8636H71.9207C71.9079 74.1897 72.0205 74.5084 72.2353 74.7543C72.4331 74.9381 72.6957 75.0363 72.9657 75.0275C73.1871 75.0359 73.405 74.9695 73.5839 74.839C73.7447 74.7211 73.8598 74.5512 73.9094 74.3582H75.693C75.6228 74.7377 75.4603 75.0943 75.2198 75.3964C74.9717 75.7038 74.6551 75.9489 74.2952 76.1122C73.9029 76.2946 73.475 76.3879 73.0423 76.3854C72.5445 76.394 72.0525 76.2775 71.6116 76.0466C71.1961 75.8215 70.855 75.4807 70.6296 75.0658C70.3966 74.599 70.2754 74.0846 70.2754 73.5631C70.2754 73.0416 70.3966 72.5272 70.6296 72.0604C70.8527 71.6468 71.1934 71.3083 71.6089 71.0878C72.0557 70.8667 72.5477 70.7517 73.0464 70.7517C73.5451 70.7517 74.037 70.8667 74.4839 71.0878C74.8879 71.3021 75.2214 71.6285 75.4441 72.0276C75.6767 72.4537 75.7936 72.9331 75.7833 73.4183C75.7795 73.5682 75.7612 73.7173 75.7286 73.8636ZM73.7836 72.3446C73.5796 72.1619 73.3134 72.0642 73.0396 72.0714C72.7586 72.0608 72.4843 72.1586 72.2736 72.3446C72.1644 72.4514 72.0777 72.579 72.0186 72.7197C71.9594 72.8604 71.9289 73.0116 71.9289 73.1642H74.0736C74.0895 73.0146 74.0718 72.8634 74.0216 72.7216C73.9714 72.5797 73.8901 72.4509 73.7836 72.3446Z" fill="white"/>
<path d="M80.3255 71.2653C80.7402 71.6135 81.0175 72.0977 81.1078 72.6313H79.5322C79.4944 72.4248 79.3838 72.2387 79.2203 72.1068C79.0474 71.9742 78.8335 71.9066 78.6158 71.9155C78.4617 71.9044 78.3087 71.948 78.1835 72.0385C78.1339 72.0811 78.0948 72.1346 78.0692 72.1947C78.0436 72.2549 78.0321 72.3202 78.0358 72.3854C78.0361 72.47 78.0625 72.5524 78.1115 72.6214C78.1604 72.6903 78.2296 72.7425 78.3094 72.7707C78.5834 72.8845 78.8685 72.9696 79.1601 73.0248C79.5109 73.1028 79.8562 73.2032 80.1942 73.3253C80.4661 73.4289 80.7071 73.6 80.8944 73.8225C81.1027 74.0839 81.2078 74.4125 81.1899 74.746C81.1945 75.0448 81.1045 75.3374 80.9327 75.582C80.7462 75.8389 80.4899 76.0371 80.1942 76.1531C79.8312 76.2996 79.4421 76.3703 79.0507 76.3607C78.4196 76.3925 77.795 76.22 77.2699 75.8689C77.0453 75.7016 76.8569 75.4907 76.7159 75.249C76.5749 75.0072 76.4842 74.7395 76.4492 74.4619H78.0741C78.0811 74.5694 78.1117 74.6741 78.1637 74.7685C78.2157 74.863 78.2878 74.9448 78.375 75.0083C78.5738 75.1403 78.8096 75.2054 79.048 75.1941C79.2042 75.2055 79.3591 75.1588 79.4829 75.0629C79.5315 75.0189 79.5699 74.9648 79.5954 74.9044C79.6209 74.844 79.633 74.7787 79.6306 74.7132C79.6338 74.6252 79.609 74.5385 79.5599 74.4654C79.5108 74.3923 79.4398 74.3366 79.3571 74.3061C79.0723 74.1887 78.7775 74.0972 78.4763 74.0329C78.1343 73.967 77.7979 73.8757 77.4696 73.7597C77.207 73.6607 76.9737 73.4972 76.7912 73.2843C76.5927 73.0273 76.4954 72.7065 76.5176 72.3827C76.5113 72.1538 76.5587 71.9266 76.6561 71.7193C76.7535 71.5119 76.8981 71.3302 77.0784 71.1888C77.5374 70.8578 78.0973 70.6965 78.6623 70.7325C79.2624 70.7073 79.8519 70.8961 80.3255 71.2653Z" fill="white"/>
<path d="M46.7823 86.1609C46.7823 85.7429 46.6017 85.5325 46.2352 85.5325C46.1481 85.5265 46.0609 85.5433 45.9823 85.5811C45.9036 85.619 45.8362 85.6766 45.7866 85.7483C45.6777 85.9524 45.624 86.1812 45.6306 86.4123H44.3504C44.3452 86.1374 44.3956 85.8644 44.4986 85.6095C44.6015 85.3546 44.7549 85.123 44.9495 84.9287C45.3331 84.5916 45.8312 84.4137 46.3419 84.4314C46.582 84.4132 46.8234 84.4432 47.0517 84.5197C47.2801 84.5962 47.4908 84.7176 47.6713 84.8768C47.8211 85.0281 47.9382 85.2085 48.0154 85.4068C48.0926 85.6051 48.1282 85.8171 48.12 86.0298C48.1034 86.5987 47.8897 87.1442 47.5154 87.5734C47.1086 88.0764 46.6192 88.5069 46.0683 88.8466H48.2048V89.9012H44.3477V88.9231C45.9707 87.7647 46.7823 86.8439 46.7823 86.1609Z" fill="white"/>
<path d="M48.7433 87.2015C48.7057 86.4984 48.8842 85.8006 49.2548 85.2016C49.5977 84.7062 50.1448 84.4594 50.8961 84.4612C51.6475 84.463 52.1946 84.7098 52.5375 85.2016C52.8766 85.8157 53.0544 86.5057 53.0544 87.207C53.0544 87.9083 52.8766 88.5982 52.5375 89.2124C52.1928 89.7078 51.6457 89.9555 50.8961 89.9555C50.1466 89.9555 49.5995 89.7078 49.2548 89.2124C48.8838 88.6095 48.7053 87.9081 48.7433 87.2015ZM51.7524 87.2015C51.7702 86.8222 51.7116 86.4431 51.58 86.0868C51.5217 85.9596 51.4248 85.854 51.3031 85.7849C51.1813 85.7157 51.0409 85.6866 50.9016 85.7016C50.7603 85.6871 50.618 85.717 50.4945 85.787C50.371 85.857 50.2723 85.9637 50.2123 86.0923C50.0801 86.4466 50.0206 86.8238 50.0372 87.2015C50.0207 87.5828 50.0802 87.9636 50.2123 88.3217C50.2716 88.451 50.37 88.5585 50.4936 88.6291C50.6173 88.6997 50.76 88.7298 50.9016 88.7151C51.0419 88.7299 51.1832 88.6997 51.3051 88.629C51.4271 88.5583 51.5234 88.4507 51.58 88.3217C51.7082 87.9628 51.764 87.5821 51.7442 87.2015H51.7524Z" fill="white"/>
<path d="M56.0561 86.1609C56.0561 85.7429 55.8756 85.5325 55.509 85.5325C55.4219 85.5265 55.3347 85.5433 55.2561 85.5811C55.1774 85.619 55.11 85.6766 55.0604 85.7483C54.9515 85.9524 54.8978 86.1812 54.9044 86.4123H53.6242C53.6191 86.1374 53.6694 85.8644 53.7724 85.6095C53.8753 85.3546 54.0287 85.123 54.2233 84.9287C54.6069 84.5916 55.105 84.4137 55.6157 84.4314C55.8558 84.4132 56.0972 84.4432 56.3256 84.5197C56.5539 84.5962 56.7646 84.7176 56.9452 84.8768C57.095 85.0281 57.2121 85.2085 57.2892 85.4068C57.3664 85.6051 57.402 85.8171 57.3938 86.0298C57.3772 86.5987 57.1636 87.1442 56.7892 87.5734C56.3824 88.0764 55.8931 88.5069 55.3421 88.8466H57.4786V89.9012H53.6133V88.9231C55.2418 87.7647 56.0561 86.8439 56.0561 86.1609Z" fill="white"/>
<path d="M57.7734 85.7889V84.5649H59.9619V89.9746H58.5941V85.7889H57.7734Z" fill="white"/>
<path d="M22.516 28.7607V29.7252H21.9279C21.517 29.7527 21.1108 29.6249 20.7899 29.3673C20.5163 29.1269 20.396 28.728 20.396 28.1733V26.2608H19.7832V25.3155H20.396V24.2227H21.5203V25.3155H22.5078V26.2608H21.5203V28.1733C21.5039 28.3328 21.55 28.4924 21.6488 28.6187C21.7083 28.6675 21.7769 28.704 21.8506 28.726C21.9244 28.748 22.0018 28.7552 22.0783 28.7471L22.516 28.7607Z" fill="#930601"/>
<path d="M27.4329 27.7339H24.1967C24.1853 28.0537 24.2991 28.3654 24.5141 28.6028C24.7129 28.7867 24.9763 28.8849 25.2472 28.876C25.4794 28.8855 25.7082 28.8183 25.8982 28.6847C26.0683 28.559 26.1861 28.3752 26.2292 28.1683H27.4165C27.3589 28.4744 27.2275 28.7618 27.0334 29.0056C26.8394 29.2494 26.5887 29.4422 26.3031 29.5672C25.9897 29.7092 25.6487 29.7801 25.3046 29.7748C24.9047 29.7823 24.5094 29.6883 24.1557 29.5016C23.8253 29.3224 23.5544 29.0508 23.3761 28.7202C23.1916 28.3453 23.0957 27.9331 23.0957 27.5154C23.0957 27.0976 23.1916 26.6854 23.3761 26.3105C23.553 25.9782 23.8242 25.7054 24.1557 25.5264C24.5098 25.3408 24.9048 25.2468 25.3046 25.2531C25.7029 25.2452 26.0965 25.3393 26.4481 25.5264C26.7661 25.6985 27.0289 25.9571 27.2058 26.2722C27.3897 26.601 27.484 26.9722 27.4794 27.3487C27.4748 27.4782 27.4593 27.6071 27.4329 27.7339ZM26.0651 26.4225C25.8589 26.2381 25.5895 26.1403 25.3128 26.1493C25.0319 26.1387 24.7576 26.2365 24.5469 26.4225C24.4379 26.5293 24.3514 26.6569 24.2927 26.7977C24.2339 26.9385 24.2041 27.0896 24.2049 27.2421H26.3496C26.3662 27.0923 26.3485 26.9407 26.2978 26.7987C26.2471 26.6567 26.1647 26.528 26.0569 26.4225H26.0651Z" fill="#930601"/>
<path d="M31.6763 25.7204C32.0614 26.037 32.3157 26.4847 32.3903 26.9772H31.2031C31.162 26.7619 31.0457 26.5683 30.8748 26.4308C30.6892 26.2914 30.4613 26.22 30.2292 26.2286C30.0885 26.2259 29.9489 26.2541 29.8204 26.3112C29.6918 26.3683 29.5773 26.453 29.4852 26.5592C29.2907 26.8444 29.1868 27.1814 29.1868 27.5264C29.1868 27.8714 29.2907 28.2084 29.4852 28.4936C29.5778 28.5992 29.6923 28.6834 29.8208 28.7405C29.9493 28.7976 30.0886 28.8261 30.2292 28.8241C30.4618 28.8331 30.6901 28.7606 30.8748 28.6192C31.0457 28.4818 31.162 28.2881 31.2031 28.0728H32.3903C32.3157 28.5654 32.0614 29.013 31.6763 29.3296C31.2712 29.6456 30.7676 29.809 30.2538 29.7913C29.8547 29.7992 29.4602 29.7052 29.1076 29.5181C28.7756 29.3402 28.5034 29.0684 28.3253 28.7367C28.1408 28.3618 28.0449 27.9496 28.0449 27.5318C28.0449 27.1141 28.1408 26.7019 28.3253 26.327C28.5022 25.9937 28.7746 25.7207 29.1076 25.5428C29.4606 25.3569 29.8548 25.2629 30.2538 25.2696C30.7662 25.2488 31.2697 25.4083 31.6763 25.7204Z" fill="#930601"/>
<path d="M37.0333 25.7534C37.3583 26.1478 37.5215 26.6506 37.4901 27.1605V29.7259H36.374V27.2889C36.3935 26.9905 36.2953 26.6963 36.1004 26.4692C36.0048 26.3706 35.8892 26.2935 35.7614 26.2431C35.6335 26.1927 35.4964 26.1701 35.3591 26.1769C35.2165 26.1706 35.0742 26.1952 34.942 26.2489C34.8098 26.3027 34.6908 26.3844 34.5932 26.4884C34.3919 26.7397 34.294 27.0582 34.3196 27.379V29.7205H33.1953V23.8354H34.3196V26.1988C34.4298 25.9093 34.6328 25.6644 34.8968 25.5021C35.1767 25.3319 35.4993 25.2448 35.8269 25.2507C36.0525 25.2419 36.2772 25.2824 36.4856 25.3692C36.6939 25.456 36.8808 25.5871 37.0333 25.7534Z" fill="#930601"/>
<path d="M40.2519 25.4933C40.5266 25.3306 40.8408 25.2465 41.1601 25.2501V26.4523H40.8346C40.0121 26.4523 39.6009 26.8348 39.6009 27.5998V29.7254H38.4766V25.3157H39.6009V26.1572C39.7569 25.8835 39.9812 25.6548 40.2519 25.4933Z" fill="#930601"/>
<path d="M45.8981 27.7339H42.6538C42.6419 28.0543 42.7568 28.3665 42.9738 28.6027C43.1724 28.787 43.436 28.8852 43.7069 28.8759C43.9382 28.8851 44.1661 28.8179 44.3553 28.6847C44.5263 28.5599 44.6444 28.3757 44.6863 28.1683H45.8735C45.8157 28.4675 45.6872 28.7485 45.4987 28.988C45.3035 29.2352 45.051 29.4312 44.7629 29.559C44.4221 29.7068 44.0528 29.7773 43.6815 29.7655C43.3102 29.7537 42.9461 29.6598 42.6155 29.4907C42.2834 29.3128 42.0112 29.041 41.8331 28.7093C41.6486 28.3344 41.5527 27.9222 41.5527 27.5044C41.5527 27.0867 41.6486 26.6745 41.8331 26.2995C42.01 25.9663 42.2824 25.6932 42.6155 25.5154C42.9684 25.3295 43.3627 25.2355 43.7616 25.2422C44.1599 25.2339 44.5537 25.328 44.9051 25.5154C45.2238 25.6867 45.4867 25.9455 45.6628 26.2613C45.8466 26.5901 45.9409 26.9612 45.9364 27.3378C45.9365 27.4707 45.9237 27.6034 45.8981 27.7339ZM44.5303 26.4225C44.3243 26.2379 44.0547 26.14 43.7781 26.1493C43.498 26.1394 43.2248 26.2372 43.0149 26.4225C42.9055 26.5292 42.8186 26.6567 42.7594 26.7974C42.7002 26.9382 42.6698 27.0894 42.6702 27.2421H44.8148C44.8321 27.0923 44.8146 26.9404 44.7639 26.7983C44.7131 26.6562 44.6304 26.5277 44.5221 26.4225H44.5303Z" fill="#930601"/>
<path d="M48.6533 28.6028L49.7694 25.3242H50.9649L49.3235 29.7339H47.9558L46.3145 25.3242H47.5181L48.6533 28.6028Z" fill="#930601"/>
<path d="M51.6522 23.6083C51.7909 23.4889 51.97 23.4273 52.1528 23.4361C52.3364 23.4277 52.5163 23.4892 52.6562 23.6083C52.7165 23.664 52.7646 23.7316 52.7976 23.8069C52.8305 23.8821 52.8475 23.9633 52.8475 24.0454C52.8475 24.1275 52.8305 24.2087 52.7976 24.2839C52.7646 24.3592 52.7165 24.4268 52.6562 24.4825C52.5163 24.6016 52.3364 24.6631 52.1528 24.6547C51.97 24.6635 51.7909 24.6019 51.6522 24.4825C51.5919 24.4268 51.5438 24.3592 51.5108 24.2839C51.4779 24.2087 51.4609 24.1275 51.4609 24.0454C51.4609 23.9633 51.4779 23.8821 51.5108 23.8069C51.5438 23.7316 51.5919 23.664 51.6522 23.6083ZM52.7109 25.3158V29.7255H51.5866V25.3158H52.7109Z" fill="#930601"/>
<path d="M57.8422 27.734H54.6089C54.6018 27.8926 54.6263 28.0509 54.6807 28.2C54.7352 28.3491 54.8186 28.486 54.9262 28.6028C55.1248 28.7871 55.3884 28.8853 55.6593 28.8761C55.8906 28.8852 56.1184 28.818 56.3076 28.6848C56.4794 28.5608 56.5977 28.3762 56.6386 28.1684H57.8286C57.771 28.4745 57.6396 28.7619 57.4455 29.0057C57.2515 29.2495 57.0008 29.4423 56.7152 29.5673C56.3744 29.7151 56.0051 29.7856 55.6338 29.7738C55.2625 29.762 54.8985 29.6681 54.5678 29.499C54.2367 29.3207 53.9656 29.0489 53.7882 28.7176C53.6037 28.3427 53.5078 27.9305 53.5078 27.5127C53.5078 27.095 53.6037 26.6828 53.7882 26.3078C53.9641 25.9747 54.2355 25.7017 54.5678 25.5237C54.9208 25.3378 55.315 25.2438 55.714 25.2505C56.1132 25.2423 56.5078 25.3363 56.8602 25.5237C57.1772 25.6963 57.439 25.9548 57.6152 26.2696C57.7989 26.5984 57.8933 26.9695 57.8887 27.3461C57.8856 27.4766 57.87 27.6065 57.8422 27.734ZM56.4745 26.4226C56.2666 26.2392 55.9967 26.1416 55.7195 26.1494C55.4394 26.1395 55.1662 26.2373 54.9563 26.4226C54.8467 26.529 54.7599 26.6565 54.7012 26.7974C54.6424 26.9383 54.6128 27.0896 54.6143 27.2422H56.7562C56.7741 27.0928 56.7576 26.9412 56.7078 26.7991C56.658 26.6571 56.5763 26.5283 56.469 26.4226H56.4745Z" fill="#930601"/>
<path d="M65.0025 25.3159L63.8153 29.7256H62.5706L61.6214 26.5181L60.6502 29.7256H59.4056L58.2266 25.3159H59.3399L60.0566 28.7229L61.0387 25.3159H62.2259L63.2134 28.7229L63.9384 25.3159H65.0025Z" fill="#930601"/>
<path d="M69.6704 27.7341H66.4342C66.4228 28.0539 66.5366 28.3656 66.7516 28.6029C66.9504 28.7869 67.2138 28.8851 67.4847 28.8761C67.7169 28.8856 67.9457 28.8184 68.1357 28.6849C68.3058 28.5592 68.4236 28.3754 68.4667 28.1685H69.654C69.5962 28.4676 69.4677 28.7486 69.2792 28.9881C69.083 29.2354 68.8295 29.4314 68.5406 29.5591C68.2291 29.7054 67.8891 29.781 67.5449 29.7805C67.1449 29.788 66.7496 29.6939 66.3959 29.5072C66.0655 29.328 65.7946 29.0565 65.6163 28.7258C65.4319 28.3509 65.3359 27.9387 65.3359 27.521C65.3359 27.1032 65.4319 26.691 65.6163 26.3161C65.7933 25.9838 66.0645 25.711 66.3959 25.532C66.75 25.3464 67.145 25.2524 67.5449 25.2588C67.9431 25.2509 68.3368 25.3449 68.6883 25.532C69.0064 25.7041 69.2691 25.9627 69.4461 26.2778C69.63 26.6066 69.7243 26.9778 69.7196 27.3543C69.7139 27.4821 69.6974 27.6091 69.6704 27.7341ZM68.3026 26.4227C68.0964 26.2383 67.827 26.1404 67.5503 26.1494C67.2694 26.1388 66.9951 26.2367 66.7844 26.4227C66.6759 26.5298 66.5897 26.6575 66.531 26.7982C66.4723 26.9389 66.4422 27.0899 66.4424 27.2423H68.5871C68.6037 27.0925 68.586 26.9408 68.5353 26.7988C68.4846 26.6568 68.4022 26.5282 68.2944 26.4227H68.3026Z" fill="#930601"/>
<path d="M72.2832 25.4933C72.5579 25.3306 72.872 25.2465 73.1914 25.2501V26.4523H72.8658C72.0434 26.4523 71.6321 26.8348 71.6321 27.5998V29.7254H70.5078V25.3157H71.6321V26.1572C71.7881 25.8835 72.0124 25.6548 72.2832 25.4933Z" fill="#930601"/>
<path d="M74.747 28.5532V29.7253H73.5352V28.5532H74.747Z" fill="#930601"/>
<path d="M78.9009 25.7204C79.286 26.037 79.5403 26.4847 79.6149 26.9772H78.4277C78.3866 26.7619 78.2703 26.5683 78.0994 26.4308C77.9138 26.2914 77.6859 26.22 77.4538 26.2286C77.3131 26.2259 77.1736 26.2541 77.045 26.3112C76.9164 26.3683 76.802 26.453 76.7098 26.5592C76.5154 26.8444 76.4114 27.1814 76.4114 27.5264C76.4114 27.8714 76.5154 28.2084 76.7098 28.4936C76.8024 28.5992 76.917 28.6834 77.0454 28.7405C77.1739 28.7976 77.3132 28.8261 77.4538 28.8241C77.6864 28.8331 77.9147 28.7606 78.0994 28.6192C78.2703 28.4818 78.3866 28.2881 78.4277 28.0728H79.6149C79.5403 28.5654 79.286 29.013 78.9009 29.3296C78.4958 29.6456 77.9922 29.809 77.4785 29.7913C77.0785 29.7988 76.6832 29.7048 76.3295 29.5181C75.9991 29.3389 75.7282 29.0673 75.5499 28.7367C75.3655 28.3618 75.2695 27.9496 75.2695 27.5318C75.2695 27.1141 75.3655 26.7019 75.5499 26.327C75.7269 25.9947 75.9981 25.7219 76.3295 25.5428C76.6836 25.3572 77.0786 25.2633 77.4785 25.2696C77.9909 25.2488 78.4943 25.4083 78.9009 25.7204Z" fill="#930601"/>
<path d="M83.6148 25.5294C83.9586 25.706 84.2437 25.9783 84.4355 26.3135C84.6279 26.6861 84.7283 27.0992 84.7283 27.5184C84.7283 27.9376 84.6279 28.3507 84.4355 28.7233C84.242 29.0565 83.9573 29.3276 83.6148 29.5047C83.2552 29.6862 82.8579 29.7808 82.455 29.7808C82.052 29.7808 81.6547 29.6862 81.2951 29.5047C80.9526 29.3276 80.6679 29.0565 80.4744 28.7233C80.282 28.3507 80.1816 27.9376 80.1816 27.5184C80.1816 27.0992 80.282 26.6861 80.4744 26.3135C80.6662 25.9783 80.9513 25.706 81.2951 25.5294C81.6558 25.3514 82.0527 25.2588 82.455 25.2588C82.8573 25.2588 83.2542 25.3514 83.6148 25.5294ZM81.6589 26.5594C81.4482 26.8338 81.334 27.1699 81.334 27.5157C81.334 27.8615 81.4482 28.1976 81.6589 28.4719C81.7632 28.5768 81.8872 28.6601 82.0238 28.7169C82.1604 28.7738 82.307 28.803 82.455 28.803C82.603 28.803 82.7495 28.7738 82.8861 28.7169C83.0227 28.6601 83.1467 28.5768 83.251 28.4719C83.4617 28.1976 83.576 27.8615 83.576 27.5157C83.576 27.1699 83.4617 26.8338 83.251 26.5594C83.0394 26.3496 82.7532 26.2318 82.455 26.2318C82.1567 26.2318 81.8706 26.3496 81.6589 26.5594Z" fill="#930601"/>
<defs>
<radialGradient id="paint0_radial" cx="0" cy="0" r="1" gradientUnits="userSpaceOnUse" gradientTransform="translate(52.2237 115.714) scale(32.2328 32.1928)">
<stop stop-color="#C60600"/>
<stop offset="1" stop-color="#930600"/>
</radialGradient>
<radialGradient id="paint1_radial" cx="0" cy="0" r="1" gradientUnits="userSpaceOnUse" gradientTransform="translate(16825.2 9252.74) scale(10379 2766.65)">
<stop stop-color="#C60600"/>
<stop offset="1" stop-color="#930600"/>
</radialGradient>
<radialGradient id="paint2_radial" cx="0" cy="0" r="1" gradientUnits="userSpaceOnUse" gradientTransform="translate(16825.2 8457) scale(10379 2766.65)">
<stop stop-color="#C60600"/>
<stop offset="1" stop-color="#930600"/>
</radialGradient>
</defs>
</svg>
