<svg width="381" height="577" fill="none" xmlns="http://www.w3.org/2000/svg"><path d="M284.99 438.134l5.264 2.962-.729 1.295-1.912-1.076-3.043 5.409-1.435-.808 3.043-5.408-1.917-1.079.729-1.295zm2.544 10.257l3.771-6.704 1.44.81-3.771 6.704-1.44-.81zm8.878.016l3.963-1.617 1.271.715-3.771 6.704-1.435-.808 2.514-4.469-3.699 1.532-.617-3.935-2.504 4.45-1.44-.81 3.772-6.704 1.295.729.651 4.213zm5.349 6.29l3.59 2.019-.725 1.291-5.031-2.83 3.772-6.704 4.932 2.775-.729 1.295-3.492-1.965-.755 1.342 2.726 1.533-.726 1.29-2.726-1.533-.836 1.487z" fill="#fff"/><path d="M284.99 438.134l.598-1.064-1.064-.598-.598 1.064 1.064.598zm5.264 2.962l1.063.598.599-1.064-1.064-.598-.598 1.064zm-.729 1.295l-.598 1.063 1.063.599.599-1.064-1.064-.598zm-1.912-1.076l.598-1.064-1.063-.598-.599 1.064 1.064.598zm-3.043 5.409l-.598 1.064 1.063.598.599-1.064-1.064-.598zm-1.435-.808l-1.064-.598-.598 1.064 1.063.598.599-1.064zm3.043-5.408l1.064.598.598-1.064-1.064-.598-.598 1.064zm-1.917-1.079l-1.064-.598-.598 1.064 1.064.598.598-1.064zm.13-.231l5.264 2.962 1.197-2.128-5.264-2.962-1.197 2.128zm4.799 1.299l-.729 1.295 2.128 1.197.728-1.295-2.127-1.197zm.934.83l-1.913-1.076-1.196 2.128 1.912 1.075 1.197-2.127zm-3.575-.61l-3.043 5.408 2.128 1.197 3.043-5.409-2.128-1.196zm-1.38 4.943l-1.436-.807-1.197 2.127 1.436.808 1.197-2.128zm-.97.855l3.043-5.409-2.128-1.197-3.043 5.409 2.128 1.197zm2.577-7.071l-1.916-1.079-1.197 2.128 1.916 1.078 1.197-2.127zm-1.451.584l.728-1.295-2.127-1.197-.729 1.295 2.128 1.197zm2.209 8.363l-1.064-.598-.598 1.064 1.064.598.598-1.064zm3.771-6.704l.599-1.063-1.064-.599-.598 1.064 1.063.598zm1.44.81l1.064.599.599-1.064-1.064-.598-.599 1.063zm-3.771 6.704l-.599 1.064 1.064.599.599-1.064-1.064-.599zm-.376-.211l3.771-6.704-2.127-1.197-3.772 6.704 2.128 1.197zm2.109-6.239l1.44.81 1.197-2.127-1.44-.81-1.197 2.127zm.975-.852l-3.772 6.704 2.128 1.197 3.771-6.704-2.127-1.197zm-2.11 6.239l-1.44-.811-1.196 2.128 1.439.81 1.197-2.127zm6.84.269l-1.206.187.236 1.527 1.432-.584-.462-1.13zm3.963-1.617l.598-1.064-.514-.289-.545.223.461 1.13zm1.271.715l1.064.599.599-1.064-1.064-.599-.599 1.064zm-3.771 6.704l-.599 1.064 1.064.598.599-1.064-1.064-.598zm-1.435-.808l-1.064-.598-.599 1.064 1.064.598.599-1.064zm2.514-4.469l1.064.599 1.731-3.077-3.262 1.351.467 1.127zm-3.699 1.532l-1.206.189.24 1.532 1.433-.593-.467-1.128zm-.617-3.935l1.206-.189-.545-3.475-1.725 3.065 1.064.599zm-2.504 4.45l-.598 1.064 1.063.599.599-1.064-1.064-.599zm-1.44-.81l-1.064-.598-.598 1.064 1.064.598.598-1.064zm3.772-6.704l.598-1.063-1.064-.599-.598 1.064 1.064.598zm1.295.729l1.206-.187-.091-.586-.517-.291-.598 1.064zm1.113 5.343l3.962-1.617-.922-2.26-3.963 1.617.923 2.26zm2.902-1.684l1.272.716 1.197-2.128-1.272-.715-1.197 2.127zm.807-.946l-3.772 6.703 2.128 1.197 3.771-6.703-2.127-1.197zm-2.11 6.238l-1.435-.807-1.197 2.127 1.435.808 1.197-2.128zm-.969.855l2.514-4.469-2.128-1.197-2.514 4.469 2.128 1.197zm.983-6.195l-3.699 1.531.934 2.256 3.699-1.532-.934-2.255zm-2.026 2.47l-.617-3.935-2.412.378.617 3.935 2.412-.378zm-2.887-4.345l-2.504 4.451 2.128 1.197 2.504-4.451-2.128-1.197zm-.841 3.985l-1.44-.81-1.197 2.128 1.44.81 1.197-2.128zm-.975.853l3.771-6.704-2.127-1.197-3.772 6.704 2.128 1.197zm2.109-6.239l1.295.729 1.197-2.128-1.295-.728-1.197 2.127zm.687-.149l.652 4.214 2.413-.374-.652-4.213-2.413.373zm7.207 10.317l-1.064-.599-.598 1.064 1.064.598.598-1.063zm3.59 2.019l1.064.599.599-1.064-1.064-.598-.599 1.063zm-.725 1.291l-.599 1.063 1.064.599.598-1.064-1.063-.598zm-5.031-2.83l-1.063-.599-.599 1.064 1.064.599.598-1.064zm3.772-6.704l.598-1.064-1.064-.598-.598 1.063 1.064.599zm4.932 2.775l1.064.598.598-1.064-1.064-.598-.598 1.064zm-.729 1.295l-.598 1.063 1.064.599.598-1.064-1.064-.598zm-3.492-1.965l.599-1.064-1.064-.598-.599 1.063 1.064.599zm-.755 1.342l-1.064-.599-.598 1.064 1.064.598.598-1.063zm2.726 1.533l1.064.598.598-1.063-1.064-.599-.598 1.064zm-.726 1.29l-.599 1.064 1.064.598.599-1.063-1.064-.599zm-2.726-1.533l.599-1.064-1.064-.598-.598 1.063 1.063.599zm-1.434 2.55l3.59 2.02 1.197-2.127-3.59-2.02-1.197 2.127zm3.125.358l-.726 1.29 2.127 1.197.726-1.29-2.127-1.197zm.936.825l-5.03-2.83-1.197 2.128 5.03 2.829 1.197-2.127zm-4.565-1.168l3.772-6.704-2.128-1.197-3.771 6.704 2.127 1.197zm2.109-6.238l4.932 2.774 1.197-2.127-4.932-2.775-1.197 2.128zm4.467 1.112l-.729 1.295 2.128 1.197.729-1.295-2.128-1.197zm.934.83l-3.492-1.965-1.197 2.128 3.492 1.964 1.197-2.127zm-5.155-1.5l-.755 1.342 2.128 1.197.755-1.342-2.128-1.197zm-.289 3.004l2.725 1.534 1.197-2.128-2.725-1.533-1.197 2.127zm2.26-.129l-.726 1.291 2.128 1.197.726-1.291-2.128-1.197zm.936.825l-2.725-1.533-1.197 2.128 2.725 1.533 1.197-2.128zm-4.387-1.068l-.837 1.487 2.128 1.197.836-1.487-2.127-1.197z" fill="#000"/><path d="M334.819 467.473a377.156 377.156 0 001.074-356.826" stroke="#7E5155" stroke-width=".61" stroke-miterlimit="10" stroke-linecap="round" stroke-linejoin="round" stroke-dasharray="4.27 4.27"/><mask id="b" fill="#fff"><path d="M250.001 421.605c3.558 1.924 8.011.603 9.844-3.002a288.069 288.069 0 00.781-259.535c-1.811-3.617-6.256-4.964-9.825-3.062L15.098 281.645c-5.154 2.747-5.176 10.126-.039 12.904l234.942 127.056z"/></mask><path d="M250.001 421.605c3.558 1.924 8.011.603 9.844-3.002a288.069 288.069 0 00.781-259.535c-1.811-3.617-6.256-4.964-9.825-3.062L15.098 281.645c-5.154 2.747-5.176 10.126-.039 12.904l234.942 127.056z" fill="url(#a)" stroke="#FF5461" stroke-width="2.441" mask="url(#b)"/><path opacity=".8" d="M345.439 104.361l-7.045-.179 3.367 6.19 3.678-6.011zm0 369.841l-3.641-6.034-3.405 6.17 7.046-.136zM19.685 281.573l-.292-.536.292.536zm-.039 12.845l-.295.535.295-.535zM340.322 106.45L19.393 281.037l.583 1.072 320.929-174.587-.583-1.072zM19.352 294.953l320.983 177.129.589-1.068-320.983-177.13-.59 1.069zm.041-13.916c-5.504 2.994-5.528 10.888-.042 13.916l.59-1.069c-4.642-2.562-4.622-9.241.035-11.775l-.583-1.072z" fill="url(#c)"/><mask id="e" fill="#fff"><path d="M170.014 378.348c3.558 1.924 8.015.605 9.806-3.022a197.134 197.134 0 00.522-173.465c-1.769-3.638-6.218-4.984-9.787-3.081L15.098 281.644c-5.154 2.748-5.176 10.127-.039 12.905l154.955 83.799z"/></mask><path d="M170.014 378.348c3.558 1.924 8.015.605 9.806-3.022a197.134 197.134 0 00.522-173.465c-1.769-3.638-6.218-4.984-9.787-3.081L15.098 281.644c-5.154 2.748-5.176 10.127-.039 12.905l154.955 83.799z" fill="url(#d)" stroke="#FF5461" stroke-width="2.441" mask="url(#e)"/><mask id="g" fill="#fff"><path d="M90.027 335.091c3.558 1.924 8.027.609 9.701-3.073a106.191 106.191 0 00.263-87.332c-1.652-3.692-6.113-5.034-9.682-3.132l-75.21 40.09c-5.155 2.748-5.177 10.127-.04 12.905l74.968 40.542z"/></mask><path d="M90.027 335.091c3.558 1.924 8.027.609 9.701-3.073a106.191 106.191 0 00.263-87.332c-1.652-3.692-6.113-5.034-9.682-3.132l-75.21 40.09c-5.155 2.748-5.177 10.127-.04 12.905l74.968 40.542z" fill="url(#f)" stroke="#FF5461" stroke-width="2.441" mask="url(#g)"/><g style="mix-blend-mode:color-dodge" clip-path="url(#h)"><path d="M192.865 263.038c14.493 0 26.243-11.749 26.243-26.242 0-14.494-11.75-26.243-26.243-26.243-14.494 0-26.243 11.749-26.243 26.243 0 14.493 11.749 26.242 26.243 26.242z" fill="url(#i)"/></g><g style="mix-blend-mode:color-dodge" clip-path="url(#j)"><path d="M109.253 316.135c14.493 0 26.242-11.749 26.242-26.243 0-14.494-11.749-26.243-26.242-26.243-14.494 0-26.243 11.749-26.243 26.243 0 14.494 11.75 26.243 26.243 26.243z" fill="url(#k)"/></g><g style="mix-blend-mode:color-dodge" clip-path="url(#l)"><path d="M278.305 394.864c14.494 0 26.243-11.75 26.243-26.243 0-14.494-11.749-26.243-26.243-26.243-14.493 0-26.243 11.749-26.243 26.243 0 14.493 11.75 26.243 26.243 26.243z" fill="url(#m)"/></g><path d="M40.695 286.291l.001-.15a3.334 3.334 0 013.266-3.267h4.858a3.334 3.334 0 013.267 3.267v.376a5 5 0 01-5.126 4.901h-1.14l-.225-.001a5 5 0 01-4.9-4.9v-.226z" stroke="#fff" stroke-width="1.017"/><path d="M49.24 282.162v-.712a2.848 2.848 0 00-2.848-2.848v0a2.848 2.848 0 00-2.848 2.848v.712" stroke="#fff" stroke-width="1.017" stroke-linecap="round"/><circle cx="46.392" cy="287.146" fill="#fff" r="1.424"/><path d="M129.8 286.291v-.15a3.335 3.335 0 013.267-3.267h4.858a3.333 3.333 0 013.267 3.417l-.001.226a5 5 0 01-5.125 4.901h-1.14l-.226-.001a5 5 0 01-4.899-4.9l-.001-.226z" stroke="#fff" stroke-width="1.017"/><path d="M138.345 282.162v-.712a2.849 2.849 0 00-2.849-2.848v0a2.849 2.849 0 00-2.848 2.848v.712" stroke="#fff" stroke-width="1.017" stroke-linecap="round"/><circle cx="135.496" cy="287.146" fill="#fff" r="1.424"/><path d="M220.123 286.291l.001-.15a3.333 3.333 0 013.266-3.267h4.858a3.335 3.335 0 013.267 3.267v.15l-.001.226a5 5 0 01-5.125 4.901h-1.139l-.226-.001a5 5 0 01-4.9-4.9l-.001-.226z" stroke="#fff" stroke-width="1.017"/><path d="M228.668 282.162v-.712a2.848 2.848 0 00-2.848-2.848v0a2.848 2.848 0 00-2.848 2.848v.712" stroke="#fff" stroke-width="1.017" stroke-linecap="round"/><circle cx="225.82" cy="287.146" fill="#fff" r="1.424"/><path d="M61.594 282.635h-4.06v-5.983h1.285v4.831h2.775v1.152zm2.181-4.385c-.372.378-.558.844-.558 1.398 0 .55.186 1.015.559 1.393.372.378.825.567 1.36.567.536 0 .991-.189 1.364-.567.373-.378.559-.843.559-1.393 0-.554-.186-1.02-.56-1.398a1.836 1.836 0 00-1.363-.572 1.83 1.83 0 00-1.36.572zm-.947 3.6c-.625-.611-.938-1.347-.938-2.207 0-.859.313-1.593.938-2.202.629-.609 1.398-.914 2.308-.914.912 0 1.68.305 2.307.914.628.609.942 1.343.942 2.202 0 .86-.314 1.596-.942 2.207-.626.61-1.395.914-2.307.914-.91 0-1.679-.304-2.307-.914zm9.663-5.323c.314 0 .613.042.897.125.283.081.516.18.696.296.184.117.345.234.484.351.142.117.244.215.305.296l.096.125-.814.814c-.016-.023-.04-.053-.07-.092a1.57 1.57 0 00-.197-.209 1.83 1.83 0 00-.33-.254 2.094 2.094 0 00-.47-.205 1.899 1.899 0 00-.597-.096c-.56 0-1.027.188-1.402.564-.376.375-.563.842-.563 1.401 0 .56.188 1.027.563 1.402.375.376.843.563 1.402.563a2.195 2.195 0 001.118-.3c.13-.083.246-.167.346-.25.1-.084.172-.156.217-.217l.067-.088.772.814a1.53 1.53 0 01-.105.133 3.45 3.45 0 01-.304.288 3.31 3.31 0 01-.505.363 3.279 3.279 0 01-.705.284 3.15 3.15 0 01-.901.129c-.912 0-1.683-.304-2.311-.914-.626-.611-.94-1.347-.94-2.207 0-.859.314-1.593.94-2.202.628-.609 1.398-.914 2.31-.914zm4.827.125v2.608l2.349-2.608h1.493l-2.22 2.478 2.391 3.505h-1.493l-1.753-2.562-.767.851v1.711h-1.285v-5.983h1.285zm-20.38 10h4.697v1.156H59.93v4.827h-1.28v-4.827h-1.711v-1.156zm6.837 1.598c-.372.378-.558.844-.558 1.398 0 .55.186 1.015.559 1.393.372.378.825.567 1.36.567.536 0 .991-.189 1.364-.567.373-.378.559-.843.559-1.393 0-.554-.186-1.02-.56-1.398a1.836 1.836 0 00-1.363-.572 1.83 1.83 0 00-1.36.572zm-.947 3.6c-.625-.611-.938-1.347-.938-2.207 0-.859.313-1.593.938-2.202.629-.609 1.398-.914 2.308-.914.912 0 1.68.305 2.307.914.628.609.942 1.343.942 2.202 0 .86-.314 1.596-.942 2.207-.626.61-1.395.914-2.307.914-.91 0-1.679-.304-2.307-.914zm8.04-5.198v2.608l2.349-2.608h1.493l-2.22 2.478 2.391 3.505h-1.493l-1.753-2.562-.767.851v1.711h-1.285v-5.983h1.285zm6.066 4.831h3.204v1.152h-4.49v-5.983h4.402v1.156h-3.116v1.197h2.432v1.152h-2.432v1.326zm8.456-4.831h1.281v5.983h-1.11l-2.945-3.801v3.801h-1.285v-5.983h1.114l2.945 3.805v-3.805z" fill="#fff"/><path d="M312.889 286.292c0-1.326 0-1.989.302-2.475.162-.26.381-.479.641-.641.485-.302 1.148-.302 2.474-.302h4.557c1.326 0 1.989 0 2.475.302.26.162.479.381.641.641.302.486.302 1.149.302 2.475 0 1.989 0 2.984-.453 3.712-.243.39-.572.719-.962.961-.728.453-1.722.453-3.712.453h-1.139c-1.989 0-2.984 0-3.712-.453a2.98 2.98 0 01-.961-.961c-.453-.728-.453-1.723-.453-3.712z" stroke="#fff" stroke-width="1.019"/><path d="M321.788 282.874l.056-.442a3.931 3.931 0 00-1.715-3.754v0a3.93 3.93 0 00-4.757.296l-.583.505" stroke="#fff" stroke-width="1.019" stroke-linecap="round"/><circle cx="318.585" cy="287.146" fill="#fff" r="1.424"/><path d="M243.463 282.635h-4.06v-5.983h1.285v4.831h2.775v1.152zm2.182-4.385c-.373.378-.559.844-.559 1.398 0 .55.186 1.015.559 1.393.372.378.826.567 1.36.567.536 0 .991-.189 1.364-.567.373-.378.559-.843.559-1.393 0-.554-.186-1.02-.559-1.398a1.837 1.837 0 00-1.364-.572 1.83 1.83 0 00-1.36.572zm-.947 3.6c-.626-.611-.939-1.347-.939-2.207 0-.859.313-1.593.939-2.202.628-.609 1.397-.914 2.307-.914.912 0 1.681.305 2.307.914.628.609.943 1.343.943 2.202 0 .86-.315 1.596-.943 2.207-.626.61-1.395.914-2.307.914-.91 0-1.679-.304-2.307-.914zm9.662-5.323c.314 0 .613.042.897.125.284.081.516.18.697.296.183.117.344.234.484.351.141.117.243.215.304.296l.096.125-.814.814c-.016-.023-.04-.053-.07-.092a1.606 1.606 0 00-.197-.209 1.84 1.84 0 00-.329-.254 2.101 2.101 0 00-.472-.205 1.892 1.892 0 00-.596-.096c-.559 0-1.026.188-1.402.564-.375.375-.563.842-.563 1.401 0 .56.188 1.027.563 1.402.376.376.843.563 1.402.563a2.188 2.188 0 001.464-.55c.1-.084.173-.156.217-.217l.067-.088.772.814a1.565 1.565 0 01-.105.133 3.427 3.427 0 01-.304.288 3.317 3.317 0 01-.505.363 3.279 3.279 0 01-.705.284c-.289.086-.59.129-.901.129-.912 0-1.683-.304-2.311-.914-.626-.611-.939-1.347-.939-2.207 0-.859.313-1.593.939-2.202.628-.609 1.399-.914 2.311-.914zm4.827.125v2.608l2.349-2.608h1.493l-2.219 2.478 2.39 3.505h-1.493l-1.753-2.562-.767.851v1.711h-1.285v-5.983h1.285zm-20.38 10h4.697v1.156h-1.706v4.827h-1.281v-4.827h-1.71v-1.156zm6.838 1.598c-.373.378-.559.844-.559 1.398 0 .55.186 1.015.559 1.393.372.378.826.567 1.36.567.536 0 .991-.189 1.364-.567.373-.378.559-.843.559-1.393 0-.554-.186-1.02-.559-1.398a1.837 1.837 0 00-1.364-.572 1.83 1.83 0 00-1.36.572zm-.947 3.6c-.626-.611-.939-1.347-.939-2.207 0-.859.313-1.593.939-2.202.628-.609 1.397-.914 2.307-.914.912 0 1.681.305 2.307.914.628.609.943 1.343.943 2.202 0 .86-.315 1.596-.943 2.207-.626.61-1.395.914-2.307.914-.91 0-1.679-.304-2.307-.914zm8.039-5.198v2.608l2.349-2.608h1.493l-2.219 2.478 2.39 3.505h-1.493l-1.752-2.562-.768.851v1.711h-1.285v-5.983h1.285zm6.066 4.831h3.204v1.152h-4.489v-5.983h4.401v1.156h-3.116v1.197h2.432v1.152h-2.432v1.326zm8.457-4.831h1.28v5.983h-1.109l-2.946-3.801v3.801H263.2v-5.983h1.114l2.946 3.805v-3.805zm-116.563-4.017h-4.059v-5.983h1.285v4.831h2.774v1.152zm2.182-4.385c-.373.378-.559.844-.559 1.398 0 .55.186 1.015.559 1.393.373.378.826.567 1.36.567.537 0 .992-.189 1.364-.567.373-.378.559-.843.559-1.393 0-.554-.186-1.02-.559-1.398a1.834 1.834 0 00-1.364-.572c-.534 0-.987.191-1.36.572zm-.947 3.6c-.626-.611-.939-1.347-.939-2.207 0-.859.313-1.593.939-2.202.629-.609 1.398-.914 2.307-.914.912 0 1.681.305 2.307.914.629.609.943 1.343.943 2.202 0 .86-.314 1.596-.943 2.207-.626.61-1.395.914-2.307.914-.909 0-1.678-.304-2.307-.914zm9.662-5.323c.315 0 .614.042.897.125.284.081.516.18.697.296.184.117.345.234.484.351.142.117.243.215.304.296l.096.125-.813.814a3.377 3.377 0 00-.071-.092 1.575 1.575 0 00-.196-.209c-.1-.097-.21-.182-.33-.254a2.071 2.071 0 00-.471-.205 1.903 1.903 0 00-.597-.096c-.559 0-1.026.188-1.402.564-.375.375-.563.842-.563 1.401 0 .56.188 1.027.563 1.402.376.376.843.563 1.402.563a2.2 2.2 0 001.118-.3c.131-.083.246-.167.347-.25.1-.084.172-.156.217-.217l.066-.088.772.814a1.515 1.515 0 01-.104.133 3.49 3.49 0 01-.305.288 3.269 3.269 0 01-.505.363 3.279 3.279 0 01-.705.284 3.14 3.14 0 01-.901.129c-.912 0-1.682-.304-2.311-.914-.626-.611-.939-1.347-.939-2.207 0-.859.313-1.593.939-2.202.629-.609 1.399-.914 2.311-.914zm4.827.125v2.608l2.349-2.608h1.494l-2.22 2.478 2.391 3.505h-1.494l-1.752-2.562-.768.851v1.711h-1.285v-5.983h1.285zm-20.38 10h4.698v1.156h-1.707v4.827h-1.28v-4.827h-1.711v-1.156zm6.838 1.598c-.373.378-.559.844-.559 1.398 0 .55.186 1.015.559 1.393.373.378.826.567 1.36.567.537 0 .992-.189 1.364-.567.373-.378.559-.843.559-1.393 0-.554-.186-1.02-.559-1.398a1.834 1.834 0 00-1.364-.572c-.534 0-.987.191-1.36.572zm-.947 3.6c-.626-.611-.939-1.347-.939-2.207 0-.859.313-1.593.939-2.202.629-.609 1.398-.914 2.307-.914.912 0 1.681.305 2.307.914.629.609.943 1.343.943 2.202 0 .86-.314 1.596-.943 2.207-.626.61-1.395.914-2.307.914-.909 0-1.678-.304-2.307-.914zm8.039-5.198v2.608l2.349-2.608h1.494l-2.22 2.478 2.391 3.505h-1.494l-1.752-2.562-.768.851v1.711h-1.285v-5.983h1.285zm6.066 4.831h3.204v1.152h-4.489v-5.983h4.402v1.156h-3.117v1.197h2.433v1.152h-2.433v1.326zm8.457-4.831h1.281v5.983h-1.11l-2.945-3.801v3.801h-1.285v-5.983h1.114l2.945 3.805v-3.805zm157.079-10h4.698v1.156h-1.706v4.827h-1.281v-4.827h-1.711v-1.156zm6.922 4.831h3.204v1.152h-4.489v-5.983h4.401v1.156h-3.116v1.197h2.432v1.152h-2.432v1.326zm6.621-1.026l-1.452 2.178h-1.456l2.094-3.121-1.923-2.862h1.456l1.281 1.923 1.28-1.923h1.452l-1.923 2.862 2.094 3.121h-1.452l-1.451-2.178zm3.162-3.805h4.698v1.156h-1.707v4.827h-1.281v-4.827h-1.71v-1.156zm-16.705 10h4.698v1.156h-1.706v4.827h-1.281v-4.827h-1.711v-1.156zm6.838 1.598a1.916 1.916 0 00-.559 1.398c0 .55.187 1.015.559 1.393.373.378.826.567 1.36.567.537 0 .992-.189 1.365-.567.372-.378.559-.843.559-1.393 0-.554-.187-1.02-.559-1.398a1.838 1.838 0 00-1.365-.572c-.534 0-.987.191-1.36.572zm-.947 3.6c-.626-.611-.938-1.347-.938-2.207 0-.859.312-1.593.938-2.202.629-.609 1.398-.914 2.307-.914.913 0 1.682.305 2.307.914.629.609.943 1.343.943 2.202 0 .86-.314 1.596-.943 2.207-.625.61-1.394.914-2.307.914-.909 0-1.678-.304-2.307-.914zm8.04-5.198v2.608l2.348-2.608h1.494l-2.22 2.478 2.391 3.505h-1.494l-1.752-2.562-.767.851v1.711h-1.285v-5.983h1.285zm6.066 4.831h3.204v1.152h-4.489v-5.983h4.401v1.156h-3.116v1.197h2.432v1.152h-2.432v1.326zm8.456-4.831h1.281v5.983h-1.11l-2.945-3.801v3.801h-1.285v-5.983h1.114l2.945 3.805v-3.805z" fill="#fff"/><g filter="url(#n)"><circle cx="256.64" cy="423.852" r="8.849" fill="red"/></g><circle cx="256.641" cy="423.852" r="7.018" fill="url(#o)"/><circle cx="256.64" cy="423.852" r="2.136" fill="#fff"/><g filter="url(#p)"><circle cx="256.64" cy="154.1" r="8.849" fill="red"/></g><circle cx="256.641" cy="154.1" r="7.018" fill="url(#q)"/><circle cx="256.64" cy="154.1" r="2.136" fill="#fff"/><g filter="url(#r)"><circle cx="11.91" cy="288.365" r="8.849" fill="red"/></g><circle cx="11.91" cy="288.365" r="7.018" fill="url(#s)"/><circle cx="11.909" cy="288.365" r="2.136" fill="#fff"/><path d="M281.284 143.287l-3.085 1.623-3.581-6.807 2.919-1.536c.617-.324 1.222-.412 1.813-.263.595.148 1.019.461 1.27.939.095.18.16.366.196.557.034.188.04.357.018.506a2.905 2.905 0 01-.09.405 1.309 1.309 0 01-.105.261l-.056.09a1.967 1.967 0 01.512.028c.178.023.345.065.501.124.157.059.325.164.506.316.182.146.331.329.445.547.287.545.316 1.127.089 1.748-.227.62-.678 1.108-1.352 1.462zm-2.262-.361l1.552-.817c.266-.139.442-.339.527-.598a.929.929 0 00-.061-.762.926.926 0 00-.593-.482 1.022 1.022 0 00-.795.091l-1.552.816.922 1.752zm-.945-5.091l-1.358.714.769 1.462 1.358-.714c.24-.126.395-.293.465-.499.069-.206.045-.42-.071-.642-.117-.221-.279-.362-.489-.421-.209-.06-.434-.027-.674.1zm7.655 1.44l3.645-1.918.69 1.31-5.108 2.687-3.581-6.807 5.008-2.635.692 1.315-3.546 1.866.716 1.362 2.768-1.456.689 1.311-2.767 1.455.794 1.51zm6.73-10.559l1.458-.767 3.581 6.808-1.263.664-5.626-2.562 2.275 4.325-1.463.769-3.581-6.807 1.268-.667 5.629 2.566-2.278-4.329zm7.559 3.042l3.646-1.917.689 1.31-5.108 2.687-3.581-6.808 5.008-2.634.692 1.315-3.546 1.865.716 1.363 2.768-1.456.689 1.31-2.767 1.456.794 1.509zm2.111-8.129l5.009-2.635.691 1.315-3.546 1.866.792 1.505 2.768-1.456.691 1.315-2.767 1.456 1.406 2.672-1.463.77-3.581-6.808zm9.848 3.511l-3.581-6.807 1.462-.769 3.581 6.807-1.462.769zm-1.051-8.138l5.345-2.812.692 1.315-1.942 1.021 2.89 5.493-1.458.766-2.889-5.492-1.946 1.024-.692-1.315z" fill="#fff"/><path d="M278.199 144.91l-1.081.569.569 1.08 1.08-.568-.568-1.081zm-3.581-6.807l-.569-1.08-1.08.568.568 1.08 1.081-.568zm4.732-1.799l-.298 1.184.004.001.294-1.185zm1.466 1.496l1.201-.219-.001-.006-1.2.225zm-.177 1.172l1.037.643.009-.014.008-.014-1.054-.615zm-.056.09l-1.037-.643-1.311 2.115 2.474-.258-.126-1.214zm.149-.005l-.007 1.22h.047l.047-.003-.087-1.217zm.363.033l-.18 1.207.01.002.01.001.16-1.21zm1.007.44l-.784.935.009.008.01.008.765-.951zm-3.08 3.396l-1.081.568.569 1.081 1.08-.569-.568-1.08zm2.079-1.415l-1.155-.394-.003.01 1.158.384zm-.654-1.244l-.351 1.169.011.003.01.003.33-1.175zm-2.347.907l-.568-1.08-1.08.568.568 1.081 1.08-.569zm-1.381-2.625l-.568-1.08-1.08.568.568 1.08 1.08-.568zm.769 1.462l-1.08.569.568 1.08 1.081-.568-.569-1.081zm3.228 2.196l-3.086 1.623 1.137 2.161 3.086-1.623-1.137-2.161zm-1.437 2.135l-3.581-6.807-2.161 1.136 3.581 6.808 2.161-1.137zm-4.093-5.159l2.919-1.536-1.136-2.16-2.92 1.536 1.137 2.16zm2.919-1.536c.392-.205.689-.224.947-.159l.597-2.367c-.925-.234-1.837-.077-2.68.366l1.136 2.16zm.951-.158c.308.076.417.196.484.322l2.16-1.137c-.436-.829-1.173-1.335-2.055-1.554l-.589 2.369zm.484.322a.774.774 0 01.077.214l2.399-.45a3.209 3.209 0 00-.316-.901l-2.16 1.137zm.075.208c.017.089.01.119.012.105l2.414.364c.047-.312.028-.62-.024-.907l-2.402.438zm.012.105a1.576 1.576 0 01-.049.225l2.331.724c.059-.19.102-.386.132-.585l-2.414-.364zm-.049.225l-.013.04-.007.019.004-.008.022-.043 2.109 1.23c.104-.177.171-.368.216-.514l-2.331-.724zm.023-.02l-.055.09 2.075 1.286.055-.09-2.075-1.286zm1.108 1.947l-.015.001c-.002.001-.002.001 0 .001l.031-.001.014-2.441a2.86 2.86 0 00-.282.012l.252 2.428zm.11-.002c-.023.002-.041.002-.052.002h-.022l.013.001c.029.003.08.009.157.02l.359-2.414a3.09 3.09 0 00-.63-.044l.175 2.435zm.116.026a.983.983 0 01.229.056l.864-2.284a3.499 3.499 0 00-.773-.192l-.32 2.42zm.229.056c-.009-.004.001-.001.029.016.029.018.07.047.125.093l1.568-1.871a3.023 3.023 0 00-.858-.522l-.864 2.284zm.173.125a.494.494 0 01.13.165l2.161-1.137a2.956 2.956 0 00-.761-.93l-1.53 1.902zm.13.165c.113.214.142.435.023.759l2.292.839c.336-.917.306-1.861-.154-2.735l-2.161 1.137zm.023.759c-.107.293-.324.565-.774.802l1.137 2.161c.898-.473 1.582-1.176 1.929-2.124l-2.292-.839zm-1.9 2.601l1.552-.816-1.136-2.161-1.553.817 1.137 2.16zm1.552-.816a2.248 2.248 0 001.118-1.296l-2.317-.767a.216.216 0 01.046-.079c.023-.025.035-.028.017-.019l1.136 2.161zm1.115-1.285a2.151 2.151 0 00-.137-1.724l-2.16 1.136a.24.24 0 01-.024-.095.277.277 0 01.01-.105l2.311.788zm-.137-1.724a2.145 2.145 0 00-1.343-1.089l-.66 2.35a.272.272 0 01-.092-.052.246.246 0 01-.065-.073l2.16-1.136zm-1.322-1.083a2.24 2.24 0 00-1.714.179l1.137 2.161c.016-.008.004.001-.032.005a.235.235 0 01-.053 0 .153.153 0 01-.04-.007l.702-2.338zm-1.714.179l-1.552.817 1.136 2.161 1.553-.817-1.137-2.161zm-2.064 2.466l.921 1.751 2.161-1.136-.922-1.752-2.16 1.137zm.489-4.988l-1.358.714 1.136 2.16 1.358-.714-1.136-2.16zm-1.87 2.362l.769 1.463 2.161-1.137-.77-1.462-2.16 1.136zm2.418 1.975l1.357-.715-1.136-2.16-1.358.714 1.137 2.161zm1.357-.715c.446-.234.861-.617 1.054-1.19l-2.314-.778a.459.459 0 01.095-.163c.033-.035.051-.041.029-.029l1.136 2.16zm1.054-1.19c.192-.571.098-1.131-.148-1.599l-2.16 1.137a.306.306 0 01-.028-.108.495.495 0 01.022-.208l2.314.778zm-.148-1.599c-.246-.468-.655-.862-1.234-1.027l-.669 2.347a.479.479 0 01-.184-.099.325.325 0 01-.073-.084l2.16-1.137zm-1.234-1.027c-.582-.166-1.132-.041-1.577.194l1.136 2.16c.022-.011.007 0-.04.007a.449.449 0 01-.188-.014l.669-2.347zm6.646 2.714l-1.081.568.569 1.081 1.08-.569-.568-1.08zm3.645-1.918l1.081-.568-.569-1.08-1.08.568.568 1.08zm.69 1.31l.568 1.081 1.08-.569-.568-1.08-1.08.568zm-5.108 2.687l-1.081.569.569 1.08 1.08-.568-.568-1.081zm-3.581-6.807l-.569-1.08-1.08.568.568 1.08 1.081-.568zm5.008-2.635l1.08-.568-.568-1.08-1.08.568.568 1.08zm.692 1.315l.568 1.081 1.08-.569-.568-1.08-1.08.568zm-3.546 1.866l-.569-1.08-1.08.568.568 1.08 1.081-.568zm.716 1.362l-1.08.568.568 1.081 1.081-.569-.569-1.08zm2.768-1.456l1.08-.568-.568-1.08-1.08.568.568 1.08zm.689 1.311l.568 1.08 1.081-.568-.569-1.081-1.08.569zm-2.767 1.455l-.569-1.08-1.08.568.568 1.081 1.081-.569zm1.362 2.59l3.646-1.918-1.137-2.16-3.646 1.918 1.137 2.16zm1.997-2.43l.689 1.311 2.161-1.137-.689-1.31-2.161 1.136zm1.201-.338l-5.108 2.687 1.137 2.161 5.108-2.687-1.137-2.161zm-3.459 3.199l-3.581-6.807-2.161 1.136 3.581 6.808 2.161-1.137zm-4.093-5.159l5.008-2.634-1.136-2.161-5.009 2.635 1.137 2.16zm3.36-3.146l.691 1.315 2.161-1.137-.692-1.315-2.16 1.137zm1.203-.334l-3.546 1.866 1.137 2.16 3.546-1.865-1.137-2.161zm-4.058 3.514l.717 1.362 2.161-1.136-.717-1.362-2.161 1.136zm2.366 1.874l2.767-1.455-1.136-2.161-2.768 1.456 1.137 2.16zm1.119-1.967l.689 1.31 2.16-1.137-.689-1.31-2.16 1.137zm1.201-.339l-2.768 1.456 1.137 2.161 2.767-1.456-1.136-2.161zm-3.28 3.105l.794 1.509 2.161-1.136-.794-1.51-2.161 1.137zm8.605-9.618l-.568-1.08-1.08.568.568 1.08 1.08-.568zm1.458-.767l1.08-.568-.568-1.08-1.08.568.568 1.08zm3.581 6.808l.568 1.08 1.08-.568-.568-1.081-1.08.569zm-1.263.664l-.506 1.111.545.248.529-.279-.568-1.08zm-5.626-2.562l.505-1.111-3.247-1.478 1.661 3.158 1.081-.569zm2.275 4.325l.568 1.08 1.08-.568-.568-1.08-1.08.568zm-1.463.769l-1.08.568.568 1.081 1.081-.569-.569-1.08zm-3.581-6.807l-.568-1.081-1.08.569.568 1.08 1.08-.568zm1.268-.667l.506-1.111-.545-.248-.529.279.568 1.08zm5.629 2.566l-.506 1.111 3.248 1.481-1.662-3.16-1.08.568zm-1.709-3.249l1.457-.766-1.136-2.161-1.458.767 1.137 2.16zm-.191-1.278l3.581 6.807 2.16-1.137-3.581-6.807-2.16 1.137zm4.093 5.158l-1.263.665 1.136 2.16 1.263-.664-1.136-2.161zm-.189.634l-5.627-2.562-1.011 2.222 5.626 2.562 1.012-2.222zm-7.213-.882l2.275 4.324 2.161-1.136-2.275-4.325-2.161 1.137zm2.787 2.676l-1.462.769 1.137 2.16 1.462-.769-1.137-2.16zm.187 1.281l-3.581-6.808-2.161 1.137 3.581 6.807 2.161-1.136zm-4.093-5.159l1.267-.667-1.136-2.16-1.268.666 1.137 2.161zm.193-.636l5.629 2.566 1.012-2.221-5.629-2.567-1.012 2.222zm7.215.887l-2.277-4.329-2.161 1.136 2.278 4.33 2.16-1.137zm4.201-.719l-1.081.569.569 1.08 1.08-.568-.568-1.081zm3.646-1.917l1.08-.569-.568-1.08-1.081.568.569 1.081zm.689 1.31l.568 1.08 1.08-.568-.568-1.081-1.08.569zm-5.108 2.687l-1.08.568.568 1.08 1.08-.568-.568-1.08zm-3.581-6.808l-.569-1.08-1.08.568.568 1.081 1.081-.569zm5.008-2.634l1.08-.569-.568-1.08-1.08.568.568 1.081zm.692 1.315l.568 1.08 1.08-.568-.568-1.081-1.08.569zm-3.546 1.865l-.569-1.08-1.08.568.568 1.08 1.081-.568zm.716 1.363l-1.08.568.568 1.08 1.081-.568-.569-1.08zm2.768-1.456l1.08-.569-.568-1.08-1.08.568.568 1.081zm.689 1.31l.568 1.08 1.081-.568-.569-1.08-1.08.568zm-2.767 1.456l-.569-1.08-1.08.568.568 1.08 1.081-.568zm1.362 2.59l3.646-1.918-1.137-2.161-3.646 1.918 1.137 2.161zm1.997-2.43l.69 1.31 2.16-1.137-.689-1.31-2.161 1.137zm1.201-.339l-5.107 2.688 1.136 2.16 5.108-2.687-1.137-2.161zm-3.459 3.199l-3.581-6.807-2.161 1.137 3.582 6.807 2.16-1.137zm-4.093-5.158l5.008-2.635-1.136-2.161-5.009 2.635 1.137 2.161zm3.36-3.147l.692 1.315 2.16-1.137-.692-1.315-2.16 1.137zm1.204-.334l-3.547 1.866 1.137 2.16 3.546-1.865-1.136-2.161zm-4.059 3.514l.717 1.363 2.161-1.137-.717-1.362-2.161 1.136zm2.366 1.875l2.767-1.456-1.136-2.161-2.768 1.456 1.137 2.161zm1.119-1.968l.689 1.31 2.16-1.136-.689-1.311-2.16 1.137zm1.201-.338l-2.768 1.456 1.137 2.16 2.767-1.456-1.136-2.16zm-3.28 3.104l.794 1.51 2.161-1.137-.794-1.509-2.161 1.136zm3.986-7.188l-.568-1.08-1.08.568.568 1.08 1.08-.568zm5.009-2.635l1.08-.568-.568-1.08-1.081.568.569 1.08zm.691 1.315l.569 1.081 1.08-.569-.568-1.08-1.081.568zm-3.546 1.866l-.568-1.08-1.08.568.568 1.08 1.08-.568zm.792 1.505l-1.08.568.568 1.08 1.08-.568-.568-1.08zm2.768-1.456l1.08-.568-.568-1.081-1.081.569.569 1.08zm.691 1.315l.569 1.08 1.08-.568-.568-1.08-1.081.568zm-2.767 1.456l-.569-1.081-1.08.569.568 1.08 1.081-.568zm1.406 2.672l.568 1.081 1.08-.569-.568-1.08-1.08.568zm-1.463.77l-1.08.568.568 1.08 1.081-.568-.569-1.08zm-3.012-5.728l5.008-2.634-1.137-2.161-5.008 2.635 1.137 2.16zm3.359-3.146l.692 1.315 2.161-1.137-.692-1.315-2.161 1.137zm1.204-.334l-3.546 1.866 1.137 2.16 3.546-1.865-1.137-2.161zm-4.058 3.514l.792 1.505 2.16-1.137-.791-1.504-2.161 1.136zm2.44 2.017l2.768-1.456-1.137-2.16-2.767 1.455 1.136 2.161zm1.119-1.968l.692 1.315 2.161-1.136-.692-1.315-2.161 1.136zm1.204-.333l-2.768 1.455 1.137 2.161 2.768-1.456-1.137-2.16zm-3.28 3.104l1.406 2.673 2.161-1.137-1.406-2.673-2.161 1.137zm1.918 1.024l-1.462.769 1.137 2.161 1.462-.769-1.137-2.161zm.187 1.281l-3.581-6.807-2.161 1.136 3.581 6.808 2.161-1.137zm5.186-2.728l-1.081.568.569 1.081 1.08-.569-.568-1.08zm-3.581-6.807l-.569-1.081-1.08.569.568 1.08 1.081-.568zm1.462-.769l1.08-.569-.568-1.08-1.08.568.568 1.081zm3.581 6.807l.568 1.08 1.08-.568-.568-1.08-1.08.568zm-.382.201l-3.581-6.808-2.161 1.137 3.581 6.807 2.161-1.136zm-4.093-5.159l1.462-.769-1.136-2.161-1.463.769 1.137 2.161zm-.186-1.281l3.581 6.807 2.16-1.136-3.581-6.808-2.16 1.137zm4.093 5.159l-1.463.769 1.137 2.16 1.462-.769-1.136-2.16zm-1.945-6.289l-.568-1.081-1.081.569.569 1.08 1.08-.568zm5.345-2.812l1.081-.568-.569-1.081-1.08.569.568 1.08zm.692 1.315l.568 1.08 1.081-.568-.569-1.08-1.08.568zm-1.942 1.021l-.568-1.08-1.08.568.568 1.08 1.08-.568zm2.89 5.493l.568 1.08 1.08-.568-.568-1.081-1.08.569zm-1.458.766l-1.08.569.568 1.08 1.081-.568-.569-1.081zm-2.889-5.492l1.08-.568-.568-1.081-1.08.569.568 1.08zm-1.946 1.024l-1.081.568.569 1.08 1.08-.568-.568-1.08zm-.124-.235l5.346-2.812-1.137-2.16-5.345 2.811 1.136 2.161zm3.697-3.324l.692 1.315 2.16-1.136-.691-1.315-2.161 1.136zm1.204-.333l-1.942 1.021 1.137 2.16 1.941-1.021-1.136-2.16zm-2.454 2.669l2.889 5.493 2.161-1.137-2.889-5.492-2.161 1.136zm3.401 3.844l-1.457.767 1.137 2.161 1.457-.767-1.137-2.161zm.192 1.279l-2.89-5.492-2.16 1.136 2.889 5.493 2.161-1.137zm-4.538-6.004l-1.947 1.023 1.137 2.161 1.946-1.024-1.136-2.16zm-.298 1.535l-.692-1.315-2.16 1.137.691 1.315 2.161-1.137z" fill="#000"/><defs><linearGradient id="a" x1="192.864" y1="255.105" x2="296.004" y2="242.289" gradientUnits="userSpaceOnUse"><stop offset=".081" stop-color="#130707"/><stop offset="1" stop-color="#D51414"/></linearGradient><linearGradient id="c" x1="-2.432" y1="280.127" x2="417.143" y2="361.682" gradientUnits="userSpaceOnUse"><stop stop-color="#805050"/><stop offset=".937" stop-color="#D80101"/></linearGradient><linearGradient id="d" x1="117.495" y1="292.655" x2="247.486" y2="238.932" gradientUnits="userSpaceOnUse"><stop offset=".081"/><stop offset="1" stop-color="#B22626"/></linearGradient><linearGradient id="f" x1="64.706" y1="290.535" x2="111.053" y2="271.187" gradientUnits="userSpaceOnUse"><stop offset=".081" stop-color="#0D0808"/><stop offset="1" stop-color="#513535"/></linearGradient><linearGradient id="o" x1="243.33" y1="434.743" x2="256.883" y2="416.834" gradientUnits="userSpaceOnUse"><stop offset=".081" stop-color="#410909"/><stop offset="1" stop-color="#FF1515"/></linearGradient><linearGradient id="q" x1="243.33" y1="164.991" x2="256.883" y2="147.082" gradientUnits="userSpaceOnUse"><stop offset=".081" stop-color="#410909"/><stop offset="1" stop-color="#FF1515"/></linearGradient><linearGradient id="s" x1="-1.401" y1="299.256" x2="12.152" y2="281.347" gradientUnits="userSpaceOnUse"><stop offset=".081" stop-color="#410909"/><stop offset="1" stop-color="#FF1515"/></linearGradient><radialGradient id="k" cx="0" cy="0" r="1" gradientUnits="userSpaceOnUse" gradientTransform="translate(109.269 289.908) scale(26.2589)"><stop stop-color="#CACACA"/><stop offset=".034" stop-color="#BCBCBC"/><stop offset=".165" stop-color="#8A8A8A"/><stop offset=".299" stop-color="#606060"/><stop offset=".434" stop-color="#3D3D3D"/><stop offset=".571" stop-color="#222"/><stop offset=".709" stop-color="#0F0F0F"/><stop offset=".851" stop-color="#040404"/><stop offset="1"/></radialGradient><radialGradient id="i" cx="0" cy="0" r="1" gradientUnits="userSpaceOnUse" gradientTransform="translate(192.881 236.812) scale(26.2589)"><stop stop-color="#CACACA"/><stop offset=".034" stop-color="#BCBCBC"/><stop offset=".165" stop-color="#8A8A8A"/><stop offset=".299" stop-color="#606060"/><stop offset=".434" stop-color="#3D3D3D"/><stop offset=".571" stop-color="#222"/><stop offset=".709" stop-color="#0F0F0F"/><stop offset=".851" stop-color="#040404"/><stop offset="1"/></radialGradient><radialGradient id="m" cx="0" cy="0" r="1" gradientUnits="userSpaceOnUse" gradientTransform="translate(278.321 368.637) scale(26.2589)"><stop stop-color="#CACACA"/><stop offset=".034" stop-color="#BCBCBC"/><stop offset=".165" stop-color="#8A8A8A"/><stop offset=".299" stop-color="#606060"/><stop offset=".434" stop-color="#3D3D3D"/><stop offset=".571" stop-color="#222"/><stop offset=".709" stop-color="#0F0F0F"/><stop offset=".851" stop-color="#040404"/><stop offset="1"/></radialGradient><clipPath id="l"><path fill="#fff" transform="translate(252.062 342.378)" d="M0 0h52.486v52.486H0z"/></clipPath><clipPath id="h"><path fill="#fff" transform="translate(166.622 210.553)" d="M0 0h52.486v52.486H0z"/></clipPath><clipPath id="j"><path fill="#fff" transform="translate(83.01 263.649)" d="M0 0h52.486v52.486H0z"/></clipPath><filter id="p" x="223.379" y="120.839" width="66.522" height="66.523" filterUnits="userSpaceOnUse" color-interpolation-filters="sRGB"><feFlood flood-opacity="0" result="BackgroundImageFix"/><feBlend in="SourceGraphic" in2="BackgroundImageFix" result="shape"/><feGaussianBlur stdDeviation="12.206" result="effect1_foregroundBlur_2512:30969"/></filter><filter id="r" x="-21.351" y="255.104" width="66.522" height="66.522" filterUnits="userSpaceOnUse" color-interpolation-filters="sRGB"><feFlood flood-opacity="0" result="BackgroundImageFix"/><feBlend in="SourceGraphic" in2="BackgroundImageFix" result="shape"/><feGaussianBlur stdDeviation="12.206" result="effect1_foregroundBlur_2512:30969"/></filter><filter id="n" x="223.379" y="390.591" width="66.522" height="66.522" filterUnits="userSpaceOnUse" color-interpolation-filters="sRGB"><feFlood flood-opacity="0" result="BackgroundImageFix"/><feBlend in="SourceGraphic" in2="BackgroundImageFix" result="shape"/><feGaussianBlur stdDeviation="12.206" result="effect1_foregroundBlur_2512:30969"/></filter></defs></svg>