<svg width="1358" height="236" fill="none" xmlns="http://www.w3.org/2000/svg"><path d="M1357.9 224.575h-11.27v11.254h11.27v-11.254zm0-11.253h-11.27v11.253h11.27v-11.253z" fill="#FFD5AD"/><path d="M1357.9 202.069h-11.27v11.253h11.27v-11.253z" fill="#4CA52D"/><path d="M1357.9 190.895h-11.27v11.253h11.27v-11.253z" fill="#4CA52D"/><path d="M1346.63 224.575h-11.27v11.254h11.27v-11.254zm0-11.253h-11.27v11.253h11.27v-11.253z" fill="#FFD5AD"/><path d="M1346.63 202.069h-11.27v11.253h11.27v-11.253z" fill="#1A9149"/><path d="M1346.63 190.895h-11.27v11.253h11.27v-11.253z" fill="#1A9149"/><path d="M1346.63 179.642h-11.27v11.253h11.27v-11.253z" fill="#4CA52D"/><path d="M1346.63 112.361h-11.27v11.253h11.27v-11.253zm0-11.254h-11.27v11.254h11.27v-11.254z" fill="#FFD5AD"/><path d="M1346.63 89.854h-11.27v11.253h11.27V89.854z" fill="#594A42"/><path d="M1335.44 224.575h-11.27v11.254h11.27v-11.254z" fill="#4CA52D"/><path d="M1335.44 213.322h-11.27v11.253h11.27v-11.253zm0-11.253h-11.27v11.253h11.27v-11.253z" fill="#1A9149"/><path d="M1335.44 190.895h-11.27v11.253h11.27v-11.253z" fill="#1A9149"/><path d="M1335.44 179.642h-11.27v11.253h11.27v-11.253z" fill="#4CA52D"/><path d="M1335.44 168.468h-11.27v11.253h11.27v-11.253z" fill="#4CA52D"/><path d="M1335.44 134.788h-11.27v11.253h11.27v-11.253zm0-11.253h-11.27v11.253h11.27v-11.253z" fill="#FFD5AD"/><path d="M1335.44 112.361h-11.27v11.253h11.27v-11.253zm0-11.254h-11.27v11.254h11.27v-11.254zm0-11.253h-11.27v11.253h11.27V89.854z" fill="#FFD5AD"/><path d="M1335.44 78.68h-11.27v11.254h11.27V78.68zm0-11.253h-11.27V78.68h11.27V67.427z" fill="#414042"/><path d="M1324.17 224.575h-11.26v11.254h11.26v-11.254zm0-11.253h-11.26v11.253h11.26v-11.253zm0-11.253h-11.26v11.253h11.26v-11.253z" fill="#4CA52D"/><path d="M1324.17 190.895h-11.26v11.253h11.26v-11.253zm0-11.253h-11.26v11.253h11.26v-11.253z" fill="#4CA52D"/><path d="M1324.17 168.468h-11.26v11.253h11.26v-11.253z" fill="#4CA52D"/><path d="M1324.17 157.215h-11.26v11.253h11.26v-11.253z" fill="#414042"/><path d="M1324.17 145.962h-11.26v11.253h11.26v-11.253z" fill="#FFD5AD"/><path d="M1324.17 134.788h-11.26v11.253h11.26v-11.253zm0-11.253h-11.26v11.253h11.26v-11.253z" fill="#FFD5AD"/><path d="M1324.17 112.361h-11.26v11.253h11.26v-11.253z" fill="#fff"/><path d="M1324.17 101.107h-11.26v11.254h11.26v-11.254zm0-11.253h-11.26v11.253h11.26V89.854z" fill="#414042"/><path d="M1324.17 78.68h-11.26v11.254h11.26V78.68zm0-11.253h-11.26V78.68h11.26V67.427z" fill="#414042"/><path d="M1324.17 56.253h-11.26v11.253h11.26V56.253z" fill="#414042"/><path d="M1312.91 224.575h-11.27v11.254h11.27v-11.254zm0-11.253h-11.27v11.253h11.27v-11.253zm0-11.253h-11.27v11.253h11.27v-11.253z" fill="#4CA52D"/><path d="M1312.91 190.895h-11.27v11.253h11.27v-11.253zm0-11.253h-11.27v11.253h11.27v-11.253z" fill="#4CA52D"/><path d="M1312.91 168.468h-11.27v11.253h11.27v-11.253z" fill="#4CA52D"/><path d="M1312.91 157.215h-11.27v11.253h11.27v-11.253z" fill="#414042"/><path d="M1312.91 145.962h-11.27v11.253h11.27v-11.253z" fill="#FFD5AD"/><path d="M1312.91 134.788h-11.27v11.253h11.27v-11.253z" fill="#fff"/><path d="M1312.91 123.535h-11.27v11.253h11.27v-11.253z" fill="#FFD5AD"/><path d="M1312.91 112.361h-11.27v11.253h11.27v-11.253z" fill="#fff"/><path d="M1312.91 101.107h-11.27v11.254h11.27v-11.254z" fill="#414042"/><path d="M1312.91 89.854h-11.27v11.253h11.27V89.854z" fill="#fff"/><path d="M1312.91 78.68h-11.27v11.254h11.27V78.68z" fill="#414042"/><path d="M1312.91 67.427h-11.27V78.68h11.27V67.427z" fill="#4CA52D"/><path d="M1312.91 56.253h-11.27v11.253h11.27V56.253z" fill="#4CA52D"/><path d="M1301.72 224.575h-11.27v11.254h11.27v-11.254zm0-11.253h-11.27v11.253h11.27v-11.253z" fill="#4DC87D"/><path d="M1301.72 202.069h-11.27v11.253h11.27v-11.253z" fill="#1A9149"/><path d="M1301.72 190.895h-11.27v11.253h11.27v-11.253zm0-11.253h-11.27v11.253h11.27v-11.253z" fill="#1A9149"/><path d="M1301.72 168.468h-11.27v11.253h11.27v-11.253z" fill="#4CA52D"/><path d="M1301.72 157.215h-11.27v11.253h11.27v-11.253z" fill="#414042"/><path d="M1301.72 145.962h-11.27v11.253h11.27v-11.253z" fill="#fff"/><path d="M1301.72 134.788h-11.27v11.253h11.27v-11.253z" fill="#fff"/><path d="M1301.72 123.535h-11.27v11.253h11.27v-11.253z" fill="#FFD5AD"/><path d="M1301.72 112.361h-11.27v11.253h11.27v-11.253zm0-11.254h-11.27v11.254h11.27v-11.254zm0-11.253h-11.27v11.253h11.27V89.854z" fill="#FFD5AD"/><path d="M1301.72 78.68h-11.27v11.254h11.27V78.68z" fill="#4CA52D"/><path d="M1301.72 67.427h-11.27V78.68h11.27V67.427z" fill="#1A9149"/><path d="M1301.72 56.253h-11.27v11.253h11.27V56.253z" fill="#1A9149"/><path d="M1301.72 45h-11.27v11.253h11.27V45z" fill="#4CA52D"/><path d="M1290.45 224.575h-11.27v11.254h11.27v-11.254zm0-11.253h-11.27v11.253h11.27v-11.253z" fill="#4DC87D"/><path d="M1290.45 202.069h-11.27v11.253h11.27v-11.253z" fill="#1A9149"/><path d="M1290.45 190.895h-11.27v11.253h11.27v-11.253zm0-11.253h-11.27v11.253h11.27v-11.253z" fill="#1A9149"/><path d="M1290.45 168.468h-11.27v11.253h11.27v-11.253z" fill="#4CA52D"/><path d="M1290.45 157.215h-11.27v11.253h11.27v-11.253z" fill="#414042"/><path d="M1290.45 145.962h-11.27v11.253h11.27v-11.253z" fill="#fff"/><path d="M1290.45 134.788h-11.27v11.253h11.27v-11.253z" fill="#fff"/><path d="M1290.45 123.535h-11.27v11.253h11.27v-11.253z" fill="#FFD5AD"/><path d="M1290.45 112.361h-11.27v11.253h11.27v-11.253zm0-11.254h-11.27v11.254h11.27v-11.254zm0-11.253h-11.27v11.253h11.27V89.854z" fill="#FFD5AD"/><path d="M1290.45 78.68h-11.27v11.254h11.27V78.68z" fill="#4CA52D"/><path d="M1290.45 67.427h-11.27V78.68h11.27V67.427z" fill="#1A9149"/><path d="M1290.45 56.253h-11.27v11.253h11.27V56.253z" fill="#fff"/><path d="M1290.45 45h-11.27v11.253h11.27V45zm-11.19 179.575h-11.27v11.254h11.27v-11.254zm0-11.253h-11.27v11.253h11.27v-11.253zm0-11.253h-11.27v11.253h11.27v-11.253z" fill="#4CA52D"/><path d="M1279.26 190.895h-11.27v11.253h11.27v-11.253zm0-11.253h-11.27v11.253h11.27v-11.253z" fill="#4CA52D"/><path d="M1279.26 168.468h-11.27v11.253h11.27v-11.253z" fill="#4CA52D"/><path d="M1279.26 157.215h-11.27v11.253h11.27v-11.253z" fill="#414042"/><path d="M1279.26 145.962h-11.27v11.253h11.27v-11.253z" fill="#FFD5AD"/><path d="M1279.26 134.788h-11.27v11.253h11.27v-11.253z" fill="#fff"/><path d="M1279.26 123.535h-11.27v11.253h11.27v-11.253z" fill="#FFD5AD"/><path d="M1279.26 112.361h-11.27v11.253h11.27v-11.253z" fill="#fff"/><path d="M1279.26 101.107h-11.27v11.254h11.27v-11.254zm0-11.253h-11.27v11.253h11.27V89.854z" fill="#414042"/><path d="M1279.26 78.68h-11.27v11.254h11.27V78.68z" fill="#414042"/><path d="M1279.26 67.427h-11.27V78.68h11.27V67.427z" fill="#4CA52D"/><path d="M1279.26 56.253h-11.27v11.253h11.27V56.253zm-11.27 168.322h-11.27v11.254h11.27v-11.254zm0-11.253h-11.27v11.253h11.27v-11.253zm0-11.253h-11.27v11.253h11.27v-11.253z" fill="#4CA52D"/><path d="M1267.99 190.895h-11.27v11.253h11.27v-11.253zm0-11.253h-11.27v11.253h11.27v-11.253z" fill="#4CA52D"/><path d="M1267.99 168.468h-11.27v11.253h11.27v-11.253z" fill="#4CA52D"/><path d="M1267.99 157.215h-11.27v11.253h11.27v-11.253z" fill="#414042"/><path d="M1267.99 145.962h-11.27v11.253h11.27v-11.253z" fill="#FFD5AD"/><path d="M1267.99 134.788h-11.27v11.253h11.27v-11.253zm0-11.253h-11.27v11.253h11.27v-11.253z" fill="#FFD5AD"/><path d="M1267.99 112.361h-11.27v11.253h11.27v-11.253z" fill="#fff"/><path d="M1267.99 101.107h-11.27v11.254h11.27v-11.254z" fill="#414042"/><path d="M1267.99 89.854h-11.27v11.253h11.27V89.854z" fill="#fff"/><path d="M1267.99 78.68h-11.27v11.254h11.27V78.68zm0-11.253h-11.27V78.68h11.27V67.427z" fill="#414042"/><path d="M1267.99 56.253h-11.27v11.253h11.27V56.253z" fill="#414042"/><path d="M1256.73 224.575h-11.27v11.254h11.27v-11.254z" fill="#4CA52D"/><path d="M1256.73 213.322h-11.27v11.253h11.27v-11.253zm0-11.253h-11.27v11.253h11.27v-11.253z" fill="#1A9149"/><path d="M1256.73 190.895h-11.27v11.253h11.27v-11.253z" fill="#1A9149"/><path d="M1256.73 179.642h-11.27v11.253h11.27v-11.253z" fill="#4CA52D"/><path d="M1256.73 168.468h-11.27v11.253h11.27v-11.253z" fill="#4CA52D"/><path d="M1256.73 134.788h-11.27v11.253h11.27v-11.253zm0-11.253h-11.27v11.253h11.27v-11.253z" fill="#FFD5AD"/><path d="M1256.73 112.361h-11.27v11.253h11.27v-11.253zm0-11.254h-11.27v11.254h11.27v-11.254zm0-11.253h-11.27v11.253h11.27V89.854z" fill="#FFD5AD"/><path d="M1256.73 78.68h-11.27v11.254h11.27V78.68zm0-11.253h-11.27V78.68h11.27V67.427z" fill="#414042"/><path d="M1245.54 224.575h-11.27v11.254h11.27v-11.254zm0-11.253h-11.27v11.253h11.27v-11.253z" fill="#FFD5AD"/><path d="M1245.54 202.069h-11.27v11.253h11.27v-11.253z" fill="#1A9149"/><path d="M1245.54 190.895h-11.27v11.253h11.27v-11.253z" fill="#1A9149"/><path d="M1245.54 179.642h-11.27v11.253h11.27v-11.253z" fill="#4CA52D"/><path d="M1245.54 112.361h-11.27v11.253h11.27v-11.253zm0-11.254h-11.27v11.254h11.27v-11.254z" fill="#FFD5AD"/><path d="M1245.54 89.854h-11.27v11.253h11.27V89.854z" fill="#594A42"/><path d="M1234.27 224.575H1223v11.254h11.27v-11.254zm0-11.253H1223v11.253h11.27v-11.253z" fill="#FFD5AD"/><path d="M1234.27 202.069H1223v11.253h11.27v-11.253z" fill="#4CA52D"/><path d="M1234.27 190.895H1223v11.253h11.27v-11.253z" fill="#4CA52D"/><path d="M134.898 223.162H123.63v11.253h11.268v-11.253zm0-11.253H123.63v11.253h11.268v-11.253z" fill="#FFD5AD"/><path d="M134.898 200.656H123.63v11.253h11.268v-11.253z" fill="#27AAE1"/><path d="M134.898 189.482H123.63v11.253h11.268v-11.253z" fill="#27AAE1"/><path d="M123.63 223.162h-11.268v11.253h11.268v-11.253zm0-11.253h-11.268v11.253h11.268v-11.253z" fill="#FFD5AD"/><path d="M123.63 200.656h-11.268v11.253h11.268v-11.253z" fill="#57C0E5"/><path d="M123.63 189.482h-11.268v11.253h11.268v-11.253z" fill="#57C0E5"/><path d="M123.63 178.229h-11.268v11.253h11.268v-11.253z" fill="#27AAE1"/><path d="M123.63 110.947h-11.268V122.2h11.268v-11.253zm0-11.253h-11.268v11.253h11.268V99.694z" fill="#FFD5AD"/><path d="M123.63 88.44h-11.268v11.254h11.268V88.44z" fill="#594A42"/><path d="M112.442 223.162h-11.268v11.253h11.268v-11.253z" fill="#27AAE1"/><path d="M112.442 211.909h-11.268v11.253h11.268v-11.253zm0-11.253h-11.268v11.253h11.268v-11.253z" fill="#57C0E5"/><path d="M112.442 189.482h-11.268v11.253h11.268v-11.253z" fill="#57C0E5"/><path d="M112.442 178.229h-11.268v11.253h11.268v-11.253z" fill="#27AAE1"/><path d="M112.442 167.054h-11.268v11.254h11.268v-11.254z" fill="#27AAE1"/><path d="M112.442 133.374h-11.268v11.253h11.268v-11.253zm0-11.253h-11.268v11.253h11.268v-11.253z" fill="#FFD5AD"/><path d="M112.442 110.947h-11.268V122.2h11.268v-11.253zm0-11.253h-11.268v11.253h11.268V99.694zm0-11.254h-11.268v11.254h11.268V88.44z" fill="#FFD5AD"/><path d="M112.442 77.267h-11.268V88.52h11.268V77.267zm0-11.253h-11.268v11.253h11.268V66.014z" fill="#414042"/><path d="M101.173 223.162H89.905v11.253h11.268v-11.253zm0-11.253H89.905v11.253h11.268v-11.253zm0-11.253H89.905v11.253h11.268v-11.253z" fill="#27AAE1"/><path d="M101.173 189.482H89.905v11.253h11.268v-11.253z" fill="#27AAE1"/><path d="M101.173 178.229H89.905v11.253h11.268v-11.253z" fill="#27AAE1"/><path d="M101.173 167.054H89.905v11.254h11.268v-11.254z" fill="#27AAE1"/><path d="M101.173 155.801H89.905v11.253h11.268v-11.253z" fill="#414042"/><path d="M101.173 144.548H89.905v11.253h11.268v-11.253z" fill="#FFD5AD"/><path d="M101.173 133.374H89.905v11.253h11.268v-11.253zm0-11.253H89.905v11.253h11.268v-11.253z" fill="#FFD5AD"/><path d="M101.173 110.947H89.905V122.2h11.268v-11.253z" fill="#fff"/><path d="M101.173 99.694H89.905v11.253h11.268V99.694zm0-11.254H89.905v11.254h11.268V88.44z" fill="#414042"/><path d="M101.173 77.267H89.905V88.52h11.268V77.267zm0-11.253H89.905v11.253h11.268V66.014z" fill="#414042"/><path d="M101.173 54.84H89.905v11.253h11.268V54.84z" fill="#414042"/><path d="M89.906 223.162H78.638v11.253h11.268v-11.253zm0-11.253H78.638v11.253h11.268v-11.253zm0-11.253H78.638v11.253h11.268v-11.253z" fill="#27AAE1"/><path d="M89.906 189.482H78.638v11.253h11.268v-11.253z" fill="#27AAE1"/><path d="M89.906 178.229H78.638v11.253h11.268v-11.253z" fill="#27AAE1"/><path d="M89.906 167.054H78.638v11.254h11.268v-11.254z" fill="#27AAE1"/><path d="M89.906 155.801H78.638v11.253h11.268v-11.253z" fill="#414042"/><path d="M89.906 144.548H78.638v11.253h11.268v-11.253z" fill="#FFD5AD"/><path d="M89.906 133.374H78.638v11.253h11.268v-11.253z" fill="#fff"/><path d="M89.906 122.121H78.638v11.253h11.268v-11.253z" fill="#FFD5AD"/><path d="M89.906 110.947H78.638V122.2h11.268v-11.253z" fill="#fff"/><path d="M89.906 99.694H78.638v11.253h11.268V99.694z" fill="#414042"/><path d="M89.906 88.44H78.638v11.254h11.268V88.44z" fill="#fff"/><path d="M89.906 77.267H78.638V88.52h11.268V77.267z" fill="#414042"/><path d="M89.906 66.014H78.638v11.253h11.268V66.014z" fill="#27AAE1"/><path d="M89.906 54.84H78.638v11.253h11.268V54.84z" fill="#27AAE1"/><path d="M78.717 223.162H67.45v11.253h11.268v-11.253zm0-11.253H67.45v11.253h11.268v-11.253z" fill="#00A79D"/><path d="M78.717 200.656H67.45v11.253h11.268v-11.253z" fill="#57C0E5"/><path d="M78.717 189.482H67.45v11.253h11.268v-11.253z" fill="#57C0E5"/><path d="M78.717 178.229H67.45v11.253h11.268v-11.253z" fill="#57C0E5"/><path d="M78.717 167.054H67.45v11.254h11.268v-11.254z" fill="#27AAE1"/><path d="M78.717 155.801H67.45v11.253h11.268v-11.253z" fill="#414042"/><path d="M78.717 144.548H67.45v11.253h11.268v-11.253z" fill="#fff"/><path d="M78.717 133.374H67.45v11.253h11.268v-11.253z" fill="#fff"/><path d="M78.717 122.121H67.45v11.253h11.268v-11.253z" fill="#FFD5AD"/><path d="M78.717 110.947H67.45V122.2h11.268v-11.253zm0-11.253H67.45v11.253h11.268V99.694zm0-11.254H67.45v11.254h11.268V88.44z" fill="#FFD5AD"/><path d="M78.717 77.267H67.45V88.52h11.268V77.267z" fill="#27AAE1"/><path d="M78.717 66.014H67.45v11.253h11.268V66.014z" fill="#57C0E5"/><path d="M78.717 54.84H67.45v11.253h11.268V54.84z" fill="#57C0E5"/><path d="M78.717 43.586H67.45V54.84h11.268V43.586z" fill="#27AAE1"/><path d="M67.45 223.162H56.182v11.253H67.45v-11.253zm0-11.253H56.182v11.253H67.45v-11.253z" fill="#00A79D"/><path d="M67.45 200.656H56.182v11.253H67.45v-11.253z" fill="#57C0E5"/><path d="M67.45 189.482H56.182v11.253H67.45v-11.253z" fill="#57C0E5"/><path d="M67.45 178.229H56.182v11.253H67.45v-11.253z" fill="#57C0E5"/><path d="M67.45 167.054H56.182v11.254H67.45v-11.254z" fill="#27AAE1"/><path d="M67.45 155.801H56.182v11.253H67.45v-11.253z" fill="#414042"/><path d="M67.45 144.548H56.182v11.253H67.45v-11.253z" fill="#fff"/><path d="M67.45 133.374H56.182v11.253H67.45v-11.253z" fill="#fff"/><path d="M67.45 122.121H56.182v11.253H67.45v-11.253z" fill="#FFD5AD"/><path d="M67.45 110.947H56.182V122.2H67.45v-11.253zm0-11.253H56.182v11.253H67.45V99.694zm0-11.254H56.182v11.254H67.45V88.44z" fill="#FFD5AD"/><path d="M67.45 77.267H56.182V88.52H67.45V77.267z" fill="#27AAE1"/><path d="M67.45 66.014H56.182v11.253H67.45V66.014z" fill="#57C0E5"/><path d="M67.45 54.84H56.182v11.253H67.45V54.84z" fill="#fff"/><path d="M67.45 43.586H56.182V54.84H67.45V43.586zM56.26 223.162H44.992v11.253H56.26v-11.253zm0-11.253H44.992v11.253H56.26v-11.253zm0-11.253H44.992v11.253H56.26v-11.253z" fill="#27AAE1"/><path d="M56.26 189.482H44.992v11.253H56.26v-11.253z" fill="#27AAE1"/><path d="M56.26 178.229H44.992v11.253H56.26v-11.253z" fill="#27AAE1"/><path d="M56.26 167.054H44.992v11.254H56.26v-11.254z" fill="#27AAE1"/><path d="M56.26 155.801H44.992v11.253H56.26v-11.253z" fill="#414042"/><path d="M56.26 144.548H44.992v11.253H56.26v-11.253z" fill="#FFD5AD"/><path d="M56.26 133.374H44.992v11.253H56.26v-11.253z" fill="#fff"/><path d="M56.26 122.121H44.992v11.253H56.26v-11.253z" fill="#FFD5AD"/><path d="M56.26 110.947H44.992V122.2H56.26v-11.253z" fill="#fff"/><path d="M56.26 99.694H44.992v11.253H56.26V99.694zm0-11.254H44.992v11.254H56.26V88.44z" fill="#414042"/><path d="M56.26 77.267H44.992V88.52H56.26V77.267z" fill="#414042"/><path d="M56.26 66.014H44.992v11.253H56.26V66.014z" fill="#27AAE1"/><path d="M56.26 54.84H44.992v11.253H56.26V54.84zM44.993 223.162H33.725v11.253h11.268v-11.253zm0-11.253H33.725v11.253h11.268v-11.253zm0-11.253H33.725v11.253h11.268v-11.253z" fill="#27AAE1"/><path d="M44.993 189.482H33.725v11.253h11.268v-11.253z" fill="#27AAE1"/><path d="M44.993 178.229H33.725v11.253h11.268v-11.253z" fill="#27AAE1"/><path d="M44.993 167.054H33.725v11.254h11.268v-11.254z" fill="#27AAE1"/><path d="M44.993 155.801H33.725v11.253h11.268v-11.253z" fill="#414042"/><path d="M44.993 144.548H33.725v11.253h11.268v-11.253z" fill="#FFD5AD"/><path d="M44.993 133.374H33.725v11.253h11.268v-11.253zm0-11.253H33.725v11.253h11.268v-11.253z" fill="#FFD5AD"/><path d="M44.993 110.947H33.725V122.2h11.268v-11.253z" fill="#fff"/><path d="M44.993 99.694H33.725v11.253h11.268V99.694z" fill="#414042"/><path d="M44.993 88.44H33.725v11.254h11.268V88.44z" fill="#fff"/><path d="M44.993 77.267H33.725V88.52h11.268V77.267zm0-11.253H33.725v11.253h11.268V66.014z" fill="#414042"/><path d="M44.993 54.84H33.725v11.253h11.268V54.84z" fill="#414042"/><path d="M33.725 223.162H22.457v11.253h11.268v-11.253z" fill="#27AAE1"/><path d="M33.725 211.909H22.457v11.253h11.268v-11.253zm0-11.253H22.457v11.253h11.268v-11.253z" fill="#57C0E5"/><path d="M33.725 189.482H22.457v11.253h11.268v-11.253z" fill="#57C0E5"/><path d="M33.725 178.229H22.457v11.253h11.268v-11.253z" fill="#27AAE1"/><path d="M33.725 167.054H22.457v11.254h11.268v-11.254z" fill="#27AAE1"/><path d="M33.725 133.374H22.457v11.253h11.268v-11.253zm0-11.253H22.457v11.253h11.268v-11.253z" fill="#FFD5AD"/><path d="M33.725 110.947H22.457V122.2h11.268v-11.253zm0-11.253H22.457v11.253h11.268V99.694zm0-11.254H22.457v11.254h11.268V88.44z" fill="#FFD5AD"/><path d="M33.725 77.267H22.457V88.52h11.268V77.267zm0-11.253H22.457v11.253h11.268V66.014z" fill="#414042"/><path d="M22.535 223.162H11.268v11.253h11.267v-11.253zm0-11.253H11.268v11.253h11.267v-11.253z" fill="#FFD5AD"/><path d="M22.535 200.656H11.268v11.253h11.267v-11.253z" fill="#57C0E5"/><path d="M22.535 189.482H11.268v11.253h11.267v-11.253z" fill="#57C0E5"/><path d="M22.535 178.229H11.268v11.253h11.267v-11.253z" fill="#27AAE1"/><path d="M22.535 110.947H11.268V122.2h11.267v-11.253zm0-11.253H11.268v11.253h11.267V99.694z" fill="#FFD5AD"/><path d="M22.535 88.44H11.268v11.254h11.267V88.44z" fill="#594A42"/><path d="M11.268 223.162H0v11.253h11.268v-11.253zm0-11.253H0v11.253h11.268v-11.253z" fill="#FFD5AD"/><path d="M11.268 200.656H0v11.253h11.268v-11.253z" fill="#27AAE1"/><path d="M11.268 189.482H0v11.253h11.268v-11.253z" fill="#27AAE1"/><path d="M319.717 223.162h-11.268v11.253h11.268v-11.253zm0-11.253h-11.268v11.253h11.268v-11.253z" fill="#FFD5AD"/><path d="M319.717 200.656h-11.268v11.253h11.268v-11.253z" fill="#052A60"/><path d="M319.717 189.482h-11.268v11.253h11.268v-11.253z" fill="#052A60"/><path d="M308.529 223.162h-11.268v11.253h11.268v-11.253z" fill="#F7941E"/><path d="M308.529 211.909h-11.268v11.253h11.268v-11.253z" fill="#594A42"/><path d="M308.529 200.656h-11.268v11.253h11.268v-11.253z" fill="#052A60"/><path d="M308.529 189.482h-11.268v11.253h11.268v-11.253z" fill="#052A60"/><path d="M308.529 178.229h-11.268v11.253h11.268v-11.253z" fill="#052A60"/><path d="M308.529 110.947h-11.268V122.2h11.268v-11.253zm0-11.253h-11.268v11.253h11.268V99.694z" fill="#FFD5AD"/><path d="M308.529 88.44h-11.268v11.254h11.268V88.44z" fill="#594A42"/><path d="M308.529 77.267h-11.268V88.52h11.268V77.267zM297.26 223.162h-11.268v11.253h11.268v-11.253zm0-11.253h-11.268v11.253h11.268v-11.253zm0-11.253h-11.268v11.253h11.268v-11.253z" fill="#F7941E"/><path d="M297.26 189.482h-11.268v11.253h11.268v-11.253z" fill="#F7941E"/><path d="M297.26 178.229h-11.268v11.253h11.268v-11.253z" fill="#F7941E"/><path d="M297.26 167.054h-11.268v11.254h11.268v-11.254z" fill="#F7941E"/><path d="M297.26 133.374h-11.268v11.253h11.268v-11.253zm0-11.253h-11.268v11.253h11.268v-11.253z" fill="#FFD5AD"/><path d="M297.26 110.947h-11.268V122.2h11.268v-11.253zm0-11.253h-11.268v11.253h11.268V99.694zm0-11.254h-11.268v11.254h11.268V88.44z" fill="#FFD5AD"/><path d="M297.26 77.267h-11.268V88.52h11.268V77.267zm0-11.253h-11.268v11.253h11.268V66.014zm-11.267 157.148h-11.268v11.253h11.268v-11.253z" fill="#F7941E"/><path d="M285.993 211.909h-11.268v11.253h11.268v-11.253zm0-11.253h-11.268v11.253h11.268v-11.253z" fill="#FBB040"/><path d="M285.993 189.482h-11.268v11.253h11.268v-11.253z" fill="#FBB040"/><path d="M285.993 178.229h-11.268v11.253h11.268v-11.253z" fill="#052A60"/><path d="M285.993 167.054h-11.268v11.254h11.268v-11.254zm0-11.253h-11.268v11.253h11.268v-11.253z" fill="#052A60"/><path d="M285.993 144.548h-11.268v11.253h11.268v-11.253z" fill="#FFD5AD"/><path d="M285.993 133.374h-11.268v11.253h11.268v-11.253zm0-11.253h-11.268v11.253h11.268v-11.253z" fill="#FFD5AD"/><path d="M285.993 110.947h-11.268V122.2h11.268v-11.253z" fill="#fff"/><path d="M285.993 99.694h-11.268v11.253h11.268V99.694zm0-11.254h-11.268v11.254h11.268V88.44z" fill="#414042"/><path d="M285.993 77.267h-11.268V88.52h11.268V77.267zm0-11.253h-11.268v11.253h11.268V66.014z" fill="#F7941E"/><path d="M285.993 54.84h-11.268v11.253h11.268V54.84zm-11.189 168.322h-11.268v11.253h11.268v-11.253z" fill="#F7941E"/><path d="M274.804 211.909h-11.268v11.253h11.268v-11.253zm0-11.253h-11.268v11.253h11.268v-11.253z" fill="#FBB040"/><path d="M274.804 189.482h-11.268v11.253h11.268v-11.253z" fill="#052A60"/><path d="M274.804 178.229h-11.268v11.253h11.268v-11.253z" fill="#052A60"/><path d="M274.804 167.054h-11.268v11.254h11.268v-11.254z" fill="#052A60"/><path d="M274.804 155.801h-11.268v11.253h11.268v-11.253z" fill="#E5B085"/><path d="M274.804 144.548h-11.268v11.253h11.268v-11.253z" fill="#FFD5AD"/><path d="M274.804 133.374h-11.268v11.253h11.268v-11.253z" fill="#fff"/><path d="M274.804 122.121h-11.268v11.253h11.268v-11.253z" fill="#FFD5AD"/><path d="M274.804 110.947h-11.268V122.2h11.268v-11.253z" fill="#fff"/><path d="M274.804 99.694h-11.268v11.253h11.268V99.694z" fill="#414042"/><path d="M274.804 88.44h-11.268v11.254h11.268V88.44z" fill="#fff"/><path d="M274.804 77.267h-11.268V88.52h11.268V77.267zm0-11.253h-11.268v11.253h11.268V66.014z" fill="#FBB040"/><path d="M274.804 54.84h-11.268v11.253h11.268V54.84z" fill="#FBB040"/><path d="M263.536 223.162h-11.267v11.253h11.267v-11.253z" fill="#F7941E"/><path d="M263.536 211.909h-11.267v11.253h11.267v-11.253z" fill="#FBB040"/><path d="M263.536 200.656h-11.267v11.253h11.267v-11.253z" fill="#052A60"/><path d="M263.536 189.482h-11.267v11.253h11.267v-11.253z" fill="#052A60"/><path d="M263.536 178.229h-11.267v11.253h11.267v-11.253z" fill="#E5B085"/><path d="M263.536 167.054h-11.267v11.254h11.267v-11.254zm0-11.253h-11.267v11.253h11.267v-11.253z" fill="#E5B085"/><path d="M263.536 144.548h-11.267v11.253h11.267v-11.253z" fill="#fff"/><path d="M263.536 133.374h-11.267v11.253h11.267v-11.253z" fill="#fff"/><path d="M263.536 122.121h-11.267v11.253h11.267v-11.253z" fill="#594A42"/><path d="M263.536 110.947h-11.267V122.2h11.267v-11.253zm0-11.253h-11.267v11.253h11.267V99.694zm0-11.254h-11.267v11.254h11.267V88.44z" fill="#FFD5AD"/><path d="M263.536 77.267h-11.267V88.52h11.267V77.267z" fill="#FBB040"/><path d="M263.536 66.014h-11.267v11.253h11.267V66.014z" fill="#F15A29"/><path d="M263.536 54.84h-11.267v11.253h11.267V54.84zm0-11.254h-11.267V54.84h11.267V43.586z" fill="#F15A29"/><path d="M252.348 223.162H241.08v11.253h11.268v-11.253z" fill="#F7941E"/><path d="M252.348 211.909H241.08v11.253h11.268v-11.253z" fill="#FBB040"/><path d="M252.348 200.656H241.08v11.253h11.268v-11.253z" fill="#052A60"/><path d="M252.348 189.482H241.08v11.253h11.268v-11.253z" fill="#052A60"/><path d="M252.348 178.229H241.08v11.253h11.268v-11.253z" fill="#E5B085"/><path d="M252.348 167.054H241.08v11.254h11.268v-11.254zm0-11.253H241.08v11.253h11.268v-11.253z" fill="#E5B085"/><path d="M252.348 144.548H241.08v11.253h11.268v-11.253z" fill="#fff"/><path d="M252.348 133.374H241.08v11.253h11.268v-11.253z" fill="#fff"/><path d="M252.348 122.121H241.08v11.253h11.268v-11.253z" fill="#594A42"/><path d="M252.348 110.947H241.08V122.2h11.268v-11.253zm0-11.253H241.08v11.253h11.268V99.694zm0-11.254H241.08v11.254h11.268V88.44z" fill="#FFD5AD"/><path d="M252.348 77.267H241.08V88.52h11.268V77.267z" fill="#FBB040"/><path d="M252.348 66.014H241.08v11.253h11.268V66.014z" fill="#F15A29"/><path d="M252.348 54.84H241.08v11.253h11.268V54.84zm0-11.254H241.08V54.84h11.268V43.586z" fill="#F15A29"/><path d="M241.079 223.162h-11.267v11.253h11.267v-11.253z" fill="#F7941E"/><path d="M241.079 211.909h-11.267v11.253h11.267v-11.253zm0-11.253h-11.267v11.253h11.267v-11.253z" fill="#FBB040"/><path d="M241.079 189.482h-11.267v11.253h11.267v-11.253z" fill="#052A60"/><path d="M241.079 178.229h-11.267v11.253h11.267v-11.253z" fill="#052A60"/><path d="M241.079 167.054h-11.267v11.254h11.267v-11.254z" fill="#052A60"/><path d="M241.079 155.801h-11.267v11.253h11.267v-11.253z" fill="#E5B085"/><path d="M241.079 144.548h-11.267v11.253h11.267v-11.253z" fill="#FFD5AD"/><path d="M241.079 133.374h-11.267v11.253h11.267v-11.253z" fill="#fff"/><path d="M241.079 122.121h-11.267v11.253h11.267v-11.253z" fill="#FFD5AD"/><path d="M241.079 110.947h-11.267V122.2h11.267v-11.253z" fill="#fff"/><path d="M241.079 99.694h-11.267v11.253h11.267V99.694zm0-11.254h-11.267v11.254h11.267V88.44z" fill="#414042"/><path d="M241.079 77.267h-11.267V88.52h11.267V77.267zm0-11.253h-11.267v11.253h11.267V66.014z" fill="#FBB040"/><path d="M241.079 54.84h-11.267v11.253h11.267V54.84z" fill="#FBB040"/><path d="M229.812 223.162h-11.268v11.253h11.268v-11.253z" fill="#F7941E"/><path d="M229.812 211.909h-11.268v11.253h11.268v-11.253zm0-11.253h-11.268v11.253h11.268v-11.253z" fill="#FBB040"/><path d="M229.812 189.482h-11.268v11.253h11.268v-11.253z" fill="#FBB040"/><path d="M229.812 178.229h-11.268v11.253h11.268v-11.253z" fill="#052A60"/><path d="M229.812 167.054h-11.268v11.254h11.268v-11.254zm0-11.253h-11.268v11.253h11.268v-11.253z" fill="#052A60"/><path d="M229.812 144.548h-11.268v11.253h11.268v-11.253z" fill="#FFD5AD"/><path d="M229.812 133.374h-11.268v11.253h11.268v-11.253zm0-11.253h-11.268v11.253h11.268v-11.253z" fill="#FFD5AD"/><path d="M229.812 110.947h-11.268V122.2h11.268v-11.253z" fill="#fff"/><path d="M229.812 99.694h-11.268v11.253h11.268V99.694z" fill="#414042"/><path d="M229.812 88.44h-11.268v11.254h11.268V88.44z" fill="#fff"/><path d="M229.812 77.267h-11.268V88.52h11.268V77.267zm0-11.253h-11.268v11.253h11.268V66.014z" fill="#F7941E"/><path d="M229.812 54.84h-11.268v11.253h11.268V54.84zm-11.189 168.322h-11.268v11.253h11.268v-11.253zm0-11.253h-11.268v11.253h11.268v-11.253zm0-11.253h-11.268v11.253h11.268v-11.253z" fill="#F7941E"/><path d="M218.623 189.482h-11.268v11.253h11.268v-11.253z" fill="#F7941E"/><path d="M218.623 178.229h-11.268v11.253h11.268v-11.253z" fill="#F7941E"/><path d="M218.623 167.054h-11.268v11.254h11.268v-11.254z" fill="#F7941E"/><path d="M218.623 133.374h-11.268v11.253h11.268v-11.253zm0-11.253h-11.268v11.253h11.268v-11.253z" fill="#FFD5AD"/><path d="M218.623 110.947h-11.268V122.2h11.268v-11.253zm0-11.253h-11.268v11.253h11.268V99.694zm0-11.254h-11.268v11.254h11.268V88.44z" fill="#FFD5AD"/><path d="M218.623 77.267h-11.268V88.52h11.268V77.267zm0-11.253h-11.268v11.253h11.268V66.014zm-11.268 157.148h-11.268v11.253h11.268v-11.253z" fill="#F7941E"/><path d="M207.355 211.909h-11.268v11.253h11.268v-11.253z" fill="#594A42"/><path d="M207.355 200.656h-11.268v11.253h11.268v-11.253z" fill="#052A60"/><path d="M207.355 189.482h-11.268v11.253h11.268v-11.253z" fill="#052A60"/><path d="M207.355 178.229h-11.268v11.253h11.268v-11.253z" fill="#052A60"/><path d="M207.355 110.947h-11.268V122.2h11.268v-11.253zm0-11.253h-11.268v11.253h11.268V99.694z" fill="#FFD5AD"/><path d="M207.355 88.44h-11.268v11.254h11.268V88.44z" fill="#594A42"/><path d="M207.355 77.267h-11.268V88.52h11.268V77.267z" fill="#F7941E"/><path d="M196.166 223.162h-11.268v11.253h11.268v-11.253zm0-11.253h-11.268v11.253h11.268v-11.253z" fill="#FFD5AD"/><path d="M196.166 200.656h-11.268v11.253h11.268v-11.253z" fill="#052A60"/><path d="M196.166 189.482h-11.268v11.253h11.268v-11.253z" fill="#052A60"/><path d="M527.073 224.43h-11.268v11.253h11.268V224.43z" fill="#F7941E"/><path d="M527.073 213.256h-11.268v11.253h11.268v-11.253z" fill="#FBB040"/><path d="M527.073 202.003h-11.268v11.253h11.268v-11.253z" fill="#414042"/><path d="M527.073 190.75h-11.268v11.253h11.268V190.75z" fill="#B8956B"/><path d="M527.073 67.36h-11.268v11.254h11.268V67.361zm0-11.252h-11.268V67.36h11.268V56.108z" fill="#6D5F58"/><path d="M527.073 44.934h-11.268v11.253h11.268V44.934z" fill="#6D5F58"/><path d="M515.884 224.43h-11.268v11.253h11.268V224.43z" fill="#414042"/><path d="M515.884 213.256h-11.268v11.253h11.268v-11.253zm0-11.253h-11.268v11.253h11.268v-11.253z" fill="#414042"/><path d="M515.884 190.75h-11.268v11.253h11.268V190.75z" fill="#B8956B"/><path d="M515.884 179.576h-11.268v11.253h11.268v-11.253z" fill="#414042"/><path d="M515.884 67.36h-11.268v11.254h11.268V67.361z" fill="#6D5F58"/><path d="M515.884 56.108h-11.268V67.36h11.268V56.108z" fill="#594A42"/><path d="M515.884 44.934h-11.268v11.253h11.268V44.934z" fill="#594A42"/><path d="M504.616 224.43h-11.268v11.253h11.268V224.43z" fill="#FFD5AD"/><path d="M504.616 213.256h-11.268v11.253h11.268v-11.253z" fill="#FFD5AD"/><path d="M504.616 202.003h-11.268v11.253h11.268v-11.253zm0-11.253h-11.268v11.253h11.268V190.75z" fill="#B8956B"/><path d="M504.616 179.576h-11.268v11.253h11.268v-11.253z" fill="#414042"/><path d="M504.616 168.323h-11.268v11.253h11.268v-11.253z" fill="#414042"/><path d="M504.616 112.215h-11.268v11.253h11.268v-11.253z" fill="#FFD5AD"/><path d="M504.616 101.041h-11.268v11.253h11.268v-11.253z" fill="#FFD5AD"/><path d="M504.616 89.788h-11.268v11.253h11.268V89.788zm0-11.253h-11.268v11.253h11.268V78.535z" fill="#594A42"/><path d="M504.616 67.36h-11.268v11.254h11.268V67.361z" fill="#6D5F58"/><path d="M504.616 56.108h-11.268V67.36h11.268V56.108z" fill="#594A42"/><path d="M493.427 224.43h-11.268v11.253h11.268V224.43z" fill="#B8956B"/><path d="M493.427 213.256h-11.268v11.253h11.268v-11.253zm0-11.253h-11.268v11.253h11.268v-11.253zm0-11.253h-11.268v11.253h11.268V190.75z" fill="#B8956B"/><path d="M493.427 179.576h-11.268v11.253h11.268v-11.253z" fill="#B8956B"/><path d="M493.427 168.323h-11.268v11.253h11.268v-11.253z" fill="#414042"/><path d="M493.427 134.642h-11.268v11.253h11.268v-11.253z" fill="#FFD5AD"/><path d="M493.427 123.468h-11.268v11.253h11.268v-11.253zm0-11.253h-11.268v11.253h11.268v-11.253z" fill="#FFD5AD"/><path d="M493.427 101.041h-11.268v11.253h11.268v-11.253zm0-11.253h-11.268v11.253h11.268V89.788z" fill="#FFD5AD"/><path d="M493.427 78.535h-11.268v11.253h11.268V78.535z" fill="#594A42"/><path d="M493.427 67.36h-11.268v11.254h11.268V67.361zm0-11.252h-11.268V67.36h11.268V56.108z" fill="#594A42"/><path d="M482.16 224.43h-11.268v11.253h11.268V224.43z" fill="#B8956B"/><path d="M482.16 213.256h-11.268v11.253h11.268v-11.253zm0-11.253h-11.268v11.253h11.268v-11.253zm0-11.253h-11.268v11.253h11.268V190.75z" fill="#B8956B"/><path d="M482.16 179.576h-11.268v11.253h11.268v-11.253z" fill="#5E5E5E"/><path d="M482.16 168.323h-11.268v11.253h11.268v-11.253z" fill="#B8956B"/><path d="M482.16 145.895h-11.268v11.253h11.268v-11.253zm0-11.253h-11.268v11.253h11.268v-11.253z" fill="#FFD5AD"/><path d="M482.16 123.468h-11.268v11.253h11.268v-11.253z" fill="#FFD5AD"/><path d="M482.16 112.215h-11.268v11.253h11.268v-11.253z" fill="#fff"/><path d="M482.16 101.041h-11.268v11.253h11.268v-11.253zm0-11.253h-11.268v11.253h11.268V89.788z" fill="#414042"/><path d="M482.16 78.535h-11.268v11.253h11.268V78.535z" fill="#594A42"/><path d="M482.16 67.36h-11.268v11.254h11.268V67.361zm0-11.252h-11.268V67.36h11.268V56.108z" fill="#594A42"/><path d="M482.16 44.934h-11.268v11.253h11.268V44.934z" fill="#594A42"/><path d="M482.16 33.68h-11.268v11.254h11.268V33.68zm0-11.253h-11.268V33.68h11.268V22.427z" fill="#6D5F58"/><path d="M470.891 224.43h-11.268v11.253h11.268V224.43z" fill="#B8956B"/><path d="M470.891 213.256h-11.268v11.253h11.268v-11.253zm0-11.253h-11.268v11.253h11.268v-11.253z" fill="#B8956B"/><path d="M470.891 190.75h-11.268v11.253h11.268V190.75z" fill="#5E5E5E"/><path d="M470.891 179.576h-11.268v11.253h11.268v-11.253z" fill="#414042"/><path d="M470.891 168.323h-11.268v11.253h11.268v-11.253z" fill="#B8956B"/><path d="M470.891 157.148h-11.268v11.254h11.268v-11.254z" fill="#E5B085"/><path d="M470.891 145.895h-11.268v11.253h11.268v-11.253z" fill="#FFD5AD"/><path d="M470.891 134.642h-11.268v11.253h11.268v-11.253z" fill="#fff"/><path d="M470.891 123.468h-11.268v11.253h11.268v-11.253z" fill="#FFD5AD"/><path d="M470.891 112.215h-11.268v11.253h11.268v-11.253z" fill="#fff"/><path d="M470.891 101.041h-11.268v11.253h11.268v-11.253z" fill="#414042"/><path d="M470.891 89.788h-11.268v11.253h11.268V89.788z" fill="#fff"/><path d="M470.891 78.535h-11.268v11.253h11.268V78.535z" fill="#594A42"/><path d="M470.891 67.36h-11.268v11.254h11.268V67.361zm0-11.252h-11.268V67.36h11.268V56.108z" fill="#594A42"/><path d="M470.891 44.934h-11.268v11.253h11.268V44.934z" fill="#F7941E"/><path d="M470.891 33.68h-11.268v11.254h11.268V33.68z" fill="#594A42"/><path d="M470.891 22.427h-11.268V33.68h11.268V22.427z" fill="#6D5F58"/><path d="M459.703 224.43h-11.268v11.253h11.268V224.43z" fill="#414042"/><path d="M459.703 213.256h-11.268v11.253h11.268v-11.253zm0-11.253h-11.268v11.253h11.268v-11.253zm0-11.253h-11.268v11.253h11.268V190.75z" fill="#414042"/><path d="M459.703 179.576h-11.268v11.253h11.268v-11.253z" fill="#414042"/><path d="M459.703 168.323h-11.268v11.253h11.268v-11.253z" fill="#E5B085"/><path d="M459.703 157.148h-11.268v11.254h11.268v-11.254z" fill="#594A42"/><path d="M459.703 145.895h-11.268v11.253h11.268v-11.253zm0-11.253h-11.268v11.253h11.268v-11.253z" fill="#fff"/><path d="M459.703 123.468h-11.268v11.253h11.268v-11.253zm0-11.253h-11.268v11.253h11.268v-11.253z" fill="#FFD5AD"/><path d="M459.703 101.041h-11.268v11.253h11.268v-11.253zm0-11.253h-11.268v11.253h11.268V89.788z" fill="#FFD5AD"/><path d="M459.703 78.535h-11.268v11.253h11.268V78.535z" fill="#594A42"/><path d="M459.703 67.36h-11.268v11.254h11.268V67.361z" fill="#594A42"/><path d="M459.703 56.108h-11.268V67.36h11.268V56.108z" fill="#F7941E"/><path d="M459.703 44.934h-11.268v11.253h11.268V44.934zm0-11.254h-11.268v11.254h11.268V33.68z" fill="#FBB040"/><path d="M459.703 22.427h-11.268V33.68h11.268V22.427z" fill="#594A42"/><path d="M448.435 224.43h-11.268v11.253h11.268V224.43z" fill="#414042"/><path d="M448.435 213.256h-11.268v11.253h11.268v-11.253zm0-11.253h-11.268v11.253h11.268v-11.253zm0-11.253h-11.268v11.253h11.268V190.75z" fill="#414042"/><path d="M448.435 179.576h-11.268v11.253h11.268v-11.253z" fill="#414042"/><path d="M448.435 168.323h-11.268v11.253h11.268v-11.253z" fill="#E5B085"/><path d="M448.435 157.148h-11.268v11.254h11.268v-11.254z" fill="#594A42"/><path d="M448.435 145.895h-11.268v11.253h11.268v-11.253zm0-11.253h-11.268v11.253h11.268v-11.253z" fill="#fff"/><path d="M448.435 123.468h-11.268v11.253h11.268v-11.253zm0-11.253h-11.268v11.253h11.268v-11.253z" fill="#FFD5AD"/><path d="M448.435 101.041h-11.268v11.253h11.268v-11.253zm0-11.253h-11.268v11.253h11.268V89.788z" fill="#FFD5AD"/><path d="M448.435 78.535h-11.268v11.253h11.268V78.535z" fill="#594A42"/><path d="M448.435 67.36h-11.268v11.254h11.268V67.361z" fill="#594A42"/><path d="M448.435 56.108h-11.268V67.36h11.268V56.108z" fill="#F7941E"/><path d="M448.435 44.934h-11.268v11.253h11.268V44.934zm0-11.254h-11.268v11.254h11.268V33.68z" fill="#FBB040"/><path d="M448.435 22.427h-11.268V33.68h11.268V22.427z" fill="#594A42"/><path d="M437.167 224.43h-11.268v11.253h11.268V224.43z" fill="#B8956B"/><path d="M437.167 213.256h-11.268v11.253h11.268v-11.253zm0-11.253h-11.268v11.253h11.268v-11.253z" fill="#B8956B"/><path d="M437.167 190.75h-11.268v11.253h11.268V190.75z" fill="#5E5E5E"/><path d="M437.167 179.576h-11.268v11.253h11.268v-11.253z" fill="#414042"/><path d="M437.167 168.323h-11.268v11.253h11.268v-11.253z" fill="#B8956B"/><path d="M437.167 157.148h-11.268v11.254h11.268v-11.254z" fill="#E5B085"/><path d="M437.167 145.895h-11.268v11.253h11.268v-11.253z" fill="#FFD5AD"/><path d="M437.167 134.642h-11.268v11.253h11.268v-11.253z" fill="#fff"/><path d="M437.167 123.468h-11.268v11.253h11.268v-11.253z" fill="#FFD5AD"/><path d="M437.167 112.215h-11.268v11.253h11.268v-11.253z" fill="#fff"/><path d="M437.167 101.041h-11.268v11.253h11.268v-11.253zm0-11.253h-11.268v11.253h11.268V89.788z" fill="#414042"/><path d="M437.167 78.535h-11.268v11.253h11.268V78.535z" fill="#594A42"/><path d="M437.167 67.36h-11.268v11.254h11.268V67.361zm0-11.252h-11.268V67.36h11.268V56.108z" fill="#594A42"/><path d="M437.167 44.934h-11.268v11.253h11.268V44.934z" fill="#F7941E"/><path d="M437.167 33.68h-11.268v11.254h11.268V33.68zm0-11.253h-11.268V33.68h11.268V22.427z" fill="#594A42"/><path d="M425.978 224.43H414.71v11.253h11.268V224.43z" fill="#B8956B"/><path d="M425.978 213.256H414.71v11.253h11.268v-11.253zm0-11.253H414.71v11.253h11.268v-11.253zm0-11.253H414.71v11.253h11.268V190.75z" fill="#B8956B"/><path d="M425.978 179.576H414.71v11.253h11.268v-11.253z" fill="#5E5E5E"/><path d="M425.978 168.323H414.71v11.253h11.268v-11.253z" fill="#B8956B"/><path d="M425.978 145.895H414.71v11.253h11.268v-11.253zm0-11.253H414.71v11.253h11.268v-11.253z" fill="#FFD5AD"/><path d="M425.978 123.468H414.71v11.253h11.268v-11.253z" fill="#FFD5AD"/><path d="M425.978 112.215H414.71v11.253h11.268v-11.253z" fill="#fff"/><path d="M425.978 101.041H414.71v11.253h11.268v-11.253z" fill="#414042"/><path d="M425.978 89.788H414.71v11.253h11.268V89.788z" fill="#fff"/><path d="M425.978 78.535H414.71v11.253h11.268V78.535z" fill="#594A42"/><path d="M425.978 67.36H414.71v11.254h11.268V67.361zm0-11.252H414.71V67.36h11.268V56.108z" fill="#594A42"/><path d="M425.978 44.934H414.71v11.253h11.268V44.934zm0-11.254H414.71v11.254h11.268V33.68zm0-11.253H414.71V33.68h11.268V22.427z" fill="#594A42"/><path d="M414.71 224.43h-11.268v11.253h11.268V224.43z" fill="#B8956B"/><path d="M414.71 213.256h-11.268v11.253h11.268v-11.253zm0-11.253h-11.268v11.253h11.268v-11.253zm0-11.253h-11.268v11.253h11.268V190.75z" fill="#B8956B"/><path d="M414.71 179.576h-11.268v11.253h11.268v-11.253z" fill="#B8956B"/><path d="M414.71 168.323h-11.268v11.253h11.268v-11.253z" fill="#414042"/><path d="M414.71 134.642h-11.268v11.253h11.268v-11.253z" fill="#FFD5AD"/><path d="M414.71 123.468h-11.268v11.253h11.268v-11.253zm0-11.253h-11.268v11.253h11.268v-11.253z" fill="#FFD5AD"/><path d="M414.71 101.041h-11.268v11.253h11.268v-11.253zm0-11.253h-11.268v11.253h11.268V89.788z" fill="#FFD5AD"/><path d="M414.71 78.535h-11.268v11.253h11.268V78.535z" fill="#594A42"/><path d="M414.71 67.36h-11.268v11.254h11.268V67.361zm0-11.252h-11.268V67.36h11.268V56.108z" fill="#594A42"/><path d="M403.522 224.43h-11.268v11.253h11.268V224.43z" fill="#FFD5AD"/><path d="M403.522 213.256h-11.268v11.253h11.268v-11.253z" fill="#FFD5AD"/><path d="M403.522 202.003h-11.268v11.253h11.268v-11.253zm0-11.253h-11.268v11.253h11.268V190.75z" fill="#B8956B"/><path d="M403.522 179.576h-11.268v11.253h11.268v-11.253z" fill="#414042"/><path d="M403.522 168.323h-11.268v11.253h11.268v-11.253z" fill="#414042"/><path d="M403.522 112.215h-11.268v11.253h11.268v-11.253z" fill="#FFD5AD"/><path d="M403.522 101.041h-11.268v11.253h11.268v-11.253z" fill="#FFD5AD"/><path d="M403.522 89.788h-11.268v11.253h11.268V89.788zm0-11.253h-11.268v11.253h11.268V78.535z" fill="#594A42"/><path d="M403.522 67.36h-11.268v11.254h11.268V67.361z" fill="#6D5F58"/><path d="M403.522 56.108h-11.268V67.36h11.268V56.108z" fill="#594A42"/><path d="M392.253 224.43h-11.268v11.253h11.268V224.43z" fill="#414042"/><path d="M392.253 213.256h-11.268v11.253h11.268v-11.253zm0-11.253h-11.268v11.253h11.268v-11.253z" fill="#414042"/><path d="M392.253 190.75h-11.268v11.253h11.268V190.75z" fill="#B8956B"/><path d="M392.253 179.576h-11.268v11.253h11.268v-11.253z" fill="#414042"/><path d="M392.253 67.36h-11.268v11.254h11.268V67.361z" fill="#6D5F58"/><path d="M392.253 56.108h-11.268V67.36h11.268V56.108z" fill="#594A42"/><path d="M392.253 44.934h-11.268v11.253h11.268V44.934z" fill="#594A42"/><path d="M380.986 224.43h-11.268v11.253h11.268V224.43z" fill="#F7941E"/><path d="M380.986 213.256h-11.268v11.253h11.268v-11.253z" fill="#FBB040"/><path d="M380.986 202.003h-11.268v11.253h11.268v-11.253z" fill="#414042"/><path d="M380.986 190.75h-11.268v11.253h11.268V190.75z" fill="#B8956B"/><path d="M380.986 67.36h-11.268v11.254h11.268V67.361zm0-11.252h-11.268V67.36h11.268V56.108z" fill="#6D5F58"/><path d="M380.986 44.934h-11.268v11.253h11.268V44.934z" fill="#6D5F58"/><path d="M700.703 213.256h-11.268v11.253h11.268v-11.253z" fill="#F7941E"/><path d="M655.789 67.36h-11.268v11.254h11.268V67.361z" fill="#414042"/><path d="M666.978 33.68H655.71v11.254h11.268V33.68z" fill="#BCBEC0"/><path d="M599.608 179.576H588.34v11.253h11.268v-11.253z" fill="#414042"/><path d="M655.789 89.788h-11.268v11.253h11.268V89.788z" fill="#FFD5AD"/><path d="M655.789 44.934h-11.268v11.253h11.268V44.934z" fill="#F7941E"/><path d="M633.332 202.003h-11.268v11.253h11.268v-11.253z" fill="#E6E7E8"/><path d="M655.789 22.427h-11.268V33.68h11.268V22.427z" fill="#BCBEC0"/><path d="M666.978 134.642H655.71v11.253h11.268v-11.253z" fill="#fff"/><path d="M711.97 224.43h-11.268v11.253h11.268V224.43zm-89.905-33.68h-11.268v11.253h11.268V190.75z" fill="#E6E7E8"/><path d="M633.332 179.576h-11.268v11.253h11.268v-11.253z" fill="#E6E7E8"/><path d="M678.246 112.215h-11.268v11.253h11.268v-11.253z" fill="#FFD5AD"/><path d="M633.332 101.041h-11.268v11.253h11.268v-11.253z" fill="#414042"/><path d="M622.065 123.468h-11.268v11.253h11.268v-11.253zM588.34 224.43h-11.268v11.253h11.268V224.43z" fill="#FFD5AD"/><path d="M610.797 224.43h-11.268v11.253h11.268V224.43zm0-33.68h-11.268v11.253h11.268V190.75z" fill="#E6E7E8"/><path d="M588.34 190.75h-11.268v11.253h11.268V190.75z" fill="#F7941E"/><path d="M599.608 202.003H588.34v11.253h11.268v-11.253z" fill="#E6E7E8"/><path d="M689.514 112.215h-11.268v11.253h11.268v-11.253z" fill="#FFD5AD"/><path d="M633.332 78.535h-11.268v11.253h11.268V78.535z" fill="#414042"/><path d="M734.427 213.256h-11.268v11.253h11.268v-11.253z" fill="#FFD5AD"/><path d="M711.97 190.75h-11.268v11.253h11.268V190.75zm-89.905 33.68h-11.268v11.253h11.268V224.43z" fill="#E6E7E8"/><path d="M711.97 67.36h-11.268v11.254h11.268V67.361z" fill="#594A42"/><path d="M610.797 89.788h-11.268v11.253h11.268V89.788z" fill="#FFD5AD"/><path d="M610.797 67.36h-11.268v11.254h11.268V67.361z" fill="#594A42"/><path d="M622.065 44.934h-11.268v11.253h11.268V44.934z" fill="#BCBEC0"/><path d="M711.97 89.788h-11.268v11.253h11.268V89.788z" fill="#FFD5AD"/><path d="M633.332 56.108h-11.268V67.36h11.268V56.108z" fill="#FBB040"/><path d="M622.065 89.788h-11.268v11.253h11.268V89.788z" fill="#FFD5AD"/><path d="M599.608 168.323H588.34v11.253h11.268v-11.253z" fill="#FBB040"/><path d="M622.065 67.36h-11.268v11.254h11.268V67.361z" fill="#414042"/><path d="M599.608 56.108H588.34V67.36h11.268V56.108z" fill="#FBB040"/><path d="M655.789 224.43h-11.268v11.253h11.268V224.43z" fill="#414042"/><path d="M700.703 33.68h-11.268v11.254h11.268V33.68z" fill="#E6E7E8"/><path d="M633.332 168.323h-11.268v11.253h11.268v-11.253z" fill="#BCBEC0"/><path d="M666.978 213.256H655.71v11.253h11.268v-11.253zm-11.189-22.506h-11.268v11.253h11.268V190.75z" fill="#414042"/><path d="M644.522 112.215h-11.268v11.253h11.268v-11.253z" fill="#FFD5AD"/><path d="M655.789 157.148h-11.268v11.254h11.268v-11.254z" fill="#E5B085"/><path d="M655.789 123.468h-11.268v11.253h11.268v-11.253z" fill="#fff"/><path d="M723.159 168.323h-11.268v11.253h11.268v-11.253z" fill="#FBB040"/><path d="M678.246 168.323h-11.268v11.253h11.268v-11.253z" fill="#414042"/><path d="M644.522 179.576h-11.268v11.253h11.268v-11.253zM622.065 33.68h-11.268v11.254h11.268V33.68z" fill="#BCBEC0"/><path d="M644.522 101.041h-11.268v11.253h11.268v-11.253z" fill="#414042"/><path d="M711.97 33.68h-11.268v11.254h11.268V33.68z" fill="#E6E7E8"/><path d="M644.522 78.535h-11.268v11.253h11.268V78.535z" fill="#414042"/><path d="M610.797 33.68h-11.268v11.254h11.268V33.68zm78.717 134.643h-11.268v11.253h11.268v-11.253z" fill="#BCBEC0"/><path d="M700.703 67.36h-11.268v11.254h11.268V67.361zm-44.914 145.896h-11.268v11.253h11.268v-11.253zm11.189-22.506H655.71v11.253h11.268V190.75z" fill="#414042"/><path d="M666.978 123.468H655.71v11.253h11.268v-11.253z" fill="#fff"/><path d="M689.514 56.108h-11.268V67.36h11.268V56.108z" fill="#FBB040"/><path d="M666.978 157.148H655.71v11.254h11.268v-11.254z" fill="#E5B085"/><path d="M700.703 89.788h-11.268v11.253h11.268V89.788z" fill="#FFD5AD"/><path d="M700.703 44.934h-11.268v11.253h11.268V44.934z" fill="#E6E7E8"/><path d="M678.246 145.895h-11.268v11.253h11.268v-11.253z" fill="#E5B085"/><path d="M678.246 56.108h-11.268V67.36h11.268V56.108zm44.913 0h-11.268V67.36h11.268V56.108z" fill="#FBB040"/><path d="M666.978 224.43H655.71v11.253h11.268V224.43z" fill="#414042"/><path d="M644.522 202.003h-11.268v11.253h11.268v-11.253z" fill="#E6E7E8"/><path d="M666.978 22.427H655.71V33.68h11.268V22.427z" fill="#BCBEC0"/><path d="M655.789 134.642h-11.268v11.253h11.268v-11.253z" fill="#fff"/><path d="M700.703 224.43h-11.268v11.253h11.268V224.43z" fill="#E6E7E8"/><path d="M678.246 78.535h-11.268v11.253h11.268V78.535z" fill="#414042"/><path d="M689.514 179.576h-11.268v11.253h11.268v-11.253z" fill="#BCBEC0"/><path d="M666.978 44.934H655.71v11.253h11.268V44.934z" fill="#F7941E"/><path d="M689.514 101.041h-11.268v11.253h11.268v-11.253z" fill="#414042"/><path d="M633.332 112.215h-11.268v11.253h11.268v-11.253z" fill="#FFD5AD"/><path d="M678.246 101.041h-11.268v11.253h11.268v-11.253z" fill="#414042"/><path d="M655.789 33.68h-11.268v11.254h11.268V33.68z" fill="#BCBEC0"/><path d="M689.514 78.535h-11.268v11.253h11.268V78.535zm33.645 101.041h-11.268v11.253h11.268v-11.253z" fill="#414042"/><path d="M666.978 89.788H655.71v11.253h11.268V89.788z" fill="#FFD5AD"/><path d="M678.246 179.576h-11.268v11.253h11.268v-11.253z" fill="#BCBEC0"/><path d="M666.978 67.36H655.71v11.254h11.268V67.361z" fill="#414042"/><path d="M700.703 190.75h-11.268v11.253h11.268V190.75z" fill="#E6E7E8"/><path d="M644.522 168.323h-11.268v11.253h11.268v-11.253z" fill="#414042"/><path d="M700.703 123.468h-11.268v11.253h11.268v-11.253z" fill="#FFD5AD"/><path d="M723.159 202.003h-11.268v11.253h11.268v-11.253zm-44.913 0h-11.268v11.253h11.268v-11.253z" fill="#E6E7E8"/><path d="M711.97 213.256h-11.268v11.253h11.268v-11.253zm22.457-22.506h-11.268v11.253h11.268V190.75z" fill="#F7941E"/><path d="M644.522 56.108h-11.268V67.36h11.268V56.108z" fill="#FBB040"/><path d="M610.797 213.256h-11.268v11.253h11.268v-11.253z" fill="#E6E7E8"/><path d="M644.522 145.895h-11.268v11.253h11.268v-11.253z" fill="#E5B085"/><path d="M588.34 213.256h-11.268v11.253h11.268v-11.253zm146.087 11.174h-11.268v11.253h11.268V224.43z" fill="#FFD5AD"/><path d="M622.065 213.256h-11.268v11.253h11.268v-11.253zm67.449-11.253h-11.268v11.253h11.268v-11.253zm-11.268 11.253h-11.268v11.253h11.268v-11.253zm-78.638-22.506H588.34v11.253h11.268V190.75zm123.551 22.506h-11.268v11.253h11.268v-11.253zm-11.189-11.253h-11.268v11.253h11.268v-11.253zm-101.173 0h-11.268v11.253h11.268v-11.253zm-22.457 0h-11.268v11.253h11.268v-11.253z" fill="#E6E7E8"/><path d="M655.789 145.895h-11.268v11.253h11.268v-11.253z" fill="#594A42"/><path d="M622.065 202.003h-11.268v11.253h11.268v-11.253z" fill="#E6E7E8"/><path d="M655.789 56.108h-11.268V67.36h11.268V56.108z" fill="#FBB040"/><path d="M689.514 213.256h-11.268v11.253h11.268v-11.253z" fill="#F7941E"/><path d="M599.608 224.43H588.34v11.253h11.268V224.43z" fill="#E6E7E8"/><path d="M655.789 168.323h-11.268v11.253h11.268v-11.253z" fill="#414042"/><path d="M610.797 78.535h-11.268v11.253h11.268V78.535zm89.906 33.68h-11.268v11.253h11.268v-11.253zm-67.371 11.253h-11.268v11.253h11.268v-11.253zm-11.267-22.427h-11.268v11.253h11.268v-11.253z" fill="#FFD5AD"/><path d="M633.332 157.148h-11.268v11.254h11.268v-11.254z" fill="#BCBEC0"/><path d="M622.065 179.576h-11.268v11.253h11.268v-11.253z" fill="#E6E7E8"/><path d="M711.97 78.535h-11.268v11.253h11.268V78.535z" fill="#FFD5AD"/><path d="M644.522 33.68h-11.268v11.254h11.268V33.68z" fill="#FBB040"/><path d="M633.332 190.75h-11.268v11.253h11.268V190.75zm0 33.68h-11.268v11.253h11.268V224.43z" fill="#E6E7E8"/><path d="M622.065 78.535h-11.268v11.253h11.268V78.535z" fill="#414042"/><path d="M711.97 179.576h-11.268v11.253h11.268v-11.253z" fill="#F7941E"/><path d="M711.97 101.041h-11.268v11.253h11.268v-11.253z" fill="#FFD5AD"/><path d="M588.34 179.576h-11.268v11.253h11.268v-11.253z" fill="#FBB040"/><path d="M644.522 134.642h-11.268v11.253h11.268v-11.253zm-33.725-33.601h-11.268v11.253h11.268v-11.253z" fill="#FFD5AD"/><path d="M610.797 179.576h-11.268v11.253h11.268v-11.253z" fill="#F7941E"/><path d="M655.789 202.003h-11.268v11.253h11.268v-11.253z" fill="#414042"/><path d="M622.065 56.108h-11.268V67.36h11.268V56.108z" fill="#FBB040"/><path d="M633.332 44.934h-11.268v11.253h11.268V44.934z" fill="#F7941E"/><path d="M633.332 22.427h-11.268V33.68h11.268V22.427z" fill="#BCBEC0"/><path d="M610.797 56.108h-11.268V67.36h11.268V56.108z" fill="#FBB040"/><path d="M633.332 67.36h-11.268v11.254h11.268V67.361z" fill="#414042"/><path d="M633.332 89.788h-11.268v11.253h11.268V89.788z" fill="#fff"/><path d="M666.978 112.215H655.71v11.253h11.268v-11.253z" fill="#FFD5AD"/><path d="M711.97 56.108h-11.268V67.36h11.268V56.108z" fill="#FBB040"/><path d="M644.522 213.256h-11.268v11.253h11.268v-11.253z" fill="#E6E7E8"/><path d="M678.246 134.642h-11.268v11.253h11.268v-11.253z" fill="#FFD5AD"/><path d="M711.97 168.323h-11.268v11.253h11.268v-11.253zm-56.181-89.788h-11.268v11.253h11.268V78.535zm-44.992 89.788h-11.268v11.253h11.268v-11.253z" fill="#414042"/><path d="M689.514 33.68h-11.268v11.254h11.268V33.68z" fill="#E6E7E8"/><path d="M678.246 33.68h-11.268v11.254h11.268V33.68z" fill="#FBB040"/><path d="M655.789 101.041h-11.268v11.253h11.268v-11.253z" fill="#FFD5AD"/><path d="M655.789 179.576h-11.268v11.253h11.268v-11.253zm-33.724-11.253h-11.268v11.253h11.268v-11.253z" fill="#414042"/><path d="M689.514 134.642h-11.268v11.253h11.268v-11.253z" fill="#FFD5AD"/><path d="M700.703 168.323h-11.268v11.253h11.268v-11.253z" fill="#414042"/><path d="M644.522 123.468h-11.268v11.253h11.268v-11.253z" fill="#fff"/><path d="M644.522 157.148h-11.268v11.254h11.268v-11.254z" fill="#E5B085"/><path d="M633.332 33.68h-11.268v11.254h11.268V33.68zm11.19 157.07h-11.268v11.253h11.268V190.75z" fill="#BCBEC0"/><path d="M655.789 112.215h-11.268v11.253h11.268v-11.253zm-22.457 22.427h-11.268v11.253h11.268v-11.253z" fill="#FFD5AD"/><path d="M644.522 224.43h-11.268v11.253h11.268V224.43z" fill="#E6E7E8"/><path d="M666.978 202.003H655.71v11.253h11.268v-11.253zM678.246 67.36h-11.268v11.254h11.268V67.361z" fill="#414042"/><path d="M689.514 22.427h-11.268V33.68h11.268V22.427z" fill="#E6E7E8"/><path d="M666.978 101.041H655.71v11.253h11.268v-11.253z" fill="#FFD5AD"/><path d="M689.514 44.934h-11.268v11.253h11.268V44.934z" fill="#F7941E"/><path d="M678.246 89.788h-11.268v11.253h11.268V89.788z" fill="#fff"/><path d="M666.978 179.576H655.71v11.253h11.268v-11.253zm0-101.041H655.71v11.253h11.268V78.535z" fill="#414042"/><path d="M678.246 44.934h-11.268v11.253h11.268V44.934z" fill="#F7941E"/><path d="M689.514 89.788h-11.268v11.253h11.268V89.788z" fill="#414042"/><path d="M678.246 22.427h-11.268V33.68h11.268V22.427z" fill="#E6E7E8"/><path d="M700.703 56.108h-11.268V67.36h11.268V56.108z" fill="#FBB040"/><path d="M689.514 67.36h-11.268v11.254h11.268V67.361z" fill="#414042"/><path d="M666.978 56.108H655.71V67.36h11.268V56.108z" fill="#FBB040"/><path d="M689.514 157.148h-11.268v11.254h11.268v-11.254z" fill="#BCBEC0"/><path d="M689.514 123.468h-11.268v11.253h11.268v-11.253z" fill="#FFD5AD"/><path d="M678.246 224.43h-11.268v11.253h11.268V224.43zm11.268-33.68h-11.268v11.253h11.268V190.75zm33.645 33.68h-11.268v11.253h11.268V224.43z" fill="#E6E7E8"/><path d="M666.978 145.895H655.71v11.253h11.268v-11.253z" fill="#594A42"/><path d="M700.703 78.535h-11.268v11.253h11.268V78.535z" fill="#414042"/><path d="M700.703 101.041h-11.268v11.253h11.268v-11.253z" fill="#FFD5AD"/><path d="M700.703 179.576h-11.268v11.253h11.268v-11.253zm22.456 11.174h-11.268v11.253h11.268V190.75zm-33.645 33.68h-11.268v11.253h11.268V224.43zm-89.906-11.174H588.34v11.253h11.268v-11.253z" fill="#E6E7E8"/><path d="M678.246 190.75h-11.268v11.253h11.268V190.75z" fill="#BCBEC0"/><path d="M678.246 123.468h-11.268v11.253h11.268v-11.253z" fill="#fff"/><path d="M678.246 157.148h-11.268v11.254h11.268v-11.254z" fill="#E5B085"/><path d="M734.427 202.003h-11.268v11.253h11.268v-11.253z" fill="#E6E7E8"/><path d="M622.065 112.215h-11.268v11.253h11.268v-11.253z" fill="#FFD5AD"/><path d="M700.703 202.003h-11.268v11.253h11.268v-11.253z" fill="#FBB040"/><path d="M644.522 22.427h-11.268V33.68h11.268V22.427z" fill="#BCBEC0"/><path d="M734.427 179.576h-11.268v11.253h11.268v-11.253z" fill="#FBB040"/><path d="M644.522 44.934h-11.268v11.253h11.268V44.934z" fill="#F7941E"/><path d="M644.522 89.788h-11.268v11.253h11.268V89.788z" fill="#414042"/><path d="M633.332 213.256h-11.268v11.253h11.268v-11.253z" fill="#E6E7E8"/><path d="M666.978 168.323H655.71v11.253h11.268v-11.253zM644.522 67.36h-11.268v11.254h11.268V67.361z" fill="#414042"/><path d="M908.058 224.43H896.79v11.253h11.268V224.43zm-89.906-56.107h-11.268v11.253h11.268v-11.253z" fill="#00A79D"/><path d="M908.058 123.468H896.79v11.253h11.268v-11.253z" fill="#FFD5AD"/><path d="M874.333 213.256h-11.268v11.253h11.268v-11.253z" fill="#00A79D"/><path d="M908.058 190.75H896.79v11.253h11.268V190.75zm-11.268-78.535h-11.268v11.253h11.268v-11.253z" fill="#E6E7E8"/><path d="M851.876 190.75h-11.268v11.253h11.268V190.75z" fill="#00A79D"/><path d="M851.876 123.468h-11.268v11.253h11.268v-11.253z" fill="#BCBEC0"/><path d="M851.876 157.148h-11.268v11.254h11.268v-11.254z" fill="#FFD5AD"/><path d="M885.522 89.788h-11.268v11.253h11.268V89.788z" fill="#fff"/><path d="M795.696 224.43h-11.268v11.253h11.268V224.43z" fill="#FFD5AD"/><path d="M885.522 67.36h-11.268v11.254h11.268V67.361z" fill="#fff"/><path d="M840.609 134.642h-11.268v11.253h11.268v-11.253z" fill="#BCBEC0"/><path d="M885.522 22.427h-11.268V33.68h11.268V22.427z" fill="#1CB7A8"/><path d="M863.066 112.215h-11.268v11.253h11.268v-11.253z" fill="#BCBEC0"/><path d="M818.152 56.108h-11.268V67.36h11.268V56.108zM795.696 190.75h-11.268v11.253h11.268V190.75zm89.826-145.816h-11.268v11.253h11.268V44.934zM851.876 224.43h-11.268v11.253h11.268V224.43zM840.609 33.68h-11.268v11.254h11.268V33.68zm11.267-11.253h-11.268V33.68h11.268V22.427z" fill="#00A79D"/><path d="M818.152 78.535h-11.268v11.253h11.268V78.535zm-11.268 134.721h-11.268v11.253h11.268v-11.253z" fill="#FFD5AD"/><path d="M851.876 44.934h-11.268v11.253h11.268V44.934zm33.646 179.496h-11.268v11.253h11.268V224.43zm-44.913-11.174h-11.268v11.253h11.268v-11.253zm44.913-22.506h-11.268v11.253h11.268V190.75z" fill="#00A79D"/><path d="M885.522 123.468h-11.268v11.253h11.268v-11.253z" fill="#BCBEC0"/><path d="M885.522 157.148h-11.268v11.254h11.268v-11.254z" fill="#FFD5AD"/><path d="M851.876 89.788h-11.268v11.253h11.268V89.788z" fill="#fff"/><path d="M851.876 67.36h-11.268v11.254h11.268V67.361z" fill="#414042"/><path d="M818.152 179.576h-11.268v11.253h11.268v-11.253z" fill="#00A79D"/><path d="M818.152 101.041h-11.268v11.253h11.268v-11.253z" fill="#BCBEC0"/><path d="M874.333 33.68h-11.268v11.254h11.268V33.68z" fill="#00A79D"/><path d="M908.058 89.788H896.79v11.253h11.268V89.788zm0-22.428H896.79v11.254h11.268V67.361z" fill="#FFD5AD"/><path d="M818.152 202.003h-11.268v11.253h11.268v-11.253z" fill="#00A79D"/><path d="M874.333 134.642h-11.268v11.253h11.268v-11.253zm-44.992-22.427h-11.268v11.253h11.268v-11.253z" fill="#BCBEC0"/><path d="M908.058 44.934H896.79v11.253h11.268V44.934z" fill="#1CB7A8"/><path d="M896.79 56.108h-11.268V67.36h11.268V56.108zM851.876 33.68h-11.268v11.254h11.268V33.68zm33.646 179.576h-11.268v11.253h11.268v-11.253zm-44.913 11.174h-11.268v11.253h11.268V224.43z" fill="#00A79D"/><path d="M829.341 101.041h-11.268v11.253h11.268v-11.253z" fill="#BCBEC0"/><path d="M930.514 179.576h-11.268v11.253h11.268v-11.253z" fill="#00A79D"/><path d="M806.884 224.43h-11.268v11.253h11.268V224.43z" fill="#FFD5AD"/><path d="M829.341 179.576h-11.268v11.253h11.268v-11.253zm11.268-22.428h-11.268v11.254h11.268v-11.254zm-33.725 33.602h-11.268v11.253h11.268V190.75z" fill="#00A79D"/><path d="M829.341 78.535h-11.268v11.253h11.268V78.535z" fill="#FFD5AD"/><path d="M840.609 123.468h-11.268v11.253h11.268v-11.253z" fill="#BCBEC0"/><path d="M863.066 168.323h-11.268v11.253h11.268v-11.253z" fill="#FFD5AD"/><path d="M919.247 56.108h-11.268V67.36h11.268V56.108zM840.609 190.75h-11.268v11.253h11.268V190.75z" fill="#00A79D"/><path d="M851.876 134.642h-11.268v11.253h11.268v-11.253z" fill="#BCBEC0"/><path d="M874.333 44.934h-11.268v11.253h11.268V44.934z" fill="#00A79D"/><path d="M863.066 145.895h-11.268v11.253h11.268v-11.253z" fill="#E5B085"/><path d="M919.247 168.323h-11.268v11.253h11.268v-11.253zM863.066 56.108h-11.268V67.36h11.268V56.108z" fill="#00A79D"/><path d="M874.333 22.427h-11.268V33.68h11.268V22.427z" fill="#1CB7A8"/><path d="M874.333 67.36h-11.268v11.254h11.268V67.361z" fill="#FFD5AD"/><path d="M896.79 168.323h-11.268v11.253h11.268v-11.253zm-67.449 33.68h-11.268v11.253h11.268v-11.253z" fill="#00A79D"/><path d="M874.333 89.788h-11.268v11.253h11.268V89.788z" fill="#FFD5AD"/><path d="M908.058 33.68H896.79v11.254h11.268V33.68z" fill="#1CB7A8"/><path d="M930.514 202.003h-11.268v11.253h11.268v-11.253zm-67.448-100.962h-11.268v11.253h11.268v-11.253zm0 78.535h-11.268v11.253h11.268v-11.253z" fill="#FFD5AD"/><path d="M919.247 202.003h-11.268v11.253h11.268v-11.253z" fill="#E6E7E8"/><path d="M874.333 190.75h-11.268v11.253h11.268V190.75z" fill="#00A79D"/><path d="M941.783 202.003h-11.268v11.253h11.268v-11.253z" fill="#FFD5AD"/><path d="M908.058 213.256H896.79v11.253h11.268v-11.253z" fill="#00A79D"/><path d="M874.333 123.468h-11.268v11.253h11.268v-11.253z" fill="#BCBEC0"/><path d="M874.333 157.148h-11.268v11.254h11.268v-11.254z" fill="#E5B085"/><path d="M874.333 224.43h-11.268v11.253h11.268V224.43z" fill="#00A79D"/><path d="M863.066 78.535h-11.268v11.253h11.268V78.535z" fill="#FFD5AD"/><path d="M829.341 168.323h-11.268v11.253h11.268v-11.253z" fill="#00A79D"/><path d="M896.79 202.003h-11.268v11.253h11.268v-11.253z" fill="#E6E7E8"/><path d="M930.514 168.323h-11.268v11.253h11.268v-11.253zM829.341 56.108h-11.268V67.36h11.268V56.108z" fill="#00A79D"/><path d="M795.696 213.256h-11.268v11.253h11.268v-11.253zM919.247 78.535h-11.268v11.253h11.268V78.535z" fill="#FFD5AD"/><path d="M840.609 89.788h-11.268v11.253h11.268V89.788z" fill="#fff"/><path d="M896.79 101.041h-11.268v11.253h11.268v-11.253z" fill="#FFD5AD"/><path d="M840.609 67.36h-11.268v11.254h11.268V67.361z" fill="#fff"/><path d="M885.522 134.642h-11.268v11.253h11.268v-11.253z" fill="#BCBEC0"/><path d="M896.79 179.576h-11.268v11.253h11.268v-11.253z" fill="#00A79D"/><path d="M896.79 78.535h-11.268v11.253h11.268V78.535z" fill="#414042"/><path d="M863.066 202.003h-11.268v11.253h11.268v-11.253zM840.609 22.427h-11.268V33.68h11.268V22.427zm44.913 11.253h-11.268v11.254h11.268V33.68z" fill="#00A79D"/><path d="M919.247 101.041h-11.268v11.253h11.268v-11.253z" fill="#E6E7E8"/><path d="M851.876 213.256h-11.268v11.253h11.268v-11.253zm67.371-33.68h-11.268v11.253h11.268v-11.253zm22.536 0h-11.268v11.253h11.268v-11.253zM840.609 44.934h-11.268v11.253h11.268V44.934z" fill="#00A79D"/><path d="M795.696 202.003h-11.268v11.253h11.268v-11.253zM908.058 78.535H896.79v11.253h11.268V78.535zm-22.536 89.788h-11.268v11.253h11.268v-11.253z" fill="#FFD5AD"/><path d="M863.066 213.256h-11.268v11.253h11.268v-11.253zm44.992-33.68H896.79v11.253h11.268v-11.253zm-56.182 22.427h-11.268v11.253h11.268v-11.253z" fill="#00A79D"/><path d="M908.058 101.041H896.79v11.253h11.268v-11.253z" fill="#E6E7E8"/><path d="M818.152 89.788h-11.268v11.253h11.268V89.788z" fill="#FFD5AD"/><path d="M829.341 33.68h-11.268v11.254h11.268V33.68z" fill="#00A79D"/><path d="M941.783 213.256h-11.268v11.253h11.268v-11.253zm-89.907-112.215h-11.268v11.253h11.268v-11.253z" fill="#FFD5AD"/><path d="M919.247 213.256h-11.268v11.253h11.268v-11.253z" fill="#00A79D"/><path d="M818.152 67.36h-11.268v11.254h11.268V67.361z" fill="#594A42"/><path d="M908.058 202.003H896.79v11.253h11.268v-11.253z" fill="#E6E7E8"/><path d="M851.876 179.576h-11.268v11.253h11.268v-11.253zm33.646-123.468h-11.268V67.36h11.268V56.108z" fill="#00A79D"/><path d="M851.876 78.535h-11.268v11.253h11.268V78.535z" fill="#414042"/><path d="M795.696 179.576h-11.268v11.253h11.268v-11.253z" fill="#00A79D"/><path d="M874.333 112.215h-11.268v11.253h11.268v-11.253z" fill="#BCBEC0"/><path d="M896.79 213.256h-11.268v11.253h11.268v-11.253z" fill="#00A79D"/><path d="M885.522 145.895h-11.268v11.253h11.268v-11.253z" fill="#E5B085"/><path d="M851.876 56.108h-11.268V67.36h11.268V56.108z" fill="#00A79D"/><path d="M885.522 78.535h-11.268v11.253h11.268V78.535z" fill="#414042"/><path d="M896.79 33.68h-11.268v11.254h11.268V33.68z" fill="#1CB7A8"/><path d="M818.152 224.43h-11.268v11.253h11.268V224.43z" fill="#00A79D"/><path d="M851.876 145.895h-11.268v11.253h11.268v-11.253z" fill="#E5B085"/><path d="M908.058 168.323H896.79v11.253h11.268v-11.253zm-89.906 22.427h-11.268v11.253h11.268V190.75zm11.189 22.506h-11.268v11.253h11.268v-11.253z" fill="#00A79D"/><path d="M885.522 101.041h-11.268v11.253h11.268v-11.253zm44.992 112.215h-11.268v11.253h11.268v-11.253z" fill="#FFD5AD"/><path d="M885.522 179.576h-11.268v11.253h11.268v-11.253z" fill="#00A79D"/><path d="M896.79 134.642h-11.268v11.253h11.268v-11.253z" fill="#BCBEC0"/><path d="M863.066 33.68h-11.268v11.254h11.268V33.68z" fill="#00A79D"/><path d="M840.609 112.215h-11.268v11.253h11.268v-11.253z" fill="#BCBEC0"/><path d="M885.522 202.003h-11.268v11.253h11.268v-11.253zm22.536-145.895H896.79V67.36h11.268V56.108z" fill="#00A79D"/><path d="M863.066 134.642h-11.268v11.253h11.268v-11.253z" fill="#BCBEC0"/><path d="M851.876 168.323h-11.268v11.253h11.268v-11.253z" fill="#FFD5AD"/><path d="M896.79 22.427h-11.268V33.68h11.268V22.427z" fill="#1CB7A8"/><path d="M829.341 190.75h-11.268v11.253h11.268V190.75z" fill="#00A79D"/><path d="M829.341 123.468h-11.268v11.253h11.268v-11.253zm89.906-33.68h-11.268v11.253h11.268V89.788z" fill="#FFD5AD"/><path d="M840.609 78.535h-11.268v11.253h11.268V78.535z" fill="#414042"/><path d="M930.514 190.75h-11.268v11.253h11.268V190.75z" fill="#00A79D"/><path d="M919.247 67.36h-11.268v11.254h11.268V67.361z" fill="#594A42"/><path d="M896.79 44.934h-11.268v11.253h11.268V44.934zm-78.638 168.322h-11.268v11.253h11.268v-11.253z" fill="#00A79D"/><path d="M874.333 168.323h-11.268v11.253h11.268v-11.253z" fill="#FFD5AD"/><path d="M896.79 89.788h-11.268v11.253h11.268V89.788z" fill="#fff"/><path d="M896.79 67.36h-11.268v11.254h11.268V67.361z" fill="#414042"/><path d="M930.514 224.43h-11.268v11.253h11.268V224.43z" fill="#FFD5AD"/><path d="M840.609 179.576h-11.268v11.253h11.268v-11.253zm-33.725 0h-11.268v11.253h11.268v-11.253zm22.457 44.854h-11.268v11.253h11.268V224.43z" fill="#00A79D"/><path d="M840.609 101.041h-11.268v11.253h11.268v-11.253z" fill="#FFD5AD"/><path d="M874.333 145.895h-11.268v11.253h11.268v-11.253z" fill="#E5B085"/><path d="M863.066 44.934h-11.268v11.253h11.268V44.934z" fill="#00A79D"/><path d="M806.884 202.003h-11.268v11.253h11.268v-11.253z" fill="#FFD5AD"/><path d="M863.066 22.427h-11.268V33.68h11.268V22.427zm11.267 33.681h-11.268V67.36h11.268V56.108z" fill="#00A79D"/><path d="M885.522 112.215h-11.268v11.253h11.268v-11.253z" fill="#BCBEC0"/><path d="M840.609 202.003h-11.268v11.253h11.268v-11.253z" fill="#00A79D"/><path d="M863.066 67.36h-11.268v11.254h11.268V67.361zm0 22.428h-11.268v11.253h11.268V89.788zm11.267 11.253h-11.268v11.253h11.268v-11.253zm0 78.535h-11.268v11.253h11.268v-11.253z" fill="#FFD5AD"/><path d="M806.884 168.323h-11.268v11.253h11.268v-11.253zm56.182 22.427h-11.268v11.253h11.268V190.75z" fill="#00A79D"/><path d="M863.066 157.148h-11.268v11.254h11.268v-11.254z" fill="#E5B085"/><path d="M863.066 123.468h-11.268v11.253h11.268v-11.253z" fill="#BCBEC0"/><path d="M840.609 168.323h-11.268v11.253h11.268v-11.253zm22.457 56.107h-11.268v11.253h11.268V224.43z" fill="#00A79D"/><path d="M874.333 78.535h-11.268v11.253h11.268V78.535z" fill="#FFD5AD"/><path d="M851.876 112.215h-11.268v11.253h11.268v-11.253z" fill="#BCBEC0"/><path d="M896.79 190.75h-11.268v11.253h11.268V190.75z" fill="#E6E7E8"/><path d="M896.79 123.468h-11.268v11.253h11.268v-11.253z" fill="#BCBEC0"/><path d="M896.79 157.148h-11.268v11.254h11.268v-11.254z" fill="#00A79D"/><path d="M908.058 112.215H896.79v11.253h11.268v-11.253z" fill="#E6E7E8"/><path d="M829.341 44.934h-11.268v11.253h11.268V44.934z" fill="#00A79D"/><path d="M941.783 224.43h-11.268v11.253h11.268V224.43z" fill="#FFD5AD"/><path d="M919.247 224.43h-11.268v11.253h11.268V224.43zm-44.914-22.427h-11.268v11.253h11.268v-11.253z" fill="#00A79D"/><path d="M919.247 190.75h-11.268v11.253h11.268V190.75z" fill="#E6E7E8"/><path d="M941.783 190.75h-11.268v11.253h11.268V190.75zM840.609 56.108h-11.268V67.36h11.268V56.108z" fill="#00A79D"/><path d="M829.341 89.788h-11.268v11.253h11.268V89.788zm0-22.428h-11.268v11.254h11.268V67.361z" fill="#FFD5AD"/><path d="M896.79 224.43h-11.268v11.253h11.268V224.43z" fill="#00A79D"/><path d="M1048.04 168.322h-11.26v11.253h11.26v-11.253z" fill="#BE1E2D"/><path d="M1081.77 168.322h-11.27v11.253h11.27v-11.253z" fill="#FBB040"/><path d="M1115.49 168.322h-11.27v11.253h11.27v-11.253z" fill="#BE1E2D"/><path d="M1126.68 179.575h-11.27v11.254h11.27v-11.254z" fill="#FBB040"/><path d="M1126.68 101.041h-11.27v11.253h11.27v-11.253z" fill="#FFD5AD"/><path d="M1014.32 202.003h-11.27v11.253h11.27v-11.253z" fill="#FBB040"/><path d="M1126.68 78.535h-11.27v11.253h11.27V78.535z" fill="#FFD5AD"/><path d="M1036.78 213.256h-11.27v11.253h11.27v-11.253z" fill="#FBB040"/><path d="M1104.22 89.788h-11.26v11.253h11.26V89.788z" fill="#414042"/><path d="M1014.32 179.575h-11.27v11.254h11.27v-11.254zm56.18 44.855h-11.27v11.253h11.27V224.43z" fill="#FBB040"/><path d="M1081.77 0h-11.27v11.253h11.27V0z" fill="#BE1E2D"/><path d="M1104.22 67.36h-11.26v11.254h11.26V67.36z" fill="#594A42"/><path d="M1003.05 213.256h-11.267v11.253h11.267v-11.253z" fill="#FFD5AD"/><path d="M1081.77 145.895h-11.27v11.253h11.27v-11.253z" fill="#594A42"/><path d="M1070.5 157.148h-11.27v11.254h11.27v-11.254z" fill="#E5B085"/><path d="M1070.5 123.468h-11.27v11.253h11.27v-11.253z" fill="#fff"/><path d="M1104.22 22.427h-11.26V33.68h11.26V22.427z" fill="#F7941E"/><path d="M1070.5 190.75h-11.27v11.253h11.27V190.75zm-44.91 22.506h-11.27v11.253h11.27v-11.253z" fill="#BE1E2D"/><path d="M1081.77 56.107h-11.27v11.254h11.27V56.107zm-33.73 0h-11.26v11.254h11.26V56.107zm67.45 0h-11.27v11.254h11.27V56.107z" fill="#414042"/><path d="M1126.68 202.003h-11.27v11.253h11.27v-11.253z" fill="#FBB040"/><path d="M1104.22 44.934h-11.26v11.253h11.26V44.934z" fill="#BE1E2D"/><path d="M1092.96 112.215h-11.27v11.253h11.27v-11.253z" fill="#FFD5AD"/><path d="M1070.5 89.788h-11.27v11.253h11.27V89.788z" fill="#414042"/><path d="M1025.59 33.68h-11.27v11.254h11.27V33.68z" fill="#BE1E2D"/><path d="M1048.04 78.535h-11.26v11.253h11.26V78.535zm33.73 0h-11.27v11.253h11.27V78.535z" fill="#FFD5AD"/><path d="M1070.5 67.36h-11.27v11.254h11.27V67.36z" fill="#594A42"/><path d="M1115.49 78.535h-11.27v11.253h11.27V78.535z" fill="#414042"/><path d="M1104.22 224.43h-11.26v11.253h11.26V224.43z" fill="#FBB040"/><path d="M1081.77 101.041h-11.27v11.253h11.27v-11.253zm-33.73 0h-11.26v11.253h11.26v-11.253z" fill="#FFD5AD"/><path d="M1115.49 179.575h-11.27v11.254h11.27v-11.254zm-11.27 11.175h-11.26v11.253h11.26V190.75z" fill="#BE1E2D"/><path d="M1115.49 101.041h-11.27v11.253h11.27v-11.253z" fill="#fff"/><path d="M1048.04 179.575h-11.26v11.254h11.26v-11.254z" fill="#FBB040"/><path d="M1070.5 22.427h-11.27V33.68h11.27V22.427z" fill="#F7941E"/><path d="M1081.77 179.575h-11.27v11.254h11.27v-11.254z" fill="#FBB040"/><path d="M1104.22 157.148h-11.26v11.254h11.26v-11.254z" fill="#E5B085"/><path d="M1104.22 123.468h-11.26v11.253h11.26v-11.253z" fill="#fff"/><path d="M1070.5 44.934h-11.27v11.253h11.27V44.934zm56.18 123.388h-11.27v11.253h11.27v-11.253z" fill="#BE1E2D"/><path d="M1048.04 202.003h-11.26v11.253h11.26v-11.253z" fill="#FBB040"/><path d="M1081.77 202.003h-11.27v11.253h11.27v-11.253z" fill="#F7941E"/><path d="M1126.68 56.107h-11.27v11.254h11.27V56.107z" fill="#414042"/><path d="M1115.49 202.003h-11.27v11.253h11.27v-11.253zm44.92 22.427h-11.27v11.253h11.27V224.43z" fill="#FBB040"/><path d="M1036.78 33.68h-11.27v11.254h11.27V33.68zm123.63 157.07h-11.27v11.253h11.27V190.75z" fill="#BE1E2D"/><path d="M1059.23 112.215h-11.27v11.253h11.27v-11.253zm112.44 112.215h-11.26v11.253h11.26V224.43z" fill="#FFD5AD"/><path d="M1025.59 44.934h-11.27v11.253h11.27V44.934z" fill="#BE1E2D"/><path d="M1092.96 202.003h-11.27v11.253h11.27v-11.253z" fill="#F7941E"/><path d="M1137.95 168.322h-11.27v11.253h11.27v-11.253z" fill="#FBB040"/><path d="M1059.23 179.575h-11.27v11.254h11.27v-11.254z" fill="#BE1E2D"/><path d="M1070.5 134.642h-11.27v11.253h11.27v-11.253z" fill="#FFD5AD"/><path d="M1104.22 213.256h-11.26v11.253h11.26v-11.253z" fill="#FBB040"/><path d="M1104.22 11.253h-11.26v11.253h11.26V11.253z" fill="#BE1E2D"/><path d="M1059.23 101.041h-11.27v11.253h11.27v-11.253zm0-22.506h-11.27v11.253h11.27V78.535z" fill="#fff"/><path d="M1149.14 202.003h-11.27v11.253h11.27v-11.253z" fill="#FBB040"/><path d="M1070.5 33.68h-11.27v11.254h11.27V33.68zm89.91 179.576h-11.27v11.253h11.27v-11.253zM1036.78 22.427h-11.27V33.68h11.27V22.427z" fill="#BE1E2D"/><path d="M1115.49 112.215h-11.27v11.253h11.27v-11.253z" fill="#FFD5AD"/><path d="M1149.14 179.575h-11.27v11.254h11.27v-11.254z" fill="#FBB040"/><path d="M1081.77 112.215h-11.27v11.253h11.27v-11.253zm-33.73 0h-11.26v11.253h11.26v-11.253zm44.92-33.68h-11.27v11.253h11.27V78.535z" fill="#FFD5AD"/><path d="M1036.78 44.934h-11.27v11.253h11.27V44.934z" fill="#BE1E2D"/><path d="M1092.96 179.575h-11.27v11.254h11.27v-11.254z" fill="#FBB040"/><path d="M1137.95 56.107h-11.27v11.254h11.27V56.107z" fill="#414042"/><path d="M1036.78 89.788h-11.27v11.253h11.27V89.788zm56.18 11.253h-11.27v11.253h11.27v-11.253zm78.71 112.215h-11.26v11.253h11.26v-11.253z" fill="#FFD5AD"/><path d="M1036.78 67.36h-11.27v11.254h11.27V67.36z" fill="#594A42"/><path d="M1059.23 202.003h-11.27v11.253h11.27v-11.253zm-22.45-11.253h-11.27v11.253h11.27V190.75z" fill="#FBB040"/><path d="M1137.95 78.535h-11.27v11.253h11.27V78.535z" fill="#594A42"/><path d="M1092.96 0h-11.27v11.253h11.27V0z" fill="#BE1E2D"/><path d="M1092.96 145.895h-11.27v11.253h11.27v-11.253z" fill="#594A42"/><path d="M1137.95 101.041h-11.27v11.253h11.27v-11.253z" fill="#FFD5AD"/><path d="M1137.95 179.575h-11.27v11.254h11.27v-11.254z" fill="#FBB040"/><path d="M1092.96 56.107h-11.27v11.254h11.27V56.107z" fill="#414042"/><path d="M1036.78 224.43h-11.27v11.253h11.27V224.43z" fill="#FBB040"/><path d="M1059.23 168.322h-11.27v11.253h11.27v-11.253z" fill="#BE1E2D"/><path d="M1059.23 56.107h-11.27v11.254h11.27V56.107z" fill="#414042"/><path d="M1092.96 168.322h-11.27v11.253h11.27v-11.253z" fill="#FBB040"/><path d="M1003.05 224.43h-11.267v11.253h11.267V224.43z" fill="#FFD5AD"/><path d="M1137.95 202.003h-11.27v11.253h11.27v-11.253z" fill="#FBB040"/><path d="M1070.5 11.253h-11.27v11.253h11.27V11.253z" fill="#BE1E2D"/><path d="M1104.22 134.642h-11.26v11.253h11.26v-11.253z" fill="#FFD5AD"/><path d="M1070.5 213.256h-11.27v11.253h11.27v-11.253z" fill="#FBB040"/><path d="M1025.59 190.75h-11.27v11.253h11.27V190.75z" fill="#BE1E2D"/><path d="M1025.59 224.43h-11.27v11.253h11.27V224.43zm123.55-56.108h-11.27v11.253h11.27v-11.253z" fill="#FBB040"/><path d="M1126.68 112.215h-11.27v11.253h11.27v-11.253z" fill="#FFD5AD"/><path d="M1104.22 33.68h-11.26v11.254h11.26V33.68z" fill="#BE1E2D"/><path d="M1126.68 123.468h-11.27v11.253h11.27v-11.253z" fill="#FFD5AD"/><path d="M1092.96 134.642h-11.27v11.253h11.27v-11.253z" fill="#fff"/><path d="M1126.68 190.75h-11.27v11.253h11.27V190.75z" fill="#FBB040"/><path d="M1149.14 33.68h-11.27v11.254h11.27V33.68z" fill="#DD2238"/><path d="M1104.22 168.322h-11.26v11.253h11.26v-11.253zm33.73 44.934h-11.27v11.253h11.27v-11.253zm-67.45-11.253h-11.27v11.253h11.27v-11.253z" fill="#FBB040"/><path d="M1092.96 33.68h-11.27v11.254h11.27V33.68z" fill="#F7941E"/><path d="M1126.68 224.43h-11.27v11.253h11.27V224.43z" fill="#FBB040"/><path d="M1081.77 67.36h-11.27v11.254h11.27V67.36zm-33.73 0h-11.26v11.254h11.26V67.36z" fill="#594A42"/><path d="M1070.5 78.535h-11.27v11.253h11.27V78.535z" fill="#414042"/><path d="M1115.49 67.36h-11.27v11.254h11.27V67.36z" fill="#594A42"/><path d="M1115.49 89.788h-11.27v11.253h11.27V89.788z" fill="#414042"/><path d="M1014.32 190.75h-11.27v11.253h11.27V190.75z" fill="#BE1E2D"/><path d="M1081.77 89.788h-11.27v11.253h11.27V89.788z" fill="#FFD5AD"/><path d="M1059.23 33.68h-11.27v11.254h11.27V33.68z" fill="#BE1E2D"/><path d="M1048.04 89.788h-11.26v11.253h11.26V89.788z" fill="#FFD5AD"/><path d="M1115.49 44.934h-11.27v11.253h11.27V44.934z" fill="#BE1E2D"/><path d="M1104.22 56.107h-11.26v11.254h11.26V56.107z" fill="#414042"/><path d="M1014.32 224.43h-11.27v11.253h11.27V224.43z" fill="#FBB040"/><path d="M1081.77 44.934h-11.27v11.253h11.27V44.934zm-33.73 0h-11.26v11.253h11.26V44.934z" fill="#BE1E2D"/><path d="M1104.22 145.895h-11.26v11.253h11.26v-11.253z" fill="#E5B085"/><path d="M1059.23 134.642h-11.27v11.253h11.27v-11.253z" fill="#FFD5AD"/><path d="M1070.5 179.575h-11.27v11.254h11.27v-11.254z" fill="#BE1E2D"/><path d="M1081.77 22.427h-11.27V33.68h11.27V22.427z" fill="#FBB040"/><path d="M1048.04 22.427h-11.26V33.68h11.26V22.427z" fill="#BE1E2D"/><path d="M1115.49 22.427h-11.27V33.68h11.27V22.427z" fill="#DD2238"/><path d="M1070.5 101.041h-11.27v11.253h11.27v-11.253z" fill="#fff"/><path d="M1160.41 202.003h-11.27v11.253h11.27v-11.253z" fill="#FBB040"/><path d="M1104.22 78.535h-11.26v11.253h11.26V78.535z" fill="#fff"/><path d="M1115.49 224.43h-11.27v11.253h11.27V224.43z" fill="#FBB040"/><path d="M1081.77 224.43h-11.27v11.253h11.27V224.43z" fill="#F7941E"/><path d="M1048.04 224.43h-11.26v11.253h11.26V224.43z" fill="#FBB040"/><path d="M1070.5 56.107h-11.27v11.254h11.27V56.107z" fill="#414042"/><path d="M1104.22 101.041h-11.26v11.253h11.26v-11.253z" fill="#fff"/><path d="M1059.23 11.253h-11.27v11.253h11.27V11.253z" fill="#BE1E2D"/><path d="M1171.67 202.003h-11.26v11.253h11.26v-11.253z" fill="#FBB040"/><path d="M1115.49 123.468h-11.27v11.253h11.27v-11.253z" fill="#FFD5AD"/><path d="M1081.77 190.75h-11.27v11.253h11.27V190.75zm33.72-33.602h-11.27v11.254h11.27v-11.254z" fill="#BE1E2D"/><path d="M1048.04 190.75h-11.26v11.253h11.26V190.75z" fill="#FBB040"/><path d="M1104.22 179.575h-11.26v11.254h11.26v-11.254z" fill="#BE1E2D"/><path d="M1059.23 213.256h-11.27v11.253h11.27v-11.253z" fill="#FBB040"/><path d="M1081.77 123.468h-11.27v11.253h11.27v-11.253z" fill="#fff"/><path d="M1115.49 190.75h-11.27v11.253h11.27V190.75z" fill="#BE1E2D"/><path d="M1048.04 123.468h-11.26v11.253h11.26v-11.253z" fill="#FFD5AD"/><path d="M1070.5 145.895h-11.27v11.253h11.27v-11.253zm11.27 11.253h-11.27v11.254h11.27v-11.254z" fill="#E5B085"/><path d="M1092.96 11.253h-11.27v11.253h11.27V11.253z" fill="#BE1E2D"/><path d="M1126.68 22.427h-11.27V33.68h11.27V22.427z" fill="#DD2238"/><path d="M1092.96 213.256h-11.27v11.253h11.27v-11.253z" fill="#F7941E"/><path d="M1104.22 202.003h-11.26v11.253h11.26v-11.253z" fill="#FBB040"/><path d="M1126.68 44.934h-11.27v11.253h11.27V44.934z" fill="#BE1E2D"/><path d="M1070.5 168.322h-11.27v11.253h11.27v-11.253z" fill="#FBB040"/><path d="M1126.68 89.788h-11.27v11.253h11.27V89.788z" fill="#FFD5AD"/><path d="M1149.14 213.256h-11.27v11.253h11.27v-11.253z" fill="#BE1E2D"/><path d="M1160.41 179.575h-11.27v11.254h11.27v-11.254z" fill="#FBB040"/><path d="M1137.95 33.68h-11.27v11.254h11.27V33.68z" fill="#DD2238"/><path d="M1126.68 67.36h-11.27v11.254h11.27V67.36z" fill="#594A42"/><path d="M1059.23 157.148h-11.27v11.254h11.27v-11.254z" fill="#BE1E2D"/><path d="M1059.23 123.468h-11.27v11.253h11.27v-11.253z" fill="#FFD5AD"/><path d="M1115.49 11.253h-11.27v11.253h11.27V11.253z" fill="#DD2238"/><path d="M1081.77 213.256h-11.27v11.253h11.27v-11.253z" fill="#F7941E"/><path d="M1048.04 213.256h-11.26v11.253h11.26v-11.253z" fill="#FBB040"/><path d="M1059.23 190.75h-11.27v11.253h11.27V190.75z" fill="#BE1E2D"/><path d="M1115.49 213.256h-11.27v11.253h11.27v-11.253z" fill="#FBB040"/><path d="M1081.77 11.253h-11.27v11.253h11.27V11.253z" fill="#BE1E2D"/><path d="M1059.23 224.43h-11.27v11.253h11.27V224.43zm-22.45-56.108h-11.27v11.253h11.27v-11.253z" fill="#FBB040"/><path d="M1092.96 224.43h-11.27v11.253h11.27V224.43z" fill="#F7941E"/><path d="M1036.78 56.107h-11.27v11.254h11.27V56.107z" fill="#414042"/><path d="M1137.95 89.788h-11.27v11.253h11.27V89.788z" fill="#FFD5AD"/><path d="M1137.95 67.36h-11.27v11.254h11.27V67.36z" fill="#594A42"/><path d="M1126.68 33.68h-11.27v11.254h11.27V33.68zm22.46 157.07h-11.27v11.253h11.27V190.75z" fill="#BE1E2D"/><path d="M1104.22 112.215h-11.26v11.253h11.26v-11.253z" fill="#FFD5AD"/><path d="M1149.14 224.43h-11.27v11.253h11.27V224.43z" fill="#FBB040"/><path d="M1137.95 22.427h-11.27V33.68h11.27V22.427z" fill="#DD2238"/><path d="M1025.59 168.322h-11.27v11.253h11.27v-11.253z" fill="#FBB040"/><path d="M1092.96 157.148h-11.27v11.254h11.27v-11.254z" fill="#E5B085"/><path d="M1092.96 123.468h-11.27v11.253h11.27v-11.253z" fill="#fff"/><path d="M1092.96 190.75h-11.27v11.253h11.27V190.75z" fill="#BE1E2D"/><path d="M1137.95 44.934h-11.27v11.253h11.27V44.934z" fill="#DD2238"/><path d="M1149.14 44.934h-11.27v11.253h11.27V44.934z" fill="#DD2238"/><path d="M1092.96 67.36h-11.27v11.254h11.27V67.36z" fill="#594A42"/><path d="M1036.78 101.041h-11.27v11.253h11.27v-11.253zm33.72 11.174h-11.27v11.253h11.27v-11.253zm22.46-22.427h-11.27v11.253h11.27V89.788z" fill="#FFD5AD"/><path d="M1036.78 179.575h-11.27v11.254h11.27v-11.254zm101.17 44.855h-11.27v11.253h11.27V224.43zm-134.9-22.427h-11.267v11.253h11.267v-11.253z" fill="#FBB040"/><path d="M1092.96 44.934h-11.27v11.253h11.27V44.934z" fill="#BE1E2D"/><path d="M1137.95 190.75h-11.27v11.253h11.27V190.75z" fill="#FBB040"/><path d="M1036.78 78.535h-11.27v11.253h11.27V78.535z" fill="#594A42"/><path d="M1025.59 202.003h-11.27v11.253h11.27v-11.253zm67.37-179.576h-11.27V33.68h11.27V22.427zm33.72 190.829h-11.27v11.253h11.27v-11.253zm-101.09-33.681h-11.27v11.254h11.27v-11.254z" fill="#FBB040"/><path d="M1115.49 134.642h-11.27v11.253h11.27v-11.253z" fill="#FFD5AD"/><path d="M1059.23 22.427h-11.27V33.68h11.27V22.427z" fill="#BE1E2D"/><path d="M1081.77 134.642h-11.27v11.253h11.27v-11.253z" fill="#fff"/><path d="M1059.23 44.934h-11.27v11.253h11.27V44.934zm-44.91 168.322h-11.27v11.253h11.27v-11.253z" fill="#BE1E2D"/><path d="M1081.77 33.68h-11.27v11.254h11.27V33.68z" fill="#F7941E"/><path d="M1059.23 89.788h-11.27v11.253h11.27V89.788z" fill="#414042"/><path d="M1048.04 33.68h-11.26v11.254h11.26V33.68zm67.45 0h-11.27v11.254h11.27V33.68z" fill="#BE1E2D"/><path d="M1036.78 202.003h-11.27v11.253h11.27v-11.253z" fill="#FBB040"/><path d="M1059.23 67.36h-11.27v11.254h11.27V67.36z" fill="#594A42"/></svg>