<svg width="102" height="131" fill="none" xmlns="http://www.w3.org/2000/svg"><path d="M66.101 60.41h-10.72v7.314h10.72V60.41z" fill="#DDB99F"/><path d="M66.103 40.474H55.584V60.91h10.52V40.474z" fill="#BFA08C"/><path d="M55.683 56.803h-22.14v10.82h22.14v-10.82z" fill="#BFA08C"/><path d="M57.086 16.63H22.322v44.582h34.764V16.63z" fill="#DDB99F"/><path d="M35.948 7.113h-22.54v9.417h43.88V7.113h-21.34z" fill="#1E1E1E"/><path d="M36.25 3.707H19.019v11.32H52.48V3.707H36.25z" fill="#1E1E1E"/><path d="M34.345 0h-11.02v8.415h21.44V0h-10.42z" fill="#1E1E1E"/><path d="M66.103 18.233h-9.317v22.742h9.317V18.233z" fill="#313131"/><path d="M33.944 84.754H.583v72.533s100.283-.601 100.884 0c.601.601 0-72.533 0-72.533H33.944z" fill="#fff"/><path d="M78.124 84.955H22.322v72.131h55.802V84.955z" fill="#fff"/><path d="M36.747 61.212H22.221v6.21h14.526v-6.21z" fill="#BFA08C"/><path d="M56.284 78.643H44.463v10.92h11.821v-10.92z" fill="#DDB99F"/><path d="M44.363 67.623l-10.62-.2-.1 11.32v6.012h32.56V67.523h-11.32v11.02h-10.52v-10.92z" fill="#DDB99F"/><path d="M56.284 67.623H43.56v11.02h12.724v-11.02z" fill="#DDB99F"/><path d="M19.416 101.585h-8.215v66.622h8.215v-66.622zm70.23 0h-9.117v66.622h9.117v-66.622z" fill="#E2E2E2"/><path d="M62.197 10.72H10.102v7.814h52.094V10.72z" fill="#1E1E1E"/><path d="M60.194 33.26H52.58v11.622h7.614V33.26z" fill="#DDB99F"/><path d="M36.246 50.792H22.221V55h14.025v-4.208zm3.71 3.908h-3.707v9.417h3.707V54.7z" fill="#313131"/><path d="M36.346 64.017H22.221v3.406h14.125v-3.406z" fill="#313131"/><path d="M30.836 34.262h-6.512v17.633h6.512V34.261z" fill="#BFA08C"/><path d="M30.14 33.661h-5.21v1.102h5.21v-1.102z" fill="#BFA08C"/><path d="M28.635 33.06h-2.304v1.102h2.304V33.06z" fill="#BFA08C"/><path d="M35.449 96.075h2.504v3.106h6.512V84.754H32.143v7.414h3.306v3.907zm20.735 3.105h6.512v-2.804h4.808V84.754h-11.32v14.427zm-5.007-5.81h-1.202v74.536h1.202V93.37z" fill="#E2E2E2"/><path d="M47.169 88.461h-1.603V87.16h-1.302v-1.102h-4.308v1.102h-1.303v12.42h1.303v1.102h4.308V99.58h1.302v-1.3h1.603v-9.818zm6.714 0h1.503V87.16h1.402v-1.102h4.308v1.102h1.202v12.42h-1.202v1.103h-4.308v-1.102h-1.402v-1.303h-1.503V88.46z" fill="#424242"/><path d="M54.584 89.563H46.37v7.414h8.215v-7.414z" fill="#2B2B2B"/><path d="M25.027 24.244h-3.406v2.805h3.406v-2.805zm11.32 0h-6.211v2.805h6.211v-2.805z" fill="#313131"/><path d="M35.847 29.253h-4.308v4.308h4.308v-4.308zm-11.521 0h-2.004v4.308h2.004v-4.308z" fill="#1E1E1E"/><path d="M79.527 102.988H64.2v4.207h15.328v-4.207z" fill="#D39807"/></svg>