<svg width="102" height="131" fill="none" xmlns="http://www.w3.org/2000/svg"><path d="M37.55 35.465H21.22v24.244h16.33V35.465z" fill="#A5312F"/><path d="M34.244 48.088H24.025v19.936h10.219V48.088z" fill="#313131"/><path d="M38.352 24.044H18.315v24.244h20.037V24.044z" fill="#A5312F"/><path d="M67.103 67.723H55.382v7.314h11.721v-7.314z" fill="#DDB99F"/><path d="M67.105 47.787H55.584v20.437h11.521V47.787zm-11.721 16.33h-21.94v10.82h21.94v-10.82z" fill="#BFA08C"/><path d="M55.583 30.255h-33.26v38.27h33.26v-38.27z" fill="#DDB99F"/><path d="M40.255 19.035H7.996v11.32H70.71v-11.32H40.255z" fill="#B94F49"/><path d="M43.359 9.417H20.117v11.32h45.282V9.418h-22.04z" fill="#B94F49"/><path d="M34.446 9.417h-8.014v11.32H42.06V9.418h-7.614z" fill="#fff"/><path d="M43.561 4.909H25.027v8.215h36.066V4.909H43.561z" fill="#B94F49"/><path d="M42.76 0H29.936v10.219h24.946V0H42.76zm32.86 24.044H55.585v24.244h20.037V24.044z" fill="#B94F49"/><path d="M74.818 35.465H59.59v24.244h15.228V35.465z" fill="#B94F49"/><path d="M72.514 48.088H62.296v19.936h10.218V48.088zm-38.57 43.98H.583v50.592s100.283-.401 100.884 0c.601.401 0-50.592 0-50.592H33.944z" fill="#B94F49"/><path d="M78.124 92.168H22.322V164.4h55.802V92.168z" fill="#B94F49"/><path d="M33.442 59.108H20.82v5.11h12.623v-5.11zm-.102 9.417H22.22v6.211h11.12v-6.211zm4.512-9.317h-4.408v9.517h4.408v-9.517z" fill="#604925"/><path d="M56.285 85.957H44.463v10.92h11.822v-10.92z" fill="#B94F49"/><path d="M31.04 41.375h-6.412v15.73h6.412v-15.73z" fill="#D8988D"/><path d="M24.93 32.058h-3.407v2.806h3.407v-2.806zm11.32 0h-6.212v2.806h6.211v-2.806z" fill="#604925"/><path d="M35.745 36.967h-4.307v4.308h4.307v-4.308zm-11.419 0h-2.004v4.308h2.004v-4.308z" fill="#4F381A"/><path d="M44.664 74.936l-10.92-.2-.1 11.421v5.91h33.56v-17.13h-11.72v10.92h-10.82v-10.92z" fill="#DDB99F"/><path d="M56.285 74.937H44.463v11.02h11.822v-11.02z" fill="#DDB99F"/><path d="M22.522 108.899h-11.32v79.745h11.32v-79.745zm67.024 0H77.824v79.745h11.722v-79.745z" fill="#A5312F"/><path d="M71.011 37.468h-7.613v9.818h7.613v-9.818z" fill="#fff"/><path d="M56.185 19.035H13.808v6.311h42.377v-6.311zm4.909-14.126h-6.612v6.612h6.612V4.909z" fill="#A5312F"/><path d="M65.3 9.417h-6.61v6.612h6.61V9.417zm5.511 9.618H64.2v6.612h6.612v-6.612z" fill="#A5312F"/><path d="M54.78 90.164H43.76v11.02h11.02v-11.02z" fill="#DDB99F"/><path d="M26.932 92.068h-3.005v9.417h3.005v-9.417zm2.905 9.417h-3.005v4.809h3.005v-4.809z" fill="#fff"/><path d="M32.744 106.193h-3.006v5.01h3.006v-5.01zm3.006 5.01h-3.005v77.641h3.006v-77.641zm36.47-9.665h3.005v-9.417h-3.006v9.417z" fill="#fff"/><path d="M69.302 106.291h3.006v-4.809h-3.006v4.809z" fill="#fff"/><path d="M66.483 111.258h3.005v-5.009h-3.005v5.009z" fill="#fff"/><path d="M63.489 188.798h3.005v-77.641H63.49v77.641z" fill="#fff"/></svg>