<svg width="98" height="131" fill="none" xmlns="http://www.w3.org/2000/svg"><path d="M28.67 33.561H17.25v57.004h11.42V33.561z" fill="#CE9B1B"/><path d="M34.086 89.763H19.56v6.613h14.526v-6.613z" fill="#CE9B1B"/><path d="M36.389 78.443h-7.914v15.228h7.914V78.443z" fill="#CE9B1B"/><path d="M65.539 71.53H53.817v7.314H65.54V71.53z" fill="#DDB99F"/><path d="M65.539 51.694H55.32v20.437h10.22V51.694z" fill="#BFA08C"/><path d="M55.223 68.024H31.78v10.82h23.443v-10.82z" fill="#DDB99F"/><path d="M55.32 27.85H20.258v46.085H55.32V27.85z" fill="#DDB99F"/><path d="M41.7 22.942H15.05v11.22h51.894v-11.22H41.7z" fill="#EFB922"/><path d="M83.576 95.975H14.149v66.12h69.427v-66.12zM97.6 98.58H85.578v69.627c7.213 0 11.922.1 12.022.2.601.701 0-69.827 0-69.827z" fill="#465A6D"/><path d="M76.56 90.565H20.758v64.418H76.56V90.565z" fill="#465A6D"/><path d="M35.385 72.131H23.663v6.212h11.722V72.13zm19.334 17.632H42.897v10.92H54.72v-10.92z" fill="#DDB99F"/><path d="M27.973 45.783h-3.706v17.633h3.706V45.783z" fill="#BFA08C"/><path d="M67.046 10.118h-49.49v19.035h49.49V10.118z" fill="#465A6D"/><path d="M63.336 4.208H21.16v6.01h42.177v-6.01z" fill="#465A6D"/><path d="M44.301 78.743l-10.319-.2v17.431H65.64v-17.23H54.62v11.02H44.401l-.1-11.02z" fill="#DDB99F"/><path d="M55.52 78.743H42.898v11.02H55.52v-11.02z" fill="#DDB99F"/><path d="M49.913 0H20.96v11.02h28.953V0zm26.848 125.629H20.86v10.92h55.902v-10.92z" fill="#465A6D"/><path d="M66.943 18.734H5.932v10.42h61.01v-10.42z" fill="#1E1E1E"/><path d="M54.719 103.489H42.897v45.583H54.72v-45.583z" fill="#424242"/><path d="M54.719 100.784H42.897v10.619H54.72v-10.619z" fill="#1E1E1E"/><path d="M60.233 18.734h-48.69v5.81h48.69v-5.81z" fill="#313131"/><path d="M67.243 112.806h-10.82v4.207h10.82v-4.207z" fill="#D39807"/><path d="M48.81 77.842H28.571v4.809H48.81v-4.81z" fill="#DDB99F"/><path d="M71.85 33.06H55.32v57.505h16.53V33.06z" fill="#EFB922"/><path d="M67.042 33.06H54.72v68.024h12.322V33.06z" fill="#EFB922"/><path d="M60.033 34.363h-5.41v39.171h5.41V34.363z" fill="#CE9B1B"/><path d="M54.72 73.434h-5.41v4.909h5.41v-4.91z" fill="#CE9B1B"/><path d="M54.62 78.243h-7.613v4.909h7.614v-4.91z" fill="#CE9B1B"/><path d="M57.127 83.151H47.108v17.733h10.019V83.151z" fill="#EFB922"/><path d="M49.511 78.243h-2.504v22.741h2.504V78.243z" fill="#CE9B1B"/><path d="M64.439 100.984H49.512v5.61h14.927v-5.61z" fill="#EFB922"/><path d="M17.255 29.153H15.05v5.11h2.204v-5.11z" fill="#CE9B1B"/><path d="M18.754 97.377H10.84v48.689h7.914V97.377zm69.928 0h-7.914v48.689h7.914V97.377z" fill="#465A6D"/><path d="M88.484 99.982h-7.915v46.084h7.915V99.982zm-78.345.401H2.225v36.466h7.914v-36.466zm57.925 45.68h7.915v-41.276h-7.915v41.276z" fill="#465A6D"/><path d="M73.034 141.611h7.914v-30.957h-7.914v30.957zM12.644 98.58H.622v69.627c7.213 0 11.922.1 12.022.2.601.701 0-69.827 0-69.827z" fill="#465A6D"/><path d="M22.864 36.767h-3.406v2.805h3.406v-2.805zm11.32 0h-6.211v2.805h6.211v-2.805z" fill="#CE9B1B"/><path d="M33.68 41.676h-4.307v4.308h4.308v-4.308zm-11.42 0h-2.003v4.308h2.003v-4.308z" fill="#604925"/></svg>