<svg width="103" height="131" fill="none" xmlns="http://www.w3.org/2000/svg"><path d="M67.108 43.48H55.486v20.437h11.622V43.478z" fill="#BFA08C"/><path d="M67.505 63.616H55.884v6.612h11.621v-6.612z" fill="#DDB99F"/><path d="M55.783 59.308h-21.84v10.82h21.84v-10.82z" fill="#BFA08C"/><path d="M56.084 25.346h-33.26v38.27h33.26v-38.27z" fill="#DDB99F"/><path d="M39.153 14.827H22.022v10.82h33.861v-10.82h-16.73z" fill="#313131"/><path d="M67.204 19.436h-11.42v24.043h11.42V19.436z" fill="#313131"/><path d="M56.285 69.827h-11.32v11.32h11.32v-11.32z" fill="#DDB99F"/><path d="M44.963 70.228l-11.02-.2v17.231h33.461V70.23h-11.62v10.919h-10.82v-10.92zM34.446 87.26H1.085v72.531s100.283-.601 100.884 0c.601.601 0-72.532 0-72.532H34.446z" fill="#B94F49"/><path d="M22.723 104.09h-11.02v66.321h11.02V104.09zm67.024 0h-11.02v66.321h11.02V104.09zM53.281 87.76H47.17v72.232h6.111V87.76z" fill="#A5312F"/><path d="M31.74 36.567h-6.412v17.632h6.412V36.567z" fill="#BFA08C"/><path d="M36.95 27.25H21.721v3.406h15.227V27.25zm-.5 4.909h-4.307v4.308h4.307v-4.308zm-11.421 0h-2.004v4.308h2.004v-4.308z" fill="#313131"/><path d="M74.318 104.09H58.99v4.207h15.328v-4.207z" fill="#fff"/><path d="M67.006 3.206H21.924v16.83h45.082V3.206z" fill="#B94F49"/><path d="M64.397 0H24.324v5.31h40.073V0z" fill="#B94F49"/><path d="M67.203 12.222H21.82v3.907h45.383v-3.907zM31.04 85.356H10.404v6.11h20.638v-6.11zm59.91 0H70.312v6.11H90.95v-6.11z" fill="#FFBC00"/></svg>