<svg width="104" height="131" fill="none" xmlns="http://www.w3.org/2000/svg"><path d="M13.608 27.85H9.4v21.64h4.208V27.85z" fill="#3D2C18"/><path d="M19.92 23.343h-7.614v28.952h7.614V23.342zm46.082 49.59H40.255v3.707h25.747v-3.707z" fill="#3D2C18"/><path d="M90.949 27.85h-2.505v-4.508h-4.809V13.025h-6.211v-5.61h-3.406V3.906h-5.61V0H31.84v3.907h-4.709v3.506h-5.81v5.61h-5.71v48.99h6.11v3.506h4.91v3.607h5.209v3.807h29.954v3.707h5.11v-3.707h2.304v-3.807h4.508v-3.607h3.707v-3.506h6.211v-9.718h4.81V49.59h2.504V27.85z" fill="#49361C"/><path d="M27.135 10.018h-5.81v3.006h5.81v-3.006z" fill="#3D2C18"/><path d="M31.442 10.118h-5.61v3.006h5.61v-3.006zm-.104-2.805H26.93v2.805h4.408V7.313zm-6.51 22.742H12.205v24.044h12.623V30.055zm3.91 25.546h-7.012v9.918h7.012v-9.918z" fill="#3D2C18"/><path d="M69.108 83.151H57.286v7.414h11.822v-7.413z" fill="#DDB99F"/><path d="M69.21 63.215H57.49v20.538h11.72V63.215z" fill="#BFA08C"/><path d="M58.79 79.645H35.447v10.82H58.79v-10.82z" fill="#BFA08C"/><path d="M58.689 45.783H24.126v38.17h34.563v-38.17z" fill="#DDB99F"/><path d="M41.156 35.565H22.022v10.92h37.266v-10.92H41.156z" fill="#49361C"/><path d="M70.11 45.483H58.487v18.233H70.11V45.483z" fill="#49361C"/><path d="M46.265 90.565l-11.02-.2v17.331h33.661v-17.13h-11.72v10.919h-10.92v-10.92zm-11.82 17.131H.583v72.833s101.786-.601 102.387 0c.601.601 0-72.833 0-72.833H34.445z" fill="#7852A0"/><path d="M55.282 107.696h-6.311v10.52h6.311v-10.52z" fill="#DDB99F"/><path d="M25.026 119.217H12.804v72.633h12.222v-72.633zm66.324 5.41H80.23v67.122h11.12v-67.122z" fill="#64448E"/><path d="M40.855 75.538h-4.408v8.014h4.408v-8.014z" fill="#49361C"/><path d="M58.086 101.485H46.265v11.02h11.821v-11.02z" fill="#DDB99F"/><path d="M58.089 90.465H46.167v22.14h11.922v-22.14z" fill="#DDB99F"/><path d="M38.052 48.388H23.826v3.306h14.226v-3.306z" fill="#49361C"/><path d="M31.74 55.1h-6.412v17.933h6.412V55.1z" fill="#BFA08C"/><path d="M34.143 69.427H24.024v5.209h10.119v-5.21z" fill="#49361C"/><path d="M36.547 73.033h-5.91v3.907h5.91v-3.907zm1.104 10.419H23.826v7.013h13.825v-7.013z" fill="#49361C"/><path d="M64.703 52.896H57.99v16.831h6.712v-16.83z" fill="#DDB99F"/><path d="M43.26 53.598H32.74v8.315h10.52v-8.315z" fill="#313131"/><path d="M39.753 58.006h-4.208v4.007h4.208v-4.007z" fill="#424242"/><path d="M43.26 53.598h-3.507v4.308h3.506v-4.308z" fill="#1E1E1E"/><path d="M24.826 53.598h-4.208v8.315h4.208v-8.315z" fill="#313131"/><path d="M21.322 58.006h-.7v4.007h.7v-4.007z" fill="#424242"/><path d="M24.829 53.598h-3.507v4.308h3.507v-4.308z" fill="#1E1E1E"/><path d="M32.942 53.598h-8.917v4.107h8.917v-4.107z" fill="#1E1E1E"/><path d="M53.582 107.696h-3.105v32.56h3.105v-32.56z" fill="#DDB99F"/></svg>