<svg width="98" height="131" fill="none" xmlns="http://www.w3.org/2000/svg"><path d="M28.67 18.634H17.25v57.004h11.42V18.634z" fill="#49361C"/><path d="M34.184 74.836H19.657v6.612h14.527v-6.612z" fill="#49361C"/><path d="M36.389 63.416h-7.914v15.227h7.914V63.416z" fill="#49361C"/><path d="M65.64 56.603H53.92v7.314h11.72v-7.314z" fill="#DDB99F"/><path d="M65.64 36.767H55.42v20.437h10.22V36.767z" fill="#BFA08C"/><path d="M55.32 53.097H31.877v10.82H55.32v-10.82z" fill="#DDB99F"/><path d="M55.421 12.924H20.357v46.084h35.064V12.924z" fill="#DDB99F"/><path d="M41.8 9.517H15.05v9.718h51.995V9.517H41.799z" fill="#604925"/><path d="M40.396 4.809h-21.84v8.515h42.478V4.81H40.396z" fill="#604925"/><path d="M39.295 0h-16.83v8.415h32.76V0h-15.93z" fill="#604925"/><path d="M84.177 81.048H14.15v66.12h70.028v-66.12zM97.6 83.653H85.578v69.626c7.213 0 11.922.101 12.022.201.601.701 0-69.827 0-69.827z" fill="#fff"/><path d="M76.661 79.545H20.86v60.51h55.802v-60.51z" fill="#fff"/><path d="M35.384 57.204h-11.72v6.212h11.72v-6.212zm19.438 17.632h-11.82v10.92h11.822v-10.92z" fill="#DDB99F"/><path d="M27.872 31.357h-3.707V48.99h3.707V31.357z" fill="#BFA08C"/><path d="M44.401 63.816l-10.318-.2-.1 11.42v6.012H65.64V63.816H54.62v11.02H44.401v-11.02z" fill="#DDB99F"/><path d="M55.624 63.816H43.001v11.02h12.623v-11.02z" fill="#DDB99F"/><path d="M76.761 110.702H20.86v10.92h55.902v-10.92z" fill="#fff"/><path d="M48.81 62.915H28.571v4.808H48.81v-4.808z" fill="#DDB99F"/><path d="M71.951 18.133h-16.53v57.505h16.53V18.133z" fill="#604925"/><path d="M60.033 19.435h-5.41v39.172h5.41V19.435z" fill="#49361C"/><path d="M54.72 58.407h-5.41v4.908h5.41v-4.908zm.002 4.908h-7.614v4.91h7.614v-4.91zM17.255 14.126H15.05v5.11h2.204v-5.11z" fill="#49361C"/><path d="M18.855 82.45H10.94v48.689h7.915V82.45zm69.827 0h-7.914v48.689h7.914V82.45z" fill="#fff"/><path d="M88.484 85.055h-7.915v46.084h7.915V85.055z" fill="#fff"/><path d="M10.24 85.456H2.327v36.466h7.915V85.456z" fill="#465A6D"/><path d="M68.064 131.102h7.915V89.827h-7.915v41.275z" fill="#fff"/><path d="M73.138 126.65h7.915V95.694h-7.915v30.956zM12.644 83.653H.622v69.626c7.213 0 11.922.101 12.022.201.601.701 0-69.827 0-69.827z" fill="#fff"/><path d="M33.282 31.457h-3.306v3.306h3.306v-3.306zm-11.722 0h-1.502v3.306h1.502v-3.306z" fill="#4F381A"/><path d="M14.15 97.778h-1.202v33.361h1.202v-33.36zm71.425 0h-1.303v33.361h1.303v-33.36z" fill="#E2E2E2"/><path d="M33.082 27.951v-.701h-2.705v.701h-1.603v1.302h1.703v-.5h2.705v.5h1.704v-1.302h-1.804zm-12.925-.001v.802h.1v.501h1.603v-1.302h-1.703z" fill="#604925"/><path d="M43.201 84.754h-1.603v-1.302h-1.302V82.35h-4.308v1.102h-1.303v12.323h1.303v1.202h4.308v-1.203h1.302v-1.202h1.603v-9.818zm6.715 0h1.503v-1.302h1.402V82.35h4.308v1.102h1.202v12.323H57.13v1.202h-4.308v-1.203H51.42v-1.202h-1.503v-9.818z" fill="#424242"/><path d="M50.615 85.856H42.4v7.414h8.215v-7.413z" fill="#2B2B2B"/><path d="M67.042 18.133H54.72v68.024h12.322V18.133z" fill="#604925"/><path d="M57.227 68.224H47.21v17.733h10.018V68.224z" fill="#604925"/><path d="M49.613 63.315h-2.505v22.742h2.505V63.315z" fill="#49361C"/><path d="M64.439 85.957H49.512v5.61h14.927v-5.61z" fill="#604925"/><path d="M75.759 97.879H60.43v4.207h15.328v-4.207z" fill="#D39807"/></svg>