<svg width="104" height="131" fill="none" xmlns="http://www.w3.org/2000/svg"><path d="M93.252 36.767h-7.514v4.809h7.514v-4.809z" fill="#E2E2E2"/><path d="M98.963 67.122H14.61v109.901h84.354v-109.9z" fill="#433D4F"/><path d="M96.057 70.128h-7.413v59.608h7.413V70.128zm-18.633.2H64.701v80.848h12.723V70.328z" fill="#2A2633"/><path d="M67.906 74.235H38.15v10.92h29.755v-10.92z" fill="#A5A5A5"/><path d="M9.7 29.253H5.492v22.742H9.7V29.253zm74.334-4.708H76.42V54.9h7.614V24.545z" fill="#6A6572"/><path d="M15.109 24.545H7.495V54.9h7.614V24.545z" fill="#5A5663"/><path d="M69.407 56.002h-11.82v7.313h11.822v-7.313z" fill="#D6AB8E"/><path d="M69.508 36.066H57.887v20.437h11.62V36.066zM57.587 52.395h-21.84v10.52h21.84v-10.52z" fill="#BFA08C"/><path d="M57.889 18.534H24.628v38.27h33.26v-38.27z" fill="#D6AB8E"/><path d="M40.757 11.521h-16.23v10.72h31.558V11.52H40.757zM69.31 8.215H57.49v28.352h11.82V8.215z" fill="#313131"/><path d="M46.667 62.514l-10.92-.2v18.033h33.461V62.514H57.587v11.42h-10.82l-.1-11.42zM35.748 82.45H2.389v81.45s100.283-.702 100.884 0c.601.701 0-81.449 0-81.449H35.748z" fill="#fff"/><path d="M55.682 86.959h-7.914v67.422h7.914V86.959z" fill="#E2E2E2"/><path d="M40.155 47.487h-4.408v9.417h4.408v-9.417z" fill="#313131"/><path d="M59.891 74.235H44.263v10.52H59.89v-10.52z" fill="#E2E2E2"/><path d="M57.585 62.414H45.764v13.023h11.821V62.415z" fill="#fff"/><path d="M57.687 11.621H48.77V48.79h8.916V11.62z" fill="#DDB99F"/><path d="M35.646 56.703h-10.82v6.011h10.82v-6.01z" fill="#313131"/><path d="M33.443 29.654H27.03v17.632h6.412V29.654z" fill="#BFA08C"/><path d="M38.654 20.337H23.425v4.508h15.228v-4.508zm-.501 4.909h-4.308v4.308h4.308v-4.308zm-11.423 0h-2.004v4.308h2.003v-4.308zm9.02 16.129H22.426v6.011H35.75v-6.01z" fill="#313131"/><path d="M79.225 13.625H10.801v51.494h68.424V13.625zM24.427 97.177h-11.02v60.911h11.02v-60.91zm67.123 0H80.53v61.212h11.02V97.177z" fill="#E2E2E2"/><path d="M103.373 98.28H93.354v4.006h10.019v-4.007z" fill="#FFBC00"/><path d="M73.014 7.814H16.611v10.92h56.403V7.814z" fill="#E2E2E2"/><path d="M69.612 4.107H22.426v7.715h47.186V4.107z" fill="#E2E2E2"/><path d="M64 0H27.133v8.516H64V0zM16.937 68.905h56.102v-10.92H16.937v10.92z" fill="#E2E2E2"/><path d="M21.813 72.608h47.386v-7.714H21.813v7.714z" fill="#E2E2E2"/><path d="M27.224 76.623h37.569v-8.516H27.224v8.516z" fill="#E2E2E2"/><path d="M61.494 76.54H35.647v3.906h25.847V76.54z" fill="#A5A5A5"/><path d="M35.648 72.131h-8.515v4.509h8.515v-4.51zm-9.316-6.411h-4.408v6.812h4.408V65.72zm-4.411-3.106h-5.31v6.312h5.31v-6.312z" fill="#A5A5A5"/><path d="M16.712 13.625H10.8v51.494h5.91V13.625zm15.828 54.9h-6.41v4.107h6.412v-4.107z" fill="#A5A5A5"/><path d="M21.722 13.625h-5.41v5.11h5.41v-5.11zm.8-3.105h-5.91v3.105h5.91v-3.106z" fill="#A5A5A5"/><path d="M26.633 10.62h-5.61v3.205h5.61V10.62zm-.004-3.006H22.22v2.905h4.408V7.614z" fill="#A5A5A5"/><path d="M74.92 18.834h-5.41v-5.009h-3.006V10.62h-4.808V7.213H29.938v3.406H25.83v3.206h-5.009v5.01h-4.909v43.78h5.21v3.205h4.308v3.206h4.508v3.406h32.459v-3.406h4.007V65.82h3.106v-3.206h5.41v-43.78z" fill="#313131"/><path d="M69.51 18.834v-5.009h-3.006V10.62h-4.808V7.213H29.938v3.406H25.83v3.206h-5.009v5.01h-4.909v15.628h4.709v-3.206h4.007v-3.406h31.758v3.406h4.809v3.206H64.2v4.909h5.41v23.242h5.31v-43.78h-5.41z" fill="#1E1E1E"/><path d="M13.608 116.412H2.388v3.006h11.22v-3.006zm89.963 0H91.649v3.006h11.922v-3.006z" fill="#6A6572"/><path d="M62.395 76.54h-5.109v3.906h5.11V76.54z" fill="#E2E2E2"/><path d="M29.937 33.962h-5.811v5.81h5.81v-5.81zm-7.111 7.113h-5.81v5.81h5.81v-5.81z" fill="#1E1E1E"/><path d="M62.094 19.636h-5.41v5.41h5.41v-5.41z" fill="#313131"/><path d="M91.55 123.124H13.407v5.41H91.55v-5.41z" fill="#6A6572"/><path d="M24.527 123.124h-11.12v5.41h11.12v-5.41zm67.119 0h-11.22v5.41h11.22v-5.41z" fill="#5A5663"/><path d="M79.727 86.758H58.688v5.81h21.039v-5.81zm-46.685 39.773h-2.304v34.162h2.304v-34.162zm41.276 0h-2.304v34.162h2.304v-34.162zm12.221-97.278H82.33v22.742h4.208V29.253zM45.263 97.177h-4.91v4.909h4.91v-4.909zm-8.113 0h-4.91v4.909h4.91v-4.909z" fill="#6A6572"/><path d="M97.66 41.576h-4.51v25.546h4.509V41.576z" fill="#fff"/></svg>