<svg width="106" height="131" fill="none" xmlns="http://www.w3.org/2000/svg"><path d="M15.064 27.75h-4.208v21.54h4.208V27.75z" fill="#1E1E1E"/><path d="M21.175 23.242H13.66v28.853h7.514V23.242zm45.985 49.29H41.512v3.707h25.646v-3.707z" fill="#2B2B2B"/><path d="M92.002 27.75h-2.505v-4.508H84.79V12.924h-6.212v-5.61h-3.406V3.806h-5.61V0H33.095v3.807h-4.609v3.506h-5.81v5.61h-5.61v48.79h6.01v3.506h4.91v3.606h5.209v3.807h29.754v3.607h5.11v-3.607h2.304v-3.807h4.508V65.22h3.707v-3.506h6.21v-9.618h4.71V49.29h2.504V27.75z" fill="#313131"/><path d="M28.491 10.018h-5.81v3.006h5.81v-3.006z" fill="#2B2B2B"/><path d="M32.693 10.018h-5.61v3.006h5.61v-3.006zm.004-2.805H28.29v2.805h4.408V7.213z" fill="#2B2B2B"/><path d="M26.183 29.854H13.56v23.944h12.623V29.854z" fill="#1E1E1E"/><path d="M30.09 55.3h-7.013v9.919h7.013V55.3z" fill="#2B2B2B"/><path d="M70.162 82.851H58.44v7.313h11.722v-7.313z" fill="#AF9584"/><path d="M70.265 62.915H58.644v20.437h11.62V62.915z" fill="#917E73"/><path d="M60.047 79.345H36.805v10.82h23.242v-10.82z" fill="#917E73"/><path d="M59.743 45.583H25.381v38.07h34.362v-38.07z" fill="#AF9584"/><path d="M42.413 35.465H23.378v10.72h37.168v-10.72H42.413z" fill="#313131"/><path d="M71.163 45.282h-11.52v18.134h11.52V45.283z" fill="#1E1E1E"/><path d="M49.126 90.164l-10.219-.2v17.231h31.157v-17.03h-10.82v10.919H49.126v-10.92zm-12.623 17.031H3.143v72.533s100.282-.602 100.883 0c.602.601 0-72.533 0-72.533H36.504z" fill="#AF9584"/><path d="M20.37 124.026h-6.412v66.822h6.412v-66.822zm72.134 0H85.39v66.922h7.113v-66.922z" fill="#917E73"/><path d="M42.212 75.137h-4.408v7.914h4.408v-7.914z" fill="#1E1E1E"/><path d="M59.342 101.084H47.52v10.92h11.822v-10.92zm0 17.933H47.52v10.92h11.822v-10.92z" fill="#AF9584"/><path d="M59.243 90.064H47.422v11.221h11.821v-11.22z" fill="#AF9584"/><path d="M39.308 47.687H25.183v3.306h14.125v-3.306z" fill="#1E1E1E"/><path d="M38.907 53.197h-4.308v2.204h4.308v-2.204zm-11.523 0h-2.003v2.204h2.003v-2.204z" fill="#2B2B2B"/><path d="M34.1 56.503h-6.413v17.832H34.1V56.503z" fill="#917E73"/><path d="M35.4 69.126H25.38v5.21H35.4v-5.21z" fill="#1E1E1E"/><path d="M37.904 72.733h-5.91v3.907h5.91v-3.907zm1.004 10.319H25.183v6.912h13.725v-6.912z" fill="#1E1E1E"/><path d="M65.854 52.696h-6.712v16.83h6.712v-16.83z" fill="#AF9584"/><path d="M31.692 129.135h-5.71v5.711h5.71v-5.711zm46.187 0h-5.711v5.711h5.71v-5.711z" fill="#917E73"/></svg>