<svg width="103" height="131" fill="none" xmlns="http://www.w3.org/2000/svg"><path d="M40.455 3.506H22.622v9.317h34.663V3.506h-16.83z" fill="#313131"/><path d="M40.456 0H25.328v8.916h29.454V0H40.456z" fill="#313131"/><path d="M67.403 51.895H55.682v7.313h11.721v-7.313z" fill="#DDB99F"/><path d="M67.405 31.958H55.884v20.438h11.52V31.957z" fill="#BFA08C"/><path d="M55.885 48.288h-22.14v10.82h22.14v-10.82z" fill="#BFA08C"/><path d="M57.385 12.823H22.622v39.773h34.763V12.823z" fill="#DDB99F"/><path d="M40.055 9.217h-16.43v9.417h31.958V9.217H40.055z" fill="#DDB99F"/><path d="M41.056 7.013H28.133v7.814h25.246V7.013H41.056z" fill="#DDB99F"/><path d="M48.572 3.907h-3.607v6.612h7.013V3.907H48.57z" fill="#DDB99F"/><path d="M40.457 5.21h-7.514v6.712H47.57V5.209h-7.113z" fill="#DDB99F"/><path d="M67.505 8.315H57.286V32.46h10.219V8.315z" fill="#313131"/><path d="M34.245 76.239H.884v72.532s100.283-.601 100.884 0c.601.601 0-72.532 0-72.532H34.245z" fill="#fff"/><path d="M78.424 76.44H22.622v72.131h55.802V76.439z" fill="#fff"/><path d="M37.05 52.696H22.523v6.211H37.05v-6.211z" fill="#BFA08C"/><path d="M56.584 70.128H44.763v10.92h11.821v-10.92z" fill="#DDB99F"/><path d="M44.963 59.108l-10.92-.2-.1 11.32v6.01h33.561v-17.23h-11.72v11.02h-10.82v-10.92z" fill="#DDB99F"/><path d="M56.584 59.108H44.763v11.02h11.821v-11.02z" fill="#DDB99F"/><path d="M22.525 93.07h-11.02v66.621h11.02V93.07zm67.021 0h-11.02v66.621h11.02V93.07z" fill="#E2E2E2"/><path d="M56.488 83.753H44.666v45.583h11.822V83.753z" fill="#5E738C"/><path d="M56.488 81.048H44.666v10.62h11.822v-10.62z" fill="#4A5C6D"/><path d="M54.88 127.833h-8.615v3.506h8.615v-3.506z" fill="#5E738C"/><path d="M53.383 130.137h-5.31v3.507h5.31v-3.507z" fill="#5E738C"/><path d="M60.492 24.745h-7.614v11.621h7.614v-11.62z" fill="#DDB99F"/><path d="M36.451 42.277H22.426v4.208H36.45v-4.208zm3.805 3.907h-3.707v9.417h3.707v-9.417z" fill="#313131"/><path d="M36.65 55.501H22.522v3.406H36.65v-3.406z" fill="#313131"/><path d="M31.14 25.747h-6.512v17.632h6.512V25.747z" fill="#BFA08C"/><path d="M40.056 22.44H30.94v7.014h9.116V22.44z" fill="#1E1E1E"/><path d="M37.05 26.148h-3.607v3.306h3.607v-3.306zm3.005-3.708H37.05v3.607h3.005v-3.606z" fill="#1E1E1E"/><path d="M39.156 24.445h-6.812v2.604h6.812v-2.604z" fill="#fff"/><path d="M38.556 25.847h-5.71v2.204h5.71v-2.204z" fill="#fff"/><path d="M38.556 23.743h-5.71v2.204h5.71v-2.204zm-.703 3.407h-4.308v1.703h4.308v-1.704z" fill="#fff"/><path d="M37.853 22.842h-4.308v1.703h4.308v-1.703z" fill="#fff"/><path d="M39.452 21.44h-7.714v1.301h7.714V21.44zm0 7.613h-7.714v1.302h7.714v-1.302z" fill="#1E1E1E"/><path d="M38.652 29.754H32.64v1.302h6.01v-1.302zm0-9.016H32.64v1.302h6.01v-1.302zm3.105 2.504h-1.703v5.21h1.703v-5.21z" fill="#1E1E1E"/><path d="M24.626 22.44h-2.104v7.014h2.104V22.44z" fill="#313131"/><path d="M24.626 22.44h-2.104v3.607h2.104v-3.606z" fill="#1E1E1E"/><path d="M24.025 21.54h-1.502v1.001h1.502V21.54zm0 7.312h-1.502v1.002h1.502v-1.002z" fill="#1E1E1E"/><path d="M24.229 24.144h-1.704v2.605h1.704v-2.605z" fill="#fff"/><path d="M23.728 25.647h-1.203v2.204h1.203v-2.204zm0-2.605h-1.203v2.204h1.203v-2.204z" fill="#fff"/><path d="M22.926 26.95h-.4v1.702h.4V26.95zm-.003-4.91h-.4v1.703h.4V22.04z" fill="#fff"/><path d="M31.439 24.144h-7.414v1.803h7.414v-1.803z" fill="#1E1E1E"/><path d="M30.436 23.643h-5.21v1.102h5.21v-1.102z" fill="#1E1E1E"/><path d="M30.436 25.146h-5.21v1.102h5.21v-1.102z" fill="#BFA08C"/><path d="M28.935 23.042h-2.304v1.102h2.304v-1.102z" fill="#1E1E1E"/><path d="M28.935 24.545h-2.304v1.102h2.304v-1.102z" fill="#BFA08C"/><path d="M32.441 76.239v7.413h3.306v3.908h2.505v3.406h2.404v3.306h4.008V76.239H32.44zm35.365 0h-11.32v18.033h4.107v-3.306h2.404V87.86h4.809V76.24z" fill="#E2E2E2"/><path d="M41.857 85.255h-7.213v8.917h7.213v-8.917zm27.452.501h-8.616v9.117h8.616v-9.117z" fill="#424242"/><path d="M35.045 85.255H20.318v67.924h14.727V85.255zM68.31 76.34v9.416h-.301v67.423h.3v.1h21.54v-76.94h-21.54z" fill="#424242"/><path d="M69.81 153.179V93.27H58.288v5.01h-2.404v7.012h-8.516v-7.013h-3.606V93.27h-8.916v59.909H69.81z" fill="#424242"/><path d="M53.178 105.392h-3.106v50.692h3.106v-50.692z" fill="#282828"/><path d="M34.745 76.34H11.703v76.739h23.042v-76.74zm-23.042 0H.583v72.732h11.12V76.339zm90.064 0H89.345v72.732h12.422V76.339z" fill="#424242"/><path d="M16.01 99.782h-4.408v66.321h4.409V99.782zm73.436.2h-4.408v66.321h4.408v-66.32z" fill="#282828"/></svg>