<svg width="928" height="763" fill="none" xmlns="http://www.w3.org/2000/svg"><g opacity=".1" clip-path="url(#a)"><mask id="c" style="mask-type:alpha" maskUnits="userSpaceOnUse" x="0" y="-165" width="928" height="929"><path fill="url(#b)" d="M0-164.533h928v928H0z"/></mask><g opacity=".9" fill="#fff" mask="url(#c)"><path opacity=".9" d="M463.594 292.297l-34.361 700.194h68.586l-34.225-700.194z"/><path opacity=".9" d="M463.594 305.825l34.225-700.329h-68.586l34.361 700.329z"/><path opacity=".9" d="M470.358 299.061l-700.329-34.36v68.585l700.329-34.225z"/><path opacity=".9" d="M456.83 299.061l700.19 34.225v-68.585l-700.19 34.36z"/><path opacity=".9" d="M468.329 294.191L-51.135 765.226l48.565 48.429 470.899-519.464z"/><path opacity=".9" d="M458.727 303.796l519.463-470.9-48.429-48.564-471.034 519.464z"/><path opacity=".9" d="M468.329 303.796l-470.9-519.464-48.564 48.564 519.464 470.9z"/><path opacity=".9" d="M458.727 294.191l471.034 519.464 48.429-48.429-519.463-471.035z"/><path opacity=".9" d="M466.165 292.703L169.367 927.964l63.445 25.973 233.353-661.234z"/><path opacity=".9" d="M461.023 305.284l296.663-635.261-63.445-25.973-233.218 661.234z"/><path opacity=".9" d="M469.817 301.631L-165.444 4.834l-25.973 63.444 661.234 233.353z"/><path opacity=".9" d="M457.236 296.491L1092.5 593.153l25.97-63.445-661.234-233.217z"/><path opacity=".9" d="M469.819 296.355L-189.25 535.796l26.514 63.174 632.555-302.615z"/><path opacity=".9" d="M457.236 301.631l659.074-239.44-26.52-63.174L457.236 301.63z"/><path opacity=".9" d="M466.162 305.284l-239.44-659.07-63.174 26.515 302.614 632.555z"/><path opacity=".9" d="M460.889 292.703l239.44 659.069 63.174-26.514-302.614-632.555z"/><path opacity=".9" d="M464.811 292.297l-168.96 680.578 67.232 13.122 101.728-693.7z"/><path opacity=".9" d="M462.241 305.69l168.961-680.444-67.232-13.257L462.241 305.69z"/><path opacity=".9" d="M470.223 300.278L-210.22 131.317l-13.258 67.233 693.701 101.728z"/><path opacity=".9" d="M456.83 297.708l680.58 168.961 13.12-67.233-693.7-101.728z"/><path opacity=".9" d="M469.141 295.273l-600.63 361.595 38.148 56.952L469.14 295.273z"/><path opacity=".9" d="M457.912 302.849l600.628-361.73-38.15-56.817-562.478 418.547z"/><path opacity=".9" d="M467.384 304.607L105.653-296.022l-56.816 38.148 418.547 562.481z"/><path opacity=".9" d="M459.805 293.379L821.4 894.009l56.952-38.148-418.547-562.482z"/><path opacity=".9" d="M467.244 293.379L53.297 859.243l57.222 37.742 356.725-603.606z"/><path opacity=".9" d="M459.805 304.607l413.947-565.863-57.222-37.742-356.725 603.605z"/><path opacity=".9" d="M469.143 302.713L-96.721-111.234l-37.742 57.222 603.606 356.725z"/><path opacity=".9" d="M457.912 295.273l565.868 413.948 37.74-57.223-603.608-356.725z"/><path opacity=".9" d="M470.221 297.708l-692.889 107.41 13.798 67.097 679.091-174.507z"/><path opacity=".9" d="M456.965 300.414l692.755-107.545-13.8-67.098-678.955 174.643z"/><path opacity=".9" d="M464.949 305.689L357.404-387.199l-67.097 13.798 174.642 679.09z"/><path opacity=".9" d="M462.241 292.432l107.41 692.754 67.098-13.798-174.508-678.956z"/></g></g><defs><radialGradient id="b" cx="0" cy="0" r="1" gradientUnits="userSpaceOnUse" gradientTransform="matrix(0 464 -464 0 464 299.467)"><stop offset=".553"/><stop offset="1" stop-color="#C4C4C4" stop-opacity="0"/></radialGradient><clipPath id="a"><path fill="#fff" d="M0 0h928v763H0z"/></clipPath></defs></svg>