<svg width="42" height="42" fill="none" xmlns="http://www.w3.org/2000/svg"><path d="M28.654 6.55A6.551 6.551 0 0022.102 0h-3.93a6.55 6.55 0 00-6.551 6.55v2.302h8.45v1.853l-12.386.005a6.551 6.551 0 00-6.551 6.552v3.93a6.55 6.55 0 006.55 6.552h3.762V20.18h17.21l-.002-13.63zm-13.63.328a.954.954 0 11-.001-1.908.954.954 0 010 1.908z" fill="url(#paint0_linear)"/><path d="M34.316 14.257h-3.761v7.562H13.344l.002 13.63A6.551 6.551 0 0019.898 42h3.93a6.55 6.55 0 006.552-6.55v-2.302h-8.45v-1.853l12.386-.005a6.551 6.551 0 006.55-6.552v-3.93a6.55 6.55 0 00-6.55-6.551zm-7.338 20.865a.954.954 0 110 1.908.954.954 0 010-1.908z" fill="url(#paint1_linear)"/><defs><linearGradient id="paint0_linear" x1="14.895" y1="0" x2="14.895" y2="27.744" gradientUnits="userSpaceOnUse"><stop stop-color="#FFA4A4"/><stop offset="1" stop-color="#F1F1F1"/></linearGradient><linearGradient id="paint1_linear" x1="27.105" y1="14.257" x2="27.105" y2="42" gradientUnits="userSpaceOnUse"><stop stop-color="#FFA4A4"/><stop offset="1" stop-color="#F1F1F1"/></linearGradient></defs></svg>