<svg width="42" height="42" fill="none" xmlns="http://www.w3.org/2000/svg"><path d="M38.719 17.719a1.971 1.971 0 001.968-1.969 1.971 1.971 0 00-1.968-1.969c-.855 0-1.577.55-1.848 1.313h-2.702a14.49 14.49 0 00-2.734-4.056l1.023-1.194h1.788a1.966 1.966 0 001.848 1.312 1.971 1.971 0 001.968-1.969 1.971 1.971 0 00-1.968-1.968c-.855 0-1.577.55-1.848 1.312h-2.09a.656.656 0 00-.498.23l-1.173 1.368a14.455 14.455 0 00-4.56-2.7l2.622-3.492h8.324a1.966 1.966 0 001.848 1.313 1.971 1.971 0 001.968-1.969 1.971 1.971 0 00-1.968-1.969c-.855 0-1.577.551-1.848 1.313h-8.652c-.206 0-.4.097-.525.262l-3.101 4.128A14.417 14.417 0 0021 6.563c-1.24 0-2.444.157-3.593.452l-3.1-4.128a.658.658 0 00-.526-.262H5.13a1.966 1.966 0 00-1.848-1.313 1.971 1.971 0 00-1.969 1.97c0 1.085.884 1.968 1.97 1.968.854 0 1.576-.55 1.847-1.313h8.324l2.622 3.491a14.435 14.435 0 00-4.56 2.701L10.342 8.76a.655.655 0 00-.498-.229h-2.09A1.966 1.966 0 005.906 7.22a1.971 1.971 0 00-1.968 1.968c0 1.086.883 1.97 1.968 1.97.855 0 1.577-.551 1.848-1.313h1.788l1.023 1.194a14.475 14.475 0 00-2.734 4.056H5.129a1.966 1.966 0 00-1.848-1.313 1.971 1.971 0 00-1.969 1.969c0 1.085.884 1.969 1.97 1.969.854 0 1.576-.55 1.847-1.313h2.188a14.37 14.37 0 00-.001 9.188H5.129a1.966 1.966 0 00-1.848-1.313 1.971 1.971 0 00-1.969 1.969c0 1.085.884 1.969 1.97 1.969.854 0 1.576-.55 1.847-1.313h2.702a14.489 14.489 0 002.734 4.056l-1.023 1.194H7.754a1.966 1.966 0 00-1.848-1.312 1.971 1.971 0 00-1.968 1.968c0 1.086.883 1.97 1.968 1.97.855 0 1.577-.551 1.848-1.313h2.09a.653.653 0 00.498-.23l1.173-1.369a14.442 14.442 0 004.56 2.701l-2.622 3.492H5.13a1.966 1.966 0 00-1.848-1.313 1.971 1.971 0 00-1.969 1.969c0 1.085.884 1.968 1.97 1.968.854 0 1.576-.55 1.847-1.312h8.652a.658.658 0 00.525-.262l3.101-4.128a14.438 14.438 0 007.186 0l3.1 4.128a.659.659 0 00.526.262h8.652a1.966 1.966 0 001.848 1.313 1.971 1.971 0 001.968-1.97 1.971 1.971 0 00-1.968-1.968c-.855 0-1.577.55-1.848 1.313h-8.324l-2.622-3.492c1.69-.615 3.23-1.54 4.56-2.7l1.173 1.367c.125.147.307.23.498.23h2.09a1.966 1.966 0 001.848 1.313 1.971 1.971 0 001.968-1.968 1.971 1.971 0 00-1.968-1.97c-.855 0-1.577.551-1.848 1.313h-1.788l-1.023-1.194a14.49 14.49 0 002.734-4.056h2.702a1.966 1.966 0 001.848 1.313 1.971 1.971 0 001.968-1.969 1.971 1.971 0 00-1.968-1.969c-.855 0-1.577.55-1.848 1.313h-2.188a14.369 14.369 0 00.001-9.188h2.187a1.965 1.965 0 001.848 1.313zM21 34.125c-7.237 0-13.125-5.888-13.125-13.125S13.763 7.875 21 7.875 34.125 13.763 34.125 21 28.237 34.125 21 34.125z" fill="#FF8F8F"/><path d="M21 9.188C14.487 9.188 9.187 14.486 9.187 21c0 6.513 5.3 11.813 11.813 11.813 6.513 0 11.813-5.3 11.813-11.813 0-6.513-5.3-11.813-11.813-11.813zm-4.302 6.016l3.938-2.625a.656.656 0 01.728 0l3.937 2.625a.656.656 0 11-.728 1.092L21 13.914l-3.573 2.382a.657.657 0 01-.729-1.092zm5.614 5.14a.656.656 0 110 1.312H21v1.969a.656.656 0 01-1.313 0v-5.25c0-.362.294-.656.657-.656h2.625a.656.656 0 110 1.312H21v1.313h1.313zm-9.843 1.312a.656.656 0 110-1.313.656.656 0 010 1.313zm3.281 1.969a.656.656 0 01-1.313 0v-5.25a.656.656 0 011.244-.293l1.382 2.763v-2.47a.656.656 0 011.312 0v5.25a.656.656 0 01-1.244.293l-1.381-2.763v2.47zm9.552 3.171l-3.938 2.625a.656.656 0 01-.728 0l-3.938-2.625a.657.657 0 01.729-1.092L21 28.086l3.573-2.382a.656.656 0 11.729 1.092zm2.917-7.765h-.657v4.594a.656.656 0 11-1.312 0v-4.594h-.656a.656.656 0 110-1.312h2.625a.656.656 0 110 1.312zM30.187 21a.656.656 0 11-1.312 0 .656.656 0 011.313 0z" fill="url(#a)"/><defs><linearGradient id="a" x1="21" y1="9.188" x2="21" y2="32.813" gradientUnits="userSpaceOnUse"><stop stop-color="#FFA4A4"/><stop offset="1" stop-color="#F1F1F1"/></linearGradient></defs></svg>