<svg width="85" height="85" fill="none" xmlns="http://www.w3.org/2000/svg"><rect width="85" height="85" rx="4" fill="#FC0"/><path d="M60.713 40.431s10.116 12.31 10.076 12.351c-.041.041-1.248 2.2-1.248 2.209 0 .01-2.627 4.283-5.398 6.686-2.77 2.404-6.176 5.46-12.453 7.055-6.278 1.595-8.67 1.227-8.711 1.227-.041 0 17.734-29.528 17.734-29.528z" fill="#EBBD03"/><path d="M64.104 29.254s9.595 13.879 9.62 13.902c0 .077-.43 2.672-.643 3.34-.494 1.96-.533 1.82-.758 2.595-.617 1.71-1.218 3.022-1.218 3.022l-10.243-12.77a2.336 2.336 0 01-1.36.304c-.755-.08-1.035.03-1.99-.61-.954-.64-1.235-1.218-1.235-1.218l7.827-8.565z" fill="#EBBD03"/><path d="M24.915 55.416c1.043-2.876 1.418-4.11 1.31-4.312-.084-.155-.906-1.423-1.828-2.818a586.584 586.584 0 01-2.494-3.803 469 469 0 00-1.4-2.156c-.578-.882-.58-.89-.327-1.606 3.16-8.94 3.712-10.286 4.667-11.35 1.075-1.198 3.56-2.305 5.17-2.302.89.002 3.255.76 8.96 2.875l1.86.69c.394.133.776.296 1.145.489.213.184-.73 1.705-1.584 2.555-1.366 1.357-3.547 2.148-5.4 1.954-.526-.055-1.852-.415-2.948-.8-2.275-.798-2.065-.877-2.707 1.022-.406 1.2-.413 1.276-.131 1.538.163.15 2.556 1.622 5.318 3.27 4.117 2.455 5.177 3.165 5.884 3.938 1.034 1.13 1.635 2.26 2.051 3.855.395 1.513.39 2.561-.018 4.136-.123.423-.221.853-.293 1.287a2.57 2.57 0 001.115.41c.537 0 1.062-1.878 1.064-3.806.002-2.272-.717-4.391-2.158-6.356-.904-1.232-1.727-1.826-6.388-4.616-2.28-1.364-4.32-2.628-4.536-2.807-.383-.32-.384-.326-.037-.331.195-.004.803.16 1.353.364.815.301 1.371.37 3.027.376 1.862.007 2.12-.033 3.128-.47.773-.36 1.512-.788 2.208-1.28.985-.714 1.233-.814 2.203-.892a5.64 5.64 0 001.796-.446l.703-.359.54.944c1.029 1.8 2.315 2.705 4.102 2.888.671.07 1.183-.014 2.207-.358.732-.246 1.343-.425 1.356-.399.942 1.914 1.83 2.854 3.176 3.357.779.27 1.595.42 2.42.441.009.001 1.29-.107 1.287-.117.016.058-5.058 14.012-6.268 17.247-1.533 1.576-4.06 1.172-4.883 3.474-.217.646-3.68 8.8-3.751 8.73a31.17 31.17 0 01-6.779-.128 29.235 29.235 0 01-7.138-1.794c-2.653-.949-6.784-3.236-9.509-5.802.035 0 1.303-3.362 2.527-6.733zm32.265-16.88c-.581-.22-1.083-.902-1.42-1.555-.701-1.354-.59-1.923 1.438-7.348.209-.559.417-.976.627-1.42.469-1.296 2.011-.642 1.999-.642 1.58.494 1.85.63 3.401 1.183.004.026 1.645.396 1.098 1.881 0 0-.432 1.057-.798 2.086l-.908 2.547c-.133.372-.325 1.722-2.298 3.064-.93.641-2.652.387-3.139.203zm-7.905-2.996c-.938-.426-1.71-1.41-1.95-2.484l-.197-.879 1.836-5.048c1.14-3.136 1.978-5.192 2.213-5.429.278-.28.574-.38 1.128-.38.888 0 3.513.899 4.286 1.468.994.73.95 1.086-.715 5.683-1.972 5.45-2.21 6-2.823 6.52a3.597 3.597 0 01-3.778.549zm-5.99-2.875c.13-.453.29-.896.478-1.326l.479-1.175-.52-.208a83.907 83.907 0 00-2.212-.798c-.93-.325-1.78-.68-1.89-.79-.152-.154.253-1.439 1.74-5.522 1.067-2.93 2.096-5.49 2.29-5.698.59-.626 1.145-.634 2.875-.041 2.327.798 2.83 1.089 3.134 1.814.281.67.224.898-1.193 4.766-.222.604-.915 2.506-1.54 4.227-.626 1.72-1.248 3.3-1.382 3.511-.513.81-2.26 1.768-2.26 1.24h.001zm-8.707-6.01c-2.45-.85-3.053-1.12-3.092-1.386-.044-.29 1.06-3.632 2.154-6.52.408-1.077 1.154-1.825 1.82-1.825.616 0 4.184 1.327 4.593 1.709.488.454.606 1.318.298 2.199-.142.408-.612 1.73-1.044 2.94-.433 1.208-.9 2.516-1.037 2.905-.138.39-.34.781-.45.87-.133.11-1.199-.184-3.241-.892z" fill="#333"/></svg>