<svg width="85" height="85" fill="none" xmlns="http://www.w3.org/2000/svg"><mask id="mask0" maskUnits="userSpaceOnUse" x="0" y="0" width="85" height="85"><rect width="85" height="85" rx="4" fill="#F2F4F9"/></mask><g mask="url(#mask0)"><rect width="85" height="85" rx="4" fill="#F2F4F9"/></g><path d="M18.797 35.203h-6.338c-.338 0-.663.136-.902.379a1.3 1.3 0 00-.373.913v15.5a1.29 1.29 0 001.275 1.292c.284 0 .56-.097.785-.275a1.293 1.293 0 00.464-.76v-6.715h5.09c2.804 0 5.078-2.312 5.078-5.167 0-2.854-2.275-5.167-5.08-5.167zm0 7.75h-5.09v-5.166h5.09a2.534 2.534 0 011.784.767c.471.483.736 1.136.736 1.816a2.6 2.6 0 01-.736 1.816 2.534 2.534 0 01-1.784.767zm20.436 9.042a1.3 1.3 0 01-.312.848 1.27 1.27 0 01-.963.446h-9.946a1.24 1.24 0 01-.254.025 1.268 1.268 0 01-.888-.385 1.3 1.3 0 010-1.812c.235-.242.553-.38.888-.386h3.826v-12.97h-3.572a1.248 1.248 0 01-.254.026 1.267 1.267 0 01-.888-.386 1.3 1.3 0 010-1.811c.235-.242.553-.38.888-.386h9.945a1.259 1.259 0 01.975.198 1.285 1.285 0 01.538.848 1.308 1.308 0 01-.227.981 1.28 1.28 0 01-1.031.53h-3.825V50.73h3.57a1.26 1.26 0 011.062.265 1.29 1.29 0 01.468 1zM54.53 41.636c0-3.567-2.853-6.459-6.374-6.459-1.69 0-3.312.68-4.508 1.892a6.502 6.502 0 00-1.867 4.567v5.192c0 1.713.672 3.356 1.867 4.567a6.334 6.334 0 004.508 1.892c3.427 0 6.222-2.739 6.369-6.175a6.75 6.75 0 00.006-.284v-5.192zm-2.524 5.148v.044a3.92 3.92 0 01-1.282 2.903 3.82 3.82 0 01-2.708.992 3.828 3.828 0 01-2.63-1.19 3.928 3.928 0 01-1.08-2.705v-.044c.001-.136.01-.272.025-.408v-4.288a4.143 4.143 0 01-.025-.407v-.045a3.947 3.947 0 01.282-1.504c.191-.478.474-.912.832-1.278a3.847 3.847 0 011.254-.856 3.807 3.807 0 014.218.856 3.91 3.91 0 011.114 2.782v.044c-.001.137-.01.273-.025.408v4.288c.015.136.024.272.025.408z" fill="gray"/><path d="M74.013 32.607a2.612 2.612 0 01-.747 1.827 2.547 2.547 0 01-1.803.756h-12.75a2.535 2.535 0 00-2.208 1.292 2.61 2.61 0 010-2.583c.225-.393.546-.719.934-.946a2.525 2.525 0 011.275-.346h12.75c.447 0 .887-.119 1.275-.346.387-.227.71-.553.933-.946a2.6 2.6 0 01.341 1.292zm-11.022 3.646a2.516 2.516 0 00-1.915.384 2.6 2.6 0 00-1.086 1.643l-2.504 12.665a2.6 2.6 0 01-.586 1.2c-.296.34-.675.596-1.1.74a2.519 2.519 0 002.5.507c.425-.145.804-.4 1.1-.741.295-.34.497-.754.585-1.198l2.505-12.666c.087-.445.29-.858.585-1.199.296-.34.675-.596 1.1-.74a2.524 2.524 0 00-1.184-.595zm4.193 0a2.517 2.517 0 011.915.383 2.568 2.568 0 011.086 1.644l2.503 12.664c.088.444.29.858.586 1.199.296.34.675.596 1.1.741a2.52 2.52 0 01-2.5.507 2.55 2.55 0 01-1.1-.742 2.598 2.598 0 01-.585-1.198l-2.504-12.665a2.596 2.596 0 00-.586-1.2 2.546 2.546 0 00-1.099-.74c.336-.3.745-.505 1.184-.593z" fill="#FF8400"/><path d="M57.759 35.178c0 .065.002.129.006.193-.21.084-.41.197-.591.335a2.636 2.636 0 01.41-2.015 2.581 2.581 0 011.728-1.084h.637a2.55 2.55 0 00-1.568.872 2.612 2.612 0 00-.622 1.699z" fill="#B3B3B3"/><path d="M57.133 35.178c0 .177.017.354.052.528-.276.21-.507.474-.68.776a2.61 2.61 0 010-2.583 2.58 2.58 0 01.934-.945 2.526 2.526 0 011.275-.347h.61a2.55 2.55 0 00-1.57.871 2.612 2.612 0 00-.621 1.7z" fill="#666"/><path d="M72.429 32.607c0-.065-.003-.129-.007-.193.21-.084.41-.197.591-.335a2.634 2.634 0 01-.41 2.016 2.546 2.546 0 01-1.728 1.083h-.637a2.55 2.55 0 001.569-.872 2.612 2.612 0 00.622-1.699z" fill="#B3B3B3"/><path d="M73.054 32.62c0-.177-.017-.354-.053-.528.276-.21.508-.474.68-.777a2.61 2.61 0 01.002 2.585c-.224.393-.546.72-.934.946a2.525 2.525 0 01-1.276.346h-.61a2.55 2.55 0 001.57-.872 2.612 2.612 0 00.621-1.7z" fill="#666"/></svg>