<svg width="85" height="85" fill="none" xmlns="http://www.w3.org/2000/svg"><rect width="85" height="85" rx="4" fill="#0A2D4A"/><path d="M39.592 20c10.837 0 19.592 8.83 19.592 19.758 0 .558-.026 1.11-.075 1.654-.175 1.955.784 3.886 2.241 5.2 2.252 2.032 3.65 4.989 3.65 8.274C65 60.999 60.04 66 53.98 66c-3.49 0-6.566-1.597-8.584-4.115-1.186-1.48-2.976-2.496-4.87-2.394-.311.017-.623.026-.934.026C28.755 59.517 20 50.687 20 39.758S28.755 20 39.592 20zM53.98 48.094c-3.735 0-6.735 3.025-6.735 6.792 0 3.766 3 6.792 6.735 6.792 3.734 0 6.734-3.026 6.734-6.792 0-3.767-3-6.792-6.734-6.792zM39.592 24.26c-8.45 0-15.306 6.916-15.306 15.437 0 8.52 6.857 15.436 15.306 15.436.075 0 .15 0 .224-.002 1.857-.025 3.081-1.715 3.614-3.494a11.118 11.118 0 0110.55-7.927.476.476 0 00.463-.355c.303-1.179.455-2.368.455-3.658 0-8.521-6.857-15.437-15.306-15.437z" fill="#fff"/></svg>