<svg width="48" height="48" fill="none" xmlns="http://www.w3.org/2000/svg"><path fill-rule="evenodd" clip-rule="evenodd" d="M38.245 9.54c-.196-.196-.294-.393-.294-.639 0-.245.098-.442.294-.639a1.042 1.042 0 011.373 0c.197.197.294.394.294.64 0 .245-.097.442-.294.639a1.17 1.17 0 01-.686.246c-.245.049-.49-.05-.687-.246zm-2.4 2.558c-.147-.197-.245-.393-.245-.64 0-.245.098-.442.245-.639a.916.916 0 011.275 0c.147.197.245.394.245.64s-.098.442-.245.639c-.197.147-.393.246-.638.246s-.441-.098-.637-.246zm-2.602 2.508a.936.936 0 01-.245-.639c0-.246.098-.443.245-.64a.916.916 0 011.275 0 .937.937 0 01.245.64c0 .246-.098.443-.245.64-.196.196-.392.245-.637.245a.93.93 0 01-.638-.246zm-2.5 2.508a.794.794 0 01-.294-.639c0-.246.098-.443.294-.64a1.042 1.042 0 011.373 0 .794.794 0 01.295.64.794.794 0 01-.295.64c-.196.196-.44.245-.686.245-.245 0-.49-.049-.687-.246zm-2.403 2.509c-.195-.148-.244-.394-.244-.64s.098-.442.245-.639a.916.916 0 011.275 0c.196.147.245.393.245.64a.936.936 0 01-.245.639c-.147.196-.392.246-.638.246a.638.638 0 01-.637-.246zm-2.893 1.868c0-.246.098-.442.245-.64a.916.916 0 011.275 0c.197.198.245.394.245.64s-.098.443-.245.64a.93.93 0 01-.637.245c-.245 0-.441-.098-.638-.245a.936.936 0 01-.245-.64zm-4.657 5.558a.936.936 0 01-.245-.64c0-.245.098-.442.245-.639a.916.916 0 011.275 0c.196.197.245.393.245.64 0 .245-.098.442-.245.639-.147.196-.392.246-.638.246-.245.049-.44-.05-.637-.246zm-2.6 2.508a.794.794 0 01-.294-.64c0-.245.099-.442.295-.639.392-.344.98-.344 1.373 0 .196.197.294.394.294.64 0 .245-.098.442-.294.639-.197.197-.442.246-.687.246-.245.049-.49-.05-.686-.246zm-2.402 2.557a.936.936 0 01-.245-.64c0-.245.098-.491.245-.639a.916.916 0 011.275 0 .936.936 0 01.245.64c0 .246-.098.442-.245.64-.196.196-.392.245-.637.245-.246 0-.442-.098-.638-.246zm-2.5 2.508c-.196-.147-.245-.393-.245-.64 0-.245.098-.442.245-.639a.916.916 0 011.275 0c.147.197.245.394.245.64a.937.937 0 01-.245.64c-.196.196-.392.245-.637.245-.246 0-.49-.05-.638-.246zm-2.599 2.508a.794.794 0 01-.294-.639c0-.246.098-.443.294-.64.392-.343.98-.343 1.324 0 .196.197.294.394.294.64a.794.794 0 01-.294.64 1.17 1.17 0 01-.687.245c-.245 0-.49-.049-.637-.245zm-2.452 2.509c-.196-.197-.245-.394-.245-.64s.098-.442.245-.64a.916.916 0 011.275 0c.196.198.245.394.245.64s-.098.443-.245.64a.93.93 0 01-.637.245c-.196.05-.442-.049-.638-.245zM9.512 9.54c.147-.196.245-.393.245-.639 0-.245-.098-.442-.245-.639a.916.916 0 00-1.275 0c-.196.197-.245.394-.245.64 0 .245.098.442.245.639a.93.93 0 00.638.246c.245.049.49-.05.637-.246zm2.501 2.558c.196-.197.294-.393.294-.64 0-.245-.098-.442-.294-.639a1.042 1.042 0 00-1.373 0c-.196.197-.294.394-.294.64s.098.442.294.639c.196.147.441.246.686.246.245 0 .49-.098.687-.246zm2.55 2.508a.936.936 0 00.245-.639c0-.246-.098-.443-.245-.64a.916.916 0 00-1.275 0 .937.937 0 00-.245.64c0 .246.098.443.245.64.196.196.392.245.638.245.196 0 .44-.098.637-.246zm2.5 2.508a.937.937 0 00.245-.639c0-.246-.098-.443-.245-.64a.916.916 0 00-1.275 0 .936.936 0 00-.245.64.94.94 0 00.245.64c.196.196.392.245.638.245.196 0 .44-.049.637-.246zm2.452 2.509a.794.794 0 00.294-.64c0-.246-.098-.442-.294-.639-.344-.344-.981-.344-1.324 0a.794.794 0 00-.294.64c0 .245.098.491.294.639.196.196.441.246.686.246a.64.64 0 00.638-.246zm2.795 1.868c0-.246-.098-.442-.245-.64a.916.916 0 00-1.275 0c-.196.198-.245.394-.245.64s.098.443.245.64a.93.93 0 00.637.245c.246 0 .442-.098.638-.245.196-.148.245-.394.245-.64zm2.257 3.197c.196-.197.245-.393.245-.64 0-.245-.098-.442-.245-.639a.916.916 0 00-1.275 0c-.196.197-.245.394-.245.64s.098.442.245.64a.93.93 0 00.637.245.93.93 0 00.638-.246zm2.498 2.361a.794.794 0 00.295-.64c0-.245-.098-.442-.295-.639-.392-.344-.98-.344-1.324 0-.196.197-.294.393-.294.64 0 .245.098.442.294.639.197.196.442.246.687.246.196.049.441-.05.637-.246zm2.551 2.508a.936.936 0 00.245-.64c0-.245-.098-.442-.245-.639a.916.916 0 00-1.275 0c-.147.197-.245.394-.245.64 0 .245.098.442.245.639.196.197.392.246.637.246.196.049.442-.05.638-.246zm2.502 2.557a.936.936 0 00.245-.64.936.936 0 00-.245-.639.916.916 0 00-1.275 0 .936.936 0 00-.245.64c0 .246.098.442.245.64.196.196.392.245.637.245s.442-.098.638-.246zm2.353 2.508c.196-.147.245-.393.245-.64 0-.245-.098-.442-.245-.639a.916.916 0 00-1.275 0c-.147.197-.245.394-.245.64s.098.492.245.64c.197.196.393.245.638.245s.49-.05.637-.246zm2.649 2.508c.196-.147.245-.393.245-.639s-.098-.443-.245-.64a.916.916 0 00-1.275 0c-.196.197-.245.394-.245.64s.098.492.245.64a.93.93 0 00.637.245c.245 0 .49-.049.638-.245zm2.498 2.509c.196-.197.294-.394.294-.64s-.098-.442-.294-.64c-.392-.343-.98-.343-1.324 0-.196.198-.294.394-.294.64s.098.443.294.64c.196.147.442.245.687.245.196.05.441-.049.637-.245zM15.444 10.23c2.55-1.673 5.345-2.46 8.434-2.509 3.04 0 5.835.836 8.434 2.508l5.394-5.41C33.489 1.624 28.928 0 23.878 0c-5.05 0-9.66 1.623-13.778 4.82l5.344 5.41zm-5.392 22.18C8.336 29.802 7.502 27 7.502 24c0-3.05.834-5.853 2.55-8.41l-5.345-5.36C1.57 14.36 0 18.933 0 24.048c0 5.016 1.57 9.639 4.756 13.819l5.296-5.459zm22.262 5.36c-2.55 1.72-5.345 2.606-8.385 2.655-3.089 0-5.933-.836-8.483-2.606l-5.393 5.36c4.168 3.246 8.777 4.87 13.876 4.82 5.05-.05 9.61-1.672 13.73-4.82l-5.345-5.41zm5.246-22.23c1.717 2.607 2.6 5.46 2.55 8.558-.049 3-.882 5.754-2.55 8.262l5.394 5.36c3.187-4.13 4.806-8.704 4.806-13.72.049-5.115-1.57-9.738-4.806-13.918L37.56 15.54zm5.64 23.902a3.783 3.783 0 013.775 3.787c0 2.065-1.667 3.786-3.776 3.786a3.783 3.783 0 01-3.775-3.786 3.752 3.752 0 013.775-3.787zm-38.542 0c2.06 0 3.727 1.672 3.727 3.787 0 2.065-1.667 3.786-3.727 3.786-2.06 0-3.726-1.672-3.726-3.786 0-2.115 1.667-3.787 3.726-3.787zM43.246.836c2.06 0 3.727 1.672 3.727 3.787S45.306 8.41 43.246 8.41c-2.06 0-3.727-1.672-3.727-3.787S41.188.836 43.246.836zM4.61.836c2.059 0 3.775 1.672 3.775 3.738 0 2.065-1.667 3.737-3.775 3.737C2.55 8.311.834 6.64.834 4.574S2.501.836 4.61.836z" fill="#fff"/></svg>