<svg width="42" height="45" fill="none" xmlns="http://www.w3.org/2000/svg"><path d="M12.02 3.027v5.785C7.24 10.56 3.25 13.887.714 18.142V.876H9.82c1.214 0 2.2.961 2.2 2.15z" fill="#3E8445"/><path d="M27.738 10.353v5.543c0 3.057-2.54 5.535-5.673 5.535h-1.85c-4.511 0-8.172 3.563-8.181 7.969v15.493h-9.12c-1.218 0-2.201-.962-2.201-2.148V29.622a17.46 17.46 0 01-.014-.689c0-10.268 8.533-18.596 19.06-18.596.238 0 .472.005.709.014h7.27v.002zm2.938 32.387v-5.785c4.782-1.75 8.772-5.077 11.308-9.331V44.89h-9.109c-1.211 0-2.2-.961-2.2-2.15z" fill="#3E8445"/><path d="M14.96 35.417v-5.544c0-3.057 2.54-5.535 5.674-5.535h1.85c4.511 0 8.172-3.563 8.181-7.969V.876h9.12c1.218 0 2.201.962 2.201 2.148v13.123c.012.23.014.458.014.691 0 10.269-8.533 18.596-19.06 18.596-.238 0-.472-.004-.709-.013h-7.27v-.004z" fill="#3E8445"/></svg>