<svg width="57" height="57" fill="none" xmlns="http://www.w3.org/2000/svg"><path d="M57 25.659C50.451-12.11.905-4.801.02 25.659a434.154 434.154 0 004.657 2.374S3.16 28.937 0 30.947c5.71 37.027 54.402 31.65 56.99-.043a437.45 437.45 0 00-4.784-2.886s1.449-.687 4.794-2.36z" fill="#B7B5B1"/><path d="M54.687 24.178c-8.879-33.561-49.57-24.482-52.357 0 5.646 3.162 6.927 3.905 6.927 3.905s-2.182 1.389-6.946 4.4c6.057 32.265 49.961 26.065 52.367-.038-4.43-2.765-7.044-4.376-7.044-4.376s5.974-3.323 7.053-3.891zM32.62 38.869l-4.646-7.95-4.73 7.95-3.568-.244 6.72-11.277-6.056-9.735 3.65-.325 4.315 7.22 4.315-6.895 3.402.081-5.642 9.573 6.223 11.52-3.983.082z" fill="#244B81"/></svg>