<svg width="104" height="19" xmlns="http://www.w3.org/2000/svg"><g id="Canvas" fill="none"><g id="twitter" fill="#3CF"><path d="M.047.009C.03.01.016.01 0 .013L.08 0C.069.002.06.007.048.009z" transform="translate(64.945 11.665)" id="path7"/><path d="M11.386 13.1c0 .515-.187.955-.562 1.322-.374.367-.823.55-1.347.55H5.704c-1.572 0-2.915-.546-4.03-1.641C.556 12.236 0 10.918 0 9.376V1.873C0 1.344.186.9.557.54.93.18 1.383 0 1.918 0c.52 0 .967.184 1.338.55.373.367.56.807.56 1.322v2.716h5.37c.489 0 .906.17 1.255.511.348.34.522.748.522 1.225 0 .476-.174.884-.52 1.225-.348.34-.765.51-1.25.51H3.815v1.315c0 .515.183.954.55 1.314.367.36.813.541 1.337.541h3.774c.524 0 .974.184 1.348.55.375.368.562.808.562 1.322z" transform="translate(0 2.279)" id="path9"/><path d="M9.326 13.1c0 .515-.188.955-.562 1.322-.374.367-.823.55-1.346.55H5.704c-1.572 0-2.916-.546-4.031-1.641C.557 12.236 0 10.918 0 9.376V1.873C0 1.344.185.9.557.54.93.18 1.382 0 1.918 0c.52 0 .967.184 1.338.55.372.367.559.807.559 1.322v2.716h3.312c.488 0 .906.17 1.254.511.349.34.522.748.522 1.225 0 .476-.173.884-.52 1.225-.347.34-.764.51-1.25.51H3.815v1.315c0 .515.182.954.55 1.314.367.36.813.541 1.337.541h1.714c.524 0 .974.184 1.348.55.375.368.562.808.562 1.322z" transform="translate(46.25 2.279)" id="path11"/><path d="M9.325 13.1c0 .515-.187.955-.56 1.322-.375.367-.824.55-1.348.55H5.703c-1.571 0-2.915-.546-4.03-1.641C.557 12.236 0 10.918 0 9.376V1.873C0 1.344.186.9.557.54.93.18 1.382 0 1.918 0c.52 0 .967.184 1.338.55.372.367.559.807.559 1.322v2.716h3.312c.488 0 .906.17 1.254.511.349.34.522.748.522 1.225 0 .476-.173.884-.52 1.225-.347.34-.764.51-1.25.51H3.815v1.315c0 .515.183.954.55 1.314.367.36.813.541 1.337.541h1.715c.524 0 .973.184 1.348.55.373.368.56.808.56 1.322z" transform="translate(36.274 2.279)" id="path13"/><path d="M17.748 5.41c0 1.443-.521 2.677-1.565 3.7-1.043 1.025-2.3 1.536-3.77 1.536-1.344 0-2.527-.446-3.55-1.339a5.155 5.155 0 01-3.528 1.34c-1.47 0-2.727-.512-3.77-1.536C.52 8.087 0 6.853 0 5.41V1.752C0 1.257.175.842.525.505A1.75 1.75 0 011.784 0c.49 0 .91.168 1.259.505.35.337.525.753.525 1.249v3.658c0 .483.171.891.514 1.228.343.337.76.505 1.25.505.476 0 .886-.168 1.229-.505.343-.337.514-.745.514-1.228V1.774c0-.481.176-.897.526-1.248A1.75 1.75 0 018.885 0c.49 0 .911.172 1.262.516.351.344.527.757.527 1.238v3.658c0 .483.171.891.514 1.228.343.337.753.505 1.229.505.49 0 .907-.168 1.25-.505.343-.337.514-.745.514-1.228V1.754c0-.481.175-.894.525-1.238A1.73 1.73 0 0115.965 0c.49 0 .91.172 1.26.515.349.344.524.756.524 1.237V5.41z" transform="translate(12.035 6.605)" id="path15"/><path d="M3.814 1.872c0 .513-.187.953-.561 1.32a1.854 1.854 0 01-1.346.551 1.86 1.86 0 01-1.347-.55A1.787 1.787 0 010 1.871C0 1.357.187.917.56.55.935.183 1.383 0 1.907 0s.972.183 1.346.55c.374.367.561.808.561 1.322z" transform="translate(31.122 1.87)" id="path17"/><path d="M3.814 8.773c0 .514-.187.955-.561 1.322a1.85 1.85 0 01-1.346.55c-.524 0-.972-.182-1.347-.55A1.79 1.79 0 010 8.773v-6.9C0 1.36.187.919.56.552A1.854 1.854 0 011.907 0c.524 0 .972.184 1.346.551.374.367.561.808.561 1.323v6.899z" transform="translate(31.122 6.605)" id="path19"/><path d="M9.664 1.736c0 .476-.174.885-.522 1.225-.347.34-.764.51-1.25.51H5.288a1.7 1.7 0 00-1.24.502c-.341.333-.51.739-.51 1.217v3.456c0 .477-.174.886-.52 1.227a1.715 1.715 0 01-1.25.511c-.484 0-.901-.17-1.248-.51A1.663 1.663 0 010 8.646V5.192c0-1.43.517-2.654 1.551-3.669C2.586.508 3.832 0 5.291 0h2.602c.486 0 .902.17 1.25.511.347.34.52.748.52 1.225z" transform="translate(68.594 6.867)" id="path21"/><path d="M5.576 10.649a5.595 5.595 0 01-4.032-1.685C.429 7.841 0 6.617 0 5.034 0 5.034-.109 0 5.674 0c4.524 0 5.901 3.129 5.901 4.674 0 1.228-.57 1.663-1.868 1.663H3.924S3.714 7.64 6.349 7.64h3.3c.844 0 1.527.673 1.527 1.504s-.683 1.504-1.527 1.504H5.576zm-1.614-6.71H7.76c0-1.228-1.888-1.228-1.888-1.228s-1.909 0-1.909 1.229z" transform="translate(55.97 6.602)" id="path23"/><path d="M27.985 8.764c-.985.165-2.413-.007-3.17-.317 1.573-.128 2.638-.832 3.048-1.787-.567.343-2.327.717-3.298.36a11.526 11.526 0 00-.155-.632c-.74-2.68-3.275-4.839-5.931-4.577.214-.086.431-.166.65-.238.291-.103 2.008-.379 1.738-.975-.229-.525-2.325.395-2.72.517C18.668.922 19.531.59 19.622 0a4.185 4.185 0 00-2.187 1.02c.22-.23.385-.513.42-.818-2.13 1.341-3.374 4.043-4.38 6.666-.79-.756-1.492-1.35-2.12-1.681-1.763-.93-3.871-1.903-7.18-3.114-.101 1.079.541 2.515 2.393 3.468-.401-.054-1.135.066-1.72.203C5.086 6.981 5.867 8 7.98 8.491c-.966.063-1.466.28-1.918.746.44.86 1.514 1.872 3.445 1.664-2.148.913-.876 2.603.872 2.35-2.98 3.036-7.68 2.81-10.38.274 7.046 9.463 22.364 5.596 24.646-3.519 1.712.014 2.716-.583 3.34-1.242z" transform="translate(76.015)" id="path25"/></g></g></svg>