<svg width="73" height="73" fill="none" xmlns="http://www.w3.org/2000/svg"><path d="M36.5 73C56.658 73 73 56.658 73 36.5S56.658 0 36.5 0 0 16.342 0 36.5 16.342 73 36.5 73z" fill="url(#a)"/><path fill-rule="evenodd" clip-rule="evenodd" d="M36.989 52.69h-.008a17.823 17.823 0 01-8.524-2.17L19 53l2.53-9.244a17.807 17.807 0 01-2.38-8.918C19.154 25.002 27.156 17 36.989 17a17.724 17.724 0 0112.619 5.232 17.73 17.73 0 015.22 12.62c-.004 9.833-8.004 17.835-17.84 17.839zm-8.094-5.4l.541.321a14.804 14.804 0 007.547 2.067h.006c8.172 0 14.823-6.652 14.827-14.827a14.738 14.738 0 00-4.339-10.49 14.726 14.726 0 00-10.482-4.348c-8.179 0-14.83 6.65-14.833 14.826a14.79 14.79 0 002.266 7.89l.353.562-1.498 5.47 5.612-1.471zm17.081-8.196c-.111-.186-.408-.298-.854-.52-.446-.224-2.637-1.302-3.046-1.45-.409-.15-.706-.224-1.003.222-.297.446-1.151 1.45-1.411 1.748-.26.297-.52.335-.966.111-.446-.223-1.882-.693-3.584-2.212-1.326-1.182-2.22-2.641-2.48-3.088-.26-.446-.028-.687.195-.91.2-.2.446-.52.669-.78.223-.26.297-.447.446-.744.148-.297.074-.558-.038-.78-.11-.224-1.002-2.418-1.374-3.31-.362-.87-.73-.752-1.003-.765a16.54 16.54 0 00-.854-.016c-.297 0-.78.111-1.189.557-.408.447-1.56 1.525-1.56 3.719s1.598 4.314 1.82 4.61c.223.299 3.144 4.8 7.615 6.731a25.62 25.62 0 002.54.94c1.069.339 2.04.29 2.808.176.857-.128 2.637-1.078 3.01-2.12.37-1.04.37-1.933.259-2.12z" fill="#FDFDFD"/><defs><linearGradient id="a" x1="36.5" y1="0" x2="36.5" y2="72.458" gradientUnits="userSpaceOnUse"><stop stop-color="#41D639"/><stop offset="1" stop-color="#66CE5A"/></linearGradient></defs></svg>