<svg width="64" height="64" fill="none" xmlns="http://www.w3.org/2000/svg"><path d="M27 54l-5.726.028a17.654 17.654 0 01-9.568-2.761l-.143-.09a18.22 18.22 0 01-8.112-11.86C2.727 35.635 2 32 2 32l1.6 2.881A11.9 11.9 0 0014 41a32.314 32.314 0 01-7.883-18.593L6 21l1.648 2.637A8.033 8.033 0 0017 27l-1.755-2.535A15.251 15.251 0 0117 5l.219 1.972A9.128 9.128 0 0025 15a11.782 11.782 0 018.683-11.368L36 3a8.922 8.922 0 002.561 11.686L39 15a10.014 10.014 0 019.029-8.73L51 6l-2 2a7.072 7.072 0 000 10 6.676 6.676 0 007.28-3.561L57 13a25.252 25.252 0 01-6.138 21.043L50 35a7.377 7.377 0 009.555-2.689L61 30l-1.042 7.3a18.67 18.67 0 01-5.992 11.236 18.671 18.671 0 01-11.64 4.764L27 54z" fill="#2E2626"/><path d="M22 61V31h23v10.69a7.986 7.986 0 01-2.34 5.65L42 48v13H22z" fill="url(#a)"/><path d="M41 25a3 3 0 10-6 0v7a3 3 0 106 0v-7z" fill="url(#b)"/><path d="M47 28a3 3 0 10-6 0v5a3 3 0 106 0v-5z" fill="url(#c)"/><path d="M35 23a3 3 0 10-6 0v9a3 3 0 106 0v-9z" fill="url(#d)"/><path d="M29 25a3 3 0 10-6 0v7a3 3 0 106 0v-7z" fill="url(#e)"/><path d="M40.87 32.87A3 3 0 0135 32v-7a2.982 2.982 0 012.13-2.87A3.104 3.104 0 0037 23v7a3 3 0 003.87 2.87z" fill="url(#f)"/><path d="M46.87 33.87A3 3 0 0141 33v-5a2.982 2.982 0 012.13-2.87A3.104 3.104 0 0043 26v5a3 3 0 003.87 2.87z" fill="url(#g)"/><path d="M35 28.82V32a3 3 0 11-6 0v-9a2.968 2.968 0 012-2.82V26a3 3 0 003 3 2.77 2.77 0 001-.18z" fill="url(#h)"/><path d="M29 28.82V32a3 3 0 11-6 0v-7a2.968 2.968 0 012-2.82V26a3 3 0 003 3 2.77 2.77 0 001-.18z" fill="url(#i)"/><path d="M23.429 36.429a6.428 6.428 0 016.428 6.428A5.143 5.143 0 0124.714 48h-2.571l-4.329-8.657a7.72 7.72 0 01-.814-3.45 6.228 6.228 0 017.107-6.164L35 31.286a5.145 5.145 0 01-5.143 5.143h-6.428z" fill="url(#j)"/><path d="M35 31.286a5.144 5.144 0 01-5.143 5.143h-6.428l2.207-.417c3.504-.661 6.75-2.3 9.364-4.726z" fill="url(#k)"/><path d="M29.72 44.02a5.118 5.118 0 01-1.37 2.48 5.173 5.173 0 01-3.64 1.5h-2.57l-4.33-8.66a7.774 7.774 0 01-.81-3.45 6.18 6.18 0 012.26-4.79 6.25 6.25 0 00-.26 1.79c0 1.197.278 2.378.81 3.45l3.18 6.36c.347.692.88 1.274 1.54 1.68a4.1 4.1 0 002.18.62 5.065 5.065 0 003.01-.98z" fill="url(#l)"/><path d="M61.343 29.061a1 1 0 00-1.19.41l-1.446 2.311a6.346 6.346 0 01-6.987 2.8 26.113 26.113 0 006.266-21.748 1 1 0 00-1.88-.282l-.72 1.44a5.685 5.685 0 01-5.89 3.078 6.072 6.072 0 01.211-8.364l2-2a1 1 0 00-.8-1.7l-2.97.27a11.094 11.094 0 00-9.594 7.95A7.9 7.9 0 0136.868 3.5a1 1 0 00-1.13-1.46l-2.319.631a12.817 12.817 0 00-9.36 11.113 8.128 8.128 0 01-5.846-6.918l-.219-1.976a1 1 0 00-1.7-.6 16.242 16.242 0 00-1.87 20.741l.917 1.325a7.008 7.008 0 01-6.84-3.249L6.847 20.47A1 1 0 005 21.083l.118 1.407A33.034 33.034 0 0011.7 39.754 10.903 10.903 0 014.475 34.4l-1.6-2.88a1 1 0 00-1.855.68s.726 3.634 1.45 7.314a19.319 19.319 0 008.558 12.511l.14.09a18.631 18.631 0 009.9 2.913L21 60.99a1 1 0 00.99 1.01H22a1 1 0 001-.989l.143-13a1.009 1.009 0 00-.105-.458L18.71 38.9a6.746 6.746 0 01-.709-3 5.227 5.227 0 015.965-5.174l9.946 1.421a4.15 4.15 0 01-4.054 3.29H23.43a1 1 0 100 2 5.434 5.434 0 015.428 5.427V48a1 1 0 002 0v-5.143A7.412 7.412 0 0028.5 37.43h1.362a6.14 6.14 0 005.15-2.8 3.933 3.933 0 005.568.41A3.988 3.988 0 0044 37v4.69a6.947 6.947 0 01-2.047 4.943l-.66.66A1 1 0 0041 48v13a1 1 0 002 0v-6.754a19.626 19.626 0 0017.948-16.809l1.042-7.295a1 1 0 00-.647-1.08zM24 28.718V25a2 2 0 114 0v4.276l-3.75-.536c-.084-.012-.167-.013-.25-.022zm6 .843v-6.56a2 2 0 114 0v7.132l-4-.572zm8 4.44a2 2 0 01-2-2v-7a2 2 0 114 0v7a2 2 0 01-2 2zm4-1v-5a2 2 0 114 0v5a2 2 0 01-4 0zm16.968 4.153A17.626 17.626 0 0143 52.24v-3.826l.367-.367A8.93 8.93 0 0046 41.69v-5.246A3.988 3.988 0 0048 33v-5a4 4 0 00-4-4 3.955 3.955 0 00-2.043.58 3.979 3.979 0 00-6.2-2.892 3.988 3.988 0 00-7.536-.01A4 4 0 0022.001 25v3.775a7.219 7.219 0 00-6 7.118 8.762 8.762 0 00.92 3.9l4.22 8.44-.053 4.791a16.7 16.7 0 01-8.847-2.6l-.14-.089a17.307 17.307 0 01-7.669-11.21l-.35-1.779A12.902 12.902 0 0014 42a1 1 0 00.752-1.659 31.066 31.066 0 01-7.284-15.24 9.008 9.008 0 009.848 2.847 1 1 0 00.506-1.518l-1.755-2.53a14.243 14.243 0 01.2-16.5A10.125 10.125 0 0024.86 16 1 1 0 0026 15a10.807 10.807 0 017.946-10.4l.312-.086A9.892 9.892 0 0037.98 15.5l.44.313a1 1 0 001.573-.689 9.068 9.068 0 018.128-7.858l.22-.02-.047.047a8.07 8.07 0 000 11.414c.14.14.318.235.511.273a7.7 7.7 0 007.525-2.764 24.11 24.11 0 01-6.21 17.158l-.862.957a1 1 0 00.3 1.564 8.341 8.341 0 009.843-1.744l-.432 3.003z" fill="#DC2C2C"/><defs><linearGradient id="g" x1="43.935" y1="25.13" x2="43.935" y2="35.996" gradientUnits="userSpaceOnUse"><stop/><stop offset="1" stop-color="#A8A8A8"/></linearGradient><linearGradient id="a" x1="33.5" y1="31" x2="33.5" y2="61" gradientUnits="userSpaceOnUse"><stop/><stop offset="1" stop-color="#A8A8A8"/></linearGradient><linearGradient id="c" x1="44" y1="25" x2="44" y2="36" gradientUnits="userSpaceOnUse"><stop stop-color="#DBDBDB"/><stop offset="1" stop-color="#A8A8A8"/></linearGradient><linearGradient id="d" x1="32" y1="20" x2="32" y2="35" gradientUnits="userSpaceOnUse"><stop stop-color="#DBDBDB"/><stop offset="1" stop-color="#A8A8A8"/></linearGradient><linearGradient id="e" x1="26" y1="22" x2="26" y2="35" gradientUnits="userSpaceOnUse"><stop stop-color="#DBDBDB"/><stop offset="1" stop-color="#A8A8A8"/></linearGradient><linearGradient id="f" x1="37.935" y1="22.13" x2="37.935" y2="34.996" gradientUnits="userSpaceOnUse"><stop/><stop offset="1" stop-color="#A8A8A8"/></linearGradient><linearGradient id="b" x1="38" y1="22" x2="38" y2="35" gradientUnits="userSpaceOnUse"><stop stop-color="#DBDBDB"/><stop offset="1" stop-color="#A8A8A8"/></linearGradient><linearGradient id="h" x1="32" y1="20.18" x2="32" y2="35" gradientUnits="userSpaceOnUse"><stop/><stop offset="1" stop-color="#A8A8A8"/></linearGradient><linearGradient id="i" x1="26" y1="22.18" x2="26" y2="35" gradientUnits="userSpaceOnUse"><stop/><stop offset="1" stop-color="#A8A8A8"/></linearGradient><linearGradient id="j" x1="26" y1="29.666" x2="26" y2="48" gradientUnits="userSpaceOnUse"><stop stop-color="#DBDBDB"/><stop offset="1" stop-color="#A8A8A8"/></linearGradient><linearGradient id="k" x1="29.214" y1="31.286" x2="29.214" y2="36.429" gradientUnits="userSpaceOnUse"><stop/><stop offset="1" stop-color="#A8A8A8"/></linearGradient><linearGradient id="l" x1="23.36" y1="31.1" x2="23.36" y2="48" gradientUnits="userSpaceOnUse"><stop/><stop offset="1" stop-color="#A8A8A8"/></linearGradient></defs></svg>