<svg width="42" height="42" fill="none" xmlns="http://www.w3.org/2000/svg"><g clip-path="url(#a)"><path d="M39.968 2.913h-5.99v7.188h7.188V4.11c0-.661-.536-1.198-1.198-1.198z" fill="url(#b)"/><path d="M31.583 2.913H1.475c-.661 0-1.198.537-1.198 1.198v5.99h31.306V2.913z" fill="url(#c)"/><path d="M9.063 20.722h7.187v7.188H9.062v-7.188z" fill="url(#d)"/><path d="M.277 37.333c0 .662.537 1.198 1.198 1.198h38.493c.662 0 1.198-.536 1.198-1.198V12.497H.277v24.836zm28.83-19.007h4.472a1.198 1.198 0 010 2.396h-4.472a1.198 1.198 0 010-2.396zm-2.396 4.792h6.868a1.198 1.198 0 010 2.396h-6.868a1.198 1.198 0 110-2.396zm0 4.792h6.868a1.198 1.198 0 110 2.396h-6.868a1.198 1.198 0 110-2.396zM6.666 19.524c0-.661.537-1.198 1.198-1.198h9.584c.661 0 1.197.537 1.197 1.198v9.584c0 .661-.536 1.198-1.197 1.198H7.864a1.198 1.198 0 01-1.198-1.198v-9.584z" fill="#DC2C2C"/></g><defs><linearGradient id="b" x1="37.572" y1="2.913" x2="37.572" y2="10.101" gradientUnits="userSpaceOnUse"><stop stop-color="#FFA4A4"/><stop offset="1" stop-color="#F1F1F1"/></linearGradient><linearGradient id="c" x1="15.93" y1="2.913" x2="15.93" y2="10.101" gradientUnits="userSpaceOnUse"><stop stop-color="#FFA4A4"/><stop offset="1" stop-color="#F1F1F1"/></linearGradient><linearGradient id="d" x1="12.656" y1="20.722" x2="12.656" y2="27.91" gradientUnits="userSpaceOnUse"><stop stop-color="#FFA4A4"/><stop offset="1" stop-color="#F1F1F1"/></linearGradient><clipPath id="a"><path fill="#fff" transform="translate(.277 .278)" d="M0 0h40.889v40.889H0z"/></clipPath></defs></svg>