<svg width="24" height="24" fill="none" xmlns="http://www.w3.org/2000/svg"><path d="M4.892 15.954a25.46 25.46 0 008.47 6.634c1.237.586 2.893 1.283 4.739 1.402.114.005.223.01.338.01 1.238 0 2.233-.428 3.043-1.308a.11.11 0 00.02-.025c.289-.348.617-.661.96-.994.234-.224.472-.458.701-.697 1.06-1.104 1.06-2.506-.01-3.575l-2.989-2.99c-.507-.526-1.114-.805-1.75-.805-.637 0-1.248.279-1.77.801l-1.781 1.78a9.384 9.384 0 00-.492-.258 6.107 6.107 0 01-.547-.299c-1.622-1.03-3.094-2.372-4.501-4.098-.711-.9-1.189-1.655-1.522-2.426A29.93 29.93 0 009.13 7.808c.15-.154.303-.309.458-.463.537-.537.825-1.159.825-1.79 0-.632-.283-1.253-.825-1.79L8.105 2.283c-.174-.174-.339-.344-.508-.518a27.278 27.278 0 00-1.01-1C6.077.265 5.475 0 4.838 0 4.206 0 3.6.264 3.067.77l-1.86 1.86A3.822 3.822 0 00.068 5.078C-.026 6.268.192 7.53.76 9.056c.87 2.362 2.184 4.555 4.133 6.898zM1.282 5.182a2.63 2.63 0 01.79-1.69l1.85-1.85c.289-.28.607-.424.915-.424.304 0 .612.145.895.433.334.308.647.632.985.975.17.174.343.348.517.527l1.482 1.482c.309.308.468.622.468.93 0 .308-.16.621-.468.93-.154.154-.308.313-.462.467-.463.468-.895.91-1.373 1.333l-.025.025c-.412.413-.348.806-.248 1.104l.015.04c.383.92.915 1.795 1.745 2.84 1.492 1.84 3.064 3.267 4.794 4.366.214.139.443.248.657.358.199.1.383.194.547.298l.054.03c.165.084.324.124.483.124.398 0 .656-.253.74-.338l1.86-1.86c.29-.288.602-.442.91-.442.379 0 .687.233.881.442l2.999 2.994c.597.597.591 1.243-.015 1.875a16.63 16.63 0 01-.662.661c-.348.338-.71.687-1.039 1.08-.572.616-1.253.905-2.133.905a4.56 4.56 0 01-.259-.01c-1.631-.105-3.148-.741-4.287-1.284-3.093-1.496-5.808-3.62-8.061-6.315-1.855-2.233-3.103-4.312-3.929-6.54-.512-1.367-.706-2.466-.626-3.466z" fill="#fff"/></svg>