<svg width="80" height="80" fill="none" xmlns="http://www.w3.org/2000/svg"><path d="M71.975 12.959c-4.02-1.38-7.24-4.619-8.614-8.662A6.327 6.327 0 0057.371 0h-34.9a6.328 6.328 0 00-5.988 4.297c-1.375 4.043-4.595 7.281-8.614 8.662a6.347 6.347 0 00-4.275 6.007v8.829c0 11.52 3.452 22.614 9.983 32.08 5.976 8.662 14.211 15.44 23.816 19.603a6.36 6.36 0 002.529.522 6.36 6.36 0 002.529-.522c9.604-4.162 17.839-10.941 23.815-19.602 6.531-9.467 9.984-20.56 9.984-32.081v-8.829a6.347 6.347 0 00-4.275-6.007zm-.412 14.836c0 10.565-3.166 20.738-9.156 29.419-5.476 7.938-13.022 14.15-21.82 17.962a1.676 1.676 0 01-1.33 0c-8.8-3.813-16.344-10.024-21.821-17.962-5.989-8.68-9.155-18.853-9.155-29.42v-8.828c0-.713.447-1.345 1.112-1.573 5.38-1.85 9.69-6.18 11.527-11.587a1.642 1.642 0 011.552-1.119h34.9c.7 0 1.324.45 1.551 1.12 1.838 5.406 6.148 9.737 11.528 11.586.665.228 1.112.86 1.112 1.573v8.829z" fill="url(#paint0_linear_2231_16309)"/><path d="M49.88 30.388h-.159v-6.675c0-5.403-4.396-9.8-9.8-9.8-5.403 0-9.8 4.397-9.8 9.8v6.675h-.159a5.65 5.65 0 00-5.644 5.645v13.489c0 5.795 4.716 10.512 10.511 10.512h10.184c5.796 0 10.511-4.717 10.511-10.512v-13.49a5.65 5.65 0 00-5.644-5.644zm-15.07-6.675a5.119 5.119 0 015.111-5.112 5.119 5.119 0 015.113 5.112v6.676H34.809v-6.676zm16.027 25.809a5.83 5.83 0 01-5.824 5.824H34.83a5.83 5.83 0 01-5.823-5.824v-13.49c0-.527.429-.956.956-.956H49.88c.528 0 .957.43.957.957v13.489z" fill="url(#paint1_linear_2231_16309)"/><path d="M39.922 40.653a2.344 2.344 0 00-2.344 2.344v4.428a2.344 2.344 0 104.688 0v-4.428a2.344 2.344 0 00-2.344-2.344z" fill="url(#paint2_linear_2231_16309)"/><defs><linearGradient id="paint0_linear_2231_16309" x1="39.922" y1="0" x2="39.922" y2="80" gradientUnits="userSpaceOnUse"><stop stop-color="#FF4C4C"/><stop offset="1" stop-color="red" stop-opacity="0"/></linearGradient><linearGradient id="paint1_linear_2231_16309" x1="39.921" y1="13.914" x2="39.921" y2="60.034" gradientUnits="userSpaceOnUse"><stop stop-color="#393E46"/><stop offset="1" stop-color="#fff"/></linearGradient><linearGradient id="paint2_linear_2231_16309" x1="39.922" y1="40.653" x2="39.922" y2="49.769" gradientUnits="userSpaceOnUse"><stop stop-color="#393E46"/><stop offset="1" stop-color="#fff"/></linearGradient></defs></svg>