<svg width="42" height="42" fill="none" xmlns="http://www.w3.org/2000/svg"><g clip-path="url(#a)" fill="#fff"><path d="M21 11.9a4.2 4.2 0 100 8.4 4.2 4.2 0 000-8.4zm0 7a2.8 2.8 0 110-5.6 2.8 2.8 0 010 5.6z"/><path d="M31.418 21.584c.05-.661.082-1.325.082-1.983 0-5.343-1.577-10.36-4.232-13.51a.7.7 0 00-.173-.286l-5.6-5.6a.7.7 0 00-.99 0l-5.6 5.6a.7.7 0 00-.173.286c-2.655 3.15-4.232 8.167-4.232 13.51 0 .656.033 1.318.082 1.976A10.482 10.482 0 003.5 31.5a.7.7 0 00.7.7h9.853a11.415 11.415 0 002.747 2.792v.708a.7.7 0 00.7.7h.718C18.35 39.286 19.299 42 21 42c1.7 0 2.65-2.714 2.782-5.6h.718a.7.7 0 00.7-.7v-.708c1.07-.765 2-1.71 2.747-2.792H37.8a.7.7 0 00.7-.7 10.527 10.527 0 00-7.082-9.916zM21 1.691l3.21 3.21h-6.42L21 1.691zM4.927 30.801a9.06 9.06 0 012.637-5.734 9.157 9.157 0 013.155-2.053c.014.109.033.215.049.324l.058.392c.049.307.103.612.162.91.023.113.043.226.066.337.086.408.178.81.284 1.206 0 .012.007.023.01.035.1.378.21.75.33 1.115.037.115.077.228.116.342.09.265.185.526.283.782l.14.361c.11.267.224.528.343.785.04.088.077.177.12.264.152.318.31.63.477.93l-8.23.003zM21 40.6c-.375 0-1.25-1.47-1.382-4.2h2.764c-.132 2.73-1.007 4.2-1.382 4.2zm2.8-5.6h-5.6v-2.8h5.6V35zm3.212-3.888a11.123 11.123 0 01-1.812 2.116V31.5a.7.7 0 00-.7-.7h-7a.7.7 0 00-.7.7v1.73a11.12 11.12 0 01-1.812-2.12 13.947 13.947 0 01-.57-.927 20.877 20.877 0 01-2.402-8.172c-.077-.8-.116-1.61-.116-2.41 0-5.156 1.532-9.954 4.1-12.834a.695.695 0 00.125-.201l.265-.265h9.22l.265.265c.03.074.072.142.126.201 2.566 2.88 4.099 7.678 4.099 12.834 0 .8-.04 1.61-.116 2.412a20.001 20.001 0 01-2.972 9.1zm1.828-.313c.167-.3.325-.611.479-.93.04-.085.078-.175.118-.262a18.665 18.665 0 00.483-1.146c.099-.256.192-.516.28-.78.039-.116.08-.23.117-.347.115-.356.222-.718.322-1.085l.02-.07c.102-.39.194-.79.28-1.19.025-.123.047-.248.07-.373a25.748 25.748 0 00.218-1.298c.014-.102.033-.202.046-.304a9.134 9.134 0 015.8 7.785H28.84z"/></g><defs><clipPath id="a"><path fill="#fff" d="M0 0h42v42H0z"/></clipPath></defs></svg>