<svg width="42" height="42" fill="none" xmlns="http://www.w3.org/2000/svg"><g clip-path="url(#a)"><path d="M16.721 11.856c.096 1.383 1.677 2.14 2.82 1.355 1.005-.692 2.377.028 2.377 1.25v5.024h3.764c-.669-2.73 1.495-5.389 4.374-5.19 2.533.175 4.411 2.614 3.779 5.19h3.802c3.18-4.81-.023-11.769-6.222-12.087.7-3.702-2.153-7.114-5.894-7.114-1.35 0-2.6.45-3.603 1.206v7.498c0 1.22-1.371 1.942-2.377 1.25-1.223-.841-2.925.088-2.82 1.618z" fill="url(#b)"/><path d="M8.945 19.485c1.22 0 1.942 1.37 1.25 2.377-.838 1.216.082 2.924 1.618 2.818 1.386-.096 2.14-1.678 1.355-2.818-.692-1.006.03-2.377 1.25-2.377h5.105V15.8c-2.581.634-5.015-1.252-5.19-3.779-.2-2.866 2.449-5.045 5.19-4.374V1.49c-4.298-3.24-10.454.46-9.511 5.828C3.776 7.65.62 14.624 3.828 19.485h5.117zm28.651 2.395h-5.1c-1.221 0-1.942-1.372-1.25-2.377.786-1.141.03-2.723-1.355-2.819-1.536-.106-2.456 1.601-1.618 2.819.692 1.006-.03 2.377-1.25 2.377h-5.105v3.683c2.733-.67 5.39 1.5 5.19 4.374-.175 2.528-2.61 4.412-5.19 3.778v6.24c4.298 3.239 10.454-.46 9.511-5.829 6.086-.323 9.47-7.151 6.168-12.246z" fill="#DC2C2C"/><path d="M24.72 29.771c.106-1.529-1.597-2.459-2.82-1.617-1.005.691-2.377-.029-2.377-1.25V21.88h-3.766c.652 2.653-1.368 5.2-4.08 5.2-2.738 0-4.715-2.58-4.073-5.2H3.83c-3.207 4.86-.057 11.846 6.197 12.167-.7 3.701 2.154 7.114 5.894 7.114 1.351 0 2.6-.45 3.603-1.206v-7.579c0-1.22 1.371-1.942 2.377-1.25 1.14.785 2.723.031 2.82-1.355z" fill="url(#c)"/></g><defs><linearGradient id="b" x1="27.8" y1=".284" x2="27.8" y2="19.485" gradientUnits="userSpaceOnUse"><stop stop-color="#FFA4A4"/><stop offset="1" stop-color="#F1F1F1"/></linearGradient><linearGradient id="c" x1="13.641" y1="21.88" x2="13.641" y2="41.16" gradientUnits="userSpaceOnUse"><stop stop-color="#FFA4A4"/><stop offset="1" stop-color="#F1F1F1"/></linearGradient><clipPath id="a"><path fill="#fff" transform="translate(.277 .278)" d="M0 0h40.889v40.889H0z"/></clipPath></defs></svg>