<svg width="80" height="80" fill="none" xmlns="http://www.w3.org/2000/svg"><path d="M78.334 40l-7.467-8.333 2.333-10.9-10.616-3.417L59.25 6.733l-10.916 2.4L40 1.667l-8.333 7.466L20.834 6.8l-3.417 10.617L6.8 20.833l2.334 10.834L1.667 40l7.467 8.333L6.8 59.167 17.417 62.5l3.417 10.617 10.833-2.25L40 78.333l8.334-7.466 10.9 2.333 3.333-10.617 10.617-3.333-2.317-10.917L78.334 40zM40 68.333a28.333 28.333 0 110-56.666 28.333 28.333 0 010 56.666z" fill="url(#a)"/><path opacity=".67" d="M40 15a25 25 0 100 49.999A25 25 0 0040 15zm16.517 21.833L40.9 52.45A8.332 8.332 0 0135 54.9c-4.467 0-6.267-2.817-11.517-8.067a6.867 6.867 0 019.7-9.716l1.817 1.8 11.817-11.8a6.867 6.867 0 019.7 9.716z" fill="url(#b)"/><path d="M49.167 29.467L35 43.633l-4.167-4.166a3.535 3.535 0 10-5 5l5.634 5.633a5 5 0 007.066 0l15.634-15.633a3.535 3.535 0 10-5-5z" fill="url(#c)"/><defs><linearGradient id="a" x1="40" y1="1.667" x2="40" y2="78.333" gradientUnits="userSpaceOnUse"><stop stop-color="#FF4C4C"/><stop offset="1" stop-color="red" stop-opacity="0"/></linearGradient><linearGradient id="b" x1="40" y1="15" x2="40" y2="65" gradientUnits="userSpaceOnUse"><stop stop-color="#FF4C4C"/><stop offset="1" stop-color="red" stop-opacity="0"/></linearGradient><linearGradient id="c" x1="40" y1="28.431" x2="40" y2="51.562" gradientUnits="userSpaceOnUse"><stop stop-color="#393E46"/><stop offset="1" stop-color="#fff"/></linearGradient></defs></svg>