<svg width="42" height="42" fill="none" xmlns="http://www.w3.org/2000/svg"><path d="M40.424 29.314l-.768-.384-17.327 8.663a3.607 3.607 0 01-3.214 0L1.788 28.93l-.768.384a1.198 1.198 0 000 2.143l19.166 9.583c.337.169.735.169 1.072 0l19.166-9.583a1.198 1.198 0 000-2.143z" fill="#DC2C2C"/><path d="M40.424 23.724l-.768-.385-17.327 8.663a3.607 3.607 0 01-3.214 0L1.788 23.34l-.768.385a1.198 1.198 0 000 2.142l19.166 9.584c.337.168.735.168 1.072 0l19.166-9.584a1.198 1.198 0 000-2.142z" fill="#DC2C2C"/><path d="M10.187 14.375l2.396 4.15c.33.573 1.063.769 1.636.438l.987-.57c.598.454 1.24.828 1.922 1.119v1.13c0 .662.536 1.198 1.198 1.198h4.792c.661 0 1.198-.536 1.198-1.198v-1.13a9.059 9.059 0 001.922-1.119l.986.57a1.2 1.2 0 001.637-.438l2.395-4.15a1.198 1.198 0 00-.438-1.636l-.982-.568a8.979 8.979 0 000-2.224l.982-.567c.573-.331.77-1.064.438-1.637l-2.395-4.15a1.198 1.198 0 00-1.637-.438l-.986.57a9.06 9.06 0 00-1.922-1.118V1.476c0-.662-.537-1.198-1.198-1.198h-4.792c-.662 0-1.198.536-1.198 1.198v1.13a9.059 9.059 0 00-1.922 1.119l-.987-.57a1.198 1.198 0 00-1.636.439l-2.396 4.15a1.198 1.198 0 00.439 1.636l.982.567a8.962 8.962 0 000 2.224l-.982.568a1.198 1.198 0 00-.439 1.636zm10.535-6.91a3.598 3.598 0 013.593 3.594 3.598 3.598 0 01-3.593 3.594 3.598 3.598 0 01-3.594-3.594 3.598 3.598 0 013.594-3.594z" fill="url(#a)"/><path d="M1.02 20.276l19.166 9.584c.337.168.735.168 1.072 0l19.166-9.584a1.198 1.198 0 000-2.143l-6.748-3.374a3.62 3.62 0 01-.344.813l-2.396 4.15a3.593 3.593 0 01-4.288 1.599 3.6 3.6 0 01-3.53 2.915h-4.792a3.6 3.6 0 01-3.53-2.915 3.593 3.593 0 01-4.288-1.599l-2.396-4.15a3.617 3.617 0 01-.345-.812L1.02 18.133a1.198 1.198 0 000 2.143z" fill="#DC2C2C"/><defs><linearGradient id="a" x1="20.722" y1=".278" x2="20.722" y2="21.84" gradientUnits="userSpaceOnUse"><stop stop-color="#FFA4A4"/><stop offset="1" stop-color="#F1F1F1"/></linearGradient></defs></svg>