<svg width="60" height="60" fill="none" xmlns="http://www.w3.org/2000/svg"><path d="M11 42H9v12a1 1 0 001 1h4v-2h-3V42zm-2-4h2v2H9v-2zm40 15h-3v2h4a1 1 0 001-1V42h-2v11zm0-15h2v2h-2v-2z" fill="#DC2C2C"/><path d="M47 10h2v2h-2v-2zm4 0h2v2h-2v-2z" fill="#fff"/><path d="M53 0H41a1 1 0 00-1 1v4a6.982 6.982 0 003 5.72V14a7.01 7.01 0 003 5.74v2.76l-3.6 2.7a1.025 1.025 0 00-.38 1.02l2 9A1.015 1.015 0 0045 36h10a1.015 1.015 0 00.98-.78l2-9a1.024 1.024 0 00-.38-1.02L54 22.5v-2.76A7.01 7.01 0 0057 14v-2a3.01 3.01 0 003-3V7a7.008 7.008 0 00-7-7zm2.88 26.41L54.2 34h-8.4l-1.68-7.59 3.48-2.61a1.015 1.015 0 00.4-.8v-2.29a7.043 7.043 0 004 0V23a1.015 1.015 0 00.4.8l3.48 2.61zM55 14a5 5 0 11-10 0V8.62l3.12-1.56L55 8.78V14zm3-5a1 1 0 01-1 1V8a1 1 0 00-.76-.97l-8-2a.978.978 0 00-.69.08l-4 2a.99.99 0 00-.55.88A4.979 4.979 0 0142 5V2h11a5 5 0 015 5v2zM13 0H7a7.008 7.008 0 00-7 7v1c.002.265.106.52.29.71L3 11.41V14a7.01 7.01 0 003 5.74v2.76l-3.6 2.7a1.024 1.024 0 00-.38 1.02l2 9A1.015 1.015 0 005 36h10a1.015 1.015 0 00.98-.78l2-9a1.024 1.024 0 00-.38-1.02L14 22.5v-2.76A7.01 7.01 0 0017 14v-2.59l2.71-2.7c.184-.19.288-.445.29-.71V7a7.008 7.008 0 00-7-7zm2.88 26.41L14.2 34H5.8l-1.68-7.59L7.6 23.8A1.014 1.014 0 008 23v-2.29a7.043 7.043 0 004 0V23a1.015 1.015 0 00.4.8l3.48 2.61zM15 14a5 5 0 11-10 0V8.62l3.12-1.56L15 8.78V14zm3-6.41l-1 1V8a1 1 0 00-.76-.97l-8-2a.978.978 0 00-.69.08l-4 2A.977.977 0 003 8v.59l-1-1V7a5 5 0 015-5h6a5 5 0 015 5v.59z" fill="#fff"/><path d="M7 10h2v2H7v-2zm4 0h2v2h-2v-2zm20 27h2v2h-2v-2zm-4 0h2v2h-2v-2z" fill="#fff"/><path d="M43.41 52.09L41 51.02V35a9.014 9.014 0 00-9-9h-4a9.006 9.006 0 00-9 9v16.02l-2.41 1.07A.988.988 0 0016 53v6a1 1 0 001 1h26a1 1 0 001-1v-6a.986.986 0 00-.59-.91zM21 35a6.828 6.828 0 01.74-3.12A6.96 6.96 0 0128 28h4a7.008 7.008 0 017 7v15.13l-4.59-2.04a.949.949 0 00-.72-.03l-.32-1.93A7 7 0 0037 40v-6a1 1 0 00-.45-.83l-3-2a.99.99 0 00-.77-.15l-9 2A1.015 1.015 0 0023 34v6a7 7 0 003.63 6.13l-.32 1.93a.949.949 0 00-.72.03L21 50.13V35zm9 10a5 5 0 01-5-5v-5.2l7.8-1.73 2.2 1.47V40a5 5 0 01-5 5zm1.93 4.66L30 51.59l-1.93-1.93.47-2.82a6.742 6.742 0 002.92 0l.47 2.82zM42 58H18v-4.35l7.78-3.46 3.51 3.52a1.008 1.008 0 001.42 0l3.51-3.52L42 53.65V58z" fill="#fff"/><path d="M19 13h2v2h-2v-2zm20 0h2v2h-2v-2zm-16 0h14v2H23v-2z" fill="#DC2C2C"/></svg>