<svg width="80" height="80" fill="none" xmlns="http://www.w3.org/2000/svg"><path d="M57.785 32.974v6.5c3.623.736 7.36.693 10.965-.125v-6.5c-1.903.387-3.84.58-5.782.579a29.293 29.293 0 01-5.183-.454z" fill="url(#a)"/><path d="M48.046 32.294c.174 2.726 3.06 5.151 7.239 6.522v-6.435a16.875 16.875 0 01-7.24-3.942v3.855z" fill="url(#b)"/><path d="M55.285 57.104v-6.5a16.875 16.875 0 01-7.24-3.943v3.925c.175 2.72 3.06 5.145 7.24 6.518z" fill="url(#c)"/><path d="M71.25 38.625c3.86-1.4 6.475-3.731 6.639-6.328V28.44a16.425 16.425 0 01-6.639 3.771v6.415z" fill="url(#d)"/><path d="M55.285 47.961v-6.507a16.885 16.885 0 01-7.24-3.943v3.926c.175 2.727 3.06 5.152 7.24 6.524z" fill="url(#e)"/><path d="M71.25 47.764c3.86-1.402 6.475-3.732 6.639-6.328v-3.925a16.425 16.425 0 01-6.639 3.771v6.482z" fill="url(#f)"/><path d="M68.75 48.5v-6.58c-1.903.388-3.84.582-5.782.58a29.293 29.293 0 01-5.183-.454v6.579A26.08 26.08 0 0068.75 48.5z" fill="url(#g)"/><path d="M55.285 59.74a16.875 16.875 0 01-7.24-3.941v3.737c0 3.351 2.907 6.275 7.24 7.888V59.74z" fill="url(#h)"/><path d="M68.75 57.641v-6.576c-1.903.387-3.84.58-5.782.579a29.17 29.17 0 01-5.183-.454v6.574c3.623.735 7.36.692 10.965-.125v.002z" fill="url(#i)"/><path d="M71.25 59.57v7.625c4-1.652 6.639-4.466 6.639-7.662v-3.735a16.426 16.426 0 01-6.639 3.772z" fill="url(#j)"/><path d="M68.75 60.208c-1.903.387-3.84.58-5.782.578a29.18 29.18 0 01-5.183-.453v7.835a23.49 23.49 0 0010.965-.137v-7.824z" fill="url(#k)"/><path d="M77.889 50.579v-3.924a16.44 16.44 0 01-6.639 3.773v6.48c3.86-1.402 6.475-3.733 6.639-6.33z" fill="url(#l)"/><path d="M62.967 30.927c7.94 0 14.655-3.5 14.921-7.708v-.25c0-5.094-6.68-9.219-14.92-9.219-8.242 0-14.922 4.125-14.922 9.214v.257c.267 4.201 6.982 7.706 14.921 7.706z" fill="url(#m)"/><path d="M27.617 60.383V68.1c3.667.879 7.49.866 11.151-.036v-7.791a29.76 29.76 0 01-11.15.11z" fill="url(#n)"/><path d="M30.9 51.636a38.062 38.062 0 01-3.283 4.285v1.919c1.736.344 3.502.517 5.271.516a26.569 26.569 0 005.875-.647v-6.584c-1.933.39-3.902.587-5.875.585a28.37 28.37 0 01-1.987-.074z" fill="url(#o)"/><path d="M21.068 61.78l-1.744 1.226a12.158 12.158 0 005.794 4.305v-7.5c-.375-.107-.724-.25-1.084-.365a37.47 37.47 0 01-2.966 2.334z" fill="url(#p)"/><path d="M32.375 49.194c.17 0 .337.02.509.02a26.499 26.499 0 005.875-.649v-6.507a29.453 29.453 0 01-3.468.477 38.053 38.053 0 01-2.916 6.659z" fill="url(#q)"/><path d="M33.125 22.964c-.375 0-.75.021-1.125.039l5.205 1.75v5.96a37.895 37.895 0 01-1.15 9.25c6.69-.782 11.884-3.964 11.989-7.663v-.112c.002-5.1-6.678-9.224-14.919-9.224z" fill="url(#r)"/><path d="M41.269 47.843c4.013-1.43 6.716-3.834 6.777-6.5v-3.738a16.625 16.625 0 01-6.777 3.821v6.416z" fill="url(#s)"/><path d="M41.269 56.986c4.013-1.43 6.716-3.833 6.777-6.5v-3.808A16.637 16.637 0 0141.27 50.5v6.486z" fill="url(#t)"/><path d="M41.269 67.25c4.077-1.645 6.777-4.482 6.777-7.715V55.84a16.724 16.724 0 01-6.777 3.803v7.607z" fill="url(#u)"/><path d="M27.637 31.625a1.707 1.707 0 00-1.215.5l-9.075 9.073a1.25 1.25 0 01-1.767 0l-4.134-4.123a1.722 1.722 0 10-2.435 2.435l6.239 6.24a1.775 1.775 0 002.437 0L28.86 34.578a1.723 1.723 0 00-1.223-2.953z" fill="url(#v)"/><path d="M18.205 21.012l-16.5 5.534v4.163A35.481 35.481 0 0016.78 59.735l1.426 1 1.425-1a35.481 35.481 0 0015.076-29.026v-4.163l-16.5-5.534zm12.42 15.325L19.451 47.511a4.218 4.218 0 01-5.97 0l-6.23-6.233a4.221 4.221 0 015.97-5.97l3.25 3.25 8.19-8.19a4.186 4.186 0 012.983-1.237 4.223 4.223 0 012.981 7.206z" fill="url(#w)"/><defs><linearGradient id="l" x1="74.569" y1="46.655" x2="74.569" y2="56.907" gradientUnits="userSpaceOnUse"><stop stop-color="#393E46"/><stop offset="1" stop-color="#fff"/></linearGradient><linearGradient id="a" x1="63.268" y1="32.849" x2="63.268" y2="39.996" gradientUnits="userSpaceOnUse"><stop stop-color="#393E46"/><stop offset="1" stop-color="#fff"/></linearGradient><linearGradient id="c" x1="51.665" y1="46.661" x2="51.665" y2="57.104" gradientUnits="userSpaceOnUse"><stop stop-color="#393E46"/><stop offset="1" stop-color="#fff"/></linearGradient><linearGradient id="d" x1="74.569" y1="28.439" x2="74.569" y2="38.625" gradientUnits="userSpaceOnUse"><stop stop-color="#393E46"/><stop offset="1" stop-color="#fff"/></linearGradient><linearGradient id="e" x1="51.665" y1="37.511" x2="51.665" y2="47.961" gradientUnits="userSpaceOnUse"><stop stop-color="#FF4C4C"/><stop offset="1" stop-color="red" stop-opacity="0"/></linearGradient><linearGradient id="f" x1="74.569" y1="37.511" x2="74.569" y2="47.764" gradientUnits="userSpaceOnUse"><stop stop-color="#FF4C4C"/><stop offset="1" stop-color="red" stop-opacity="0"/></linearGradient><linearGradient id="g" x1="63.268" y1="41.92" x2="63.268" y2="49.147" gradientUnits="userSpaceOnUse"><stop stop-color="#FF4C4C"/><stop offset="1" stop-color="red" stop-opacity="0"/></linearGradient><linearGradient id="h" x1="51.665" y1="55.799" x2="51.665" y2="67.424" gradientUnits="userSpaceOnUse"><stop stop-color="#FF4C4C"/><stop offset="1" stop-color="red" stop-opacity="0"/></linearGradient><linearGradient id="i" x1="63.268" y1="51.065" x2="63.268" y2="58.285" gradientUnits="userSpaceOnUse"><stop stop-color="#393E46"/><stop offset="1" stop-color="#fff"/></linearGradient><linearGradient id="j" x1="74.569" y1="55.798" x2="74.569" y2="67.195" gradientUnits="userSpaceOnUse"><stop stop-color="#FF4C4C"/><stop offset="1" stop-color="red" stop-opacity="0"/></linearGradient><linearGradient id="k" x1="63.268" y1="60.208" x2="63.268" y2="68.75" gradientUnits="userSpaceOnUse"><stop stop-color="#FF4C4C"/><stop offset="1" stop-color="red" stop-opacity="0"/></linearGradient><linearGradient id="b" x1="51.665" y1="28.439" x2="51.665" y2="38.816" gradientUnits="userSpaceOnUse"><stop stop-color="#393E46"/><stop offset="1" stop-color="#fff"/></linearGradient><linearGradient id="m" x1="62.967" y1="13.75" x2="62.967" y2="30.927" gradientUnits="userSpaceOnUse"><stop stop-color="#FF4C4C"/><stop offset="1" stop-color="red" stop-opacity="0"/></linearGradient><linearGradient id="n" x1="33.193" y1="60.273" x2="33.193" y2="68.75" gradientUnits="userSpaceOnUse"><stop stop-color="#393E46"/><stop offset="1" stop-color="#fff"/></linearGradient><linearGradient id="o" x1="33.19" y1="51.125" x2="33.19" y2="58.356" gradientUnits="userSpaceOnUse"><stop stop-color="#FF4C4C"/><stop offset="1" stop-color="red" stop-opacity="0"/></linearGradient><linearGradient id="p" x1="22.221" y1="59.446" x2="22.221" y2="67.311" gradientUnits="userSpaceOnUse"><stop stop-color="#393E46"/><stop offset="1" stop-color="#fff"/></linearGradient><linearGradient id="q" x1="35.567" y1="42.058" x2="35.567" y2="49.214" gradientUnits="userSpaceOnUse"><stop stop-color="#393E46"/><stop offset="1" stop-color="#fff"/></linearGradient><linearGradient id="r" x1="40.022" y1="22.964" x2="40.022" y2="39.964" gradientUnits="userSpaceOnUse"><stop stop-color="#FF4C4C"/><stop offset="1" stop-color="red" stop-opacity="0"/></linearGradient><linearGradient id="s" x1="44.657" y1="37.605" x2="44.657" y2="47.843" gradientUnits="userSpaceOnUse"><stop stop-color="#393E46"/><stop offset="1" stop-color="#fff"/></linearGradient><linearGradient id="t" x1="44.657" y1="46.678" x2="44.657" y2="56.986" gradientUnits="userSpaceOnUse"><stop stop-color="#FF4C4C"/><stop offset="1" stop-color="red" stop-opacity="0"/></linearGradient><linearGradient id="u" x1="44.657" y1="55.84" x2="44.657" y2="67.25" gradientUnits="userSpaceOnUse"><stop stop-color="#393E46"/><stop offset="1" stop-color="#fff"/></linearGradient><linearGradient id="v" x1="18.942" y1="31.625" x2="18.942" y2="46.235" gradientUnits="userSpaceOnUse"><stop stop-color="#393E46"/><stop offset="1" stop-color="#fff"/></linearGradient><linearGradient id="w" x1="18.206" y1="21.012" x2="18.206" y2="60.735" gradientUnits="userSpaceOnUse"><stop stop-color="#FF4C4C"/><stop offset="1" stop-color="red" stop-opacity="0"/></linearGradient></defs></svg>