<svg width="42" height="42" fill="none" xmlns="http://www.w3.org/2000/svg"><path d="M32.156 5.25h1.313V3.937h1.312V2.625H33.47V1.312h-1.313v1.313h-1.312v1.313h1.312V5.25zm5.25 1.969V5.906h-1.312V7.22H34.78v1.31h1.313v1.313h1.312V8.53h1.313V7.22h-1.313zM8.531 5.25h1.313V3.937h1.312V2.625H9.844V1.312H8.53v1.313H7.22v1.313h1.31V5.25zM4.594 9.844h1.312V8.53H7.22V7.22H5.906V5.906H4.594V7.22H3.28v1.31h1.313v1.313zm28.875 9.186h-1.313v1.313h-1.312v1.313h1.312v1.312h1.313v-1.312h1.312v-1.313H33.47v-1.312zm3.937-4.593h-1.312v1.312H34.78v1.313h1.313v1.312h1.312v-1.312h1.313v-1.313h-1.313v-1.312zM9.844 22.968v-1.312h1.312v-1.313H9.844v-1.312H8.53v1.312H7.22v1.313h1.31v1.312h1.313zm-2.625-5.906v-1.313H5.906v-1.312H4.594v1.312H3.28v1.313h1.313v1.312h1.312v-1.312H7.22zm15.75-3.937h1.312v1.313H22.97v-1.313zm-5.25 0h1.312v1.313H17.72v-1.313zm5.601 5.826l.77-.768-.929-.928-.768.768a1.969 1.969 0 01-2.785 0l-.769-.768-.928.928.769.768a3.282 3.282 0 004.64 0z" fill="#fff"/><path d="M26.906 24.938H25.81l-2.185-1.641v-.88a6.571 6.571 0 003.938-6.01v-4.122a4.594 4.594 0 001.968-3.754V4.594a.656.656 0 00-.656-.657H17.062a4.599 4.599 0 00-4.593 4.594V10.5a2.624 2.624 0 001.969 2.533v3.373a6.571 6.571 0 003.937 6.012v.879l-2.185 1.64h-1.096a5.915 5.915 0 00-5.906 5.907v7.875a1.974 1.974 0 001.968 1.968h19.688a1.975 1.975 0 001.968-1.968v-7.875a5.915 5.915 0 00-5.906-5.907zM14.438 11.155v.473a1.305 1.305 0 01-.657-1.129V8.531a3.282 3.282 0 013.281-3.281H28.22v3.281a3.262 3.262 0 01-.84 2.179.573.573 0 00-.302-.184l-7.219-1.969a.636.636 0 00-.426.027l-4.594 1.969a.656.656 0 00-.4.603zm1.312 5.25V11.59l3.983-1.706 6.517 1.772v4.751a5.25 5.25 0 11-10.5 0zm3.675 7.744a.665.665 0 00.262-.525v-.788a6.628 6.628 0 002.625 0v.788a.665.665 0 00.263.525l2.021 1.516L21 29.262l-3.596-3.596 2.021-1.516zM31.5 38.719a.656.656 0 01-.656.656H11.156a.656.656 0 01-.656-.656v-7.875a4.599 4.599 0 014.594-4.594h1.043l4.397 4.403a.661.661 0 00.932 0l4.397-4.403h1.043a4.599 4.599 0 014.594 4.594v7.875z" fill="#fff"/><path d="M11.813 36.75h1.312v1.313h-1.313V36.75zm2.625 0h13.124v1.313H14.438V36.75zm14.437 0h1.313v1.313h-1.313V36.75z" fill="#fff"/></svg>