<svg xmlns="http://www.w3.org/2000/svg" width="69" height="69" fill="none"><path fill="#fff" d="M27.82 62.32h13.36v2.23H27.82v-2.23zm-6.67-30.05c0 .86-.33 1.64-.86 2.23a3.34 3.34 0 01-2.49 5.56v2.23h-2.22v-2.23h-3.34V28.94h3.34V26.7h2.23v2.23c1.84 0 3.34 1.5 3.34 3.33zm-2.23 4.46c0-.62-.5-1.12-1.11-1.12h-3.34v2.23h3.34c.6 0 1.1-.5 1.1-1.11zm0-4.46c0-.61-.5-1.1-1.11-1.1h-3.34v2.22h3.34c.6 0 1.1-.5 1.1-1.12zm34.5 12.25h2.23v18.92c0 3.06-2.5 5.56-5.57 5.56H18.92a5.57 5.57 0 01-5.57-5.56v-12.6A16.77 16.77 0 010 34.5c0-7.91 5.68-14.77 13.35-16.34V5.56c0-3.06 2.5-5.56 5.57-5.56h31.16c3.07 0 5.57 2.5 5.57 5.56v8.9h-2.23v-4.44H15.58v10.04l-.95.14a14.52 14.52 0 00-12.4 14.3c0 7.14 5.33 13.29 12.4 14.3l.95.14v8.93h37.84V44.52zM15.58 5.56V7.8h37.84V5.56c0-1.84-1.5-3.33-3.34-3.33H18.92a3.34 3.34 0 00-3.34 3.33zm37.84 57.88V60.1H15.58v3.34c0 1.84 1.5 3.33 3.34 3.33h31.16c1.84 0 3.34-1.5 3.34-3.33zM7.22 26.75a12.26 12.26 0 0017.22 17.22l-1.41-1.72a10.03 10.03 0 01-14.1-14.09l-1.71-1.4zm18.95 15.5A12.26 12.26 0 008.95 25.03l1.4 1.72a10.03 10.03 0 0114.1 14.09l1.72 1.4zm7.22-7.75c0-8.71-6.81-16.02-15.5-16.63l-.16 2.22A14.5 14.5 0 0131.16 34.5a14.5 14.5 0 01-13.43 14.41l.16 2.22c8.69-.61 15.5-7.92 15.5-16.63zm4.45 16.7v-6.68H35.6V31.16h2.23v-6.68h2.22v6.68h2.23v13.36h-2.23v6.67h-2.22zm0-8.91h2.22v-8.9h-2.22v8.9zm8.9 4.45v-16.7h-2.22v-6.67h2.22v-3.34h2.23v3.34h2.22v6.68h-2.22v16.7h-2.23zm0-18.92h2.23V25.6h-2.23v2.22zm11.13 4.45h2.23v6.68h-2.23v3.34h-2.22v-3.34h-2.23v-6.68h2.23V16.7h2.22v15.58zm0 2.23h-2.22v2.23h2.22V34.5zm8.9-20.03H69v13.35h-2.23v10.02h-2.22V27.82h-2.23V14.47h2.23v-3.34h2.22v3.34zm0 2.22h-2.22v8.9h2.22v-8.9z"/></svg>