<svg width="61" height="61" fill="none" xmlns="http://www.w3.org/2000/svg"><path d="M32.406 10.484L25.734 2.86a5.18 5.18 0 00-.778 6.327l.778 1.298h-6.672a1.906 1.906 0 100 3.813 1.906 1.906 0 100 3.812 1.906 1.906 0 00-.056 3.807 1.906 1.906 0 00-1.85 1.9 1.906 1.906 0 001.907 1.907h1.906v.011h7.148a7.148 7.148 0 004.29-1.43 7.149 7.149 0 014.288-1.429h2.383v-12.39h-6.672z" fill="url(#a)"/><path d="M21.922 18.11h-2.86a1.907 1.907 0 01-1.648-2.86 1.905 1.905 0 001.648.953h.954a1.906 1.906 0 011.906 1.906zm0-3.813h-2.86a1.907 1.907 0 01-1.648-2.86 1.905 1.905 0 001.648.954h.954a1.906 1.906 0 011.906 1.906zm5.718-3.813h-1.906l-.781-1.296a5.185 5.185 0 01.4-5.9 5.15 5.15 0 00.553 3.994l1.735 3.202z" fill="#2E2626"/><path d="M35.266 10.484v4.39a3.395 3.395 0 01-1.803 3.064 6.835 6.835 0 00-1.09.667 7.512 7.512 0 01-4.542 1.41H20.97l-1.907-.009a1.906 1.906 0 01-1.343-.562 1.98 1.98 0 01-.305-.381 1.897 1.897 0 001.591 2.85 1.907 1.907 0 00-1.704 2.635c.096.23.238.44.418.615.355.357.839.56 1.343.562h1.907v.01h7.466a6.635 6.635 0 003.96-1.422 7.179 7.179 0 014.3-1.438h2.383v-12.39h-3.812z" fill="#2E2626"/><path d="M37.172 8.578h5.719v16.203h-5.72V8.578z" fill="url(#b)"/><path d="M52.422 20.81l1.767 3.58 3.952.574-2.86 2.788.675 3.936-3.534-1.859-3.534 1.859.675-3.936-2.86-2.788 3.952-.573 1.767-3.581z" fill="url(#c)"/><path d="M8.578 20.81l1.767 3.58 3.952.574-2.86 2.788.675 3.936-3.534-1.859-3.534 1.859.675-3.936-2.86-2.788 3.952-.573 1.767-3.581z" fill="url(#d)"/><path d="M2.86 58.14H30.5L6.657 44.163A27.509 27.509 0 002.859 58.14z" fill="url(#e)"/><path d="M58.14 58.14a27.498 27.498 0 00-3.595-13.63L30.5 58.14h27.64zM6.656 44.163L30.5 58.141 16.838 34.115A27.771 27.771 0 006.656 44.163z" fill="#FFBFBF"/><path d="M44.51 34.318L30.5 58.141l24.045-13.63a27.758 27.758 0 00-10.034-10.193z" fill="url(#f)"/><path d="M16.839 34.115L30.5 58.141V30.5a27.508 27.508 0 00-13.661 3.615z" fill="url(#g)"/><path d="M30.5 30.5v27.64l14.01-23.822A27.507 27.507 0 0030.5 30.5z" fill="#FFBFBF"/><path d="M51.469 58.14a20.968 20.968 0 00-41.938 0H51.47z" fill="url(#h)"/><path d="M30.5 37.172A20.969 20.969 0 009.531 58.14H51.47A20.969 20.969 0 0030.5 37.17zm-7.33 3.85a20.983 20.983 0 0124.772 9.904 23.823 23.823 0 01-24.771-9.904z" fill="#2E2626"/><path d="M33.93 56.235l-4.955-2.86 7.734-9.853a1.098 1.098 0 011.905.32 1.1 1.1 0 01-.018.768L33.93 56.235z" fill="#2E2626"/><path d="M32.978 55.282l-4.957-2.86 7.735-9.853a1.098 1.098 0 011.905.32 1.1 1.1 0 01-.019.768l-4.664 11.625z" fill="#FFBFBF"/><path d="M30.5 57.664a3.813 3.813 0 100-7.625 3.813 3.813 0 000 7.625z" fill="url(#i)"/><path d="M52.422 20.81l-.477 1.73a2.86 2.86 0 003.857 3.401l2.339-.977-2.86 2.788.675 3.936-3.534-1.855-3.534 1.858.675-3.939-2.86-2.788 3.952-.572 1.767-3.582zm-43.844 0l-.476 1.73a2.86 2.86 0 003.856 3.401l2.339-.977-2.86 2.788.675 3.936-3.534-1.855-3.534 1.858.675-3.939-2.86-2.788 3.952-.572 1.767-3.582z" fill="#2E2626"/><path d="M19.062 26.676h1.76a.914.914 0 00.146.012h7.149a8.157 8.157 0 004.86-1.62 6.21 6.21 0 013.241-1.2v.913a.953.953 0 00.953.954h5.72a.953.953 0 00.952-.954V8.578a.953.953 0 00-.953-.953h-5.719a.953.953 0 00-.953.953v.953h-3.38l-6.386-7.299a.953.953 0 00-.687-.326.874.874 0 00-.705.279 6.123 6.123 0 00-1.007 7.346h-4.991a2.86 2.86 0 00-2.13 4.766 2.854 2.854 0 000 3.813 2.86 2.86 0 00-.01 3.806 2.86 2.86 0 002.14 4.76zM38.124 9.531h3.813v14.297h-3.813V9.531zM19.035 22.87a.941.941 0 00.399-.108h1.534a.953.953 0 000-1.906h-1.906a.918.918 0 00-.27.054.932.932 0 01-.404-1.567.953.953 0 01.674-.28h1.906a.953.953 0 000-1.906h-1.906a.953.953 0 110-1.906h1.906a.953.953 0 000-1.906h-1.906a.953.953 0 110-1.906h6.672a.953.953 0 00.817-1.444l-.779-1.299a4.222 4.222 0 010-4.346l5.918 6.767a.952.952 0 00.716.322h3.812v10.498a8.163 8.163 0 00-4.384 1.606 6.233 6.233 0 01-3.717 1.24h-7.003a.913.913 0 00-.146-.012h-1.906a.953.953 0 01-.027-1.9zm29.503 5.215l-.59 3.442a.952.952 0 001.383 1.004l3.09-1.625 3.09 1.62a.953.953 0 001.383-1.004l-.59-3.442 2.503-2.433a.953.953 0 00-.528-1.625l-3.455-.502-1.545-3.131a.99.99 0 00-1.708 0l-1.547 3.13-3.455.503a.953.953 0 00-.528 1.625l2.497 2.438zm2.253-2.752a.953.953 0 00.717-.521l.913-1.849.913 1.849a.953.953 0 00.718.521l2.04.298-1.478 1.438a.954.954 0 00-.274.844l.348 2.033-1.824-.96a.953.953 0 00-.889 0l-1.822.96.348-2.033a.952.952 0 00-.272-.844l-1.476-1.438 2.038-.298zM4.695 28.085l-.59 3.442a.953.953 0 001.383 1.004l3.09-1.625 3.09 1.62a.953.953 0 001.383-1.004l-.59-3.442 2.503-2.433a.953.953 0 00-.528-1.625l-3.455-.502-1.545-3.131a.99.99 0 00-1.708 0l-1.551 3.13-3.455.5a.953.953 0 00-.53 1.628l2.503 2.438zm2.252-2.752a.953.953 0 00.718-.521l.913-1.849.913 1.849a.953.953 0 00.718.521l2.04.298-1.479 1.438a.954.954 0 00-.274.844l.348 2.033-1.822-.96a.953.953 0 00-.888 0l-1.825.96.348-2.033a.953.953 0 00-.271-.844l-1.479-1.438 2.04-.298zM30.5 29.547A28.626 28.626 0 001.906 58.14a.953.953 0 00.953.953h6.672a.953.953 0 00.953-.953 20.016 20.016 0 0140.032 0 .953.953 0 00.953.953h6.672a.954.954 0 00.953-.953A28.626 28.626 0 0030.5 29.547zm-.953 6.696c-3.15.133-6.233.949-9.036 2.391l-2.359-4.145a26.489 26.489 0 0111.395-3.012v4.766zm1.906-4.766c4.11.14 8.13 1.236 11.744 3.2l-2.417 4.108a21.742 21.742 0 00-9.327-2.542v-4.766zM8.598 57.187H3.833a26.487 26.487 0 013.184-11.702l4.11 2.41a21.765 21.765 0 00-2.529 9.292zm3.493-10.937l-4.114-2.406a26.895 26.895 0 018.522-8.407l2.358 4.143a22.087 22.087 0 00-6.766 6.67zm30.332-6.496l2.415-4.107a26.891 26.891 0 018.387 8.52l-4.151 2.346a22.088 22.088 0 00-6.651-6.76zm9.979 17.434a21.78 21.78 0 00-2.383-9.016l4.147-2.35a26.49 26.49 0 013.004 11.365h-4.768z" fill="#DC2C2C"/><path d="M37.648 41.47a2.063 2.063 0 00-2.641.51s-5.727 7.265-5.74 7.27a4.766 4.766 0 105.835 3.368c0-.014 3.424-8.605 3.424-8.605a2.06 2.06 0 00-.878-2.542zm-4.67 13.812a2.86 2.86 0 11-4.952-2.861 2.86 2.86 0 014.952 2.86zm3.78-11.98l-2.89 7.203a4.29 4.29 0 00-2.15-1.239l4.786-6.108a.15.15 0 01.19-.037.146.146 0 01.063.182h.002z" fill="#DC2C2C"/><path d="M30.758 54.77a.953.953 0 10-.494-1.841.953.953 0 00.494 1.841zm10.407-8.811a.952.952 0 10-1.258 1.43 14.304 14.304 0 014.434 7.177.954.954 0 001.845-.477 16.197 16.197 0 00-5.02-8.13zm-10.673-2.115c.028 0 .133.009.16.009a.922.922 0 00.914-.913.987.987 0 00-.906-.995c-.028 0-.133-.008-.16-.008A16.203 16.203 0 0014.803 54.09a.952.952 0 001.507.992.954.954 0 00.34-.515 14.296 14.296 0 0113.84-10.723h.002z" fill="#DC2C2C"/><defs><linearGradient id="a" x1="28.117" y1="2.859" x2="28.117" y2="25.734" gradientUnits="userSpaceOnUse"><stop stop-color="#DBDBDB"/><stop offset="1" stop-color="#A8A8A8"/></linearGradient><linearGradient id="b" x1="40.031" y1="8.578" x2="40.031" y2="24.781" gradientUnits="userSpaceOnUse"><stop stop-color="#DBDBDB"/><stop offset="1" stop-color="#A8A8A8"/></linearGradient><linearGradient id="c" x1="52.422" y1="20.81" x2="52.422" y2="31.688" gradientUnits="userSpaceOnUse"><stop stop-color="#DBDBDB"/><stop offset="1" stop-color="#A8A8A8"/></linearGradient><linearGradient id="d" x1="8.578" y1="20.81" x2="8.578" y2="31.688" gradientUnits="userSpaceOnUse"><stop stop-color="#9C9C9C"/><stop offset="1" stop-color="#404040"/></linearGradient><linearGradient id="e" x1="16.68" y1="44.163" x2="16.68" y2="58.14" gradientUnits="userSpaceOnUse"><stop/><stop offset="1" stop-color="#5D5D5D"/></linearGradient><linearGradient id="f" x1="42.523" y1="34.318" x2="42.523" y2="58.141" gradientUnits="userSpaceOnUse"><stop/><stop offset="1" stop-color="#5D5D5D"/></linearGradient><linearGradient id="g" x1="23.669" y1="30.5" x2="23.669" y2="58.141" gradientUnits="userSpaceOnUse"><stop/><stop offset="1" stop-color="#5D5D5D"/></linearGradient><linearGradient id="h" x1="30.5" y1="37.172" x2="30.5" y2="58.141" gradientUnits="userSpaceOnUse"><stop stop-color="#9C9C9C"/><stop offset="1" stop-color="#404040"/></linearGradient><linearGradient id="i" x1="30.5" y1="50.039" x2="30.5" y2="57.664" gradientUnits="userSpaceOnUse"><stop/><stop offset="1" stop-color="#5D5D5D"/></linearGradient></defs></svg>