<svg width="1100" height="571" fill="none" xmlns="http://www.w3.org/2000/svg"><path d="M0 133c0-13.255 10.745-24 24-24h137c13.255 0 24 10.745 24 24v414c0 13.255-10.745 24-24 24H24c-13.255 0-24-10.745-24-24V133z" fill="url(#a)"/><path d="M65.164 11.453c-.893.885-1.34 2-1.34 3.342 0 1.343.447 2.46 1.34 3.353.892.893 2.01 1.339 3.353 1.339.831 0 1.617-.176 2.357-.527.74-.35 1.274-.705 1.602-1.064l.492-.526 2.575 2.815a5.639 5.639 0 01-.275.366c-.114.145-.389.408-.823.79a8.724 8.724 0 01-1.397.995c-.496.29-1.155.55-1.98.778a9.125 9.125 0 01-2.551.355c-2.548 0-4.711-.85-6.489-2.552-1.77-1.709-2.655-3.75-2.655-6.122 0-2.373.885-4.41 2.655-6.111 1.778-1.709 3.94-2.563 6.489-2.563.877 0 1.712.114 2.506.343.793.229 1.446.503 1.957.824.519.32.969.64 1.35.961.39.32.668.595.835.824l.264.332-2.701 2.815a5.938 5.938 0 00-.183-.229c-.076-.099-.252-.267-.526-.503a6.129 6.129 0 00-.859-.641c-.297-.19-.69-.359-1.178-.504a4.813 4.813 0 00-1.465-.229c-1.343 0-2.46.447-3.353 1.34zM92.766 6.59V23h-4.452v-6.328h-5.973V23h-4.452V6.59h4.452v6.1h5.973v-6.1h4.452zm12.073 9.384l-1.522-4.807-1.522 4.807h3.044zm1.167 3.513h-5.39L99.449 23h-4.806l6.213-16.41h4.921L111.991 23h-4.806l-1.179-3.513zM113.868 23V6.59h4.451V23h-4.451zm19.088-16.41h4.451V23h-3.845l-7.049-9.143V23h-4.451V6.59h3.868l7.026 9.143V6.59zm21.457 9.384l-1.522-4.807-1.522 4.807h3.044zm1.167 3.513h-5.39L149.023 23h-4.807l6.214-16.41h4.921L161.565 23h-4.806l-1.179-3.513z" fill="#D23E10"/><path d="M64.96 204.562c0-.203-.095-.38-.288-.531a2.404 2.404 0 00-.75-.375c-.302-.099-.64-.203-1.016-.312a8.892 8.892 0 01-1.11-.43 5.362 5.362 0 01-1.007-.617 2.676 2.676 0 01-.742-.969c-.193-.406-.29-.875-.29-1.406 0-.917.397-1.719 1.188-2.406.797-.693 1.815-1.039 3.055-1.039.51 0 .992.057 1.445.171.453.11.823.243 1.11.399.291.156.547.312.765.469.22.151.37.286.453.406l.149.156-1.766 1.844a2.307 2.307 0 00-.234-.234c-.1-.099-.31-.232-.633-.399a2.06 2.06 0 00-.969-.25c-.343 0-.63.096-.86.289-.228.193-.343.417-.343.672 0 .203.097.38.29.531.192.146.44.271.741.375l1.008.321c.37.109.74.25 1.11.421.375.172.713.378 1.015.618.307.239.557.562.75.968.193.407.29.875.29 1.407 0 1.036-.41 1.908-1.227 2.617-.818.708-1.904 1.062-3.258 1.062a6.253 6.253 0 01-1.602-.203c-.51-.13-.932-.289-1.265-.476a9.125 9.125 0 01-.875-.563 3.689 3.689 0 01-.563-.484l-.172-.196 1.758-1.836a.953.953 0 00.11.126l.32.289c.161.14.33.265.508.375.177.104.398.197.664.281.265.083.531.125.797.125.427 0 .773-.117 1.039-.352.27-.234.406-.515.406-.844zm8.165.876h5.758V208h-8.797v-11.203h8.64v2.562h-5.601v1.758h4.32v2.406h-4.32v1.915zm15.117-8.641h3.04V208h-2.626l-4.812-6.242V208h-3.04v-11.203h2.641l4.797 6.242v-6.242zm5.61 0h4.32c1.708 0 3.122.539 4.242 1.617 1.12 1.078 1.68 2.406 1.68 3.984 0 1.579-.563 2.907-1.688 3.985-1.12 1.078-2.531 1.617-4.234 1.617h-4.32v-11.203zm4.32 2.726H96.89v5.758h1.28c.782 0 1.457-.273 2.024-.82.568-.552.852-1.24.852-2.063 0-.843-.268-1.533-.805-2.07-.536-.536-1.226-.805-2.07-.805zm10.875 5.915h5.758V208h-8.797v-11.203h8.64v2.562h-5.601v1.758h4.32v2.406h-4.32v1.915zm7.68 2.562v-11.203h5.281c1.182 0 2.156.37 2.922 1.109.771.735 1.156 1.646 1.156 2.735 0 .448-.068.867-.203 1.257-.13.386-.289.701-.477.946a5.144 5.144 0 01-.562.617 2.378 2.378 0 01-.469.344l-.211.117 2.32 4.078h-3.195l-1.922-3.523h-1.601V208h-3.039zm5.984-6.562c.224-.214.336-.48.336-.797a1.04 1.04 0 00-.336-.797c-.224-.214-.513-.321-.867-.321h-2.078v2.235h2.078c.354 0 .643-.107.867-.32zM74.563 511.562c0-.203-.097-.38-.29-.531a2.404 2.404 0 00-.75-.375 31.53 31.53 0 00-1.015-.312 8.887 8.887 0 01-1.11-.43 5.365 5.365 0 01-1.007-.617 2.676 2.676 0 01-.743-.969c-.192-.406-.289-.875-.289-1.406 0-.917.396-1.719 1.188-2.406.797-.693 1.815-1.039 3.055-1.039.51 0 .992.057 1.445.171.453.11.823.243 1.11.399.29.156.546.312.765.469.219.151.37.286.453.406l.148.156-1.765 1.844a2.31 2.31 0 00-.235-.234c-.099-.099-.31-.232-.632-.399a2.06 2.06 0 00-.97-.25c-.343 0-.63.096-.859.289-.229.193-.343.417-.343.672 0 .203.096.38.289.531.193.146.44.271.742.375.307.099.643.206 1.008.321.37.109.74.25 1.11.421.374.172.713.378 1.015.618.307.239.557.562.75.968.193.407.289.875.289 1.407 0 1.036-.409 1.908-1.227 2.617-.817.708-1.903 1.062-3.257 1.062a6.254 6.254 0 01-1.602-.203c-.51-.13-.932-.289-1.266-.476a9.138 9.138 0 01-.875-.563 3.692 3.692 0 01-.562-.484l-.172-.196 1.758-1.836c.02.032.057.073.11.126.056.052.163.148.32.289.16.14.33.265.507.375.177.104.399.197.664.281.266.083.532.125.797.125.427 0 .774-.117 1.04-.352.27-.234.406-.515.406-.844zm12.156-3.039L84.64 515h-2.72l-3.687-11.203h3.282l1.921 6.805 2-6.805H88l2 6.805 1.922-6.805h3.273L91.515 515h-2.718l-2.078-6.477zm14.633 1.68l-1.04-3.281-1.039 3.281h2.079zm.796 2.399h-3.68L97.673 515H94.39l4.242-11.203h3.359L106.234 515h-3.281l-.805-2.398zm5.368-8.805h5.039c1.229 0 2.229.372 3 1.117.771.74 1.156 1.675 1.156 2.805 0 1.13-.388 2.067-1.164 2.812-.771.74-1.768 1.11-2.992 1.11h-2V515h-3.039v-11.203zm4.875 2.726h-1.836v2.399h1.836c.354 0 .656-.12.906-.36.25-.239.375-.518.375-.835 0-.323-.125-.605-.375-.844a1.26 1.26 0 00-.906-.36zm-61.32 19.594c-.61.604-.915 1.365-.915 2.281 0 .917.305 1.68.914 2.29.61.609 1.373.914 2.29.914.567 0 1.104-.12 1.609-.36.505-.239.87-.482 1.093-.726l.336-.36 1.758 1.922a3.639 3.639 0 01-.187.25c-.078.099-.266.279-.563.539a5.97 5.97 0 01-.953.68c-.338.198-.789.375-1.351.531a6.21 6.21 0 01-1.743.242c-1.74 0-3.216-.58-4.43-1.742-1.208-1.167-1.812-2.56-1.812-4.18 0-1.619.604-3.01 1.813-4.171 1.213-1.167 2.69-1.75 4.43-1.75.598 0 1.169.078 1.71.234.542.156.987.344 1.336.562.354.219.662.438.922.657.266.218.456.406.57.562l.18.227-1.844 1.922a4.156 4.156 0 00-.125-.157 3.04 3.04 0 00-.359-.343 4.158 4.158 0 00-.586-.438 3.193 3.193 0 00-.805-.344 3.292 3.292 0 00-1-.156c-.916 0-1.68.305-2.289.914zm11.734 0c-.6.604-.899 1.365-.899 2.281 0 .917.3 1.68.899 2.29.599.609 1.34.914 2.226.914.886 0 1.625-.305 2.219-.914.599-.61.898-1.373.898-2.29 0-.916-.299-1.677-.898-2.281-.594-.609-1.333-.914-2.219-.914-.885 0-1.627.305-2.226.914zm6.64-1.89c1.214 1.161 1.82 2.552 1.82 4.171 0 1.62-.606 3.013-1.82 4.18-1.208 1.162-2.682 1.742-4.422 1.742-1.734 0-3.208-.58-4.421-1.742-1.209-1.167-1.813-2.56-1.813-4.18 0-1.619.604-3.01 1.813-4.171 1.213-1.167 2.687-1.75 4.421-1.75 1.74 0 3.214.583 4.422 1.75zm11.188-1.43h3.039V534h-2.625l-4.813-6.242V534h-3.039v-11.203h2.64l4.798 6.242v-6.242zm4.648 0h9.281v2.726h-3.124V534h-3.04v-8.477h-3.117v-2.726zM96.164 534v-11.203h5.281c1.183 0 2.157.37 2.922 1.109.771.735 1.156 1.646 1.156 2.735 0 .448-.067.867-.203 1.257-.13.386-.289.701-.476.946a5.148 5.148 0 01-.563.617 2.321 2.321 0 01-.469.344l-.21.117 2.32 4.078h-3.195l-1.922-3.523h-1.602V534h-3.039zm5.984-6.562c.224-.214.336-.48.336-.797a1.04 1.04 0 00-.336-.797c-.224-.214-.513-.321-.867-.321h-2.078v2.235h2.078c.354 0 .643-.107.867-.32zm11.211 1.765l-1.039-3.281-1.039 3.281h2.078zm.797 2.399h-3.679L109.68 534h-3.282l4.243-11.203H114L118.242 534h-3.281l-.805-2.398zm8.039-5.485c-.609.604-.914 1.365-.914 2.281 0 .917.305 1.68.914 2.29.61.609 1.373.914 2.289.914.568 0 1.105-.12 1.61-.36.505-.239.87-.482 1.094-.726l.335-.36 1.758 1.922a3.513 3.513 0 01-.187.25c-.078.099-.266.279-.563.539a5.933 5.933 0 01-.953.68c-.338.198-.789.375-1.351.531a6.214 6.214 0 01-1.743.242c-1.739 0-3.216-.58-4.429-1.742-1.209-1.167-1.813-2.56-1.813-4.18 0-1.619.604-3.01 1.813-4.171 1.213-1.167 2.69-1.75 4.429-1.75.599 0 1.17.078 1.711.234.542.156.987.344 1.336.562.354.219.662.438.922.657.266.218.456.406.57.562l.18.227-1.844 1.922a3.961 3.961 0 00-.125-.157 3.058 3.058 0 00-.359-.343 4.135 4.135 0 00-.586-.438 3.182 3.182 0 00-.805-.344 3.288 3.288 0 00-1-.156c-.916 0-1.679.305-2.289.914zm7.727-3.32h9.281v2.726h-3.125V534h-3.039v-8.477h-3.117v-2.726z" fill="#fff"/><path d="M154.712 85.432c0 .145 0 .433-.145.577v.144c0 .288-.144.433-.144.72 0 .145-.144.29-.144.433l-12.544 27.388c-.144.144-.144.288-.288.432-.145.288-.289.577-.577.721l-.144.144c0 .144-.145.144-.145.288s-.144.144-.288.289l-.288.288-.145.144c-.288.144-.432.432-.72.577 0 0-.145 0-.145.144-.288.144-.576.288-.721.576l-.144.144c-.144.145-.288.145-.432.289-.145 0-.145.144-.289.144-.288.144-.576.288-.721.432-.288.144-.576.289-.865.289-.144 0-.144 0-.288.144-.144 0-.433.144-.577.144-.144 0-.144 0-.288.144-.289.144-.721.144-1.01.288h-.144c-.432.144-.865.144-1.297.289-.289 0-.433.144-.721.144l-47.293 7.351c-.577.144-1.154.144-1.586.144h-4.182c-.576 0-1.153-.144-1.586-.144-.144 0-.288 0-.432-.144-.433 0-.721-.144-1.154-.288-.288 0-.432-.144-.72-.144-.29-.145-.578-.145-.866-.289-.288-.144-.577-.144-1.01-.288-.288-.144-.576-.144-.864-.288-.145 0-.289-.144-.433-.144-.433-.145-.865-.433-1.298-.721l-34.748-20.036c-1.442-.865-2.452-1.73-3.172-2.739-.433-.577-.577-1.009-.866-1.586-.144-.288-.144-.576-.144-.864v-.865L31 136.604c0 2.162 1.442 4.324 4.326 5.91l34.748 20.036c.433.288.865.432 1.298.72.144 0 .288.144.433.144.144 0 .288.145.432.145.144 0 .289.144.433.144.288.144.576.288 1.01.288.143 0 .287.144.432.144.144 0 .288.144.576.144.289 0 .433.144.721.144.144 0 .289 0 .289.145.288 0 .576.144.72.144.145 0 .289 0 .433.144h.144c.433 0 .865.144 1.442.144h4.47c.433 0 .865-.144 1.298-.144l47.293-7.352c.144 0 .288 0 .576-.144h.145c.432-.144.865-.144 1.297-.288h.144c.289-.144.721-.144 1.01-.288h.288c.144 0 .433-.144.577-.144.144 0 .144 0 .288-.145.289-.144.577-.144.721-.288.289-.144.577-.288.721-.432.144 0 .144-.144.288-.144.145-.145.289-.145.433-.289h.144l.144-.144c.289-.144.577-.288.721-.576 0 0 .145 0 .145-.145.288-.144.576-.432.72-.576h.145l.144-.144.288-.289.289-.288c.144-.144.144-.144.144-.288 0 0 0-.144.144-.144v-.144c.144-.289.433-.433.577-.721.144-.144.144-.288.288-.433l12.544-27.387c0-.144.144-.288.144-.432.145-.289.145-.433.145-.721v-.144c0-.144 0-.433.144-.577v-.288L155 85c-.288.144-.288.288-.288.432z" fill="url(#b)"/><path d="M150.688 78.638c3.76 2.179 5.206 5.229 3.76 8.134l-12.581 27.594c-1.301 2.905-5.206 5.229-10.267 5.955l-47.431 7.407c-5.062.726-10.412 0-14.028-2.179l-34.85-20.187c-3.615-2.179-5.206-5.229-3.76-8.134l12.581-27.594c1.301-2.905 5.206-5.228 10.267-5.955l47.432-7.407c5.061-.726 10.412 0 14.027 2.179l34.85 20.187z" fill="url(#c)"/><path d="M154.514 87.677l-12.54 27.658c-1.297 2.911-5.189 5.24-10.234 5.968l-47.275 7.424c-5.045.728-10.378 0-13.981-2.183L35.748 106.31c-1.874-1.165-3.171-2.475-3.748-3.931.72.874 1.73 1.747 2.883 2.475l34.736 20.234c3.603 2.183 9.08 2.911 13.98 2.183l47.277-7.424c5.044-.727 8.936-3.056 10.233-5.968l12.54-27.657c.576-1.456.576-2.912 0-4.222 1.441 1.601 1.729 3.64.865 5.677z" fill="url(#d)"/><path d="M95.512 88.306l-14.03-4.204 7.281 8.1 6.75-3.896zm10.378 3.002l-11.95 6.9 5.2 5.99-10.656 6.152-22.606-28.958 10.91-6.298 50.161 13.05-10.657 6.152-10.402-2.988z" fill="#fff"/><path d="M95.598 249.5c-1.155 2-4.041 2-5.196 0L80.876 233c-1.155-2 .288-4.5 2.598-4.5h19.052c2.31 0 3.753 2.5 2.598 4.5l-9.526 16.5z" fill="#000"/><path d="M95.598 249.5c-1.155 2-4.041 2-5.196 0L80.876 233c-1.155-2 .288-4.5 2.598-4.5h19.052c2.31 0 3.753 2.5 2.598 4.5l-9.526 16.5z" fill="url(#e)"/><path d="M95.598 383.5c-1.155 2-4.041 2-5.196 0L80.876 367c-1.155-2 .288-4.5 2.598-4.5h19.052c2.31 0 3.753 2.5 2.598 4.5l-9.526 16.5z" fill="#000"/><path d="M95.598 383.5c-1.155 2-4.041 2-5.196 0L80.876 367c-1.155-2 .288-4.5 2.598-4.5h19.052c2.31 0 3.753 2.5 2.598 4.5l-9.526 16.5z" fill="url(#f)"/><rect x="53" y="264" width="80" height="80" rx="18" fill="#000"/><rect x="53" y="264" width="80" height="80" rx="18" stroke="#2C2C33" stroke-width="4"/><rect x="53" y="264" width="80" height="80" rx="18" stroke="url(#g)" stroke-opacity=".1" stroke-width="4"/><g clip-path="url(#h)"><path d="M93 290.383c-7.508 0-13.617 6.109-13.617 13.617 0 7.508 6.109 13.617 13.617 13.617 7.508 0 13.617-6.109 13.617-13.617 0-7.508-6.109-13.617-13.617-13.617zm-.61 12.387h1.22a4.534 4.534 0 014.53 4.529 4.536 4.536 0 01-3.91 4.486v2.507h-2.46v-2.507a4.536 4.536 0 01-3.91-4.486h2.46a2.07 2.07 0 002.07 2.068h1.22a2.07 2.07 0 002.07-2.068 2.071 2.071 0 00-2.07-2.069h-1.22a4.534 4.534 0 01-4.53-4.529 4.536 4.536 0 013.91-4.486v-2.507h2.46v2.507a4.536 4.536 0 013.91 4.486h-2.46a2.07 2.07 0 00-2.07-2.068h-1.22a2.07 2.07 0 00-2.07 2.068c0 1.141.929 2.069 2.07 2.069z" fill="url(#i)"/><path d="M107.849 289.151A20.86 20.86 0 0093 283a20.86 20.86 0 00-14.85 6.151A20.862 20.862 0 0072 304a20.862 20.862 0 006.15 14.849A20.86 20.86 0 0093 325a20.86 20.86 0 0014.849-6.151A20.86 20.86 0 00114 304a20.86 20.86 0 00-6.151-14.849zM93 320.078c-8.865 0-16.078-7.213-16.078-16.078 0-8.865 7.213-16.078 16.078-16.078 8.865 0 16.078 7.213 16.078 16.078 0 8.865-7.213 16.078-16.078 16.078z" fill="#fff"/></g><rect x="53" y="398" width="80" height="80" rx="18" fill="#000"/><rect x="53" y="398" width="80" height="80" rx="18" stroke="#2C2C33" stroke-width="4"/><rect x="53" y="398" width="80" height="80" rx="18" stroke="url(#j)" stroke-opacity=".1" stroke-width="4"/><g clip-path="url(#k)"><path d="M79.793 443.988h2.468v2.461h-2.468v-2.461z" fill="url(#l)"/><path d="M79.799 434.145v2.46h2.468v-2.46h-2.468zm16.104-11.77c.558-.062 2.218-.327 3.248-.823 1.383-.665 2.432-1.799 2.485-1.858a3.615 3.615 0 012.815-1.215v-.249a1.23 1.23 0 00-1.231-1.23H73.64a1.23 1.23 0 00-1.23 1.23v39.54c0 .679.551 1.23 1.23 1.23h19.252v-10.327c0-.679.552-1.23 1.231-1.23h10.328v-1.42a3.627 3.627 0 01-1.89-.466l-.004-.003-.004-.001a18.964 18.964 0 01-5.914-5.227c-1.564-2.115-2.694-4.567-3.358-7.286-.968-3.965-.629-7.155-.587-7.505a3.609 3.609 0 013.21-3.16zM84.728 447.68a1.23 1.23 0 01-1.231 1.23h-4.928a1.23 1.23 0 01-1.231-1.23v-4.922c0-.679.551-1.231 1.231-1.231h4.928c.68 0 1.231.552 1.231 1.231v4.922zm0-9.844a1.23 1.23 0 01-1.231 1.23h-4.928a1.23 1.23 0 01-1.231-1.23v-4.922c0-.679.551-1.23 1.231-1.23h4.928c.68 0 1.231.551 1.231 1.23v4.922zm0-9.844c0 .679-.551 1.231-1.231 1.231h-4.928c-.68 0-1.231-.552-1.231-1.231v-4.922c0-.679.551-1.23 1.231-1.23h4.928c.68 0 1.231.551 1.231 1.23v4.922zm-4.93-1.23h2.469v-2.461h-2.468v2.461z" fill="url(#m)"/><path d="M95.357 459c.335 0 .648-.137.87-.36l7.845-7.846c.264-.263.383-.578.383-.89h-9.098V459z" fill="url(#n)"/><path d="M113.546 425.826a1.147 1.147 0 00-1.02-1.004c-.024-.002-2.411-.258-4.06-1.052-1.9-.913-3.244-2.426-3.257-2.439a1.148 1.148 0 00-1.726-.003c-.013.016-1.359 1.529-3.259 2.442-1.65.794-4.035 1.05-4.06 1.052a1.147 1.147 0 00-1.02 1.004c-.015.121-.348 3.025.533 6.631 1.178 4.822 3.98 8.611 8.099 10.957.358.203.79.199 1.137 0 4.122-2.346 6.922-6.135 8.1-10.957.88-3.606.548-6.51.533-6.631zm-3.87 4.552l-4.622 5.354a1.233 1.233 0 01-1.803.067l-3.027-3.024a1.232 1.232 0 011.742-1.74l2.089 2.086 3.756-4.35a1.233 1.233 0 011.737-.128c.515.444.573 1.221.128 1.735z" fill="#fff"/></g><path d="M950.518 11.453c-.892.885-1.338 2-1.338 3.342 0 1.343.446 2.46 1.338 3.353.893.893 2.011 1.339 3.353 1.339.832 0 1.618-.176 2.358-.527.74-.35 1.274-.705 1.602-1.064l.492-.526 2.575 2.815a5.672 5.672 0 01-.275.366c-.114.145-.389.408-.824.79a8.692 8.692 0 01-1.396.995c-.496.29-1.156.55-1.98.778a9.123 9.123 0 01-2.552.355c-2.548 0-4.711-.85-6.488-2.552-1.77-1.709-2.655-3.75-2.655-6.122 0-2.373.885-4.41 2.655-6.111 1.777-1.709 3.94-2.563 6.488-2.563a9 9 0 012.507.343c.793.229 1.445.503 1.956.824.519.32.969.64 1.351.961.389.32.667.595.835.824l.263.332-2.7 2.815a6.45 6.45 0 00-.183-.229c-.077-.099-.252-.267-.527-.503a6.114 6.114 0 00-.858-.641c-.298-.19-.69-.359-1.179-.504a4.811 4.811 0 00-1.465-.229c-1.342 0-2.46.447-3.353 1.34zm27.603-4.863V23h-4.452v-6.328h-5.974V23h-4.451V6.59h4.451v6.1h5.974v-6.1h4.452zm12.073 9.384l-1.522-4.807-1.522 4.807h3.044zm1.167 3.513h-5.39L984.804 23h-4.807l6.214-16.41h4.921L997.346 23h-4.806l-1.179-3.513zM999.223 23V6.59h4.447V23h-4.447zm19.087-16.41h4.45V23h-3.84l-7.05-9.143V23h-4.45V6.59h3.86l7.03 9.143V6.59zM1039.3 23h-7.85V6.59h7.38c1.69 0 3.04.43 4.07 1.293 1.03.862 1.55 1.877 1.55 3.044 0 .45-.07.881-.22 1.293-.14.404-.32.729-.53.973-.2.244-.41.457-.61.64-.2.176-.38.302-.53.378l-.22.115c.08.03.18.076.31.137.14.053.38.187.71.4.34.207.63.443.89.71.26.267.5.633.7 1.099.22.465.32.972.32 1.522 0 1.281-.56 2.403-1.68 3.364-1.11.961-2.54 1.442-4.29 1.442zm-3.4-3.513h3.04c.52 0 .95-.157 1.27-.47.33-.312.5-.701.5-1.167 0-.473-.17-.866-.5-1.178-.32-.313-.75-.47-1.27-.47h-3.04v3.285zm2.46-9.373h-2.46v2.804h2.46c.47 0 .84-.126 1.11-.377.27-.26.41-.6.41-1.019 0-.427-.14-.767-.41-1.018-.27-.26-.64-.39-1.11-.39z" fill="#D23E10"/><path d="M220.696 433h-6.091v-9.803h1.053v8.825h5.038V433zm1.743 0v-9.803h1.053V433h-1.053zm8.682-2.659a1.31 1.31 0 00-.294-.862 1.963 1.963 0 00-.765-.553 8.286 8.286 0 00-1.033-.356 27.402 27.402 0 01-1.134-.355 5.707 5.707 0 01-1.04-.479 2.16 2.16 0 01-.758-.793c-.196-.341-.294-.749-.294-1.223 0-.739.289-1.365.868-1.88.579-.52 1.34-.779 2.283-.779.356 0 .693.045 1.012.136.323.087.592.192.806.315.215.118.406.239.575.362.168.119.289.221.362.308l.116.136-.704.704a.93.93 0 00-.082-.102 1.877 1.877 0 00-.26-.232 2.78 2.78 0 00-.437-.301 2.408 2.408 0 00-.609-.24 2.803 2.803 0 00-.779-.109c-.642 0-1.155.164-1.538.492-.378.328-.567.725-.567 1.19 0 .337.098.624.294.861.196.237.451.422.765.554.315.132.661.253 1.039.362.379.105.754.223 1.128.356.378.127.725.284 1.039.471.315.187.57.451.766.793.196.337.294.745.294 1.224 0 .829-.292 1.504-.875 2.023-.584.515-1.39.773-2.42.773-.419 0-.818-.05-1.196-.151a4.092 4.092 0 01-.93-.362 5.74 5.74 0 01-.643-.431 2.08 2.08 0 01-.389-.369l-.13-.157.642-.711c.019.027.051.071.096.13.05.055.155.153.315.294.159.137.33.257.512.362.187.1.438.196.752.287.315.087.638.13.971.13.72 0 1.274-.166 1.661-.499.387-.337.581-.777.581-1.319zm1.75-7.144h7.212v.985H237V433h-1.046v-8.818h-3.083v-.985zm10.008 8.825h5.81V433h-6.863v-9.803h6.72v.985h-5.667v3.219h4.546v.978h-4.546v3.643zm14.834-8.825h1.046V433h-.909l-6.016-7.909V433h-1.053v-9.803h.909l6.023 7.916v-7.916zm5.469 0h7.212v.985h-3.083V433h-1.046v-8.818h-3.083v-.985zm9.966 2.01c-.77.779-1.155 1.743-1.155 2.892 0 1.148.385 2.112 1.155 2.891.771.78 1.716 1.169 2.837 1.169 1.121 0 2.067-.389 2.837-1.169.77-.779 1.156-1.743 1.156-2.891 0-1.149-.386-2.113-1.156-2.892-.77-.779-1.716-1.169-2.837-1.169-1.121 0-2.066.39-2.837 1.169zm6.406-.677c.98.98 1.469 2.17 1.469 3.569s-.489 2.588-1.469 3.568c-.98.98-2.17 1.47-3.569 1.47s-2.588-.49-3.568-1.47-1.47-2.169-1.47-3.568.49-2.589 1.47-3.569 2.169-1.469 3.568-1.469 2.589.489 3.569 1.469zm280.321 5.811a1.31 1.31 0 00-.294-.862 1.96 1.96 0 00-.766-.553 8.268 8.268 0 00-1.032-.356 27.929 27.929 0 01-1.135-.355 5.728 5.728 0 01-1.039-.479 2.151 2.151 0 01-.758-.793c-.196-.341-.294-.749-.294-1.223 0-.739.289-1.365.868-1.88.579-.52 1.34-.779 2.283-.779.355 0 .693.045 1.012.136.323.087.592.192.806.315.215.118.406.239.575.362.168.119.289.221.362.308l.116.136-.704.704a1.07 1.07 0 00-.082-.102 1.877 1.877 0 00-.26-.232 2.827 2.827 0 00-.437-.301 2.408 2.408 0 00-.609-.24 2.803 2.803 0 00-.779-.109c-.643 0-1.155.164-1.538.492-.378.328-.567.725-.567 1.19 0 .337.098.624.293.861.196.237.452.422.766.554.315.132.661.253 1.039.362.378.105.754.223 1.128.356.378.127.725.284 1.039.471.315.187.57.451.766.793.196.337.294.745.294 1.224 0 .829-.292 1.504-.875 2.023-.584.515-1.39.773-2.42.773-.419 0-.818-.05-1.196-.151a4.092 4.092 0 01-.93-.362 5.74 5.74 0 01-.643-.431 2.048 2.048 0 01-.389-.369l-.13-.157.642-.711c.019.027.05.071.096.13.05.055.155.153.314.294.16.137.331.257.513.362.187.1.438.196.752.287.315.087.638.13.971.13.72 0 1.274-.166 1.661-.499.387-.337.581-.777.581-1.319zm4.997.943a2.807 2.807 0 002.078.875c.811 0 1.504-.291 2.078-.875.575-.583.862-1.294.862-2.133v-5.954h1.052v5.954c0 1.085-.394 2.022-1.182 2.81-.789.784-1.725 1.176-2.81 1.176-1.08 0-2.014-.394-2.803-1.183-.788-.788-1.182-1.723-1.182-2.803v-5.954h1.046v5.954c0 .839.287 1.55.861 2.133zm14.26-3.534c.045.018.102.043.171.075.068.032.196.119.383.26.186.141.35.296.492.465.141.168.269.403.383.704.118.296.177.611.177.943 0 .811-.278 1.481-.834 2.01-.556.529-1.28.793-2.174.793h-3.992v-9.803h3.781c.793 0 1.444.244 1.955.732.515.483.772 1.08.772 1.791 0 .287-.036.553-.109.8a1.778 1.778 0 01-.281.581 3.11 3.11 0 01-.341.376c-.11.1-.201.168-.274.205l-.109.068zm-4.341 4.272h2.939c.588 0 1.06-.17 1.416-.512.36-.342.54-.78.54-1.313a1.92 1.92 0 00-.547-1.381c-.36-.382-.83-.574-1.409-.574h-2.939v3.78zm2.728-7.84h-2.728v3.137h2.728c.524 0 .934-.141 1.23-.423.301-.288.451-.68.451-1.176 0-.456-.15-.825-.451-1.108-.296-.287-.706-.43-1.23-.43zm14.492.84l-3.924 5.175-3.917-5.175V433h-1.053v-9.803h.909l4.061 5.325 4.06-5.325h.91V433h-1.046v-7.978zm3.985 7.978v-9.803h1.053V433h-1.053zm2.803-9.803h7.212v.985h-3.083V433h-1.046v-8.818h-3.083v-.985zm-52.5 24.144a1.31 1.31 0 00-.294-.862 1.96 1.96 0 00-.766-.553 8.325 8.325 0 00-1.032-.356 27.929 27.929 0 01-1.135-.355 5.728 5.728 0 01-1.039-.479 2.154 2.154 0 01-.759-.793c-.196-.341-.294-.749-.294-1.223 0-.739.29-1.365.869-1.88.578-.52 1.339-.779 2.283-.779.355 0 .693.045 1.012.136.323.087.592.192.806.315.214.118.406.239.574.362.169.119.29.221.363.308l.116.136-.704.704a1.07 1.07 0 00-.082-.102 1.942 1.942 0 00-.26-.232 2.876 2.876 0 00-.437-.301 2.423 2.423 0 00-.609-.24 2.808 2.808 0 00-.779-.109c-.643 0-1.155.164-1.538.492-.379.328-.568.725-.568 1.19 0 .337.098.624.294.861.196.237.451.422.766.554a9.43 9.43 0 001.039.362c.378.105.754.223 1.128.356.378.127.725.284 1.039.471.314.187.57.451.766.793.196.337.294.745.294 1.224 0 .829-.292 1.504-.875 2.023-.584.515-1.39.773-2.42.773-.42 0-.818-.05-1.197-.151a4.101 4.101 0 01-.929-.362 5.74 5.74 0 01-.643-.431 2.06 2.06 0 01-.39-.369l-.129-.157.642-.711c.018.027.05.071.096.13.05.055.155.153.314.294.16.137.331.257.513.362.187.1.437.196.752.287.314.087.638.13.971.13.72 0 1.273-.166 1.661-.499.387-.337.581-.777.581-1.319zm3.226 2.659v-9.803h1.053V450h-1.053zm4.833-1.333c-.979-.98-1.469-2.169-1.469-3.568s.49-2.589 1.469-3.569c.98-.98 2.17-1.469 3.569-1.469.497 0 .973.07 1.428.211.456.137.832.304 1.128.499.301.196.563.395.787.595.227.201.391.372.492.513l.157.212-.704.629a2.236 2.236 0 00-.123-.178 3.55 3.55 0 00-.383-.403 3.928 3.928 0 00-.656-.506 3.914 3.914 0 00-.923-.41 3.91 3.91 0 00-1.203-.185c-1.121 0-2.067.39-2.837 1.169s-1.155 1.743-1.155 2.892c0 1.148.385 2.112 1.155 2.891.77.78 1.716 1.169 2.837 1.169a4.46 4.46 0 001.121-.137c.355-.095.647-.207.875-.334.228-.133.428-.26.601-.383.174-.128.297-.24.37-.335l.116-.137v-1.894h-2.242v-.977h3.288v3.151a2.127 2.127 0 01-.178.219 7.95 7.95 0 01-.506.479 5.73 5.73 0 01-.841.622c-.296.182-.681.346-1.155.492a5.006 5.006 0 01-1.449.212c-1.399 0-2.589-.49-3.569-1.47zm17.22-8.47h1.046V450h-.909l-6.016-7.909V450h-1.053v-9.803h.91l6.022 7.916v-7.916zm9.311 6.091l-1.887-4.621-1.894 4.621h3.781zm.423.984h-4.621L575.57 450h-1.121l4.061-9.803h.977l4.061 9.803h-1.114l-1.122-2.728zm2.024-7.075h7.212v.985h-3.083V450h-1.046v-8.818h-3.083v-.985zm10.726 8.087a2.805 2.805 0 002.078.875c.811 0 1.504-.291 2.078-.875.574-.583.861-1.294.861-2.133v-5.954h1.053v5.954c0 1.085-.394 2.022-1.183 2.81-.788.784-1.725 1.176-2.809 1.176-1.08 0-2.015-.394-2.803-1.183-.788-.788-1.183-1.723-1.183-2.803v-5.954h1.046v5.954c0 .839.287 1.55.862 2.133zm8.866-8.087h3.917c.866 0 1.583.281 2.153.841.574.561.861 1.26.861 2.099 0 .419-.07.802-.212 1.148-.141.347-.309.618-.505.814a4.211 4.211 0 01-.595.499 2.19 2.19 0 01-.506.273l-.212.068L610.14 450h-1.19l-2.174-3.917h-2.796V450h-1.052v-9.803zm3.917.985h-2.865v3.917h2.865c.597 0 1.073-.176 1.428-.527.356-.355.534-.831.534-1.428 0-.602-.178-1.078-.534-1.429-.355-.356-.831-.533-1.428-.533zm6.583 7.84h5.81V450h-6.863v-9.803h6.72v.985h-5.667v3.219h4.546v.978h-4.546v3.643zm222.139-25.825h3.917c.866 0 1.584.281 2.154.841.574.561.861 1.26.861 2.099 0 .419-.071.802-.212 1.148-.141.347-.31.618-.506.814a4.206 4.206 0 01-.594.499 2.21 2.21 0 01-.506.273l-.212.068 2.31 4.061h-1.189l-2.174-3.917h-2.796V433h-1.053v-9.803zm3.917.985h-2.864v3.917h2.864c.597 0 1.074-.176 1.429-.527.356-.355.533-.831.533-1.428 0-.602-.177-1.078-.533-1.429-.355-.356-.832-.533-1.429-.533zm6.583 7.84h5.811V433h-6.863v-9.803h6.719v.985h-5.667v3.219h4.546v.978h-4.546v3.643zm13.994.978h-6.091v-9.803h1.052v8.825h5.039V433zm7.061-3.712l-1.887-4.621-1.893 4.621h3.78zm.424.984h-4.621L861.804 433h-1.121l4.06-9.803h.978l4.06 9.803h-1.114l-1.121-2.728zm5.879-1.825h.068l2.94-5.25h1.196l-3.644 6.371V433h-1.052v-3.432l-3.637-6.371h1.189l2.94 5.25zM371.461 218l-4-11.203h3.281l2.406 7.68 2.399-7.68h3.281l-4 11.203h-3.367zm13.211-4.797l-1.039-3.281-1.039 3.281h2.078zm.797 2.399h-3.68l-.797 2.398h-3.281l4.242-11.203h3.359L389.555 218h-3.282l-.804-2.398zM398.836 218h-8v-11.203h3.039v8.484h4.961V218zm1.594 0v-11.203h3.039V218h-3.039zm5.593-11.203h4.321c1.708 0 3.122.539 4.242 1.617 1.12 1.078 1.68 2.406 1.68 3.984 0 1.579-.563 2.907-1.688 3.985-1.12 1.078-2.531 1.617-4.234 1.617h-4.321v-11.203zm4.321 2.726h-1.282v5.758h1.282c.781 0 1.455-.273 2.023-.82.568-.552.852-1.24.852-2.063 0-.843-.268-1.533-.805-2.07-.536-.536-1.226-.805-2.07-.805zm12.875 3.68l-1.039-3.281-1.039 3.281h2.078zm.797 2.399h-3.68l-.797 2.398h-3.281l4.242-11.203h3.359L428.102 218h-3.282l-.804-2.398zm3.437-8.805h9.281v2.726h-3.125V218h-3.039v-8.477h-3.117v-2.726zm13.617 3.32c-.599.604-.898 1.365-.898 2.281 0 .917.299 1.68.898 2.29.599.609 1.341.914 2.227.914.885 0 1.625-.305 2.219-.914.599-.61.898-1.373.898-2.29 0-.916-.299-1.677-.898-2.281-.594-.609-1.334-.914-2.219-.914-.886 0-1.628.305-2.227.914zm6.641-1.89c1.213 1.161 1.82 2.552 1.82 4.171 0 1.62-.607 3.013-1.82 4.18-1.208 1.162-2.682 1.742-4.422 1.742-1.734 0-3.208-.58-4.422-1.742-1.208-1.167-1.812-2.56-1.812-4.18 0-1.619.604-3.01 1.812-4.171 1.214-1.167 2.688-1.75 4.422-1.75 1.74 0 3.214.583 4.422 1.75zm3.75 9.773v-11.203h5.281c1.182 0 2.156.37 2.922 1.109.771.735 1.156 1.646 1.156 2.735 0 .448-.067.867-.203 1.257-.13.386-.289.701-.476.946a5.148 5.148 0 01-.563.617 2.35 2.35 0 01-.469.344l-.211.117 2.321 4.078h-3.196l-1.921-3.523H454.5V218h-3.039zm5.984-6.562c.224-.214.336-.48.336-.797a1.04 1.04 0 00-.336-.797c-.224-.214-.513-.321-.867-.321H454.5v2.235h2.078c.354 0 .643-.107.867-.32z" fill="#fff"/><path d="M377 270h-9.554c-24.3 0-44 19.699-44 44s-19.699 44-44 44H243" stroke="url(#o)" stroke-width="2"/><path d="M377 471h-9.554c-24.3 0-44-19.699-44-44s-19.699-44-44-44H243" stroke="url(#p)" stroke-width="2"/><path d="M377 370H243" stroke="#D23E10" stroke-width="2"/><path d="M454 471h6.556c24.301 0 44-19.699 44-44s19.7-44 44-44H580.5" stroke="url(#q)" stroke-width="2"/><path d="M454 270h6.556c24.301 0 44 19.699 44 44s19.7 44 44 44H580.5" stroke="url(#r)" stroke-width="2"/><path d="M454 371h126.5" stroke="url(#s)" stroke-width="2"/><path d="M674.445 254v-11.203h5.282c1.182 0 2.156.37 2.921 1.109.771.735 1.157 1.646 1.157 2.735 0 .448-.068.867-.203 1.257-.131.386-.29.701-.477.946a5.065 5.065 0 01-.563.617 2.348 2.348 0 01-.468.344l-.211.117 2.32 4.078h-3.195l-1.922-3.523h-1.602V254h-3.039zm5.985-6.562c.224-.214.336-.48.336-.797a1.04 1.04 0 00-.336-.797c-.224-.214-.513-.321-.868-.321h-2.078v2.235h2.078c.355 0 .644-.107.868-.32zm8.57 4h5.758V254h-8.797v-11.203h8.641v2.562H689v1.758h4.32v2.406H689v1.915zM704.68 254h-8v-11.203h3.039v8.484h4.961V254zm7.273-4.797l-1.039-3.281-1.039 3.281h2.078zm.797 2.399h-3.68l-.797 2.398h-3.281l4.242-11.203h3.36L716.836 254h-3.281l-.805-2.398zm10.562-8.805h3.282l-4 7.203v4h-3.039v-4l-4-7.203h3.281l2.242 4.32 2.234-4.32zm7.61 8.641h5.758V254h-8.797v-11.203h8.64v2.562h-5.601v1.758h4.32v2.406h-4.32v1.915zm7.68 2.562v-11.203h5.281c1.182 0 2.156.37 2.922 1.109.771.735 1.156 1.646 1.156 2.735 0 .448-.068.867-.203 1.257-.13.386-.289.701-.477.946a5.144 5.144 0 01-.562.617 2.378 2.378 0 01-.469.344l-.211.117 2.32 4.078h-3.195l-1.922-3.523h-1.601V254h-3.039zm5.984-6.562c.224-.214.336-.48.336-.797a1.04 1.04 0 00-.336-.797c-.224-.214-.513-.321-.867-.321h-2.078v2.235h2.078c.354 0 .643-.107.867-.32z" fill="#fff"/><circle cx="248" cy="370" r="30" transform="rotate(180 248 370)" fill="#000"/><circle cx="248" cy="370" r="30" transform="rotate(180 248 370)" fill="url(#t)"/><path d="M253 360l-8.474 8.05a2 2 0 000 2.9L253 379" stroke="#fff" stroke-width="4"/><rect x="374" y="237" width="80" height="80" rx="18" fill="#000"/><rect x="374" y="237" width="80" height="80" rx="18" stroke="#2C2C33" stroke-width="4"/><rect x="374" y="237" width="80" height="80" rx="18" stroke="url(#u)" stroke-opacity=".1" stroke-width="4"/><rect x="374" y="329" width="80" height="80" rx="18" fill="#000"/><rect x="374" y="329" width="80" height="80" rx="18" stroke="#2C2C33" stroke-width="4"/><rect x="374" y="329" width="80" height="80" rx="18" stroke="url(#v)" stroke-opacity=".1" stroke-width="4"/><rect x="374" y="421" width="80" height="80" rx="18" fill="#000"/><rect x="374" y="421" width="80" height="80" rx="18" stroke="#2C2C33" stroke-width="4"/><rect x="374" y="421" width="80" height="80" rx="18" stroke="url(#w)" stroke-opacity=".1" stroke-width="4"/><path d="M414 280.609a1.23 1.23 0 100-2.46 1.23 1.23 0 000 2.46z" fill="url(#x)"/><path d="M422.862 275.701l-.848-4.336-4.336-.848-3.678-2.462-3.678 2.462-4.336.848-.848 4.336-2.462 3.678 2.462 3.678.849 4.338 4.334.845 3.679 2.463 3.679-2.463 4.333-.845.85-4.338 2.462-3.678-2.462-3.678zM414 283.07a3.695 3.695 0 01-3.691-3.691 3.694 3.694 0 013.691-3.691 3.695 3.695 0 013.691 3.691A3.695 3.695 0 01414 283.07z" fill="url(#y)"/><path d="M429.996 260.922h-2.461V256h-2.461v4.922h-2.461V256h-2.461v4.922h-2.461V256h-4.921v7.383H435V256h-5.004v4.922z" fill="url(#z)"/><path d="M415.121 265.844l3.516 2.353 5.474 1.071 1.072 5.475 3.103 4.636-3.103 4.636-1.073 5.478-1.496.292v5.59h12.387v-29.531h-19.88zm-11.232 3.424l5.475-1.071 3.516-2.353h-2.571V256H393v39.375h12.387v-5.59l-1.496-.292-1.073-5.478-3.103-4.636 3.103-4.636 1.071-5.475zm-5.885-5.885v-2.461h7.383v2.461h-7.383z" fill="#fff"/><path d="M418.637 290.56L414 293.665l-4.637-3.105-1.515-.295V298l6.152-2.48 6.152 2.48v-7.735l-1.515.295z" fill="url(#A)"/><path d="M414 372.609a1.23 1.23 0 100-2.46 1.23 1.23 0 000 2.46z" fill="url(#B)"/><path d="M422.862 367.701l-.848-4.336-4.336-.848-3.678-2.462-3.678 2.462-4.336.848-.848 4.336-2.462 3.678 2.462 3.678.849 4.338 4.334.845 3.679 2.463 3.679-2.463 4.333-.845.85-4.338 2.462-3.678-2.462-3.678zM414 375.07a3.695 3.695 0 01-3.691-3.691 3.694 3.694 0 013.691-3.691 3.695 3.695 0 013.691 3.691A3.695 3.695 0 01414 375.07z" fill="url(#C)"/><path d="M429.996 352.922h-2.461V348h-2.461v4.922h-2.461V348h-2.461v4.922h-2.461V348h-4.921v7.383H435V348h-5.004v4.922z" fill="url(#D)"/><path d="M415.121 357.844l3.516 2.353 5.474 1.071 1.072 5.475 3.103 4.636-3.103 4.636-1.073 5.478-1.496.292v5.59h12.387v-29.531h-19.88zm-11.232 3.424l5.475-1.071 3.516-2.353h-2.571V348H393v39.375h12.387v-5.59l-1.496-.292-1.073-5.478-3.103-4.636 3.103-4.636 1.071-5.475zm-5.885-5.885v-2.461h7.383v2.461h-7.383z" fill="#fff"/><path d="M418.637 382.56L414 385.665l-4.637-3.105-1.515-.295V390l6.152-2.48 6.152 2.48v-7.735l-1.515.295z" fill="url(#E)"/><path d="M414 464.609a1.23 1.23 0 100-2.46 1.23 1.23 0 000 2.46z" fill="url(#F)"/><path d="M422.862 459.701l-.848-4.336-4.336-.848-3.678-2.462-3.678 2.462-4.336.848-.848 4.336-2.462 3.678 2.462 3.678.849 4.338 4.334.845 3.679 2.463 3.679-2.463 4.333-.845.85-4.338 2.462-3.678-2.462-3.678zM414 467.07a3.695 3.695 0 01-3.691-3.691 3.695 3.695 0 013.691-3.692 3.696 3.696 0 013.691 3.692A3.695 3.695 0 01414 467.07z" fill="url(#G)"/><path d="M429.996 444.922h-2.461V440h-2.461v4.922h-2.461V440h-2.461v4.922h-2.461V440h-4.921v7.383H435V440h-5.004v4.922z" fill="url(#H)"/><path d="M415.121 449.844l3.516 2.353 5.474 1.071 1.072 5.475 3.103 4.636-3.103 4.636-1.073 5.478-1.496.292v5.59h12.387v-29.531h-19.88zm-11.232 3.424l5.475-1.071 3.516-2.353h-2.571V440H393v39.375h12.387v-5.59l-1.496-.292-1.073-5.478-3.103-4.636 3.103-4.636 1.071-5.475zm-5.885-5.885v-2.461h7.383v2.461h-7.383z" fill="#fff"/><path d="M418.637 474.56L414 477.665l-4.637-3.105-1.515-.295V482l6.152-2.48 6.152 2.48v-7.735l-1.515.295z" fill="url(#I)"/><path d="M682 323h-21.962c-12.15 0-22 9.85-22 22s-9.85 22-22 22H572" stroke="url(#J)" stroke-width="2"/><path d="M749 420h23.56c12.15 0 22-9.85 22-22s9.85-22 22-22H860" stroke="url(#K)" stroke-width="2"/><path d="M682 420h-21.962c-12.15 0-22-9.85-22-22s-9.85-22-22-22H572" stroke="url(#L)" stroke-width="2"/><path d="M749.001 323h23.56c12.151 0 22 9.85 22 22s9.85 22 22 22H865" stroke="url(#M)" stroke-width="2"/><circle r="30" transform="matrix(1 0 0 -1 581 370)" fill="#000"/><circle r="30" transform="matrix(1 0 0 -1 581 370)" fill="url(#N)"/><path d="M576 360l8.474 8.05a2 2 0 010 2.9L576 379" stroke="#fff" stroke-width="4"/><circle r="30" transform="matrix(1 0 0 -1 856 370)" fill="#000"/><circle r="30" transform="matrix(1 0 0 -1 856 370)" fill="url(#O)"/><path d="M851 360l8.474 8.05a2 2 0 010 2.9L851 379" stroke="#fff" stroke-width="4"/><rect x="671" y="380" width="80" height="80" rx="18" fill="#000"/><rect x="671" y="380" width="80" height="80" rx="18" stroke="#2C2C33" stroke-width="4"/><rect x="671" y="380" width="80" height="80" rx="18" stroke="url(#P)" stroke-opacity=".1" stroke-width="4"/><rect x="671" y="273" width="80" height="80" rx="18" fill="#000"/><rect x="671" y="273" width="80" height="80" rx="18" stroke="#2C2C33" stroke-width="4"/><rect x="671" y="273" width="80" height="80" rx="18" stroke="url(#Q)" stroke-opacity=".1" stroke-width="4"/><path d="M693.691 331.457h29.696a3.692 3.692 0 003.691-3.691 1.23 1.23 0 00-1.23-1.231H691.23a1.23 1.23 0 00-1.23 1.231 3.692 3.692 0 003.691 3.691z" fill="#fff"/><path d="M722.648 305.617a1.23 1.23 0 100-2.461 1.23 1.23 0 000 2.461z" fill="url(#R)"/><path d="M712.609 311.606l-1.231-2.133a3.655 3.655 0 01-.398-2.625h-14.828a3.691 3.691 0 00-3.691 3.691v13.535h32.156v-7.465a3.345 3.345 0 01-.738.082h-2.461a3.695 3.695 0 01-3.691-3.691v-.095c-2.202 1.141-4.206.28-5.118-1.299z" fill="#fff"/><path d="M713.962 306.56a1.231 1.231 0 00-.453 1.683l1.23 2.131a1.23 1.23 0 001.68.451l.215-.124c.703-.407 1.517-.438 2.413.093a2.256 2.256 0 011.14 1.958V313c0 .68.551 1.23 1.231 1.23h2.461c.68 0 1.23-.754 1.23-1.434 0-.832.457-1.609 1.197-2.033.749-.433 1.651-.498 2.626.064a1.23 1.23 0 001.674-.454l1.229-2.13a1.234 1.234 0 00-.452-1.683c-.258-.247-1.383-.786-1.379-2.172 0-.851.456-1.643 1.383-2.177a1.232 1.232 0 00.448-1.68l-1.23-2.132c-.341-.588-1.19-.733-1.78-.393a2.599 2.599 0 01-2.552-.014c-.718-.409-1.164-1.177-1.164-2.219 0-.68-.55-1.23-1.23-1.23h-2.461c-.68 0-1.231.722-1.231 1.402 0 .849-.468 1.645-1.227 2.084-.727.424-1.526.507-2.536-.078a1.228 1.228 0 00-1.685.448l-1.23 2.132c-.339.588.015 1.428.603 1.769a2.493 2.493 0 011.229 2.158c.005 1.513-1.133 1.871-1.379 2.102zm8.686-5.865a3.696 3.696 0 013.692 3.692 3.696 3.696 0 01-3.692 3.691 3.695 3.695 0 01-3.691-3.691 3.696 3.696 0 013.691-3.692z" fill="url(#S)"/><path d="M693.691 438.457h29.696a3.692 3.692 0 003.691-3.691 1.23 1.23 0 00-1.23-1.231H691.23a1.23 1.23 0 00-1.23 1.231 3.692 3.692 0 003.691 3.691z" fill="#fff"/><path d="M722.648 412.617a1.23 1.23 0 100-2.461 1.23 1.23 0 000 2.461z" fill="url(#T)"/><path d="M712.609 418.606l-1.231-2.133a3.655 3.655 0 01-.398-2.625h-14.828a3.691 3.691 0 00-3.691 3.691v13.535h32.156v-7.465a3.345 3.345 0 01-.738.082h-2.461a3.695 3.695 0 01-3.691-3.691v-.095c-2.202 1.141-4.206.28-5.118-1.299z" fill="#fff"/><path d="M713.962 413.56a1.231 1.231 0 00-.453 1.683l1.23 2.131a1.23 1.23 0 001.68.451l.215-.124c.703-.407 1.517-.438 2.413.093a2.256 2.256 0 011.14 1.958V420c0 .68.551 1.23 1.231 1.23h2.461c.68 0 1.23-.754 1.23-1.434 0-.832.457-1.609 1.197-2.033.749-.433 1.651-.498 2.626.064a1.23 1.23 0 001.674-.454l1.229-2.13a1.234 1.234 0 00-.452-1.683c-.258-.247-1.383-.786-1.379-2.172 0-.851.456-1.643 1.383-2.177a1.232 1.232 0 00.448-1.68l-1.23-2.132c-.341-.588-1.19-.733-1.78-.393a2.599 2.599 0 01-2.552-.014c-.718-.409-1.164-1.177-1.164-2.219 0-.68-.55-1.23-1.23-1.23h-2.461c-.68 0-1.231.722-1.231 1.402 0 .849-.468 1.645-1.227 2.084-.727.424-1.526.507-2.536-.078a1.228 1.228 0 00-1.685.448l-1.23 2.132c-.339.588.015 1.428.603 1.769a2.493 2.493 0 011.229 2.158c.005 1.513-1.133 1.871-1.379 2.102zm8.686-5.865a3.696 3.696 0 013.692 3.692 3.696 3.696 0 01-3.692 3.691 3.695 3.695 0 01-3.691-3.691 3.696 3.696 0 013.691-3.692z" fill="url(#U)"/><path d="M915 133c0-13.255 10.745-24 24-24h137c13.25 0 24 10.745 24 24v414c0 13.255-10.75 24-24 24H939c-13.255 0-24-10.745-24-24V133z" fill="url(#V)"/><path d="M989.562 204.562c0-.203-.096-.38-.289-.531a2.388 2.388 0 00-.75-.375 31.53 31.53 0 00-1.015-.312 8.895 8.895 0 01-1.11-.43 5.365 5.365 0 01-1.007-.617 2.682 2.682 0 01-.743-.969c-.192-.406-.289-.875-.289-1.406 0-.917.396-1.719 1.188-2.406.797-.693 1.815-1.039 3.055-1.039.51 0 .992.057 1.445.171.453.11.823.243 1.109.399.292.156.547.312.766.469.219.151.37.286.453.406l.148.156-1.765 1.844a2.235 2.235 0 00-.235-.234c-.099-.099-.309-.232-.632-.399a2.063 2.063 0 00-.969-.25c-.344 0-.63.096-.86.289-.229.193-.343.417-.343.672 0 .203.096.38.289.531.193.146.44.271.742.375.307.099.643.206 1.008.321.37.109.739.25 1.109.421.375.172.714.378 1.016.618.307.239.557.562.75.968.193.407.289.875.289 1.407 0 1.036-.409 1.908-1.227 2.617-.817.708-1.903 1.062-3.257 1.062a6.253 6.253 0 01-1.602-.203c-.51-.13-.932-.289-1.266-.476a9.252 9.252 0 01-.875-.563 3.704 3.704 0 01-.562-.484l-.172-.196 1.758-1.836a.93.93 0 00.109.126l.32.289c.162.14.331.265.508.375.177.104.399.197.664.281.266.083.532.125.797.125.427 0 .774-.117 1.039-.352.271-.234.406-.515.406-.844zm12.158-3.039L999.641 208h-2.719l-3.688-11.203h3.282l1.922 6.805 2.002-6.805h2.56l2 6.805 1.92-6.805h3.28L1006.52 208h-2.72l-2.08-6.477zm14.63 1.68l-1.04-3.281-1.04 3.281h2.08zm.8 2.399h-3.68l-.8 2.398h-3.28l4.24-11.203h3.36l4.24 11.203h-3.28l-.8-2.398zm5.37-8.805h5.03c1.23 0 2.23.372 3 1.117.78.74 1.16 1.675 1.16 2.805 0 1.13-.39 2.067-1.16 2.812-.77.74-1.77 1.11-3 1.11h-2V208h-3.03v-11.203zm4.87 2.726h-1.84v2.399h1.84c.35 0 .66-.12.91-.36.25-.239.37-.518.37-.835 0-.323-.12-.605-.37-.844-.25-.24-.56-.36-.91-.36zm-61.32 19.594c-.609.604-.914 1.365-.914 2.281 0 .917.305 1.68.914 2.29.61.609 1.373.914 2.289.914.568 0 1.105-.12 1.61-.36.505-.239.87-.482 1.093-.726l.336-.36 1.758 1.922a3.513 3.513 0 01-.187.25c-.078.099-.266.279-.563.539a5.933 5.933 0 01-.953.68c-.338.198-.789.375-1.351.531a6.214 6.214 0 01-1.743.242c-1.739 0-3.216-.58-4.429-1.742-1.209-1.167-1.813-2.56-1.813-4.18 0-1.619.604-3.01 1.813-4.171 1.213-1.167 2.69-1.75 4.429-1.75.599 0 1.17.078 1.711.234.542.156.987.344 1.336.562.354.219.662.438.922.657.266.218.456.406.57.562l.18.227-1.844 1.922a3.961 3.961 0 00-.125-.157 2.976 2.976 0 00-.359-.343 4.193 4.193 0 00-.586-.438 3.182 3.182 0 00-.805-.344 3.288 3.288 0 00-1-.156c-.916 0-1.679.305-2.289.914zm11.735 0c-.599.604-.899 1.365-.899 2.281 0 .917.3 1.68.899 2.29.599.609 1.341.914 2.226.914.886 0 1.625-.305 2.219-.914.599-.61.898-1.373.898-2.29 0-.916-.299-1.677-.898-2.281-.594-.609-1.333-.914-2.219-.914-.885 0-1.627.305-2.226.914zm6.64-1.89c1.214 1.161 1.821 2.552 1.821 4.171 0 1.62-.607 3.013-1.821 4.18-1.208 1.162-2.682 1.742-4.422 1.742-1.734 0-3.208-.58-4.421-1.742-1.209-1.167-1.813-2.56-1.813-4.18 0-1.619.604-3.01 1.813-4.171 1.213-1.167 2.687-1.75 4.421-1.75 1.74 0 3.214.583 4.422 1.75zm11.188-1.43h3.039V227h-2.625l-4.813-6.242V227h-3.039v-11.203h2.641l4.797 6.242v-6.242zm4.647 0h9.28v2.726h-3.12V227h-3.04v-8.477h-3.12v-2.726zM1011.16 227v-11.203h5.29c1.18 0 2.15.37 2.92 1.109.77.735 1.15 1.646 1.15 2.735 0 .448-.06.867-.2 1.257-.13.386-.29.701-.48.946-.18.239-.37.445-.56.617-.19.167-.34.281-.47.344l-.21.117 2.32 4.078h-3.19l-1.93-3.523h-1.6V227h-3.04zm5.99-6.562c.22-.214.33-.48.33-.797 0-.323-.11-.589-.33-.797-.23-.214-.51-.321-.87-.321h-2.08v2.235h2.08c.36 0 .64-.107.87-.32zm11.21 1.765l-1.04-3.281-1.04 3.281h2.08zm.8 2.399h-3.68l-.8 2.398h-3.28l4.24-11.203h3.36l4.24 11.203h-3.28l-.8-2.398zm8.04-5.485c-.61.604-.92 1.365-.92 2.281 0 .917.31 1.68.92 2.29.6.609 1.37.914 2.28.914.57 0 1.11-.12 1.61-.36.51-.239.87-.482 1.1-.726l.33-.36 1.76 1.922c-.04.063-.1.146-.19.25-.07.099-.26.279-.56.539-.29.255-.61.482-.95.68-.34.198-.79.375-1.35.531-.56.162-1.14.242-1.75.242-1.74 0-3.21-.58-4.43-1.742-1.2-1.167-1.81-2.56-1.81-4.18 0-1.619.61-3.01 1.81-4.171 1.22-1.167 2.69-1.75 4.43-1.75.6 0 1.17.078 1.72.234.54.156.98.344 1.33.562.36.219.66.438.92.657.27.218.46.406.57.562l.18.227-1.84 1.922a1.404 1.404 0 00-.13-.157 3.163 3.163 0 00-.35-.343 4.541 4.541 0 00-.59-.438c-.2-.13-.47-.245-.81-.344a3.246 3.246 0 00-1-.156c-.91 0-1.68.305-2.28.914zm7.72-3.32h9.28v2.726h-3.12V227h-3.04v-8.477h-3.12v-2.726zM963.664 523v-11.203h5.281c1.183 0 2.157.37 2.922 1.109.771.735 1.156 1.646 1.156 2.735 0 .448-.067.867-.203 1.257-.13.386-.289.701-.476.946a5.148 5.148 0 01-.563.617 2.321 2.321 0 01-.469.344l-.21.117 2.32 4.078h-3.195l-1.922-3.523h-1.602V523h-3.039zm5.984-6.562c.224-.214.336-.48.336-.797a1.04 1.04 0 00-.336-.797c-.224-.214-.513-.321-.867-.321h-2.078v2.235h2.078c.354 0 .643-.107.867-.32zm8.571 4h5.758V523h-8.797v-11.203h8.64v2.562h-5.601v1.758h4.32v2.406h-4.32v1.915zm10.992-5.321c-.609.604-.914 1.365-.914 2.281 0 .917.305 1.68.914 2.29.609.609 1.372.914 2.289.914a3.7 3.7 0 001.609-.36c.506-.239.87-.482 1.094-.726l.336-.36 1.758 1.922a3.585 3.585 0 01-.188.25c-.078.099-.265.279-.562.539a5.978 5.978 0 01-.953.68c-.339.198-.789.375-1.352.531a6.207 6.207 0 01-1.742.242c-1.74 0-3.216-.58-4.43-1.742-1.208-1.167-1.812-2.56-1.812-4.18 0-1.619.604-3.01 1.812-4.171 1.214-1.167 2.69-1.75 4.43-1.75.599 0 1.169.078 1.711.234.542.156.987.344 1.336.562.354.219.661.438.922.657.265.218.455.406.57.562l.18.227-1.844 1.922a3.961 3.961 0 00-.125-.157 3.058 3.058 0 00-.359-.343 4.193 4.193 0 00-.586-.438 3.198 3.198 0 00-.805-.344 3.288 3.288 0 00-1-.156c-.917 0-1.68.305-2.289.914zm8.687 7.883v-11.203h3.042V523h-3.042zm5.592-11.203h5.04c1.23 0 2.23.372 3 1.117.77.74 1.16 1.675 1.16 2.805 0 1.13-.39 2.067-1.17 2.812-.77.74-1.76 1.11-2.99 1.11h-2V523h-3.04v-11.203zm4.88 2.726h-1.84v2.399h1.84c.35 0 .65-.12.9-.36.25-.239.38-.518.38-.835 0-.323-.13-.605-.38-.844-.25-.24-.55-.36-.9-.36zm6.25 8.477v-11.203h3.04V523h-3.04zm8.63-2.562h5.76V523h-8.8v-11.203h8.64v2.562h-5.6v1.758h4.32v2.406h-4.32v1.915zm15.12-8.641h3.04V523h-2.63l-4.81-6.242V523h-3.04v-11.203h2.64l4.8 6.242v-6.242zm4.65 0h9.28v2.726h-3.13V523h-3.04v-8.477h-3.11v-2.726z" fill="#fff"/><path d="M1069.71 85.432c0 .145 0 .433-.14.577v.144c0 .288-.15.433-.15.72 0 .145-.14.29-.14.433l-12.55 27.388c-.14.144-.14.288-.28.432-.15.288-.29.577-.58.721l-.14.144c0 .144-.15.144-.15.288s-.14.144-.29.289c-.14.144-.14.144-.29.288l-.14.144c-.29.144-.43.432-.72.577 0 0-.14 0-.14.144-.29.144-.58.288-.73.576l-.14.144c-.14.145-.29.145-.43.289-.15 0-.15.144-.29.144-.29.144-.58.288-.72.432-.29.144-.58.289-.87.289-.14 0-.14 0-.29.144-.14 0-.43.144-.57.144-.15 0-.15 0-.29.144-.29.144-.72.144-1.01.288h-.14c-.44.144-.87.144-1.3.289-.29 0-.43.144-.72.144l-47.295 7.351c-.577.144-1.154.144-1.586.144h-4.182c-.577 0-1.153-.144-1.586-.144-.144 0-.288 0-.432-.144-.433 0-.721-.144-1.154-.288-.288 0-.432-.144-.721-.144-.288-.145-.577-.145-.865-.289-.288-.144-.577-.144-1.009-.288-.289-.144-.577-.144-.865-.288-.145 0-.289-.144-.433-.144-.432-.145-.865-.433-1.298-.721l-34.748-20.036c-1.442-.865-2.452-1.73-3.173-2.739-.432-.577-.576-1.009-.865-1.586-.144-.288-.144-.576-.144-.864v-.865L946 136.604c0 2.162 1.442 4.324 4.326 5.91l34.748 20.036c.433.288.866.432 1.298.72.144 0 .288.144.433.144.144 0 .288.145.432.145.144 0 .289.144.433.144.288.144.577.288 1.009.288.144 0 .288.144.433.144.144 0 .288.144.576.144.289 0 .433.144.721.144.144 0 .289 0 .289.145.288 0 .576.144.721.144.144 0 .288 0 .432.144h.144c.433 0 .865.144 1.442.144h4.47c.433 0 .865-.144 1.298-.144l47.295-7.352c.14 0 .29 0 .57-.144h.15c.43-.144.86-.144 1.3-.288h.14c.29-.144.72-.144 1.01-.288h.29c.14 0 .43-.144.57-.144.15 0 .15 0 .29-.145.29-.144.58-.144.72-.288.29-.144.58-.288.73-.432.14 0 .14-.144.28-.144.15-.145.29-.145.44-.289h.14l.14-.144c.29-.144.58-.288.73-.576 0 0 .14 0 .14-.145.29-.144.58-.432.72-.576h.14l.15-.144c.14-.144.14-.144.29-.289.14-.144.14-.144.29-.288.14-.144.14-.144.14-.288 0 0 0-.144.14-.144v-.144c.15-.289.44-.433.58-.721.14-.144.14-.288.29-.433l12.54-27.387c0-.144.15-.288.15-.432.14-.289.14-.433.14-.721v-.144c0-.144 0-.433.15-.577v-.288L1070 85c-.29.144-.29.288-.29.432z" fill="url(#W)"/><path d="M1065.69 78.638c3.76 2.179 5.2 5.229 3.76 8.134l-12.58 27.594c-1.3 2.905-5.21 5.229-10.27 5.955l-47.431 7.407c-5.062.726-10.412 0-14.027-2.179l-34.851-20.187c-3.615-2.179-5.206-5.229-3.76-8.134l12.581-27.594c1.301-2.905 5.206-5.228 10.267-5.955l47.431-7.407c5.06-.726 10.41 0 14.03 2.179l34.85 20.187z" fill="url(#X)"/><path d="M1069.51 87.677l-12.54 27.658c-1.29 2.911-5.18 5.24-10.23 5.968l-47.275 7.424c-5.045.728-10.378 0-13.981-2.183l-34.737-20.234c-1.873-1.165-3.17-2.475-3.747-3.931.721.874 1.73 1.747 2.883 2.475l34.736 20.234c3.603 2.183 9.08 2.911 13.981 2.183l47.28-7.424c5.04-.727 8.93-3.056 10.23-5.968l12.54-27.657c.58-1.456.58-2.912 0-4.222 1.44 1.601 1.73 3.64.86 5.677z" fill="url(#Y)"/><path d="M1025.84 97.446l-17.41 10.048-36.383-21.005 16.365-9.447c3.738-2.158 7.705-3.345 11.898-3.56 4.2-.214 7.59.425 10.18 1.92.99.575 1.79 1.22 2.38 1.933.58.703.91 1.343.99 1.919.09.576.1 1.113.05 1.61-.05.48-.16.865-.33 1.158l-.23.425c.24-.059.57-.132.99-.22.43-.107 1.25-.24 2.46-.395 1.2-.166 2.39-.245 3.56-.235 1.16.01 2.49.18 3.98.513 1.51.322 2.87.835 4.08 1.538 2.85 1.64 4.09 3.794 3.73 6.46-.33 2.655-2.44 5.102-6.31 7.338zm-15.33-.147l6.75-3.896c1.15-.664 1.74-1.406 1.78-2.226.03-.82-.47-1.529-1.5-2.124-1.05-.606-2.28-.899-3.7-.88-1.43.02-2.71.362-3.86 1.026l-6.75 3.897 7.28 4.203zm-15.323-15.145l-5.455 3.149 6.216 3.589 5.452-3.15c1.03-.595 1.58-1.23 1.63-1.904.03-.683-.42-1.294-1.35-1.83-.95-.547-2.002-.806-3.17-.777a6.765 6.765 0 00-3.323.923z" fill="#fff"/><path d="M1010.6 268.5c-1.16 2-4.04 2-5.2 0l-9.524-16.5c-1.155-2 .288-4.5 2.598-4.5h19.056c2.31 0 3.75 2.5 2.59 4.5l-9.52 16.5z" fill="#000"/><path d="M1010.6 268.5c-1.16 2-4.04 2-5.2 0l-9.524-16.5c-1.155-2 .288-4.5 2.598-4.5h19.056c2.31 0 3.75 2.5 2.59 4.5l-9.52 16.5z" fill="url(#Z)"/><path d="M1010.6 402.5c-1.16 2-4.04 2-5.2 0l-9.524-16.5c-1.155-2 .288-4.5 2.598-4.5h19.056c2.31 0 3.75 2.5 2.59 4.5l-9.52 16.5z" fill="#000"/><path d="M1010.6 402.5c-1.16 2-4.04 2-5.2 0l-9.524-16.5c-1.155-2 .288-4.5 2.598-4.5h19.056c2.31 0 3.75 2.5 2.59 4.5l-9.52 16.5z" fill="url(#aa)"/><rect x="968" y="283" width="80" height="80" rx="18" fill="#000"/><rect x="968" y="283" width="80" height="80" rx="18" stroke="#2C2C33" stroke-width="4"/><rect x="968" y="283" width="80" height="80" rx="18" stroke="url(#ab)" stroke-opacity=".1" stroke-width="4"/><g clip-path="url(#ac)"><path d="M1008 309.383c-7.51 0-13.617 6.109-13.617 13.617 0 7.508 6.107 13.617 13.617 13.617 7.51 0 13.62-6.109 13.62-13.617 0-7.508-6.11-13.617-13.62-13.617zm-.61 12.387h1.22c2.5 0 4.53 2.031 4.53 4.529 0 2.287-1.7 4.183-3.91 4.486v2.507h-2.46v-2.507a4.532 4.532 0 01-3.91-4.486h2.46c0 1.14.93 2.068 2.07 2.068h1.22c1.14 0 2.07-.928 2.07-2.068 0-1.141-.93-2.069-2.07-2.069h-1.22c-2.5 0-4.53-2.031-4.53-4.529 0-2.287 1.7-4.183 3.91-4.486v-2.507h2.46v2.507a4.532 4.532 0 013.91 4.486h-2.46c0-1.14-.93-2.068-2.07-2.068h-1.22c-1.14 0-2.07.928-2.07 2.068 0 1.141.93 2.069 2.07 2.069z" fill="url(#ad)"/><path d="M1022.85 308.151A20.867 20.867 0 001008 302a20.858 20.858 0 00-14.849 6.151A20.86 20.86 0 00987 323a20.86 20.86 0 006.151 14.849A20.858 20.858 0 001008 344c5.61 0 10.88-2.184 14.85-6.151 3.97-3.966 6.15-9.24 6.15-14.849s-2.18-10.883-6.15-14.849zM1008 339.078c-8.865 0-16.078-7.213-16.078-16.078 0-8.865 7.213-16.078 16.078-16.078 8.87 0 16.08 7.213 16.08 16.078 0 8.865-7.21 16.078-16.08 16.078z" fill="#fff"/></g><rect x="968" y="418" width="80" height="80" rx="18" fill="#000"/><rect x="968" y="418" width="80" height="80" rx="18" stroke="#2C2C33" stroke-width="4"/><rect x="968" y="418" width="80" height="80" rx="18" stroke="url(#ae)" stroke-opacity=".1" stroke-width="4"/><g clip-path="url(#af)"><path d="M1008 468.862a5.79 5.79 0 005.79-5.793 5.79 5.79 0 10-11.58 0 5.79 5.79 0 005.79 5.793z" fill="#fff"/><path d="M1017.41 446.414c0-5.199-4.21-9.414-9.41-9.414a9.414 9.414 0 00-9.414 9.414 9.414 9.414 0 009.414 9.414c5.2 0 9.41-4.215 9.41-9.414zm-8.69 3.925v.42a.72.72 0 11-1.44 0v-.399a3.286 3.286 0 01-1.97-.724.736.736 0 011.03-1.05c.51.275 1.08.4 1.66.362.54 0 1.45-.116 1.45-.905 0-.608-.23-.724-1.54-.912-1.05-.131-2.81-.348-2.81-2.347a2.425 2.425 0 012.18-2.273v-.442a.72.72 0 111.44 0v.427c.85.114 1.61.586 2.09 1.296.2.35.08.796-.27.996-.35.2-.8.078-1-.271a1.736 1.736 0 00-1.54-.638c-.59 0-1.45.29-1.45.905 0 .616.23.725 1.54.913 1.05.13 2.81.347 2.81 2.346a2.32 2.32 0 01-2.18 2.296z" fill="url(#ag)"/><path d="M995.342 471.882a3.428 3.428 0 011.072 2.484v3.91c0 .4.324.724.724.724h21.722c.4 0 .73-.324.73-.724v-3.91c0-.94.38-1.838 1.07-2.484l6.91-6.518a5.058 5.058 0 000-7.038l-2.97-3.078a2.809 2.809 0 00-2.05-.884c-.78 0-1.52.32-2.05.884a2.95 2.95 0 00.14 4.012l2.17 2.245c.17.177.17.46 0 .637l-3.62 3.57c-6.2 6.091-16.14 6.091-22.335 0l-3.62-3.57a.456.456 0 010-.637l2.172-2.245a2.948 2.948 0 00.138-4.012 2.827 2.827 0 00-4.106 0l-2.991 3.092a5.07 5.07 0 000 7.039l6.894 6.503z" fill="#fff"/><path d="M1023.93 446.414a.72.72 0 00-.72-.724h-2.18a.72.72 0 00-.72.724c0 .4.32.724.72.724h2.18c.4 0 .72-.324.72-.724z" fill="url(#ah)"/><path d="M1019.98 450.679c1.6.804 1.55.804 1.78.804a.73.73 0 00.7-.557.72.72 0 00-.38-.812l-1.44-.724a.733.733 0 00-.76.005.728.728 0 00-.34.673c.02.271.19.507.44.611zm.33-7.162c.23 0 .18 0 1.77-.804a.722.722 0 00-.65-1.288l-1.45.724a.726.726 0 00.33 1.368zm-28.242 2.897c0 .4.325.724.724.724h2.173a.724.724 0 100-1.448h-2.173a.724.724 0 00-.724.724z" fill="#fff"/><path d="M994.241 451.483c.232 0 .181 0 1.775-.804a.725.725 0 10-.652-1.289l-1.448.724a.725.725 0 00.325 1.369z" fill="url(#ai)"/><path d="M995.689 443.517a.725.725 0 00.326-1.368l-1.448-.724a.725.725 0 00-.652 1.288c1.593.804 1.55.804 1.774.804z" fill="url(#aj)"/></g><defs><linearGradient id="H" x1="423.885" y1="440" x2="423.885" y2="447.383" gradientUnits="userSpaceOnUse"><stop stop-color="#F88"/><stop offset="1" stop-color="#FF2121"/></linearGradient><linearGradient id="a" x1="54.671" y1="536.038" x2="341.618" y2="306.139" gradientUnits="userSpaceOnUse"><stop/><stop offset=".81" stop-color="#272525"/></linearGradient><linearGradient id="c" x1="93" y1="56" x2="93" y2="128" gradientUnits="userSpaceOnUse"><stop stop-color="#4F0000"/><stop offset="1" stop-color="#FF1F1F"/></linearGradient><linearGradient id="d" x1="93.5" y1="82" x2="93.5" y2="129" gradientUnits="userSpaceOnUse"><stop/><stop offset="1" stop-color="#791E1E"/></linearGradient><linearGradient id="e" x1="121.999" y1="221.893" x2="94.528" y2="273.119" gradientUnits="userSpaceOnUse"><stop stop-color="#F30000"/><stop offset="1" stop-color="red" stop-opacity="0"/></linearGradient><linearGradient id="f" x1="121.999" y1="355.893" x2="94.528" y2="407.119" gradientUnits="userSpaceOnUse"><stop stop-color="#F30000"/><stop offset="1" stop-color="red" stop-opacity="0"/></linearGradient><linearGradient id="g" x1="93" y1="262" x2="93" y2="346" gradientUnits="userSpaceOnUse"><stop stop-color="#fff"/><stop offset="1" stop-color="#fff" stop-opacity="0"/></linearGradient><linearGradient id="i" x1="93" y1="290.383" x2="93" y2="317.617" gradientUnits="userSpaceOnUse"><stop stop-color="#F88"/><stop offset="1" stop-color="#FF2121"/></linearGradient><linearGradient id="j" x1="93" y1="396" x2="93" y2="480" gradientUnits="userSpaceOnUse"><stop stop-color="#fff"/><stop offset="1" stop-color="#fff" stop-opacity="0"/></linearGradient><linearGradient id="l" x1="81.027" y1="443.988" x2="81.027" y2="446.449" gradientUnits="userSpaceOnUse"><stop stop-color="#F88"/><stop offset="1" stop-color="#FF2121"/></linearGradient><linearGradient id="m" x1="88.43" y1="417" x2="88.43" y2="459" gradientUnits="userSpaceOnUse"><stop stop-color="#F88"/><stop offset="1" stop-color="#FF2121"/></linearGradient><linearGradient id="n" x1="99.906" y1="449.904" x2="99.906" y2="459" gradientUnits="userSpaceOnUse"><stop stop-color="#F88"/><stop offset="1" stop-color="#FF2121"/></linearGradient><linearGradient id="o" x1="271.497" y1="-1516.41" x2="373.954" y2="-1516.46" gradientUnits="userSpaceOnUse"><stop stop-color="#DC2C2C"/><stop offset="1" stop-color="#FFE1E1"/></linearGradient><linearGradient id="p" x1="271.497" y1="2257.41" x2="373.954" y2="2257.46" gradientUnits="userSpaceOnUse"><stop stop-color="#DC2C2C"/><stop offset="1" stop-color="#FFE1E1"/></linearGradient><linearGradient id="q" x1="553.598" y1="2257.41" x2="456.875" y2="2257.45" gradientUnits="userSpaceOnUse"><stop stop-color="#DC2C2C"/><stop offset="1" stop-color="#FFE1E1"/></linearGradient><linearGradient id="r" x1="553.598" y1="-1516.41" x2="456.875" y2="-1516.45" gradientUnits="userSpaceOnUse"><stop stop-color="#DC2C2C"/><stop offset="1" stop-color="#FFE1E1"/></linearGradient><linearGradient id="s" x1="553.598" y1="391.3" x2="457.057" y2="395.486" gradientUnits="userSpaceOnUse"><stop stop-color="#DC2C2C"/><stop offset="1" stop-color="#FFE1E1"/></linearGradient><linearGradient id="t" x1="196.825" y1="396.659" x2="245.304" y2="306.26" gradientUnits="userSpaceOnUse"><stop stop-color="#FF2E2E"/><stop offset="1" stop-color="#FB0000" stop-opacity=".5"/></linearGradient><linearGradient id="u" x1="414" y1="235" x2="414" y2="319" gradientUnits="userSpaceOnUse"><stop stop-color="#fff"/><stop offset="1" stop-color="#fff" stop-opacity="0"/></linearGradient><linearGradient id="v" x1="414" y1="327" x2="414" y2="411" gradientUnits="userSpaceOnUse"><stop stop-color="#fff"/><stop offset="1" stop-color="#fff" stop-opacity="0"/></linearGradient><linearGradient id="w" x1="414" y1="419" x2="414" y2="503" gradientUnits="userSpaceOnUse"><stop stop-color="#fff"/><stop offset="1" stop-color="#fff" stop-opacity="0"/></linearGradient><linearGradient id="x" x1="414" y1="278.148" x2="414" y2="280.609" gradientUnits="userSpaceOnUse"><stop stop-color="#F88"/><stop offset="1" stop-color="#FF2121"/></linearGradient><linearGradient id="y" x1="414" y1="268.055" x2="414" y2="290.703" gradientUnits="userSpaceOnUse"><stop stop-color="#F88"/><stop offset="1" stop-color="#FF2121"/></linearGradient><linearGradient id="z" x1="423.885" y1="256" x2="423.885" y2="263.383" gradientUnits="userSpaceOnUse"><stop stop-color="#F88"/><stop offset="1" stop-color="#FF2121"/></linearGradient><linearGradient id="A" x1="414" y1="290.265" x2="414" y2="298" gradientUnits="userSpaceOnUse"><stop stop-color="#F88"/><stop offset="1" stop-color="#FF2121"/></linearGradient><linearGradient id="B" x1="414" y1="370.148" x2="414" y2="372.609" gradientUnits="userSpaceOnUse"><stop stop-color="#F88"/><stop offset="1" stop-color="#FF2121"/></linearGradient><linearGradient id="C" x1="414" y1="360.055" x2="414" y2="382.703" gradientUnits="userSpaceOnUse"><stop stop-color="#F88"/><stop offset="1" stop-color="#FF2121"/></linearGradient><linearGradient id="D" x1="423.885" y1="348" x2="423.885" y2="355.383" gradientUnits="userSpaceOnUse"><stop stop-color="#F88"/><stop offset="1" stop-color="#FF2121"/></linearGradient><linearGradient id="E" x1="414" y1="382.265" x2="414" y2="390" gradientUnits="userSpaceOnUse"><stop stop-color="#F88"/><stop offset="1" stop-color="#FF2121"/></linearGradient><linearGradient id="F" x1="414" y1="462.148" x2="414" y2="464.609" gradientUnits="userSpaceOnUse"><stop stop-color="#F88"/><stop offset="1" stop-color="#FF2121"/></linearGradient><linearGradient id="G" x1="414" y1="452.055" x2="414" y2="474.703" gradientUnits="userSpaceOnUse"><stop stop-color="#F88"/><stop offset="1" stop-color="#FF2121"/></linearGradient><linearGradient id="b" x1="93" y1="85" x2="93" y2="165" gradientUnits="userSpaceOnUse"><stop stop-color="#FF4C4C"/><stop offset="1" stop-color="#7D0000"/></linearGradient><linearGradient id="I" x1="414" y1="474.265" x2="414" y2="482" gradientUnits="userSpaceOnUse"><stop stop-color="#F88"/><stop offset="1" stop-color="#FF2121"/></linearGradient><linearGradient id="J" x1="595.393" y1="-570.204" x2="679.5" y2="-570.276" gradientUnits="userSpaceOnUse"><stop stop-color="#DC2C2C"/><stop offset="1" stop-color="#FFE1E1"/></linearGradient><linearGradient id="K" x1="838.757" y1="1313.2" x2="751.591" y2="1313.28" gradientUnits="userSpaceOnUse"><stop stop-color="#DC2C2C"/><stop offset="1" stop-color="#FFE1E1"/></linearGradient><linearGradient id="L" x1="595.393" y1="1313.2" x2="679.5" y2="1313.28" gradientUnits="userSpaceOnUse"><stop stop-color="#DC2C2C"/><stop offset="1" stop-color="#FFE1E1"/></linearGradient><linearGradient id="M" x1="838.756" y1="-570.203" x2="751.591" y2="-570.28" gradientUnits="userSpaceOnUse"><stop stop-color="#DC2C2C"/><stop offset="1" stop-color="#FFE1E1"/></linearGradient><linearGradient id="N" x1="-21.175" y1="56.66" x2="27.304" y2="-33.74" gradientUnits="userSpaceOnUse"><stop stop-color="#FF2E2E"/><stop offset="1" stop-color="#FB0000" stop-opacity=".5"/></linearGradient><linearGradient id="O" x1="-21.175" y1="56.66" x2="27.304" y2="-33.74" gradientUnits="userSpaceOnUse"><stop stop-color="#FF2E2E"/><stop offset="1" stop-color="#FB0000" stop-opacity=".5"/></linearGradient><linearGradient id="P" x1="711" y1="378" x2="711" y2="462" gradientUnits="userSpaceOnUse"><stop stop-color="#fff"/><stop offset="1" stop-color="#fff" stop-opacity="0"/></linearGradient><linearGradient id="Q" x1="711" y1="271" x2="711" y2="355" gradientUnits="userSpaceOnUse"><stop stop-color="#fff"/><stop offset="1" stop-color="#fff" stop-opacity="0"/></linearGradient><linearGradient id="R" x1="722.648" y1="303.156" x2="722.648" y2="305.617" gradientUnits="userSpaceOnUse"><stop stop-color="#F88"/><stop offset="1" stop-color="#FF2121"/></linearGradient><linearGradient id="S" x1="722.672" y1="294.543" x2="722.672" y2="314.23" gradientUnits="userSpaceOnUse"><stop stop-color="#F88"/><stop offset="1" stop-color="#FF2121"/></linearGradient><linearGradient id="T" x1="722.648" y1="410.156" x2="722.648" y2="412.617" gradientUnits="userSpaceOnUse"><stop stop-color="#F88"/><stop offset="1" stop-color="#FF2121"/></linearGradient><linearGradient id="U" x1="722.672" y1="401.543" x2="722.672" y2="421.23" gradientUnits="userSpaceOnUse"><stop stop-color="#F88"/><stop offset="1" stop-color="#FF2121"/></linearGradient><linearGradient id="V" x1="939.671" y1="536.038" x2="1226.62" y2="306.139" gradientUnits="userSpaceOnUse"><stop/><stop offset=".81" stop-color="#272525"/></linearGradient><linearGradient id="W" x1="1008" y1="85" x2="1008" y2="165" gradientUnits="userSpaceOnUse"><stop stop-color="#FF4C4C"/><stop offset="1" stop-color="#7D0000"/></linearGradient><linearGradient id="X" x1="1008" y1="56" x2="1008" y2="128" gradientUnits="userSpaceOnUse"><stop stop-color="#4F0000"/><stop offset="1" stop-color="#FF1F1F"/></linearGradient><linearGradient id="Y" x1="1008.5" y1="82" x2="1008.5" y2="129" gradientUnits="userSpaceOnUse"><stop/><stop offset="1" stop-color="#791E1E"/></linearGradient><linearGradient id="Z" x1="1037" y1="240.893" x2="1009.53" y2="292.119" gradientUnits="userSpaceOnUse"><stop stop-color="#F30000"/><stop offset="1" stop-color="red" stop-opacity="0"/></linearGradient><linearGradient id="aa" x1="1037" y1="374.893" x2="1009.53" y2="426.119" gradientUnits="userSpaceOnUse"><stop stop-color="#F30000"/><stop offset="1" stop-color="red" stop-opacity="0"/></linearGradient><linearGradient id="ab" x1="1008" y1="281" x2="1008" y2="365" gradientUnits="userSpaceOnUse"><stop stop-color="#fff"/><stop offset="1" stop-color="#fff" stop-opacity="0"/></linearGradient><linearGradient id="ad" x1="1008" y1="309.383" x2="1008" y2="336.617" gradientUnits="userSpaceOnUse"><stop stop-color="#F88"/><stop offset="1" stop-color="#FF2121"/></linearGradient><linearGradient id="ae" x1="1008" y1="416" x2="1008" y2="500" gradientUnits="userSpaceOnUse"><stop stop-color="#fff"/><stop offset="1" stop-color="#fff" stop-opacity="0"/></linearGradient><linearGradient id="ag" x1="1008" y1="437" x2="1008" y2="455.828" gradientUnits="userSpaceOnUse"><stop stop-color="#F88"/><stop offset="1" stop-color="#FF2121"/></linearGradient><linearGradient id="ah" x1="1022.12" y1="445.69" x2="1022.12" y2="447.138" gradientUnits="userSpaceOnUse"><stop stop-color="#F88"/><stop offset="1" stop-color="#FF2121"/></linearGradient><linearGradient id="ai" x1="994.991" y1="449.286" x2="994.991" y2="451.483" gradientUnits="userSpaceOnUse"><stop stop-color="#F88"/><stop offset="1" stop-color="#FF2121"/></linearGradient><linearGradient id="aj" x1="994.987" y1="441.369" x2="994.987" y2="443.517" gradientUnits="userSpaceOnUse"><stop stop-color="#F88"/><stop offset="1" stop-color="#FF2121"/></linearGradient><clipPath id="h"><path fill="#fff" transform="translate(72 283)" d="M0 0h42v42H0z"/></clipPath><clipPath id="k"><path fill="#fff" transform="translate(72 417)" d="M0 0h42v42H0z"/></clipPath><clipPath id="ac"><path fill="#fff" transform="translate(987 302)" d="M0 0h42v42H0z"/></clipPath><clipPath id="af"><path fill="#fff" transform="translate(987 437)" d="M0 0h42v42H0z"/></clipPath></defs></svg>